<?xml version="1.0" encoding="utf-8" standalone="no"?>
<!DOCTYPE svg PUBLIC "-//W3C//DTD SVG 1.1//EN"
  "http://www.w3.org/Graphics/SVG/1.1/DTD/svg11.dtd">
<svg xmlns:xlink="http://www.w3.org/1999/xlink" width="924.35462pt" height="424.275781pt" viewBox="0 0 924.35462 424.275781" xmlns="http://www.w3.org/2000/svg" version="1.1">
 <metadata>
  <rdf:RDF xmlns:dc="http://purl.org/dc/elements/1.1/" xmlns:cc="http://creativecommons.org/ns#" xmlns:rdf="http://www.w3.org/1999/02/22-rdf-syntax-ns#">
   <cc:Work>
    <dc:type rdf:resource="http://purl.org/dc/dcmitype/StillImage"/>
    <dc:date>2026-04-21T12:13:12.103544</dc:date>
    <dc:format>image/svg+xml</dc:format>
    <dc:creator>
     <cc:Agent>
      <dc:title>Matplotlib v3.10.8, https://matplotlib.org/</dc:title>
     </cc:Agent>
    </dc:creator>
   </cc:Work>
  </rdf:RDF>
 </metadata>
 <defs>
  <style type="text/css">*{stroke-linejoin: round; stroke-linecap: butt}</style>
 </defs>
 <g id="figure_1">
  <g id="patch_1">
   <path d="M 0 424.275781 
L 924.35462 424.275781 
L 924.35462 0 
L 0 0 
z
" style="fill: #ffffff"/>
  </g>
  <g id="axes_1">
   <g id="patch_2">
    <path d="M 61.62625 400.397656 
L 901.798977 400.397656 
L 901.798977 24.597656 
L 61.62625 24.597656 
z
" style="fill: #ffffff"/>
   </g>
   <g id="matplotlib.axis_1">
    <g id="xtick_1">
     <g id="line2d_1">
      <defs>
       <path id="m95bd090f6c" d="M 0 0 
L 0 3.5 
" style="stroke: #000000; stroke-width: 0.8"/>
      </defs>
      <g>
       <use xlink:href="#m95bd090f6c" x="98.524637" y="400.397656" style="stroke: #000000; stroke-width: 0.8"/>
      </g>
     </g>
     <g id="text_1">
      <!-- 2023-01 -->
      <g transform="translate(77.633231 414.996094) scale(0.1 -0.1)">
       <defs>
        <path id="DejaVuSans-32" d="M 1228 531 
L 3431 531 
L 3431 0 
L 469 0 
L 469 531 
Q 828 903 1448 1529 
Q 2069 2156 2228 2338 
Q 2531 2678 2651 2914 
Q 2772 3150 2772 3378 
Q 2772 3750 2511 3984 
Q 2250 4219 1831 4219 
Q 1534 4219 1204 4116 
Q 875 4013 500 3803 
L 500 4441 
Q 881 4594 1212 4672 
Q 1544 4750 1819 4750 
Q 2544 4750 2975 4387 
Q 3406 4025 3406 3419 
Q 3406 3131 3298 2873 
Q 3191 2616 2906 2266 
Q 2828 2175 2409 1742 
Q 1991 1309 1228 531 
z
" transform="scale(0.015625)"/>
        <path id="DejaVuSans-30" d="M 2034 4250 
Q 1547 4250 1301 3770 
Q 1056 3291 1056 2328 
Q 1056 1369 1301 889 
Q 1547 409 2034 409 
Q 2525 409 2770 889 
Q 3016 1369 3016 2328 
Q 3016 3291 2770 3770 
Q 2525 4250 2034 4250 
z
M 2034 4750 
Q 2819 4750 3233 4129 
Q 3647 3509 3647 2328 
Q 3647 1150 3233 529 
Q 2819 -91 2034 -91 
Q 1250 -91 836 529 
Q 422 1150 422 2328 
Q 422 3509 836 4129 
Q 1250 4750 2034 4750 
z
" transform="scale(0.015625)"/>
        <path id="DejaVuSans-33" d="M 2597 2516 
Q 3050 2419 3304 2112 
Q 3559 1806 3559 1356 
Q 3559 666 3084 287 
Q 2609 -91 1734 -91 
Q 1441 -91 1130 -33 
Q 819 25 488 141 
L 488 750 
Q 750 597 1062 519 
Q 1375 441 1716 441 
Q 2309 441 2620 675 
Q 2931 909 2931 1356 
Q 2931 1769 2642 2001 
Q 2353 2234 1838 2234 
L 1294 2234 
L 1294 2753 
L 1863 2753 
Q 2328 2753 2575 2939 
Q 2822 3125 2822 3475 
Q 2822 3834 2567 4026 
Q 2313 4219 1838 4219 
Q 1578 4219 1281 4162 
Q 984 4106 628 3988 
L 628 4550 
Q 988 4650 1302 4700 
Q 1616 4750 1894 4750 
Q 2613 4750 3031 4423 
Q 3450 4097 3450 3541 
Q 3450 3153 3228 2886 
Q 3006 2619 2597 2516 
z
" transform="scale(0.015625)"/>
        <path id="DejaVuSans-2d" d="M 313 2009 
L 1997 2009 
L 1997 1497 
L 313 1497 
L 313 2009 
z
" transform="scale(0.015625)"/>
        <path id="DejaVuSans-31" d="M 794 531 
L 1825 531 
L 1825 4091 
L 703 3866 
L 703 4441 
L 1819 4666 
L 2450 4666 
L 2450 531 
L 3481 531 
L 3481 0 
L 794 0 
L 794 531 
z
" transform="scale(0.015625)"/>
       </defs>
       <use xlink:href="#DejaVuSans-32"/>
       <use xlink:href="#DejaVuSans-30" transform="translate(63.623047 0)"/>
       <use xlink:href="#DejaVuSans-32" transform="translate(127.246094 0)"/>
       <use xlink:href="#DejaVuSans-33" transform="translate(190.869141 0)"/>
       <use xlink:href="#DejaVuSans-2d" transform="translate(254.492188 0)"/>
       <use xlink:href="#DejaVuSans-30" transform="translate(290.576172 0)"/>
       <use xlink:href="#DejaVuSans-31" transform="translate(354.199219 0)"/>
      </g>
     </g>
    </g>
    <g id="xtick_2">
     <g id="line2d_2">
      <g>
       <use xlink:href="#m95bd090f6c" x="176.001566" y="400.397656" style="stroke: #000000; stroke-width: 0.8"/>
      </g>
     </g>
     <g id="text_2">
      <!-- 2023-05 -->
      <g transform="translate(155.11016 414.996094) scale(0.1 -0.1)">
       <defs>
        <path id="DejaVuSans-35" d="M 691 4666 
L 3169 4666 
L 3169 4134 
L 1269 4134 
L 1269 2991 
Q 1406 3038 1543 3061 
Q 1681 3084 1819 3084 
Q 2600 3084 3056 2656 
Q 3513 2228 3513 1497 
Q 3513 744 3044 326 
Q 2575 -91 1722 -91 
Q 1428 -91 1123 -41 
Q 819 9 494 109 
L 494 744 
Q 775 591 1075 516 
Q 1375 441 1709 441 
Q 2250 441 2565 725 
Q 2881 1009 2881 1497 
Q 2881 1984 2565 2268 
Q 2250 2553 1709 2553 
Q 1456 2553 1204 2497 
Q 953 2441 691 2322 
L 691 4666 
z
" transform="scale(0.015625)"/>
       </defs>
       <use xlink:href="#DejaVuSans-32"/>
       <use xlink:href="#DejaVuSans-30" transform="translate(63.623047 0)"/>
       <use xlink:href="#DejaVuSans-32" transform="translate(127.246094 0)"/>
       <use xlink:href="#DejaVuSans-33" transform="translate(190.869141 0)"/>
       <use xlink:href="#DejaVuSans-2d" transform="translate(254.492188 0)"/>
       <use xlink:href="#DejaVuSans-30" transform="translate(290.576172 0)"/>
       <use xlink:href="#DejaVuSans-35" transform="translate(354.199219 0)"/>
      </g>
     </g>
    </g>
    <g id="xtick_3">
     <g id="line2d_3">
      <g>
       <use xlink:href="#m95bd090f6c" x="255.415418" y="400.397656" style="stroke: #000000; stroke-width: 0.8"/>
      </g>
     </g>
     <g id="text_3">
      <!-- 2023-09 -->
      <g transform="translate(234.524012 414.996094) scale(0.1 -0.1)">
       <defs>
        <path id="DejaVuSans-39" d="M 703 97 
L 703 672 
Q 941 559 1184 500 
Q 1428 441 1663 441 
Q 2288 441 2617 861 
Q 2947 1281 2994 2138 
Q 2813 1869 2534 1725 
Q 2256 1581 1919 1581 
Q 1219 1581 811 2004 
Q 403 2428 403 3163 
Q 403 3881 828 4315 
Q 1253 4750 1959 4750 
Q 2769 4750 3195 4129 
Q 3622 3509 3622 2328 
Q 3622 1225 3098 567 
Q 2575 -91 1691 -91 
Q 1453 -91 1209 -44 
Q 966 3 703 97 
z
M 1959 2075 
Q 2384 2075 2632 2365 
Q 2881 2656 2881 3163 
Q 2881 3666 2632 3958 
Q 2384 4250 1959 4250 
Q 1534 4250 1286 3958 
Q 1038 3666 1038 3163 
Q 1038 2656 1286 2365 
Q 1534 2075 1959 2075 
z
" transform="scale(0.015625)"/>
       </defs>
       <use xlink:href="#DejaVuSans-32"/>
       <use xlink:href="#DejaVuSans-30" transform="translate(63.623047 0)"/>
       <use xlink:href="#DejaVuSans-32" transform="translate(127.246094 0)"/>
       <use xlink:href="#DejaVuSans-33" transform="translate(190.869141 0)"/>
       <use xlink:href="#DejaVuSans-2d" transform="translate(254.492188 0)"/>
       <use xlink:href="#DejaVuSans-30" transform="translate(290.576172 0)"/>
       <use xlink:href="#DejaVuSans-39" transform="translate(354.199219 0)"/>
      </g>
     </g>
    </g>
    <g id="xtick_4">
     <g id="line2d_4">
      <g>
       <use xlink:href="#m95bd090f6c" x="334.183629" y="400.397656" style="stroke: #000000; stroke-width: 0.8"/>
      </g>
     </g>
     <g id="text_4">
      <!-- 2024-01 -->
      <g transform="translate(313.292222 414.996094) scale(0.1 -0.1)">
       <defs>
        <path id="DejaVuSans-34" d="M 2419 4116 
L 825 1625 
L 2419 1625 
L 2419 4116 
z
M 2253 4666 
L 3047 4666 
L 3047 1625 
L 3713 1625 
L 3713 1100 
L 3047 1100 
L 3047 0 
L 2419 0 
L 2419 1100 
L 313 1100 
L 313 1709 
L 2253 4666 
z
" transform="scale(0.015625)"/>
       </defs>
       <use xlink:href="#DejaVuSans-32"/>
       <use xlink:href="#DejaVuSans-30" transform="translate(63.623047 0)"/>
       <use xlink:href="#DejaVuSans-32" transform="translate(127.246094 0)"/>
       <use xlink:href="#DejaVuSans-34" transform="translate(190.869141 0)"/>
       <use xlink:href="#DejaVuSans-2d" transform="translate(254.492188 0)"/>
       <use xlink:href="#DejaVuSans-30" transform="translate(290.576172 0)"/>
       <use xlink:href="#DejaVuSans-31" transform="translate(354.199219 0)"/>
      </g>
     </g>
    </g>
    <g id="xtick_5">
     <g id="line2d_5">
      <g>
       <use xlink:href="#m95bd090f6c" x="412.306198" y="400.397656" style="stroke: #000000; stroke-width: 0.8"/>
      </g>
     </g>
     <g id="text_5">
      <!-- 2024-05 -->
      <g transform="translate(391.414792 414.996094) scale(0.1 -0.1)">
       <use xlink:href="#DejaVuSans-32"/>
       <use xlink:href="#DejaVuSans-30" transform="translate(63.623047 0)"/>
       <use xlink:href="#DejaVuSans-32" transform="translate(127.246094 0)"/>
       <use xlink:href="#DejaVuSans-34" transform="translate(190.869141 0)"/>
       <use xlink:href="#DejaVuSans-2d" transform="translate(254.492188 0)"/>
       <use xlink:href="#DejaVuSans-30" transform="translate(290.576172 0)"/>
       <use xlink:href="#DejaVuSans-35" transform="translate(354.199219 0)"/>
      </g>
     </g>
    </g>
    <g id="xtick_6">
     <g id="line2d_6">
      <g>
       <use xlink:href="#m95bd090f6c" x="491.72005" y="400.397656" style="stroke: #000000; stroke-width: 0.8"/>
      </g>
     </g>
     <g id="text_6">
      <!-- 2024-09 -->
      <g transform="translate(470.828644 414.996094) scale(0.1 -0.1)">
       <use xlink:href="#DejaVuSans-32"/>
       <use xlink:href="#DejaVuSans-30" transform="translate(63.623047 0)"/>
       <use xlink:href="#DejaVuSans-32" transform="translate(127.246094 0)"/>
       <use xlink:href="#DejaVuSans-34" transform="translate(190.869141 0)"/>
       <use xlink:href="#DejaVuSans-2d" transform="translate(254.492188 0)"/>
       <use xlink:href="#DejaVuSans-30" transform="translate(290.576172 0)"/>
       <use xlink:href="#DejaVuSans-39" transform="translate(354.199219 0)"/>
      </g>
     </g>
    </g>
    <g id="xtick_7">
     <g id="line2d_7">
      <g>
       <use xlink:href="#m95bd090f6c" x="570.488261" y="400.397656" style="stroke: #000000; stroke-width: 0.8"/>
      </g>
     </g>
     <g id="text_7">
      <!-- 2025-01 -->
      <g transform="translate(549.596855 414.996094) scale(0.1 -0.1)">
       <use xlink:href="#DejaVuSans-32"/>
       <use xlink:href="#DejaVuSans-30" transform="translate(63.623047 0)"/>
       <use xlink:href="#DejaVuSans-32" transform="translate(127.246094 0)"/>
       <use xlink:href="#DejaVuSans-35" transform="translate(190.869141 0)"/>
       <use xlink:href="#DejaVuSans-2d" transform="translate(254.492188 0)"/>
       <use xlink:href="#DejaVuSans-30" transform="translate(290.576172 0)"/>
       <use xlink:href="#DejaVuSans-31" transform="translate(354.199219 0)"/>
      </g>
     </g>
    </g>
    <g id="xtick_8">
     <g id="line2d_8">
      <g>
       <use xlink:href="#m95bd090f6c" x="647.96519" y="400.397656" style="stroke: #000000; stroke-width: 0.8"/>
      </g>
     </g>
     <g id="text_8">
      <!-- 2025-05 -->
      <g transform="translate(627.073783 414.996094) scale(0.1 -0.1)">
       <use xlink:href="#DejaVuSans-32"/>
       <use xlink:href="#DejaVuSans-30" transform="translate(63.623047 0)"/>
       <use xlink:href="#DejaVuSans-32" transform="translate(127.246094 0)"/>
       <use xlink:href="#DejaVuSans-35" transform="translate(190.869141 0)"/>
       <use xlink:href="#DejaVuSans-2d" transform="translate(254.492188 0)"/>
       <use xlink:href="#DejaVuSans-30" transform="translate(290.576172 0)"/>
       <use xlink:href="#DejaVuSans-35" transform="translate(354.199219 0)"/>
      </g>
     </g>
    </g>
    <g id="xtick_9">
     <g id="line2d_9">
      <g>
       <use xlink:href="#m95bd090f6c" x="727.379042" y="400.397656" style="stroke: #000000; stroke-width: 0.8"/>
      </g>
     </g>
     <g id="text_9">
      <!-- 2025-09 -->
      <g transform="translate(706.487635 414.996094) scale(0.1 -0.1)">
       <use xlink:href="#DejaVuSans-32"/>
       <use xlink:href="#DejaVuSans-30" transform="translate(63.623047 0)"/>
       <use xlink:href="#DejaVuSans-32" transform="translate(127.246094 0)"/>
       <use xlink:href="#DejaVuSans-35" transform="translate(190.869141 0)"/>
       <use xlink:href="#DejaVuSans-2d" transform="translate(254.492188 0)"/>
       <use xlink:href="#DejaVuSans-30" transform="translate(290.576172 0)"/>
       <use xlink:href="#DejaVuSans-39" transform="translate(354.199219 0)"/>
      </g>
     </g>
    </g>
    <g id="xtick_10">
     <g id="line2d_10">
      <g>
       <use xlink:href="#m95bd090f6c" x="806.147252" y="400.397656" style="stroke: #000000; stroke-width: 0.8"/>
      </g>
     </g>
     <g id="text_10">
      <!-- 2026-01 -->
      <g transform="translate(785.255846 414.996094) scale(0.1 -0.1)">
       <defs>
        <path id="DejaVuSans-36" d="M 2113 2584 
Q 1688 2584 1439 2293 
Q 1191 2003 1191 1497 
Q 1191 994 1439 701 
Q 1688 409 2113 409 
Q 2538 409 2786 701 
Q 3034 994 3034 1497 
Q 3034 2003 2786 2293 
Q 2538 2584 2113 2584 
z
M 3366 4563 
L 3366 3988 
Q 3128 4100 2886 4159 
Q 2644 4219 2406 4219 
Q 1781 4219 1451 3797 
Q 1122 3375 1075 2522 
Q 1259 2794 1537 2939 
Q 1816 3084 2150 3084 
Q 2853 3084 3261 2657 
Q 3669 2231 3669 1497 
Q 3669 778 3244 343 
Q 2819 -91 2113 -91 
Q 1303 -91 875 529 
Q 447 1150 447 2328 
Q 447 3434 972 4092 
Q 1497 4750 2381 4750 
Q 2619 4750 2861 4703 
Q 3103 4656 3366 4563 
z
" transform="scale(0.015625)"/>
       </defs>
       <use xlink:href="#DejaVuSans-32"/>
       <use xlink:href="#DejaVuSans-30" transform="translate(63.623047 0)"/>
       <use xlink:href="#DejaVuSans-32" transform="translate(127.246094 0)"/>
       <use xlink:href="#DejaVuSans-36" transform="translate(190.869141 0)"/>
       <use xlink:href="#DejaVuSans-2d" transform="translate(254.492188 0)"/>
       <use xlink:href="#DejaVuSans-30" transform="translate(290.576172 0)"/>
       <use xlink:href="#DejaVuSans-31" transform="translate(354.199219 0)"/>
      </g>
     </g>
    </g>
    <g id="xtick_11">
     <g id="line2d_11">
      <g>
       <use xlink:href="#m95bd090f6c" x="883.624181" y="400.397656" style="stroke: #000000; stroke-width: 0.8"/>
      </g>
     </g>
     <g id="text_11">
      <!-- 2026-05 -->
      <g transform="translate(862.732775 414.996094) scale(0.1 -0.1)">
       <use xlink:href="#DejaVuSans-32"/>
       <use xlink:href="#DejaVuSans-30" transform="translate(63.623047 0)"/>
       <use xlink:href="#DejaVuSans-32" transform="translate(127.246094 0)"/>
       <use xlink:href="#DejaVuSans-36" transform="translate(190.869141 0)"/>
       <use xlink:href="#DejaVuSans-2d" transform="translate(254.492188 0)"/>
       <use xlink:href="#DejaVuSans-30" transform="translate(290.576172 0)"/>
       <use xlink:href="#DejaVuSans-35" transform="translate(354.199219 0)"/>
      </g>
     </g>
    </g>
   </g>
   <g id="matplotlib.axis_2">
    <g id="ytick_1">
     <g id="line2d_12">
      <defs>
       <path id="m7b1ec77a4d" d="M 0 0 
L -3.5 0 
" style="stroke: #000000; stroke-width: 0.8"/>
      </defs>
      <g>
       <use xlink:href="#m7b1ec77a4d" x="61.62625" y="382.35372" style="stroke: #000000; stroke-width: 0.8"/>
      </g>
     </g>
     <g id="text_12">
      <!-- 10000 -->
      <g transform="translate(22.81375 386.152939) scale(0.1 -0.1)">
       <use xlink:href="#DejaVuSans-31"/>
       <use xlink:href="#DejaVuSans-30" transform="translate(63.623047 0)"/>
       <use xlink:href="#DejaVuSans-30" transform="translate(127.246094 0)"/>
       <use xlink:href="#DejaVuSans-30" transform="translate(190.869141 0)"/>
       <use xlink:href="#DejaVuSans-30" transform="translate(254.492188 0)"/>
      </g>
     </g>
    </g>
    <g id="ytick_2">
     <g id="line2d_13">
      <g>
       <use xlink:href="#m7b1ec77a4d" x="61.62625" y="331.466102" style="stroke: #000000; stroke-width: 0.8"/>
      </g>
     </g>
     <g id="text_13">
      <!-- 12000 -->
      <g transform="translate(22.81375 335.265321) scale(0.1 -0.1)">
       <use xlink:href="#DejaVuSans-31"/>
       <use xlink:href="#DejaVuSans-32" transform="translate(63.623047 0)"/>
       <use xlink:href="#DejaVuSans-30" transform="translate(127.246094 0)"/>
       <use xlink:href="#DejaVuSans-30" transform="translate(190.869141 0)"/>
       <use xlink:href="#DejaVuSans-30" transform="translate(254.492188 0)"/>
      </g>
     </g>
    </g>
    <g id="ytick_3">
     <g id="line2d_14">
      <g>
       <use xlink:href="#m7b1ec77a4d" x="61.62625" y="280.578484" style="stroke: #000000; stroke-width: 0.8"/>
      </g>
     </g>
     <g id="text_14">
      <!-- 14000 -->
      <g transform="translate(22.81375 284.377702) scale(0.1 -0.1)">
       <use xlink:href="#DejaVuSans-31"/>
       <use xlink:href="#DejaVuSans-34" transform="translate(63.623047 0)"/>
       <use xlink:href="#DejaVuSans-30" transform="translate(127.246094 0)"/>
       <use xlink:href="#DejaVuSans-30" transform="translate(190.869141 0)"/>
       <use xlink:href="#DejaVuSans-30" transform="translate(254.492188 0)"/>
      </g>
     </g>
    </g>
    <g id="ytick_4">
     <g id="line2d_15">
      <g>
       <use xlink:href="#m7b1ec77a4d" x="61.62625" y="229.690865" style="stroke: #000000; stroke-width: 0.8"/>
      </g>
     </g>
     <g id="text_15">
      <!-- 16000 -->
      <g transform="translate(22.81375 233.490084) scale(0.1 -0.1)">
       <use xlink:href="#DejaVuSans-31"/>
       <use xlink:href="#DejaVuSans-36" transform="translate(63.623047 0)"/>
       <use xlink:href="#DejaVuSans-30" transform="translate(127.246094 0)"/>
       <use xlink:href="#DejaVuSans-30" transform="translate(190.869141 0)"/>
       <use xlink:href="#DejaVuSans-30" transform="translate(254.492188 0)"/>
      </g>
     </g>
    </g>
    <g id="ytick_5">
     <g id="line2d_16">
      <g>
       <use xlink:href="#m7b1ec77a4d" x="61.62625" y="178.803247" style="stroke: #000000; stroke-width: 0.8"/>
      </g>
     </g>
     <g id="text_16">
      <!-- 18000 -->
      <g transform="translate(22.81375 182.602465) scale(0.1 -0.1)">
       <defs>
        <path id="DejaVuSans-38" d="M 2034 2216 
Q 1584 2216 1326 1975 
Q 1069 1734 1069 1313 
Q 1069 891 1326 650 
Q 1584 409 2034 409 
Q 2484 409 2743 651 
Q 3003 894 3003 1313 
Q 3003 1734 2745 1975 
Q 2488 2216 2034 2216 
z
M 1403 2484 
Q 997 2584 770 2862 
Q 544 3141 544 3541 
Q 544 4100 942 4425 
Q 1341 4750 2034 4750 
Q 2731 4750 3128 4425 
Q 3525 4100 3525 3541 
Q 3525 3141 3298 2862 
Q 3072 2584 2669 2484 
Q 3125 2378 3379 2068 
Q 3634 1759 3634 1313 
Q 3634 634 3220 271 
Q 2806 -91 2034 -91 
Q 1263 -91 848 271 
Q 434 634 434 1313 
Q 434 1759 690 2068 
Q 947 2378 1403 2484 
z
M 1172 3481 
Q 1172 3119 1398 2916 
Q 1625 2713 2034 2713 
Q 2441 2713 2670 2916 
Q 2900 3119 2900 3481 
Q 2900 3844 2670 4047 
Q 2441 4250 2034 4250 
Q 1625 4250 1398 4047 
Q 1172 3844 1172 3481 
z
" transform="scale(0.015625)"/>
       </defs>
       <use xlink:href="#DejaVuSans-31"/>
       <use xlink:href="#DejaVuSans-38" transform="translate(63.623047 0)"/>
       <use xlink:href="#DejaVuSans-30" transform="translate(127.246094 0)"/>
       <use xlink:href="#DejaVuSans-30" transform="translate(190.869141 0)"/>
       <use xlink:href="#DejaVuSans-30" transform="translate(254.492188 0)"/>
      </g>
     </g>
    </g>
    <g id="ytick_6">
     <g id="line2d_17">
      <g>
       <use xlink:href="#m7b1ec77a4d" x="61.62625" y="127.915628" style="stroke: #000000; stroke-width: 0.8"/>
      </g>
     </g>
     <g id="text_17">
      <!-- 20000 -->
      <g transform="translate(22.81375 131.714847) scale(0.1 -0.1)">
       <use xlink:href="#DejaVuSans-32"/>
       <use xlink:href="#DejaVuSans-30" transform="translate(63.623047 0)"/>
       <use xlink:href="#DejaVuSans-30" transform="translate(127.246094 0)"/>
       <use xlink:href="#DejaVuSans-30" transform="translate(190.869141 0)"/>
       <use xlink:href="#DejaVuSans-30" transform="translate(254.492188 0)"/>
      </g>
     </g>
    </g>
    <g id="ytick_7">
     <g id="line2d_18">
      <g>
       <use xlink:href="#m7b1ec77a4d" x="61.62625" y="77.02801" style="stroke: #000000; stroke-width: 0.8"/>
      </g>
     </g>
     <g id="text_18">
      <!-- 22000 -->
      <g transform="translate(22.81375 80.827229) scale(0.1 -0.1)">
       <use xlink:href="#DejaVuSans-32"/>
       <use xlink:href="#DejaVuSans-32" transform="translate(63.623047 0)"/>
       <use xlink:href="#DejaVuSans-30" transform="translate(127.246094 0)"/>
       <use xlink:href="#DejaVuSans-30" transform="translate(190.869141 0)"/>
       <use xlink:href="#DejaVuSans-30" transform="translate(254.492188 0)"/>
      </g>
     </g>
    </g>
    <g id="ytick_8">
     <g id="line2d_19">
      <g>
       <use xlink:href="#m7b1ec77a4d" x="61.62625" y="26.140391" style="stroke: #000000; stroke-width: 0.8"/>
      </g>
     </g>
     <g id="text_19">
      <!-- 24000 -->
      <g transform="translate(22.81375 29.93961) scale(0.1 -0.1)">
       <use xlink:href="#DejaVuSans-32"/>
       <use xlink:href="#DejaVuSans-34" transform="translate(63.623047 0)"/>
       <use xlink:href="#DejaVuSans-30" transform="translate(127.246094 0)"/>
       <use xlink:href="#DejaVuSans-30" transform="translate(190.869141 0)"/>
       <use xlink:href="#DejaVuSans-30" transform="translate(254.492188 0)"/>
      </g>
     </g>
    </g>
    <g id="text_20">
     <!-- Growth of $10,000 -->
     <g transform="translate(16.318125 268.620156) rotate(-90) scale(0.12 -0.12)">
      <defs>
       <path id="DejaVuSans-47" d="M 3809 666 
L 3809 1919 
L 2778 1919 
L 2778 2438 
L 4434 2438 
L 4434 434 
Q 4069 175 3628 42 
Q 3188 -91 2688 -91 
Q 1594 -91 976 548 
Q 359 1188 359 2328 
Q 359 3472 976 4111 
Q 1594 4750 2688 4750 
Q 3144 4750 3555 4637 
Q 3966 4525 4313 4306 
L 4313 3634 
Q 3963 3931 3569 4081 
Q 3175 4231 2741 4231 
Q 1884 4231 1454 3753 
Q 1025 3275 1025 2328 
Q 1025 1384 1454 906 
Q 1884 428 2741 428 
Q 3075 428 3337 486 
Q 3600 544 3809 666 
z
" transform="scale(0.015625)"/>
       <path id="DejaVuSans-72" d="M 2631 2963 
Q 2534 3019 2420 3045 
Q 2306 3072 2169 3072 
Q 1681 3072 1420 2755 
Q 1159 2438 1159 1844 
L 1159 0 
L 581 0 
L 581 3500 
L 1159 3500 
L 1159 2956 
Q 1341 3275 1631 3429 
Q 1922 3584 2338 3584 
Q 2397 3584 2469 3576 
Q 2541 3569 2628 3553 
L 2631 2963 
z
" transform="scale(0.015625)"/>
       <path id="DejaVuSans-6f" d="M 1959 3097 
Q 1497 3097 1228 2736 
Q 959 2375 959 1747 
Q 959 1119 1226 758 
Q 1494 397 1959 397 
Q 2419 397 2687 759 
Q 2956 1122 2956 1747 
Q 2956 2369 2687 2733 
Q 2419 3097 1959 3097 
z
M 1959 3584 
Q 2709 3584 3137 3096 
Q 3566 2609 3566 1747 
Q 3566 888 3137 398 
Q 2709 -91 1959 -91 
Q 1206 -91 779 398 
Q 353 888 353 1747 
Q 353 2609 779 3096 
Q 1206 3584 1959 3584 
z
" transform="scale(0.015625)"/>
       <path id="DejaVuSans-77" d="M 269 3500 
L 844 3500 
L 1563 769 
L 2278 3500 
L 2956 3500 
L 3675 769 
L 4391 3500 
L 4966 3500 
L 4050 0 
L 3372 0 
L 2619 2869 
L 1863 0 
L 1184 0 
L 269 3500 
z
" transform="scale(0.015625)"/>
       <path id="DejaVuSans-74" d="M 1172 4494 
L 1172 3500 
L 2356 3500 
L 2356 3053 
L 1172 3053 
L 1172 1153 
Q 1172 725 1289 603 
Q 1406 481 1766 481 
L 2356 481 
L 2356 0 
L 1766 0 
Q 1100 0 847 248 
Q 594 497 594 1153 
L 594 3053 
L 172 3053 
L 172 3500 
L 594 3500 
L 594 4494 
L 1172 4494 
z
" transform="scale(0.015625)"/>
       <path id="DejaVuSans-68" d="M 3513 2113 
L 3513 0 
L 2938 0 
L 2938 2094 
Q 2938 2591 2744 2837 
Q 2550 3084 2163 3084 
Q 1697 3084 1428 2787 
Q 1159 2491 1159 1978 
L 1159 0 
L 581 0 
L 581 4863 
L 1159 4863 
L 1159 2956 
Q 1366 3272 1645 3428 
Q 1925 3584 2291 3584 
Q 2894 3584 3203 3211 
Q 3513 2838 3513 2113 
z
" transform="scale(0.015625)"/>
       <path id="DejaVuSans-20" transform="scale(0.015625)"/>
       <path id="DejaVuSans-66" d="M 2375 4863 
L 2375 4384 
L 1825 4384 
Q 1516 4384 1395 4259 
Q 1275 4134 1275 3809 
L 1275 3500 
L 2222 3500 
L 2222 3053 
L 1275 3053 
L 1275 0 
L 697 0 
L 697 3053 
L 147 3053 
L 147 3500 
L 697 3500 
L 697 3744 
Q 697 4328 969 4595 
Q 1241 4863 1831 4863 
L 2375 4863 
z
" transform="scale(0.015625)"/>
       <path id="DejaVuSans-24" d="M 2163 -941 
L 1850 -941 
L 1847 0 
Q 1519 6 1191 76 
Q 863 147 531 288 
L 531 850 
Q 850 650 1176 548 
Q 1503 447 1850 444 
L 1850 1869 
Q 1159 1981 845 2250 
Q 531 2519 531 2988 
Q 531 3497 872 3790 
Q 1213 4084 1850 4128 
L 1850 4863 
L 2163 4863 
L 2163 4138 
Q 2453 4125 2725 4076 
Q 2997 4028 3256 3944 
L 3256 3397 
Q 2997 3528 2723 3600 
Q 2450 3672 2163 3684 
L 2163 2350 
Q 2872 2241 3206 1959 
Q 3541 1678 3541 1191 
Q 3541 663 3186 358 
Q 2831 53 2163 6 
L 2163 -941 
z
M 1850 2406 
L 1850 3688 
Q 1488 3647 1297 3481 
Q 1106 3316 1106 3041 
Q 1106 2772 1282 2622 
Q 1459 2472 1850 2406 
z
M 2163 1806 
L 2163 453 
Q 2559 506 2761 678 
Q 2963 850 2963 1131 
Q 2963 1406 2770 1568 
Q 2578 1731 2163 1806 
z
" transform="scale(0.015625)"/>
       <path id="DejaVuSans-2c" d="M 750 794 
L 1409 794 
L 1409 256 
L 897 -744 
L 494 -744 
L 750 256 
L 750 794 
z
" transform="scale(0.015625)"/>
      </defs>
      <use xlink:href="#DejaVuSans-47"/>
      <use xlink:href="#DejaVuSans-72" transform="translate(77.490234 0)"/>
      <use xlink:href="#DejaVuSans-6f" transform="translate(116.353516 0)"/>
      <use xlink:href="#DejaVuSans-77" transform="translate(177.535156 0)"/>
      <use xlink:href="#DejaVuSans-74" transform="translate(259.322266 0)"/>
      <use xlink:href="#DejaVuSans-68" transform="translate(298.53125 0)"/>
      <use xlink:href="#DejaVuSans-20" transform="translate(361.910156 0)"/>
      <use xlink:href="#DejaVuSans-6f" transform="translate(393.697266 0)"/>
      <use xlink:href="#DejaVuSans-66" transform="translate(454.878906 0)"/>
      <use xlink:href="#DejaVuSans-20" transform="translate(490.083984 0)"/>
      <use xlink:href="#DejaVuSans-24" transform="translate(521.871094 0)"/>
      <use xlink:href="#DejaVuSans-31" transform="translate(585.494141 0)"/>
      <use xlink:href="#DejaVuSans-30" transform="translate(649.117188 0)"/>
      <use xlink:href="#DejaVuSans-2c" transform="translate(712.740234 0)"/>
      <use xlink:href="#DejaVuSans-30" transform="translate(744.527344 0)"/>
      <use xlink:href="#DejaVuSans-30" transform="translate(808.150391 0)"/>
      <use xlink:href="#DejaVuSans-30" transform="translate(871.773438 0)"/>
     </g>
    </g>
   </g>
   <g id="line2d_20">
    <path d="M 99.815919 382.35372 
L 100.46156 375.737441 
L 101.107202 380.265114 
L 101.752843 376.74933 
L 103.689766 372.589313 
L 104.335407 367.57266 
L 104.981048 365.75012 
L 106.27233 360.488101 
L 108.854894 357.385819 
L 109.500536 360.561418 
L 110.146177 361.616583 
L 110.791818 353.690331 
L 112.728741 348.918863 
L 113.374382 350.9807 
L 114.020023 351.790962 
L 114.665664 348.90974 
L 115.311305 343.58967 
L 117.248228 350.244329 
L 117.893869 345.789637 
L 118.539511 338.878964 
L 119.185152 323.307479 
L 119.830793 328.081015 
L 121.767716 328.627086 
L 122.413357 325.906278 
L 123.058998 329.551318 
L 123.704639 335.328131 
L 124.35028 338.067952 
L 126.287203 336.330244 
L 126.932844 333.486384 
L 127.578486 329.409205 
L 128.224127 333.431189 
L 128.869768 334.980926 
L 131.452332 338.510723 
L 132.097973 338.94136 
L 132.743614 333.145336 
L 133.389255 336.92098 
L 135.326178 336.185951 
L 135.971819 333.252698 
L 136.617461 335.744985 
L 137.263102 334.205655 
L 137.908743 329.590494 
L 139.845666 331.055562 
L 140.491307 332.594131 
L 141.136948 330.537532 
L 141.782589 335.824907 
L 142.42823 339.208779 
L 144.365153 335.093396 
L 145.010794 329.128386 
L 145.656436 326.571309 
L 146.302077 321.622965 
L 146.947718 320.388316 
L 148.884641 319.993614 
L 149.530282 314.120442 
L 150.175923 317.763263 
L 150.821564 318.783308 
L 151.467205 317.692077 
L 153.404128 320.903734 
L 154.049769 321.099863 
L 154.695411 317.788942 
L 155.341052 316.845781 
L 155.986693 325.234012 
L 157.923616 328.312789 
L 158.569257 328.688929 
L 159.214898 331.439235 
L 159.860539 328.483899 
L 162.443103 327.130137 
L 163.088744 327.699377 
L 163.734386 329.58483 
L 164.380027 326.215847 
L 165.025668 325.389608 
L 166.962591 325.990565 
L 167.608232 325.713741 
L 168.253873 326.261944 
L 168.899514 329.668381 
L 169.545155 329.682082 
L 171.482078 331.579037 
L 172.12772 334.510843 
L 172.773361 332.629843 
L 173.419002 325.323768 
L 174.064643 325.218091 
L 176.001566 325.323291 
L 176.647207 326.554776 
L 177.292848 328.471741 
L 177.938489 328.900962 
L 178.58413 322.019055 
L 180.521053 321.238858 
L 181.166695 321.516537 
L 181.812336 318.413206 
L 182.457977 318.369013 
L 183.103618 319.913741 
L 185.040541 317.224572 
L 185.686182 316.889424 
L 186.977464 310.289968 
L 187.623105 312.091115 
L 189.560028 310.058823 
L 190.20567 312.562084 
L 190.851311 312.707433 
L 191.496952 301.998235 
L 192.142593 298.38343 
L 194.725157 295.595874 
L 195.370798 299.26876 
L 196.016439 292.754168 
L 196.66208 292.841319 
L 198.599003 294.779548 
L 199.244645 298.816754 
L 199.890286 301.844315 
L 200.535927 298.449675 
L 201.181568 299.305795 
L 203.118491 298.024899 
L 205.055414 290.738133 
L 205.701055 291.235405 
L 208.28362 289.631606 
L 208.929261 290.330927 
L 209.574902 287.988109 
L 210.220543 287.793324 
L 212.157466 291.354445 
L 212.803107 284.796231 
L 213.448748 285.162785 
L 214.094389 285.222293 
L 214.74003 289.917485 
L 217.968236 288.687121 
L 218.613877 289.024004 
L 219.259518 287.887212 
L 221.196441 288.245178 
L 221.842082 284.156246 
L 222.487723 282.7677 
L 223.133364 270.983941 
L 223.779005 271.74013 
L 225.715929 270.508549 
L 226.36157 269.169893 
L 227.007211 267.549688 
L 227.652852 274.314275 
L 228.298493 276.229813 
L 230.235416 276.495846 
L 230.881057 274.74551 
L 231.526698 274.09922 
L 232.172339 275.016339 
L 232.81798 269.920567 
L 234.754904 269.711514 
L 235.400545 271.20595 
L 236.046186 277.19207 
L 236.691827 276.062223 
L 237.337468 276.582472 
L 239.274391 274.755996 
L 239.920032 275.943295 
L 240.565673 280.581505 
L 241.211314 280.499208 
L 241.856955 283.382405 
L 243.793879 279.687226 
L 246.376443 288.901462 
L 248.313366 282.774821 
L 248.959007 284.012524 
L 249.604648 280.5186 
L 250.250289 283.788889 
L 250.89593 283.526953 
L 252.832854 282.570601 
L 253.478495 274.603855 
L 254.124136 274.526655 
L 254.769777 275.453568 
L 255.415418 275.846993 
L 257.997982 275.443093 
L 258.643623 277.326571 
L 259.289264 276.650636 
L 259.934905 276.644211 
L 261.871829 275.414221 
L 262.51747 276.790421 
L 263.163111 275.654544 
L 263.808752 273.003488 
L 264.454393 277.247563 
L 266.391316 276.950175 
L 267.036957 278.756314 
L 268.328239 287.195265 
L 268.97388 287.783317 
L 270.910804 285.877957 
L 271.556445 288.859847 
L 272.202086 288.117622 
L 272.847727 284.848665 
L 273.493368 285.586984 
L 275.430291 284.220665 
L 276.075932 288.569879 
L 276.721573 285.325462 
L 277.367214 284.334253 
L 278.012855 279.470064 
L 279.949779 279.583488 
L 281.241061 276.20284 
L 281.886702 276.86626 
L 282.532343 280.658968 
L 284.469266 278.047077 
L 285.114907 279.709172 
L 285.760548 284.387722 
L 286.406189 286.228206 
L 287.05183 288.49793 
L 288.988754 284.650301 
L 289.634395 281.742329 
L 290.280036 288.358487 
L 290.925677 293.53718 
L 294.153882 288.454567 
L 295.445164 278.903947 
L 296.090805 276.369558 
L 298.027729 274.834512 
L 298.67337 272.781375 
L 299.319011 272.295092 
L 299.964652 271.388377 
L 300.610293 268.017071 
L 302.547216 267.762177 
L 303.192857 264.898185 
L 303.838498 264.792085 
L 304.484139 263.818399 
L 305.12978 263.710468 
L 307.066704 259.477298 
L 307.712345 260.490917 
L 308.357986 259.22101 
L 309.649268 259.426893 
L 311.586191 258.318918 
L 312.231832 255.903188 
L 312.877473 256.878461 
L 313.523114 259.629505 
L 314.168755 258.129203 
L 316.105679 258.927168 
L 316.75132 257.551785 
L 317.396961 260.643426 
L 318.688243 252.298923 
L 320.625166 257.010955 
L 321.270807 254.085919 
L 321.916448 249.902278 
L 322.562089 249.636672 
L 323.20773 249.164637 
L 325.144654 245.127218 
L 325.790295 243.484606 
L 326.435936 244.699064 
L 327.081577 241.167902 
L 327.727218 240.05703 
L 330.309782 240.107438 
L 330.955423 237.481851 
L 331.601064 237.172617 
L 332.246705 247.840454 
L 335.474911 257.652044 
L 336.120552 257.368754 
L 336.766193 255.858047 
L 338.703116 249.493516 
L 339.348757 249.549563 
L 339.994398 246.974844 
L 340.640039 248.253247 
L 341.28568 249.828341 
L 343.868245 248.5798 
L 344.513886 249.512711 
L 345.159527 248.534164 
L 345.805168 244.791701 
L 347.742091 244.691235 
L 349.033373 243.80924 
L 349.679014 244.344515 
L 350.324655 243.680053 
L 352.261579 242.729126 
L 352.90722 243.000701 
L 353.552861 244.683435 
L 354.198502 243.159234 
L 354.844143 242.060178 
L 357.426707 241.4407 
L 358.072348 240.192196 
L 359.36363 238.727877 
L 361.300554 239.538971 
L 361.946195 239.998639 
L 362.591836 238.291261 
L 363.237477 238.758158 
L 363.883118 240.538411 
L 366.465682 241.485652 
L 367.111323 241.985022 
L 367.756964 233.932774 
L 368.402605 234.669692 
L 370.339529 235.034627 
L 370.98517 235.960989 
L 371.630811 236.551827 
L 372.276452 234.418799 
L 372.922093 234.394548 
L 375.504657 235.415142 
L 376.150298 236.036387 
L 376.795939 235.176312 
L 379.378504 236.264864 
L 380.024145 233.281758 
L 380.669786 233.460677 
L 381.315427 232.941832 
L 381.961068 232.888311 
L 383.897991 231.45716 
L 384.543632 230.77384 
L 385.189273 229.150412 
L 385.834914 228.92395 
L 386.480555 228.309991 
L 388.417479 228.269488 
L 389.06312 228.493298 
L 389.708761 228.150214 
L 390.354402 231.526754 
L 392.936966 233.017976 
L 393.582607 232.779135 
L 394.873889 232.567782 
L 395.51953 232.042105 
L 397.456454 232.69009 
L 398.102095 232.384431 
L 398.747736 231.138672 
L 399.393377 231.049357 
L 400.039018 229.903928 
L 401.975941 228.882016 
L 402.621582 228.985286 
L 403.267223 229.712063 
L 403.912864 229.075033 
L 404.558506 231.397139 
L 406.495429 231.206323 
L 407.14107 231.67431 
L 407.786711 229.655879 
L 408.432352 229.68111 
L 409.077993 231.188147 
L 411.014916 232.970304 
L 411.660557 232.072642 
L 412.306198 230.64783 
L 412.951839 228.702617 
L 413.597481 228.196084 
L 415.534404 228.336879 
L 416.180045 227.395288 
L 416.825686 227.369405 
L 418.116968 226.779505 
L 420.699532 227.331349 
L 421.345173 227.839565 
L 421.990814 226.474549 
L 422.636456 226.791331 
L 424.573379 227.104486 
L 425.21902 227.742997 
L 425.864661 226.977955 
L 426.510302 226.404898 
L 427.155943 227.680632 
L 430.384148 227.866005 
L 431.029789 226.817327 
L 434.257995 226.072453 
L 434.903636 227.602256 
L 436.194918 225.957314 
L 438.131841 225.50588 
L 438.777482 225.149772 
L 439.423123 225.709706 
L 440.714406 225.636936 
L 442.651329 226.369892 
L 443.29697 225.963251 
L 444.588252 224.525035 
L 445.233893 225.14801 
L 447.170816 224.300947 
L 447.816457 223.177061 
L 448.462098 223.177271 
L 449.107739 223.059512 
L 449.753381 224.624935 
L 451.690304 226.545059 
L 452.335945 229.291911 
L 452.981586 231.060753 
L 454.272868 232.389905 
L 456.209791 232.396021 
L 457.501073 233.490221 
L 458.146715 230.765836 
L 458.792356 230.536615 
L 460.729279 230.605401 
L 461.37492 230.770684 
L 462.020561 230.329226 
L 462.666202 229.027893 
L 463.311843 230.582193 
L 465.248766 230.143265 
L 466.540048 228.410084 
L 467.18569 228.739999 
L 467.831331 226.965271 
L 470.413895 226.418543 
L 471.059536 223.310791 
L 471.705177 222.415356 
L 472.350818 223.000103 
L 474.287741 222.784215 
L 474.933382 220.067289 
L 475.579023 221.984789 
L 476.224665 217.435629 
L 476.870306 216.035379 
L 478.807229 216.405408 
L 479.45287 216.920961 
L 480.098511 216.818807 
L 480.744152 218.879131 
L 481.389793 219.307856 
L 483.326716 219.003658 
L 483.972357 218.756098 
L 484.617998 218.377611 
L 485.26364 217.670057 
L 485.909281 216.551229 
L 488.491845 216.265283 
L 489.137486 216.733579 
L 489.783127 216.748056 
L 490.428768 215.353584 
L 493.011332 215.103168 
L 493.656973 215.488036 
L 494.302615 215.589099 
L 494.948256 218.02192 
L 496.885179 217.68028 
L 497.53082 218.709385 
L 498.176461 220.176013 
L 498.822102 222.076602 
L 499.467743 222.273397 
L 501.404666 222.540477 
L 502.050307 222.11089 
L 502.695948 221.954239 
L 503.34159 221.298639 
L 503.987231 221.111329 
L 505.924154 220.912032 
L 506.569795 221.630539 
L 507.215436 221.187309 
L 508.506718 223.652509 
L 510.443641 224.078669 
L 511.089282 227.023732 
L 512.380565 227.473733 
L 513.026206 224.44205 
L 514.963129 225.316897 
L 515.60877 225.286803 
L 516.254411 224.691462 
L 516.900052 224.327229 
L 517.545693 226.702806 
L 520.128257 226.832949 
L 520.773899 227.56831 
L 521.41954 226.996626 
L 522.065181 224.222371 
L 524.002104 224.117902 
L 524.647745 223.967467 
L 525.293386 223.564243 
L 525.939027 222.563176 
L 526.584668 222.057159 
L 528.521591 222.024649 
L 529.167232 222.509557 
L 531.104156 216.799126 
L 533.041079 217.038052 
L 533.68672 216.157438 
L 534.332361 217.76926 
L 535.623643 226.571509 
L 537.560566 227.041113 
L 538.206207 230.297718 
L 538.851849 219.278349 
L 539.49749 217.983123 
L 540.143131 222.525666 
L 542.080054 222.369756 
L 542.725695 227.993874 
L 543.371336 238.738408 
L 544.016977 217.717487 
L 544.662618 222.663169 
L 546.599541 221.184599 
L 547.245182 224.098255 
L 547.890824 214.728299 
L 549.182106 214.566742 
L 551.119029 212.906919 
L 551.76467 213.330257 
L 552.410311 212.862287 
L 553.055952 211.086075 
L 553.701593 212.764218 
L 555.638516 212.177907 
L 556.284157 211.326354 
L 556.929799 208.413633 
L 557.57544 206.813191 
L 558.221081 206.873151 
L 560.158004 207.228776 
L 560.803645 207.617184 
L 561.449286 205.995782 
L 562.094927 210.908208 
L 562.740568 199.388445 
L 564.677491 198.49583 
L 565.323132 195.62117 
L 566.614415 194.287772 
L 567.260056 194.583438 
L 569.196979 193.879637 
L 569.84262 201.251659 
L 571.133902 201.476503 
L 571.779543 195.073007 
L 573.716466 195.480215 
L 574.362107 188.388469 
L 575.007749 187.751396 
L 576.299031 187.80057 
L 578.881595 186.410142 
L 579.527236 186.933798 
L 580.172877 186.991563 
L 580.818518 190.730134 
L 583.401083 191.094798 
L 584.046724 191.944705 
L 584.692365 191.830369 
L 585.338006 192.214749 
L 587.274929 191.180261 
L 587.92057 187.585412 
L 588.566211 188.067932 
L 589.211852 186.394796 
L 589.857493 187.490048 
L 592.440058 186.822827 
L 593.085699 186.443165 
L 593.73134 186.607863 
L 594.376981 187.991858 
L 596.313904 188.28999 
L 596.959545 188.538113 
L 597.605186 186.788921 
L 598.250827 185.830546 
L 598.896468 185.40636 
L 602.124674 185.633124 
L 602.770315 185.357416 
L 603.415956 187.045582 
L 605.352879 187.101831 
L 605.99852 191.832634 
L 606.644161 188.760642 
L 607.289802 195.165398 
L 607.935443 186.001237 
L 609.872366 185.545811 
L 610.518008 184.352897 
L 611.163649 187.175021 
L 611.80929 187.39395 
L 612.454931 181.924286 
L 614.391854 182.723733 
L 615.037495 173.154643 
L 615.683136 169.94177 
L 616.328777 172.255325 
L 616.974418 165.563668 
L 618.911341 165.694191 
L 619.556983 166.057477 
L 620.202624 163.15953 
L 621.493906 161.831971 
L 623.430829 160.539651 
L 624.07647 162.243466 
L 624.722111 157.694597 
L 625.367752 157.554289 
L 626.013393 153.146374 
L 627.950316 162.462503 
L 628.595958 163.699345 
L 629.241599 164.134629 
L 629.88724 158.831563 
L 630.532881 163.485183 
L 632.469804 163.153336 
L 633.115445 168.282508 
L 633.761086 139.797634 
L 634.406727 127.315147 
L 636.989292 128.900831 
L 637.634933 128.809506 
L 638.280574 127.414423 
L 638.926215 127.739048 
L 641.508779 126.355745 
L 642.15442 125.598646 
L 642.800061 126.672522 
L 643.445702 129.542593 
L 644.091343 135.513011 
L 646.028267 135.751021 
L 646.673908 135.484652 
L 647.319549 134.582287 
L 647.96519 134.430481 
L 648.610831 134.755501 
L 651.193395 135.236982 
L 651.839036 134.967077 
L 652.484677 133.013083 
L 653.130318 133.897559 
L 655.067242 134.238992 
L 656.358524 140.819216 
L 657.004165 137.003657 
L 657.649806 139.241606 
L 659.586729 138.887234 
L 660.23237 139.592221 
L 660.878011 138.477717 
L 661.523652 138.605006 
L 662.169293 138.321867 
L 665.397499 137.182915 
L 666.04314 136.879459 
L 666.688781 134.696057 
L 668.625704 135.953826 
L 669.271345 136.647177 
L 670.562627 135.939039 
L 671.208268 135.042037 
L 673.145192 134.909169 
L 673.790833 135.296025 
L 674.436474 134.793346 
L 675.727756 132.914348 
L 677.664679 132.718137 
L 678.31032 132.307624 
L 678.955961 132.196526 
L 680.247243 132.618196 
L 682.829808 131.525271 
L 683.475449 132.983887 
L 684.12109 133.47796 
L 684.766731 132.314016 
L 686.703654 137.905255 
L 687.349295 139.036684 
L 687.994936 137.089681 
L 688.640577 136.399666 
L 691.223142 136.698693 
L 691.868783 136.585899 
L 692.514424 135.747312 
L 693.160065 135.852954 
L 693.805706 136.259578 
L 695.742629 136.229186 
L 696.38827 135.946117 
L 697.033911 136.741759 
L 697.679552 137.717589 
L 698.325193 136.256456 
L 700.907758 136.688668 
L 701.553399 135.998131 
L 702.19904 135.711896 
L 702.844681 135.026902 
L 704.781604 134.740763 
L 706.072886 135.291778 
L 706.718527 134.287399 
L 707.364168 133.838272 
L 709.301092 133.830002 
L 709.946733 132.899457 
L 710.592374 132.447844 
L 711.238015 133.730982 
L 711.883656 134.436896 
L 713.820579 134.303327 
L 714.46622 134.638534 
L 715.111861 134.279351 
L 715.757502 134.828605 
L 716.403143 134.591542 
L 718.340067 134.622376 
L 718.985708 134.087483 
L 719.631349 133.179251 
L 720.27699 133.244225 
L 720.922631 130.553844 
L 722.859554 130.363235 
L 723.505195 129.273777 
L 724.150836 129.541845 
L 724.796477 129.41277 
L 725.442118 128.668188 
L 728.670324 128.187932 
L 729.315965 128.177962 
L 729.961606 127.464102 
L 731.898529 128.131147 
L 732.54417 128.523381 
L 733.189811 129.565583 
L 733.835452 129.298643 
L 734.481093 130.240082 
L 736.418017 130.319569 
L 737.063658 130.097011 
L 738.35494 130.967905 
L 739.000581 133.047862 
L 741.583145 133.026476 
L 742.228786 132.43656 
L 742.874427 134.366962 
L 743.520068 132.22316 
L 745.456992 131.889829 
L 746.102633 133.26929 
L 746.748274 136.497572 
L 747.393915 138.376893 
L 748.039556 138.377675 
L 749.976479 138.592375 
L 750.62212 137.637018 
L 751.267761 138.582942 
L 751.913402 139.183787 
L 752.559043 135.966359 
L 754.495967 135.289044 
L 755.141608 134.400096 
L 755.787249 136.092281 
L 756.43289 135.434851 
L 757.078531 131.552506 
L 759.015454 131.726995 
L 759.661095 132.013347 
L 760.306736 129.930684 
L 760.952377 128.362763 
L 761.598018 128.266572 
L 764.180583 128.302506 
L 764.826224 128.544983 
L 765.471865 128.235749 
L 766.117506 124.835399 
L 768.054429 124.288168 
L 768.70007 125.320712 
L 769.345711 121.373252 
L 769.991352 126.08407 
L 770.636993 122.591133 
L 772.573917 122.736026 
L 773.219558 121.858377 
L 774.51084 124.382545 
L 775.156481 126.409977 
L 777.739045 125.571952 
L 778.384686 124.266121 
L 779.030327 127.385436 
L 779.675968 127.513397 
L 781.612892 127.656904 
L 782.258533 126.436537 
L 782.904174 128.829764 
L 784.195456 131.755291 
L 786.132379 131.601603 
L 786.77802 129.178026 
L 787.423661 128.910997 
L 788.069302 128.48421 
L 788.714943 127.423253 
L 790.651867 127.407399 
L 791.943149 128.079711 
L 792.58879 126.826839 
L 793.234431 124.721026 
L 795.171354 123.630804 
L 795.816995 121.685222 
L 796.462636 123.900502 
L 797.108277 122.646989 
L 797.753918 116.907405 
L 799.690842 116.62426 
L 800.336483 116.029845 
L 800.982124 115.628936 
L 802.273406 114.481445 
L 804.85597 113.552269 
L 805.501611 116.8398 
L 806.792893 118.170054 
L 808.729817 118.126828 
L 809.375458 117.398226 
L 810.021099 117.168476 
L 810.66674 116.48312 
L 811.312381 116.181523 
L 813.249304 116.277951 
L 814.540586 117.903547 
L 815.186227 115.582979 
L 815.831869 116.991669 
L 818.414433 115.736067 
L 819.060074 114.348658 
L 819.705715 114.906378 
L 820.351356 113.212847 
L 822.288279 112.509633 
L 822.93392 111.507181 
L 823.579561 111.832224 
L 824.225202 110.969195 
L 824.870844 109.352938 
L 826.807767 108.75191 
L 827.453408 109.928409 
L 828.099049 112.788996 
L 828.74469 129.407011 
L 829.390331 82.398699 
L 831.327254 81.880633 
L 831.972895 81.239474 
L 832.618536 79.346173 
L 833.264177 79.651862 
L 833.909819 73.402063 
L 836.492383 73.817391 
L 837.138024 73.657879 
L 838.429306 71.804009 
L 840.366229 70.838154 
L 841.01187 70.152674 
L 841.657511 67.602997 
L 842.948794 63.661553 
L 844.885717 62.429202 
L 845.531358 60.464616 
L 846.176999 60.09389 
L 846.82264 57.127396 
L 847.468281 54.973163 
L 850.050845 54.097521 
L 850.696486 54.520857 
L 851.342127 52.30821 
L 851.987769 52.315963 
L 853.924692 52.520147 
L 854.570333 52.100975 
L 855.215974 49.67495 
L 855.861615 48.820961 
L 856.507256 48.540772 
L 858.444179 47.358717 
L 859.08982 47.317767 
L 859.735461 47.4716 
L 860.381102 44.715906 
L 861.026744 47.457163 
L 862.963667 46.780271 
L 863.609308 41.679474 
L 863.609308 41.679474 
" clip-path="url(#p67df34c8aa)" style="fill: none; stroke: #1f77b4; stroke-width: 2.8; stroke-linecap: square"/>
   </g>
   <g id="line2d_21">
    <path d="M 99.815919 382.35372 
L 100.46156 380.389414 
L 101.107202 383.315838 
L 101.752843 377.503124 
L 103.689766 377.650095 
L 104.335407 375.832738 
L 104.981048 372.532186 
L 106.27233 370.541144 
L 108.854894 371.028892 
L 109.500536 375.224755 
L 110.146177 377.128912 
L 110.791818 372.291715 
L 112.728741 369.118035 
L 113.374382 369.405341 
L 114.020023 369.305099 
L 114.665664 366.365296 
L 115.311305 365.743955 
L 117.248228 369.144792 
L 117.893869 365.209436 
L 118.539511 362.323147 
L 119.185152 358.327684 
L 119.830793 361.287522 
L 121.767716 362.971223 
L 122.413357 359.390001 
L 123.058998 362.423325 
L 123.704639 364.801895 
L 124.35028 364.167133 
L 126.287203 360.966802 
L 126.932844 361.093737 
L 127.578486 360.198469 
L 128.224127 364.006805 
L 128.869768 364.688253 
L 131.452332 370.146917 
L 132.097973 370.51443 
L 132.743614 369.097978 
L 133.389255 371.957574 
L 135.326178 371.055606 
L 136.617461 373.053327 
L 137.263102 371.002157 
L 137.908743 366.739508 
L 139.845666 366.552402 
L 140.491307 370.694815 
L 141.136948 370.260517 
L 141.782589 375.177962 
L 142.42823 378.952905 
L 144.365153 379.32046 
L 145.010794 375.064384 
L 145.656436 376.701313 
L 146.302077 372.13796 
L 146.947718 375.232518 
L 148.884641 372.717442 
L 149.530282 369.250011 
L 150.175923 373.810664 
L 150.821564 373.099758 
L 151.467205 371.36935 
L 153.404128 370.873052 
L 154.049769 371.469975 
L 154.695411 367.613529 
L 155.341052 366.037451 
L 155.986693 362.221245 
L 157.923616 361.174986 
L 158.569257 362.704144 
L 159.214898 363.421792 
L 159.860539 362.355412 
L 163.088744 361.999917 
L 163.734386 363.119981 
L 164.380027 359.484862 
L 165.025668 360.16229 
L 166.962591 359.169672 
L 167.608232 358.988606 
L 168.253873 359.035548 
L 168.899514 360.551285 
L 169.545155 360.336635 
L 171.482078 360.048265 
L 172.12772 364.441209 
L 172.773361 365.594772 
L 173.419002 360.195789 
L 174.064643 357.835001 
L 176.001566 358.116671 
L 176.647207 361.248791 
L 177.938489 365.078353 
L 178.58413 360.048265 
L 180.521053 359.974525 
L 181.166695 361.188407 
L 181.812336 359.900741 
L 183.103618 360.745771 
L 185.040541 359.793395 
L 185.686182 361.644464 
L 186.331823 358.304458 
L 186.977464 355.621737 
L 187.623105 356.030874 
L 189.560028 355.916827 
L 190.20567 359.069068 
L 190.851311 361.081125 
L 191.496952 358.693473 
L 192.142593 355.091897 
L 194.725157 354.984593 
L 195.370798 356.547293 
L 196.016439 353.884672 
L 196.66208 349.793497 
L 198.599003 350.343479 
L 199.244645 349.719756 
L 199.890286 350.712352 
L 200.535927 348.982029 
L 201.181568 348.465568 
L 203.118491 345.849931 
L 203.764132 343.931757 
L 204.409773 343.582983 
L 205.055414 339.947907 
L 205.701055 340.959008 
L 208.28362 342.493887 
L 208.929261 344.001754 
L 209.574902 342.944882 
L 210.220543 345.166356 
L 212.157466 346.357842 
L 212.803107 343.173782 
L 213.448748 343.025599 
L 214.094389 341.867803 
L 214.74003 338.387462 
L 216.676953 338.044175 
L 217.968236 338.488449 
L 218.613877 340.824373 
L 219.259518 341.571628 
L 221.196441 340.824373 
L 221.842082 338.939465 
L 223.133364 334.159951 
L 223.779005 334.348482 
L 225.715929 333.298331 
L 226.36157 331.043166 
L 227.007211 330.363249 
L 227.652852 332.396277 
L 228.298493 332.396277 
L 230.235416 331.036445 
L 230.881057 330.201709 
L 231.526698 330.154576 
L 232.172339 332.18754 
L 232.81798 329.205411 
L 234.754904 328.619697 
L 235.400545 329.501587 
L 236.046186 333.776252 
L 236.691827 334.644657 
L 237.337468 336.011211 
L 239.274391 333.385854 
L 239.920032 334.705254 
L 240.565673 336.724733 
L 241.211314 336.617068 
L 241.856955 336.792114 
L 243.793879 335.136064 
L 244.43952 338.650032 
L 245.730802 343.092959 
L 246.376443 342.951624 
L 248.313366 341.039831 
L 248.959007 341.840876 
L 249.604648 338.555787 
L 250.250289 342.689076 
L 250.89593 340.6157 
L 252.832854 338.737555 
L 253.478495 334.42922 
L 254.124136 333.183838 
L 254.769777 333.628154 
L 255.415418 333.062688 
L 257.997982 334.375409 
L 258.643623 336.408373 
L 259.289264 337.330611 
L 259.934905 336.879595 
L 261.871829 334.907206 
L 262.51747 336.563192 
L 263.163111 336.213142 
L 263.808752 333.621433 
L 264.454393 337.274119 
L 266.391316 337.098456 
L 267.036957 337.719988 
L 267.682598 340.469452 
L 268.328239 345.367181 
L 268.97388 346.022467 
L 270.910804 344.799715 
L 271.556445 349.08944 
L 272.202086 348.974628 
L 272.847727 347.305986 
L 273.493368 348.008618 
L 275.430291 348.123451 
L 276.075932 351.987597 
L 276.721573 349.913626 
L 277.367214 350.021716 
L 278.012855 346.616945 
L 279.949779 344.759155 
L 280.59542 343.239207 
L 281.241061 342.036703 
L 281.886702 343.833684 
L 282.532343 345.292887 
L 284.469266 342.225872 
L 285.114907 342.239378 
L 285.760548 346.164334 
L 286.406189 348.717907 
L 287.05183 352.257781 
L 288.988754 352.750974 
L 289.634395 350.60943 
L 290.280036 354.71677 
L 290.925677 358.094487 
L 291.571318 359.357778 
L 293.508241 356.040849 
L 294.153882 354.277643 
L 294.799523 351.264738 
L 295.445164 345.79278 
L 296.090805 343.13788 
L 298.027729 342.462345 
L 298.67337 341.624631 
L 299.319011 341.408471 
L 299.964652 343.712109 
L 300.610293 339.138631 
L 302.547216 339.422342 
L 303.192857 333.653188 
L 303.838498 333.011429 
L 305.12978 332.261558 
L 307.066704 329.917444 
L 307.712345 330.586216 
L 308.357986 329.404003 
L 309.649268 329.214876 
L 311.586191 329.768793 
L 312.231832 329.464748 
L 312.877473 329.680951 
L 313.523114 328.471748 
L 314.168755 326.647712 
L 316.105679 328.275815 
L 316.75132 328.336645 
L 317.396961 329.579624 
L 318.042602 327.235468 
L 318.688243 325.904647 
L 320.625166 324.695422 
L 321.270807 323.270016 
L 321.916448 318.946538 
L 322.562089 317.926461 
L 323.20773 318.451409 
L 325.144654 316.660766 
L 325.790295 314.714071 
L 326.435936 319.17714 
L 327.081577 316.165595 
L 327.727218 315.52122 
L 330.309782 314.164663 
L 330.955423 313.58133 
L 331.601064 313.459223 
L 332.246705 314.395244 
L 334.82927 316.19952 
L 335.474911 318.817688 
L 336.120552 319.841955 
L 336.766193 319.407827 
L 338.703116 314.876866 
L 339.348757 315.365231 
L 339.994398 313.547406 
L 340.640039 313.689868 
L 341.28568 313.466029 
L 343.868245 314.65307 
L 344.513886 316.443692 
L 345.159527 313.5949 
L 345.805168 309.565853 
L 347.742091 308.873962 
L 348.387732 307.917672 
L 349.033373 307.558114 
L 349.679014 305.767471 
L 350.324655 306.187987 
L 352.261579 303.569819 
L 352.90722 303.827539 
L 353.552861 309.260617 
L 354.198502 304.973892 
L 354.844143 301.480661 
L 356.781066 302.701605 
L 357.426707 301.731682 
L 358.072348 298.937106 
L 358.717989 298.787901 
L 359.36363 296.834442 
L 361.300554 296.983646 
L 361.946195 301.663833 
L 362.591836 298.6183 
L 363.237477 296.285013 
L 363.883118 297.980731 
L 366.465682 299.846029 
L 367.111323 299.540772 
L 367.756964 292.561202 
L 368.402605 292.323815 
L 370.339529 293.585447 
L 370.98517 292.947835 
L 371.630811 293.402297 
L 372.276452 292.167826 
L 372.922093 288.932422 
L 374.859016 289.305464 
L 375.504657 292.778276 
L 376.150298 291.035085 
L 376.795939 287.602919 
L 377.44158 289.69884 
L 379.378504 289.997291 
L 380.024145 286.266716 
L 381.315427 287.50793 
L 381.961068 289.906365 
L 383.897991 287.844772 
L 384.543632 285.905627 
L 385.189273 282.660184 
L 385.834914 281.489861 
L 386.480555 282.163461 
L 388.417479 283.143189 
L 389.06312 283.796413 
L 389.708761 280.829917 
L 390.354402 280.897957 
L 392.936966 281.51715 
L 393.582607 283.775994 
L 394.228248 283.388212 
L 394.873889 287.701885 
L 395.51953 284.054984 
L 397.456454 283.857689 
L 398.102095 283.449467 
L 398.747736 286.987449 
L 399.393377 284.347543 
L 400.039018 289.212368 
L 401.975941 293.566858 
L 402.621582 294.192835 
L 403.267223 296.220439 
L 403.912864 296.921242 
L 404.558506 299.887738 
L 406.495429 296.785161 
L 407.14107 292.750414 
L 407.786711 292.913677 
L 408.432352 294.220081 
L 409.077993 290.974574 
L 411.014916 289.749908 
L 411.660557 295.247453 
L 412.306198 296.356499 
L 412.951839 293.172269 
L 413.597481 288.912981 
L 415.534404 285.320551 
L 416.180045 284.932641 
L 416.825686 284.898716 
L 417.471327 282.87107 
L 418.116968 282.415183 
L 420.053891 282.367646 
L 420.699532 280.741458 
L 421.345173 276.332476 
L 421.990814 277.074138 
L 422.636456 276.556953 
L 424.573379 276.142031 
L 425.21902 275.257525 
L 425.864661 276.298445 
L 426.510302 278.93163 
L 427.155943 276.563844 
L 429.738507 276.3121 
L 431.029789 281.210893 
L 431.675431 277.972213 
L 433.612354 277.679675 
L 434.257995 277.278238 
L 434.903636 273.005317 
L 435.549277 273.01225 
L 436.194918 273.454482 
L 438.131841 272.331845 
L 438.777482 271.45406 
L 439.423123 268.453555 
L 440.068764 267.711851 
L 440.714406 267.487289 
L 443.29697 263.602278 
L 445.233893 265.115079 
L 447.170816 266.323219 
L 447.816457 264.896601 
L 449.107739 263.845429 
L 449.753381 265.313012 
L 451.690304 264.548507 
L 452.335945 262.043407 
L 452.981586 260.371043 
L 454.272868 258.200424 
L 456.209791 257.763552 
L 456.855432 257.394954 
L 457.501073 253.640749 
L 458.146715 256.94447 
L 458.792356 254.548651 
L 460.729279 253.497394 
L 461.37492 251.224427 
L 462.020561 256.630492 
L 463.311843 262.057062 
L 465.248766 258.193575 
L 465.894407 258.787414 
L 466.540048 267.353973 
L 467.18569 269.278889 
L 467.831331 265.16285 
L 469.768254 264.944457 
L 470.413895 266.828408 
L 471.059536 260.814721 
L 471.705177 266.138985 
L 472.350818 273.039858 
L 474.287741 283.633724 
L 474.933382 280.377773 
L 475.579023 282.760044 
L 476.224665 274.575758 
L 476.870306 272.978517 
L 478.807229 272.787391 
L 479.45287 266.801141 
L 480.098511 265.633881 
L 480.744152 259.272099 
L 481.389793 258.425666 
L 483.326716 254.807967 
L 483.972357 255.429159 
L 484.617998 254.118543 
L 485.26364 257.121941 
L 485.909281 253.087832 
L 487.846204 254.00254 
L 488.491845 253.47689 
L 489.137486 255.702172 
L 489.783127 255.668056 
L 490.428768 252.029853 
L 493.011332 259.947868 
L 494.302615 261.633887 
L 494.948256 267.947855 
L 497.53082 262.193653 
L 498.822102 255.162909 
L 499.467743 253.169761 
L 502.050307 252.446179 
L 502.695948 253.58613 
L 503.34159 247.04692 
L 503.987231 247.720647 
L 505.924154 246.748426 
L 506.569795 245.632382 
L 507.215436 246.495066 
L 507.861077 244.947765 
L 508.506718 245.515997 
L 510.443641 243.948065 
L 511.089282 247.467286 
L 511.734923 247.303002 
L 512.380565 248.015099 
L 513.026206 244.482137 
L 514.963129 248.028797 
L 515.60877 244.352012 
L 516.254411 241.633835 
L 516.900052 242.325386 
L 517.545693 239.963215 
L 519.482616 236.717815 
L 520.128257 239.826198 
L 520.773899 238.100873 
L 521.41954 238.066587 
L 522.065181 236.532942 
L 524.647745 237.402474 
L 525.293386 241.051907 
L 525.939027 240.196029 
L 526.584668 240.332961 
L 528.521591 239.10738 
L 529.167232 238.463728 
L 529.812874 239.668805 
L 530.458515 247.453632 
L 531.104156 245.810406 
L 533.041079 246.652544 
L 533.68672 241.935094 
L 534.332361 232.11675 
L 534.978002 228.987693 
L 535.623643 227.221276 
L 537.560566 226.831026 
L 538.206207 228.104463 
L 538.851849 227.905935 
L 539.49749 230.535164 
L 540.143131 235.738745 
L 542.080054 234.095393 
L 542.725695 232.62347 
L 543.371336 232.486496 
L 544.016977 230.316004 
L 544.662618 229.056223 
L 546.599541 227.673164 
L 547.245182 225.536916 
L 547.890824 226.783043 
L 549.182106 224.235999 
L 551.76467 223.304871 
L 552.410311 220.737366 
L 553.055952 221.421983 
L 553.701593 220.634635 
L 555.638516 222.777689 
L 556.284157 224.064866 
L 556.929799 220.874255 
L 557.57544 223.01731 
L 558.221081 223.099409 
L 560.158004 221.332992 
L 560.803645 223.044705 
L 561.449286 235.375806 
L 562.094927 235.499125 
L 562.740568 230.679157 
L 564.677491 228.247223 
L 565.323132 223.706223 
L 566.614415 223.6787 
L 567.260056 228.027426 
L 569.84262 234.162221 
L 571.133902 235.151457 
L 571.779543 230.1296 
L 573.716466 227.786955 
L 574.362107 232.410394 
L 575.007749 231.819618 
L 576.299031 238.002482 
L 578.235954 237.38414 
L 578.881595 236.834583 
L 579.527236 229.559412 
L 580.172877 230.342506 
L 580.818518 226.261817 
L 583.401083 222.503996 
L 584.692365 217.90123 
L 585.338006 219.124131 
L 587.274929 225.03211 
L 587.92057 221.494129 
L 588.566211 223.355875 
L 589.211852 221.136889 
L 589.857493 223.348983 
L 591.794416 226.131308 
L 592.440058 223.376506 
L 593.73134 220.257573 
L 594.376981 224.070311 
L 596.313904 221.267483 
L 596.959545 220.951378 
L 597.605186 222.291005 
L 598.250827 217.91497 
L 598.896468 217.935559 
L 601.479033 216.705894 
L 602.124674 215.716616 
L 602.770315 217.468357 
L 603.415956 224.640542 
L 605.352879 226.516028 
L 605.99852 228.556394 
L 606.644161 228.350294 
L 607.289802 234.869808 
L 607.935443 228.597614 
L 609.872366 235.749125 
L 610.518008 240.496139 
L 611.163649 236.236915 
L 611.80929 243.347164 
L 612.454931 241.142003 
L 615.037495 254.881729 
L 615.683136 252.855103 
L 616.328777 257.973182 
L 616.974418 250.148412 
L 618.911341 247.166794 
L 619.556983 251.378076 
L 620.202624 247.180533 
L 620.848265 248.307297 
L 621.493906 248.179086 
L 623.430829 241.219636 
L 624.07647 240.268728 
L 624.722111 245.002555 
L 625.367752 246.043008 
L 626.013393 253.912018 
L 627.950316 251.341833 
L 628.595958 250.253185 
L 629.241599 247.806958 
L 630.532881 288.626569 
L 632.469804 289.246718 
L 633.115445 294.690218 
L 633.761086 258.762954 
L 634.406727 275.327799 
L 635.052368 268.878303 
L 636.989292 265.308971 
L 637.634933 266.349508 
L 638.280574 274.58367 
L 638.926215 274.066868 
L 641.508779 282.700724 
L 642.15442 273.488003 
L 642.800061 267.858524 
L 643.445702 260.092797 
L 644.091343 257.371048 
L 646.028267 257.226374 
L 646.673908 254.835362 
L 647.319549 254.683754 
L 647.96519 251.975787 
L 648.610831 246.263528 
L 650.547754 248.502975 
L 651.193395 251.748418 
L 651.839036 250.129099 
L 652.484677 247.434915 
L 653.130318 247.931043 
L 655.067242 235.080162 
L 655.712883 232.427282 
L 656.358524 231.91048 
L 657.004165 229.932944 
L 657.649806 227.355911 
L 659.586729 226.908021 
L 660.23237 228.286103 
L 660.878011 235.169706 
L 661.523652 235.011292 
L 662.169293 237.753716 
L 664.751858 229.457447 
L 665.397499 231.814045 
L 666.04314 230.215486 
L 666.688781 230.670181 
L 668.625704 228.382538 
L 669.271345 226.053548 
L 669.916986 226.16385 
L 670.562627 228.14832 
L 671.208268 223.951969 
L 673.145192 223.579883 
L 673.790833 221.23711 
L 674.436474 222.422237 
L 675.082115 220.775438 
L 675.727756 225.426528 
L 677.664679 221.512718 
L 678.31032 225.061291 
L 678.955961 225.123313 
L 680.247243 226.090173 
L 682.184167 222.033476 
L 682.829808 217.451554 
L 683.475449 217.21657 
L 684.12109 213.933906 
L 684.766731 211.833008 
L 686.703654 209.80115 
L 687.349295 209.939358 
L 687.994936 208.004317 
L 688.640577 204.624878 
L 691.223142 207.845393 
L 691.868783 208.080334 
L 692.514424 205.509511 
L 693.160065 204.293161 
L 693.805706 205.813578 
L 695.742629 204.991221 
L 696.38827 206.836377 
L 697.033911 205.398953 
L 697.679552 202.758963 
L 698.325193 203.076854 
L 700.262117 202.254455 
L 700.907758 202.192263 
L 701.553399 198.49489 
L 702.19904 198.34979 
L 702.844681 196.497658 
L 704.781604 196.608216 
L 705.427245 197.769308 
L 706.072886 198.32214 
L 706.718527 199.966897 
L 707.364168 207.126703 
L 709.301092 200.595873 
L 709.946733 202.807372 
L 710.592374 199.48319 
L 711.238015 199.84949 
L 711.883656 196.4424 
L 713.820579 197.313166 
L 714.46622 192.634426 
L 715.111861 191.114053 
L 715.757502 191.07262 
L 716.403143 192.116135 
L 718.340067 192.212911 
L 718.985708 194.624809 
L 719.631349 195.799684 
L 720.27699 197.568866 
L 720.922631 190.823769 
L 722.859554 192.786544 
L 723.505195 190.927478 
L 724.150836 189.91157 
L 724.796477 188.329005 
L 725.442118 191.003495 
L 728.024683 194.306918 
L 728.670324 191.908845 
L 729.315965 188.190797 
L 729.961606 189.490012 
L 731.898529 188.391197 
L 732.54417 187.35453 
L 733.189811 186.055272 
L 733.835452 182.309532 
L 734.481093 182.461608 
L 736.418017 180.042818 
L 737.709299 181.238367 
L 739.000581 176.842977 
L 740.937504 174.666955 
L 741.583145 177.18252 
L 742.228786 178.644829 
L 742.874427 180.758489 
L 743.520068 178.145808 
L 745.456992 176.856844 
L 746.748274 173.551167 
L 747.393915 173.017647 
L 748.039556 173.024496 
L 749.976479 171.36132 
L 750.62212 173.0869 
L 751.267761 170.321803 
L 751.913402 171.673171 
L 752.559043 184.244317 
L 754.495967 177.300395 
L 755.141608 177.861735 
L 755.787249 175.824261 
L 756.43289 178.963571 
L 757.078531 176.3648 
L 759.015454 171.57614 
L 759.661095 171.583116 
L 760.306736 174.001651 
L 760.952377 171.257356 
L 761.598018 167.452742 
L 763.534942 161.915615 
L 764.180583 160.654344 
L 764.826224 160.425657 
L 765.471865 165.664801 
L 766.117506 164.119372 
L 768.054429 163.232313 
L 768.70007 168.84567 
L 769.345711 167.224054 
L 769.991352 172.262203 
L 770.636993 171.80487 
L 772.573917 164.549012 
L 773.219558 163.467978 
L 773.865199 163.204621 
L 774.51084 171.063337 
L 775.156481 171.139524 
L 777.093404 175.477784 
L 777.739045 179.351651 
L 778.384686 177.584468 
L 779.030327 184.583861 
L 779.675968 180.079317 
L 781.612892 173.35719 
L 782.258533 168.998171 
L 782.904174 165.768722 
L 784.195456 163.197687 
L 786.132379 165.359841 
L 786.77802 164.48665 
L 787.423661 162.851167 
L 788.069302 162.50469 
L 788.714943 161.603764 
L 791.297508 163.440285 
L 791.943149 160.300891 
L 792.58879 159.192121 
L 793.234431 164.327301 
L 795.171354 165.041099 
L 795.816995 166.330062 
L 796.462636 171.506845 
L 797.108277 167.993323 
L 797.753918 163.744394 
L 799.690842 160.797359 
L 800.336483 158.621848 
L 800.982124 156.939828 
L 802.273406 156.988492 
L 804.85597 159.282133 
L 805.501611 162.819986 
L 806.792893 161.951177 
L 808.729817 158.788685 
L 809.375458 155.945912 
L 810.021099 157.49585 
L 810.66674 157.544514 
L 811.312381 154.375088 
L 813.249304 153.617475 
L 813.894945 154.58357 
L 814.540586 156.953738 
L 815.186227 155.647036 
L 815.831869 156.050175 
L 818.414433 165.836529 
L 819.060074 160.401197 
L 819.705715 157.912899 
L 820.351356 157.739171 
L 822.288279 155.306471 
L 822.93392 153.388106 
L 823.579561 153.436771 
L 824.225202 154.395932 
L 824.870844 155.834716 
L 826.807767 153.443704 
L 827.453408 157.530604 
L 828.099049 159.852108 
L 828.74469 165.808709 
L 829.390331 156.773034 
L 831.327254 154.458464 
L 831.972895 155.730454 
L 832.618536 155.841608 
L 833.264177 163.271747 
L 833.909819 162.938159 
L 836.492383 162.173612 
L 837.138024 159.7826 
L 837.783665 161.04068 
L 838.429306 157.600112 
L 840.366229 162.49329 
L 841.657511 155.014486 
L 842.948794 159.991124 
L 844.885717 159.720026 
L 845.531358 163.925098 
L 846.176999 160.588877 
L 846.82264 163.243969 
L 847.468281 169.450825 
L 849.405204 165.356906 
L 850.696486 166.705338 
L 851.342127 173.843577 
L 851.987769 176.463915 
L 853.924692 171.77922 
L 854.570333 170.555978 
L 855.215974 177.061668 
L 855.861615 178.1946 
L 856.507256 184.768946 
L 858.444179 180.022698 
L 859.08982 181.556003 
L 859.735461 179.019084 
L 861.026744 194.860813 
L 862.963667 196.338393 
L 863.609308 183.535326 
L 863.609308 183.535326 
" clip-path="url(#p67df34c8aa)" style="fill: none; stroke-dasharray: 8.14,3.52; stroke-dashoffset: 0; stroke: #ff7f0e; stroke-width: 2.2"/>
   </g>
   <g id="patch_3">
    <path d="M 61.62625 400.397656 
L 61.62625 24.597656 
" style="fill: none; stroke: #000000; stroke-width: 0.8; stroke-linejoin: miter; stroke-linecap: square"/>
   </g>
   <g id="patch_4">
    <path d="M 61.62625 400.397656 
L 901.798977 400.397656 
" style="fill: none; stroke: #000000; stroke-width: 0.8; stroke-linejoin: miter; stroke-linecap: square"/>
   </g>
   <g id="text_21">
    <!-- $23,389 -->
    <g style="fill: #1f77b4" transform="translate(871.609308 44.438849) scale(0.1 -0.1)">
     <defs>
      <path id="DejaVuSans-Bold-24" d="M 2484 -941 
L 1978 -941 
L 1975 0 
Q 1584 16 1218 87 
Q 853 159 506 288 
L 506 1106 
Q 866 922 1233 823 
Q 1600 725 1978 713 
L 1978 1684 
L 1875 1703 
Q 1128 1834 814 2115 
Q 500 2397 500 2925 
Q 500 3484 883 3798 
Q 1266 4113 1975 4141 
L 1978 4863 
L 2484 4863 
L 2484 4153 
Q 2797 4128 3109 4075 
Q 3422 4022 3738 3938 
L 3738 3144 
Q 3425 3275 3112 3348 
Q 2800 3422 2484 3438 
L 2484 2541 
L 2584 2522 
Q 3378 2397 3698 2105 
Q 4019 1813 4019 1241 
Q 4019 666 3637 358 
Q 3256 50 2484 6 
L 2484 -941 
z
M 1978 2613 
L 1978 3428 
Q 1756 3416 1623 3308 
Q 1491 3200 1491 3034 
Q 1491 2850 1612 2745 
Q 1734 2641 1978 2613 
z
M 2484 1594 
L 2484 725 
Q 2756 728 2892 831 
Q 3028 934 3028 1141 
Q 3028 1353 2903 1458 
Q 2778 1563 2484 1594 
z
" transform="scale(0.015625)"/>
      <path id="DejaVuSans-Bold-32" d="M 1844 884 
L 3897 884 
L 3897 0 
L 506 0 
L 506 884 
L 2209 2388 
Q 2438 2594 2547 2791 
Q 2656 2988 2656 3200 
Q 2656 3528 2436 3728 
Q 2216 3928 1850 3928 
Q 1569 3928 1234 3808 
Q 900 3688 519 3450 
L 519 4475 
Q 925 4609 1322 4679 
Q 1719 4750 2100 4750 
Q 2938 4750 3402 4381 
Q 3866 4013 3866 3353 
Q 3866 2972 3669 2642 
Q 3472 2313 2841 1759 
L 1844 884 
z
" transform="scale(0.015625)"/>
      <path id="DejaVuSans-Bold-33" d="M 2981 2516 
Q 3453 2394 3698 2092 
Q 3944 1791 3944 1325 
Q 3944 631 3412 270 
Q 2881 -91 1863 -91 
Q 1503 -91 1142 -33 
Q 781 25 428 141 
L 428 1069 
Q 766 900 1098 814 
Q 1431 728 1753 728 
Q 2231 728 2486 893 
Q 2741 1059 2741 1369 
Q 2741 1688 2480 1852 
Q 2219 2016 1709 2016 
L 1228 2016 
L 1228 2791 
L 1734 2791 
Q 2188 2791 2409 2933 
Q 2631 3075 2631 3366 
Q 2631 3634 2415 3781 
Q 2200 3928 1806 3928 
Q 1516 3928 1219 3862 
Q 922 3797 628 3669 
L 628 4550 
Q 984 4650 1334 4700 
Q 1684 4750 2022 4750 
Q 2931 4750 3382 4451 
Q 3834 4153 3834 3553 
Q 3834 3144 3618 2883 
Q 3403 2622 2981 2516 
z
" transform="scale(0.015625)"/>
      <path id="DejaVuSans-Bold-2c" d="M 653 1209 
L 1778 1209 
L 1778 256 
L 1006 -909 
L 341 -909 
L 653 256 
L 653 1209 
z
" transform="scale(0.015625)"/>
      <path id="DejaVuSans-Bold-38" d="M 2228 2088 
Q 1891 2088 1709 1903 
Q 1528 1719 1528 1375 
Q 1528 1031 1709 848 
Q 1891 666 2228 666 
Q 2563 666 2741 848 
Q 2919 1031 2919 1375 
Q 2919 1722 2741 1905 
Q 2563 2088 2228 2088 
z
M 1350 2484 
Q 925 2613 709 2878 
Q 494 3144 494 3541 
Q 494 4131 934 4440 
Q 1375 4750 2228 4750 
Q 3075 4750 3515 4442 
Q 3956 4134 3956 3541 
Q 3956 3144 3739 2878 
Q 3522 2613 3097 2484 
Q 3572 2353 3814 2058 
Q 4056 1763 4056 1313 
Q 4056 619 3595 264 
Q 3134 -91 2228 -91 
Q 1319 -91 855 264 
Q 391 619 391 1313 
Q 391 1763 633 2058 
Q 875 2353 1350 2484 
z
M 1631 3419 
Q 1631 3141 1786 2991 
Q 1941 2841 2228 2841 
Q 2509 2841 2662 2991 
Q 2816 3141 2816 3419 
Q 2816 3697 2662 3845 
Q 2509 3994 2228 3994 
Q 1941 3994 1786 3844 
Q 1631 3694 1631 3419 
z
" transform="scale(0.015625)"/>
      <path id="DejaVuSans-Bold-39" d="M 641 103 
L 641 966 
Q 928 831 1190 764 
Q 1453 697 1709 697 
Q 2247 697 2547 995 
Q 2847 1294 2900 1881 
Q 2688 1725 2447 1647 
Q 2206 1569 1925 1569 
Q 1209 1569 770 1986 
Q 331 2403 331 3084 
Q 331 3838 820 4291 
Q 1309 4744 2131 4744 
Q 3044 4744 3544 4128 
Q 4044 3513 4044 2388 
Q 4044 1231 3459 570 
Q 2875 -91 1856 -91 
Q 1528 -91 1228 -42 
Q 928 6 641 103 
z
M 2125 2350 
Q 2441 2350 2600 2554 
Q 2759 2759 2759 3169 
Q 2759 3575 2600 3781 
Q 2441 3988 2125 3988 
Q 1809 3988 1650 3781 
Q 1491 3575 1491 3169 
Q 1491 2759 1650 2554 
Q 1809 2350 2125 2350 
z
" transform="scale(0.015625)"/>
     </defs>
     <use xlink:href="#DejaVuSans-Bold-24"/>
     <use xlink:href="#DejaVuSans-Bold-32" transform="translate(69.580078 0)"/>
     <use xlink:href="#DejaVuSans-Bold-33" transform="translate(139.160156 0)"/>
     <use xlink:href="#DejaVuSans-Bold-2c" transform="translate(208.740234 0)"/>
     <use xlink:href="#DejaVuSans-Bold-33" transform="translate(246.728516 0)"/>
     <use xlink:href="#DejaVuSans-Bold-38" transform="translate(316.308594 0)"/>
     <use xlink:href="#DejaVuSans-Bold-39" transform="translate(385.888672 0)"/>
    </g>
   </g>
   <g id="text_22">
    <!-- $17,814 -->
    <g style="fill: #ff7f0e" transform="translate(871.609308 194.294701) scale(0.1 -0.1)">
     <defs>
      <path id="DejaVuSans-Bold-31" d="M 750 831 
L 1813 831 
L 1813 3847 
L 722 3622 
L 722 4441 
L 1806 4666 
L 2950 4666 
L 2950 831 
L 4013 831 
L 4013 0 
L 750 0 
L 750 831 
z
" transform="scale(0.015625)"/>
      <path id="DejaVuSans-Bold-37" d="M 428 4666 
L 3944 4666 
L 3944 3988 
L 2125 0 
L 953 0 
L 2675 3781 
L 428 3781 
L 428 4666 
z
" transform="scale(0.015625)"/>
      <path id="DejaVuSans-Bold-34" d="M 2356 3675 
L 1038 1722 
L 2356 1722 
L 2356 3675 
z
M 2156 4666 
L 3494 4666 
L 3494 1722 
L 4159 1722 
L 4159 850 
L 3494 850 
L 3494 0 
L 2356 0 
L 2356 850 
L 288 850 
L 288 1881 
L 2156 4666 
z
" transform="scale(0.015625)"/>
     </defs>
     <use xlink:href="#DejaVuSans-Bold-24"/>
     <use xlink:href="#DejaVuSans-Bold-31" transform="translate(69.580078 0)"/>
     <use xlink:href="#DejaVuSans-Bold-37" transform="translate(139.160156 0)"/>
     <use xlink:href="#DejaVuSans-Bold-2c" transform="translate(208.740234 0)"/>
     <use xlink:href="#DejaVuSans-Bold-38" transform="translate(246.728516 0)"/>
     <use xlink:href="#DejaVuSans-Bold-31" transform="translate(316.308594 0)"/>
     <use xlink:href="#DejaVuSans-Bold-34" transform="translate(385.888672 0)"/>
    </g>
   </g>
   <g id="text_23">
    <!-- Backtested Cumulative Performance (Normalized to $10,000) -->
    <g transform="translate(250.548551 18.597656) scale(0.15 -0.15)">
     <defs>
      <path id="DejaVuSans-42" d="M 1259 2228 
L 1259 519 
L 2272 519 
Q 2781 519 3026 730 
Q 3272 941 3272 1375 
Q 3272 1813 3026 2020 
Q 2781 2228 2272 2228 
L 1259 2228 
z
M 1259 4147 
L 1259 2741 
L 2194 2741 
Q 2656 2741 2882 2914 
Q 3109 3088 3109 3444 
Q 3109 3797 2882 3972 
Q 2656 4147 2194 4147 
L 1259 4147 
z
M 628 4666 
L 2241 4666 
Q 2963 4666 3353 4366 
Q 3744 4066 3744 3513 
Q 3744 3084 3544 2831 
Q 3344 2578 2956 2516 
Q 3422 2416 3680 2098 
Q 3938 1781 3938 1306 
Q 3938 681 3513 340 
Q 3088 0 2303 0 
L 628 0 
L 628 4666 
z
" transform="scale(0.015625)"/>
      <path id="DejaVuSans-61" d="M 2194 1759 
Q 1497 1759 1228 1600 
Q 959 1441 959 1056 
Q 959 750 1161 570 
Q 1363 391 1709 391 
Q 2188 391 2477 730 
Q 2766 1069 2766 1631 
L 2766 1759 
L 2194 1759 
z
M 3341 1997 
L 3341 0 
L 2766 0 
L 2766 531 
Q 2569 213 2275 61 
Q 1981 -91 1556 -91 
Q 1019 -91 701 211 
Q 384 513 384 1019 
Q 384 1609 779 1909 
Q 1175 2209 1959 2209 
L 2766 2209 
L 2766 2266 
Q 2766 2663 2505 2880 
Q 2244 3097 1772 3097 
Q 1472 3097 1187 3025 
Q 903 2953 641 2809 
L 641 3341 
Q 956 3463 1253 3523 
Q 1550 3584 1831 3584 
Q 2591 3584 2966 3190 
Q 3341 2797 3341 1997 
z
" transform="scale(0.015625)"/>
      <path id="DejaVuSans-63" d="M 3122 3366 
L 3122 2828 
Q 2878 2963 2633 3030 
Q 2388 3097 2138 3097 
Q 1578 3097 1268 2742 
Q 959 2388 959 1747 
Q 959 1106 1268 751 
Q 1578 397 2138 397 
Q 2388 397 2633 464 
Q 2878 531 3122 666 
L 3122 134 
Q 2881 22 2623 -34 
Q 2366 -91 2075 -91 
Q 1284 -91 818 406 
Q 353 903 353 1747 
Q 353 2603 823 3093 
Q 1294 3584 2113 3584 
Q 2378 3584 2631 3529 
Q 2884 3475 3122 3366 
z
" transform="scale(0.015625)"/>
      <path id="DejaVuSans-6b" d="M 581 4863 
L 1159 4863 
L 1159 1991 
L 2875 3500 
L 3609 3500 
L 1753 1863 
L 3688 0 
L 2938 0 
L 1159 1709 
L 1159 0 
L 581 0 
L 581 4863 
z
" transform="scale(0.015625)"/>
      <path id="DejaVuSans-65" d="M 3597 1894 
L 3597 1613 
L 953 1613 
Q 991 1019 1311 708 
Q 1631 397 2203 397 
Q 2534 397 2845 478 
Q 3156 559 3463 722 
L 3463 178 
Q 3153 47 2828 -22 
Q 2503 -91 2169 -91 
Q 1331 -91 842 396 
Q 353 884 353 1716 
Q 353 2575 817 3079 
Q 1281 3584 2069 3584 
Q 2775 3584 3186 3129 
Q 3597 2675 3597 1894 
z
M 3022 2063 
Q 3016 2534 2758 2815 
Q 2500 3097 2075 3097 
Q 1594 3097 1305 2825 
Q 1016 2553 972 2059 
L 3022 2063 
z
" transform="scale(0.015625)"/>
      <path id="DejaVuSans-73" d="M 2834 3397 
L 2834 2853 
Q 2591 2978 2328 3040 
Q 2066 3103 1784 3103 
Q 1356 3103 1142 2972 
Q 928 2841 928 2578 
Q 928 2378 1081 2264 
Q 1234 2150 1697 2047 
L 1894 2003 
Q 2506 1872 2764 1633 
Q 3022 1394 3022 966 
Q 3022 478 2636 193 
Q 2250 -91 1575 -91 
Q 1294 -91 989 -36 
Q 684 19 347 128 
L 347 722 
Q 666 556 975 473 
Q 1284 391 1588 391 
Q 1994 391 2212 530 
Q 2431 669 2431 922 
Q 2431 1156 2273 1281 
Q 2116 1406 1581 1522 
L 1381 1569 
Q 847 1681 609 1914 
Q 372 2147 372 2553 
Q 372 3047 722 3315 
Q 1072 3584 1716 3584 
Q 2034 3584 2315 3537 
Q 2597 3491 2834 3397 
z
" transform="scale(0.015625)"/>
      <path id="DejaVuSans-64" d="M 2906 2969 
L 2906 4863 
L 3481 4863 
L 3481 0 
L 2906 0 
L 2906 525 
Q 2725 213 2448 61 
Q 2172 -91 1784 -91 
Q 1150 -91 751 415 
Q 353 922 353 1747 
Q 353 2572 751 3078 
Q 1150 3584 1784 3584 
Q 2172 3584 2448 3432 
Q 2725 3281 2906 2969 
z
M 947 1747 
Q 947 1113 1208 752 
Q 1469 391 1925 391 
Q 2381 391 2643 752 
Q 2906 1113 2906 1747 
Q 2906 2381 2643 2742 
Q 2381 3103 1925 3103 
Q 1469 3103 1208 2742 
Q 947 2381 947 1747 
z
" transform="scale(0.015625)"/>
      <path id="DejaVuSans-43" d="M 4122 4306 
L 4122 3641 
Q 3803 3938 3442 4084 
Q 3081 4231 2675 4231 
Q 1875 4231 1450 3742 
Q 1025 3253 1025 2328 
Q 1025 1406 1450 917 
Q 1875 428 2675 428 
Q 3081 428 3442 575 
Q 3803 722 4122 1019 
L 4122 359 
Q 3791 134 3420 21 
Q 3050 -91 2638 -91 
Q 1578 -91 968 557 
Q 359 1206 359 2328 
Q 359 3453 968 4101 
Q 1578 4750 2638 4750 
Q 3056 4750 3426 4639 
Q 3797 4528 4122 4306 
z
" transform="scale(0.015625)"/>
      <path id="DejaVuSans-75" d="M 544 1381 
L 544 3500 
L 1119 3500 
L 1119 1403 
Q 1119 906 1312 657 
Q 1506 409 1894 409 
Q 2359 409 2629 706 
Q 2900 1003 2900 1516 
L 2900 3500 
L 3475 3500 
L 3475 0 
L 2900 0 
L 2900 538 
Q 2691 219 2414 64 
Q 2138 -91 1772 -91 
Q 1169 -91 856 284 
Q 544 659 544 1381 
z
M 1991 3584 
L 1991 3584 
z
" transform="scale(0.015625)"/>
      <path id="DejaVuSans-6d" d="M 3328 2828 
Q 3544 3216 3844 3400 
Q 4144 3584 4550 3584 
Q 5097 3584 5394 3201 
Q 5691 2819 5691 2113 
L 5691 0 
L 5113 0 
L 5113 2094 
Q 5113 2597 4934 2840 
Q 4756 3084 4391 3084 
Q 3944 3084 3684 2787 
Q 3425 2491 3425 1978 
L 3425 0 
L 2847 0 
L 2847 2094 
Q 2847 2600 2669 2842 
Q 2491 3084 2119 3084 
Q 1678 3084 1418 2786 
Q 1159 2488 1159 1978 
L 1159 0 
L 581 0 
L 581 3500 
L 1159 3500 
L 1159 2956 
Q 1356 3278 1631 3431 
Q 1906 3584 2284 3584 
Q 2666 3584 2933 3390 
Q 3200 3197 3328 2828 
z
" transform="scale(0.015625)"/>
      <path id="DejaVuSans-6c" d="M 603 4863 
L 1178 4863 
L 1178 0 
L 603 0 
L 603 4863 
z
" transform="scale(0.015625)"/>
      <path id="DejaVuSans-69" d="M 603 3500 
L 1178 3500 
L 1178 0 
L 603 0 
L 603 3500 
z
M 603 4863 
L 1178 4863 
L 1178 4134 
L 603 4134 
L 603 4863 
z
" transform="scale(0.015625)"/>
      <path id="DejaVuSans-76" d="M 191 3500 
L 800 3500 
L 1894 563 
L 2988 3500 
L 3597 3500 
L 2284 0 
L 1503 0 
L 191 3500 
z
" transform="scale(0.015625)"/>
      <path id="DejaVuSans-50" d="M 1259 4147 
L 1259 2394 
L 2053 2394 
Q 2494 2394 2734 2622 
Q 2975 2850 2975 3272 
Q 2975 3691 2734 3919 
Q 2494 4147 2053 4147 
L 1259 4147 
z
M 628 4666 
L 2053 4666 
Q 2838 4666 3239 4311 
Q 3641 3956 3641 3272 
Q 3641 2581 3239 2228 
Q 2838 1875 2053 1875 
L 1259 1875 
L 1259 0 
L 628 0 
L 628 4666 
z
" transform="scale(0.015625)"/>
      <path id="DejaVuSans-6e" d="M 3513 2113 
L 3513 0 
L 2938 0 
L 2938 2094 
Q 2938 2591 2744 2837 
Q 2550 3084 2163 3084 
Q 1697 3084 1428 2787 
Q 1159 2491 1159 1978 
L 1159 0 
L 581 0 
L 581 3500 
L 1159 3500 
L 1159 2956 
Q 1366 3272 1645 3428 
Q 1925 3584 2291 3584 
Q 2894 3584 3203 3211 
Q 3513 2838 3513 2113 
z
" transform="scale(0.015625)"/>
      <path id="DejaVuSans-28" d="M 1984 4856 
Q 1566 4138 1362 3434 
Q 1159 2731 1159 2009 
Q 1159 1288 1364 580 
Q 1569 -128 1984 -844 
L 1484 -844 
Q 1016 -109 783 600 
Q 550 1309 550 2009 
Q 550 2706 781 3412 
Q 1013 4119 1484 4856 
L 1984 4856 
z
" transform="scale(0.015625)"/>
      <path id="DejaVuSans-4e" d="M 628 4666 
L 1478 4666 
L 3547 763 
L 3547 4666 
L 4159 4666 
L 4159 0 
L 3309 0 
L 1241 3903 
L 1241 0 
L 628 0 
L 628 4666 
z
" transform="scale(0.015625)"/>
      <path id="DejaVuSans-7a" d="M 353 3500 
L 3084 3500 
L 3084 2975 
L 922 459 
L 3084 459 
L 3084 0 
L 275 0 
L 275 525 
L 2438 3041 
L 353 3041 
L 353 3500 
z
" transform="scale(0.015625)"/>
      <path id="DejaVuSans-29" d="M 513 4856 
L 1013 4856 
Q 1481 4119 1714 3412 
Q 1947 2706 1947 2009 
Q 1947 1309 1714 600 
Q 1481 -109 1013 -844 
L 513 -844 
Q 928 -128 1133 580 
Q 1338 1288 1338 2009 
Q 1338 2731 1133 3434 
Q 928 4138 513 4856 
z
" transform="scale(0.015625)"/>
     </defs>
     <use xlink:href="#DejaVuSans-42"/>
     <use xlink:href="#DejaVuSans-61" transform="translate(68.603516 0)"/>
     <use xlink:href="#DejaVuSans-63" transform="translate(129.882812 0)"/>
     <use xlink:href="#DejaVuSans-6b" transform="translate(184.863281 0)"/>
     <use xlink:href="#DejaVuSans-74" transform="translate(242.773438 0)"/>
     <use xlink:href="#DejaVuSans-65" transform="translate(281.982422 0)"/>
     <use xlink:href="#DejaVuSans-73" transform="translate(343.505859 0)"/>
     <use xlink:href="#DejaVuSans-74" transform="translate(395.605469 0)"/>
     <use xlink:href="#DejaVuSans-65" transform="translate(434.814453 0)"/>
     <use xlink:href="#DejaVuSans-64" transform="translate(496.337891 0)"/>
     <use xlink:href="#DejaVuSans-20" transform="translate(559.814453 0)"/>
     <use xlink:href="#DejaVuSans-43" transform="translate(591.601562 0)"/>
     <use xlink:href="#DejaVuSans-75" transform="translate(661.425781 0)"/>
     <use xlink:href="#DejaVuSans-6d" transform="translate(724.804688 0)"/>
     <use xlink:href="#DejaVuSans-75" transform="translate(822.216797 0)"/>
     <use xlink:href="#DejaVuSans-6c" transform="translate(885.595703 0)"/>
     <use xlink:href="#DejaVuSans-61" transform="translate(913.378906 0)"/>
     <use xlink:href="#DejaVuSans-74" transform="translate(974.658203 0)"/>
     <use xlink:href="#DejaVuSans-69" transform="translate(1013.867188 0)"/>
     <use xlink:href="#DejaVuSans-76" transform="translate(1041.650391 0)"/>
     <use xlink:href="#DejaVuSans-65" transform="translate(1100.830078 0)"/>
     <use xlink:href="#DejaVuSans-20" transform="translate(1162.353516 0)"/>
     <use xlink:href="#DejaVuSans-50" transform="translate(1194.140625 0)"/>
     <use xlink:href="#DejaVuSans-65" transform="translate(1250.818359 0)"/>
     <use xlink:href="#DejaVuSans-72" transform="translate(1312.341797 0)"/>
     <use xlink:href="#DejaVuSans-66" transform="translate(1353.455078 0)"/>
     <use xlink:href="#DejaVuSans-6f" transform="translate(1388.660156 0)"/>
     <use xlink:href="#DejaVuSans-72" transform="translate(1449.841797 0)"/>
     <use xlink:href="#DejaVuSans-6d" transform="translate(1489.205078 0)"/>
     <use xlink:href="#DejaVuSans-61" transform="translate(1586.617188 0)"/>
     <use xlink:href="#DejaVuSans-6e" transform="translate(1647.896484 0)"/>
     <use xlink:href="#DejaVuSans-63" transform="translate(1711.275391 0)"/>
     <use xlink:href="#DejaVuSans-65" transform="translate(1766.255859 0)"/>
     <use xlink:href="#DejaVuSans-20" transform="translate(1827.779297 0)"/>
     <use xlink:href="#DejaVuSans-28" transform="translate(1859.566406 0)"/>
     <use xlink:href="#DejaVuSans-4e" transform="translate(1898.580078 0)"/>
     <use xlink:href="#DejaVuSans-6f" transform="translate(1973.384766 0)"/>
     <use xlink:href="#DejaVuSans-72" transform="translate(2034.566406 0)"/>
     <use xlink:href="#DejaVuSans-6d" transform="translate(2073.929688 0)"/>
     <use xlink:href="#DejaVuSans-61" transform="translate(2171.341797 0)"/>
     <use xlink:href="#DejaVuSans-6c" transform="translate(2232.621094 0)"/>
     <use xlink:href="#DejaVuSans-69" transform="translate(2260.404297 0)"/>
     <use xlink:href="#DejaVuSans-7a" transform="translate(2288.1875 0)"/>
     <use xlink:href="#DejaVuSans-65" transform="translate(2340.677734 0)"/>
     <use xlink:href="#DejaVuSans-64" transform="translate(2402.201172 0)"/>
     <use xlink:href="#DejaVuSans-20" transform="translate(2465.677734 0)"/>
     <use xlink:href="#DejaVuSans-74" transform="translate(2497.464844 0)"/>
     <use xlink:href="#DejaVuSans-6f" transform="translate(2536.673828 0)"/>
     <use xlink:href="#DejaVuSans-20" transform="translate(2597.855469 0)"/>
     <use xlink:href="#DejaVuSans-24" transform="translate(2629.642578 0)"/>
     <use xlink:href="#DejaVuSans-31" transform="translate(2693.265625 0)"/>
     <use xlink:href="#DejaVuSans-30" transform="translate(2756.888672 0)"/>
     <use xlink:href="#DejaVuSans-2c" transform="translate(2820.511719 0)"/>
     <use xlink:href="#DejaVuSans-30" transform="translate(2852.298828 0)"/>
     <use xlink:href="#DejaVuSans-30" transform="translate(2915.921875 0)"/>
     <use xlink:href="#DejaVuSans-30" transform="translate(2979.544922 0)"/>
     <use xlink:href="#DejaVuSans-29" transform="translate(3043.167969 0)"/>
    </g>
   </g>
   <g id="legend_1">
    <g id="line2d_22">
     <path d="M 69.72625 36.38625 
L 78.72625 36.38625 
L 87.72625 36.38625 
" style="fill: none; stroke: #1f77b4; stroke-width: 2.8; stroke-linecap: square"/>
    </g>
    <g id="text_24">
     <!-- Diamond Creek ETF Arb Fund (Net) -->
     <g transform="translate(94.92625 39.53625) scale(0.09 -0.09)">
      <defs>
       <path id="DejaVuSans-44" d="M 1259 4147 
L 1259 519 
L 2022 519 
Q 2988 519 3436 956 
Q 3884 1394 3884 2338 
Q 3884 3275 3436 3711 
Q 2988 4147 2022 4147 
L 1259 4147 
z
M 628 4666 
L 1925 4666 
Q 3281 4666 3915 4102 
Q 4550 3538 4550 2338 
Q 4550 1131 3912 565 
Q 3275 0 1925 0 
L 628 0 
L 628 4666 
z
" transform="scale(0.015625)"/>
       <path id="DejaVuSans-45" d="M 628 4666 
L 3578 4666 
L 3578 4134 
L 1259 4134 
L 1259 2753 
L 3481 2753 
L 3481 2222 
L 1259 2222 
L 1259 531 
L 3634 531 
L 3634 0 
L 628 0 
L 628 4666 
z
" transform="scale(0.015625)"/>
       <path id="DejaVuSans-54" d="M -19 4666 
L 3928 4666 
L 3928 4134 
L 2272 4134 
L 2272 0 
L 1638 0 
L 1638 4134 
L -19 4134 
L -19 4666 
z
" transform="scale(0.015625)"/>
       <path id="DejaVuSans-46" d="M 628 4666 
L 3309 4666 
L 3309 4134 
L 1259 4134 
L 1259 2759 
L 3109 2759 
L 3109 2228 
L 1259 2228 
L 1259 0 
L 628 0 
L 628 4666 
z
" transform="scale(0.015625)"/>
       <path id="DejaVuSans-41" d="M 2188 4044 
L 1331 1722 
L 3047 1722 
L 2188 4044 
z
M 1831 4666 
L 2547 4666 
L 4325 0 
L 3669 0 
L 3244 1197 
L 1141 1197 
L 716 0 
L 50 0 
L 1831 4666 
z
" transform="scale(0.015625)"/>
       <path id="DejaVuSans-62" d="M 3116 1747 
Q 3116 2381 2855 2742 
Q 2594 3103 2138 3103 
Q 1681 3103 1420 2742 
Q 1159 2381 1159 1747 
Q 1159 1113 1420 752 
Q 1681 391 2138 391 
Q 2594 391 2855 752 
Q 3116 1113 3116 1747 
z
M 1159 2969 
Q 1341 3281 1617 3432 
Q 1894 3584 2278 3584 
Q 2916 3584 3314 3078 
Q 3713 2572 3713 1747 
Q 3713 922 3314 415 
Q 2916 -91 2278 -91 
Q 1894 -91 1617 61 
Q 1341 213 1159 525 
L 1159 0 
L 581 0 
L 581 4863 
L 1159 4863 
L 1159 2969 
z
" transform="scale(0.015625)"/>
      </defs>
      <use xlink:href="#DejaVuSans-44"/>
      <use xlink:href="#DejaVuSans-69" transform="translate(77.001953 0)"/>
      <use xlink:href="#DejaVuSans-61" transform="translate(104.785156 0)"/>
      <use xlink:href="#DejaVuSans-6d" transform="translate(166.064453 0)"/>
      <use xlink:href="#DejaVuSans-6f" transform="translate(263.476562 0)"/>
      <use xlink:href="#DejaVuSans-6e" transform="translate(324.658203 0)"/>
      <use xlink:href="#DejaVuSans-64" transform="translate(388.037109 0)"/>
      <use xlink:href="#DejaVuSans-20" transform="translate(451.513672 0)"/>
      <use xlink:href="#DejaVuSans-43" transform="translate(483.300781 0)"/>
      <use xlink:href="#DejaVuSans-72" transform="translate(553.125 0)"/>
      <use xlink:href="#DejaVuSans-65" transform="translate(591.988281 0)"/>
      <use xlink:href="#DejaVuSans-65" transform="translate(653.511719 0)"/>
      <use xlink:href="#DejaVuSans-6b" transform="translate(715.035156 0)"/>
      <use xlink:href="#DejaVuSans-20" transform="translate(772.945312 0)"/>
      <use xlink:href="#DejaVuSans-45" transform="translate(804.732422 0)"/>
      <use xlink:href="#DejaVuSans-54" transform="translate(867.916016 0)"/>
      <use xlink:href="#DejaVuSans-46" transform="translate(929 0)"/>
      <use xlink:href="#DejaVuSans-20" transform="translate(986.519531 0)"/>
      <use xlink:href="#DejaVuSans-41" transform="translate(1018.306641 0)"/>
      <use xlink:href="#DejaVuSans-72" transform="translate(1086.714844 0)"/>
      <use xlink:href="#DejaVuSans-62" transform="translate(1127.828125 0)"/>
      <use xlink:href="#DejaVuSans-20" transform="translate(1191.304688 0)"/>
      <use xlink:href="#DejaVuSans-46" transform="translate(1223.091797 0)"/>
      <use xlink:href="#DejaVuSans-75" transform="translate(1275.111328 0)"/>
      <use xlink:href="#DejaVuSans-6e" transform="translate(1338.490234 0)"/>
      <use xlink:href="#DejaVuSans-64" transform="translate(1401.869141 0)"/>
      <use xlink:href="#DejaVuSans-20" transform="translate(1465.345703 0)"/>
      <use xlink:href="#DejaVuSans-28" transform="translate(1497.132812 0)"/>
      <use xlink:href="#DejaVuSans-4e" transform="translate(1536.146484 0)"/>
      <use xlink:href="#DejaVuSans-65" transform="translate(1610.951172 0)"/>
      <use xlink:href="#DejaVuSans-74" transform="translate(1672.474609 0)"/>
      <use xlink:href="#DejaVuSans-29" transform="translate(1711.683594 0)"/>
     </g>
    </g>
    <g id="line2d_23">
     <path d="M 69.72625 49.596562 
L 78.72625 49.596562 
L 87.72625 49.596562 
" style="fill: none; stroke-dasharray: 8.14,3.52; stroke-dashoffset: 0; stroke: #ff7f0e; stroke-width: 2.2"/>
    </g>
    <g id="text_25">
     <!-- SPY (Total Return) -->
     <g transform="translate(94.92625 52.746562) scale(0.09 -0.09)">
      <defs>
       <path id="DejaVuSans-53" d="M 3425 4513 
L 3425 3897 
Q 3066 4069 2747 4153 
Q 2428 4238 2131 4238 
Q 1616 4238 1336 4038 
Q 1056 3838 1056 3469 
Q 1056 3159 1242 3001 
Q 1428 2844 1947 2747 
L 2328 2669 
Q 3034 2534 3370 2195 
Q 3706 1856 3706 1288 
Q 3706 609 3251 259 
Q 2797 -91 1919 -91 
Q 1588 -91 1214 -16 
Q 841 59 441 206 
L 441 856 
Q 825 641 1194 531 
Q 1563 422 1919 422 
Q 2459 422 2753 634 
Q 3047 847 3047 1241 
Q 3047 1584 2836 1778 
Q 2625 1972 2144 2069 
L 1759 2144 
Q 1053 2284 737 2584 
Q 422 2884 422 3419 
Q 422 4038 858 4394 
Q 1294 4750 2059 4750 
Q 2388 4750 2728 4690 
Q 3069 4631 3425 4513 
z
" transform="scale(0.015625)"/>
       <path id="DejaVuSans-59" d="M -13 4666 
L 666 4666 
L 1959 2747 
L 3244 4666 
L 3922 4666 
L 2272 2222 
L 2272 0 
L 1638 0 
L 1638 2222 
L -13 4666 
z
" transform="scale(0.015625)"/>
       <path id="DejaVuSans-52" d="M 2841 2188 
Q 3044 2119 3236 1894 
Q 3428 1669 3622 1275 
L 4263 0 
L 3584 0 
L 2988 1197 
Q 2756 1666 2539 1819 
Q 2322 1972 1947 1972 
L 1259 1972 
L 1259 0 
L 628 0 
L 628 4666 
L 2053 4666 
Q 2853 4666 3247 4331 
Q 3641 3997 3641 3322 
Q 3641 2881 3436 2590 
Q 3231 2300 2841 2188 
z
M 1259 4147 
L 1259 2491 
L 2053 2491 
Q 2509 2491 2742 2702 
Q 2975 2913 2975 3322 
Q 2975 3731 2742 3939 
Q 2509 4147 2053 4147 
L 1259 4147 
z
" transform="scale(0.015625)"/>
      </defs>
      <use xlink:href="#DejaVuSans-53"/>
      <use xlink:href="#DejaVuSans-50" transform="translate(63.476562 0)"/>
      <use xlink:href="#DejaVuSans-59" transform="translate(121.529297 0)"/>
      <use xlink:href="#DejaVuSans-20" transform="translate(182.613281 0)"/>
      <use xlink:href="#DejaVuSans-28" transform="translate(214.400391 0)"/>
      <use xlink:href="#DejaVuSans-54" transform="translate(253.414062 0)"/>
      <use xlink:href="#DejaVuSans-6f" transform="translate(297.498047 0)"/>
      <use xlink:href="#DejaVuSans-74" transform="translate(358.679688 0)"/>
      <use xlink:href="#DejaVuSans-61" transform="translate(397.888672 0)"/>
      <use xlink:href="#DejaVuSans-6c" transform="translate(459.167969 0)"/>
      <use xlink:href="#DejaVuSans-20" transform="translate(486.951172 0)"/>
      <use xlink:href="#DejaVuSans-52" transform="translate(518.738281 0)"/>
      <use xlink:href="#DejaVuSans-65" transform="translate(583.720703 0)"/>
      <use xlink:href="#DejaVuSans-74" transform="translate(645.244141 0)"/>
      <use xlink:href="#DejaVuSans-75" transform="translate(684.453125 0)"/>
      <use xlink:href="#DejaVuSans-72" transform="translate(747.832031 0)"/>
      <use xlink:href="#DejaVuSans-6e" transform="translate(787.195312 0)"/>
      <use xlink:href="#DejaVuSans-29" transform="translate(850.574219 0)"/>
     </g>
    </g>
   </g>
  </g>
 </g>
 <defs>
  <clipPath id="p67df34c8aa">
   <rect x="61.62625" y="24.597656" width="840.172727" height="375.8"/>
  </clipPath>
 </defs>
</svg>
