<?xml version="1.0" encoding="utf-8" standalone="no"?>
<!DOCTYPE svg PUBLIC "-//W3C//DTD SVG 1.1//EN"
  "http://www.w3.org/Graphics/SVG/1.1/DTD/svg11.dtd">
<svg xmlns:xlink="http://www.w3.org/1999/xlink" width="924.35462pt" height="424.275781pt" viewBox="0 0 924.35462 424.275781" xmlns="http://www.w3.org/2000/svg" version="1.1">
 <metadata>
  <rdf:RDF xmlns:dc="http://purl.org/dc/elements/1.1/" xmlns:cc="http://creativecommons.org/ns#" xmlns:rdf="http://www.w3.org/1999/02/22-rdf-syntax-ns#">
   <cc:Work>
    <dc:type rdf:resource="http://purl.org/dc/dcmitype/StillImage"/>
    <dc:date>2026-04-15T10:36:55.016934</dc:date>
    <dc:format>image/svg+xml</dc:format>
    <dc:creator>
     <cc:Agent>
      <dc:title>Matplotlib v3.10.8, https://matplotlib.org/</dc:title>
     </cc:Agent>
    </dc:creator>
   </cc:Work>
  </rdf:RDF>
 </metadata>
 <defs>
  <style type="text/css">*{stroke-linejoin: round; stroke-linecap: butt}</style>
 </defs>
 <g id="figure_1">
  <g id="patch_1">
   <path d="M 0 424.275781 
L 924.35462 424.275781 
L 924.35462 0 
L 0 0 
z
" style="fill: #ffffff"/>
  </g>
  <g id="axes_1">
   <g id="patch_2">
    <path d="M 61.62625 400.397656 
L 901.798977 400.397656 
L 901.798977 24.597656 
L 61.62625 24.597656 
z
" style="fill: #ffffff"/>
   </g>
   <g id="matplotlib.axis_1">
    <g id="xtick_1">
     <g id="line2d_1">
      <defs>
       <path id="mce21db6337" d="M 0 0 
L 0 3.5 
" style="stroke: #000000; stroke-width: 0.8"/>
      </defs>
      <g>
       <use xlink:href="#mce21db6337" x="91.310425" y="400.397656" style="stroke: #000000; stroke-width: 0.8"/>
      </g>
     </g>
     <g id="text_1">
      <!-- 2025-01 -->
      <g transform="translate(70.419019 414.996094) scale(0.1 -0.1)">
       <defs>
        <path id="DejaVuSans-32" d="M 1228 531 
L 3431 531 
L 3431 0 
L 469 0 
L 469 531 
Q 828 903 1448 1529 
Q 2069 2156 2228 2338 
Q 2531 2678 2651 2914 
Q 2772 3150 2772 3378 
Q 2772 3750 2511 3984 
Q 2250 4219 1831 4219 
Q 1534 4219 1204 4116 
Q 875 4013 500 3803 
L 500 4441 
Q 881 4594 1212 4672 
Q 1544 4750 1819 4750 
Q 2544 4750 2975 4387 
Q 3406 4025 3406 3419 
Q 3406 3131 3298 2873 
Q 3191 2616 2906 2266 
Q 2828 2175 2409 1742 
Q 1991 1309 1228 531 
z
" transform="scale(0.015625)"/>
        <path id="DejaVuSans-30" d="M 2034 4250 
Q 1547 4250 1301 3770 
Q 1056 3291 1056 2328 
Q 1056 1369 1301 889 
Q 1547 409 2034 409 
Q 2525 409 2770 889 
Q 3016 1369 3016 2328 
Q 3016 3291 2770 3770 
Q 2525 4250 2034 4250 
z
M 2034 4750 
Q 2819 4750 3233 4129 
Q 3647 3509 3647 2328 
Q 3647 1150 3233 529 
Q 2819 -91 2034 -91 
Q 1250 -91 836 529 
Q 422 1150 422 2328 
Q 422 3509 836 4129 
Q 1250 4750 2034 4750 
z
" transform="scale(0.015625)"/>
        <path id="DejaVuSans-35" d="M 691 4666 
L 3169 4666 
L 3169 4134 
L 1269 4134 
L 1269 2991 
Q 1406 3038 1543 3061 
Q 1681 3084 1819 3084 
Q 2600 3084 3056 2656 
Q 3513 2228 3513 1497 
Q 3513 744 3044 326 
Q 2575 -91 1722 -91 
Q 1428 -91 1123 -41 
Q 819 9 494 109 
L 494 744 
Q 775 591 1075 516 
Q 1375 441 1709 441 
Q 2250 441 2565 725 
Q 2881 1009 2881 1497 
Q 2881 1984 2565 2268 
Q 2250 2553 1709 2553 
Q 1456 2553 1204 2497 
Q 953 2441 691 2322 
L 691 4666 
z
" transform="scale(0.015625)"/>
        <path id="DejaVuSans-2d" d="M 313 2009 
L 1997 2009 
L 1997 1497 
L 313 1497 
L 313 2009 
z
" transform="scale(0.015625)"/>
        <path id="DejaVuSans-31" d="M 794 531 
L 1825 531 
L 1825 4091 
L 703 3866 
L 703 4441 
L 1819 4666 
L 2450 4666 
L 2450 531 
L 3481 531 
L 3481 0 
L 794 0 
L 794 531 
z
" transform="scale(0.015625)"/>
       </defs>
       <use xlink:href="#DejaVuSans-32"/>
       <use xlink:href="#DejaVuSans-30" transform="translate(63.623047 0)"/>
       <use xlink:href="#DejaVuSans-32" transform="translate(127.246094 0)"/>
       <use xlink:href="#DejaVuSans-35" transform="translate(190.869141 0)"/>
       <use xlink:href="#DejaVuSans-2d" transform="translate(254.492188 0)"/>
       <use xlink:href="#DejaVuSans-30" transform="translate(290.576172 0)"/>
       <use xlink:href="#DejaVuSans-31" transform="translate(354.199219 0)"/>
      </g>
     </g>
    </g>
    <g id="xtick_2">
     <g id="line2d_2">
      <g>
       <use xlink:href="#mce21db6337" x="191.675258" y="400.397656" style="stroke: #000000; stroke-width: 0.8"/>
      </g>
     </g>
     <g id="text_2">
      <!-- 2025-03 -->
      <g transform="translate(170.783852 414.996094) scale(0.1 -0.1)">
       <defs>
        <path id="DejaVuSans-33" d="M 2597 2516 
Q 3050 2419 3304 2112 
Q 3559 1806 3559 1356 
Q 3559 666 3084 287 
Q 2609 -91 1734 -91 
Q 1441 -91 1130 -33 
Q 819 25 488 141 
L 488 750 
Q 750 597 1062 519 
Q 1375 441 1716 441 
Q 2309 441 2620 675 
Q 2931 909 2931 1356 
Q 2931 1769 2642 2001 
Q 2353 2234 1838 2234 
L 1294 2234 
L 1294 2753 
L 1863 2753 
Q 2328 2753 2575 2939 
Q 2822 3125 2822 3475 
Q 2822 3834 2567 4026 
Q 2313 4219 1838 4219 
Q 1578 4219 1281 4162 
Q 984 4106 628 3988 
L 628 4550 
Q 988 4650 1302 4700 
Q 1616 4750 1894 4750 
Q 2613 4750 3031 4423 
Q 3450 4097 3450 3541 
Q 3450 3153 3228 2886 
Q 3006 2619 2597 2516 
z
" transform="scale(0.015625)"/>
       </defs>
       <use xlink:href="#DejaVuSans-32"/>
       <use xlink:href="#DejaVuSans-30" transform="translate(63.623047 0)"/>
       <use xlink:href="#DejaVuSans-32" transform="translate(127.246094 0)"/>
       <use xlink:href="#DejaVuSans-35" transform="translate(190.869141 0)"/>
       <use xlink:href="#DejaVuSans-2d" transform="translate(254.492188 0)"/>
       <use xlink:href="#DejaVuSans-30" transform="translate(290.576172 0)"/>
       <use xlink:href="#DejaVuSans-33" transform="translate(354.199219 0)"/>
      </g>
     </g>
    </g>
    <g id="xtick_3">
     <g id="line2d_3">
      <g>
       <use xlink:href="#mce21db6337" x="295.442288" y="400.397656" style="stroke: #000000; stroke-width: 0.8"/>
      </g>
     </g>
     <g id="text_3">
      <!-- 2025-05 -->
      <g transform="translate(274.550882 414.996094) scale(0.1 -0.1)">
       <use xlink:href="#DejaVuSans-32"/>
       <use xlink:href="#DejaVuSans-30" transform="translate(63.623047 0)"/>
       <use xlink:href="#DejaVuSans-32" transform="translate(127.246094 0)"/>
       <use xlink:href="#DejaVuSans-35" transform="translate(190.869141 0)"/>
       <use xlink:href="#DejaVuSans-2d" transform="translate(254.492188 0)"/>
       <use xlink:href="#DejaVuSans-30" transform="translate(290.576172 0)"/>
       <use xlink:href="#DejaVuSans-35" transform="translate(354.199219 0)"/>
      </g>
     </g>
    </g>
    <g id="xtick_4">
     <g id="line2d_4">
      <g>
       <use xlink:href="#mce21db6337" x="399.209319" y="400.397656" style="stroke: #000000; stroke-width: 0.8"/>
      </g>
     </g>
     <g id="text_4">
      <!-- 2025-07 -->
      <g transform="translate(378.317913 414.996094) scale(0.1 -0.1)">
       <defs>
        <path id="DejaVuSans-37" d="M 525 4666 
L 3525 4666 
L 3525 4397 
L 1831 0 
L 1172 0 
L 2766 4134 
L 525 4134 
L 525 4666 
z
" transform="scale(0.015625)"/>
       </defs>
       <use xlink:href="#DejaVuSans-32"/>
       <use xlink:href="#DejaVuSans-30" transform="translate(63.623047 0)"/>
       <use xlink:href="#DejaVuSans-32" transform="translate(127.246094 0)"/>
       <use xlink:href="#DejaVuSans-35" transform="translate(190.869141 0)"/>
       <use xlink:href="#DejaVuSans-2d" transform="translate(254.492188 0)"/>
       <use xlink:href="#DejaVuSans-30" transform="translate(290.576172 0)"/>
       <use xlink:href="#DejaVuSans-37" transform="translate(354.199219 0)"/>
      </g>
     </g>
    </g>
    <g id="xtick_5">
     <g id="line2d_5">
      <g>
       <use xlink:href="#mce21db6337" x="504.677448" y="400.397656" style="stroke: #000000; stroke-width: 0.8"/>
      </g>
     </g>
     <g id="text_5">
      <!-- 2025-09 -->
      <g transform="translate(483.786042 414.996094) scale(0.1 -0.1)">
       <defs>
        <path id="DejaVuSans-39" d="M 703 97 
L 703 672 
Q 941 559 1184 500 
Q 1428 441 1663 441 
Q 2288 441 2617 861 
Q 2947 1281 2994 2138 
Q 2813 1869 2534 1725 
Q 2256 1581 1919 1581 
Q 1219 1581 811 2004 
Q 403 2428 403 3163 
Q 403 3881 828 4315 
Q 1253 4750 1959 4750 
Q 2769 4750 3195 4129 
Q 3622 3509 3622 2328 
Q 3622 1225 3098 567 
Q 2575 -91 1691 -91 
Q 1453 -91 1209 -44 
Q 966 3 703 97 
z
M 1959 2075 
Q 2384 2075 2632 2365 
Q 2881 2656 2881 3163 
Q 2881 3666 2632 3958 
Q 2384 4250 1959 4250 
Q 1534 4250 1286 3958 
Q 1038 3666 1038 3163 
Q 1038 2656 1286 2365 
Q 1534 2075 1959 2075 
z
" transform="scale(0.015625)"/>
       </defs>
       <use xlink:href="#DejaVuSans-32"/>
       <use xlink:href="#DejaVuSans-30" transform="translate(63.623047 0)"/>
       <use xlink:href="#DejaVuSans-32" transform="translate(127.246094 0)"/>
       <use xlink:href="#DejaVuSans-35" transform="translate(190.869141 0)"/>
       <use xlink:href="#DejaVuSans-2d" transform="translate(254.492188 0)"/>
       <use xlink:href="#DejaVuSans-30" transform="translate(290.576172 0)"/>
       <use xlink:href="#DejaVuSans-39" transform="translate(354.199219 0)"/>
      </g>
     </g>
    </g>
    <g id="xtick_6">
     <g id="line2d_6">
      <g>
       <use xlink:href="#mce21db6337" x="608.444479" y="400.397656" style="stroke: #000000; stroke-width: 0.8"/>
      </g>
     </g>
     <g id="text_6">
      <!-- 2025-11 -->
      <g transform="translate(587.553073 414.996094) scale(0.1 -0.1)">
       <use xlink:href="#DejaVuSans-32"/>
       <use xlink:href="#DejaVuSans-30" transform="translate(63.623047 0)"/>
       <use xlink:href="#DejaVuSans-32" transform="translate(127.246094 0)"/>
       <use xlink:href="#DejaVuSans-35" transform="translate(190.869141 0)"/>
       <use xlink:href="#DejaVuSans-2d" transform="translate(254.492188 0)"/>
       <use xlink:href="#DejaVuSans-31" transform="translate(290.576172 0)"/>
       <use xlink:href="#DejaVuSans-31" transform="translate(354.199219 0)"/>
      </g>
     </g>
    </g>
    <g id="xtick_7">
     <g id="line2d_7">
      <g>
       <use xlink:href="#mce21db6337" x="712.211509" y="400.397656" style="stroke: #000000; stroke-width: 0.8"/>
      </g>
     </g>
     <g id="text_7">
      <!-- 2026-01 -->
      <g transform="translate(691.320103 414.996094) scale(0.1 -0.1)">
       <defs>
        <path id="DejaVuSans-36" d="M 2113 2584 
Q 1688 2584 1439 2293 
Q 1191 2003 1191 1497 
Q 1191 994 1439 701 
Q 1688 409 2113 409 
Q 2538 409 2786 701 
Q 3034 994 3034 1497 
Q 3034 2003 2786 2293 
Q 2538 2584 2113 2584 
z
M 3366 4563 
L 3366 3988 
Q 3128 4100 2886 4159 
Q 2644 4219 2406 4219 
Q 1781 4219 1451 3797 
Q 1122 3375 1075 2522 
Q 1259 2794 1537 2939 
Q 1816 3084 2150 3084 
Q 2853 3084 3261 2657 
Q 3669 2231 3669 1497 
Q 3669 778 3244 343 
Q 2819 -91 2113 -91 
Q 1303 -91 875 529 
Q 447 1150 447 2328 
Q 447 3434 972 4092 
Q 1497 4750 2381 4750 
Q 2619 4750 2861 4703 
Q 3103 4656 3366 4563 
z
" transform="scale(0.015625)"/>
       </defs>
       <use xlink:href="#DejaVuSans-32"/>
       <use xlink:href="#DejaVuSans-30" transform="translate(63.623047 0)"/>
       <use xlink:href="#DejaVuSans-32" transform="translate(127.246094 0)"/>
       <use xlink:href="#DejaVuSans-36" transform="translate(190.869141 0)"/>
       <use xlink:href="#DejaVuSans-2d" transform="translate(254.492188 0)"/>
       <use xlink:href="#DejaVuSans-30" transform="translate(290.576172 0)"/>
       <use xlink:href="#DejaVuSans-31" transform="translate(354.199219 0)"/>
      </g>
     </g>
    </g>
    <g id="xtick_8">
     <g id="line2d_8">
      <g>
       <use xlink:href="#mce21db6337" x="812.576342" y="400.397656" style="stroke: #000000; stroke-width: 0.8"/>
      </g>
     </g>
     <g id="text_8">
      <!-- 2026-03 -->
      <g transform="translate(791.684936 414.996094) scale(0.1 -0.1)">
       <use xlink:href="#DejaVuSans-32"/>
       <use xlink:href="#DejaVuSans-30" transform="translate(63.623047 0)"/>
       <use xlink:href="#DejaVuSans-32" transform="translate(127.246094 0)"/>
       <use xlink:href="#DejaVuSans-36" transform="translate(190.869141 0)"/>
       <use xlink:href="#DejaVuSans-2d" transform="translate(254.492188 0)"/>
       <use xlink:href="#DejaVuSans-30" transform="translate(290.576172 0)"/>
       <use xlink:href="#DejaVuSans-33" transform="translate(354.199219 0)"/>
      </g>
     </g>
    </g>
   </g>
   <g id="matplotlib.axis_2">
    <g id="ytick_1">
     <g id="line2d_9">
      <defs>
       <path id="m146d05730e" d="M 0 0 
L -3.5 0 
" style="stroke: #000000; stroke-width: 0.8"/>
      </defs>
      <g>
       <use xlink:href="#m146d05730e" x="61.62625" y="345.859937" style="stroke: #000000; stroke-width: 0.8"/>
      </g>
     </g>
     <g id="text_9">
      <!-- 9000 -->
      <g transform="translate(29.17625 349.659156) scale(0.1 -0.1)">
       <use xlink:href="#DejaVuSans-39"/>
       <use xlink:href="#DejaVuSans-30" transform="translate(63.623047 0)"/>
       <use xlink:href="#DejaVuSans-30" transform="translate(127.246094 0)"/>
       <use xlink:href="#DejaVuSans-30" transform="translate(190.869141 0)"/>
      </g>
     </g>
    </g>
    <g id="ytick_2">
     <g id="line2d_10">
      <g>
       <use xlink:href="#m146d05730e" x="61.62625" y="286.944518" style="stroke: #000000; stroke-width: 0.8"/>
      </g>
     </g>
     <g id="text_10">
      <!-- 10000 -->
      <g transform="translate(22.81375 290.743737) scale(0.1 -0.1)">
       <use xlink:href="#DejaVuSans-31"/>
       <use xlink:href="#DejaVuSans-30" transform="translate(63.623047 0)"/>
       <use xlink:href="#DejaVuSans-30" transform="translate(127.246094 0)"/>
       <use xlink:href="#DejaVuSans-30" transform="translate(190.869141 0)"/>
       <use xlink:href="#DejaVuSans-30" transform="translate(254.492188 0)"/>
      </g>
     </g>
    </g>
    <g id="ytick_3">
     <g id="line2d_11">
      <g>
       <use xlink:href="#m146d05730e" x="61.62625" y="228.029099" style="stroke: #000000; stroke-width: 0.8"/>
      </g>
     </g>
     <g id="text_11">
      <!-- 11000 -->
      <g transform="translate(22.81375 231.828318) scale(0.1 -0.1)">
       <use xlink:href="#DejaVuSans-31"/>
       <use xlink:href="#DejaVuSans-31" transform="translate(63.623047 0)"/>
       <use xlink:href="#DejaVuSans-30" transform="translate(127.246094 0)"/>
       <use xlink:href="#DejaVuSans-30" transform="translate(190.869141 0)"/>
       <use xlink:href="#DejaVuSans-30" transform="translate(254.492188 0)"/>
      </g>
     </g>
    </g>
    <g id="ytick_4">
     <g id="line2d_12">
      <g>
       <use xlink:href="#m146d05730e" x="61.62625" y="169.11368" style="stroke: #000000; stroke-width: 0.8"/>
      </g>
     </g>
     <g id="text_12">
      <!-- 12000 -->
      <g transform="translate(22.81375 172.912899) scale(0.1 -0.1)">
       <use xlink:href="#DejaVuSans-31"/>
       <use xlink:href="#DejaVuSans-32" transform="translate(63.623047 0)"/>
       <use xlink:href="#DejaVuSans-30" transform="translate(127.246094 0)"/>
       <use xlink:href="#DejaVuSans-30" transform="translate(190.869141 0)"/>
       <use xlink:href="#DejaVuSans-30" transform="translate(254.492188 0)"/>
      </g>
     </g>
    </g>
    <g id="ytick_5">
     <g id="line2d_13">
      <g>
       <use xlink:href="#m146d05730e" x="61.62625" y="110.198261" style="stroke: #000000; stroke-width: 0.8"/>
      </g>
     </g>
     <g id="text_13">
      <!-- 13000 -->
      <g transform="translate(22.81375 113.99748) scale(0.1 -0.1)">
       <use xlink:href="#DejaVuSans-31"/>
       <use xlink:href="#DejaVuSans-33" transform="translate(63.623047 0)"/>
       <use xlink:href="#DejaVuSans-30" transform="translate(127.246094 0)"/>
       <use xlink:href="#DejaVuSans-30" transform="translate(190.869141 0)"/>
       <use xlink:href="#DejaVuSans-30" transform="translate(254.492188 0)"/>
      </g>
     </g>
    </g>
    <g id="ytick_6">
     <g id="line2d_14">
      <g>
       <use xlink:href="#m146d05730e" x="61.62625" y="51.282842" style="stroke: #000000; stroke-width: 0.8"/>
      </g>
     </g>
     <g id="text_14">
      <!-- 14000 -->
      <g transform="translate(22.81375 55.082061) scale(0.1 -0.1)">
       <defs>
        <path id="DejaVuSans-34" d="M 2419 4116 
L 825 1625 
L 2419 1625 
L 2419 4116 
z
M 2253 4666 
L 3047 4666 
L 3047 1625 
L 3713 1625 
L 3713 1100 
L 3047 1100 
L 3047 0 
L 2419 0 
L 2419 1100 
L 313 1100 
L 313 1709 
L 2253 4666 
z
" transform="scale(0.015625)"/>
       </defs>
       <use xlink:href="#DejaVuSans-31"/>
       <use xlink:href="#DejaVuSans-34" transform="translate(63.623047 0)"/>
       <use xlink:href="#DejaVuSans-30" transform="translate(127.246094 0)"/>
       <use xlink:href="#DejaVuSans-30" transform="translate(190.869141 0)"/>
       <use xlink:href="#DejaVuSans-30" transform="translate(254.492188 0)"/>
      </g>
     </g>
    </g>
    <g id="text_15">
     <!-- Growth of $10,000 -->
     <g transform="translate(16.318125 268.620156) rotate(-90) scale(0.12 -0.12)">
      <defs>
       <path id="DejaVuSans-47" d="M 3809 666 
L 3809 1919 
L 2778 1919 
L 2778 2438 
L 4434 2438 
L 4434 434 
Q 4069 175 3628 42 
Q 3188 -91 2688 -91 
Q 1594 -91 976 548 
Q 359 1188 359 2328 
Q 359 3472 976 4111 
Q 1594 4750 2688 4750 
Q 3144 4750 3555 4637 
Q 3966 4525 4313 4306 
L 4313 3634 
Q 3963 3931 3569 4081 
Q 3175 4231 2741 4231 
Q 1884 4231 1454 3753 
Q 1025 3275 1025 2328 
Q 1025 1384 1454 906 
Q 1884 428 2741 428 
Q 3075 428 3337 486 
Q 3600 544 3809 666 
z
" transform="scale(0.015625)"/>
       <path id="DejaVuSans-72" d="M 2631 2963 
Q 2534 3019 2420 3045 
Q 2306 3072 2169 3072 
Q 1681 3072 1420 2755 
Q 1159 2438 1159 1844 
L 1159 0 
L 581 0 
L 581 3500 
L 1159 3500 
L 1159 2956 
Q 1341 3275 1631 3429 
Q 1922 3584 2338 3584 
Q 2397 3584 2469 3576 
Q 2541 3569 2628 3553 
L 2631 2963 
z
" transform="scale(0.015625)"/>
       <path id="DejaVuSans-6f" d="M 1959 3097 
Q 1497 3097 1228 2736 
Q 959 2375 959 1747 
Q 959 1119 1226 758 
Q 1494 397 1959 397 
Q 2419 397 2687 759 
Q 2956 1122 2956 1747 
Q 2956 2369 2687 2733 
Q 2419 3097 1959 3097 
z
M 1959 3584 
Q 2709 3584 3137 3096 
Q 3566 2609 3566 1747 
Q 3566 888 3137 398 
Q 2709 -91 1959 -91 
Q 1206 -91 779 398 
Q 353 888 353 1747 
Q 353 2609 779 3096 
Q 1206 3584 1959 3584 
z
" transform="scale(0.015625)"/>
       <path id="DejaVuSans-77" d="M 269 3500 
L 844 3500 
L 1563 769 
L 2278 3500 
L 2956 3500 
L 3675 769 
L 4391 3500 
L 4966 3500 
L 4050 0 
L 3372 0 
L 2619 2869 
L 1863 0 
L 1184 0 
L 269 3500 
z
" transform="scale(0.015625)"/>
       <path id="DejaVuSans-74" d="M 1172 4494 
L 1172 3500 
L 2356 3500 
L 2356 3053 
L 1172 3053 
L 1172 1153 
Q 1172 725 1289 603 
Q 1406 481 1766 481 
L 2356 481 
L 2356 0 
L 1766 0 
Q 1100 0 847 248 
Q 594 497 594 1153 
L 594 3053 
L 172 3053 
L 172 3500 
L 594 3500 
L 594 4494 
L 1172 4494 
z
" transform="scale(0.015625)"/>
       <path id="DejaVuSans-68" d="M 3513 2113 
L 3513 0 
L 2938 0 
L 2938 2094 
Q 2938 2591 2744 2837 
Q 2550 3084 2163 3084 
Q 1697 3084 1428 2787 
Q 1159 2491 1159 1978 
L 1159 0 
L 581 0 
L 581 4863 
L 1159 4863 
L 1159 2956 
Q 1366 3272 1645 3428 
Q 1925 3584 2291 3584 
Q 2894 3584 3203 3211 
Q 3513 2838 3513 2113 
z
" transform="scale(0.015625)"/>
       <path id="DejaVuSans-20" transform="scale(0.015625)"/>
       <path id="DejaVuSans-66" d="M 2375 4863 
L 2375 4384 
L 1825 4384 
Q 1516 4384 1395 4259 
Q 1275 4134 1275 3809 
L 1275 3500 
L 2222 3500 
L 2222 3053 
L 1275 3053 
L 1275 0 
L 697 0 
L 697 3053 
L 147 3053 
L 147 3500 
L 697 3500 
L 697 3744 
Q 697 4328 969 4595 
Q 1241 4863 1831 4863 
L 2375 4863 
z
" transform="scale(0.015625)"/>
       <path id="DejaVuSans-24" d="M 2163 -941 
L 1850 -941 
L 1847 0 
Q 1519 6 1191 76 
Q 863 147 531 288 
L 531 850 
Q 850 650 1176 548 
Q 1503 447 1850 444 
L 1850 1869 
Q 1159 1981 845 2250 
Q 531 2519 531 2988 
Q 531 3497 872 3790 
Q 1213 4084 1850 4128 
L 1850 4863 
L 2163 4863 
L 2163 4138 
Q 2453 4125 2725 4076 
Q 2997 4028 3256 3944 
L 3256 3397 
Q 2997 3528 2723 3600 
Q 2450 3672 2163 3684 
L 2163 2350 
Q 2872 2241 3206 1959 
Q 3541 1678 3541 1191 
Q 3541 663 3186 358 
Q 2831 53 2163 6 
L 2163 -941 
z
M 1850 2406 
L 1850 3688 
Q 1488 3647 1297 3481 
Q 1106 3316 1106 3041 
Q 1106 2772 1282 2622 
Q 1459 2472 1850 2406 
z
M 2163 1806 
L 2163 453 
Q 2559 506 2761 678 
Q 2963 850 2963 1131 
Q 2963 1406 2770 1568 
Q 2578 1731 2163 1806 
z
" transform="scale(0.015625)"/>
       <path id="DejaVuSans-2c" d="M 750 794 
L 1409 794 
L 1409 256 
L 897 -744 
L 494 -744 
L 750 256 
L 750 794 
z
" transform="scale(0.015625)"/>
      </defs>
      <use xlink:href="#DejaVuSans-47"/>
      <use xlink:href="#DejaVuSans-72" transform="translate(77.490234 0)"/>
      <use xlink:href="#DejaVuSans-6f" transform="translate(116.353516 0)"/>
      <use xlink:href="#DejaVuSans-77" transform="translate(177.535156 0)"/>
      <use xlink:href="#DejaVuSans-74" transform="translate(259.322266 0)"/>
      <use xlink:href="#DejaVuSans-68" transform="translate(298.53125 0)"/>
      <use xlink:href="#DejaVuSans-20" transform="translate(361.910156 0)"/>
      <use xlink:href="#DejaVuSans-6f" transform="translate(393.697266 0)"/>
      <use xlink:href="#DejaVuSans-66" transform="translate(454.878906 0)"/>
      <use xlink:href="#DejaVuSans-20" transform="translate(490.083984 0)"/>
      <use xlink:href="#DejaVuSans-24" transform="translate(521.871094 0)"/>
      <use xlink:href="#DejaVuSans-31" transform="translate(585.494141 0)"/>
      <use xlink:href="#DejaVuSans-30" transform="translate(649.117188 0)"/>
      <use xlink:href="#DejaVuSans-2c" transform="translate(712.740234 0)"/>
      <use xlink:href="#DejaVuSans-30" transform="translate(744.527344 0)"/>
      <use xlink:href="#DejaVuSans-30" transform="translate(808.150391 0)"/>
      <use xlink:href="#DejaVuSans-30" transform="translate(871.773438 0)"/>
     </g>
    </g>
   </g>
   <g id="line2d_15">
    <path d="M 99.815919 286.944518 
L 101.517018 277.862837 
L 106.620315 277.675627 
L 111.723611 275.778353 
L 113.42471 275.354385 
L 115.125809 275.691411 
L 116.826908 274.603869 
L 118.528007 279.943821 
L 125.332402 280.386531 
L 127.033501 281.94661 
L 128.7346 281.811448 
L 130.435699 281.974838 
L 135.538995 280.301261 
L 138.941193 277.672825 
L 140.642292 275.380341 
L 142.343391 275.693327 
L 147.446688 273.672899 
L 149.147786 272.358957 
L 150.848885 273.93938 
L 152.549984 276.429951 
L 154.251083 280.006561 
L 159.35438 279.970964 
L 161.055478 280.91366 
L 162.756577 277.330665 
L 166.158775 274.344621 
L 172.96317 275.105886 
L 174.664269 274.047363 
L 176.365368 273.544848 
L 178.066467 274.671189 
L 183.169764 275.954997 
L 184.870862 285.137242 
L 186.571961 282.104061 
L 188.27306 293.223834 
L 189.974159 279.355182 
L 195.077456 278.560952 
L 196.778554 277.497733 
L 198.479653 280.101594 
L 200.180752 281.991154 
L 201.881851 274.919979 
L 206.985148 270.36738 
L 208.686247 260.899878 
L 210.387345 253.624131 
L 212.088444 257.548504 
L 213.789543 251.472423 
L 218.89284 252.086885 
L 220.593939 253.285404 
L 222.295037 248.366617 
L 225.697235 245.960809 
L 230.800532 244.384401 
L 232.501631 247.910724 
L 234.202729 240.388467 
L 235.903828 239.734729 
L 237.604927 232.00238 
L 242.708224 241.843631 
L 244.409323 243.387483 
L 246.110421 244.485002 
L 247.81152 236.994439 
L 249.512619 241.06719 
L 254.615916 240.36288 
L 256.317015 246.924987 
L 258.018113 207.498775 
L 259.719212 194.154267 
L 261.420311 190.88595 
L 266.523608 193.388197 
L 268.224707 193.864701 
L 269.925805 191.047138 
L 271.626904 191.784529 
L 278.4313 189.271389 
L 283.534596 198.508728 
L 285.235695 211.654505 
L 290.338992 211.580759 
L 292.040091 211.111179 
L 295.442288 209.903529 
L 302.246684 209.424269 
L 305.648882 209.905574 
L 307.34998 208.618145 
L 309.051079 211.069728 
L 314.154376 210.781571 
L 315.855475 214.938824 
L 317.556574 218.701186 
L 319.257672 214.617043 
L 320.958771 216.828619 
L 326.062068 216.259353 
L 327.763167 217.596463 
L 329.464266 216.071164 
L 331.165364 216.146365 
L 332.866463 215.467087 
L 339.670859 213.367738 
L 341.371958 213.230294 
L 343.073056 211.926728 
L 344.774155 209.077896 
L 349.877452 209.888908 
L 353.27965 210.069652 
L 354.980749 211.059619 
L 356.681847 208.448903 
L 361.785144 206.408847 
L 363.486243 206.506226 
L 365.187342 206.282828 
L 366.888441 205.437214 
L 368.589539 204.160289 
L 373.692836 204.736283 
L 375.393935 204.244477 
L 377.095034 203.94383 
L 380.497231 204.411169 
L 385.600528 202.259255 
L 387.301627 200.55504 
L 389.002726 201.707976 
L 390.703825 202.52449 
L 392.404923 202.103397 
L 397.50822 209.161181 
L 399.209319 211.08785 
L 400.910418 208.366557 
L 402.611517 207.814416 
L 411.117011 207.261801 
L 412.81811 207.59968 
L 414.519209 206.906339 
L 416.220308 208.104125 
L 421.323604 209.01613 
L 423.024703 208.234502 
L 424.725802 210.626595 
L 426.426901 212.328071 
L 428.128 208.627751 
L 433.231296 209.070355 
L 434.932395 209.468892 
L 436.633494 208.235977 
L 438.334593 208.246126 
L 440.035692 206.567651 
L 445.138988 206.156349 
L 446.840087 206.704736 
L 448.541186 207.049114 
L 450.242285 205.948787 
L 451.943384 205.495327 
L 458.747779 202.288844 
L 460.448878 200.511232 
L 462.149977 200.811394 
L 463.851076 203.130905 
L 468.954372 202.94689 
L 470.655471 204.198347 
L 472.35657 203.761032 
L 474.057669 204.791518 
L 475.758768 204.771362 
L 480.862064 205.388595 
L 482.563163 203.96752 
L 485.965361 202.046427 
L 487.66646 202.321292 
L 492.769756 201.414542 
L 494.470855 199.715052 
L 496.171954 200.647499 
L 497.873053 201.16163 
L 499.574152 198.176371 
L 506.378547 196.244795 
L 508.079646 197.834196 
L 509.780745 200.492865 
L 511.481844 197.203782 
L 516.58514 200.063346 
L 518.286239 200.719129 
L 519.987338 203.146408 
L 521.688437 201.400449 
L 523.389536 202.053284 
L 530.193931 202.020901 
L 531.89503 202.566599 
L 533.596129 204.55166 
L 535.297228 208.624193 
L 540.400524 207.589769 
L 542.101623 205.669075 
L 543.802722 204.711431 
L 545.503821 204.665318 
L 547.20492 201.339221 
L 552.308216 198.640581 
L 554.009315 201.406854 
L 555.710414 202.530749 
L 557.411513 198.829013 
L 559.112612 196.968245 
L 564.215908 197.280847 
L 565.917007 196.153033 
L 567.618106 199.355634 
L 569.319205 201.124979 
L 571.020304 188.735368 
L 576.1236 185.773495 
L 577.824699 185.112023 
L 579.525798 188.107057 
L 581.226897 187.824941 
L 582.927996 178.623254 
L 588.031292 177.998277 
L 589.732391 178.21936 
L 591.43349 176.590845 
L 593.134589 174.014253 
L 594.835688 176.592526 
L 599.938984 175.131797 
L 601.640083 176.324345 
L 603.341182 177.036582 
L 605.042281 179.484385 
L 606.74338 173.214364 
L 611.846676 172.493104 
L 613.547775 176.641497 
L 615.248874 168.621552 
L 616.949973 180.458222 
L 618.651072 172.32567 
L 623.754369 172.805523 
L 625.455467 171.401186 
L 627.156566 173.311065 
L 628.857665 170.896657 
L 630.558764 171.612441 
L 635.662061 169.094673 
L 637.363159 168.821953 
L 639.064258 167.530447 
L 640.765357 172.806656 
L 642.466456 171.605585 
L 647.569753 172.189306 
L 649.270851 169.742302 
L 650.97195 174.704561 
L 654.374148 178.705193 
L 659.477445 177.751537 
L 661.178543 174.899676 
L 662.879642 174.431463 
L 664.580741 175.026025 
L 666.28184 174.470494 
L 671.385137 173.65729 
L 673.086235 175.123604 
L 674.787334 177.293691 
L 676.488433 175.784861 
L 678.189532 172.399965 
L 683.292829 168.298673 
L 684.993927 164.884637 
L 686.695026 168.269048 
L 688.396125 165.933011 
L 690.097224 156.797837 
L 695.200521 157.819974 
L 696.90162 156.311656 
L 698.602718 155.211147 
L 702.004916 152.722512 
L 708.809312 150.827427 
L 710.51041 158.068916 
L 713.912608 161.135586 
L 719.015905 158.550234 
L 720.717004 158.492604 
L 722.418102 157.904649 
L 724.119201 155.859781 
L 730.923597 155.661165 
L 732.624696 156.116119 
L 734.325794 155.698758 
L 736.026893 153.981881 
L 737.727992 154.903884 
L 744.532388 149.440674 
L 746.233486 147.496731 
L 747.934585 147.213761 
L 749.635684 144.116702 
L 754.738981 141.746724 
L 756.44008 139.147578 
L 758.141178 139.100408 
L 759.842277 136.077838 
L 761.543376 134.057903 
L 766.646673 133.666973 
L 768.347772 133.938848 
L 770.048871 138.076805 
L 771.749969 161.68831 
L 773.451068 102.838234 
L 778.554365 103.135569 
L 780.255464 101.282726 
L 781.956563 98.569763 
L 783.657661 98.182192 
L 785.35876 90.868038 
L 792.163156 92.041898 
L 793.864255 92.643711 
L 795.565353 91.649406 
L 797.266452 89.82474 
L 802.369749 87.057389 
L 804.070848 85.74183 
L 805.771947 81.212223 
L 807.473045 79.214056 
L 809.174144 78.216087 
L 814.277441 73.918503 
L 815.97854 69.624605 
L 817.679639 63.273029 
L 819.380737 59.771518 
L 821.081836 59.04116 
L 826.185133 58.91028 
L 827.886232 58.506083 
L 829.587331 59.605254 
L 831.288429 55.4167 
L 832.989528 56.94542 
L 838.092825 57.950746 
L 839.793924 55.757444 
L 841.495023 54.321817 
L 843.196122 53.055722 
L 844.89722 52.532338 
L 850.000517 50.661295 
L 851.701616 51.589952 
L 853.402715 52.295705 
L 855.103814 48.650416 
L 856.804912 53.755287 
L 861.908209 53.297019 
L 863.609308 41.679474 
L 863.609308 41.679474 
" clip-path="url(#p05a158937c)" style="fill: none; stroke: #1f77b4; stroke-width: 2.8; stroke-linecap: square"/>
   </g>
   <g id="line2d_16">
    <path d="M 99.815919 286.944518 
L 101.517018 293.604326 
L 103.218117 292.753399 
L 106.620315 301.659614 
L 111.723611 300.768857 
L 113.42471 299.977244 
L 115.125809 289.497546 
L 116.826908 290.625682 
L 118.528007 284.74756 
L 125.332402 279.334701 
L 128.7346 272.704489 
L 130.435699 274.466026 
L 135.538995 282.976342 
L 137.240094 277.879969 
L 138.941193 280.561674 
L 140.642292 277.365441 
L 142.343391 280.551931 
L 147.446688 284.559691 
L 149.147786 280.591454 
L 150.848885 278.176908 
L 152.549984 276.098762 
L 154.251083 281.590851 
L 159.35438 277.553495 
L 161.055478 277.098221 
L 162.756577 279.027958 
L 164.457676 272.724281 
L 166.158775 272.753999 
L 172.96317 270.982719 
L 174.664269 269.557644 
L 176.365368 272.081076 
L 178.066467 282.412243 
L 183.169764 285.113741 
L 184.870862 288.052863 
L 186.571961 287.755985 
L 188.27306 297.147069 
L 189.974159 288.112238 
L 195.077456 298.413749 
L 196.778554 305.251683 
L 198.479653 299.116268 
L 200.180752 309.358341 
L 201.881851 306.18184 
L 206.985148 321.361952 
L 208.686247 325.973455 
L 210.387345 323.054186 
L 212.088444 330.426502 
L 213.789543 319.155251 
L 218.89284 314.860479 
L 220.593939 320.926531 
L 222.295037 314.88027 
L 223.996136 316.503081 
L 225.697235 316.31852 
L 230.800532 306.293667 
L 232.501631 304.924045 
L 234.202729 311.742862 
L 235.903828 313.241651 
L 237.604927 324.576567 
L 242.708224 320.874324 
L 244.409323 319.30611 
L 246.110421 315.782485 
L 247.81152 343.395318 
L 249.512619 374.581408 
L 254.615916 375.474707 
L 256.317015 383.315838 
L 258.018113 331.564135 
L 259.719212 355.425154 
L 261.420311 346.134928 
L 266.523608 340.993456 
L 268.224707 342.492184 
L 269.925805 354.353268 
L 271.626904 353.608776 
L 278.4313 366.045448 
L 280.132399 352.775005 
L 281.833498 344.665857 
L 283.534596 333.479718 
L 285.235695 329.559152 
L 290.338992 329.350756 
L 292.040091 325.906604 
L 293.74119 325.688281 
L 295.442288 321.787507 
L 297.143387 313.55924 
L 302.246684 316.785069 
L 303.947783 321.459992 
L 305.648882 319.127432 
L 307.34998 315.246512 
L 309.051079 315.961225 
L 314.154376 297.450075 
L 315.855475 293.628714 
L 317.556574 292.884344 
L 319.257672 290.035725 
L 320.958771 286.323618 
L 326.062068 285.678452 
L 327.763167 287.66352 
L 329.464266 297.57912 
L 331.165364 297.350809 
L 332.866463 301.301277 
L 339.670859 289.350853 
L 341.371958 292.745372 
L 343.073056 290.442653 
L 344.774155 291.097745 
L 349.877452 287.802492 
L 351.578551 284.44768 
L 353.27965 284.606444 
L 354.980749 287.464989 
L 356.681847 281.420383 
L 361.785144 280.88441 
L 363.486243 277.509683 
L 365.187342 279.216869 
L 366.888441 276.844726 
L 368.589539 283.544424 
L 373.692836 277.906746 
L 375.393935 283.018316 
L 377.095034 283.107716 
L 380.497231 284.500315 
L 385.600528 278.656937 
L 387.301627 272.056811 
L 389.002726 271.718388 
L 390.703825 266.989727 
L 392.404923 263.963472 
L 397.50822 261.036789 
L 399.209319 261.23581 
L 400.910418 258.448467 
L 402.611517 253.580465 
L 409.415912 258.219543 
L 411.117011 258.557965 
L 412.81811 254.854804 
L 414.519209 253.102765 
L 416.220308 255.292798 
L 421.323604 254.108167 
L 423.024703 256.766097 
L 424.725802 254.69555 
L 426.426901 250.892755 
L 428.128 251.350664 
L 433.231296 250.166032 
L 434.932395 250.076448 
L 436.633494 244.750599 
L 438.334593 244.541529 
L 440.035692 241.873671 
L 445.138988 242.032864 
L 446.840087 243.705307 
L 448.541186 244.5017 
L 450.242285 246.870963 
L 451.943384 257.184238 
L 457.04668 247.776916 
L 458.747779 250.962425 
L 460.448878 246.174081 
L 462.149977 246.701721 
L 463.851076 241.793953 
L 468.954372 243.048315 
L 470.655471 236.30885 
L 472.35657 234.118755 
L 474.057669 234.059011 
L 475.758768 235.562212 
L 480.862064 235.701552 
L 482.563163 239.175851 
L 484.264262 240.868208 
L 485.965361 243.41664 
L 487.66646 233.700675 
L 492.769756 236.527908 
L 494.470855 233.850002 
L 496.171954 232.38663 
L 497.873053 230.106951 
L 499.574152 233.959501 
L 506.378547 238.717942 
L 508.079646 235.263619 
L 509.780745 229.907806 
L 511.481844 231.779455 
L 516.58514 230.196474 
L 518.286239 228.703322 
L 519.987338 226.831796 
L 521.688437 221.436277 
L 523.389536 221.655336 
L 528.492832 218.171049 
L 531.89503 219.893247 
L 535.297228 213.561874 
L 540.400524 210.427407 
L 542.101623 214.050972 
L 543.802722 216.157365 
L 545.503821 219.202003 
L 547.20492 215.438547 
L 552.308216 213.58185 
L 554.009315 211.086237 
L 555.710414 208.820161 
L 557.411513 208.051648 
L 559.112612 208.061514 
L 564.215908 205.665779 
L 565.917007 208.151404 
L 567.618106 204.168399 
L 569.319205 206.114987 
L 571.020304 224.223192 
L 576.1236 214.220765 
L 577.824699 215.029352 
L 579.525798 212.094458 
L 581.226897 216.6165 
L 582.927996 212.87308 
L 588.031292 205.975219 
L 589.732391 205.985268 
L 591.43349 209.469064 
L 593.134589 205.516023 
L 594.835688 200.035638 
L 599.938984 192.059641 
L 601.640083 190.242834 
L 603.341182 189.913419 
L 605.042281 197.460184 
L 606.74338 195.234059 
L 611.846676 193.956289 
L 613.547775 202.042092 
L 615.248874 199.706223 
L 616.949973 206.963464 
L 618.651072 206.304695 
L 623.754369 195.852938 
L 625.455467 194.295753 
L 627.156566 193.916399 
L 628.857665 205.236547 
L 630.558764 205.346291 
L 635.662061 211.595372 
L 637.363159 217.175512 
L 639.064258 214.62996 
L 640.765357 224.71229 
L 642.466456 218.223684 
L 647.569753 208.540746 
L 649.270851 202.261763 
L 650.97195 197.609879 
L 654.374148 193.906411 
L 659.477445 197.020903 
L 661.178543 195.763109 
L 662.879642 193.407264 
L 664.580741 192.908179 
L 666.28184 191.610433 
L 673.086235 194.255863 
L 674.787334 189.733699 
L 676.488433 188.136563 
L 678.189532 195.533572 
L 683.292829 196.561768 
L 684.993927 198.418466 
L 686.695026 205.875401 
L 688.396125 200.814322 
L 690.097224 194.693919 
L 695.200521 190.448841 
L 696.90162 187.315109 
L 698.602718 184.89223 
L 702.004916 184.962329 
L 708.809312 188.266221 
L 710.51041 193.36235 
L 713.912608 192.110867 
L 719.015905 187.55543 
L 720.717004 183.460537 
L 722.418102 185.693157 
L 724.119201 185.763256 
L 725.8203 181.197831 
L 730.923597 180.106521 
L 732.624696 181.49814 
L 734.325794 184.912267 
L 736.026893 183.030018 
L 737.727992 183.610722 
L 744.532388 197.707552 
L 746.233486 189.878186 
L 747.934585 186.293898 
L 749.635684 186.04365 
L 754.738981 182.539449 
L 756.44008 179.776126 
L 758.141178 179.846224 
L 759.842277 181.227856 
L 761.543376 183.300364 
L 766.646673 179.856212 
L 768.347772 185.743219 
L 770.048871 189.087246 
L 771.749969 197.667478 
L 773.451068 184.65197 
L 778.554365 181.31793 
L 780.255464 183.150178 
L 781.956563 183.31029 
L 783.657661 194.013091 
L 785.35876 193.532572 
L 792.163156 192.431274 
L 793.864255 188.987123 
L 795.565353 190.799334 
L 797.266452 185.843342 
L 802.369749 192.891757 
L 804.070848 187.925899 
L 805.771947 182.118857 
L 807.473045 185.973552 
L 809.174144 189.287494 
L 814.277441 188.896987 
L 815.97854 194.954216 
L 817.679639 190.148531 
L 819.380737 193.973079 
L 821.081836 202.913792 
L 826.185133 197.016675 
L 827.886232 198.108046 
L 829.587331 198.959035 
L 831.288429 209.241366 
L 832.989528 213.015851 
L 838.092825 206.267746 
L 839.793924 204.505719 
L 841.495023 213.876889 
L 843.196122 215.508829 
L 844.89722 224.978898 
L 850.000517 218.142127 
L 851.701616 220.350789 
L 853.402715 216.696464 
L 856.804912 239.515805 
L 861.908209 241.644196 
L 863.609308 223.20192 
L 863.609308 223.20192 
" clip-path="url(#p05a158937c)" style="fill: none; stroke-dasharray: 8.14,3.52; stroke-dashoffset: 0; stroke: #ff7f0e; stroke-width: 2.2"/>
   </g>
   <g id="patch_3">
    <path d="M 61.62625 400.397656 
L 61.62625 24.597656 
" style="fill: none; stroke: #000000; stroke-width: 0.8; stroke-linejoin: miter; stroke-linecap: square"/>
   </g>
   <g id="patch_4">
    <path d="M 61.62625 400.397656 
L 901.798977 400.397656 
" style="fill: none; stroke: #000000; stroke-width: 0.8; stroke-linejoin: miter; stroke-linecap: square"/>
   </g>
   <g id="text_16">
    <!-- $14,163 -->
    <g style="fill: #1f77b4" transform="translate(871.609308 44.438849) scale(0.1 -0.1)">
     <defs>
      <path id="DejaVuSans-Bold-24" d="M 2484 -941 
L 1978 -941 
L 1975 0 
Q 1584 16 1218 87 
Q 853 159 506 288 
L 506 1106 
Q 866 922 1233 823 
Q 1600 725 1978 713 
L 1978 1684 
L 1875 1703 
Q 1128 1834 814 2115 
Q 500 2397 500 2925 
Q 500 3484 883 3798 
Q 1266 4113 1975 4141 
L 1978 4863 
L 2484 4863 
L 2484 4153 
Q 2797 4128 3109 4075 
Q 3422 4022 3738 3938 
L 3738 3144 
Q 3425 3275 3112 3348 
Q 2800 3422 2484 3438 
L 2484 2541 
L 2584 2522 
Q 3378 2397 3698 2105 
Q 4019 1813 4019 1241 
Q 4019 666 3637 358 
Q 3256 50 2484 6 
L 2484 -941 
z
M 1978 2613 
L 1978 3428 
Q 1756 3416 1623 3308 
Q 1491 3200 1491 3034 
Q 1491 2850 1612 2745 
Q 1734 2641 1978 2613 
z
M 2484 1594 
L 2484 725 
Q 2756 728 2892 831 
Q 3028 934 3028 1141 
Q 3028 1353 2903 1458 
Q 2778 1563 2484 1594 
z
" transform="scale(0.015625)"/>
      <path id="DejaVuSans-Bold-31" d="M 750 831 
L 1813 831 
L 1813 3847 
L 722 3622 
L 722 4441 
L 1806 4666 
L 2950 4666 
L 2950 831 
L 4013 831 
L 4013 0 
L 750 0 
L 750 831 
z
" transform="scale(0.015625)"/>
      <path id="DejaVuSans-Bold-34" d="M 2356 3675 
L 1038 1722 
L 2356 1722 
L 2356 3675 
z
M 2156 4666 
L 3494 4666 
L 3494 1722 
L 4159 1722 
L 4159 850 
L 3494 850 
L 3494 0 
L 2356 0 
L 2356 850 
L 288 850 
L 288 1881 
L 2156 4666 
z
" transform="scale(0.015625)"/>
      <path id="DejaVuSans-Bold-2c" d="M 653 1209 
L 1778 1209 
L 1778 256 
L 1006 -909 
L 341 -909 
L 653 256 
L 653 1209 
z
" transform="scale(0.015625)"/>
      <path id="DejaVuSans-Bold-36" d="M 2316 2303 
Q 2000 2303 1842 2098 
Q 1684 1894 1684 1484 
Q 1684 1075 1842 870 
Q 2000 666 2316 666 
Q 2634 666 2792 870 
Q 2950 1075 2950 1484 
Q 2950 1894 2792 2098 
Q 2634 2303 2316 2303 
z
M 3803 4544 
L 3803 3681 
Q 3506 3822 3243 3889 
Q 2981 3956 2731 3956 
Q 2194 3956 1894 3657 
Q 1594 3359 1544 2772 
Q 1750 2925 1990 3001 
Q 2231 3078 2516 3078 
Q 3231 3078 3670 2659 
Q 4109 2241 4109 1563 
Q 4109 813 3618 361 
Q 3128 -91 2303 -91 
Q 1394 -91 895 523 
Q 397 1138 397 2266 
Q 397 3422 980 4083 
Q 1563 4744 2578 4744 
Q 2900 4744 3203 4694 
Q 3506 4644 3803 4544 
z
" transform="scale(0.015625)"/>
      <path id="DejaVuSans-Bold-33" d="M 2981 2516 
Q 3453 2394 3698 2092 
Q 3944 1791 3944 1325 
Q 3944 631 3412 270 
Q 2881 -91 1863 -91 
Q 1503 -91 1142 -33 
Q 781 25 428 141 
L 428 1069 
Q 766 900 1098 814 
Q 1431 728 1753 728 
Q 2231 728 2486 893 
Q 2741 1059 2741 1369 
Q 2741 1688 2480 1852 
Q 2219 2016 1709 2016 
L 1228 2016 
L 1228 2791 
L 1734 2791 
Q 2188 2791 2409 2933 
Q 2631 3075 2631 3366 
Q 2631 3634 2415 3781 
Q 2200 3928 1806 3928 
Q 1516 3928 1219 3862 
Q 922 3797 628 3669 
L 628 4550 
Q 984 4650 1334 4700 
Q 1684 4750 2022 4750 
Q 2931 4750 3382 4451 
Q 3834 4153 3834 3553 
Q 3834 3144 3618 2883 
Q 3403 2622 2981 2516 
z
" transform="scale(0.015625)"/>
     </defs>
     <use xlink:href="#DejaVuSans-Bold-24"/>
     <use xlink:href="#DejaVuSans-Bold-31" transform="translate(69.580078 0)"/>
     <use xlink:href="#DejaVuSans-Bold-34" transform="translate(139.160156 0)"/>
     <use xlink:href="#DejaVuSans-Bold-2c" transform="translate(208.740234 0)"/>
     <use xlink:href="#DejaVuSans-Bold-31" transform="translate(246.728516 0)"/>
     <use xlink:href="#DejaVuSans-Bold-36" transform="translate(316.308594 0)"/>
     <use xlink:href="#DejaVuSans-Bold-33" transform="translate(385.888672 0)"/>
    </g>
   </g>
   <g id="text_17">
    <!-- $11,082 -->
    <g style="fill: #ff7f0e" transform="translate(871.609308 233.961295) scale(0.1 -0.1)">
     <defs>
      <path id="DejaVuSans-Bold-30" d="M 2944 2338 
Q 2944 3213 2780 3570 
Q 2616 3928 2228 3928 
Q 1841 3928 1675 3570 
Q 1509 3213 1509 2338 
Q 1509 1453 1675 1090 
Q 1841 728 2228 728 
Q 2613 728 2778 1090 
Q 2944 1453 2944 2338 
z
M 4147 2328 
Q 4147 1169 3647 539 
Q 3147 -91 2228 -91 
Q 1306 -91 806 539 
Q 306 1169 306 2328 
Q 306 3491 806 4120 
Q 1306 4750 2228 4750 
Q 3147 4750 3647 4120 
Q 4147 3491 4147 2328 
z
" transform="scale(0.015625)"/>
      <path id="DejaVuSans-Bold-38" d="M 2228 2088 
Q 1891 2088 1709 1903 
Q 1528 1719 1528 1375 
Q 1528 1031 1709 848 
Q 1891 666 2228 666 
Q 2563 666 2741 848 
Q 2919 1031 2919 1375 
Q 2919 1722 2741 1905 
Q 2563 2088 2228 2088 
z
M 1350 2484 
Q 925 2613 709 2878 
Q 494 3144 494 3541 
Q 494 4131 934 4440 
Q 1375 4750 2228 4750 
Q 3075 4750 3515 4442 
Q 3956 4134 3956 3541 
Q 3956 3144 3739 2878 
Q 3522 2613 3097 2484 
Q 3572 2353 3814 2058 
Q 4056 1763 4056 1313 
Q 4056 619 3595 264 
Q 3134 -91 2228 -91 
Q 1319 -91 855 264 
Q 391 619 391 1313 
Q 391 1763 633 2058 
Q 875 2353 1350 2484 
z
M 1631 3419 
Q 1631 3141 1786 2991 
Q 1941 2841 2228 2841 
Q 2509 2841 2662 2991 
Q 2816 3141 2816 3419 
Q 2816 3697 2662 3845 
Q 2509 3994 2228 3994 
Q 1941 3994 1786 3844 
Q 1631 3694 1631 3419 
z
" transform="scale(0.015625)"/>
      <path id="DejaVuSans-Bold-32" d="M 1844 884 
L 3897 884 
L 3897 0 
L 506 0 
L 506 884 
L 2209 2388 
Q 2438 2594 2547 2791 
Q 2656 2988 2656 3200 
Q 2656 3528 2436 3728 
Q 2216 3928 1850 3928 
Q 1569 3928 1234 3808 
Q 900 3688 519 3450 
L 519 4475 
Q 925 4609 1322 4679 
Q 1719 4750 2100 4750 
Q 2938 4750 3402 4381 
Q 3866 4013 3866 3353 
Q 3866 2972 3669 2642 
Q 3472 2313 2841 1759 
L 1844 884 
z
" transform="scale(0.015625)"/>
     </defs>
     <use xlink:href="#DejaVuSans-Bold-24"/>
     <use xlink:href="#DejaVuSans-Bold-31" transform="translate(69.580078 0)"/>
     <use xlink:href="#DejaVuSans-Bold-31" transform="translate(139.160156 0)"/>
     <use xlink:href="#DejaVuSans-Bold-2c" transform="translate(208.740234 0)"/>
     <use xlink:href="#DejaVuSans-Bold-30" transform="translate(246.728516 0)"/>
     <use xlink:href="#DejaVuSans-Bold-38" transform="translate(316.308594 0)"/>
     <use xlink:href="#DejaVuSans-Bold-32" transform="translate(385.888672 0)"/>
    </g>
   </g>
   <g id="text_18">
    <!-- Backtested Cumulative Performance (Normalized to $10,000) -->
    <g transform="translate(250.548551 18.597656) scale(0.15 -0.15)">
     <defs>
      <path id="DejaVuSans-42" d="M 1259 2228 
L 1259 519 
L 2272 519 
Q 2781 519 3026 730 
Q 3272 941 3272 1375 
Q 3272 1813 3026 2020 
Q 2781 2228 2272 2228 
L 1259 2228 
z
M 1259 4147 
L 1259 2741 
L 2194 2741 
Q 2656 2741 2882 2914 
Q 3109 3088 3109 3444 
Q 3109 3797 2882 3972 
Q 2656 4147 2194 4147 
L 1259 4147 
z
M 628 4666 
L 2241 4666 
Q 2963 4666 3353 4366 
Q 3744 4066 3744 3513 
Q 3744 3084 3544 2831 
Q 3344 2578 2956 2516 
Q 3422 2416 3680 2098 
Q 3938 1781 3938 1306 
Q 3938 681 3513 340 
Q 3088 0 2303 0 
L 628 0 
L 628 4666 
z
" transform="scale(0.015625)"/>
      <path id="DejaVuSans-61" d="M 2194 1759 
Q 1497 1759 1228 1600 
Q 959 1441 959 1056 
Q 959 750 1161 570 
Q 1363 391 1709 391 
Q 2188 391 2477 730 
Q 2766 1069 2766 1631 
L 2766 1759 
L 2194 1759 
z
M 3341 1997 
L 3341 0 
L 2766 0 
L 2766 531 
Q 2569 213 2275 61 
Q 1981 -91 1556 -91 
Q 1019 -91 701 211 
Q 384 513 384 1019 
Q 384 1609 779 1909 
Q 1175 2209 1959 2209 
L 2766 2209 
L 2766 2266 
Q 2766 2663 2505 2880 
Q 2244 3097 1772 3097 
Q 1472 3097 1187 3025 
Q 903 2953 641 2809 
L 641 3341 
Q 956 3463 1253 3523 
Q 1550 3584 1831 3584 
Q 2591 3584 2966 3190 
Q 3341 2797 3341 1997 
z
" transform="scale(0.015625)"/>
      <path id="DejaVuSans-63" d="M 3122 3366 
L 3122 2828 
Q 2878 2963 2633 3030 
Q 2388 3097 2138 3097 
Q 1578 3097 1268 2742 
Q 959 2388 959 1747 
Q 959 1106 1268 751 
Q 1578 397 2138 397 
Q 2388 397 2633 464 
Q 2878 531 3122 666 
L 3122 134 
Q 2881 22 2623 -34 
Q 2366 -91 2075 -91 
Q 1284 -91 818 406 
Q 353 903 353 1747 
Q 353 2603 823 3093 
Q 1294 3584 2113 3584 
Q 2378 3584 2631 3529 
Q 2884 3475 3122 3366 
z
" transform="scale(0.015625)"/>
      <path id="DejaVuSans-6b" d="M 581 4863 
L 1159 4863 
L 1159 1991 
L 2875 3500 
L 3609 3500 
L 1753 1863 
L 3688 0 
L 2938 0 
L 1159 1709 
L 1159 0 
L 581 0 
L 581 4863 
z
" transform="scale(0.015625)"/>
      <path id="DejaVuSans-65" d="M 3597 1894 
L 3597 1613 
L 953 1613 
Q 991 1019 1311 708 
Q 1631 397 2203 397 
Q 2534 397 2845 478 
Q 3156 559 3463 722 
L 3463 178 
Q 3153 47 2828 -22 
Q 2503 -91 2169 -91 
Q 1331 -91 842 396 
Q 353 884 353 1716 
Q 353 2575 817 3079 
Q 1281 3584 2069 3584 
Q 2775 3584 3186 3129 
Q 3597 2675 3597 1894 
z
M 3022 2063 
Q 3016 2534 2758 2815 
Q 2500 3097 2075 3097 
Q 1594 3097 1305 2825 
Q 1016 2553 972 2059 
L 3022 2063 
z
" transform="scale(0.015625)"/>
      <path id="DejaVuSans-73" d="M 2834 3397 
L 2834 2853 
Q 2591 2978 2328 3040 
Q 2066 3103 1784 3103 
Q 1356 3103 1142 2972 
Q 928 2841 928 2578 
Q 928 2378 1081 2264 
Q 1234 2150 1697 2047 
L 1894 2003 
Q 2506 1872 2764 1633 
Q 3022 1394 3022 966 
Q 3022 478 2636 193 
Q 2250 -91 1575 -91 
Q 1294 -91 989 -36 
Q 684 19 347 128 
L 347 722 
Q 666 556 975 473 
Q 1284 391 1588 391 
Q 1994 391 2212 530 
Q 2431 669 2431 922 
Q 2431 1156 2273 1281 
Q 2116 1406 1581 1522 
L 1381 1569 
Q 847 1681 609 1914 
Q 372 2147 372 2553 
Q 372 3047 722 3315 
Q 1072 3584 1716 3584 
Q 2034 3584 2315 3537 
Q 2597 3491 2834 3397 
z
" transform="scale(0.015625)"/>
      <path id="DejaVuSans-64" d="M 2906 2969 
L 2906 4863 
L 3481 4863 
L 3481 0 
L 2906 0 
L 2906 525 
Q 2725 213 2448 61 
Q 2172 -91 1784 -91 
Q 1150 -91 751 415 
Q 353 922 353 1747 
Q 353 2572 751 3078 
Q 1150 3584 1784 3584 
Q 2172 3584 2448 3432 
Q 2725 3281 2906 2969 
z
M 947 1747 
Q 947 1113 1208 752 
Q 1469 391 1925 391 
Q 2381 391 2643 752 
Q 2906 1113 2906 1747 
Q 2906 2381 2643 2742 
Q 2381 3103 1925 3103 
Q 1469 3103 1208 2742 
Q 947 2381 947 1747 
z
" transform="scale(0.015625)"/>
      <path id="DejaVuSans-43" d="M 4122 4306 
L 4122 3641 
Q 3803 3938 3442 4084 
Q 3081 4231 2675 4231 
Q 1875 4231 1450 3742 
Q 1025 3253 1025 2328 
Q 1025 1406 1450 917 
Q 1875 428 2675 428 
Q 3081 428 3442 575 
Q 3803 722 4122 1019 
L 4122 359 
Q 3791 134 3420 21 
Q 3050 -91 2638 -91 
Q 1578 -91 968 557 
Q 359 1206 359 2328 
Q 359 3453 968 4101 
Q 1578 4750 2638 4750 
Q 3056 4750 3426 4639 
Q 3797 4528 4122 4306 
z
" transform="scale(0.015625)"/>
      <path id="DejaVuSans-75" d="M 544 1381 
L 544 3500 
L 1119 3500 
L 1119 1403 
Q 1119 906 1312 657 
Q 1506 409 1894 409 
Q 2359 409 2629 706 
Q 2900 1003 2900 1516 
L 2900 3500 
L 3475 3500 
L 3475 0 
L 2900 0 
L 2900 538 
Q 2691 219 2414 64 
Q 2138 -91 1772 -91 
Q 1169 -91 856 284 
Q 544 659 544 1381 
z
M 1991 3584 
L 1991 3584 
z
" transform="scale(0.015625)"/>
      <path id="DejaVuSans-6d" d="M 3328 2828 
Q 3544 3216 3844 3400 
Q 4144 3584 4550 3584 
Q 5097 3584 5394 3201 
Q 5691 2819 5691 2113 
L 5691 0 
L 5113 0 
L 5113 2094 
Q 5113 2597 4934 2840 
Q 4756 3084 4391 3084 
Q 3944 3084 3684 2787 
Q 3425 2491 3425 1978 
L 3425 0 
L 2847 0 
L 2847 2094 
Q 2847 2600 2669 2842 
Q 2491 3084 2119 3084 
Q 1678 3084 1418 2786 
Q 1159 2488 1159 1978 
L 1159 0 
L 581 0 
L 581 3500 
L 1159 3500 
L 1159 2956 
Q 1356 3278 1631 3431 
Q 1906 3584 2284 3584 
Q 2666 3584 2933 3390 
Q 3200 3197 3328 2828 
z
" transform="scale(0.015625)"/>
      <path id="DejaVuSans-6c" d="M 603 4863 
L 1178 4863 
L 1178 0 
L 603 0 
L 603 4863 
z
" transform="scale(0.015625)"/>
      <path id="DejaVuSans-69" d="M 603 3500 
L 1178 3500 
L 1178 0 
L 603 0 
L 603 3500 
z
M 603 4863 
L 1178 4863 
L 1178 4134 
L 603 4134 
L 603 4863 
z
" transform="scale(0.015625)"/>
      <path id="DejaVuSans-76" d="M 191 3500 
L 800 3500 
L 1894 563 
L 2988 3500 
L 3597 3500 
L 2284 0 
L 1503 0 
L 191 3500 
z
" transform="scale(0.015625)"/>
      <path id="DejaVuSans-50" d="M 1259 4147 
L 1259 2394 
L 2053 2394 
Q 2494 2394 2734 2622 
Q 2975 2850 2975 3272 
Q 2975 3691 2734 3919 
Q 2494 4147 2053 4147 
L 1259 4147 
z
M 628 4666 
L 2053 4666 
Q 2838 4666 3239 4311 
Q 3641 3956 3641 3272 
Q 3641 2581 3239 2228 
Q 2838 1875 2053 1875 
L 1259 1875 
L 1259 0 
L 628 0 
L 628 4666 
z
" transform="scale(0.015625)"/>
      <path id="DejaVuSans-6e" d="M 3513 2113 
L 3513 0 
L 2938 0 
L 2938 2094 
Q 2938 2591 2744 2837 
Q 2550 3084 2163 3084 
Q 1697 3084 1428 2787 
Q 1159 2491 1159 1978 
L 1159 0 
L 581 0 
L 581 3500 
L 1159 3500 
L 1159 2956 
Q 1366 3272 1645 3428 
Q 1925 3584 2291 3584 
Q 2894 3584 3203 3211 
Q 3513 2838 3513 2113 
z
" transform="scale(0.015625)"/>
      <path id="DejaVuSans-28" d="M 1984 4856 
Q 1566 4138 1362 3434 
Q 1159 2731 1159 2009 
Q 1159 1288 1364 580 
Q 1569 -128 1984 -844 
L 1484 -844 
Q 1016 -109 783 600 
Q 550 1309 550 2009 
Q 550 2706 781 3412 
Q 1013 4119 1484 4856 
L 1984 4856 
z
" transform="scale(0.015625)"/>
      <path id="DejaVuSans-4e" d="M 628 4666 
L 1478 4666 
L 3547 763 
L 3547 4666 
L 4159 4666 
L 4159 0 
L 3309 0 
L 1241 3903 
L 1241 0 
L 628 0 
L 628 4666 
z
" transform="scale(0.015625)"/>
      <path id="DejaVuSans-7a" d="M 353 3500 
L 3084 3500 
L 3084 2975 
L 922 459 
L 3084 459 
L 3084 0 
L 275 0 
L 275 525 
L 2438 3041 
L 353 3041 
L 353 3500 
z
" transform="scale(0.015625)"/>
      <path id="DejaVuSans-29" d="M 513 4856 
L 1013 4856 
Q 1481 4119 1714 3412 
Q 1947 2706 1947 2009 
Q 1947 1309 1714 600 
Q 1481 -109 1013 -844 
L 513 -844 
Q 928 -128 1133 580 
Q 1338 1288 1338 2009 
Q 1338 2731 1133 3434 
Q 928 4138 513 4856 
z
" transform="scale(0.015625)"/>
     </defs>
     <use xlink:href="#DejaVuSans-42"/>
     <use xlink:href="#DejaVuSans-61" transform="translate(68.603516 0)"/>
     <use xlink:href="#DejaVuSans-63" transform="translate(129.882812 0)"/>
     <use xlink:href="#DejaVuSans-6b" transform="translate(184.863281 0)"/>
     <use xlink:href="#DejaVuSans-74" transform="translate(242.773438 0)"/>
     <use xlink:href="#DejaVuSans-65" transform="translate(281.982422 0)"/>
     <use xlink:href="#DejaVuSans-73" transform="translate(343.505859 0)"/>
     <use xlink:href="#DejaVuSans-74" transform="translate(395.605469 0)"/>
     <use xlink:href="#DejaVuSans-65" transform="translate(434.814453 0)"/>
     <use xlink:href="#DejaVuSans-64" transform="translate(496.337891 0)"/>
     <use xlink:href="#DejaVuSans-20" transform="translate(559.814453 0)"/>
     <use xlink:href="#DejaVuSans-43" transform="translate(591.601562 0)"/>
     <use xlink:href="#DejaVuSans-75" transform="translate(661.425781 0)"/>
     <use xlink:href="#DejaVuSans-6d" transform="translate(724.804688 0)"/>
     <use xlink:href="#DejaVuSans-75" transform="translate(822.216797 0)"/>
     <use xlink:href="#DejaVuSans-6c" transform="translate(885.595703 0)"/>
     <use xlink:href="#DejaVuSans-61" transform="translate(913.378906 0)"/>
     <use xlink:href="#DejaVuSans-74" transform="translate(974.658203 0)"/>
     <use xlink:href="#DejaVuSans-69" transform="translate(1013.867188 0)"/>
     <use xlink:href="#DejaVuSans-76" transform="translate(1041.650391 0)"/>
     <use xlink:href="#DejaVuSans-65" transform="translate(1100.830078 0)"/>
     <use xlink:href="#DejaVuSans-20" transform="translate(1162.353516 0)"/>
     <use xlink:href="#DejaVuSans-50" transform="translate(1194.140625 0)"/>
     <use xlink:href="#DejaVuSans-65" transform="translate(1250.818359 0)"/>
     <use xlink:href="#DejaVuSans-72" transform="translate(1312.341797 0)"/>
     <use xlink:href="#DejaVuSans-66" transform="translate(1353.455078 0)"/>
     <use xlink:href="#DejaVuSans-6f" transform="translate(1388.660156 0)"/>
     <use xlink:href="#DejaVuSans-72" transform="translate(1449.841797 0)"/>
     <use xlink:href="#DejaVuSans-6d" transform="translate(1489.205078 0)"/>
     <use xlink:href="#DejaVuSans-61" transform="translate(1586.617188 0)"/>
     <use xlink:href="#DejaVuSans-6e" transform="translate(1647.896484 0)"/>
     <use xlink:href="#DejaVuSans-63" transform="translate(1711.275391 0)"/>
     <use xlink:href="#DejaVuSans-65" transform="translate(1766.255859 0)"/>
     <use xlink:href="#DejaVuSans-20" transform="translate(1827.779297 0)"/>
     <use xlink:href="#DejaVuSans-28" transform="translate(1859.566406 0)"/>
     <use xlink:href="#DejaVuSans-4e" transform="translate(1898.580078 0)"/>
     <use xlink:href="#DejaVuSans-6f" transform="translate(1973.384766 0)"/>
     <use xlink:href="#DejaVuSans-72" transform="translate(2034.566406 0)"/>
     <use xlink:href="#DejaVuSans-6d" transform="translate(2073.929688 0)"/>
     <use xlink:href="#DejaVuSans-61" transform="translate(2171.341797 0)"/>
     <use xlink:href="#DejaVuSans-6c" transform="translate(2232.621094 0)"/>
     <use xlink:href="#DejaVuSans-69" transform="translate(2260.404297 0)"/>
     <use xlink:href="#DejaVuSans-7a" transform="translate(2288.1875 0)"/>
     <use xlink:href="#DejaVuSans-65" transform="translate(2340.677734 0)"/>
     <use xlink:href="#DejaVuSans-64" transform="translate(2402.201172 0)"/>
     <use xlink:href="#DejaVuSans-20" transform="translate(2465.677734 0)"/>
     <use xlink:href="#DejaVuSans-74" transform="translate(2497.464844 0)"/>
     <use xlink:href="#DejaVuSans-6f" transform="translate(2536.673828 0)"/>
     <use xlink:href="#DejaVuSans-20" transform="translate(2597.855469 0)"/>
     <use xlink:href="#DejaVuSans-24" transform="translate(2629.642578 0)"/>
     <use xlink:href="#DejaVuSans-31" transform="translate(2693.265625 0)"/>
     <use xlink:href="#DejaVuSans-30" transform="translate(2756.888672 0)"/>
     <use xlink:href="#DejaVuSans-2c" transform="translate(2820.511719 0)"/>
     <use xlink:href="#DejaVuSans-30" transform="translate(2852.298828 0)"/>
     <use xlink:href="#DejaVuSans-30" transform="translate(2915.921875 0)"/>
     <use xlink:href="#DejaVuSans-30" transform="translate(2979.544922 0)"/>
     <use xlink:href="#DejaVuSans-29" transform="translate(3043.167969 0)"/>
    </g>
   </g>
   <g id="legend_1">
    <g id="line2d_17">
     <path d="M 69.72625 36.38625 
L 78.72625 36.38625 
L 87.72625 36.38625 
" style="fill: none; stroke: #1f77b4; stroke-width: 2.8; stroke-linecap: square"/>
    </g>
    <g id="text_19">
     <!-- Diamond Creek ETF Arb Fund (Net) -->
     <g transform="translate(94.92625 39.53625) scale(0.09 -0.09)">
      <defs>
       <path id="DejaVuSans-44" d="M 1259 4147 
L 1259 519 
L 2022 519 
Q 2988 519 3436 956 
Q 3884 1394 3884 2338 
Q 3884 3275 3436 3711 
Q 2988 4147 2022 4147 
L 1259 4147 
z
M 628 4666 
L 1925 4666 
Q 3281 4666 3915 4102 
Q 4550 3538 4550 2338 
Q 4550 1131 3912 565 
Q 3275 0 1925 0 
L 628 0 
L 628 4666 
z
" transform="scale(0.015625)"/>
       <path id="DejaVuSans-45" d="M 628 4666 
L 3578 4666 
L 3578 4134 
L 1259 4134 
L 1259 2753 
L 3481 2753 
L 3481 2222 
L 1259 2222 
L 1259 531 
L 3634 531 
L 3634 0 
L 628 0 
L 628 4666 
z
" transform="scale(0.015625)"/>
       <path id="DejaVuSans-54" d="M -19 4666 
L 3928 4666 
L 3928 4134 
L 2272 4134 
L 2272 0 
L 1638 0 
L 1638 4134 
L -19 4134 
L -19 4666 
z
" transform="scale(0.015625)"/>
       <path id="DejaVuSans-46" d="M 628 4666 
L 3309 4666 
L 3309 4134 
L 1259 4134 
L 1259 2759 
L 3109 2759 
L 3109 2228 
L 1259 2228 
L 1259 0 
L 628 0 
L 628 4666 
z
" transform="scale(0.015625)"/>
       <path id="DejaVuSans-41" d="M 2188 4044 
L 1331 1722 
L 3047 1722 
L 2188 4044 
z
M 1831 4666 
L 2547 4666 
L 4325 0 
L 3669 0 
L 3244 1197 
L 1141 1197 
L 716 0 
L 50 0 
L 1831 4666 
z
" transform="scale(0.015625)"/>
       <path id="DejaVuSans-62" d="M 3116 1747 
Q 3116 2381 2855 2742 
Q 2594 3103 2138 3103 
Q 1681 3103 1420 2742 
Q 1159 2381 1159 1747 
Q 1159 1113 1420 752 
Q 1681 391 2138 391 
Q 2594 391 2855 752 
Q 3116 1113 3116 1747 
z
M 1159 2969 
Q 1341 3281 1617 3432 
Q 1894 3584 2278 3584 
Q 2916 3584 3314 3078 
Q 3713 2572 3713 1747 
Q 3713 922 3314 415 
Q 2916 -91 2278 -91 
Q 1894 -91 1617 61 
Q 1341 213 1159 525 
L 1159 0 
L 581 0 
L 581 4863 
L 1159 4863 
L 1159 2969 
z
" transform="scale(0.015625)"/>
      </defs>
      <use xlink:href="#DejaVuSans-44"/>
      <use xlink:href="#DejaVuSans-69" transform="translate(77.001953 0)"/>
      <use xlink:href="#DejaVuSans-61" transform="translate(104.785156 0)"/>
      <use xlink:href="#DejaVuSans-6d" transform="translate(166.064453 0)"/>
      <use xlink:href="#DejaVuSans-6f" transform="translate(263.476562 0)"/>
      <use xlink:href="#DejaVuSans-6e" transform="translate(324.658203 0)"/>
      <use xlink:href="#DejaVuSans-64" transform="translate(388.037109 0)"/>
      <use xlink:href="#DejaVuSans-20" transform="translate(451.513672 0)"/>
      <use xlink:href="#DejaVuSans-43" transform="translate(483.300781 0)"/>
      <use xlink:href="#DejaVuSans-72" transform="translate(553.125 0)"/>
      <use xlink:href="#DejaVuSans-65" transform="translate(591.988281 0)"/>
      <use xlink:href="#DejaVuSans-65" transform="translate(653.511719 0)"/>
      <use xlink:href="#DejaVuSans-6b" transform="translate(715.035156 0)"/>
      <use xlink:href="#DejaVuSans-20" transform="translate(772.945312 0)"/>
      <use xlink:href="#DejaVuSans-45" transform="translate(804.732422 0)"/>
      <use xlink:href="#DejaVuSans-54" transform="translate(867.916016 0)"/>
      <use xlink:href="#DejaVuSans-46" transform="translate(929 0)"/>
      <use xlink:href="#DejaVuSans-20" transform="translate(986.519531 0)"/>
      <use xlink:href="#DejaVuSans-41" transform="translate(1018.306641 0)"/>
      <use xlink:href="#DejaVuSans-72" transform="translate(1086.714844 0)"/>
      <use xlink:href="#DejaVuSans-62" transform="translate(1127.828125 0)"/>
      <use xlink:href="#DejaVuSans-20" transform="translate(1191.304688 0)"/>
      <use xlink:href="#DejaVuSans-46" transform="translate(1223.091797 0)"/>
      <use xlink:href="#DejaVuSans-75" transform="translate(1275.111328 0)"/>
      <use xlink:href="#DejaVuSans-6e" transform="translate(1338.490234 0)"/>
      <use xlink:href="#DejaVuSans-64" transform="translate(1401.869141 0)"/>
      <use xlink:href="#DejaVuSans-20" transform="translate(1465.345703 0)"/>
      <use xlink:href="#DejaVuSans-28" transform="translate(1497.132812 0)"/>
      <use xlink:href="#DejaVuSans-4e" transform="translate(1536.146484 0)"/>
      <use xlink:href="#DejaVuSans-65" transform="translate(1610.951172 0)"/>
      <use xlink:href="#DejaVuSans-74" transform="translate(1672.474609 0)"/>
      <use xlink:href="#DejaVuSans-29" transform="translate(1711.683594 0)"/>
     </g>
    </g>
    <g id="line2d_18">
     <path d="M 69.72625 49.596562 
L 78.72625 49.596562 
L 87.72625 49.596562 
" style="fill: none; stroke-dasharray: 8.14,3.52; stroke-dashoffset: 0; stroke: #ff7f0e; stroke-width: 2.2"/>
    </g>
    <g id="text_20">
     <!-- SPY (Total Return) -->
     <g transform="translate(94.92625 52.746562) scale(0.09 -0.09)">
      <defs>
       <path id="DejaVuSans-53" d="M 3425 4513 
L 3425 3897 
Q 3066 4069 2747 4153 
Q 2428 4238 2131 4238 
Q 1616 4238 1336 4038 
Q 1056 3838 1056 3469 
Q 1056 3159 1242 3001 
Q 1428 2844 1947 2747 
L 2328 2669 
Q 3034 2534 3370 2195 
Q 3706 1856 3706 1288 
Q 3706 609 3251 259 
Q 2797 -91 1919 -91 
Q 1588 -91 1214 -16 
Q 841 59 441 206 
L 441 856 
Q 825 641 1194 531 
Q 1563 422 1919 422 
Q 2459 422 2753 634 
Q 3047 847 3047 1241 
Q 3047 1584 2836 1778 
Q 2625 1972 2144 2069 
L 1759 2144 
Q 1053 2284 737 2584 
Q 422 2884 422 3419 
Q 422 4038 858 4394 
Q 1294 4750 2059 4750 
Q 2388 4750 2728 4690 
Q 3069 4631 3425 4513 
z
" transform="scale(0.015625)"/>
       <path id="DejaVuSans-59" d="M -13 4666 
L 666 4666 
L 1959 2747 
L 3244 4666 
L 3922 4666 
L 2272 2222 
L 2272 0 
L 1638 0 
L 1638 2222 
L -13 4666 
z
" transform="scale(0.015625)"/>
       <path id="DejaVuSans-52" d="M 2841 2188 
Q 3044 2119 3236 1894 
Q 3428 1669 3622 1275 
L 4263 0 
L 3584 0 
L 2988 1197 
Q 2756 1666 2539 1819 
Q 2322 1972 1947 1972 
L 1259 1972 
L 1259 0 
L 628 0 
L 628 4666 
L 2053 4666 
Q 2853 4666 3247 4331 
Q 3641 3997 3641 3322 
Q 3641 2881 3436 2590 
Q 3231 2300 2841 2188 
z
M 1259 4147 
L 1259 2491 
L 2053 2491 
Q 2509 2491 2742 2702 
Q 2975 2913 2975 3322 
Q 2975 3731 2742 3939 
Q 2509 4147 2053 4147 
L 1259 4147 
z
" transform="scale(0.015625)"/>
      </defs>
      <use xlink:href="#DejaVuSans-53"/>
      <use xlink:href="#DejaVuSans-50" transform="translate(63.476562 0)"/>
      <use xlink:href="#DejaVuSans-59" transform="translate(121.529297 0)"/>
      <use xlink:href="#DejaVuSans-20" transform="translate(182.613281 0)"/>
      <use xlink:href="#DejaVuSans-28" transform="translate(214.400391 0)"/>
      <use xlink:href="#DejaVuSans-54" transform="translate(253.414062 0)"/>
      <use xlink:href="#DejaVuSans-6f" transform="translate(297.498047 0)"/>
      <use xlink:href="#DejaVuSans-74" transform="translate(358.679688 0)"/>
      <use xlink:href="#DejaVuSans-61" transform="translate(397.888672 0)"/>
      <use xlink:href="#DejaVuSans-6c" transform="translate(459.167969 0)"/>
      <use xlink:href="#DejaVuSans-20" transform="translate(486.951172 0)"/>
      <use xlink:href="#DejaVuSans-52" transform="translate(518.738281 0)"/>
      <use xlink:href="#DejaVuSans-65" transform="translate(583.720703 0)"/>
      <use xlink:href="#DejaVuSans-74" transform="translate(645.244141 0)"/>
      <use xlink:href="#DejaVuSans-75" transform="translate(684.453125 0)"/>
      <use xlink:href="#DejaVuSans-72" transform="translate(747.832031 0)"/>
      <use xlink:href="#DejaVuSans-6e" transform="translate(787.195312 0)"/>
      <use xlink:href="#DejaVuSans-29" transform="translate(850.574219 0)"/>
     </g>
    </g>
   </g>
  </g>
 </g>
 <defs>
  <clipPath id="p05a158937c">
   <rect x="61.62625" y="24.597656" width="840.172727" height="375.8"/>
  </clipPath>
 </defs>
</svg>
