<?xml version="1.0" encoding="utf-8" standalone="no"?>
<!DOCTYPE svg PUBLIC "-//W3C//DTD SVG 1.1//EN"
  "http://www.w3.org/Graphics/SVG/1.1/DTD/svg11.dtd">
<svg xmlns:xlink="http://www.w3.org/1999/xlink" width="924.35462pt" height="424.275781pt" viewBox="0 0 924.35462 424.275781" xmlns="http://www.w3.org/2000/svg" version="1.1">
 <metadata>
  <rdf:RDF xmlns:dc="http://purl.org/dc/elements/1.1/" xmlns:cc="http://creativecommons.org/ns#" xmlns:rdf="http://www.w3.org/1999/02/22-rdf-syntax-ns#">
   <cc:Work>
    <dc:type rdf:resource="http://purl.org/dc/dcmitype/StillImage"/>
    <dc:date>2026-04-30T16:57:36.285645</dc:date>
    <dc:format>image/svg+xml</dc:format>
    <dc:creator>
     <cc:Agent>
      <dc:title>Matplotlib v3.10.8, https://matplotlib.org/</dc:title>
     </cc:Agent>
    </dc:creator>
   </cc:Work>
  </rdf:RDF>
 </metadata>
 <defs>
  <style type="text/css">*{stroke-linejoin: round; stroke-linecap: butt}</style>
 </defs>
 <g id="figure_1">
  <g id="patch_1">
   <path d="M 0 424.275781 
L 924.35462 424.275781 
L 924.35462 0 
L 0 0 
z
" style="fill: #ffffff"/>
  </g>
  <g id="axes_1">
   <g id="patch_2">
    <path d="M 61.62625 400.397656 
L 901.798977 400.397656 
L 901.798977 24.597656 
L 61.62625 24.597656 
z
" style="fill: #ffffff"/>
   </g>
   <g id="matplotlib.axis_1">
    <g id="xtick_1">
     <g id="line2d_1">
      <defs>
       <path id="m798dca84d7" d="M 0 0 
L 0 3.5 
" style="stroke: #000000; stroke-width: 0.8"/>
      </defs>
      <g>
       <use xlink:href="#m798dca84d7" x="98.524637" y="400.397656" style="stroke: #000000; stroke-width: 0.8"/>
      </g>
     </g>
     <g id="text_1">
      <!-- 2023-01 -->
      <g transform="translate(77.633231 414.996094) scale(0.1 -0.1)">
       <defs>
        <path id="DejaVuSans-32" d="M 1228 531 
L 3431 531 
L 3431 0 
L 469 0 
L 469 531 
Q 828 903 1448 1529 
Q 2069 2156 2228 2338 
Q 2531 2678 2651 2914 
Q 2772 3150 2772 3378 
Q 2772 3750 2511 3984 
Q 2250 4219 1831 4219 
Q 1534 4219 1204 4116 
Q 875 4013 500 3803 
L 500 4441 
Q 881 4594 1212 4672 
Q 1544 4750 1819 4750 
Q 2544 4750 2975 4387 
Q 3406 4025 3406 3419 
Q 3406 3131 3298 2873 
Q 3191 2616 2906 2266 
Q 2828 2175 2409 1742 
Q 1991 1309 1228 531 
z
" transform="scale(0.015625)"/>
        <path id="DejaVuSans-30" d="M 2034 4250 
Q 1547 4250 1301 3770 
Q 1056 3291 1056 2328 
Q 1056 1369 1301 889 
Q 1547 409 2034 409 
Q 2525 409 2770 889 
Q 3016 1369 3016 2328 
Q 3016 3291 2770 3770 
Q 2525 4250 2034 4250 
z
M 2034 4750 
Q 2819 4750 3233 4129 
Q 3647 3509 3647 2328 
Q 3647 1150 3233 529 
Q 2819 -91 2034 -91 
Q 1250 -91 836 529 
Q 422 1150 422 2328 
Q 422 3509 836 4129 
Q 1250 4750 2034 4750 
z
" transform="scale(0.015625)"/>
        <path id="DejaVuSans-33" d="M 2597 2516 
Q 3050 2419 3304 2112 
Q 3559 1806 3559 1356 
Q 3559 666 3084 287 
Q 2609 -91 1734 -91 
Q 1441 -91 1130 -33 
Q 819 25 488 141 
L 488 750 
Q 750 597 1062 519 
Q 1375 441 1716 441 
Q 2309 441 2620 675 
Q 2931 909 2931 1356 
Q 2931 1769 2642 2001 
Q 2353 2234 1838 2234 
L 1294 2234 
L 1294 2753 
L 1863 2753 
Q 2328 2753 2575 2939 
Q 2822 3125 2822 3475 
Q 2822 3834 2567 4026 
Q 2313 4219 1838 4219 
Q 1578 4219 1281 4162 
Q 984 4106 628 3988 
L 628 4550 
Q 988 4650 1302 4700 
Q 1616 4750 1894 4750 
Q 2613 4750 3031 4423 
Q 3450 4097 3450 3541 
Q 3450 3153 3228 2886 
Q 3006 2619 2597 2516 
z
" transform="scale(0.015625)"/>
        <path id="DejaVuSans-2d" d="M 313 2009 
L 1997 2009 
L 1997 1497 
L 313 1497 
L 313 2009 
z
" transform="scale(0.015625)"/>
        <path id="DejaVuSans-31" d="M 794 531 
L 1825 531 
L 1825 4091 
L 703 3866 
L 703 4441 
L 1819 4666 
L 2450 4666 
L 2450 531 
L 3481 531 
L 3481 0 
L 794 0 
L 794 531 
z
" transform="scale(0.015625)"/>
       </defs>
       <use xlink:href="#DejaVuSans-32"/>
       <use xlink:href="#DejaVuSans-30" transform="translate(63.623047 0)"/>
       <use xlink:href="#DejaVuSans-32" transform="translate(127.246094 0)"/>
       <use xlink:href="#DejaVuSans-33" transform="translate(190.869141 0)"/>
       <use xlink:href="#DejaVuSans-2d" transform="translate(254.492188 0)"/>
       <use xlink:href="#DejaVuSans-30" transform="translate(290.576172 0)"/>
       <use xlink:href="#DejaVuSans-31" transform="translate(354.199219 0)"/>
      </g>
     </g>
    </g>
    <g id="xtick_2">
     <g id="line2d_2">
      <g>
       <use xlink:href="#m798dca84d7" x="176.001566" y="400.397656" style="stroke: #000000; stroke-width: 0.8"/>
      </g>
     </g>
     <g id="text_2">
      <!-- 2023-05 -->
      <g transform="translate(155.11016 414.996094) scale(0.1 -0.1)">
       <defs>
        <path id="DejaVuSans-35" d="M 691 4666 
L 3169 4666 
L 3169 4134 
L 1269 4134 
L 1269 2991 
Q 1406 3038 1543 3061 
Q 1681 3084 1819 3084 
Q 2600 3084 3056 2656 
Q 3513 2228 3513 1497 
Q 3513 744 3044 326 
Q 2575 -91 1722 -91 
Q 1428 -91 1123 -41 
Q 819 9 494 109 
L 494 744 
Q 775 591 1075 516 
Q 1375 441 1709 441 
Q 2250 441 2565 725 
Q 2881 1009 2881 1497 
Q 2881 1984 2565 2268 
Q 2250 2553 1709 2553 
Q 1456 2553 1204 2497 
Q 953 2441 691 2322 
L 691 4666 
z
" transform="scale(0.015625)"/>
       </defs>
       <use xlink:href="#DejaVuSans-32"/>
       <use xlink:href="#DejaVuSans-30" transform="translate(63.623047 0)"/>
       <use xlink:href="#DejaVuSans-32" transform="translate(127.246094 0)"/>
       <use xlink:href="#DejaVuSans-33" transform="translate(190.869141 0)"/>
       <use xlink:href="#DejaVuSans-2d" transform="translate(254.492188 0)"/>
       <use xlink:href="#DejaVuSans-30" transform="translate(290.576172 0)"/>
       <use xlink:href="#DejaVuSans-35" transform="translate(354.199219 0)"/>
      </g>
     </g>
    </g>
    <g id="xtick_3">
     <g id="line2d_3">
      <g>
       <use xlink:href="#m798dca84d7" x="255.415418" y="400.397656" style="stroke: #000000; stroke-width: 0.8"/>
      </g>
     </g>
     <g id="text_3">
      <!-- 2023-09 -->
      <g transform="translate(234.524012 414.996094) scale(0.1 -0.1)">
       <defs>
        <path id="DejaVuSans-39" d="M 703 97 
L 703 672 
Q 941 559 1184 500 
Q 1428 441 1663 441 
Q 2288 441 2617 861 
Q 2947 1281 2994 2138 
Q 2813 1869 2534 1725 
Q 2256 1581 1919 1581 
Q 1219 1581 811 2004 
Q 403 2428 403 3163 
Q 403 3881 828 4315 
Q 1253 4750 1959 4750 
Q 2769 4750 3195 4129 
Q 3622 3509 3622 2328 
Q 3622 1225 3098 567 
Q 2575 -91 1691 -91 
Q 1453 -91 1209 -44 
Q 966 3 703 97 
z
M 1959 2075 
Q 2384 2075 2632 2365 
Q 2881 2656 2881 3163 
Q 2881 3666 2632 3958 
Q 2384 4250 1959 4250 
Q 1534 4250 1286 3958 
Q 1038 3666 1038 3163 
Q 1038 2656 1286 2365 
Q 1534 2075 1959 2075 
z
" transform="scale(0.015625)"/>
       </defs>
       <use xlink:href="#DejaVuSans-32"/>
       <use xlink:href="#DejaVuSans-30" transform="translate(63.623047 0)"/>
       <use xlink:href="#DejaVuSans-32" transform="translate(127.246094 0)"/>
       <use xlink:href="#DejaVuSans-33" transform="translate(190.869141 0)"/>
       <use xlink:href="#DejaVuSans-2d" transform="translate(254.492188 0)"/>
       <use xlink:href="#DejaVuSans-30" transform="translate(290.576172 0)"/>
       <use xlink:href="#DejaVuSans-39" transform="translate(354.199219 0)"/>
      </g>
     </g>
    </g>
    <g id="xtick_4">
     <g id="line2d_4">
      <g>
       <use xlink:href="#m798dca84d7" x="334.183629" y="400.397656" style="stroke: #000000; stroke-width: 0.8"/>
      </g>
     </g>
     <g id="text_4">
      <!-- 2024-01 -->
      <g transform="translate(313.292222 414.996094) scale(0.1 -0.1)">
       <defs>
        <path id="DejaVuSans-34" d="M 2419 4116 
L 825 1625 
L 2419 1625 
L 2419 4116 
z
M 2253 4666 
L 3047 4666 
L 3047 1625 
L 3713 1625 
L 3713 1100 
L 3047 1100 
L 3047 0 
L 2419 0 
L 2419 1100 
L 313 1100 
L 313 1709 
L 2253 4666 
z
" transform="scale(0.015625)"/>
       </defs>
       <use xlink:href="#DejaVuSans-32"/>
       <use xlink:href="#DejaVuSans-30" transform="translate(63.623047 0)"/>
       <use xlink:href="#DejaVuSans-32" transform="translate(127.246094 0)"/>
       <use xlink:href="#DejaVuSans-34" transform="translate(190.869141 0)"/>
       <use xlink:href="#DejaVuSans-2d" transform="translate(254.492188 0)"/>
       <use xlink:href="#DejaVuSans-30" transform="translate(290.576172 0)"/>
       <use xlink:href="#DejaVuSans-31" transform="translate(354.199219 0)"/>
      </g>
     </g>
    </g>
    <g id="xtick_5">
     <g id="line2d_5">
      <g>
       <use xlink:href="#m798dca84d7" x="412.306198" y="400.397656" style="stroke: #000000; stroke-width: 0.8"/>
      </g>
     </g>
     <g id="text_5">
      <!-- 2024-05 -->
      <g transform="translate(391.414792 414.996094) scale(0.1 -0.1)">
       <use xlink:href="#DejaVuSans-32"/>
       <use xlink:href="#DejaVuSans-30" transform="translate(63.623047 0)"/>
       <use xlink:href="#DejaVuSans-32" transform="translate(127.246094 0)"/>
       <use xlink:href="#DejaVuSans-34" transform="translate(190.869141 0)"/>
       <use xlink:href="#DejaVuSans-2d" transform="translate(254.492188 0)"/>
       <use xlink:href="#DejaVuSans-30" transform="translate(290.576172 0)"/>
       <use xlink:href="#DejaVuSans-35" transform="translate(354.199219 0)"/>
      </g>
     </g>
    </g>
    <g id="xtick_6">
     <g id="line2d_6">
      <g>
       <use xlink:href="#m798dca84d7" x="491.72005" y="400.397656" style="stroke: #000000; stroke-width: 0.8"/>
      </g>
     </g>
     <g id="text_6">
      <!-- 2024-09 -->
      <g transform="translate(470.828644 414.996094) scale(0.1 -0.1)">
       <use xlink:href="#DejaVuSans-32"/>
       <use xlink:href="#DejaVuSans-30" transform="translate(63.623047 0)"/>
       <use xlink:href="#DejaVuSans-32" transform="translate(127.246094 0)"/>
       <use xlink:href="#DejaVuSans-34" transform="translate(190.869141 0)"/>
       <use xlink:href="#DejaVuSans-2d" transform="translate(254.492188 0)"/>
       <use xlink:href="#DejaVuSans-30" transform="translate(290.576172 0)"/>
       <use xlink:href="#DejaVuSans-39" transform="translate(354.199219 0)"/>
      </g>
     </g>
    </g>
    <g id="xtick_7">
     <g id="line2d_7">
      <g>
       <use xlink:href="#m798dca84d7" x="570.488261" y="400.397656" style="stroke: #000000; stroke-width: 0.8"/>
      </g>
     </g>
     <g id="text_7">
      <!-- 2025-01 -->
      <g transform="translate(549.596855 414.996094) scale(0.1 -0.1)">
       <use xlink:href="#DejaVuSans-32"/>
       <use xlink:href="#DejaVuSans-30" transform="translate(63.623047 0)"/>
       <use xlink:href="#DejaVuSans-32" transform="translate(127.246094 0)"/>
       <use xlink:href="#DejaVuSans-35" transform="translate(190.869141 0)"/>
       <use xlink:href="#DejaVuSans-2d" transform="translate(254.492188 0)"/>
       <use xlink:href="#DejaVuSans-30" transform="translate(290.576172 0)"/>
       <use xlink:href="#DejaVuSans-31" transform="translate(354.199219 0)"/>
      </g>
     </g>
    </g>
    <g id="xtick_8">
     <g id="line2d_8">
      <g>
       <use xlink:href="#m798dca84d7" x="647.96519" y="400.397656" style="stroke: #000000; stroke-width: 0.8"/>
      </g>
     </g>
     <g id="text_8">
      <!-- 2025-05 -->
      <g transform="translate(627.073783 414.996094) scale(0.1 -0.1)">
       <use xlink:href="#DejaVuSans-32"/>
       <use xlink:href="#DejaVuSans-30" transform="translate(63.623047 0)"/>
       <use xlink:href="#DejaVuSans-32" transform="translate(127.246094 0)"/>
       <use xlink:href="#DejaVuSans-35" transform="translate(190.869141 0)"/>
       <use xlink:href="#DejaVuSans-2d" transform="translate(254.492188 0)"/>
       <use xlink:href="#DejaVuSans-30" transform="translate(290.576172 0)"/>
       <use xlink:href="#DejaVuSans-35" transform="translate(354.199219 0)"/>
      </g>
     </g>
    </g>
    <g id="xtick_9">
     <g id="line2d_9">
      <g>
       <use xlink:href="#m798dca84d7" x="727.379042" y="400.397656" style="stroke: #000000; stroke-width: 0.8"/>
      </g>
     </g>
     <g id="text_9">
      <!-- 2025-09 -->
      <g transform="translate(706.487635 414.996094) scale(0.1 -0.1)">
       <use xlink:href="#DejaVuSans-32"/>
       <use xlink:href="#DejaVuSans-30" transform="translate(63.623047 0)"/>
       <use xlink:href="#DejaVuSans-32" transform="translate(127.246094 0)"/>
       <use xlink:href="#DejaVuSans-35" transform="translate(190.869141 0)"/>
       <use xlink:href="#DejaVuSans-2d" transform="translate(254.492188 0)"/>
       <use xlink:href="#DejaVuSans-30" transform="translate(290.576172 0)"/>
       <use xlink:href="#DejaVuSans-39" transform="translate(354.199219 0)"/>
      </g>
     </g>
    </g>
    <g id="xtick_10">
     <g id="line2d_10">
      <g>
       <use xlink:href="#m798dca84d7" x="806.147252" y="400.397656" style="stroke: #000000; stroke-width: 0.8"/>
      </g>
     </g>
     <g id="text_10">
      <!-- 2026-01 -->
      <g transform="translate(785.255846 414.996094) scale(0.1 -0.1)">
       <defs>
        <path id="DejaVuSans-36" d="M 2113 2584 
Q 1688 2584 1439 2293 
Q 1191 2003 1191 1497 
Q 1191 994 1439 701 
Q 1688 409 2113 409 
Q 2538 409 2786 701 
Q 3034 994 3034 1497 
Q 3034 2003 2786 2293 
Q 2538 2584 2113 2584 
z
M 3366 4563 
L 3366 3988 
Q 3128 4100 2886 4159 
Q 2644 4219 2406 4219 
Q 1781 4219 1451 3797 
Q 1122 3375 1075 2522 
Q 1259 2794 1537 2939 
Q 1816 3084 2150 3084 
Q 2853 3084 3261 2657 
Q 3669 2231 3669 1497 
Q 3669 778 3244 343 
Q 2819 -91 2113 -91 
Q 1303 -91 875 529 
Q 447 1150 447 2328 
Q 447 3434 972 4092 
Q 1497 4750 2381 4750 
Q 2619 4750 2861 4703 
Q 3103 4656 3366 4563 
z
" transform="scale(0.015625)"/>
       </defs>
       <use xlink:href="#DejaVuSans-32"/>
       <use xlink:href="#DejaVuSans-30" transform="translate(63.623047 0)"/>
       <use xlink:href="#DejaVuSans-32" transform="translate(127.246094 0)"/>
       <use xlink:href="#DejaVuSans-36" transform="translate(190.869141 0)"/>
       <use xlink:href="#DejaVuSans-2d" transform="translate(254.492188 0)"/>
       <use xlink:href="#DejaVuSans-30" transform="translate(290.576172 0)"/>
       <use xlink:href="#DejaVuSans-31" transform="translate(354.199219 0)"/>
      </g>
     </g>
    </g>
    <g id="xtick_11">
     <g id="line2d_11">
      <g>
       <use xlink:href="#m798dca84d7" x="883.624181" y="400.397656" style="stroke: #000000; stroke-width: 0.8"/>
      </g>
     </g>
     <g id="text_11">
      <!-- 2026-05 -->
      <g transform="translate(862.732775 414.996094) scale(0.1 -0.1)">
       <use xlink:href="#DejaVuSans-32"/>
       <use xlink:href="#DejaVuSans-30" transform="translate(63.623047 0)"/>
       <use xlink:href="#DejaVuSans-32" transform="translate(127.246094 0)"/>
       <use xlink:href="#DejaVuSans-36" transform="translate(190.869141 0)"/>
       <use xlink:href="#DejaVuSans-2d" transform="translate(254.492188 0)"/>
       <use xlink:href="#DejaVuSans-30" transform="translate(290.576172 0)"/>
       <use xlink:href="#DejaVuSans-35" transform="translate(354.199219 0)"/>
      </g>
     </g>
    </g>
   </g>
   <g id="matplotlib.axis_2">
    <g id="ytick_1">
     <g id="line2d_12">
      <defs>
       <path id="m7130adac3c" d="M 0 0 
L -3.5 0 
" style="stroke: #000000; stroke-width: 0.8"/>
      </defs>
      <g>
       <use xlink:href="#m7130adac3c" x="61.62625" y="382.032335" style="stroke: #000000; stroke-width: 0.8"/>
      </g>
     </g>
     <g id="text_12">
      <!-- 10000 -->
      <g transform="translate(22.81375 385.831554) scale(0.1 -0.1)">
       <use xlink:href="#DejaVuSans-31"/>
       <use xlink:href="#DejaVuSans-30" transform="translate(63.623047 0)"/>
       <use xlink:href="#DejaVuSans-30" transform="translate(127.246094 0)"/>
       <use xlink:href="#DejaVuSans-30" transform="translate(190.869141 0)"/>
       <use xlink:href="#DejaVuSans-30" transform="translate(254.492188 0)"/>
      </g>
     </g>
    </g>
    <g id="ytick_2">
     <g id="line2d_13">
      <g>
       <use xlink:href="#m7130adac3c" x="61.62625" y="314.144748" style="stroke: #000000; stroke-width: 0.8"/>
      </g>
     </g>
     <g id="text_13">
      <!-- 12000 -->
      <g transform="translate(22.81375 317.943967) scale(0.1 -0.1)">
       <use xlink:href="#DejaVuSans-31"/>
       <use xlink:href="#DejaVuSans-32" transform="translate(63.623047 0)"/>
       <use xlink:href="#DejaVuSans-30" transform="translate(127.246094 0)"/>
       <use xlink:href="#DejaVuSans-30" transform="translate(190.869141 0)"/>
       <use xlink:href="#DejaVuSans-30" transform="translate(254.492188 0)"/>
      </g>
     </g>
    </g>
    <g id="ytick_3">
     <g id="line2d_14">
      <g>
       <use xlink:href="#m7130adac3c" x="61.62625" y="246.257161" style="stroke: #000000; stroke-width: 0.8"/>
      </g>
     </g>
     <g id="text_14">
      <!-- 14000 -->
      <g transform="translate(22.81375 250.05638) scale(0.1 -0.1)">
       <use xlink:href="#DejaVuSans-31"/>
       <use xlink:href="#DejaVuSans-34" transform="translate(63.623047 0)"/>
       <use xlink:href="#DejaVuSans-30" transform="translate(127.246094 0)"/>
       <use xlink:href="#DejaVuSans-30" transform="translate(190.869141 0)"/>
       <use xlink:href="#DejaVuSans-30" transform="translate(254.492188 0)"/>
      </g>
     </g>
    </g>
    <g id="ytick_4">
     <g id="line2d_15">
      <g>
       <use xlink:href="#m7130adac3c" x="61.62625" y="178.369575" style="stroke: #000000; stroke-width: 0.8"/>
      </g>
     </g>
     <g id="text_15">
      <!-- 16000 -->
      <g transform="translate(22.81375 182.168793) scale(0.1 -0.1)">
       <use xlink:href="#DejaVuSans-31"/>
       <use xlink:href="#DejaVuSans-36" transform="translate(63.623047 0)"/>
       <use xlink:href="#DejaVuSans-30" transform="translate(127.246094 0)"/>
       <use xlink:href="#DejaVuSans-30" transform="translate(190.869141 0)"/>
       <use xlink:href="#DejaVuSans-30" transform="translate(254.492188 0)"/>
      </g>
     </g>
    </g>
    <g id="ytick_5">
     <g id="line2d_16">
      <g>
       <use xlink:href="#m7130adac3c" x="61.62625" y="110.481988" style="stroke: #000000; stroke-width: 0.8"/>
      </g>
     </g>
     <g id="text_16">
      <!-- 18000 -->
      <g transform="translate(22.81375 114.281206) scale(0.1 -0.1)">
       <defs>
        <path id="DejaVuSans-38" d="M 2034 2216 
Q 1584 2216 1326 1975 
Q 1069 1734 1069 1313 
Q 1069 891 1326 650 
Q 1584 409 2034 409 
Q 2484 409 2743 651 
Q 3003 894 3003 1313 
Q 3003 1734 2745 1975 
Q 2488 2216 2034 2216 
z
M 1403 2484 
Q 997 2584 770 2862 
Q 544 3141 544 3541 
Q 544 4100 942 4425 
Q 1341 4750 2034 4750 
Q 2731 4750 3128 4425 
Q 3525 4100 3525 3541 
Q 3525 3141 3298 2862 
Q 3072 2584 2669 2484 
Q 3125 2378 3379 2068 
Q 3634 1759 3634 1313 
Q 3634 634 3220 271 
Q 2806 -91 2034 -91 
Q 1263 -91 848 271 
Q 434 634 434 1313 
Q 434 1759 690 2068 
Q 947 2378 1403 2484 
z
M 1172 3481 
Q 1172 3119 1398 2916 
Q 1625 2713 2034 2713 
Q 2441 2713 2670 2916 
Q 2900 3119 2900 3481 
Q 2900 3844 2670 4047 
Q 2441 4250 2034 4250 
Q 1625 4250 1398 4047 
Q 1172 3844 1172 3481 
z
" transform="scale(0.015625)"/>
       </defs>
       <use xlink:href="#DejaVuSans-31"/>
       <use xlink:href="#DejaVuSans-38" transform="translate(63.623047 0)"/>
       <use xlink:href="#DejaVuSans-30" transform="translate(127.246094 0)"/>
       <use xlink:href="#DejaVuSans-30" transform="translate(190.869141 0)"/>
       <use xlink:href="#DejaVuSans-30" transform="translate(254.492188 0)"/>
      </g>
     </g>
    </g>
    <g id="ytick_6">
     <g id="line2d_17">
      <g>
       <use xlink:href="#m7130adac3c" x="61.62625" y="42.594401" style="stroke: #000000; stroke-width: 0.8"/>
      </g>
     </g>
     <g id="text_17">
      <!-- 20000 -->
      <g transform="translate(22.81375 46.393619) scale(0.1 -0.1)">
       <use xlink:href="#DejaVuSans-32"/>
       <use xlink:href="#DejaVuSans-30" transform="translate(63.623047 0)"/>
       <use xlink:href="#DejaVuSans-30" transform="translate(127.246094 0)"/>
       <use xlink:href="#DejaVuSans-30" transform="translate(190.869141 0)"/>
       <use xlink:href="#DejaVuSans-30" transform="translate(254.492188 0)"/>
      </g>
     </g>
    </g>
    <g id="text_18">
     <!-- Growth of $10,000 -->
     <g transform="translate(16.318125 268.620156) rotate(-90) scale(0.12 -0.12)">
      <defs>
       <path id="DejaVuSans-47" d="M 3809 666 
L 3809 1919 
L 2778 1919 
L 2778 2438 
L 4434 2438 
L 4434 434 
Q 4069 175 3628 42 
Q 3188 -91 2688 -91 
Q 1594 -91 976 548 
Q 359 1188 359 2328 
Q 359 3472 976 4111 
Q 1594 4750 2688 4750 
Q 3144 4750 3555 4637 
Q 3966 4525 4313 4306 
L 4313 3634 
Q 3963 3931 3569 4081 
Q 3175 4231 2741 4231 
Q 1884 4231 1454 3753 
Q 1025 3275 1025 2328 
Q 1025 1384 1454 906 
Q 1884 428 2741 428 
Q 3075 428 3337 486 
Q 3600 544 3809 666 
z
" transform="scale(0.015625)"/>
       <path id="DejaVuSans-72" d="M 2631 2963 
Q 2534 3019 2420 3045 
Q 2306 3072 2169 3072 
Q 1681 3072 1420 2755 
Q 1159 2438 1159 1844 
L 1159 0 
L 581 0 
L 581 3500 
L 1159 3500 
L 1159 2956 
Q 1341 3275 1631 3429 
Q 1922 3584 2338 3584 
Q 2397 3584 2469 3576 
Q 2541 3569 2628 3553 
L 2631 2963 
z
" transform="scale(0.015625)"/>
       <path id="DejaVuSans-6f" d="M 1959 3097 
Q 1497 3097 1228 2736 
Q 959 2375 959 1747 
Q 959 1119 1226 758 
Q 1494 397 1959 397 
Q 2419 397 2687 759 
Q 2956 1122 2956 1747 
Q 2956 2369 2687 2733 
Q 2419 3097 1959 3097 
z
M 1959 3584 
Q 2709 3584 3137 3096 
Q 3566 2609 3566 1747 
Q 3566 888 3137 398 
Q 2709 -91 1959 -91 
Q 1206 -91 779 398 
Q 353 888 353 1747 
Q 353 2609 779 3096 
Q 1206 3584 1959 3584 
z
" transform="scale(0.015625)"/>
       <path id="DejaVuSans-77" d="M 269 3500 
L 844 3500 
L 1563 769 
L 2278 3500 
L 2956 3500 
L 3675 769 
L 4391 3500 
L 4966 3500 
L 4050 0 
L 3372 0 
L 2619 2869 
L 1863 0 
L 1184 0 
L 269 3500 
z
" transform="scale(0.015625)"/>
       <path id="DejaVuSans-74" d="M 1172 4494 
L 1172 3500 
L 2356 3500 
L 2356 3053 
L 1172 3053 
L 1172 1153 
Q 1172 725 1289 603 
Q 1406 481 1766 481 
L 2356 481 
L 2356 0 
L 1766 0 
Q 1100 0 847 248 
Q 594 497 594 1153 
L 594 3053 
L 172 3053 
L 172 3500 
L 594 3500 
L 594 4494 
L 1172 4494 
z
" transform="scale(0.015625)"/>
       <path id="DejaVuSans-68" d="M 3513 2113 
L 3513 0 
L 2938 0 
L 2938 2094 
Q 2938 2591 2744 2837 
Q 2550 3084 2163 3084 
Q 1697 3084 1428 2787 
Q 1159 2491 1159 1978 
L 1159 0 
L 581 0 
L 581 4863 
L 1159 4863 
L 1159 2956 
Q 1366 3272 1645 3428 
Q 1925 3584 2291 3584 
Q 2894 3584 3203 3211 
Q 3513 2838 3513 2113 
z
" transform="scale(0.015625)"/>
       <path id="DejaVuSans-20" transform="scale(0.015625)"/>
       <path id="DejaVuSans-66" d="M 2375 4863 
L 2375 4384 
L 1825 4384 
Q 1516 4384 1395 4259 
Q 1275 4134 1275 3809 
L 1275 3500 
L 2222 3500 
L 2222 3053 
L 1275 3053 
L 1275 0 
L 697 0 
L 697 3053 
L 147 3053 
L 147 3500 
L 697 3500 
L 697 3744 
Q 697 4328 969 4595 
Q 1241 4863 1831 4863 
L 2375 4863 
z
" transform="scale(0.015625)"/>
       <path id="DejaVuSans-24" d="M 2163 -941 
L 1850 -941 
L 1847 0 
Q 1519 6 1191 76 
Q 863 147 531 288 
L 531 850 
Q 850 650 1176 548 
Q 1503 447 1850 444 
L 1850 1869 
Q 1159 1981 845 2250 
Q 531 2519 531 2988 
Q 531 3497 872 3790 
Q 1213 4084 1850 4128 
L 1850 4863 
L 2163 4863 
L 2163 4138 
Q 2453 4125 2725 4076 
Q 2997 4028 3256 3944 
L 3256 3397 
Q 2997 3528 2723 3600 
Q 2450 3672 2163 3684 
L 2163 2350 
Q 2872 2241 3206 1959 
Q 3541 1678 3541 1191 
Q 3541 663 3186 358 
Q 2831 53 2163 6 
L 2163 -941 
z
M 1850 2406 
L 1850 3688 
Q 1488 3647 1297 3481 
Q 1106 3316 1106 3041 
Q 1106 2772 1282 2622 
Q 1459 2472 1850 2406 
z
M 2163 1806 
L 2163 453 
Q 2559 506 2761 678 
Q 2963 850 2963 1131 
Q 2963 1406 2770 1568 
Q 2578 1731 2163 1806 
z
" transform="scale(0.015625)"/>
       <path id="DejaVuSans-2c" d="M 750 794 
L 1409 794 
L 1409 256 
L 897 -744 
L 494 -744 
L 750 256 
L 750 794 
z
" transform="scale(0.015625)"/>
      </defs>
      <use xlink:href="#DejaVuSans-47"/>
      <use xlink:href="#DejaVuSans-72" transform="translate(77.490234 0)"/>
      <use xlink:href="#DejaVuSans-6f" transform="translate(116.353516 0)"/>
      <use xlink:href="#DejaVuSans-77" transform="translate(177.535156 0)"/>
      <use xlink:href="#DejaVuSans-74" transform="translate(259.322266 0)"/>
      <use xlink:href="#DejaVuSans-68" transform="translate(298.53125 0)"/>
      <use xlink:href="#DejaVuSans-20" transform="translate(361.910156 0)"/>
      <use xlink:href="#DejaVuSans-6f" transform="translate(393.697266 0)"/>
      <use xlink:href="#DejaVuSans-66" transform="translate(454.878906 0)"/>
      <use xlink:href="#DejaVuSans-20" transform="translate(490.083984 0)"/>
      <use xlink:href="#DejaVuSans-24" transform="translate(521.871094 0)"/>
      <use xlink:href="#DejaVuSans-31" transform="translate(585.494141 0)"/>
      <use xlink:href="#DejaVuSans-30" transform="translate(649.117188 0)"/>
      <use xlink:href="#DejaVuSans-2c" transform="translate(712.740234 0)"/>
      <use xlink:href="#DejaVuSans-30" transform="translate(744.527344 0)"/>
      <use xlink:href="#DejaVuSans-30" transform="translate(808.150391 0)"/>
      <use xlink:href="#DejaVuSans-30" transform="translate(871.773438 0)"/>
     </g>
    </g>
   </g>
   <g id="line2d_18">
    <path d="M 99.815919 382.032335 
L 100.46156 374.939272 
L 101.107202 379.929212 
L 101.752843 376.344797 
L 103.689766 371.609445 
L 104.335407 365.850856 
L 104.981048 363.88468 
L 106.27233 358.087314 
L 108.854894 354.74131 
L 109.500536 358.192995 
L 110.146177 359.286104 
L 110.791818 350.704205 
L 112.728741 345.989085 
L 113.374382 348.2613 
L 114.020023 349.137659 
L 114.665664 346.484737 
L 115.311305 340.598797 
L 117.248228 347.568113 
L 117.893869 342.900225 
L 118.539511 335.46895 
L 119.185152 318.93403 
L 119.830793 324.107059 
L 121.767716 324.681318 
L 122.413357 322.23894 
L 123.058998 326.124523 
L 123.704639 332.699253 
L 124.35028 335.527839 
L 126.287203 333.875999 
L 126.932844 330.999436 
L 127.578486 326.18738 
L 128.224127 330.221113 
L 128.869768 331.854934 
L 131.452332 335.501777 
L 132.097973 336.049632 
L 132.743614 330.25101 
L 133.389255 334.355084 
L 135.326178 333.710205 
L 135.971819 330.291099 
L 136.617461 332.767524 
L 137.263102 331.20056 
L 137.908743 326.642143 
L 139.845666 328.172951 
L 140.491307 329.722294 
L 141.136948 327.580576 
L 141.782589 333.246581 
L 142.42823 336.990401 
L 144.365153 332.389714 
L 145.010794 326.340105 
L 145.656436 323.628329 
L 146.302077 318.499757 
L 146.947718 316.837704 
L 148.884641 316.494356 
L 149.530282 310.178011 
L 150.175923 314.07126 
L 150.821564 315.779658 
L 151.467205 314.466155 
L 153.404128 318.027627 
L 154.049769 317.990034 
L 154.695411 314.648218 
L 155.341052 313.79902 
L 155.986693 322.7851 
L 157.923616 326.465209 
L 158.569257 326.82075 
L 159.214898 329.616469 
L 159.860539 326.555619 
L 162.443103 324.899909 
L 163.088744 325.32591 
L 163.734386 327.253411 
L 164.380027 323.813823 
L 165.025668 322.933226 
L 166.962591 323.664009 
L 167.608232 323.409019 
L 168.253873 324.121367 
L 168.899514 327.626675 
L 169.545155 327.759594 
L 171.482078 329.905277 
L 172.12772 332.742565 
L 172.773361 330.946022 
L 173.419002 323.700734 
L 174.064643 323.66311 
L 176.001566 324.069708 
L 176.647207 325.159618 
L 177.292848 327.250536 
L 177.938489 327.571702 
L 178.58413 320.117734 
L 180.521053 319.365757 
L 181.166695 319.466968 
L 181.812336 316.156692 
L 182.457977 316.158657 
L 183.103618 317.856277 
L 185.040541 314.909688 
L 185.686182 314.731989 
L 186.977464 308.208223 
L 187.623105 310.173002 
L 189.560028 307.928788 
L 190.20567 310.503528 
L 190.851311 310.647292 
L 191.496952 300.503319 
L 192.142593 297.349202 
L 194.725157 294.102421 
L 195.370798 296.85161 
L 196.016439 291.054743 
L 196.66208 290.356149 
L 198.599003 293.104591 
L 199.244645 298.151856 
L 199.890286 300.773274 
L 200.535927 297.397453 
L 201.181568 298.72709 
L 203.118491 297.929642 
L 205.055414 290.537767 
L 205.701055 291.010877 
L 208.28362 289.230736 
L 208.929261 289.929036 
L 209.574902 287.666033 
L 210.220543 286.863288 
L 212.157466 290.155379 
L 212.803107 282.405339 
L 213.448748 282.531711 
L 214.094389 282.313672 
L 214.74003 287.387061 
L 216.676953 285.74668 
L 217.968236 285.4886 
L 218.613877 285.971018 
L 219.259518 284.642255 
L 221.196441 284.526818 
L 221.842082 279.375194 
L 222.487723 278.546844 
L 223.133364 264.191838 
L 223.779005 265.171594 
L 225.715929 264.059682 
L 226.36157 262.844173 
L 227.007211 260.96891 
L 227.652852 267.72195 
L 228.298493 269.491297 
L 230.235416 269.850671 
L 230.881057 268.191595 
L 231.526698 267.460296 
L 232.172339 268.719679 
L 232.81798 263.644722 
L 234.754904 263.264693 
L 235.400545 264.889524 
L 236.046186 270.872644 
L 236.691827 269.64198 
L 237.337468 270.282927 
L 239.274391 268.576159 
L 239.920032 269.608918 
L 240.565673 274.130343 
L 241.211314 274.054193 
L 241.856955 277.079992 
L 243.793879 273.601881 
L 246.376443 282.647585 
L 248.313366 276.557727 
L 248.959007 277.678941 
L 249.604648 274.184967 
L 250.250289 277.588718 
L 250.89593 277.11511 
L 252.832854 276.120438 
L 253.478495 267.678922 
L 254.124136 267.494412 
L 254.769777 268.476979 
L 255.415418 268.965208 
L 257.997982 268.560322 
L 258.643623 270.295893 
L 259.289264 269.486605 
L 259.934905 269.460288 
L 261.871829 268.167003 
L 262.51747 269.484496 
L 263.163111 268.34426 
L 263.808752 265.656223 
L 264.454393 269.93953 
L 266.391316 269.703821 
L 267.036957 271.640774 
L 268.328239 280.295763 
L 268.97388 280.969002 
L 270.910804 279.045804 
L 271.556445 282.022033 
L 272.202086 281.289563 
L 272.847727 277.871131 
L 273.493368 279.317931 
L 275.430291 278.297921 
L 276.075932 282.780404 
L 276.721573 279.455867 
L 277.367214 278.398611 
L 278.012855 273.388273 
L 279.949779 273.469181 
L 281.241061 270.272837 
L 281.886702 270.948062 
L 282.532343 274.947355 
L 284.469266 272.304195 
L 285.114907 273.812766 
L 285.760548 278.553626 
L 287.05183 282.979729 
L 288.988754 279.233583 
L 289.634395 276.201093 
L 290.280036 282.849678 
L 290.925677 287.926099 
L 293.508241 284.18386 
L 294.153882 282.582785 
L 295.445164 272.615249 
L 296.090805 270.198706 
L 298.027729 268.684269 
L 298.67337 266.570773 
L 299.319011 266.182829 
L 299.964652 265.130854 
L 300.610293 261.917415 
L 302.547216 261.673213 
L 303.192857 258.980293 
L 303.838498 258.60865 
L 304.484139 257.68506 
L 305.12978 257.511363 
L 307.066704 253.154583 
L 307.712345 254.093203 
L 308.357986 252.608742 
L 309.649268 252.562882 
L 311.586191 251.343005 
L 312.231832 248.646656 
L 312.877473 249.660765 
L 313.523114 252.295099 
L 314.168755 250.520266 
L 316.105679 250.994299 
L 316.75132 249.789278 
L 317.396961 253.005992 
L 318.688243 244.493332 
L 320.625166 249.446979 
L 321.270807 246.807666 
L 321.916448 242.210722 
L 322.562089 241.112537 
L 323.20773 241.229301 
L 325.144654 237.849959 
L 325.790295 236.488731 
L 326.435936 238.16439 
L 327.081577 234.693432 
L 327.727218 233.823374 
L 330.309782 234.363447 
L 330.955423 231.382203 
L 331.601064 231.11901 
L 332.246705 242.218039 
L 335.474911 253.136391 
L 336.120552 252.638352 
L 336.766193 251.536606 
L 338.703116 244.935382 
L 339.348757 245.686097 
L 339.994398 243.344663 
L 340.640039 244.966677 
L 341.28568 247.070132 
L 343.868245 245.951545 
L 344.513886 246.772245 
L 345.159527 246.501696 
L 345.805168 243.100795 
L 348.387732 242.116878 
L 349.033373 242.231949 
L 349.679014 242.788331 
L 350.324655 242.215368 
L 352.261579 241.29135 
L 352.90722 241.775233 
L 353.552861 243.439374 
L 354.198502 242.060518 
L 354.844143 241.029056 
L 356.781066 240.811388 
L 358.072348 239.116863 
L 358.717989 237.784546 
L 359.36363 235.760087 
L 361.300554 235.297829 
L 361.946195 237.017608 
L 362.591836 235.011549 
L 363.237477 235.692872 
L 363.883118 237.65034 
L 366.465682 238.449726 
L 367.111323 239.992344 
L 367.756964 231.515793 
L 368.402605 232.407373 
L 370.339529 232.36415 
L 370.98517 232.696715 
L 371.630811 233.332716 
L 372.276452 227.649119 
L 372.922093 228.159229 
L 374.859016 228.899756 
L 375.504657 228.54877 
L 376.150298 229.498068 
L 376.795939 228.736072 
L 377.44158 229.220669 
L 379.378504 230.244626 
L 380.024145 227.615034 
L 380.669786 227.787643 
L 381.315427 227.02036 
L 381.961068 226.896899 
L 384.543632 225.387172 
L 385.189273 223.92842 
L 385.834914 223.861353 
L 386.480555 223.215408 
L 388.417479 223.274426 
L 389.06312 224.19906 
L 389.708761 223.24404 
L 390.354402 226.55086 
L 392.936966 228.586255 
L 393.582607 228.295309 
L 394.228248 228.334253 
L 395.51953 227.673764 
L 397.456454 228.374342 
L 398.102095 228.08626 
L 398.747736 226.716847 
L 399.393377 226.619651 
L 400.039018 225.424425 
L 401.975941 224.281985 
L 402.621582 224.386199 
L 403.267223 225.105667 
L 403.912864 224.438666 
L 404.558506 226.831441 
L 406.495429 226.644278 
L 407.14107 226.76268 
L 407.786711 225.009757 
L 408.432352 225.180689 
L 409.077993 226.420259 
L 411.014916 228.357712 
L 411.660557 227.507987 
L 412.306198 226.213064 
L 412.951839 224.028169 
L 413.597481 223.022414 
L 415.534404 222.611862 
L 416.180045 221.679321 
L 416.825686 221.949872 
L 417.471327 221.795371 
L 418.116968 221.436146 
L 420.053891 221.288407 
L 420.699532 220.599899 
L 421.345173 220.862908 
L 421.990814 220.031492 
L 424.573379 220.189582 
L 425.21902 221.184471 
L 426.510302 219.213173 
L 427.155943 220.440992 
L 429.738507 220.478223 
L 430.384148 220.371848 
L 431.029789 219.073724 
L 431.675431 218.712414 
L 434.257995 218.329149 
L 434.903636 219.447341 
L 435.549277 219.167634 
L 436.194918 217.846601 
L 438.777482 217.061996 
L 439.423123 217.881125 
L 440.068764 217.973408 
L 440.714406 217.389393 
L 442.651329 218.233514 
L 443.29697 217.878341 
L 444.588252 216.314749 
L 445.233893 216.573339 
L 447.170816 215.654699 
L 447.816457 214.903303 
L 448.462098 215.000662 
L 449.107739 214.333269 
L 449.753381 216.388204 
L 451.690304 218.978738 
L 452.335945 222.028541 
L 452.981586 224.19255 
L 454.272868 225.344353 
L 456.209791 225.507027 
L 457.501073 226.730869 
L 458.146715 224.123545 
L 458.792356 224.023101 
L 460.729279 224.008165 
L 461.37492 224.203043 
L 462.020561 223.886579 
L 462.666202 222.573747 
L 463.311843 223.98996 
L 465.248766 223.666835 
L 465.894407 222.931685 
L 466.540048 221.528846 
L 467.18569 221.951561 
L 467.831331 220.012308 
L 469.768254 219.990861 
L 470.413895 219.81598 
L 471.059536 216.9237 
L 471.705177 215.643022 
L 472.350818 216.31863 
L 474.287741 216.003231 
L 474.933382 213.480244 
L 475.579023 215.291772 
L 476.224665 211.034645 
L 476.870306 209.771477 
L 478.807229 210.214154 
L 479.45287 210.762532 
L 480.098511 210.810174 
L 480.744152 212.858541 
L 481.389793 213.428475 
L 483.326716 212.928328 
L 483.972357 212.920527 
L 484.617998 212.678865 
L 485.909281 210.78676 
L 488.491845 210.571101 
L 489.137486 210.845259 
L 489.783127 210.878792 
L 490.428768 209.526628 
L 493.011332 209.224113 
L 493.656973 210.302727 
L 494.302615 209.466963 
L 494.948256 211.793749 
L 496.885179 211.684237 
L 497.53082 212.843893 
L 498.176461 214.481559 
L 498.822102 215.007753 
L 499.467743 215.26103 
L 501.404666 215.501279 
L 502.050307 215.158589 
L 502.695948 215.054318 
L 503.34159 214.251176 
L 503.987231 214.536033 
L 505.924154 214.441097 
L 506.569795 215.220505 
L 507.215436 214.620939 
L 508.506718 217.165631 
L 510.443641 217.395933 
L 511.089282 220.664422 
L 512.380565 221.173912 
L 513.026206 217.963371 
L 514.963129 218.802649 
L 515.60877 218.612788 
L 516.254411 217.861859 
L 516.900052 217.47709 
L 517.545693 219.772317 
L 520.128257 219.760848 
L 520.773899 220.606437 
L 521.41954 220.041421 
L 522.065181 217.277902 
L 524.647745 217.092551 
L 525.293386 216.533363 
L 525.939027 215.611078 
L 526.584668 215.239506 
L 528.521591 214.965373 
L 529.167232 215.403321 
L 531.104156 209.890805 
L 533.041079 210.147679 
L 533.68672 209.380529 
L 534.332361 210.976411 
L 535.623643 220.024139 
L 537.560566 220.683674 
L 538.206207 223.816461 
L 538.851849 212.652826 
L 539.49749 211.347835 
L 540.143131 215.843255 
L 542.080054 215.841845 
L 542.725695 220.84535 
L 543.371336 231.67032 
L 544.016977 210.234571 
L 544.662618 214.39933 
L 546.599541 212.588843 
L 547.245182 215.217128 
L 547.890824 205.873815 
L 549.182106 205.728067 
L 551.119029 204.068038 
L 551.76467 204.516477 
L 552.410311 204.083335 
L 553.055952 202.450446 
L 553.701593 204.261872 
L 555.638516 203.722524 
L 556.284157 203.018346 
L 556.929799 199.970792 
L 557.57544 198.396326 
L 558.221081 198.606162 
L 560.158004 199.053707 
L 560.803645 199.553406 
L 561.449286 197.4516 
L 562.094927 201.741146 
L 562.740568 190.347366 
L 564.677491 189.541373 
L 565.323132 186.859552 
L 566.614415 185.560059 
L 567.260056 185.769976 
L 569.196979 185.141702 
L 569.84262 192.893458 
L 571.133902 193.690117 
L 571.779543 187.342371 
L 573.716466 187.762868 
L 574.362107 180.794543 
L 575.007749 180.005352 
L 576.299031 180.02331 
L 578.881595 178.626471 
L 579.527236 179.101255 
L 580.172877 179.120354 
L 580.818518 182.955809 
L 583.401083 183.327401 
L 584.046724 183.573775 
L 584.692365 183.61268 
L 585.338006 183.960107 
L 587.274929 182.600751 
L 587.92057 179.174707 
L 588.566211 179.722461 
L 589.211852 178.27594 
L 589.857493 179.243444 
L 592.440058 178.461467 
L 593.085699 178.094306 
L 593.73134 178.544135 
L 594.376981 179.903698 
L 596.959545 180.214262 
L 597.605186 178.500751 
L 598.250827 177.53433 
L 598.896468 177.024248 
L 601.479033 177.249327 
L 602.124674 177.17942 
L 602.770315 176.71352 
L 603.415956 178.32935 
L 605.352879 178.351561 
L 605.99852 182.977639 
L 606.644161 179.990929 
L 607.289802 186.334125 
L 607.935443 177.187103 
L 609.872366 176.567776 
L 610.518008 175.429046 
L 611.163649 178.293667 
L 611.80929 178.356546 
L 612.454931 172.898727 
L 614.391854 173.635662 
L 615.037495 164.27378 
L 615.683136 161.166424 
L 616.328777 163.429084 
L 616.974418 156.831919 
L 618.911341 156.958839 
L 619.556983 157.267144 
L 620.202624 154.434722 
L 620.848265 154.083872 
L 621.493906 153.478266 
L 623.430829 152.212326 
L 624.07647 154.003584 
L 624.722111 149.577715 
L 625.367752 149.410946 
L 626.013393 144.934971 
L 627.950316 154.193037 
L 628.595958 156.064255 
L 629.241599 156.580009 
L 629.88724 151.128254 
L 630.532881 155.43389 
L 632.469804 155.091585 
L 633.115445 159.966364 
L 633.761086 132.258179 
L 634.406727 120.359108 
L 635.052368 120.680375 
L 636.989292 122.060758 
L 637.634933 122.088974 
L 638.280574 120.490858 
L 638.926215 120.888074 
L 641.508779 119.456584 
L 642.15442 118.790916 
L 642.800061 119.825887 
L 643.445702 122.466511 
L 644.091343 128.318786 
L 646.028267 128.509221 
L 646.673908 128.343456 
L 647.319549 127.601071 
L 647.96519 127.456539 
L 648.610831 127.773599 
L 651.193395 128.104517 
L 651.839036 127.975711 
L 652.484677 125.596634 
L 653.130318 126.559936 
L 655.067242 126.907173 
L 656.358524 133.3447 
L 657.004165 129.640312 
L 657.649806 131.778582 
L 659.586729 131.553877 
L 660.23237 132.216876 
L 660.878011 131.004228 
L 661.523652 131.147564 
L 665.397499 129.82974 
L 666.04314 128.363904 
L 666.688781 126.237853 
L 668.625704 127.075378 
L 669.271345 127.849555 
L 670.562627 127.059289 
L 671.208268 126.273749 
L 673.145192 126.178899 
L 673.790833 126.634859 
L 674.436474 126.009642 
L 675.082115 125.227798 
L 675.727756 124.206945 
L 677.664679 124.08625 
L 678.31032 123.711395 
L 678.955961 123.614178 
L 680.247243 124.071166 
L 682.829808 123.06127 
L 683.475449 124.421585 
L 684.12109 125.047806 
L 684.766731 123.969202 
L 687.349295 131.331961 
L 687.994936 129.094132 
L 688.640577 128.424442 
L 691.868783 128.601368 
L 692.514424 127.702318 
L 693.160065 127.831443 
L 693.805706 128.239483 
L 695.742629 128.236986 
L 696.38827 127.916148 
L 697.679552 129.458371 
L 698.325193 128.104898 
L 700.907758 128.636007 
L 702.844681 126.845287 
L 704.781604 126.532398 
L 706.072886 126.803739 
L 706.718527 125.733016 
L 707.364168 125.245779 
L 709.301092 125.472782 
L 709.946733 124.669152 
L 710.592374 124.252763 
L 711.238015 125.436918 
L 711.883656 126.252634 
L 713.820579 125.193764 
L 714.46622 125.544466 
L 715.111861 125.268457 
L 715.757502 125.911762 
L 716.403143 125.742696 
L 718.340067 125.765968 
L 718.985708 125.217835 
L 719.631349 124.131461 
L 720.27699 124.291377 
L 720.922631 121.804511 
L 722.859554 121.630301 
L 723.505195 120.649638 
L 724.150836 120.95514 
L 724.796477 120.77587 
L 725.442118 119.913863 
L 728.670324 119.429054 
L 729.315965 119.54428 
L 729.961606 118.93346 
L 731.898529 119.618162 
L 732.54417 119.998357 
L 733.189811 121.088972 
L 733.835452 120.741557 
L 734.481093 121.71848 
L 737.063658 121.355263 
L 737.709299 121.833344 
L 738.35494 121.929048 
L 739.000581 123.900996 
L 740.937504 123.78563 
L 741.583145 123.98755 
L 742.228786 123.510117 
L 742.874427 125.092832 
L 743.520068 122.971901 
L 745.456992 122.683549 
L 746.102633 124.066463 
L 746.748274 127.857485 
L 747.393915 129.766407 
L 748.039556 129.31425 
L 749.976479 129.624305 
L 750.62212 129.043151 
L 751.267761 129.551081 
L 751.913402 130.269114 
L 752.559043 127.247094 
L 755.141608 125.889402 
L 755.787249 127.691091 
L 756.43289 127.161834 
L 757.078531 123.314166 
L 759.661095 124.358795 
L 760.306736 122.878649 
L 760.952377 121.059809 
L 761.598018 120.228612 
L 764.826224 120.170075 
L 765.471865 120.390075 
L 766.117506 117.079335 
L 768.054429 117.095556 
L 768.70007 118.697546 
L 769.345711 115.098141 
L 769.991352 120.068252 
L 770.636993 117.025411 
L 772.573917 117.05862 
L 773.219558 117.533562 
L 774.51084 120.653099 
L 775.156481 122.575984 
L 777.093404 122.048016 
L 777.739045 122.057367 
L 778.384686 120.795107 
L 779.030327 124.084506 
L 779.675968 123.978883 
L 781.612892 123.991369 
L 782.258533 122.856907 
L 782.904174 124.996457 
L 784.195456 128.064111 
L 786.132379 127.588971 
L 786.77802 125.353928 
L 787.423661 124.921102 
L 788.069302 124.29589 
L 788.714943 123.156926 
L 790.651867 123.605767 
L 791.297508 123.087303 
L 791.943149 123.57711 
L 793.234431 121.225662 
L 795.171354 120.699804 
L 795.816995 119.140002 
L 796.462636 121.690573 
L 797.108277 119.996876 
L 797.753918 112.707077 
L 800.336483 112.339728 
L 802.273406 111.345086 
L 804.210329 110.986552 
L 804.85597 110.658564 
L 805.501611 113.002591 
L 806.792893 114.317413 
L 808.729817 114.317808 
L 809.375458 113.567922 
L 810.021099 113.466412 
L 811.312381 112.347733 
L 813.249304 111.71975 
L 813.894945 112.474465 
L 814.540586 113.034496 
L 815.186227 110.545844 
L 815.831869 111.629071 
L 818.414433 110.587912 
L 819.060074 109.609244 
L 819.705715 110.480826 
L 820.351356 108.679498 
L 822.288279 107.609045 
L 822.93392 105.993211 
L 823.579561 106.544454 
L 824.225202 105.943117 
L 824.870844 104.381883 
L 826.807767 104.240766 
L 827.453408 105.137005 
L 828.099049 108.473029 
L 828.74469 124.611012 
L 829.390331 78.547633 
L 831.327254 77.279293 
L 831.972895 77.002373 
L 832.618536 75.49498 
L 833.264177 76.266698 
L 833.909819 70.521233 
L 836.492383 71.320985 
L 837.138024 70.604568 
L 837.783665 69.697528 
L 838.429306 69.785169 
L 840.366229 68.305113 
L 841.01187 66.89017 
L 841.657511 65.018015 
L 842.303152 62.618161 
L 842.948794 62.245508 
L 844.885717 60.59762 
L 846.176999 55.854339 
L 847.468281 53.131338 
L 849.405204 52.444679 
L 850.050845 52.640683 
L 850.696486 52.658447 
L 851.342127 50.521191 
L 851.987769 51.051486 
L 853.924692 50.394129 
L 854.570333 49.188364 
L 855.215974 47.691831 
L 855.861615 46.890552 
L 856.507256 46.887141 
L 858.444179 45.895402 
L 859.08982 46.067383 
L 859.735461 44.297541 
L 860.381102 44.150544 
L 861.026744 48.870329 
L 862.963667 49.591765 
L 863.609308 41.679474 
L 863.609308 41.679474 
" clip-path="url(#pc2b185922a)" style="fill: none; stroke: #1f77b4; stroke-width: 2.8; stroke-linecap: square"/>
   </g>
   <g id="line2d_19">
    <path d="M 99.815919 382.032335 
L 100.46156 379.411786 
L 101.107202 383.315838 
L 101.752843 375.561249 
L 103.689766 375.757375 
L 104.335407 373.332953 
L 104.981048 368.929676 
L 106.27233 366.273573 
L 108.854894 366.924235 
L 109.500536 372.521804 
L 110.146177 375.062053 
L 110.791818 368.608814 
L 112.728741 364.37502 
L 113.374382 364.758221 
L 114.020023 364.624547 
L 114.665664 360.702704 
L 115.311305 359.873793 
L 117.248228 364.41063 
L 117.893869 359.160679 
L 118.539511 355.310142 
L 119.185152 349.979919 
L 119.830793 353.928605 
L 121.767716 356.174692 
L 122.413357 351.397152 
L 123.058998 355.443872 
L 123.704639 358.616963 
L 124.35028 357.770175 
L 126.287203 353.500742 
L 126.932844 353.670082 
L 127.578486 352.475676 
L 128.224127 357.556258 
L 128.869768 358.465413 
L 131.452332 365.747676 
L 132.097973 366.23785 
L 132.743614 364.348262 
L 133.389255 368.163161 
L 135.326178 366.959873 
L 136.617461 369.624914 
L 137.263102 366.888539 
L 137.908743 361.201816 
L 139.845666 360.952289 
L 140.491307 366.478581 
L 141.136948 365.89914 
L 141.782589 372.459465 
L 142.42823 377.495385 
L 144.365153 377.985672 
L 145.010794 372.307915 
L 145.656436 374.491635 
L 146.302077 368.403835 
L 146.947718 372.532161 
L 148.884641 369.176905 
L 149.530282 364.551057 
L 150.175923 370.635281 
L 150.821564 369.686884 
L 151.467205 367.378401 
L 153.404128 366.716333 
L 154.049769 367.51267 
L 154.695411 362.367876 
L 155.341052 360.265308 
L 155.986693 355.174227 
L 157.923616 353.778474 
L 158.569257 355.818504 
L 159.214898 356.775839 
L 159.860539 355.353187 
L 163.088744 354.878988 
L 163.734386 356.37323 
L 164.380027 351.523761 
L 165.025668 352.427411 
L 166.962591 351.10319 
L 167.608232 350.861636 
L 168.253873 350.924202 
L 168.899514 352.9463 
L 169.545155 352.660027 
L 171.482078 352.275322 
L 172.12772 358.135869 
L 172.773361 359.674801 
L 173.419002 352.472158 
L 174.064643 349.322675 
L 176.001566 349.698527 
L 176.647207 353.876849 
L 177.938489 358.985834 
L 178.58413 352.275322 
L 180.521053 352.17689 
L 181.166695 353.796407 
L 181.812336 352.078487 
L 182.457977 352.722678 
L 183.103618 353.205843 
L 185.040541 351.935251 
L 185.686182 354.404818 
L 186.331823 349.948991 
L 186.977464 346.370057 
L 187.623105 346.915845 
L 189.560028 346.7637 
L 190.20567 350.969034 
L 190.851311 353.653199 
L 191.496952 350.467937 
L 192.142593 345.663214 
L 194.725157 345.520063 
L 195.370798 347.604812 
L 196.016439 344.052635 
L 196.66208 338.594755 
L 198.599003 339.328554 
L 199.244645 338.496379 
L 199.890286 339.820572 
L 200.535927 337.512117 
L 201.181568 336.823235 
L 203.118491 333.333766 
L 203.764132 330.774762 
L 204.409773 330.309501 
L 205.055414 325.460089 
L 205.701055 326.808938 
L 208.28362 328.856573 
L 208.929261 330.868172 
L 209.574902 329.458231 
L 210.220543 332.421859 
L 212.157466 334.011412 
L 212.803107 329.763543 
L 213.448748 329.565998 
L 214.094389 328.021391 
L 214.74003 323.378376 
L 216.676953 322.920351 
L 217.968236 323.513099 
L 218.613877 326.629298 
L 219.259518 327.626188 
L 221.196441 326.629298 
L 221.842082 324.114757 
L 223.133364 317.738613 
L 223.779005 317.989985 
L 225.715929 316.589067 
L 226.36157 313.580551 
L 227.007211 312.673439 
L 227.652852 315.385723 
L 228.298493 315.385723 
L 230.235416 313.571556 
L 230.881057 312.457961 
L 231.526698 312.395083 
L 232.172339 315.107225 
L 232.81798 311.128831 
L 234.754904 310.347561 
L 235.400545 311.524006 
L 236.046186 317.226676 
L 236.691827 318.385132 
L 237.337468 320.208265 
L 239.274391 316.705801 
L 239.920032 318.465943 
L 240.565673 321.160181 
L 241.211314 321.016491 
L 241.856955 321.24993 
L 243.793879 319.040787 
L 244.43952 323.728605 
L 245.730802 329.655804 
L 246.376443 329.467226 
L 248.313366 326.916762 
L 248.959007 327.98544 
L 249.604648 323.602877 
L 250.250289 329.116968 
L 250.89593 326.35097 
L 252.832854 323.845339 
L 253.478495 318.097752 
L 254.124136 316.436355 
L 254.769777 317.029074 
L 255.415418 316.274704 
L 257.997982 318.025936 
L 258.643623 320.738078 
L 259.289264 321.968435 
L 259.934905 321.366721 
L 261.871829 318.735418 
L 262.51747 320.944618 
L 263.163111 320.477655 
L 263.808752 317.020108 
L 264.454393 321.893072 
L 266.391316 321.658753 
L 267.036957 322.487863 
L 267.682598 326.155837 
L 268.328239 332.689745 
L 268.97388 333.563942 
L 270.910804 331.932707 
L 271.556445 337.655494 
L 272.202086 337.50227 
L 272.847727 335.276301 
L 273.493368 336.213547 
L 275.430291 336.366742 
L 276.075932 341.521751 
L 276.721573 338.755015 
L 277.367214 338.899272 
L 278.012855 334.357044 
L 279.949779 331.878624 
L 280.59542 329.850909 
L 281.241061 328.246658 
L 281.886702 330.643983 
L 282.532343 332.590603 
L 284.469266 328.499051 
L 285.114907 328.517069 
L 285.760548 333.75323 
L 286.406189 337.159873 
L 287.05183 341.88228 
L 288.988754 342.540148 
L 289.634395 339.683238 
L 290.280036 345.162769 
L 290.925677 349.668932 
L 291.571318 351.354222 
L 293.508241 346.929124 
L 294.153882 344.576972 
L 294.799523 340.557435 
L 295.445164 333.257495 
L 296.090805 329.715703 
L 298.027729 328.814493 
L 298.67337 327.696926 
L 299.319011 327.408582 
L 299.964652 330.481765 
L 300.610293 324.380458 
L 302.547216 324.758977 
L 303.192857 317.062471 
L 303.838498 316.206321 
L 305.12978 315.205941 
L 307.066704 312.078676 
L 307.712345 312.970863 
L 308.357986 311.393766 
L 309.649268 311.141401 
L 311.586191 311.880422 
L 312.231832 311.474833 
L 312.877473 311.763262 
L 313.523114 310.150073 
L 314.168755 307.716713 
L 316.105679 309.88877 
L 316.75132 309.969809 
L 317.396961 311.628028 
L 318.042602 308.500792 
L 318.688243 306.725384 
L 320.625166 305.112224 
L 321.270807 303.210634 
L 321.916448 297.442731 
L 322.562089 296.081878 
L 323.20773 296.78228 
L 325.144654 294.393411 
L 325.790295 291.796413 
L 326.435936 297.750512 
L 327.081577 293.732819 
L 327.727218 292.873263 
L 330.309782 291.063466 
L 330.955423 290.285203 
L 331.601064 290.122361 
L 332.246705 291.371048 
L 334.82927 293.778105 
L 335.474911 297.270922 
L 336.120552 298.637279 
L 336.766193 298.05815 
L 338.703116 292.013594 
L 339.348757 292.665078 
L 339.994398 290.240002 
L 340.640039 290.429971 
L 341.28568 290.131384 
L 343.868245 291.714978 
L 344.513886 294.103847 
L 345.159527 290.303306 
L 345.805168 284.928365 
L 347.742091 284.005335 
L 348.387732 282.729465 
L 349.033373 282.249875 
L 349.679014 279.860977 
L 350.324655 280.422031 
L 352.261579 276.929186 
L 352.90722 277.273031 
L 353.552861 284.521159 
L 354.198502 278.802259 
L 354.844143 274.142162 
L 356.781066 275.770901 
L 357.426707 274.476928 
L 358.072348 270.748799 
L 358.717989 270.54975 
L 359.36363 267.943729 
L 361.300554 268.142778 
L 361.946195 274.386526 
L 362.591836 270.323575 
L 363.237477 267.210753 
L 363.883118 269.472957 
L 366.465682 271.961337 
L 367.111323 271.554216 
L 367.756964 262.242961 
L 368.402605 261.92627 
L 370.339529 263.609318 
L 370.98517 262.758757 
L 371.630811 263.364983 
L 372.276452 261.718142 
L 372.922093 257.40189 
L 374.859016 257.899526 
L 375.504657 262.532497 
L 376.150298 260.20696 
L 376.795939 255.628242 
L 377.44158 258.424345 
L 379.378504 258.822528 
L 380.024145 253.845571 
L 380.669786 254.57866 
L 381.315427 255.501606 
L 381.961068 258.701169 
L 383.897991 255.950891 
L 384.543632 253.363966 
L 385.189273 249.034265 
L 385.834914 247.473059 
L 386.480555 248.371658 
L 388.417479 249.678712 
L 389.06312 250.550157 
L 389.708761 246.592505 
L 390.354402 246.683361 
L 392.936966 247.509435 
L 393.582607 250.522861 
L 394.228248 250.005589 
L 394.873889 255.760241 
L 395.51953 250.894967 
L 397.456454 250.63182 
L 398.102095 250.087138 
L 398.747736 254.807162 
L 399.393377 251.285403 
L 400.039018 257.77533 
L 401.975941 263.584575 
L 402.621582 264.419644 
L 403.267223 267.124579 
L 403.912864 268.059498 
L 404.558506 272.017093 
L 406.495429 267.877957 
L 407.14107 262.495326 
L 407.786711 262.713215 
L 408.432352 264.455963 
L 409.077993 260.126262 
L 411.014916 258.492445 
L 411.660557 265.826577 
L 412.306198 267.306121 
L 412.951839 263.058139 
L 413.597481 257.375956 
L 415.534404 252.583321 
L 416.180045 252.065936 
L 416.825686 252.020593 
L 417.471327 249.315657 
L 418.116968 248.707416 
L 420.053891 248.643971 
L 420.699532 246.47458 
L 421.345173 240.592696 
L 421.990814 241.582123 
L 422.636456 240.892219 
L 424.573379 240.338628 
L 425.21902 239.158693 
L 425.864661 240.547353 
L 426.510302 244.060088 
L 427.155943 240.901299 
L 429.738507 240.565569 
L 431.029789 247.100952 
L 431.675431 242.780274 
L 433.612354 242.389951 
L 434.257995 241.854407 
L 434.903636 236.154149 
L 435.549277 236.163115 
L 436.194918 236.753196 
L 438.131841 235.255407 
L 438.777482 234.084609 
L 439.423123 230.081671 
L 440.068764 229.092244 
L 440.714406 228.792664 
L 443.29697 223.609848 
L 445.233893 225.627916 
L 447.170816 227.239657 
L 447.816457 225.336507 
L 448.462098 224.717314 
L 449.107739 223.934171 
L 449.753381 225.892028 
L 451.690304 224.872069 
L 452.335945 221.530036 
L 452.981586 219.298987 
L 454.272868 216.403288 
L 456.209791 215.820528 
L 456.855432 215.328737 
L 457.501073 210.320369 
L 458.146715 214.727874 
L 458.792356 211.53146 
L 460.729279 210.129123 
L 461.37492 207.096715 
L 462.020561 214.308836 
L 463.311843 221.548253 
L 465.248766 216.394209 
L 465.894407 217.186374 
L 466.540048 228.614754 
L 467.18569 231.182725 
L 467.831331 225.691645 
L 469.768254 225.400237 
L 470.413895 227.913614 
L 471.059536 219.890941 
L 471.705177 226.993819 
L 472.350818 236.200229 
L 474.287741 250.333062 
L 474.933382 245.989372 
L 475.579023 249.167484 
L 476.224665 238.249169 
L 476.870306 236.118283 
L 478.807229 235.863194 
L 479.45287 227.877238 
L 480.098511 226.319975 
L 480.744152 217.832978 
L 481.389793 216.703777 
L 483.326716 211.877631 
L 483.972357 212.706174 
L 484.617998 210.957779 
L 485.26364 214.964576 
L 485.909281 209.582739 
L 487.846204 210.802966 
L 488.491845 210.101827 
L 489.137486 213.070392 
L 489.783127 213.025049 
L 490.428768 208.171323 
L 493.011332 218.7345 
L 494.302615 220.983766 
L 494.948256 229.407033 
L 497.53082 221.730475 
L 498.822102 212.351092 
L 499.467743 209.692039 
L 502.050307 208.72673 
L 502.695948 210.247503 
L 503.34159 201.523746 
L 503.987231 202.422601 
L 505.924154 201.125535 
L 506.569795 199.636656 
L 507.215436 200.787592 
L 507.861077 198.723216 
L 508.506718 199.481446 
L 510.443641 197.389661 
L 511.089282 202.084601 
L 511.734923 201.865378 
L 512.380565 202.815364 
L 513.026206 198.10215 
L 514.963129 202.833638 
L 515.60877 197.92861 
L 516.254411 194.302319 
L 516.900052 195.224782 
L 517.545693 192.07354 
L 519.482616 187.743952 
L 520.128257 191.890863 
L 520.773899 189.589048 
L 521.41954 189.543478 
L 522.065181 187.497319 
L 524.647745 188.657392 
L 525.293386 193.525986 
L 525.939027 192.38413 
L 526.584668 192.566863 
L 528.521591 190.931797 
L 529.167232 190.073178 
L 529.812874 191.68072 
L 530.458515 202.066328 
L 531.104156 199.874153 
L 533.041079 200.997622 
L 533.68672 194.704275 
L 534.332361 181.605929 
L 534.978002 177.431551 
L 535.623643 175.074916 
L 537.560566 174.554239 
L 538.206207 176.253205 
L 538.851849 175.988412 
L 539.49749 179.49587 
L 540.143131 186.43775 
L 542.080054 184.245574 
L 542.725695 182.281815 
L 543.371336 182.099195 
L 544.016977 179.20361 
L 544.662618 177.522918 
L 546.599541 175.677765 
L 547.245182 172.827977 
L 547.890824 174.490339 
L 549.182106 171.092408 
L 551.76467 169.850275 
L 552.410311 166.424877 
L 553.055952 167.338373 
L 553.701593 166.287827 
L 555.638516 169.146865 
L 556.284157 170.864048 
L 556.929799 166.607497 
L 557.57544 169.466535 
L 558.221081 169.576175 
L 560.158004 167.21954 
L 560.803645 169.503139 
L 561.449286 185.953733 
L 562.094927 186.118137 
L 562.740568 179.688024 
L 564.677491 176.443713 
L 565.323132 170.385706 
L 566.614415 170.34899 
L 567.260056 176.150375 
L 569.84262 184.334614 
L 571.133902 185.65438 
L 571.779543 178.954877 
L 573.716466 175.829627 
L 574.362107 181.997614 
L 575.007749 181.209364 
L 576.299031 189.457843 
L 578.235954 188.632933 
L 578.881595 187.899786 
L 579.527236 178.194151 
L 580.172877 179.238965 
L 580.818518 173.794931 
L 583.401083 168.781853 
L 584.692365 162.641389 
L 585.338006 164.27271 
L 587.274929 172.154474 
L 587.92057 167.434564 
L 588.566211 169.918318 
L 589.211852 166.958095 
L 589.857493 169.909068 
L 591.794416 173.620881 
L 592.440058 169.945728 
L 593.73134 165.784913 
L 594.376981 170.871312 
L 596.313904 167.132146 
L 596.959545 166.71061 
L 597.605186 168.497651 
L 598.250827 162.659719 
L 598.896468 162.687186 
L 601.479033 161.046672 
L 602.124674 159.726907 
L 602.770315 162.063907 
L 603.415956 171.632095 
L 605.352879 174.134123 
L 605.99852 176.856111 
L 606.644161 176.581217 
L 607.289802 185.278698 
L 607.935443 176.911045 
L 609.872366 186.45171 
L 610.518008 192.784668 
L 611.163649 187.102456 
L 611.80929 196.588074 
L 612.454931 193.646181 
L 615.037495 211.976035 
L 615.683136 209.27232 
L 616.328777 216.100133 
L 616.974418 205.661294 
L 618.911341 201.68378 
L 619.556983 207.301808 
L 620.202624 201.70211 
L 620.848265 203.205063 
L 621.493906 203.03419 
L 623.430829 193.749692 
L 624.07647 192.481228 
L 624.722111 198.796423 
L 625.367752 200.184459 
L 626.013393 210.68226 
L 627.950316 207.253457 
L 628.595958 205.801068 
L 629.241599 202.537746 
L 630.532881 256.993861 
L 632.469804 257.821155 
L 633.115445 265.083215 
L 633.761086 217.153744 
L 634.406727 239.252443 
L 635.052368 230.648371 
L 636.989292 225.886637 
L 637.634933 227.274672 
L 638.280574 238.259725 
L 638.926215 237.570218 
L 641.508779 249.088319 
L 642.15442 236.798028 
L 642.800061 229.287803 
L 643.445702 218.927846 
L 644.091343 215.296901 
L 646.028267 215.103896 
L 646.673908 211.914064 
L 647.319549 211.711866 
L 647.96519 208.099251 
L 648.610831 200.478648 
L 650.547754 203.466167 
L 651.193395 207.795925 
L 651.839036 205.635586 
L 652.484677 202.041358 
L 653.130318 202.703171 
L 655.067242 185.559268 
L 655.712883 182.020143 
L 656.358524 181.330751 
L 657.004165 178.692524 
L 657.649806 175.254528 
L 659.586729 174.657069 
L 660.23237 176.495525 
L 660.878011 185.678782 
L 661.523652 185.467334 
L 662.169293 189.126029 
L 664.751858 178.058236 
L 665.397499 181.2021 
L 666.04314 179.069398 
L 666.688781 179.676163 
L 668.625704 176.624176 
L 669.271345 173.517199 
L 669.916986 173.664237 
L 670.562627 176.311714 
L 671.208268 170.713491 
L 673.145192 170.217104 
L 673.790833 167.091626 
L 674.436474 168.67278 
L 675.082115 166.475781 
L 675.727756 172.680599 
L 677.664679 167.459363 
L 678.31032 172.193404 
L 678.955961 172.276202 
L 680.247243 173.565947 
L 682.184167 168.154147 
L 682.829808 162.041491 
L 683.475449 161.728063 
L 684.12109 157.34865 
L 684.766731 154.545906 
L 686.703654 151.835381 
L 687.349295 152.019704 
L 687.994936 149.438227 
L 688.640577 144.929765 
L 691.223142 149.226211 
L 691.868783 149.539638 
L 692.514424 146.109983 
L 693.160065 144.487346 
L 693.805706 146.515629 
L 695.742629 145.418491 
L 696.38827 147.880113 
L 697.033911 145.962492 
L 697.679552 142.440562 
L 698.325193 142.864651 
L 700.262117 141.767514 
L 700.907758 141.684546 
L 701.553399 136.752052 
L 702.19904 136.558423 
L 702.844681 134.087607 
L 704.781604 134.235042 
L 705.427245 135.783962 
L 706.072886 136.521535 
L 706.718527 138.715811 
L 707.364168 148.267372 
L 709.301092 139.554852 
L 709.946733 142.505087 
L 710.592374 138.070399 
L 711.238015 138.559069 
L 711.883656 134.013776 
L 713.820579 135.175495 
L 714.46622 128.93379 
L 715.111861 126.90545 
L 715.757502 126.85012 
L 716.403143 128.242298 
L 718.340067 128.371346 
L 718.985708 131.589041 
L 719.631349 133.156405 
L 720.27699 135.516616 
L 720.922631 126.518249 
L 722.859554 129.136669 
L 723.505195 126.656547 
L 724.150836 125.301256 
L 724.796477 123.189949 
L 725.442118 126.757958 
L 728.024683 131.164952 
L 728.670324 127.965758 
L 729.315965 123.005513 
L 729.961606 124.738926 
L 731.898529 123.27286 
L 732.54417 121.889988 
L 733.189811 120.156689 
L 733.835452 115.159671 
L 734.481093 115.36255 
L 736.418017 112.135605 
L 737.709299 113.730606 
L 739.000581 107.866853 
L 740.937504 104.96389 
L 741.583145 108.319827 
L 742.228786 110.270647 
L 742.874427 113.090415 
L 743.520068 109.604919 
L 745.456992 107.885353 
L 746.748274 103.475351 
L 747.393915 102.763599 
L 748.039556 102.772736 
L 749.976479 100.553945 
L 750.62212 102.855987 
L 751.267761 99.167158 
L 751.913402 100.969975 
L 752.559043 117.740751 
L 754.495967 108.47708 
L 755.141608 109.225946 
L 755.787249 106.507816 
L 756.43289 110.695871 
L 757.078531 107.228932 
L 759.015454 100.84053 
L 759.661095 100.849837 
L 760.306736 104.076328 
L 760.952377 100.415249 
L 761.598018 95.339633 
L 763.534942 87.952724 
L 764.180583 86.270102 
L 764.826224 85.965017 
L 765.471865 92.954396 
L 766.117506 90.892687 
L 768.054429 89.709291 
L 768.70007 97.197895 
L 769.345711 95.034548 
L 769.991352 101.755785 
L 770.636993 101.145672 
L 772.573917 91.465857 
L 773.219558 90.023683 
L 773.865199 89.672347 
L 774.51084 100.156415 
L 775.156481 100.258053 
L 777.093404 106.045592 
L 777.739045 111.213596 
L 778.384686 108.856053 
L 779.030327 118.193725 
L 779.675968 112.184353 
L 781.612892 103.216574 
L 782.258533 97.401341 
L 782.904174 93.093035 
L 784.195456 89.663096 
L 786.132379 92.547559 
L 786.77802 91.382662 
L 787.423661 89.200815 
L 788.069302 88.738591 
L 788.714943 87.536694 
L 791.297508 89.986739 
L 791.943149 85.798571 
L 792.58879 84.319396 
L 793.234431 91.170079 
L 795.171354 92.122335 
L 795.816995 93.841901 
L 796.462636 100.748085 
L 797.108277 96.060805 
L 797.753918 90.392441 
L 799.690842 86.460894 
L 800.336483 83.558612 
L 800.982124 81.314681 
L 802.273406 81.379603 
L 804.85597 84.439478 
L 805.501611 89.159218 
L 806.792893 88.000167 
L 808.729817 83.781184 
L 809.375458 79.98873 
L 810.021099 82.056454 
L 810.66674 82.121375 
L 811.312381 77.893142 
L 813.249304 76.882434 
L 813.894945 78.171271 
L 814.540586 81.333238 
L 815.186227 79.590008 
L 815.831869 80.127823 
L 818.414433 93.183493 
L 819.060074 85.932386 
L 819.705715 82.612825 
L 820.351356 82.381061 
L 822.288279 79.135672 
L 822.93392 76.57644 
L 823.579561 76.641362 
L 824.225202 77.920949 
L 824.870844 79.840387 
L 826.807767 76.650612 
L 827.453408 82.102818 
L 828.099049 85.199864 
L 828.74469 93.146379 
L 829.390331 81.092166 
L 831.327254 78.004371 
L 831.972895 79.701294 
L 832.618536 79.84958 
L 833.264177 89.761897 
L 833.909819 89.316868 
L 836.492383 88.29691 
L 837.138024 85.107135 
L 837.783665 86.785501 
L 838.429306 82.195547 
L 840.366229 88.723382 
L 841.657511 78.746143 
L 842.948794 85.385321 
L 844.885717 85.023657 
L 845.531358 90.633512 
L 846.176999 86.182765 
L 846.82264 89.72484 
L 847.468281 98.005213 
L 849.405204 92.543643 
L 850.050845 93.554408 
L 850.696486 94.342545 
L 851.342127 103.865447 
L 851.987769 107.361158 
L 853.924692 101.111452 
L 854.570333 99.479564 
L 855.215974 108.158602 
L 855.861615 109.67001 
L 856.507256 118.440642 
L 858.444179 112.108819 
L 859.08982 114.154354 
L 859.735461 110.769929 
L 861.026744 131.903887 
L 862.963667 133.87508 
L 863.609308 116.794907 
L 863.609308 116.794907 
" clip-path="url(#pc2b185922a)" style="fill: none; stroke-dasharray: 8.14,3.52; stroke-dashoffset: 0; stroke: #ff7f0e; stroke-width: 2.2"/>
   </g>
   <g id="patch_3">
    <path d="M 61.62625 400.397656 
L 61.62625 24.597656 
" style="fill: none; stroke: #000000; stroke-width: 0.8; stroke-linejoin: miter; stroke-linecap: square"/>
   </g>
   <g id="patch_4">
    <path d="M 61.62625 400.397656 
L 901.798977 400.397656 
" style="fill: none; stroke: #000000; stroke-width: 0.8; stroke-linejoin: miter; stroke-linecap: square"/>
   </g>
   <g id="text_19">
    <!-- $20,027 -->
    <g style="fill: #1f77b4" transform="translate(871.609308 44.438849) scale(0.1 -0.1)">
     <defs>
      <path id="DejaVuSans-Bold-24" d="M 2484 -941 
L 1978 -941 
L 1975 0 
Q 1584 16 1218 87 
Q 853 159 506 288 
L 506 1106 
Q 866 922 1233 823 
Q 1600 725 1978 713 
L 1978 1684 
L 1875 1703 
Q 1128 1834 814 2115 
Q 500 2397 500 2925 
Q 500 3484 883 3798 
Q 1266 4113 1975 4141 
L 1978 4863 
L 2484 4863 
L 2484 4153 
Q 2797 4128 3109 4075 
Q 3422 4022 3738 3938 
L 3738 3144 
Q 3425 3275 3112 3348 
Q 2800 3422 2484 3438 
L 2484 2541 
L 2584 2522 
Q 3378 2397 3698 2105 
Q 4019 1813 4019 1241 
Q 4019 666 3637 358 
Q 3256 50 2484 6 
L 2484 -941 
z
M 1978 2613 
L 1978 3428 
Q 1756 3416 1623 3308 
Q 1491 3200 1491 3034 
Q 1491 2850 1612 2745 
Q 1734 2641 1978 2613 
z
M 2484 1594 
L 2484 725 
Q 2756 728 2892 831 
Q 3028 934 3028 1141 
Q 3028 1353 2903 1458 
Q 2778 1563 2484 1594 
z
" transform="scale(0.015625)"/>
      <path id="DejaVuSans-Bold-32" d="M 1844 884 
L 3897 884 
L 3897 0 
L 506 0 
L 506 884 
L 2209 2388 
Q 2438 2594 2547 2791 
Q 2656 2988 2656 3200 
Q 2656 3528 2436 3728 
Q 2216 3928 1850 3928 
Q 1569 3928 1234 3808 
Q 900 3688 519 3450 
L 519 4475 
Q 925 4609 1322 4679 
Q 1719 4750 2100 4750 
Q 2938 4750 3402 4381 
Q 3866 4013 3866 3353 
Q 3866 2972 3669 2642 
Q 3472 2313 2841 1759 
L 1844 884 
z
" transform="scale(0.015625)"/>
      <path id="DejaVuSans-Bold-30" d="M 2944 2338 
Q 2944 3213 2780 3570 
Q 2616 3928 2228 3928 
Q 1841 3928 1675 3570 
Q 1509 3213 1509 2338 
Q 1509 1453 1675 1090 
Q 1841 728 2228 728 
Q 2613 728 2778 1090 
Q 2944 1453 2944 2338 
z
M 4147 2328 
Q 4147 1169 3647 539 
Q 3147 -91 2228 -91 
Q 1306 -91 806 539 
Q 306 1169 306 2328 
Q 306 3491 806 4120 
Q 1306 4750 2228 4750 
Q 3147 4750 3647 4120 
Q 4147 3491 4147 2328 
z
" transform="scale(0.015625)"/>
      <path id="DejaVuSans-Bold-2c" d="M 653 1209 
L 1778 1209 
L 1778 256 
L 1006 -909 
L 341 -909 
L 653 256 
L 653 1209 
z
" transform="scale(0.015625)"/>
      <path id="DejaVuSans-Bold-37" d="M 428 4666 
L 3944 4666 
L 3944 3988 
L 2125 0 
L 953 0 
L 2675 3781 
L 428 3781 
L 428 4666 
z
" transform="scale(0.015625)"/>
     </defs>
     <use xlink:href="#DejaVuSans-Bold-24"/>
     <use xlink:href="#DejaVuSans-Bold-32" transform="translate(69.580078 0)"/>
     <use xlink:href="#DejaVuSans-Bold-30" transform="translate(139.160156 0)"/>
     <use xlink:href="#DejaVuSans-Bold-2c" transform="translate(208.740234 0)"/>
     <use xlink:href="#DejaVuSans-Bold-30" transform="translate(246.728516 0)"/>
     <use xlink:href="#DejaVuSans-Bold-32" transform="translate(316.308594 0)"/>
     <use xlink:href="#DejaVuSans-Bold-37" transform="translate(385.888672 0)"/>
    </g>
   </g>
   <g id="text_20">
    <!-- $17,814 -->
    <g style="fill: #ff7f0e" transform="translate(871.609308 127.554282) scale(0.1 -0.1)">
     <defs>
      <path id="DejaVuSans-Bold-31" d="M 750 831 
L 1813 831 
L 1813 3847 
L 722 3622 
L 722 4441 
L 1806 4666 
L 2950 4666 
L 2950 831 
L 4013 831 
L 4013 0 
L 750 0 
L 750 831 
z
" transform="scale(0.015625)"/>
      <path id="DejaVuSans-Bold-38" d="M 2228 2088 
Q 1891 2088 1709 1903 
Q 1528 1719 1528 1375 
Q 1528 1031 1709 848 
Q 1891 666 2228 666 
Q 2563 666 2741 848 
Q 2919 1031 2919 1375 
Q 2919 1722 2741 1905 
Q 2563 2088 2228 2088 
z
M 1350 2484 
Q 925 2613 709 2878 
Q 494 3144 494 3541 
Q 494 4131 934 4440 
Q 1375 4750 2228 4750 
Q 3075 4750 3515 4442 
Q 3956 4134 3956 3541 
Q 3956 3144 3739 2878 
Q 3522 2613 3097 2484 
Q 3572 2353 3814 2058 
Q 4056 1763 4056 1313 
Q 4056 619 3595 264 
Q 3134 -91 2228 -91 
Q 1319 -91 855 264 
Q 391 619 391 1313 
Q 391 1763 633 2058 
Q 875 2353 1350 2484 
z
M 1631 3419 
Q 1631 3141 1786 2991 
Q 1941 2841 2228 2841 
Q 2509 2841 2662 2991 
Q 2816 3141 2816 3419 
Q 2816 3697 2662 3845 
Q 2509 3994 2228 3994 
Q 1941 3994 1786 3844 
Q 1631 3694 1631 3419 
z
" transform="scale(0.015625)"/>
      <path id="DejaVuSans-Bold-34" d="M 2356 3675 
L 1038 1722 
L 2356 1722 
L 2356 3675 
z
M 2156 4666 
L 3494 4666 
L 3494 1722 
L 4159 1722 
L 4159 850 
L 3494 850 
L 3494 0 
L 2356 0 
L 2356 850 
L 288 850 
L 288 1881 
L 2156 4666 
z
" transform="scale(0.015625)"/>
     </defs>
     <use xlink:href="#DejaVuSans-Bold-24"/>
     <use xlink:href="#DejaVuSans-Bold-31" transform="translate(69.580078 0)"/>
     <use xlink:href="#DejaVuSans-Bold-37" transform="translate(139.160156 0)"/>
     <use xlink:href="#DejaVuSans-Bold-2c" transform="translate(208.740234 0)"/>
     <use xlink:href="#DejaVuSans-Bold-38" transform="translate(246.728516 0)"/>
     <use xlink:href="#DejaVuSans-Bold-31" transform="translate(316.308594 0)"/>
     <use xlink:href="#DejaVuSans-Bold-34" transform="translate(385.888672 0)"/>
    </g>
   </g>
   <g id="text_21">
    <!-- Backtested Cumulative Performance (Normalized to $10,000) -->
    <g transform="translate(250.548551 18.597656) scale(0.15 -0.15)">
     <defs>
      <path id="DejaVuSans-42" d="M 1259 2228 
L 1259 519 
L 2272 519 
Q 2781 519 3026 730 
Q 3272 941 3272 1375 
Q 3272 1813 3026 2020 
Q 2781 2228 2272 2228 
L 1259 2228 
z
M 1259 4147 
L 1259 2741 
L 2194 2741 
Q 2656 2741 2882 2914 
Q 3109 3088 3109 3444 
Q 3109 3797 2882 3972 
Q 2656 4147 2194 4147 
L 1259 4147 
z
M 628 4666 
L 2241 4666 
Q 2963 4666 3353 4366 
Q 3744 4066 3744 3513 
Q 3744 3084 3544 2831 
Q 3344 2578 2956 2516 
Q 3422 2416 3680 2098 
Q 3938 1781 3938 1306 
Q 3938 681 3513 340 
Q 3088 0 2303 0 
L 628 0 
L 628 4666 
z
" transform="scale(0.015625)"/>
      <path id="DejaVuSans-61" d="M 2194 1759 
Q 1497 1759 1228 1600 
Q 959 1441 959 1056 
Q 959 750 1161 570 
Q 1363 391 1709 391 
Q 2188 391 2477 730 
Q 2766 1069 2766 1631 
L 2766 1759 
L 2194 1759 
z
M 3341 1997 
L 3341 0 
L 2766 0 
L 2766 531 
Q 2569 213 2275 61 
Q 1981 -91 1556 -91 
Q 1019 -91 701 211 
Q 384 513 384 1019 
Q 384 1609 779 1909 
Q 1175 2209 1959 2209 
L 2766 2209 
L 2766 2266 
Q 2766 2663 2505 2880 
Q 2244 3097 1772 3097 
Q 1472 3097 1187 3025 
Q 903 2953 641 2809 
L 641 3341 
Q 956 3463 1253 3523 
Q 1550 3584 1831 3584 
Q 2591 3584 2966 3190 
Q 3341 2797 3341 1997 
z
" transform="scale(0.015625)"/>
      <path id="DejaVuSans-63" d="M 3122 3366 
L 3122 2828 
Q 2878 2963 2633 3030 
Q 2388 3097 2138 3097 
Q 1578 3097 1268 2742 
Q 959 2388 959 1747 
Q 959 1106 1268 751 
Q 1578 397 2138 397 
Q 2388 397 2633 464 
Q 2878 531 3122 666 
L 3122 134 
Q 2881 22 2623 -34 
Q 2366 -91 2075 -91 
Q 1284 -91 818 406 
Q 353 903 353 1747 
Q 353 2603 823 3093 
Q 1294 3584 2113 3584 
Q 2378 3584 2631 3529 
Q 2884 3475 3122 3366 
z
" transform="scale(0.015625)"/>
      <path id="DejaVuSans-6b" d="M 581 4863 
L 1159 4863 
L 1159 1991 
L 2875 3500 
L 3609 3500 
L 1753 1863 
L 3688 0 
L 2938 0 
L 1159 1709 
L 1159 0 
L 581 0 
L 581 4863 
z
" transform="scale(0.015625)"/>
      <path id="DejaVuSans-65" d="M 3597 1894 
L 3597 1613 
L 953 1613 
Q 991 1019 1311 708 
Q 1631 397 2203 397 
Q 2534 397 2845 478 
Q 3156 559 3463 722 
L 3463 178 
Q 3153 47 2828 -22 
Q 2503 -91 2169 -91 
Q 1331 -91 842 396 
Q 353 884 353 1716 
Q 353 2575 817 3079 
Q 1281 3584 2069 3584 
Q 2775 3584 3186 3129 
Q 3597 2675 3597 1894 
z
M 3022 2063 
Q 3016 2534 2758 2815 
Q 2500 3097 2075 3097 
Q 1594 3097 1305 2825 
Q 1016 2553 972 2059 
L 3022 2063 
z
" transform="scale(0.015625)"/>
      <path id="DejaVuSans-73" d="M 2834 3397 
L 2834 2853 
Q 2591 2978 2328 3040 
Q 2066 3103 1784 3103 
Q 1356 3103 1142 2972 
Q 928 2841 928 2578 
Q 928 2378 1081 2264 
Q 1234 2150 1697 2047 
L 1894 2003 
Q 2506 1872 2764 1633 
Q 3022 1394 3022 966 
Q 3022 478 2636 193 
Q 2250 -91 1575 -91 
Q 1294 -91 989 -36 
Q 684 19 347 128 
L 347 722 
Q 666 556 975 473 
Q 1284 391 1588 391 
Q 1994 391 2212 530 
Q 2431 669 2431 922 
Q 2431 1156 2273 1281 
Q 2116 1406 1581 1522 
L 1381 1569 
Q 847 1681 609 1914 
Q 372 2147 372 2553 
Q 372 3047 722 3315 
Q 1072 3584 1716 3584 
Q 2034 3584 2315 3537 
Q 2597 3491 2834 3397 
z
" transform="scale(0.015625)"/>
      <path id="DejaVuSans-64" d="M 2906 2969 
L 2906 4863 
L 3481 4863 
L 3481 0 
L 2906 0 
L 2906 525 
Q 2725 213 2448 61 
Q 2172 -91 1784 -91 
Q 1150 -91 751 415 
Q 353 922 353 1747 
Q 353 2572 751 3078 
Q 1150 3584 1784 3584 
Q 2172 3584 2448 3432 
Q 2725 3281 2906 2969 
z
M 947 1747 
Q 947 1113 1208 752 
Q 1469 391 1925 391 
Q 2381 391 2643 752 
Q 2906 1113 2906 1747 
Q 2906 2381 2643 2742 
Q 2381 3103 1925 3103 
Q 1469 3103 1208 2742 
Q 947 2381 947 1747 
z
" transform="scale(0.015625)"/>
      <path id="DejaVuSans-43" d="M 4122 4306 
L 4122 3641 
Q 3803 3938 3442 4084 
Q 3081 4231 2675 4231 
Q 1875 4231 1450 3742 
Q 1025 3253 1025 2328 
Q 1025 1406 1450 917 
Q 1875 428 2675 428 
Q 3081 428 3442 575 
Q 3803 722 4122 1019 
L 4122 359 
Q 3791 134 3420 21 
Q 3050 -91 2638 -91 
Q 1578 -91 968 557 
Q 359 1206 359 2328 
Q 359 3453 968 4101 
Q 1578 4750 2638 4750 
Q 3056 4750 3426 4639 
Q 3797 4528 4122 4306 
z
" transform="scale(0.015625)"/>
      <path id="DejaVuSans-75" d="M 544 1381 
L 544 3500 
L 1119 3500 
L 1119 1403 
Q 1119 906 1312 657 
Q 1506 409 1894 409 
Q 2359 409 2629 706 
Q 2900 1003 2900 1516 
L 2900 3500 
L 3475 3500 
L 3475 0 
L 2900 0 
L 2900 538 
Q 2691 219 2414 64 
Q 2138 -91 1772 -91 
Q 1169 -91 856 284 
Q 544 659 544 1381 
z
M 1991 3584 
L 1991 3584 
z
" transform="scale(0.015625)"/>
      <path id="DejaVuSans-6d" d="M 3328 2828 
Q 3544 3216 3844 3400 
Q 4144 3584 4550 3584 
Q 5097 3584 5394 3201 
Q 5691 2819 5691 2113 
L 5691 0 
L 5113 0 
L 5113 2094 
Q 5113 2597 4934 2840 
Q 4756 3084 4391 3084 
Q 3944 3084 3684 2787 
Q 3425 2491 3425 1978 
L 3425 0 
L 2847 0 
L 2847 2094 
Q 2847 2600 2669 2842 
Q 2491 3084 2119 3084 
Q 1678 3084 1418 2786 
Q 1159 2488 1159 1978 
L 1159 0 
L 581 0 
L 581 3500 
L 1159 3500 
L 1159 2956 
Q 1356 3278 1631 3431 
Q 1906 3584 2284 3584 
Q 2666 3584 2933 3390 
Q 3200 3197 3328 2828 
z
" transform="scale(0.015625)"/>
      <path id="DejaVuSans-6c" d="M 603 4863 
L 1178 4863 
L 1178 0 
L 603 0 
L 603 4863 
z
" transform="scale(0.015625)"/>
      <path id="DejaVuSans-69" d="M 603 3500 
L 1178 3500 
L 1178 0 
L 603 0 
L 603 3500 
z
M 603 4863 
L 1178 4863 
L 1178 4134 
L 603 4134 
L 603 4863 
z
" transform="scale(0.015625)"/>
      <path id="DejaVuSans-76" d="M 191 3500 
L 800 3500 
L 1894 563 
L 2988 3500 
L 3597 3500 
L 2284 0 
L 1503 0 
L 191 3500 
z
" transform="scale(0.015625)"/>
      <path id="DejaVuSans-50" d="M 1259 4147 
L 1259 2394 
L 2053 2394 
Q 2494 2394 2734 2622 
Q 2975 2850 2975 3272 
Q 2975 3691 2734 3919 
Q 2494 4147 2053 4147 
L 1259 4147 
z
M 628 4666 
L 2053 4666 
Q 2838 4666 3239 4311 
Q 3641 3956 3641 3272 
Q 3641 2581 3239 2228 
Q 2838 1875 2053 1875 
L 1259 1875 
L 1259 0 
L 628 0 
L 628 4666 
z
" transform="scale(0.015625)"/>
      <path id="DejaVuSans-6e" d="M 3513 2113 
L 3513 0 
L 2938 0 
L 2938 2094 
Q 2938 2591 2744 2837 
Q 2550 3084 2163 3084 
Q 1697 3084 1428 2787 
Q 1159 2491 1159 1978 
L 1159 0 
L 581 0 
L 581 3500 
L 1159 3500 
L 1159 2956 
Q 1366 3272 1645 3428 
Q 1925 3584 2291 3584 
Q 2894 3584 3203 3211 
Q 3513 2838 3513 2113 
z
" transform="scale(0.015625)"/>
      <path id="DejaVuSans-28" d="M 1984 4856 
Q 1566 4138 1362 3434 
Q 1159 2731 1159 2009 
Q 1159 1288 1364 580 
Q 1569 -128 1984 -844 
L 1484 -844 
Q 1016 -109 783 600 
Q 550 1309 550 2009 
Q 550 2706 781 3412 
Q 1013 4119 1484 4856 
L 1984 4856 
z
" transform="scale(0.015625)"/>
      <path id="DejaVuSans-4e" d="M 628 4666 
L 1478 4666 
L 3547 763 
L 3547 4666 
L 4159 4666 
L 4159 0 
L 3309 0 
L 1241 3903 
L 1241 0 
L 628 0 
L 628 4666 
z
" transform="scale(0.015625)"/>
      <path id="DejaVuSans-7a" d="M 353 3500 
L 3084 3500 
L 3084 2975 
L 922 459 
L 3084 459 
L 3084 0 
L 275 0 
L 275 525 
L 2438 3041 
L 353 3041 
L 353 3500 
z
" transform="scale(0.015625)"/>
      <path id="DejaVuSans-29" d="M 513 4856 
L 1013 4856 
Q 1481 4119 1714 3412 
Q 1947 2706 1947 2009 
Q 1947 1309 1714 600 
Q 1481 -109 1013 -844 
L 513 -844 
Q 928 -128 1133 580 
Q 1338 1288 1338 2009 
Q 1338 2731 1133 3434 
Q 928 4138 513 4856 
z
" transform="scale(0.015625)"/>
     </defs>
     <use xlink:href="#DejaVuSans-42"/>
     <use xlink:href="#DejaVuSans-61" transform="translate(68.603516 0)"/>
     <use xlink:href="#DejaVuSans-63" transform="translate(129.882812 0)"/>
     <use xlink:href="#DejaVuSans-6b" transform="translate(184.863281 0)"/>
     <use xlink:href="#DejaVuSans-74" transform="translate(242.773438 0)"/>
     <use xlink:href="#DejaVuSans-65" transform="translate(281.982422 0)"/>
     <use xlink:href="#DejaVuSans-73" transform="translate(343.505859 0)"/>
     <use xlink:href="#DejaVuSans-74" transform="translate(395.605469 0)"/>
     <use xlink:href="#DejaVuSans-65" transform="translate(434.814453 0)"/>
     <use xlink:href="#DejaVuSans-64" transform="translate(496.337891 0)"/>
     <use xlink:href="#DejaVuSans-20" transform="translate(559.814453 0)"/>
     <use xlink:href="#DejaVuSans-43" transform="translate(591.601562 0)"/>
     <use xlink:href="#DejaVuSans-75" transform="translate(661.425781 0)"/>
     <use xlink:href="#DejaVuSans-6d" transform="translate(724.804688 0)"/>
     <use xlink:href="#DejaVuSans-75" transform="translate(822.216797 0)"/>
     <use xlink:href="#DejaVuSans-6c" transform="translate(885.595703 0)"/>
     <use xlink:href="#DejaVuSans-61" transform="translate(913.378906 0)"/>
     <use xlink:href="#DejaVuSans-74" transform="translate(974.658203 0)"/>
     <use xlink:href="#DejaVuSans-69" transform="translate(1013.867188 0)"/>
     <use xlink:href="#DejaVuSans-76" transform="translate(1041.650391 0)"/>
     <use xlink:href="#DejaVuSans-65" transform="translate(1100.830078 0)"/>
     <use xlink:href="#DejaVuSans-20" transform="translate(1162.353516 0)"/>
     <use xlink:href="#DejaVuSans-50" transform="translate(1194.140625 0)"/>
     <use xlink:href="#DejaVuSans-65" transform="translate(1250.818359 0)"/>
     <use xlink:href="#DejaVuSans-72" transform="translate(1312.341797 0)"/>
     <use xlink:href="#DejaVuSans-66" transform="translate(1353.455078 0)"/>
     <use xlink:href="#DejaVuSans-6f" transform="translate(1388.660156 0)"/>
     <use xlink:href="#DejaVuSans-72" transform="translate(1449.841797 0)"/>
     <use xlink:href="#DejaVuSans-6d" transform="translate(1489.205078 0)"/>
     <use xlink:href="#DejaVuSans-61" transform="translate(1586.617188 0)"/>
     <use xlink:href="#DejaVuSans-6e" transform="translate(1647.896484 0)"/>
     <use xlink:href="#DejaVuSans-63" transform="translate(1711.275391 0)"/>
     <use xlink:href="#DejaVuSans-65" transform="translate(1766.255859 0)"/>
     <use xlink:href="#DejaVuSans-20" transform="translate(1827.779297 0)"/>
     <use xlink:href="#DejaVuSans-28" transform="translate(1859.566406 0)"/>
     <use xlink:href="#DejaVuSans-4e" transform="translate(1898.580078 0)"/>
     <use xlink:href="#DejaVuSans-6f" transform="translate(1973.384766 0)"/>
     <use xlink:href="#DejaVuSans-72" transform="translate(2034.566406 0)"/>
     <use xlink:href="#DejaVuSans-6d" transform="translate(2073.929688 0)"/>
     <use xlink:href="#DejaVuSans-61" transform="translate(2171.341797 0)"/>
     <use xlink:href="#DejaVuSans-6c" transform="translate(2232.621094 0)"/>
     <use xlink:href="#DejaVuSans-69" transform="translate(2260.404297 0)"/>
     <use xlink:href="#DejaVuSans-7a" transform="translate(2288.1875 0)"/>
     <use xlink:href="#DejaVuSans-65" transform="translate(2340.677734 0)"/>
     <use xlink:href="#DejaVuSans-64" transform="translate(2402.201172 0)"/>
     <use xlink:href="#DejaVuSans-20" transform="translate(2465.677734 0)"/>
     <use xlink:href="#DejaVuSans-74" transform="translate(2497.464844 0)"/>
     <use xlink:href="#DejaVuSans-6f" transform="translate(2536.673828 0)"/>
     <use xlink:href="#DejaVuSans-20" transform="translate(2597.855469 0)"/>
     <use xlink:href="#DejaVuSans-24" transform="translate(2629.642578 0)"/>
     <use xlink:href="#DejaVuSans-31" transform="translate(2693.265625 0)"/>
     <use xlink:href="#DejaVuSans-30" transform="translate(2756.888672 0)"/>
     <use xlink:href="#DejaVuSans-2c" transform="translate(2820.511719 0)"/>
     <use xlink:href="#DejaVuSans-30" transform="translate(2852.298828 0)"/>
     <use xlink:href="#DejaVuSans-30" transform="translate(2915.921875 0)"/>
     <use xlink:href="#DejaVuSans-30" transform="translate(2979.544922 0)"/>
     <use xlink:href="#DejaVuSans-29" transform="translate(3043.167969 0)"/>
    </g>
   </g>
   <g id="legend_1">
    <g id="line2d_20">
     <path d="M 69.72625 36.38625 
L 78.72625 36.38625 
L 87.72625 36.38625 
" style="fill: none; stroke: #1f77b4; stroke-width: 2.8; stroke-linecap: square"/>
    </g>
    <g id="text_22">
     <!-- Diamond Creek ETF Arb Fund (Net) -->
     <g transform="translate(94.92625 39.53625) scale(0.09 -0.09)">
      <defs>
       <path id="DejaVuSans-44" d="M 1259 4147 
L 1259 519 
L 2022 519 
Q 2988 519 3436 956 
Q 3884 1394 3884 2338 
Q 3884 3275 3436 3711 
Q 2988 4147 2022 4147 
L 1259 4147 
z
M 628 4666 
L 1925 4666 
Q 3281 4666 3915 4102 
Q 4550 3538 4550 2338 
Q 4550 1131 3912 565 
Q 3275 0 1925 0 
L 628 0 
L 628 4666 
z
" transform="scale(0.015625)"/>
       <path id="DejaVuSans-45" d="M 628 4666 
L 3578 4666 
L 3578 4134 
L 1259 4134 
L 1259 2753 
L 3481 2753 
L 3481 2222 
L 1259 2222 
L 1259 531 
L 3634 531 
L 3634 0 
L 628 0 
L 628 4666 
z
" transform="scale(0.015625)"/>
       <path id="DejaVuSans-54" d="M -19 4666 
L 3928 4666 
L 3928 4134 
L 2272 4134 
L 2272 0 
L 1638 0 
L 1638 4134 
L -19 4134 
L -19 4666 
z
" transform="scale(0.015625)"/>
       <path id="DejaVuSans-46" d="M 628 4666 
L 3309 4666 
L 3309 4134 
L 1259 4134 
L 1259 2759 
L 3109 2759 
L 3109 2228 
L 1259 2228 
L 1259 0 
L 628 0 
L 628 4666 
z
" transform="scale(0.015625)"/>
       <path id="DejaVuSans-41" d="M 2188 4044 
L 1331 1722 
L 3047 1722 
L 2188 4044 
z
M 1831 4666 
L 2547 4666 
L 4325 0 
L 3669 0 
L 3244 1197 
L 1141 1197 
L 716 0 
L 50 0 
L 1831 4666 
z
" transform="scale(0.015625)"/>
       <path id="DejaVuSans-62" d="M 3116 1747 
Q 3116 2381 2855 2742 
Q 2594 3103 2138 3103 
Q 1681 3103 1420 2742 
Q 1159 2381 1159 1747 
Q 1159 1113 1420 752 
Q 1681 391 2138 391 
Q 2594 391 2855 752 
Q 3116 1113 3116 1747 
z
M 1159 2969 
Q 1341 3281 1617 3432 
Q 1894 3584 2278 3584 
Q 2916 3584 3314 3078 
Q 3713 2572 3713 1747 
Q 3713 922 3314 415 
Q 2916 -91 2278 -91 
Q 1894 -91 1617 61 
Q 1341 213 1159 525 
L 1159 0 
L 581 0 
L 581 4863 
L 1159 4863 
L 1159 2969 
z
" transform="scale(0.015625)"/>
      </defs>
      <use xlink:href="#DejaVuSans-44"/>
      <use xlink:href="#DejaVuSans-69" transform="translate(77.001953 0)"/>
      <use xlink:href="#DejaVuSans-61" transform="translate(104.785156 0)"/>
      <use xlink:href="#DejaVuSans-6d" transform="translate(166.064453 0)"/>
      <use xlink:href="#DejaVuSans-6f" transform="translate(263.476562 0)"/>
      <use xlink:href="#DejaVuSans-6e" transform="translate(324.658203 0)"/>
      <use xlink:href="#DejaVuSans-64" transform="translate(388.037109 0)"/>
      <use xlink:href="#DejaVuSans-20" transform="translate(451.513672 0)"/>
      <use xlink:href="#DejaVuSans-43" transform="translate(483.300781 0)"/>
      <use xlink:href="#DejaVuSans-72" transform="translate(553.125 0)"/>
      <use xlink:href="#DejaVuSans-65" transform="translate(591.988281 0)"/>
      <use xlink:href="#DejaVuSans-65" transform="translate(653.511719 0)"/>
      <use xlink:href="#DejaVuSans-6b" transform="translate(715.035156 0)"/>
      <use xlink:href="#DejaVuSans-20" transform="translate(772.945312 0)"/>
      <use xlink:href="#DejaVuSans-45" transform="translate(804.732422 0)"/>
      <use xlink:href="#DejaVuSans-54" transform="translate(867.916016 0)"/>
      <use xlink:href="#DejaVuSans-46" transform="translate(929 0)"/>
      <use xlink:href="#DejaVuSans-20" transform="translate(986.519531 0)"/>
      <use xlink:href="#DejaVuSans-41" transform="translate(1018.306641 0)"/>
      <use xlink:href="#DejaVuSans-72" transform="translate(1086.714844 0)"/>
      <use xlink:href="#DejaVuSans-62" transform="translate(1127.828125 0)"/>
      <use xlink:href="#DejaVuSans-20" transform="translate(1191.304688 0)"/>
      <use xlink:href="#DejaVuSans-46" transform="translate(1223.091797 0)"/>
      <use xlink:href="#DejaVuSans-75" transform="translate(1275.111328 0)"/>
      <use xlink:href="#DejaVuSans-6e" transform="translate(1338.490234 0)"/>
      <use xlink:href="#DejaVuSans-64" transform="translate(1401.869141 0)"/>
      <use xlink:href="#DejaVuSans-20" transform="translate(1465.345703 0)"/>
      <use xlink:href="#DejaVuSans-28" transform="translate(1497.132812 0)"/>
      <use xlink:href="#DejaVuSans-4e" transform="translate(1536.146484 0)"/>
      <use xlink:href="#DejaVuSans-65" transform="translate(1610.951172 0)"/>
      <use xlink:href="#DejaVuSans-74" transform="translate(1672.474609 0)"/>
      <use xlink:href="#DejaVuSans-29" transform="translate(1711.683594 0)"/>
     </g>
    </g>
    <g id="line2d_21">
     <path d="M 69.72625 49.596562 
L 78.72625 49.596562 
L 87.72625 49.596562 
" style="fill: none; stroke-dasharray: 8.14,3.52; stroke-dashoffset: 0; stroke: #ff7f0e; stroke-width: 2.2"/>
    </g>
    <g id="text_23">
     <!-- SPY (Total Return) -->
     <g transform="translate(94.92625 52.746562) scale(0.09 -0.09)">
      <defs>
       <path id="DejaVuSans-53" d="M 3425 4513 
L 3425 3897 
Q 3066 4069 2747 4153 
Q 2428 4238 2131 4238 
Q 1616 4238 1336 4038 
Q 1056 3838 1056 3469 
Q 1056 3159 1242 3001 
Q 1428 2844 1947 2747 
L 2328 2669 
Q 3034 2534 3370 2195 
Q 3706 1856 3706 1288 
Q 3706 609 3251 259 
Q 2797 -91 1919 -91 
Q 1588 -91 1214 -16 
Q 841 59 441 206 
L 441 856 
Q 825 641 1194 531 
Q 1563 422 1919 422 
Q 2459 422 2753 634 
Q 3047 847 3047 1241 
Q 3047 1584 2836 1778 
Q 2625 1972 2144 2069 
L 1759 2144 
Q 1053 2284 737 2584 
Q 422 2884 422 3419 
Q 422 4038 858 4394 
Q 1294 4750 2059 4750 
Q 2388 4750 2728 4690 
Q 3069 4631 3425 4513 
z
" transform="scale(0.015625)"/>
       <path id="DejaVuSans-59" d="M -13 4666 
L 666 4666 
L 1959 2747 
L 3244 4666 
L 3922 4666 
L 2272 2222 
L 2272 0 
L 1638 0 
L 1638 2222 
L -13 4666 
z
" transform="scale(0.015625)"/>
       <path id="DejaVuSans-52" d="M 2841 2188 
Q 3044 2119 3236 1894 
Q 3428 1669 3622 1275 
L 4263 0 
L 3584 0 
L 2988 1197 
Q 2756 1666 2539 1819 
Q 2322 1972 1947 1972 
L 1259 1972 
L 1259 0 
L 628 0 
L 628 4666 
L 2053 4666 
Q 2853 4666 3247 4331 
Q 3641 3997 3641 3322 
Q 3641 2881 3436 2590 
Q 3231 2300 2841 2188 
z
M 1259 4147 
L 1259 2491 
L 2053 2491 
Q 2509 2491 2742 2702 
Q 2975 2913 2975 3322 
Q 2975 3731 2742 3939 
Q 2509 4147 2053 4147 
L 1259 4147 
z
" transform="scale(0.015625)"/>
      </defs>
      <use xlink:href="#DejaVuSans-53"/>
      <use xlink:href="#DejaVuSans-50" transform="translate(63.476562 0)"/>
      <use xlink:href="#DejaVuSans-59" transform="translate(121.529297 0)"/>
      <use xlink:href="#DejaVuSans-20" transform="translate(182.613281 0)"/>
      <use xlink:href="#DejaVuSans-28" transform="translate(214.400391 0)"/>
      <use xlink:href="#DejaVuSans-54" transform="translate(253.414062 0)"/>
      <use xlink:href="#DejaVuSans-6f" transform="translate(297.498047 0)"/>
      <use xlink:href="#DejaVuSans-74" transform="translate(358.679688 0)"/>
      <use xlink:href="#DejaVuSans-61" transform="translate(397.888672 0)"/>
      <use xlink:href="#DejaVuSans-6c" transform="translate(459.167969 0)"/>
      <use xlink:href="#DejaVuSans-20" transform="translate(486.951172 0)"/>
      <use xlink:href="#DejaVuSans-52" transform="translate(518.738281 0)"/>
      <use xlink:href="#DejaVuSans-65" transform="translate(583.720703 0)"/>
      <use xlink:href="#DejaVuSans-74" transform="translate(645.244141 0)"/>
      <use xlink:href="#DejaVuSans-75" transform="translate(684.453125 0)"/>
      <use xlink:href="#DejaVuSans-72" transform="translate(747.832031 0)"/>
      <use xlink:href="#DejaVuSans-6e" transform="translate(787.195312 0)"/>
      <use xlink:href="#DejaVuSans-29" transform="translate(850.574219 0)"/>
     </g>
    </g>
   </g>
  </g>
 </g>
 <defs>
  <clipPath id="pc2b185922a">
   <rect x="61.62625" y="24.597656" width="840.172727" height="375.8"/>
  </clipPath>
 </defs>
</svg>
