<?xml version="1.0" encoding="utf-8" standalone="no"?>
<!DOCTYPE svg PUBLIC "-//W3C//DTD SVG 1.1//EN"
  "http://www.w3.org/Graphics/SVG/1.1/DTD/svg11.dtd">
<svg xmlns:xlink="http://www.w3.org/1999/xlink" width="924.35462pt" height="424.275781pt" viewBox="0 0 924.35462 424.275781" xmlns="http://www.w3.org/2000/svg" version="1.1">
 <metadata>
  <rdf:RDF xmlns:dc="http://purl.org/dc/elements/1.1/" xmlns:cc="http://creativecommons.org/ns#" xmlns:rdf="http://www.w3.org/1999/02/22-rdf-syntax-ns#">
   <cc:Work>
    <dc:type rdf:resource="http://purl.org/dc/dcmitype/StillImage"/>
    <dc:date>2026-04-16T13:30:32.317506</dc:date>
    <dc:format>image/svg+xml</dc:format>
    <dc:creator>
     <cc:Agent>
      <dc:title>Matplotlib v3.10.8, https://matplotlib.org/</dc:title>
     </cc:Agent>
    </dc:creator>
   </cc:Work>
  </rdf:RDF>
 </metadata>
 <defs>
  <style type="text/css">*{stroke-linejoin: round; stroke-linecap: butt}</style>
 </defs>
 <g id="figure_1">
  <g id="patch_1">
   <path d="M 0 424.275781 
L 924.35462 424.275781 
L 924.35462 0 
L 0 0 
z
" style="fill: #ffffff"/>
  </g>
  <g id="axes_1">
   <g id="patch_2">
    <path d="M 61.62625 400.397656 
L 901.798977 400.397656 
L 901.798977 24.597656 
L 61.62625 24.597656 
z
" style="fill: #ffffff"/>
   </g>
   <g id="matplotlib.axis_1">
    <g id="xtick_1">
     <g id="line2d_1">
      <defs>
       <path id="m9e0dd4f352" d="M 0 0 
L 0 3.5 
" style="stroke: #000000; stroke-width: 0.8"/>
      </defs>
      <g>
       <use xlink:href="#m9e0dd4f352" x="98.524637" y="400.397656" style="stroke: #000000; stroke-width: 0.8"/>
      </g>
     </g>
     <g id="text_1">
      <!-- 2023-01 -->
      <g transform="translate(77.633231 414.996094) scale(0.1 -0.1)">
       <defs>
        <path id="DejaVuSans-32" d="M 1228 531 
L 3431 531 
L 3431 0 
L 469 0 
L 469 531 
Q 828 903 1448 1529 
Q 2069 2156 2228 2338 
Q 2531 2678 2651 2914 
Q 2772 3150 2772 3378 
Q 2772 3750 2511 3984 
Q 2250 4219 1831 4219 
Q 1534 4219 1204 4116 
Q 875 4013 500 3803 
L 500 4441 
Q 881 4594 1212 4672 
Q 1544 4750 1819 4750 
Q 2544 4750 2975 4387 
Q 3406 4025 3406 3419 
Q 3406 3131 3298 2873 
Q 3191 2616 2906 2266 
Q 2828 2175 2409 1742 
Q 1991 1309 1228 531 
z
" transform="scale(0.015625)"/>
        <path id="DejaVuSans-30" d="M 2034 4250 
Q 1547 4250 1301 3770 
Q 1056 3291 1056 2328 
Q 1056 1369 1301 889 
Q 1547 409 2034 409 
Q 2525 409 2770 889 
Q 3016 1369 3016 2328 
Q 3016 3291 2770 3770 
Q 2525 4250 2034 4250 
z
M 2034 4750 
Q 2819 4750 3233 4129 
Q 3647 3509 3647 2328 
Q 3647 1150 3233 529 
Q 2819 -91 2034 -91 
Q 1250 -91 836 529 
Q 422 1150 422 2328 
Q 422 3509 836 4129 
Q 1250 4750 2034 4750 
z
" transform="scale(0.015625)"/>
        <path id="DejaVuSans-33" d="M 2597 2516 
Q 3050 2419 3304 2112 
Q 3559 1806 3559 1356 
Q 3559 666 3084 287 
Q 2609 -91 1734 -91 
Q 1441 -91 1130 -33 
Q 819 25 488 141 
L 488 750 
Q 750 597 1062 519 
Q 1375 441 1716 441 
Q 2309 441 2620 675 
Q 2931 909 2931 1356 
Q 2931 1769 2642 2001 
Q 2353 2234 1838 2234 
L 1294 2234 
L 1294 2753 
L 1863 2753 
Q 2328 2753 2575 2939 
Q 2822 3125 2822 3475 
Q 2822 3834 2567 4026 
Q 2313 4219 1838 4219 
Q 1578 4219 1281 4162 
Q 984 4106 628 3988 
L 628 4550 
Q 988 4650 1302 4700 
Q 1616 4750 1894 4750 
Q 2613 4750 3031 4423 
Q 3450 4097 3450 3541 
Q 3450 3153 3228 2886 
Q 3006 2619 2597 2516 
z
" transform="scale(0.015625)"/>
        <path id="DejaVuSans-2d" d="M 313 2009 
L 1997 2009 
L 1997 1497 
L 313 1497 
L 313 2009 
z
" transform="scale(0.015625)"/>
        <path id="DejaVuSans-31" d="M 794 531 
L 1825 531 
L 1825 4091 
L 703 3866 
L 703 4441 
L 1819 4666 
L 2450 4666 
L 2450 531 
L 3481 531 
L 3481 0 
L 794 0 
L 794 531 
z
" transform="scale(0.015625)"/>
       </defs>
       <use xlink:href="#DejaVuSans-32"/>
       <use xlink:href="#DejaVuSans-30" transform="translate(63.623047 0)"/>
       <use xlink:href="#DejaVuSans-32" transform="translate(127.246094 0)"/>
       <use xlink:href="#DejaVuSans-33" transform="translate(190.869141 0)"/>
       <use xlink:href="#DejaVuSans-2d" transform="translate(254.492188 0)"/>
       <use xlink:href="#DejaVuSans-30" transform="translate(290.576172 0)"/>
       <use xlink:href="#DejaVuSans-31" transform="translate(354.199219 0)"/>
      </g>
     </g>
    </g>
    <g id="xtick_2">
     <g id="line2d_2">
      <g>
       <use xlink:href="#m9e0dd4f352" x="176.001566" y="400.397656" style="stroke: #000000; stroke-width: 0.8"/>
      </g>
     </g>
     <g id="text_2">
      <!-- 2023-05 -->
      <g transform="translate(155.11016 414.996094) scale(0.1 -0.1)">
       <defs>
        <path id="DejaVuSans-35" d="M 691 4666 
L 3169 4666 
L 3169 4134 
L 1269 4134 
L 1269 2991 
Q 1406 3038 1543 3061 
Q 1681 3084 1819 3084 
Q 2600 3084 3056 2656 
Q 3513 2228 3513 1497 
Q 3513 744 3044 326 
Q 2575 -91 1722 -91 
Q 1428 -91 1123 -41 
Q 819 9 494 109 
L 494 744 
Q 775 591 1075 516 
Q 1375 441 1709 441 
Q 2250 441 2565 725 
Q 2881 1009 2881 1497 
Q 2881 1984 2565 2268 
Q 2250 2553 1709 2553 
Q 1456 2553 1204 2497 
Q 953 2441 691 2322 
L 691 4666 
z
" transform="scale(0.015625)"/>
       </defs>
       <use xlink:href="#DejaVuSans-32"/>
       <use xlink:href="#DejaVuSans-30" transform="translate(63.623047 0)"/>
       <use xlink:href="#DejaVuSans-32" transform="translate(127.246094 0)"/>
       <use xlink:href="#DejaVuSans-33" transform="translate(190.869141 0)"/>
       <use xlink:href="#DejaVuSans-2d" transform="translate(254.492188 0)"/>
       <use xlink:href="#DejaVuSans-30" transform="translate(290.576172 0)"/>
       <use xlink:href="#DejaVuSans-35" transform="translate(354.199219 0)"/>
      </g>
     </g>
    </g>
    <g id="xtick_3">
     <g id="line2d_3">
      <g>
       <use xlink:href="#m9e0dd4f352" x="255.415418" y="400.397656" style="stroke: #000000; stroke-width: 0.8"/>
      </g>
     </g>
     <g id="text_3">
      <!-- 2023-09 -->
      <g transform="translate(234.524012 414.996094) scale(0.1 -0.1)">
       <defs>
        <path id="DejaVuSans-39" d="M 703 97 
L 703 672 
Q 941 559 1184 500 
Q 1428 441 1663 441 
Q 2288 441 2617 861 
Q 2947 1281 2994 2138 
Q 2813 1869 2534 1725 
Q 2256 1581 1919 1581 
Q 1219 1581 811 2004 
Q 403 2428 403 3163 
Q 403 3881 828 4315 
Q 1253 4750 1959 4750 
Q 2769 4750 3195 4129 
Q 3622 3509 3622 2328 
Q 3622 1225 3098 567 
Q 2575 -91 1691 -91 
Q 1453 -91 1209 -44 
Q 966 3 703 97 
z
M 1959 2075 
Q 2384 2075 2632 2365 
Q 2881 2656 2881 3163 
Q 2881 3666 2632 3958 
Q 2384 4250 1959 4250 
Q 1534 4250 1286 3958 
Q 1038 3666 1038 3163 
Q 1038 2656 1286 2365 
Q 1534 2075 1959 2075 
z
" transform="scale(0.015625)"/>
       </defs>
       <use xlink:href="#DejaVuSans-32"/>
       <use xlink:href="#DejaVuSans-30" transform="translate(63.623047 0)"/>
       <use xlink:href="#DejaVuSans-32" transform="translate(127.246094 0)"/>
       <use xlink:href="#DejaVuSans-33" transform="translate(190.869141 0)"/>
       <use xlink:href="#DejaVuSans-2d" transform="translate(254.492188 0)"/>
       <use xlink:href="#DejaVuSans-30" transform="translate(290.576172 0)"/>
       <use xlink:href="#DejaVuSans-39" transform="translate(354.199219 0)"/>
      </g>
     </g>
    </g>
    <g id="xtick_4">
     <g id="line2d_4">
      <g>
       <use xlink:href="#m9e0dd4f352" x="334.183629" y="400.397656" style="stroke: #000000; stroke-width: 0.8"/>
      </g>
     </g>
     <g id="text_4">
      <!-- 2024-01 -->
      <g transform="translate(313.292222 414.996094) scale(0.1 -0.1)">
       <defs>
        <path id="DejaVuSans-34" d="M 2419 4116 
L 825 1625 
L 2419 1625 
L 2419 4116 
z
M 2253 4666 
L 3047 4666 
L 3047 1625 
L 3713 1625 
L 3713 1100 
L 3047 1100 
L 3047 0 
L 2419 0 
L 2419 1100 
L 313 1100 
L 313 1709 
L 2253 4666 
z
" transform="scale(0.015625)"/>
       </defs>
       <use xlink:href="#DejaVuSans-32"/>
       <use xlink:href="#DejaVuSans-30" transform="translate(63.623047 0)"/>
       <use xlink:href="#DejaVuSans-32" transform="translate(127.246094 0)"/>
       <use xlink:href="#DejaVuSans-34" transform="translate(190.869141 0)"/>
       <use xlink:href="#DejaVuSans-2d" transform="translate(254.492188 0)"/>
       <use xlink:href="#DejaVuSans-30" transform="translate(290.576172 0)"/>
       <use xlink:href="#DejaVuSans-31" transform="translate(354.199219 0)"/>
      </g>
     </g>
    </g>
    <g id="xtick_5">
     <g id="line2d_5">
      <g>
       <use xlink:href="#m9e0dd4f352" x="412.306198" y="400.397656" style="stroke: #000000; stroke-width: 0.8"/>
      </g>
     </g>
     <g id="text_5">
      <!-- 2024-05 -->
      <g transform="translate(391.414792 414.996094) scale(0.1 -0.1)">
       <use xlink:href="#DejaVuSans-32"/>
       <use xlink:href="#DejaVuSans-30" transform="translate(63.623047 0)"/>
       <use xlink:href="#DejaVuSans-32" transform="translate(127.246094 0)"/>
       <use xlink:href="#DejaVuSans-34" transform="translate(190.869141 0)"/>
       <use xlink:href="#DejaVuSans-2d" transform="translate(254.492188 0)"/>
       <use xlink:href="#DejaVuSans-30" transform="translate(290.576172 0)"/>
       <use xlink:href="#DejaVuSans-35" transform="translate(354.199219 0)"/>
      </g>
     </g>
    </g>
    <g id="xtick_6">
     <g id="line2d_6">
      <g>
       <use xlink:href="#m9e0dd4f352" x="491.72005" y="400.397656" style="stroke: #000000; stroke-width: 0.8"/>
      </g>
     </g>
     <g id="text_6">
      <!-- 2024-09 -->
      <g transform="translate(470.828644 414.996094) scale(0.1 -0.1)">
       <use xlink:href="#DejaVuSans-32"/>
       <use xlink:href="#DejaVuSans-30" transform="translate(63.623047 0)"/>
       <use xlink:href="#DejaVuSans-32" transform="translate(127.246094 0)"/>
       <use xlink:href="#DejaVuSans-34" transform="translate(190.869141 0)"/>
       <use xlink:href="#DejaVuSans-2d" transform="translate(254.492188 0)"/>
       <use xlink:href="#DejaVuSans-30" transform="translate(290.576172 0)"/>
       <use xlink:href="#DejaVuSans-39" transform="translate(354.199219 0)"/>
      </g>
     </g>
    </g>
    <g id="xtick_7">
     <g id="line2d_7">
      <g>
       <use xlink:href="#m9e0dd4f352" x="570.488261" y="400.397656" style="stroke: #000000; stroke-width: 0.8"/>
      </g>
     </g>
     <g id="text_7">
      <!-- 2025-01 -->
      <g transform="translate(549.596855 414.996094) scale(0.1 -0.1)">
       <use xlink:href="#DejaVuSans-32"/>
       <use xlink:href="#DejaVuSans-30" transform="translate(63.623047 0)"/>
       <use xlink:href="#DejaVuSans-32" transform="translate(127.246094 0)"/>
       <use xlink:href="#DejaVuSans-35" transform="translate(190.869141 0)"/>
       <use xlink:href="#DejaVuSans-2d" transform="translate(254.492188 0)"/>
       <use xlink:href="#DejaVuSans-30" transform="translate(290.576172 0)"/>
       <use xlink:href="#DejaVuSans-31" transform="translate(354.199219 0)"/>
      </g>
     </g>
    </g>
    <g id="xtick_8">
     <g id="line2d_8">
      <g>
       <use xlink:href="#m9e0dd4f352" x="647.96519" y="400.397656" style="stroke: #000000; stroke-width: 0.8"/>
      </g>
     </g>
     <g id="text_8">
      <!-- 2025-05 -->
      <g transform="translate(627.073783 414.996094) scale(0.1 -0.1)">
       <use xlink:href="#DejaVuSans-32"/>
       <use xlink:href="#DejaVuSans-30" transform="translate(63.623047 0)"/>
       <use xlink:href="#DejaVuSans-32" transform="translate(127.246094 0)"/>
       <use xlink:href="#DejaVuSans-35" transform="translate(190.869141 0)"/>
       <use xlink:href="#DejaVuSans-2d" transform="translate(254.492188 0)"/>
       <use xlink:href="#DejaVuSans-30" transform="translate(290.576172 0)"/>
       <use xlink:href="#DejaVuSans-35" transform="translate(354.199219 0)"/>
      </g>
     </g>
    </g>
    <g id="xtick_9">
     <g id="line2d_9">
      <g>
       <use xlink:href="#m9e0dd4f352" x="727.379042" y="400.397656" style="stroke: #000000; stroke-width: 0.8"/>
      </g>
     </g>
     <g id="text_9">
      <!-- 2025-09 -->
      <g transform="translate(706.487635 414.996094) scale(0.1 -0.1)">
       <use xlink:href="#DejaVuSans-32"/>
       <use xlink:href="#DejaVuSans-30" transform="translate(63.623047 0)"/>
       <use xlink:href="#DejaVuSans-32" transform="translate(127.246094 0)"/>
       <use xlink:href="#DejaVuSans-35" transform="translate(190.869141 0)"/>
       <use xlink:href="#DejaVuSans-2d" transform="translate(254.492188 0)"/>
       <use xlink:href="#DejaVuSans-30" transform="translate(290.576172 0)"/>
       <use xlink:href="#DejaVuSans-39" transform="translate(354.199219 0)"/>
      </g>
     </g>
    </g>
    <g id="xtick_10">
     <g id="line2d_10">
      <g>
       <use xlink:href="#m9e0dd4f352" x="806.147252" y="400.397656" style="stroke: #000000; stroke-width: 0.8"/>
      </g>
     </g>
     <g id="text_10">
      <!-- 2026-01 -->
      <g transform="translate(785.255846 414.996094) scale(0.1 -0.1)">
       <defs>
        <path id="DejaVuSans-36" d="M 2113 2584 
Q 1688 2584 1439 2293 
Q 1191 2003 1191 1497 
Q 1191 994 1439 701 
Q 1688 409 2113 409 
Q 2538 409 2786 701 
Q 3034 994 3034 1497 
Q 3034 2003 2786 2293 
Q 2538 2584 2113 2584 
z
M 3366 4563 
L 3366 3988 
Q 3128 4100 2886 4159 
Q 2644 4219 2406 4219 
Q 1781 4219 1451 3797 
Q 1122 3375 1075 2522 
Q 1259 2794 1537 2939 
Q 1816 3084 2150 3084 
Q 2853 3084 3261 2657 
Q 3669 2231 3669 1497 
Q 3669 778 3244 343 
Q 2819 -91 2113 -91 
Q 1303 -91 875 529 
Q 447 1150 447 2328 
Q 447 3434 972 4092 
Q 1497 4750 2381 4750 
Q 2619 4750 2861 4703 
Q 3103 4656 3366 4563 
z
" transform="scale(0.015625)"/>
       </defs>
       <use xlink:href="#DejaVuSans-32"/>
       <use xlink:href="#DejaVuSans-30" transform="translate(63.623047 0)"/>
       <use xlink:href="#DejaVuSans-32" transform="translate(127.246094 0)"/>
       <use xlink:href="#DejaVuSans-36" transform="translate(190.869141 0)"/>
       <use xlink:href="#DejaVuSans-2d" transform="translate(254.492188 0)"/>
       <use xlink:href="#DejaVuSans-30" transform="translate(290.576172 0)"/>
       <use xlink:href="#DejaVuSans-31" transform="translate(354.199219 0)"/>
      </g>
     </g>
    </g>
    <g id="xtick_11">
     <g id="line2d_11">
      <g>
       <use xlink:href="#m9e0dd4f352" x="883.624181" y="400.397656" style="stroke: #000000; stroke-width: 0.8"/>
      </g>
     </g>
     <g id="text_11">
      <!-- 2026-05 -->
      <g transform="translate(862.732775 414.996094) scale(0.1 -0.1)">
       <use xlink:href="#DejaVuSans-32"/>
       <use xlink:href="#DejaVuSans-30" transform="translate(63.623047 0)"/>
       <use xlink:href="#DejaVuSans-32" transform="translate(127.246094 0)"/>
       <use xlink:href="#DejaVuSans-36" transform="translate(190.869141 0)"/>
       <use xlink:href="#DejaVuSans-2d" transform="translate(254.492188 0)"/>
       <use xlink:href="#DejaVuSans-30" transform="translate(290.576172 0)"/>
       <use xlink:href="#DejaVuSans-35" transform="translate(354.199219 0)"/>
      </g>
     </g>
    </g>
   </g>
   <g id="matplotlib.axis_2">
    <g id="ytick_1">
     <g id="line2d_12">
      <defs>
       <path id="mbb203192f2" d="M 0 0 
L -3.5 0 
" style="stroke: #000000; stroke-width: 0.8"/>
      </defs>
      <g>
       <use xlink:href="#mbb203192f2" x="61.62625" y="382.358256" style="stroke: #000000; stroke-width: 0.8"/>
      </g>
     </g>
     <g id="text_12">
      <!-- 10000 -->
      <g transform="translate(22.81375 386.157475) scale(0.1 -0.1)">
       <use xlink:href="#DejaVuSans-31"/>
       <use xlink:href="#DejaVuSans-30" transform="translate(63.623047 0)"/>
       <use xlink:href="#DejaVuSans-30" transform="translate(127.246094 0)"/>
       <use xlink:href="#DejaVuSans-30" transform="translate(190.869141 0)"/>
       <use xlink:href="#DejaVuSans-30" transform="translate(254.492188 0)"/>
      </g>
     </g>
    </g>
    <g id="ytick_2">
     <g id="line2d_13">
      <g>
       <use xlink:href="#mbb203192f2" x="61.62625" y="331.7094" style="stroke: #000000; stroke-width: 0.8"/>
      </g>
     </g>
     <g id="text_13">
      <!-- 12000 -->
      <g transform="translate(22.81375 335.508618) scale(0.1 -0.1)">
       <use xlink:href="#DejaVuSans-31"/>
       <use xlink:href="#DejaVuSans-32" transform="translate(63.623047 0)"/>
       <use xlink:href="#DejaVuSans-30" transform="translate(127.246094 0)"/>
       <use xlink:href="#DejaVuSans-30" transform="translate(190.869141 0)"/>
       <use xlink:href="#DejaVuSans-30" transform="translate(254.492188 0)"/>
      </g>
     </g>
    </g>
    <g id="ytick_3">
     <g id="line2d_14">
      <g>
       <use xlink:href="#mbb203192f2" x="61.62625" y="281.060543" style="stroke: #000000; stroke-width: 0.8"/>
      </g>
     </g>
     <g id="text_14">
      <!-- 14000 -->
      <g transform="translate(22.81375 284.859762) scale(0.1 -0.1)">
       <use xlink:href="#DejaVuSans-31"/>
       <use xlink:href="#DejaVuSans-34" transform="translate(63.623047 0)"/>
       <use xlink:href="#DejaVuSans-30" transform="translate(127.246094 0)"/>
       <use xlink:href="#DejaVuSans-30" transform="translate(190.869141 0)"/>
       <use xlink:href="#DejaVuSans-30" transform="translate(254.492188 0)"/>
      </g>
     </g>
    </g>
    <g id="ytick_4">
     <g id="line2d_15">
      <g>
       <use xlink:href="#mbb203192f2" x="61.62625" y="230.411687" style="stroke: #000000; stroke-width: 0.8"/>
      </g>
     </g>
     <g id="text_15">
      <!-- 16000 -->
      <g transform="translate(22.81375 234.210906) scale(0.1 -0.1)">
       <use xlink:href="#DejaVuSans-31"/>
       <use xlink:href="#DejaVuSans-36" transform="translate(63.623047 0)"/>
       <use xlink:href="#DejaVuSans-30" transform="translate(127.246094 0)"/>
       <use xlink:href="#DejaVuSans-30" transform="translate(190.869141 0)"/>
       <use xlink:href="#DejaVuSans-30" transform="translate(254.492188 0)"/>
      </g>
     </g>
    </g>
    <g id="ytick_5">
     <g id="line2d_16">
      <g>
       <use xlink:href="#mbb203192f2" x="61.62625" y="179.762831" style="stroke: #000000; stroke-width: 0.8"/>
      </g>
     </g>
     <g id="text_16">
      <!-- 18000 -->
      <g transform="translate(22.81375 183.56205) scale(0.1 -0.1)">
       <defs>
        <path id="DejaVuSans-38" d="M 2034 2216 
Q 1584 2216 1326 1975 
Q 1069 1734 1069 1313 
Q 1069 891 1326 650 
Q 1584 409 2034 409 
Q 2484 409 2743 651 
Q 3003 894 3003 1313 
Q 3003 1734 2745 1975 
Q 2488 2216 2034 2216 
z
M 1403 2484 
Q 997 2584 770 2862 
Q 544 3141 544 3541 
Q 544 4100 942 4425 
Q 1341 4750 2034 4750 
Q 2731 4750 3128 4425 
Q 3525 4100 3525 3541 
Q 3525 3141 3298 2862 
Q 3072 2584 2669 2484 
Q 3125 2378 3379 2068 
Q 3634 1759 3634 1313 
Q 3634 634 3220 271 
Q 2806 -91 2034 -91 
Q 1263 -91 848 271 
Q 434 634 434 1313 
Q 434 1759 690 2068 
Q 947 2378 1403 2484 
z
M 1172 3481 
Q 1172 3119 1398 2916 
Q 1625 2713 2034 2713 
Q 2441 2713 2670 2916 
Q 2900 3119 2900 3481 
Q 2900 3844 2670 4047 
Q 2441 4250 2034 4250 
Q 1625 4250 1398 4047 
Q 1172 3844 1172 3481 
z
" transform="scale(0.015625)"/>
       </defs>
       <use xlink:href="#DejaVuSans-31"/>
       <use xlink:href="#DejaVuSans-38" transform="translate(63.623047 0)"/>
       <use xlink:href="#DejaVuSans-30" transform="translate(127.246094 0)"/>
       <use xlink:href="#DejaVuSans-30" transform="translate(190.869141 0)"/>
       <use xlink:href="#DejaVuSans-30" transform="translate(254.492188 0)"/>
      </g>
     </g>
    </g>
    <g id="ytick_6">
     <g id="line2d_17">
      <g>
       <use xlink:href="#mbb203192f2" x="61.62625" y="129.113975" style="stroke: #000000; stroke-width: 0.8"/>
      </g>
     </g>
     <g id="text_17">
      <!-- 20000 -->
      <g transform="translate(22.81375 132.913193) scale(0.1 -0.1)">
       <use xlink:href="#DejaVuSans-32"/>
       <use xlink:href="#DejaVuSans-30" transform="translate(63.623047 0)"/>
       <use xlink:href="#DejaVuSans-30" transform="translate(127.246094 0)"/>
       <use xlink:href="#DejaVuSans-30" transform="translate(190.869141 0)"/>
       <use xlink:href="#DejaVuSans-30" transform="translate(254.492188 0)"/>
      </g>
     </g>
    </g>
    <g id="ytick_7">
     <g id="line2d_18">
      <g>
       <use xlink:href="#mbb203192f2" x="61.62625" y="78.465119" style="stroke: #000000; stroke-width: 0.8"/>
      </g>
     </g>
     <g id="text_18">
      <!-- 22000 -->
      <g transform="translate(22.81375 82.264337) scale(0.1 -0.1)">
       <use xlink:href="#DejaVuSans-32"/>
       <use xlink:href="#DejaVuSans-32" transform="translate(63.623047 0)"/>
       <use xlink:href="#DejaVuSans-30" transform="translate(127.246094 0)"/>
       <use xlink:href="#DejaVuSans-30" transform="translate(190.869141 0)"/>
       <use xlink:href="#DejaVuSans-30" transform="translate(254.492188 0)"/>
      </g>
     </g>
    </g>
    <g id="ytick_8">
     <g id="line2d_19">
      <g>
       <use xlink:href="#mbb203192f2" x="61.62625" y="27.816262" style="stroke: #000000; stroke-width: 0.8"/>
      </g>
     </g>
     <g id="text_19">
      <!-- 24000 -->
      <g transform="translate(22.81375 31.615481) scale(0.1 -0.1)">
       <use xlink:href="#DejaVuSans-32"/>
       <use xlink:href="#DejaVuSans-34" transform="translate(63.623047 0)"/>
       <use xlink:href="#DejaVuSans-30" transform="translate(127.246094 0)"/>
       <use xlink:href="#DejaVuSans-30" transform="translate(190.869141 0)"/>
       <use xlink:href="#DejaVuSans-30" transform="translate(254.492188 0)"/>
      </g>
     </g>
    </g>
    <g id="text_20">
     <!-- Growth of $10,000 -->
     <g transform="translate(16.318125 268.620156) rotate(-90) scale(0.12 -0.12)">
      <defs>
       <path id="DejaVuSans-47" d="M 3809 666 
L 3809 1919 
L 2778 1919 
L 2778 2438 
L 4434 2438 
L 4434 434 
Q 4069 175 3628 42 
Q 3188 -91 2688 -91 
Q 1594 -91 976 548 
Q 359 1188 359 2328 
Q 359 3472 976 4111 
Q 1594 4750 2688 4750 
Q 3144 4750 3555 4637 
Q 3966 4525 4313 4306 
L 4313 3634 
Q 3963 3931 3569 4081 
Q 3175 4231 2741 4231 
Q 1884 4231 1454 3753 
Q 1025 3275 1025 2328 
Q 1025 1384 1454 906 
Q 1884 428 2741 428 
Q 3075 428 3337 486 
Q 3600 544 3809 666 
z
" transform="scale(0.015625)"/>
       <path id="DejaVuSans-72" d="M 2631 2963 
Q 2534 3019 2420 3045 
Q 2306 3072 2169 3072 
Q 1681 3072 1420 2755 
Q 1159 2438 1159 1844 
L 1159 0 
L 581 0 
L 581 3500 
L 1159 3500 
L 1159 2956 
Q 1341 3275 1631 3429 
Q 1922 3584 2338 3584 
Q 2397 3584 2469 3576 
Q 2541 3569 2628 3553 
L 2631 2963 
z
" transform="scale(0.015625)"/>
       <path id="DejaVuSans-6f" d="M 1959 3097 
Q 1497 3097 1228 2736 
Q 959 2375 959 1747 
Q 959 1119 1226 758 
Q 1494 397 1959 397 
Q 2419 397 2687 759 
Q 2956 1122 2956 1747 
Q 2956 2369 2687 2733 
Q 2419 3097 1959 3097 
z
M 1959 3584 
Q 2709 3584 3137 3096 
Q 3566 2609 3566 1747 
Q 3566 888 3137 398 
Q 2709 -91 1959 -91 
Q 1206 -91 779 398 
Q 353 888 353 1747 
Q 353 2609 779 3096 
Q 1206 3584 1959 3584 
z
" transform="scale(0.015625)"/>
       <path id="DejaVuSans-77" d="M 269 3500 
L 844 3500 
L 1563 769 
L 2278 3500 
L 2956 3500 
L 3675 769 
L 4391 3500 
L 4966 3500 
L 4050 0 
L 3372 0 
L 2619 2869 
L 1863 0 
L 1184 0 
L 269 3500 
z
" transform="scale(0.015625)"/>
       <path id="DejaVuSans-74" d="M 1172 4494 
L 1172 3500 
L 2356 3500 
L 2356 3053 
L 1172 3053 
L 1172 1153 
Q 1172 725 1289 603 
Q 1406 481 1766 481 
L 2356 481 
L 2356 0 
L 1766 0 
Q 1100 0 847 248 
Q 594 497 594 1153 
L 594 3053 
L 172 3053 
L 172 3500 
L 594 3500 
L 594 4494 
L 1172 4494 
z
" transform="scale(0.015625)"/>
       <path id="DejaVuSans-68" d="M 3513 2113 
L 3513 0 
L 2938 0 
L 2938 2094 
Q 2938 2591 2744 2837 
Q 2550 3084 2163 3084 
Q 1697 3084 1428 2787 
Q 1159 2491 1159 1978 
L 1159 0 
L 581 0 
L 581 4863 
L 1159 4863 
L 1159 2956 
Q 1366 3272 1645 3428 
Q 1925 3584 2291 3584 
Q 2894 3584 3203 3211 
Q 3513 2838 3513 2113 
z
" transform="scale(0.015625)"/>
       <path id="DejaVuSans-20" transform="scale(0.015625)"/>
       <path id="DejaVuSans-66" d="M 2375 4863 
L 2375 4384 
L 1825 4384 
Q 1516 4384 1395 4259 
Q 1275 4134 1275 3809 
L 1275 3500 
L 2222 3500 
L 2222 3053 
L 1275 3053 
L 1275 0 
L 697 0 
L 697 3053 
L 147 3053 
L 147 3500 
L 697 3500 
L 697 3744 
Q 697 4328 969 4595 
Q 1241 4863 1831 4863 
L 2375 4863 
z
" transform="scale(0.015625)"/>
       <path id="DejaVuSans-24" d="M 2163 -941 
L 1850 -941 
L 1847 0 
Q 1519 6 1191 76 
Q 863 147 531 288 
L 531 850 
Q 850 650 1176 548 
Q 1503 447 1850 444 
L 1850 1869 
Q 1159 1981 845 2250 
Q 531 2519 531 2988 
Q 531 3497 872 3790 
Q 1213 4084 1850 4128 
L 1850 4863 
L 2163 4863 
L 2163 4138 
Q 2453 4125 2725 4076 
Q 2997 4028 3256 3944 
L 3256 3397 
Q 2997 3528 2723 3600 
Q 2450 3672 2163 3684 
L 2163 2350 
Q 2872 2241 3206 1959 
Q 3541 1678 3541 1191 
Q 3541 663 3186 358 
Q 2831 53 2163 6 
L 2163 -941 
z
M 1850 2406 
L 1850 3688 
Q 1488 3647 1297 3481 
Q 1106 3316 1106 3041 
Q 1106 2772 1282 2622 
Q 1459 2472 1850 2406 
z
M 2163 1806 
L 2163 453 
Q 2559 506 2761 678 
Q 2963 850 2963 1131 
Q 2963 1406 2770 1568 
Q 2578 1731 2163 1806 
z
" transform="scale(0.015625)"/>
       <path id="DejaVuSans-2c" d="M 750 794 
L 1409 794 
L 1409 256 
L 897 -744 
L 494 -744 
L 750 256 
L 750 794 
z
" transform="scale(0.015625)"/>
      </defs>
      <use xlink:href="#DejaVuSans-47"/>
      <use xlink:href="#DejaVuSans-72" transform="translate(77.490234 0)"/>
      <use xlink:href="#DejaVuSans-6f" transform="translate(116.353516 0)"/>
      <use xlink:href="#DejaVuSans-77" transform="translate(177.535156 0)"/>
      <use xlink:href="#DejaVuSans-74" transform="translate(259.322266 0)"/>
      <use xlink:href="#DejaVuSans-68" transform="translate(298.53125 0)"/>
      <use xlink:href="#DejaVuSans-20" transform="translate(361.910156 0)"/>
      <use xlink:href="#DejaVuSans-6f" transform="translate(393.697266 0)"/>
      <use xlink:href="#DejaVuSans-66" transform="translate(454.878906 0)"/>
      <use xlink:href="#DejaVuSans-20" transform="translate(490.083984 0)"/>
      <use xlink:href="#DejaVuSans-24" transform="translate(521.871094 0)"/>
      <use xlink:href="#DejaVuSans-31" transform="translate(585.494141 0)"/>
      <use xlink:href="#DejaVuSans-30" transform="translate(649.117188 0)"/>
      <use xlink:href="#DejaVuSans-2c" transform="translate(712.740234 0)"/>
      <use xlink:href="#DejaVuSans-30" transform="translate(744.527344 0)"/>
      <use xlink:href="#DejaVuSans-30" transform="translate(808.150391 0)"/>
      <use xlink:href="#DejaVuSans-30" transform="translate(871.773438 0)"/>
     </g>
    </g>
   </g>
   <g id="line2d_20">
    <path d="M 99.815919 382.358256 
L 100.46156 375.773333 
L 101.107202 380.279831 
L 101.752843 376.780613 
L 103.689766 372.640142 
L 104.335407 367.647776 
L 104.981048 365.834139 
L 106.27233 360.597899 
L 108.854894 357.507164 
L 109.500536 360.668165 
L 110.146177 361.718173 
L 110.791818 353.828118 
L 112.728741 349.076999 
L 113.374382 351.128612 
L 114.020023 351.935136 
L 114.665664 349.063174 
L 115.311305 343.764291 
L 117.248228 350.388888 
L 117.893869 345.954289 
L 118.539511 339.075739 
L 119.185152 323.576048 
L 119.830793 328.325812 
L 121.767716 328.867998 
L 122.413357 326.159979 
L 123.058998 329.786493 
L 123.704639 335.53511 
L 124.35028 338.263046 
L 126.287203 336.534451 
L 126.932844 333.701921 
L 127.578486 329.644109 
L 128.224127 333.648322 
L 128.869768 335.189535 
L 131.452332 338.70263 
L 132.097973 339.131039 
L 132.743614 333.361598 
L 133.389255 337.119393 
L 135.326178 336.386456 
L 135.971819 333.46748 
L 136.617461 335.948618 
L 137.263102 334.418663 
L 137.908743 329.824837 
L 139.845666 331.283158 
L 140.491307 332.815109 
L 141.136948 330.769337 
L 141.782589 336.032548 
L 142.42823 339.399796 
L 144.365153 335.303232 
L 145.010794 329.364808 
L 145.656436 326.819948 
L 146.302077 321.894956 
L 146.947718 320.665962 
L 148.884641 320.272248 
L 149.530282 314.424627 
L 150.175923 318.050793 
L 150.821564 319.06633 
L 151.467205 317.980491 
L 153.404128 321.176781 
L 154.049769 321.372352 
L 154.695411 318.077064 
L 155.341052 317.138072 
L 155.986693 325.488874 
L 157.923616 328.554854 
L 158.569257 328.929313 
L 159.214898 331.667133 
L 159.860539 328.725904 
L 162.443103 327.37862 
L 163.088744 327.944831 
L 163.734386 329.821643 
L 164.380027 326.468173 
L 165.025668 325.645569 
L 166.962591 326.244063 
L 167.608232 325.968978 
L 168.253873 326.515208 
L 168.899514 329.908313 
L 169.545155 329.921935 
L 171.482078 331.801946 
L 172.12772 334.698049 
L 172.773361 332.837986 
L 173.419002 325.576125 
L 174.064643 325.472694 
L 176.001566 325.579533 
L 176.647207 326.814454 
L 177.292848 328.72349 
L 177.938489 329.139901 
L 178.58413 322.282597 
L 180.521053 321.501838 
L 181.166695 321.787497 
L 181.812336 318.70212 
L 182.457977 318.652301 
L 183.103618 320.202313 
L 185.040541 317.527294 
L 185.686182 317.192834 
L 186.977464 310.622913 
L 187.623105 312.414774 
L 189.560028 310.391321 
L 190.20567 312.882553 
L 190.851311 313.027206 
L 191.496952 302.366986 
L 192.142593 298.768607 
L 194.725157 295.992447 
L 195.370798 299.64784 
L 196.016439 293.163446 
L 196.66208 293.249753 
L 198.599003 295.178325 
L 199.244645 299.196776 
L 199.890286 302.209336 
L 200.535927 298.828582 
L 201.181568 299.678627 
L 203.118491 298.403324 
L 205.055414 291.150954 
L 205.701055 291.644737 
L 208.28362 290.04492 
L 208.929261 290.742461 
L 209.574902 288.409571 
L 210.220543 288.216318 
L 212.157466 291.763765 
L 212.803107 285.235728 
L 213.448748 285.599766 
L 214.094389 285.658347 
L 214.74003 290.332201 
L 217.968236 289.104341 
L 218.613877 289.439162 
L 219.259518 288.308666 
L 221.196441 288.666659 
L 221.842082 284.597819 
L 222.487723 283.215986 
L 223.133364 271.487852 
L 223.779005 272.23884 
L 225.715929 271.011958 
L 226.36157 269.67873 
L 227.007211 268.066723 
L 227.652852 274.802646 
L 228.298493 276.710153 
L 230.235416 276.973411 
L 230.881057 275.232227 
L 231.526698 274.589781 
L 232.172339 275.503814 
L 232.81798 270.431876 
L 234.754904 270.224174 
L 235.400545 271.712109 
L 236.046186 277.669486 
L 236.691827 276.543865 
L 237.337468 277.062483 
L 239.274391 275.245071 
L 239.920032 276.426631 
L 240.565673 281.043988 
L 241.211314 280.961249 
L 241.856955 283.830907 
L 243.793879 280.153784 
L 246.376443 289.328168 
L 248.313366 283.227108 
L 248.959007 284.458604 
L 249.604648 280.981185 
L 250.250289 284.236199 
L 250.89593 283.974238 
L 252.832854 283.022835 
L 253.478495 275.091387 
L 254.124136 275.014855 
L 254.769777 275.937211 
L 255.415418 276.331446 
L 257.997982 275.927381 
L 258.643623 277.80293 
L 259.289264 277.12951 
L 259.934905 277.123484 
L 261.871829 275.895489 
L 262.51747 277.265929 
L 263.163111 276.134244 
L 263.808752 273.49505 
L 264.454393 277.718876 
L 266.391316 277.424139 
L 267.036957 279.221381 
L 268.328239 287.621405 
L 268.97388 288.208965 
L 270.910804 286.31191 
L 271.556445 289.279868 
L 272.202086 288.541699 
L 272.847727 285.287325 
L 273.493368 286.021928 
L 275.430291 284.661701 
L 276.075932 288.990209 
L 276.721573 285.759109 
L 277.367214 284.772541 
L 278.012855 279.931693 
L 279.949779 280.044785 
L 281.241061 276.680437 
L 281.886702 277.340697 
L 282.532343 281.115968 
L 284.469266 278.516497 
L 285.114907 280.170896 
L 285.760548 284.827995 
L 286.406189 286.662694 
L 287.05183 288.922503 
L 288.988754 285.092562 
L 289.634395 282.198153 
L 290.280036 288.783065 
L 290.925677 293.938759 
L 294.153882 288.880755 
L 295.445164 279.373176 
L 296.090805 276.851721 
L 298.027729 275.322411 
L 298.67337 273.278295 
L 299.319011 272.793052 
L 299.964652 271.891995 
L 300.610293 268.534053 
L 302.547216 268.278705 
L 303.192857 265.427098 
L 303.838498 265.321784 
L 304.484139 264.353255 
L 305.12978 264.246452 
L 307.066704 260.033159 
L 307.712345 261.040616 
L 308.357986 259.778182 
L 309.649268 259.983539 
L 311.586191 258.880477 
L 312.231832 256.474618 
L 312.877473 257.445854 
L 313.523114 260.184957 
L 314.168755 258.692909 
L 316.105679 259.4882 
L 316.75132 258.117863 
L 317.396961 261.195513 
L 318.688243 252.888552 
L 320.625166 257.580254 
L 321.270807 254.668747 
L 321.916448 250.504659 
L 322.562089 250.240103 
L 323.20773 249.769275 
L 325.144654 245.750078 
L 325.790295 244.115382 
L 326.435936 245.324689 
L 327.081577 241.80935 
L 327.727218 240.704093 
L 330.309782 240.754026 
L 330.955423 238.140067 
L 331.601064 237.833683 
L 332.246705 248.451615 
L 335.474911 258.217639 
L 336.120552 257.935782 
L 336.766193 256.431878 
L 338.703116 250.096492 
L 339.348757 250.152258 
L 339.994398 247.588999 
L 340.640039 248.861957 
L 341.28568 250.43073 
L 343.868245 249.186385 
L 344.513886 250.115061 
L 345.159527 249.141605 
L 345.805168 245.416652 
L 347.742091 245.31731 
L 349.033373 244.439843 
L 349.679014 244.976954 
L 350.324655 244.315347 
L 352.261579 243.367963 
L 352.90722 243.63736 
L 353.552861 245.312069 
L 354.198502 243.794951 
L 354.844143 242.700994 
L 357.426707 242.085497 
L 358.072348 240.841891 
L 359.36363 239.383998 
L 361.300554 240.193618 
L 361.946195 240.649964 
L 362.591836 238.949982 
L 363.237477 239.412981 
L 363.883118 241.184439 
L 366.465682 242.128569 
L 367.111323 242.625207 
L 367.756964 234.608653 
L 368.402605 235.342983 
L 370.339529 235.705457 
L 370.98517 236.62867 
L 371.630811 237.215868 
L 372.276452 235.092568 
L 372.922093 235.068694 
L 375.504657 236.085828 
L 376.150298 236.704888 
L 376.795939 235.848371 
L 379.378504 236.933313 
L 380.024145 233.962324 
L 380.669786 234.142624 
L 381.315427 233.628015 
L 381.961068 233.573955 
L 383.897991 232.146995 
L 384.543632 231.466886 
L 385.189273 229.85091 
L 385.834914 229.62634 
L 386.480555 229.014205 
L 388.417479 228.973645 
L 389.06312 229.195534 
L 389.708761 228.854246 
L 390.354402 232.215369 
L 392.936966 233.697141 
L 393.582607 233.453931 
L 394.873889 233.240241 
L 395.51953 232.719402 
L 397.456454 233.363253 
L 398.102095 233.05902 
L 398.747736 231.818695 
L 399.393377 231.728827 
L 400.039018 230.588356 
L 401.975941 229.572593 
L 402.621582 229.676003 
L 403.267223 230.399829 
L 403.912864 229.766779 
L 404.558506 232.079491 
L 406.495429 231.890869 
L 407.14107 232.356436 
L 407.786711 230.343714 
L 408.432352 230.367126 
L 409.077993 231.867644 
L 411.014916 233.635332 
L 411.660557 232.743196 
L 412.306198 231.326799 
L 412.951839 229.390774 
L 413.597481 228.886586 
L 415.534404 229.025855 
L 416.180045 228.089719 
L 416.825686 228.064318 
L 418.116968 227.47869 
L 420.699532 228.026473 
L 421.345173 228.533157 
L 421.990814 227.173913 
L 422.636456 227.489271 
L 424.573379 227.801117 
L 425.21902 228.433416 
L 425.864661 227.673337 
L 426.510302 227.101345 
L 427.155943 228.369672 
L 430.384148 228.552546 
L 431.029789 227.508552 
L 434.257995 226.766394 
L 434.903636 228.28734 
L 436.194918 226.649078 
L 438.131841 226.20038 
L 438.777482 225.846364 
L 439.423123 226.401208 
L 440.714406 226.32683 
L 442.651329 227.054724 
L 443.29697 226.649204 
L 444.588252 225.219653 
L 445.233893 225.840445 
L 447.170816 224.998952 
L 447.816457 223.877959 
L 448.462098 223.876365 
L 449.107739 223.759182 
L 449.753381 225.322416 
L 451.690304 227.231523 
L 452.335945 229.962 
L 452.981586 231.719472 
L 454.272868 233.042434 
L 456.209791 233.048259 
L 457.501073 234.13576 
L 458.146715 231.427392 
L 458.792356 231.199145 
L 460.729279 231.2671 
L 461.37492 231.432012 
L 462.020561 230.993753 
L 462.666202 229.696666 
L 463.311843 231.24606 
L 465.248766 230.806608 
L 466.540048 229.087748 
L 467.18569 229.415364 
L 467.831331 227.648948 
L 470.413895 227.10399 
L 471.059536 224.006945 
L 471.705177 223.117326 
L 472.350818 223.700342 
L 474.287741 223.488793 
L 474.933382 220.783287 
L 475.579023 222.695595 
L 476.224665 218.162826 
L 476.870306 216.76906 
L 478.807229 217.135929 
L 479.45287 217.645475 
L 480.098511 217.544383 
L 480.744152 219.592824 
L 481.389793 220.01883 
L 483.326716 219.714517 
L 483.972357 219.468087 
L 484.617998 219.091115 
L 485.26364 218.389063 
L 485.909281 217.273033 
L 488.491845 216.991067 
L 489.137486 217.457963 
L 489.783127 217.473334 
L 490.428768 216.083425 
L 493.011332 215.837993 
L 493.656973 216.21869 
L 494.302615 216.316754 
L 494.948256 218.745626 
L 496.885179 218.403319 
L 497.53082 219.425329 
L 498.176461 220.885126 
L 498.822102 222.77651 
L 499.467743 222.972989 
L 501.404666 223.241255 
L 502.050307 222.81328 
L 502.695948 222.658142 
L 503.34159 221.998776 
L 503.987231 221.813347 
L 505.924154 221.611177 
L 506.569795 222.325789 
L 507.215436 221.883389 
L 508.506718 224.336706 
L 510.443641 224.765584 
L 511.089282 227.700488 
L 512.380565 228.151294 
L 513.026206 225.12846 
L 514.963129 225.99894 
L 515.60877 225.965376 
L 516.254411 225.373811 
L 516.900052 225.01253 
L 517.545693 227.376862 
L 520.128257 227.509256 
L 520.773899 228.24035 
L 521.41954 227.670936 
L 522.065181 224.903427 
L 524.002104 224.798208 
L 524.647745 224.648792 
L 525.293386 224.249289 
L 525.939027 223.238896 
L 526.584668 222.733867 
L 528.521591 222.699334 
L 529.167232 223.180783 
L 531.104156 217.501915 
L 533.041079 217.742501 
L 533.68672 216.8635 
L 534.332361 218.456608 
L 535.623643 227.213783 
L 537.560566 227.669874 
L 538.206207 230.914888 
L 538.851849 219.943342 
L 539.49749 218.656192 
L 540.143131 223.17729 
L 542.080054 223.015478 
L 542.725695 228.611054 
L 543.371336 239.308551 
L 544.016977 218.379002 
L 544.662618 223.30195 
L 546.599541 221.832462 
L 547.245182 224.739169 
L 547.890824 215.403632 
L 549.182106 215.241757 
L 551.119029 213.588639 
L 551.76467 214.011217 
L 552.410311 213.541071 
L 553.055952 211.771727 
L 553.701593 213.439696 
L 555.638516 212.858728 
L 556.284157 212.008969 
L 556.929799 209.101991 
L 557.57544 207.510378 
L 558.221081 207.565098 
L 560.158004 207.914755 
L 560.803645 208.303021 
L 561.449286 206.696729 
L 562.094927 211.593977 
L 562.740568 200.117439 
L 564.677491 199.212231 
L 565.323132 196.344688 
L 566.614415 195.018947 
L 567.260056 195.31667 
L 569.196979 194.618991 
L 569.84262 201.976856 
L 571.133902 202.200196 
L 571.779543 195.814643 
L 573.716466 196.215141 
L 574.362107 189.159225 
L 575.007749 188.525942 
L 576.299031 188.574699 
L 578.881595 187.189599 
L 579.527236 187.707127 
L 580.172877 187.766052 
L 580.818518 191.485764 
L 583.401083 191.850853 
L 584.046724 192.698963 
L 584.692365 192.586368 
L 585.338006 192.971826 
L 587.274929 191.946297 
L 587.92057 188.367161 
L 588.566211 188.8486 
L 589.211852 187.18045 
L 589.857493 188.270988 
L 592.440058 187.60753 
L 593.085699 187.229838 
L 593.73134 187.395266 
L 594.376981 188.775112 
L 596.313904 189.072926 
L 596.959545 189.324689 
L 597.605186 187.58122 
L 598.250827 186.62484 
L 598.896468 186.201033 
L 602.124674 186.427877 
L 602.770315 186.153012 
L 603.415956 187.8384 
L 605.352879 187.897821 
L 605.99852 192.618153 
L 606.644161 189.558803 
L 607.289802 195.944714 
L 607.935443 186.812559 
L 609.872366 186.361881 
L 610.518008 185.172272 
L 611.163649 187.978421 
L 611.80929 188.199507 
L 612.454931 182.753256 
L 614.391854 183.562191 
L 615.037495 174.027809 
L 615.683136 170.82422 
L 616.328777 173.129352 
L 616.974418 166.460051 
L 618.911341 166.594228 
L 619.556983 166.959462 
L 620.202624 164.06803 
L 621.493906 162.744424 
L 623.430829 161.451692 
L 624.07647 163.103822 
L 624.722111 158.578385 
L 625.367752 158.439537 
L 626.013393 154.055008 
L 627.950316 163.334076 
L 628.595958 164.561221 
L 629.241599 164.993647 
L 629.88724 159.715241 
L 630.532881 164.347565 
L 632.469804 164.020312 
L 633.115445 169.13468 
L 633.761086 140.739018 
L 634.406727 128.311952 
L 636.989292 129.888094 
L 637.634933 129.7965 
L 638.280574 128.408048 
L 638.926215 128.729931 
L 641.508779 127.354099 
L 642.15442 126.596439 
L 642.800061 127.664105 
L 643.445702 130.522636 
L 644.091343 136.463763 
L 646.028267 136.701225 
L 646.673908 136.434069 
L 647.319549 135.537049 
L 647.96519 135.384479 
L 648.610831 135.707248 
L 651.193395 136.189306 
L 651.839036 135.919735 
L 652.484677 133.970683 
L 653.130318 134.849037 
L 655.067242 135.188383 
L 656.358524 141.73751 
L 657.004165 137.93944 
L 657.649806 140.167647 
L 659.586729 139.815352 
L 660.23237 140.517263 
L 660.878011 139.408742 
L 661.523652 139.53663 
L 662.169293 139.257305 
L 665.397499 138.12061 
L 666.04314 137.816277 
L 666.688781 135.643768 
L 668.625704 136.89787 
L 669.271345 137.58657 
L 670.562627 136.890332 
L 671.208268 135.996052 
L 673.145192 135.859154 
L 673.790833 136.241873 
L 674.436474 135.741204 
L 675.727756 133.86991 
L 677.664679 133.67487 
L 678.31032 133.26861 
L 678.955961 133.159161 
L 680.247243 133.578846 
L 682.829808 132.464339 
L 683.475449 133.916655 
L 684.12109 134.411238 
L 684.766731 133.251511 
L 686.703654 138.829468 
L 687.349295 139.958975 
L 687.994936 138.01584 
L 688.640577 137.328531 
L 691.223142 137.629208 
L 691.868783 137.51563 
L 692.514424 136.679714 
L 693.160065 136.782911 
L 693.805706 137.183516 
L 695.742629 137.153365 
L 696.38827 136.871166 
L 697.033911 137.666297 
L 697.679552 138.641032 
L 698.325193 137.18774 
L 700.907758 137.612626 
L 701.553399 136.928327 
L 702.19904 136.643509 
L 702.844681 135.96133 
L 704.781604 135.673489 
L 706.072886 136.222027 
L 706.718527 135.223639 
L 707.364168 134.776895 
L 709.301092 134.770585 
L 709.946733 133.850339 
L 710.592374 133.393735 
L 711.238015 134.668607 
L 711.883656 135.366803 
L 713.820579 135.230431 
L 714.46622 135.565763 
L 715.111861 135.208129 
L 715.757502 135.758741 
L 716.403143 135.525046 
L 718.340067 135.554609 
L 718.985708 135.029456 
L 719.631349 134.122857 
L 720.27699 134.189993 
L 720.922631 131.498011 
L 722.859554 131.315052 
L 723.505195 130.228441 
L 724.150836 130.492933 
L 724.796477 130.36738 
L 725.442118 129.629305 
L 728.670324 129.154009 
L 729.315965 129.140085 
L 729.961606 128.432281 
L 731.898529 129.096012 
L 732.54417 129.480781 
L 733.189811 130.51727 
L 733.835452 130.247795 
L 734.481093 131.186839 
L 736.418017 131.264035 
L 737.063658 131.043832 
L 738.35494 131.9094 
L 739.000581 133.987549 
L 741.583145 133.965433 
L 742.228786 133.376562 
L 742.874427 135.307478 
L 743.520068 133.166841 
L 745.456992 132.824992 
L 746.102633 134.19989 
L 746.748274 137.406184 
L 747.393915 139.276754 
L 748.039556 139.274066 
L 749.976479 139.482628 
L 750.62212 138.535209 
L 751.267761 139.468945 
L 751.913402 140.070959 
L 752.559043 136.883588 
L 754.495967 136.214119 
L 755.141608 135.340887 
L 755.787249 137.038187 
L 756.43289 136.39107 
L 757.078531 132.517352 
L 759.015454 132.689809 
L 759.661095 132.968831 
L 760.306736 130.900074 
L 760.952377 129.34083 
L 761.598018 129.230457 
L 764.180583 129.264038 
L 764.826224 129.515549 
L 765.471865 129.2141 
L 766.117506 125.819958 
L 768.054429 125.275727 
L 768.70007 126.308472 
L 769.345711 122.371362 
L 769.991352 127.059201 
L 770.636993 123.574518 
L 772.573917 123.720727 
L 773.219558 122.855245 
L 774.51084 125.38492 
L 775.156481 127.406905 
L 777.739045 126.578758 
L 778.384686 125.286279 
L 779.030327 128.406612 
L 779.675968 128.537668 
L 781.612892 128.676975 
L 782.258533 127.466272 
L 782.904174 129.847027 
L 784.195456 132.759683 
L 786.132379 132.614327 
L 786.77802 130.189362 
L 787.423661 129.916332 
L 788.069302 129.488812 
L 788.714943 128.43314 
L 790.651867 128.412509 
L 791.297508 128.731894 
L 791.943149 128.830596 
L 792.58879 127.592967 
L 793.234431 125.529644 
L 795.171354 124.461211 
L 795.816995 122.51691 
L 796.462636 124.737194 
L 797.108277 123.487522 
L 797.753918 117.758645 
L 799.690842 117.467809 
L 800.336483 116.860983 
L 800.982124 116.465384 
L 802.273406 115.326188 
L 804.85597 114.404306 
L 805.501611 117.712334 
L 806.792893 119.028206 
L 808.729817 118.974269 
L 809.375458 118.252869 
L 810.021099 118.023882 
L 810.66674 117.339733 
L 811.312381 117.05267 
L 813.249304 117.139119 
L 814.540586 118.741691 
L 815.186227 116.444678 
L 815.831869 117.83891 
L 818.414433 116.597581 
L 819.060074 115.213536 
L 819.705715 115.770242 
L 820.351356 114.08442 
L 822.288279 113.392223 
L 822.93392 112.333063 
L 823.579561 112.678451 
L 824.225202 111.79605 
L 824.870844 110.144583 
L 826.807767 109.562039 
L 827.453408 110.761797 
L 828.099049 113.568549 
L 828.74469 130.288894 
L 829.390331 83.233904 
L 831.327254 82.733675 
L 831.972895 81.984612 
L 832.618536 80.069927 
L 833.264177 80.377813 
L 833.909819 74.190265 
L 836.492383 74.630364 
L 837.138024 74.495381 
L 838.429306 72.479829 
L 840.366229 71.605791 
L 841.01187 71.088665 
L 842.303152 66.378642 
L 842.948794 64.175768 
L 844.885717 63.023133 
L 845.531358 60.930335 
L 846.176999 60.397435 
L 846.82264 57.338013 
L 847.468281 54.990019 
L 850.050845 54.211227 
L 850.696486 55.100342 
L 851.342127 52.60246 
L 851.987769 52.870422 
L 853.924692 53.036352 
L 854.570333 52.319731 
L 855.215974 49.844731 
L 856.507256 48.682333 
L 858.444179 47.559384 
L 859.08982 47.533901 
L 859.735461 47.756246 
L 860.381102 45.002991 
L 861.026744 48.029454 
L 862.963667 47.380592 
L 863.609308 41.679474 
L 863.609308 41.679474 
" clip-path="url(#pbeab9b1f05)" style="fill: none; stroke: #1f77b4; stroke-width: 2.8; stroke-linecap: square"/>
   </g>
   <g id="line2d_21">
    <path d="M 99.815919 382.358256 
L 100.46156 380.403187 
L 101.107202 383.315838 
L 101.752843 377.530398 
L 103.689766 377.676743 
L 104.335407 375.867892 
L 104.981048 372.582847 
L 106.27233 370.601126 
L 108.854894 371.086564 
L 109.500536 375.262761 
L 110.146177 377.157983 
L 110.791818 372.343399 
L 112.728741 369.184694 
L 113.374382 369.47061 
L 114.020023 369.370859 
L 114.665664 366.444913 
L 115.311305 365.826424 
L 117.248228 369.211283 
L 117.893869 365.294455 
L 118.539511 362.421687 
L 119.185152 358.444992 
L 119.830793 361.390922 
L 121.767716 363.066681 
L 122.413357 359.502283 
L 123.058998 362.521396 
L 123.704639 364.888826 
L 124.35028 364.257022 
L 126.287203 361.071728 
L 126.932844 361.198047 
L 127.578486 360.306958 
L 128.224127 364.097467 
L 128.869768 364.775738 
L 131.452332 370.208791 
L 132.097973 370.574473 
L 132.743614 369.16471 
L 133.389255 372.010931 
L 135.326178 371.113174 
L 136.617461 373.101522 
L 137.263102 371.059975 
L 137.908743 366.817285 
L 139.845666 366.631078 
L 140.491307 370.754118 
L 141.136948 370.321836 
L 141.782589 375.216167 
L 142.42823 378.97344 
L 144.365153 379.339185 
L 145.010794 375.103142 
L 145.656436 376.732391 
L 146.302077 372.19047 
L 146.947718 375.270509 
L 148.884641 372.767234 
L 149.530282 369.316072 
L 150.175923 373.855305 
L 150.821564 373.147692 
L 151.467205 371.425425 
L 153.404128 370.931476 
L 154.049769 371.525599 
L 154.695411 367.687247 
L 155.341052 366.118585 
L 155.986693 362.320264 
L 157.923616 361.278893 
L 158.569257 362.800876 
L 159.214898 363.515157 
L 159.860539 362.453759 
L 163.088744 362.099995 
L 163.734386 363.214782 
L 164.380027 359.596763 
L 165.025668 360.27097 
L 166.962591 359.282988 
L 167.608232 359.102772 
L 168.253873 359.149493 
L 168.899514 360.658097 
L 169.545155 360.444475 
L 171.482078 360.157459 
L 172.12772 364.529812 
L 172.773361 365.677984 
L 173.419002 360.304333 
L 174.064643 357.9546 
L 176.001566 358.234991 
L 176.647207 361.352372 
L 177.938489 365.163966 
L 178.58413 360.157459 
L 180.521053 360.084022 
L 181.166695 361.292272 
L 181.812336 360.010627 
L 183.103618 360.851734 
L 185.040541 359.903848 
L 185.686182 361.74621 
L 186.331823 358.421875 
L 186.977464 355.751742 
L 187.623105 356.158917 
L 189.560028 356.045448 
L 190.20567 359.182898 
L 190.851311 361.185472 
L 191.496952 358.809045 
L 192.142593 355.224388 
L 194.725157 355.117545 
L 195.370798 356.672913 
L 196.016439 354.022785 
L 196.66208 349.950869 
L 198.599003 350.498228 
L 199.244645 349.877432 
L 199.890286 350.865371 
L 200.535927 349.143146 
L 201.181568 348.629129 
L 203.118491 346.025743 
L 203.764132 344.116612 
L 204.409773 343.769474 
L 205.055414 340.151433 
L 205.701055 341.157811 
L 208.28362 342.685425 
L 208.929261 344.186281 
L 209.574902 343.134346 
L 210.220543 345.345397 
L 212.157466 346.531292 
L 212.803107 343.362151 
L 213.448748 343.214727 
L 214.094389 342.062343 
L 214.74003 338.598352 
L 216.676953 338.256634 
L 217.968236 338.698886 
L 218.613877 341.023829 
L 219.259518 341.767536 
L 221.196441 341.023829 
L 221.842082 339.147786 
L 223.133364 334.390676 
L 223.779005 334.578238 
L 225.715929 333.533036 
L 226.36157 331.288494 
L 227.007211 330.611768 
L 227.652852 332.635257 
L 228.298493 332.635257 
L 230.235416 331.281805 
L 230.881057 330.450943 
L 231.526698 330.404011 
L 232.172339 332.427521 
L 232.81798 329.459321 
L 234.754904 328.876418 
L 235.400545 329.75417 
L 236.046186 334.008778 
L 236.691827 334.873088 
L 237.337468 336.233187 
L 239.274391 333.620127 
L 239.920032 334.933378 
L 240.565673 336.943425 
L 241.211314 336.836222 
L 241.856955 337.010426 
L 243.793879 335.362188 
L 244.43952 338.859648 
L 245.730802 343.281707 
L 246.376443 343.141057 
L 248.313366 341.238192 
L 248.959007 342.0355 
L 249.604648 338.765845 
L 250.250289 342.879761 
L 250.89593 340.816071 
L 252.832854 338.946739 
L 253.478495 334.658661 
L 254.124136 333.419122 
L 254.769777 333.861333 
L 255.415418 333.29852 
L 257.997982 334.605039 
L 258.643623 336.628464 
L 259.289264 337.546439 
L 259.934905 337.097539 
L 261.871829 335.134362 
L 262.51747 336.7826 
L 263.163111 336.434213 
L 263.808752 333.854664 
L 264.454393 337.490191 
L 266.391316 337.315331 
L 267.036957 337.933989 
L 267.682598 340.670531 
L 268.328239 345.545301 
L 268.97388 346.197491 
L 270.910804 344.980498 
L 271.556445 349.250073 
L 272.202086 349.135821 
L 272.847727 347.475009 
L 273.493368 348.17428 
L 275.430291 348.288617 
L 276.075932 352.134611 
L 276.721573 350.070371 
L 277.367214 350.177997 
L 278.012855 346.78918 
L 279.949779 344.940128 
L 280.59542 343.427269 
L 281.241061 342.230429 
L 281.886702 344.01902 
L 282.532343 345.471334 
L 284.469266 342.418731 
L 285.114907 342.432174 
L 285.760548 346.338692 
L 286.406189 348.880284 
L 287.05183 352.403549 
L 288.988754 352.894407 
L 289.634395 350.762953 
L 290.280036 354.851042 
L 290.925677 358.21289 
L 291.571318 359.470275 
L 293.508241 356.168866 
L 294.153882 354.413976 
L 294.799523 351.415123 
L 295.445164 345.968882 
L 296.090805 343.326438 
L 298.027729 342.654031 
L 298.67337 341.82029 
L 299.319011 341.605165 
L 299.964652 343.897973 
L 300.610293 339.345975 
L 302.547216 339.628377 
L 303.192857 333.886249 
L 303.838498 333.247459 
L 305.12978 332.501127 
L 307.066704 330.167949 
L 307.712345 330.833646 
L 308.357986 329.65698 
L 309.649268 329.468762 
L 311.586191 330.020038 
L 312.231832 329.717504 
L 312.877473 329.932671 
L 313.523114 328.729141 
L 314.168755 326.913685 
L 316.105679 328.534085 
L 316.75132 328.594609 
L 317.396961 329.83182 
L 318.042602 327.498663 
L 318.688243 326.174065 
L 320.625166 324.970492 
L 321.270807 323.551796 
L 321.916448 319.248561 
L 322.562089 318.233291 
L 323.20773 318.75584 
L 325.144654 316.973557 
L 325.790295 315.035974 
L 326.435936 319.478165 
L 327.081577 316.480688 
L 327.727218 315.839336 
L 330.309782 314.489186 
L 330.955423 313.908527 
L 331.601064 313.787056 
L 332.246705 314.718706 
L 334.82927 316.514474 
L 335.474911 319.120358 
L 336.120552 320.139819 
L 336.766193 319.707706 
L 338.703116 315.198026 
L 339.348757 315.684079 
L 339.994398 313.874825 
L 340.640039 314.016576 
L 341.28568 313.793831 
L 343.868245 314.975238 
L 344.513886 316.757522 
L 345.159527 313.922033 
L 345.805168 309.911933 
L 347.742091 309.223309 
L 348.387732 308.271443 
L 349.033373 307.913657 
L 349.679014 306.131352 
L 350.324655 306.549916 
L 352.261579 303.944053 
L 352.90722 304.200565 
L 353.552861 309.60815 
L 354.198502 305.341454 
L 354.844143 301.86474 
L 356.781066 303.079913 
L 357.426707 302.114456 
L 358.072348 299.333056 
L 358.717989 299.184552 
L 359.36363 297.240237 
L 361.300554 297.388762 
L 361.946195 302.04701 
L 362.591836 299.015767 
L 363.237477 296.693386 
L 363.883118 298.381168 
L 366.465682 300.237672 
L 367.111323 299.933911 
L 367.756964 292.987068 
L 368.402605 292.750795 
L 370.339529 294.006486 
L 370.98517 293.37193 
L 371.630811 293.824217 
L 372.276452 292.595559 
L 372.922093 289.375335 
L 374.859016 289.746585 
L 375.504657 293.203166 
L 376.150298 291.468112 
L 376.795939 288.052092 
L 377.44158 290.138137 
L 379.378504 290.435188 
L 380.024145 286.722095 
L 381.315427 287.957549 
L 381.961068 290.34473 
L 383.897991 288.292811 
L 384.543632 286.3627 
L 385.189273 283.132506 
L 385.834914 281.967717 
L 386.480555 282.638198 
L 388.417479 283.613309 
L 389.06312 284.263403 
L 389.708761 281.310784 
L 390.354402 281.378484 
L 392.936966 281.994793 
L 393.582607 284.243102 
L 394.228248 283.85716 
L 394.873889 288.150573 
L 395.51953 284.520719 
L 397.456454 284.324372 
L 398.102095 283.918065 
L 398.747736 287.439488 
L 399.393377 284.811948 
L 400.039018 289.653947 
L 401.975941 293.988026 
L 402.621582 294.611067 
L 403.267223 296.629136 
L 403.912864 297.32663 
L 404.558506 300.279249 
L 406.495429 297.191187 
L 407.14107 293.175392 
L 407.786711 293.33791 
L 408.432352 294.638185 
L 409.077993 291.407885 
L 411.014916 290.188901 
L 411.660557 295.660694 
L 412.306198 296.764558 
L 412.951839 293.595268 
L 413.597481 289.355965 
L 415.534404 285.78039 
L 416.180045 285.394364 
L 416.825686 285.360429 
L 417.471327 283.342423 
L 418.116968 282.888655 
L 420.053891 282.841277 
L 420.699532 281.22274 
L 421.345173 276.834531 
L 421.990814 277.57267 
L 422.636456 277.057996 
L 424.573379 276.644894 
L 425.21902 275.764538 
L 425.864661 276.800659 
L 426.510302 279.421362 
L 427.155943 277.06477 
L 429.738507 276.814208 
L 431.029789 281.689973 
L 431.675431 278.466574 
L 433.612354 278.175408 
L 434.257995 277.77577 
L 434.903636 273.523024 
L 435.549277 273.529714 
L 436.194918 273.969913 
L 438.131841 272.852543 
L 438.777482 271.979004 
L 439.423123 268.992535 
L 440.068764 268.254396 
L 440.714406 268.030845 
L 443.29697 264.164063 
L 445.233893 265.669681 
L 447.170816 266.87228 
L 447.816457 265.452313 
L 449.107739 264.40603 
L 449.753381 265.866727 
L 451.690304 265.10581 
L 452.335945 262.612464 
L 452.981586 260.947946 
L 454.272868 258.787554 
L 456.209791 258.352774 
L 456.855432 257.985864 
L 457.501073 254.249274 
L 458.146715 257.537494 
L 458.792356 255.152789 
L 460.729279 254.106549 
L 461.37492 251.844204 
L 462.020561 257.224947 
L 463.311843 262.626054 
L 465.248766 258.780695 
L 465.894407 259.37179 
L 466.540048 267.898113 
L 467.18569 269.814039 
L 467.831331 265.717271 
L 469.768254 265.499902 
L 470.413895 267.374971 
L 471.059536 261.389585 
L 471.705177 266.688782 
L 472.350818 273.557404 
L 474.287741 284.101478 
L 474.933382 280.860805 
L 475.579023 283.231897 
L 476.224665 275.086013 
L 476.870306 273.496224 
L 478.807229 273.305994 
L 479.45287 267.34779 
L 480.098511 266.186091 
L 480.744152 259.854202 
L 481.389793 259.011739 
L 483.326716 255.411015 
L 483.972357 256.029207 
L 484.617998 254.724868 
L 485.26364 257.714132 
L 485.909281 253.698908 
L 487.846204 254.609283 
L 488.491845 254.086184 
L 489.137486 256.300939 
L 489.783127 256.267068 
L 490.428768 252.645852 
L 493.011332 260.526715 
L 494.302615 262.204823 
L 494.948256 268.489208 
L 497.53082 262.761878 
L 498.822102 255.764292 
L 499.467743 253.780411 
L 502.050307 253.060309 
L 502.695948 254.194868 
L 503.34159 247.686383 
L 503.987231 248.356906 
L 505.924154 247.389247 
L 506.569795 246.278482 
L 507.215436 247.137118 
L 507.861077 245.596951 
L 508.506718 246.1626 
L 510.443641 244.602025 
L 511.089282 248.104777 
L 511.734923 247.941179 
L 512.380565 248.649977 
L 513.026206 245.133592 
L 514.963129 248.66361 
L 515.60877 245.004077 
L 516.254411 242.298612 
L 516.900052 242.986918 
L 517.545693 240.635873 
L 519.482616 237.4057 
L 520.128257 240.499541 
L 520.773899 238.782227 
L 521.41954 238.748229 
L 522.065181 237.221694 
L 524.647745 238.087189 
L 525.293386 241.719414 
L 525.939027 240.867594 
L 526.584668 241.003884 
L 528.521591 239.784011 
L 529.167232 239.143421 
L 529.812874 240.342844 
L 530.458515 248.091144 
L 531.104156 246.455629 
L 533.041079 247.293857 
L 533.68672 242.598457 
L 534.332361 232.826224 
L 534.978002 229.711848 
L 535.623643 227.953677 
L 537.560566 227.565216 
L 538.206207 228.832805 
L 538.851849 228.635124 
L 539.49749 231.252016 
L 540.143131 236.431182 
L 542.080054 234.795625 
L 542.725695 233.330524 
L 543.371336 233.194192 
L 544.016977 231.033927 
L 544.662618 229.780056 
L 546.599541 228.403487 
L 547.245182 226.277262 
L 547.890824 227.517542 
L 549.182106 224.982449 
L 551.76467 224.05569 
L 552.410311 221.500232 
L 553.055952 222.181637 
L 553.701593 221.397983 
L 555.638516 223.530982 
L 556.284157 224.812119 
L 556.929799 221.636437 
L 557.57544 223.76952 
L 558.221081 223.851192 
L 560.158004 222.093064 
L 560.803645 223.796744 
L 561.449286 236.069988 
L 562.094927 236.192644 
L 562.740568 231.395376 
L 564.677491 228.974852 
L 565.323132 224.455159 
L 566.614415 224.427808 
L 567.260056 228.756044 
L 569.84262 234.862097 
L 571.133902 235.846691 
L 571.779543 230.848398 
L 573.716466 228.516744 
L 574.362107 233.11849 
L 575.007749 232.530486 
L 576.299031 238.684339 
L 578.235954 238.068899 
L 578.881595 237.521921 
L 579.527236 230.2808 
L 580.172877 231.060347 
L 580.818518 226.998762 
L 583.401083 223.258615 
L 584.692365 218.677361 
L 585.338006 219.894524 
L 587.274929 225.774867 
L 587.92057 222.253401 
L 588.566211 224.106455 
L 589.211852 221.897923 
L 589.857493 224.099596 
L 591.794416 226.868866 
L 592.440058 224.126989 
L 593.73134 221.02269 
L 594.376981 224.817581 
L 596.313904 222.027861 
L 596.959545 221.713282 
L 597.605186 223.046624 
L 598.250827 218.691036 
L 598.896468 218.711571 
L 601.479033 217.487676 
L 602.124674 216.502997 
L 602.770315 218.246561 
L 603.415956 225.385051 
L 605.352879 227.251738 
L 605.99852 229.28253 
L 606.644161 229.07744 
L 607.289802 235.566365 
L 607.935443 229.323557 
L 609.872366 236.441555 
L 610.518008 241.166339 
L 611.163649 236.927057 
L 611.80929 244.003986 
L 612.454931 241.80913 
L 615.037495 255.484388 
L 615.683136 253.467314 
L 616.328777 258.561294 
L 616.974418 250.77328 
L 618.911341 247.805736 
L 619.556983 251.997175 
L 620.202624 247.819412 
L 620.848265 248.940762 
L 621.493906 248.813194 
L 623.430829 241.886399 
L 624.07647 240.939952 
L 624.722111 245.651568 
L 625.367752 246.687139 
L 626.013393 254.519228 
L 627.950316 251.961102 
L 628.595958 250.877561 
L 629.241599 248.442854 
L 630.532881 289.070896 
L 632.469804 289.688136 
L 633.115445 295.106095 
L 633.761086 259.347403 
L 634.406727 275.834482 
L 635.052368 269.415248 
L 636.989292 265.862705 
L 637.634933 266.898361 
L 638.280574 275.093845 
L 638.926215 274.579511 
L 641.508779 283.172855 
L 642.15442 274.003361 
L 642.800061 268.400296 
L 643.445702 260.671006 
L 644.091343 257.96207 
L 646.028267 257.818032 
L 646.673908 255.438281 
L 647.319549 255.287343 
L 647.96519 252.592081 
L 648.610831 246.906624 
L 650.547754 249.135521 
L 651.193395 252.365779 
L 651.839036 250.754058 
L 652.484677 248.072515 
L 653.130318 248.566273 
L 655.067242 235.775731 
L 655.712883 233.135341 
L 656.358524 232.620964 
L 657.004165 230.652664 
L 657.649806 228.08768 
L 659.586729 227.641934 
L 660.23237 229.01355 
L 660.878011 235.864855 
L 661.523652 235.707184 
L 662.169293 238.43674 
L 664.751858 230.179398 
L 665.397499 232.524981 
L 666.04314 230.93388 
L 666.688781 231.386484 
L 668.625704 229.109533 
L 669.271345 226.79147 
L 669.916986 226.901255 
L 670.562627 228.876414 
L 671.208268 224.699752 
L 673.145192 224.329412 
L 673.790833 221.997589 
L 674.436474 223.177197 
L 675.082115 221.538126 
L 675.727756 226.167392 
L 677.664679 222.271946 
L 678.31032 225.803912 
L 678.955961 225.8656 
L 680.247243 226.827924 
L 682.184167 222.790261 
L 682.829808 218.229837 
L 683.475449 217.995956 
L 684.12109 214.728694 
L 684.766731 212.637653 
L 686.703654 210.615329 
L 687.349295 210.752888 
L 687.994936 208.826927 
L 688.640577 205.463344 
L 691.223142 208.668749 
L 691.868783 208.902587 
L 692.514424 206.343827 
L 693.160065 205.133184 
L 693.805706 206.646466 
L 695.742629 205.827968 
L 696.38827 207.664467 
L 697.033911 206.233788 
L 697.679552 203.606184 
L 698.325193 203.922584 
L 700.262117 203.104043 
L 700.907758 203.042143 
L 701.553399 199.362118 
L 702.19904 199.2177 
L 702.844681 197.374257 
L 704.781604 197.484297 
L 705.427245 198.639941 
L 706.072886 199.190179 
L 706.718527 200.827218 
L 707.364168 207.953431 
L 709.301092 201.453244 
L 709.946733 203.654366 
L 710.592374 200.345781 
L 711.238015 200.710363 
L 711.883656 197.319259 
L 713.820579 198.185939 
L 714.46622 193.529152 
L 715.111861 192.015912 
L 715.757502 191.974674 
L 716.403143 193.013293 
L 718.340067 193.109614 
L 718.985708 195.510196 
L 719.631349 196.679558 
L 720.27699 198.440439 
L 720.922631 191.726991 
L 722.859554 193.680557 
L 723.505195 191.830213 
L 724.150836 190.819072 
L 724.796477 189.243932 
L 725.442118 191.905873 
L 728.024683 195.193796 
L 728.670324 192.806975 
L 729.315965 189.106373 
L 729.961606 190.399492 
L 731.898529 189.305832 
L 732.54417 188.27403 
L 733.189811 186.980868 
L 733.835452 183.252703 
L 734.481093 183.404065 
L 736.418017 180.996625 
L 737.709299 182.186564 
L 739.000581 177.811797 
L 740.937504 175.645985 
L 741.583145 178.149747 
L 742.228786 179.605194 
L 742.874427 181.708937 
L 743.520068 179.108515 
L 745.456992 177.825599 
L 746.748274 174.535432 
L 747.393915 174.004416 
L 748.039556 174.011232 
L 749.976479 172.35586 
L 750.62212 174.073344 
L 751.267761 171.321221 
L 751.913402 172.666248 
L 752.559043 185.17841 
L 754.495967 178.267069 
L 755.141608 178.825775 
L 755.787249 176.797861 
L 756.43289 179.922441 
L 757.078531 177.335864 
L 759.015454 172.569672 
L 759.661095 172.576616 
L 760.306736 174.983802 
L 760.952377 172.252384 
L 761.598018 168.465621 
L 763.534942 162.954475 
L 764.180583 161.699122 
L 764.826224 161.471507 
L 765.471865 166.686069 
L 766.117506 165.147891 
L 768.054429 164.264995 
L 768.70007 169.852014 
L 769.345711 168.238007 
L 769.991352 173.252516 
L 770.636993 172.797329 
L 772.573917 165.575516 
L 773.219558 164.499553 
L 773.865199 164.237432 
L 774.51084 172.059275 
L 775.156481 172.135104 
L 777.093404 176.45301 
L 777.739045 180.3087 
L 778.384686 178.549809 
L 779.030327 185.51636 
L 779.675968 181.032952 
L 781.612892 174.342366 
L 782.258533 170.003799 
L 782.904174 166.789503 
L 784.195456 164.230531 
L 786.132379 166.38254 
L 786.77802 165.513447 
L 787.423661 163.885637 
L 788.069302 163.540786 
L 788.714943 162.644087 
L 791.297508 164.471991 
L 791.943149 161.347327 
L 792.58879 160.243759 
L 793.234431 165.354845 
L 795.171354 166.065294 
L 795.816995 167.348209 
L 796.462636 172.500702 
L 797.108277 169.003666 
L 797.753918 164.774673 
L 799.690842 161.841466 
L 800.336483 159.676162 
L 800.982124 158.002034 
L 802.273406 158.05047 
L 804.85597 160.333349 
L 805.501611 163.854603 
L 806.792893 162.98987 
L 808.729817 159.842216 
L 809.375458 157.012782 
L 810.021099 158.555448 
L 810.66674 158.603883 
L 811.312381 155.449328 
L 813.249304 154.69527 
L 813.894945 155.656832 
L 814.540586 158.015879 
L 815.186227 156.715308 
L 815.831869 157.116555 
L 818.414433 166.856992 
L 819.060074 161.447162 
L 819.705715 158.97054 
L 820.351356 158.797627 
L 822.288279 156.376341 
L 822.93392 154.466977 
L 823.579561 154.515413 
L 824.225202 155.470074 
L 824.870844 156.902108 
L 826.807767 154.522315 
L 827.453408 158.590039 
L 828.099049 160.90065 
L 828.74469 166.829302 
L 829.390331 157.836022 
L 831.327254 155.532313 
L 831.972895 156.798335 
L 832.618536 156.908967 
L 833.264177 164.304243 
L 833.909819 163.972221 
L 836.492383 163.211261 
L 837.138024 160.831468 
L 837.783665 162.083645 
L 838.429306 158.659221 
L 840.366229 163.529439 
L 841.657511 156.085726 
L 842.948794 161.039014 
L 844.885717 160.769187 
L 845.531358 164.954529 
L 846.176999 161.633962 
L 846.82264 164.276596 
L 847.468281 170.454329 
L 849.405204 166.379619 
L 850.696486 167.721724 
L 851.342127 174.826471 
L 851.987769 177.434514 
L 853.924692 172.771799 
L 854.570333 171.554297 
L 855.215974 178.029462 
L 855.861615 179.157078 
L 856.507256 185.700578 
L 858.444179 180.976598 
L 859.08982 182.502709 
L 859.735461 179.977693 
L 861.026744 195.745093 
L 862.963667 197.21574 
L 863.609308 184.472745 
L 863.609308 184.472745 
" clip-path="url(#pbeab9b1f05)" style="fill: none; stroke-dasharray: 8.14,3.52; stroke-dashoffset: 0; stroke: #ff7f0e; stroke-width: 2.2"/>
   </g>
   <g id="patch_3">
    <path d="M 61.62625 400.397656 
L 61.62625 24.597656 
" style="fill: none; stroke: #000000; stroke-width: 0.8; stroke-linejoin: miter; stroke-linecap: square"/>
   </g>
   <g id="patch_4">
    <path d="M 61.62625 400.397656 
L 901.798977 400.397656 
" style="fill: none; stroke: #000000; stroke-width: 0.8; stroke-linejoin: miter; stroke-linecap: square"/>
   </g>
   <g id="text_21">
    <!-- $23,453 -->
    <g style="fill: #1f77b4" transform="translate(871.609308 44.438849) scale(0.1 -0.1)">
     <defs>
      <path id="DejaVuSans-Bold-24" d="M 2484 -941 
L 1978 -941 
L 1975 0 
Q 1584 16 1218 87 
Q 853 159 506 288 
L 506 1106 
Q 866 922 1233 823 
Q 1600 725 1978 713 
L 1978 1684 
L 1875 1703 
Q 1128 1834 814 2115 
Q 500 2397 500 2925 
Q 500 3484 883 3798 
Q 1266 4113 1975 4141 
L 1978 4863 
L 2484 4863 
L 2484 4153 
Q 2797 4128 3109 4075 
Q 3422 4022 3738 3938 
L 3738 3144 
Q 3425 3275 3112 3348 
Q 2800 3422 2484 3438 
L 2484 2541 
L 2584 2522 
Q 3378 2397 3698 2105 
Q 4019 1813 4019 1241 
Q 4019 666 3637 358 
Q 3256 50 2484 6 
L 2484 -941 
z
M 1978 2613 
L 1978 3428 
Q 1756 3416 1623 3308 
Q 1491 3200 1491 3034 
Q 1491 2850 1612 2745 
Q 1734 2641 1978 2613 
z
M 2484 1594 
L 2484 725 
Q 2756 728 2892 831 
Q 3028 934 3028 1141 
Q 3028 1353 2903 1458 
Q 2778 1563 2484 1594 
z
" transform="scale(0.015625)"/>
      <path id="DejaVuSans-Bold-32" d="M 1844 884 
L 3897 884 
L 3897 0 
L 506 0 
L 506 884 
L 2209 2388 
Q 2438 2594 2547 2791 
Q 2656 2988 2656 3200 
Q 2656 3528 2436 3728 
Q 2216 3928 1850 3928 
Q 1569 3928 1234 3808 
Q 900 3688 519 3450 
L 519 4475 
Q 925 4609 1322 4679 
Q 1719 4750 2100 4750 
Q 2938 4750 3402 4381 
Q 3866 4013 3866 3353 
Q 3866 2972 3669 2642 
Q 3472 2313 2841 1759 
L 1844 884 
z
" transform="scale(0.015625)"/>
      <path id="DejaVuSans-Bold-33" d="M 2981 2516 
Q 3453 2394 3698 2092 
Q 3944 1791 3944 1325 
Q 3944 631 3412 270 
Q 2881 -91 1863 -91 
Q 1503 -91 1142 -33 
Q 781 25 428 141 
L 428 1069 
Q 766 900 1098 814 
Q 1431 728 1753 728 
Q 2231 728 2486 893 
Q 2741 1059 2741 1369 
Q 2741 1688 2480 1852 
Q 2219 2016 1709 2016 
L 1228 2016 
L 1228 2791 
L 1734 2791 
Q 2188 2791 2409 2933 
Q 2631 3075 2631 3366 
Q 2631 3634 2415 3781 
Q 2200 3928 1806 3928 
Q 1516 3928 1219 3862 
Q 922 3797 628 3669 
L 628 4550 
Q 984 4650 1334 4700 
Q 1684 4750 2022 4750 
Q 2931 4750 3382 4451 
Q 3834 4153 3834 3553 
Q 3834 3144 3618 2883 
Q 3403 2622 2981 2516 
z
" transform="scale(0.015625)"/>
      <path id="DejaVuSans-Bold-2c" d="M 653 1209 
L 1778 1209 
L 1778 256 
L 1006 -909 
L 341 -909 
L 653 256 
L 653 1209 
z
" transform="scale(0.015625)"/>
      <path id="DejaVuSans-Bold-34" d="M 2356 3675 
L 1038 1722 
L 2356 1722 
L 2356 3675 
z
M 2156 4666 
L 3494 4666 
L 3494 1722 
L 4159 1722 
L 4159 850 
L 3494 850 
L 3494 0 
L 2356 0 
L 2356 850 
L 288 850 
L 288 1881 
L 2156 4666 
z
" transform="scale(0.015625)"/>
      <path id="DejaVuSans-Bold-35" d="M 678 4666 
L 3669 4666 
L 3669 3781 
L 1638 3781 
L 1638 3059 
Q 1775 3097 1914 3117 
Q 2053 3138 2203 3138 
Q 3056 3138 3531 2711 
Q 4006 2284 4006 1522 
Q 4006 766 3489 337 
Q 2972 -91 2053 -91 
Q 1656 -91 1267 -14 
Q 878 63 494 219 
L 494 1166 
Q 875 947 1217 837 
Q 1559 728 1863 728 
Q 2300 728 2551 942 
Q 2803 1156 2803 1522 
Q 2803 1891 2551 2103 
Q 2300 2316 1863 2316 
Q 1603 2316 1309 2248 
Q 1016 2181 678 2041 
L 678 4666 
z
" transform="scale(0.015625)"/>
     </defs>
     <use xlink:href="#DejaVuSans-Bold-24"/>
     <use xlink:href="#DejaVuSans-Bold-32" transform="translate(69.580078 0)"/>
     <use xlink:href="#DejaVuSans-Bold-33" transform="translate(139.160156 0)"/>
     <use xlink:href="#DejaVuSans-Bold-2c" transform="translate(208.740234 0)"/>
     <use xlink:href="#DejaVuSans-Bold-34" transform="translate(246.728516 0)"/>
     <use xlink:href="#DejaVuSans-Bold-35" transform="translate(316.308594 0)"/>
     <use xlink:href="#DejaVuSans-Bold-33" transform="translate(385.888672 0)"/>
    </g>
   </g>
   <g id="text_22">
    <!-- $17,814 -->
    <g style="fill: #ff7f0e" transform="translate(871.609308 195.23212) scale(0.1 -0.1)">
     <defs>
      <path id="DejaVuSans-Bold-31" d="M 750 831 
L 1813 831 
L 1813 3847 
L 722 3622 
L 722 4441 
L 1806 4666 
L 2950 4666 
L 2950 831 
L 4013 831 
L 4013 0 
L 750 0 
L 750 831 
z
" transform="scale(0.015625)"/>
      <path id="DejaVuSans-Bold-37" d="M 428 4666 
L 3944 4666 
L 3944 3988 
L 2125 0 
L 953 0 
L 2675 3781 
L 428 3781 
L 428 4666 
z
" transform="scale(0.015625)"/>
      <path id="DejaVuSans-Bold-38" d="M 2228 2088 
Q 1891 2088 1709 1903 
Q 1528 1719 1528 1375 
Q 1528 1031 1709 848 
Q 1891 666 2228 666 
Q 2563 666 2741 848 
Q 2919 1031 2919 1375 
Q 2919 1722 2741 1905 
Q 2563 2088 2228 2088 
z
M 1350 2484 
Q 925 2613 709 2878 
Q 494 3144 494 3541 
Q 494 4131 934 4440 
Q 1375 4750 2228 4750 
Q 3075 4750 3515 4442 
Q 3956 4134 3956 3541 
Q 3956 3144 3739 2878 
Q 3522 2613 3097 2484 
Q 3572 2353 3814 2058 
Q 4056 1763 4056 1313 
Q 4056 619 3595 264 
Q 3134 -91 2228 -91 
Q 1319 -91 855 264 
Q 391 619 391 1313 
Q 391 1763 633 2058 
Q 875 2353 1350 2484 
z
M 1631 3419 
Q 1631 3141 1786 2991 
Q 1941 2841 2228 2841 
Q 2509 2841 2662 2991 
Q 2816 3141 2816 3419 
Q 2816 3697 2662 3845 
Q 2509 3994 2228 3994 
Q 1941 3994 1786 3844 
Q 1631 3694 1631 3419 
z
" transform="scale(0.015625)"/>
     </defs>
     <use xlink:href="#DejaVuSans-Bold-24"/>
     <use xlink:href="#DejaVuSans-Bold-31" transform="translate(69.580078 0)"/>
     <use xlink:href="#DejaVuSans-Bold-37" transform="translate(139.160156 0)"/>
     <use xlink:href="#DejaVuSans-Bold-2c" transform="translate(208.740234 0)"/>
     <use xlink:href="#DejaVuSans-Bold-38" transform="translate(246.728516 0)"/>
     <use xlink:href="#DejaVuSans-Bold-31" transform="translate(316.308594 0)"/>
     <use xlink:href="#DejaVuSans-Bold-34" transform="translate(385.888672 0)"/>
    </g>
   </g>
   <g id="text_23">
    <!-- Backtested Cumulative Performance (Normalized to $10,000) -->
    <g transform="translate(250.548551 18.597656) scale(0.15 -0.15)">
     <defs>
      <path id="DejaVuSans-42" d="M 1259 2228 
L 1259 519 
L 2272 519 
Q 2781 519 3026 730 
Q 3272 941 3272 1375 
Q 3272 1813 3026 2020 
Q 2781 2228 2272 2228 
L 1259 2228 
z
M 1259 4147 
L 1259 2741 
L 2194 2741 
Q 2656 2741 2882 2914 
Q 3109 3088 3109 3444 
Q 3109 3797 2882 3972 
Q 2656 4147 2194 4147 
L 1259 4147 
z
M 628 4666 
L 2241 4666 
Q 2963 4666 3353 4366 
Q 3744 4066 3744 3513 
Q 3744 3084 3544 2831 
Q 3344 2578 2956 2516 
Q 3422 2416 3680 2098 
Q 3938 1781 3938 1306 
Q 3938 681 3513 340 
Q 3088 0 2303 0 
L 628 0 
L 628 4666 
z
" transform="scale(0.015625)"/>
      <path id="DejaVuSans-61" d="M 2194 1759 
Q 1497 1759 1228 1600 
Q 959 1441 959 1056 
Q 959 750 1161 570 
Q 1363 391 1709 391 
Q 2188 391 2477 730 
Q 2766 1069 2766 1631 
L 2766 1759 
L 2194 1759 
z
M 3341 1997 
L 3341 0 
L 2766 0 
L 2766 531 
Q 2569 213 2275 61 
Q 1981 -91 1556 -91 
Q 1019 -91 701 211 
Q 384 513 384 1019 
Q 384 1609 779 1909 
Q 1175 2209 1959 2209 
L 2766 2209 
L 2766 2266 
Q 2766 2663 2505 2880 
Q 2244 3097 1772 3097 
Q 1472 3097 1187 3025 
Q 903 2953 641 2809 
L 641 3341 
Q 956 3463 1253 3523 
Q 1550 3584 1831 3584 
Q 2591 3584 2966 3190 
Q 3341 2797 3341 1997 
z
" transform="scale(0.015625)"/>
      <path id="DejaVuSans-63" d="M 3122 3366 
L 3122 2828 
Q 2878 2963 2633 3030 
Q 2388 3097 2138 3097 
Q 1578 3097 1268 2742 
Q 959 2388 959 1747 
Q 959 1106 1268 751 
Q 1578 397 2138 397 
Q 2388 397 2633 464 
Q 2878 531 3122 666 
L 3122 134 
Q 2881 22 2623 -34 
Q 2366 -91 2075 -91 
Q 1284 -91 818 406 
Q 353 903 353 1747 
Q 353 2603 823 3093 
Q 1294 3584 2113 3584 
Q 2378 3584 2631 3529 
Q 2884 3475 3122 3366 
z
" transform="scale(0.015625)"/>
      <path id="DejaVuSans-6b" d="M 581 4863 
L 1159 4863 
L 1159 1991 
L 2875 3500 
L 3609 3500 
L 1753 1863 
L 3688 0 
L 2938 0 
L 1159 1709 
L 1159 0 
L 581 0 
L 581 4863 
z
" transform="scale(0.015625)"/>
      <path id="DejaVuSans-65" d="M 3597 1894 
L 3597 1613 
L 953 1613 
Q 991 1019 1311 708 
Q 1631 397 2203 397 
Q 2534 397 2845 478 
Q 3156 559 3463 722 
L 3463 178 
Q 3153 47 2828 -22 
Q 2503 -91 2169 -91 
Q 1331 -91 842 396 
Q 353 884 353 1716 
Q 353 2575 817 3079 
Q 1281 3584 2069 3584 
Q 2775 3584 3186 3129 
Q 3597 2675 3597 1894 
z
M 3022 2063 
Q 3016 2534 2758 2815 
Q 2500 3097 2075 3097 
Q 1594 3097 1305 2825 
Q 1016 2553 972 2059 
L 3022 2063 
z
" transform="scale(0.015625)"/>
      <path id="DejaVuSans-73" d="M 2834 3397 
L 2834 2853 
Q 2591 2978 2328 3040 
Q 2066 3103 1784 3103 
Q 1356 3103 1142 2972 
Q 928 2841 928 2578 
Q 928 2378 1081 2264 
Q 1234 2150 1697 2047 
L 1894 2003 
Q 2506 1872 2764 1633 
Q 3022 1394 3022 966 
Q 3022 478 2636 193 
Q 2250 -91 1575 -91 
Q 1294 -91 989 -36 
Q 684 19 347 128 
L 347 722 
Q 666 556 975 473 
Q 1284 391 1588 391 
Q 1994 391 2212 530 
Q 2431 669 2431 922 
Q 2431 1156 2273 1281 
Q 2116 1406 1581 1522 
L 1381 1569 
Q 847 1681 609 1914 
Q 372 2147 372 2553 
Q 372 3047 722 3315 
Q 1072 3584 1716 3584 
Q 2034 3584 2315 3537 
Q 2597 3491 2834 3397 
z
" transform="scale(0.015625)"/>
      <path id="DejaVuSans-64" d="M 2906 2969 
L 2906 4863 
L 3481 4863 
L 3481 0 
L 2906 0 
L 2906 525 
Q 2725 213 2448 61 
Q 2172 -91 1784 -91 
Q 1150 -91 751 415 
Q 353 922 353 1747 
Q 353 2572 751 3078 
Q 1150 3584 1784 3584 
Q 2172 3584 2448 3432 
Q 2725 3281 2906 2969 
z
M 947 1747 
Q 947 1113 1208 752 
Q 1469 391 1925 391 
Q 2381 391 2643 752 
Q 2906 1113 2906 1747 
Q 2906 2381 2643 2742 
Q 2381 3103 1925 3103 
Q 1469 3103 1208 2742 
Q 947 2381 947 1747 
z
" transform="scale(0.015625)"/>
      <path id="DejaVuSans-43" d="M 4122 4306 
L 4122 3641 
Q 3803 3938 3442 4084 
Q 3081 4231 2675 4231 
Q 1875 4231 1450 3742 
Q 1025 3253 1025 2328 
Q 1025 1406 1450 917 
Q 1875 428 2675 428 
Q 3081 428 3442 575 
Q 3803 722 4122 1019 
L 4122 359 
Q 3791 134 3420 21 
Q 3050 -91 2638 -91 
Q 1578 -91 968 557 
Q 359 1206 359 2328 
Q 359 3453 968 4101 
Q 1578 4750 2638 4750 
Q 3056 4750 3426 4639 
Q 3797 4528 4122 4306 
z
" transform="scale(0.015625)"/>
      <path id="DejaVuSans-75" d="M 544 1381 
L 544 3500 
L 1119 3500 
L 1119 1403 
Q 1119 906 1312 657 
Q 1506 409 1894 409 
Q 2359 409 2629 706 
Q 2900 1003 2900 1516 
L 2900 3500 
L 3475 3500 
L 3475 0 
L 2900 0 
L 2900 538 
Q 2691 219 2414 64 
Q 2138 -91 1772 -91 
Q 1169 -91 856 284 
Q 544 659 544 1381 
z
M 1991 3584 
L 1991 3584 
z
" transform="scale(0.015625)"/>
      <path id="DejaVuSans-6d" d="M 3328 2828 
Q 3544 3216 3844 3400 
Q 4144 3584 4550 3584 
Q 5097 3584 5394 3201 
Q 5691 2819 5691 2113 
L 5691 0 
L 5113 0 
L 5113 2094 
Q 5113 2597 4934 2840 
Q 4756 3084 4391 3084 
Q 3944 3084 3684 2787 
Q 3425 2491 3425 1978 
L 3425 0 
L 2847 0 
L 2847 2094 
Q 2847 2600 2669 2842 
Q 2491 3084 2119 3084 
Q 1678 3084 1418 2786 
Q 1159 2488 1159 1978 
L 1159 0 
L 581 0 
L 581 3500 
L 1159 3500 
L 1159 2956 
Q 1356 3278 1631 3431 
Q 1906 3584 2284 3584 
Q 2666 3584 2933 3390 
Q 3200 3197 3328 2828 
z
" transform="scale(0.015625)"/>
      <path id="DejaVuSans-6c" d="M 603 4863 
L 1178 4863 
L 1178 0 
L 603 0 
L 603 4863 
z
" transform="scale(0.015625)"/>
      <path id="DejaVuSans-69" d="M 603 3500 
L 1178 3500 
L 1178 0 
L 603 0 
L 603 3500 
z
M 603 4863 
L 1178 4863 
L 1178 4134 
L 603 4134 
L 603 4863 
z
" transform="scale(0.015625)"/>
      <path id="DejaVuSans-76" d="M 191 3500 
L 800 3500 
L 1894 563 
L 2988 3500 
L 3597 3500 
L 2284 0 
L 1503 0 
L 191 3500 
z
" transform="scale(0.015625)"/>
      <path id="DejaVuSans-50" d="M 1259 4147 
L 1259 2394 
L 2053 2394 
Q 2494 2394 2734 2622 
Q 2975 2850 2975 3272 
Q 2975 3691 2734 3919 
Q 2494 4147 2053 4147 
L 1259 4147 
z
M 628 4666 
L 2053 4666 
Q 2838 4666 3239 4311 
Q 3641 3956 3641 3272 
Q 3641 2581 3239 2228 
Q 2838 1875 2053 1875 
L 1259 1875 
L 1259 0 
L 628 0 
L 628 4666 
z
" transform="scale(0.015625)"/>
      <path id="DejaVuSans-6e" d="M 3513 2113 
L 3513 0 
L 2938 0 
L 2938 2094 
Q 2938 2591 2744 2837 
Q 2550 3084 2163 3084 
Q 1697 3084 1428 2787 
Q 1159 2491 1159 1978 
L 1159 0 
L 581 0 
L 581 3500 
L 1159 3500 
L 1159 2956 
Q 1366 3272 1645 3428 
Q 1925 3584 2291 3584 
Q 2894 3584 3203 3211 
Q 3513 2838 3513 2113 
z
" transform="scale(0.015625)"/>
      <path id="DejaVuSans-28" d="M 1984 4856 
Q 1566 4138 1362 3434 
Q 1159 2731 1159 2009 
Q 1159 1288 1364 580 
Q 1569 -128 1984 -844 
L 1484 -844 
Q 1016 -109 783 600 
Q 550 1309 550 2009 
Q 550 2706 781 3412 
Q 1013 4119 1484 4856 
L 1984 4856 
z
" transform="scale(0.015625)"/>
      <path id="DejaVuSans-4e" d="M 628 4666 
L 1478 4666 
L 3547 763 
L 3547 4666 
L 4159 4666 
L 4159 0 
L 3309 0 
L 1241 3903 
L 1241 0 
L 628 0 
L 628 4666 
z
" transform="scale(0.015625)"/>
      <path id="DejaVuSans-7a" d="M 353 3500 
L 3084 3500 
L 3084 2975 
L 922 459 
L 3084 459 
L 3084 0 
L 275 0 
L 275 525 
L 2438 3041 
L 353 3041 
L 353 3500 
z
" transform="scale(0.015625)"/>
      <path id="DejaVuSans-29" d="M 513 4856 
L 1013 4856 
Q 1481 4119 1714 3412 
Q 1947 2706 1947 2009 
Q 1947 1309 1714 600 
Q 1481 -109 1013 -844 
L 513 -844 
Q 928 -128 1133 580 
Q 1338 1288 1338 2009 
Q 1338 2731 1133 3434 
Q 928 4138 513 4856 
z
" transform="scale(0.015625)"/>
     </defs>
     <use xlink:href="#DejaVuSans-42"/>
     <use xlink:href="#DejaVuSans-61" transform="translate(68.603516 0)"/>
     <use xlink:href="#DejaVuSans-63" transform="translate(129.882812 0)"/>
     <use xlink:href="#DejaVuSans-6b" transform="translate(184.863281 0)"/>
     <use xlink:href="#DejaVuSans-74" transform="translate(242.773438 0)"/>
     <use xlink:href="#DejaVuSans-65" transform="translate(281.982422 0)"/>
     <use xlink:href="#DejaVuSans-73" transform="translate(343.505859 0)"/>
     <use xlink:href="#DejaVuSans-74" transform="translate(395.605469 0)"/>
     <use xlink:href="#DejaVuSans-65" transform="translate(434.814453 0)"/>
     <use xlink:href="#DejaVuSans-64" transform="translate(496.337891 0)"/>
     <use xlink:href="#DejaVuSans-20" transform="translate(559.814453 0)"/>
     <use xlink:href="#DejaVuSans-43" transform="translate(591.601562 0)"/>
     <use xlink:href="#DejaVuSans-75" transform="translate(661.425781 0)"/>
     <use xlink:href="#DejaVuSans-6d" transform="translate(724.804688 0)"/>
     <use xlink:href="#DejaVuSans-75" transform="translate(822.216797 0)"/>
     <use xlink:href="#DejaVuSans-6c" transform="translate(885.595703 0)"/>
     <use xlink:href="#DejaVuSans-61" transform="translate(913.378906 0)"/>
     <use xlink:href="#DejaVuSans-74" transform="translate(974.658203 0)"/>
     <use xlink:href="#DejaVuSans-69" transform="translate(1013.867188 0)"/>
     <use xlink:href="#DejaVuSans-76" transform="translate(1041.650391 0)"/>
     <use xlink:href="#DejaVuSans-65" transform="translate(1100.830078 0)"/>
     <use xlink:href="#DejaVuSans-20" transform="translate(1162.353516 0)"/>
     <use xlink:href="#DejaVuSans-50" transform="translate(1194.140625 0)"/>
     <use xlink:href="#DejaVuSans-65" transform="translate(1250.818359 0)"/>
     <use xlink:href="#DejaVuSans-72" transform="translate(1312.341797 0)"/>
     <use xlink:href="#DejaVuSans-66" transform="translate(1353.455078 0)"/>
     <use xlink:href="#DejaVuSans-6f" transform="translate(1388.660156 0)"/>
     <use xlink:href="#DejaVuSans-72" transform="translate(1449.841797 0)"/>
     <use xlink:href="#DejaVuSans-6d" transform="translate(1489.205078 0)"/>
     <use xlink:href="#DejaVuSans-61" transform="translate(1586.617188 0)"/>
     <use xlink:href="#DejaVuSans-6e" transform="translate(1647.896484 0)"/>
     <use xlink:href="#DejaVuSans-63" transform="translate(1711.275391 0)"/>
     <use xlink:href="#DejaVuSans-65" transform="translate(1766.255859 0)"/>
     <use xlink:href="#DejaVuSans-20" transform="translate(1827.779297 0)"/>
     <use xlink:href="#DejaVuSans-28" transform="translate(1859.566406 0)"/>
     <use xlink:href="#DejaVuSans-4e" transform="translate(1898.580078 0)"/>
     <use xlink:href="#DejaVuSans-6f" transform="translate(1973.384766 0)"/>
     <use xlink:href="#DejaVuSans-72" transform="translate(2034.566406 0)"/>
     <use xlink:href="#DejaVuSans-6d" transform="translate(2073.929688 0)"/>
     <use xlink:href="#DejaVuSans-61" transform="translate(2171.341797 0)"/>
     <use xlink:href="#DejaVuSans-6c" transform="translate(2232.621094 0)"/>
     <use xlink:href="#DejaVuSans-69" transform="translate(2260.404297 0)"/>
     <use xlink:href="#DejaVuSans-7a" transform="translate(2288.1875 0)"/>
     <use xlink:href="#DejaVuSans-65" transform="translate(2340.677734 0)"/>
     <use xlink:href="#DejaVuSans-64" transform="translate(2402.201172 0)"/>
     <use xlink:href="#DejaVuSans-20" transform="translate(2465.677734 0)"/>
     <use xlink:href="#DejaVuSans-74" transform="translate(2497.464844 0)"/>
     <use xlink:href="#DejaVuSans-6f" transform="translate(2536.673828 0)"/>
     <use xlink:href="#DejaVuSans-20" transform="translate(2597.855469 0)"/>
     <use xlink:href="#DejaVuSans-24" transform="translate(2629.642578 0)"/>
     <use xlink:href="#DejaVuSans-31" transform="translate(2693.265625 0)"/>
     <use xlink:href="#DejaVuSans-30" transform="translate(2756.888672 0)"/>
     <use xlink:href="#DejaVuSans-2c" transform="translate(2820.511719 0)"/>
     <use xlink:href="#DejaVuSans-30" transform="translate(2852.298828 0)"/>
     <use xlink:href="#DejaVuSans-30" transform="translate(2915.921875 0)"/>
     <use xlink:href="#DejaVuSans-30" transform="translate(2979.544922 0)"/>
     <use xlink:href="#DejaVuSans-29" transform="translate(3043.167969 0)"/>
    </g>
   </g>
   <g id="legend_1">
    <g id="line2d_22">
     <path d="M 69.72625 36.38625 
L 78.72625 36.38625 
L 87.72625 36.38625 
" style="fill: none; stroke: #1f77b4; stroke-width: 2.8; stroke-linecap: square"/>
    </g>
    <g id="text_24">
     <!-- Diamond Creek ETF Arb Fund (Net) -->
     <g transform="translate(94.92625 39.53625) scale(0.09 -0.09)">
      <defs>
       <path id="DejaVuSans-44" d="M 1259 4147 
L 1259 519 
L 2022 519 
Q 2988 519 3436 956 
Q 3884 1394 3884 2338 
Q 3884 3275 3436 3711 
Q 2988 4147 2022 4147 
L 1259 4147 
z
M 628 4666 
L 1925 4666 
Q 3281 4666 3915 4102 
Q 4550 3538 4550 2338 
Q 4550 1131 3912 565 
Q 3275 0 1925 0 
L 628 0 
L 628 4666 
z
" transform="scale(0.015625)"/>
       <path id="DejaVuSans-45" d="M 628 4666 
L 3578 4666 
L 3578 4134 
L 1259 4134 
L 1259 2753 
L 3481 2753 
L 3481 2222 
L 1259 2222 
L 1259 531 
L 3634 531 
L 3634 0 
L 628 0 
L 628 4666 
z
" transform="scale(0.015625)"/>
       <path id="DejaVuSans-54" d="M -19 4666 
L 3928 4666 
L 3928 4134 
L 2272 4134 
L 2272 0 
L 1638 0 
L 1638 4134 
L -19 4134 
L -19 4666 
z
" transform="scale(0.015625)"/>
       <path id="DejaVuSans-46" d="M 628 4666 
L 3309 4666 
L 3309 4134 
L 1259 4134 
L 1259 2759 
L 3109 2759 
L 3109 2228 
L 1259 2228 
L 1259 0 
L 628 0 
L 628 4666 
z
" transform="scale(0.015625)"/>
       <path id="DejaVuSans-41" d="M 2188 4044 
L 1331 1722 
L 3047 1722 
L 2188 4044 
z
M 1831 4666 
L 2547 4666 
L 4325 0 
L 3669 0 
L 3244 1197 
L 1141 1197 
L 716 0 
L 50 0 
L 1831 4666 
z
" transform="scale(0.015625)"/>
       <path id="DejaVuSans-62" d="M 3116 1747 
Q 3116 2381 2855 2742 
Q 2594 3103 2138 3103 
Q 1681 3103 1420 2742 
Q 1159 2381 1159 1747 
Q 1159 1113 1420 752 
Q 1681 391 2138 391 
Q 2594 391 2855 752 
Q 3116 1113 3116 1747 
z
M 1159 2969 
Q 1341 3281 1617 3432 
Q 1894 3584 2278 3584 
Q 2916 3584 3314 3078 
Q 3713 2572 3713 1747 
Q 3713 922 3314 415 
Q 2916 -91 2278 -91 
Q 1894 -91 1617 61 
Q 1341 213 1159 525 
L 1159 0 
L 581 0 
L 581 4863 
L 1159 4863 
L 1159 2969 
z
" transform="scale(0.015625)"/>
      </defs>
      <use xlink:href="#DejaVuSans-44"/>
      <use xlink:href="#DejaVuSans-69" transform="translate(77.001953 0)"/>
      <use xlink:href="#DejaVuSans-61" transform="translate(104.785156 0)"/>
      <use xlink:href="#DejaVuSans-6d" transform="translate(166.064453 0)"/>
      <use xlink:href="#DejaVuSans-6f" transform="translate(263.476562 0)"/>
      <use xlink:href="#DejaVuSans-6e" transform="translate(324.658203 0)"/>
      <use xlink:href="#DejaVuSans-64" transform="translate(388.037109 0)"/>
      <use xlink:href="#DejaVuSans-20" transform="translate(451.513672 0)"/>
      <use xlink:href="#DejaVuSans-43" transform="translate(483.300781 0)"/>
      <use xlink:href="#DejaVuSans-72" transform="translate(553.125 0)"/>
      <use xlink:href="#DejaVuSans-65" transform="translate(591.988281 0)"/>
      <use xlink:href="#DejaVuSans-65" transform="translate(653.511719 0)"/>
      <use xlink:href="#DejaVuSans-6b" transform="translate(715.035156 0)"/>
      <use xlink:href="#DejaVuSans-20" transform="translate(772.945312 0)"/>
      <use xlink:href="#DejaVuSans-45" transform="translate(804.732422 0)"/>
      <use xlink:href="#DejaVuSans-54" transform="translate(867.916016 0)"/>
      <use xlink:href="#DejaVuSans-46" transform="translate(929 0)"/>
      <use xlink:href="#DejaVuSans-20" transform="translate(986.519531 0)"/>
      <use xlink:href="#DejaVuSans-41" transform="translate(1018.306641 0)"/>
      <use xlink:href="#DejaVuSans-72" transform="translate(1086.714844 0)"/>
      <use xlink:href="#DejaVuSans-62" transform="translate(1127.828125 0)"/>
      <use xlink:href="#DejaVuSans-20" transform="translate(1191.304688 0)"/>
      <use xlink:href="#DejaVuSans-46" transform="translate(1223.091797 0)"/>
      <use xlink:href="#DejaVuSans-75" transform="translate(1275.111328 0)"/>
      <use xlink:href="#DejaVuSans-6e" transform="translate(1338.490234 0)"/>
      <use xlink:href="#DejaVuSans-64" transform="translate(1401.869141 0)"/>
      <use xlink:href="#DejaVuSans-20" transform="translate(1465.345703 0)"/>
      <use xlink:href="#DejaVuSans-28" transform="translate(1497.132812 0)"/>
      <use xlink:href="#DejaVuSans-4e" transform="translate(1536.146484 0)"/>
      <use xlink:href="#DejaVuSans-65" transform="translate(1610.951172 0)"/>
      <use xlink:href="#DejaVuSans-74" transform="translate(1672.474609 0)"/>
      <use xlink:href="#DejaVuSans-29" transform="translate(1711.683594 0)"/>
     </g>
    </g>
    <g id="line2d_23">
     <path d="M 69.72625 49.596562 
L 78.72625 49.596562 
L 87.72625 49.596562 
" style="fill: none; stroke-dasharray: 8.14,3.52; stroke-dashoffset: 0; stroke: #ff7f0e; stroke-width: 2.2"/>
    </g>
    <g id="text_25">
     <!-- SPY (Total Return) -->
     <g transform="translate(94.92625 52.746562) scale(0.09 -0.09)">
      <defs>
       <path id="DejaVuSans-53" d="M 3425 4513 
L 3425 3897 
Q 3066 4069 2747 4153 
Q 2428 4238 2131 4238 
Q 1616 4238 1336 4038 
Q 1056 3838 1056 3469 
Q 1056 3159 1242 3001 
Q 1428 2844 1947 2747 
L 2328 2669 
Q 3034 2534 3370 2195 
Q 3706 1856 3706 1288 
Q 3706 609 3251 259 
Q 2797 -91 1919 -91 
Q 1588 -91 1214 -16 
Q 841 59 441 206 
L 441 856 
Q 825 641 1194 531 
Q 1563 422 1919 422 
Q 2459 422 2753 634 
Q 3047 847 3047 1241 
Q 3047 1584 2836 1778 
Q 2625 1972 2144 2069 
L 1759 2144 
Q 1053 2284 737 2584 
Q 422 2884 422 3419 
Q 422 4038 858 4394 
Q 1294 4750 2059 4750 
Q 2388 4750 2728 4690 
Q 3069 4631 3425 4513 
z
" transform="scale(0.015625)"/>
       <path id="DejaVuSans-59" d="M -13 4666 
L 666 4666 
L 1959 2747 
L 3244 4666 
L 3922 4666 
L 2272 2222 
L 2272 0 
L 1638 0 
L 1638 2222 
L -13 4666 
z
" transform="scale(0.015625)"/>
       <path id="DejaVuSans-52" d="M 2841 2188 
Q 3044 2119 3236 1894 
Q 3428 1669 3622 1275 
L 4263 0 
L 3584 0 
L 2988 1197 
Q 2756 1666 2539 1819 
Q 2322 1972 1947 1972 
L 1259 1972 
L 1259 0 
L 628 0 
L 628 4666 
L 2053 4666 
Q 2853 4666 3247 4331 
Q 3641 3997 3641 3322 
Q 3641 2881 3436 2590 
Q 3231 2300 2841 2188 
z
M 1259 4147 
L 1259 2491 
L 2053 2491 
Q 2509 2491 2742 2702 
Q 2975 2913 2975 3322 
Q 2975 3731 2742 3939 
Q 2509 4147 2053 4147 
L 1259 4147 
z
" transform="scale(0.015625)"/>
      </defs>
      <use xlink:href="#DejaVuSans-53"/>
      <use xlink:href="#DejaVuSans-50" transform="translate(63.476562 0)"/>
      <use xlink:href="#DejaVuSans-59" transform="translate(121.529297 0)"/>
      <use xlink:href="#DejaVuSans-20" transform="translate(182.613281 0)"/>
      <use xlink:href="#DejaVuSans-28" transform="translate(214.400391 0)"/>
      <use xlink:href="#DejaVuSans-54" transform="translate(253.414062 0)"/>
      <use xlink:href="#DejaVuSans-6f" transform="translate(297.498047 0)"/>
      <use xlink:href="#DejaVuSans-74" transform="translate(358.679688 0)"/>
      <use xlink:href="#DejaVuSans-61" transform="translate(397.888672 0)"/>
      <use xlink:href="#DejaVuSans-6c" transform="translate(459.167969 0)"/>
      <use xlink:href="#DejaVuSans-20" transform="translate(486.951172 0)"/>
      <use xlink:href="#DejaVuSans-52" transform="translate(518.738281 0)"/>
      <use xlink:href="#DejaVuSans-65" transform="translate(583.720703 0)"/>
      <use xlink:href="#DejaVuSans-74" transform="translate(645.244141 0)"/>
      <use xlink:href="#DejaVuSans-75" transform="translate(684.453125 0)"/>
      <use xlink:href="#DejaVuSans-72" transform="translate(747.832031 0)"/>
      <use xlink:href="#DejaVuSans-6e" transform="translate(787.195312 0)"/>
      <use xlink:href="#DejaVuSans-29" transform="translate(850.574219 0)"/>
     </g>
    </g>
   </g>
  </g>
 </g>
 <defs>
  <clipPath id="pbeab9b1f05">
   <rect x="61.62625" y="24.597656" width="840.172727" height="375.8"/>
  </clipPath>
 </defs>
</svg>
