<?xml version="1.0" encoding="utf-8" standalone="no"?>
<!DOCTYPE svg PUBLIC "-//W3C//DTD SVG 1.1//EN"
  "http://www.w3.org/Graphics/SVG/1.1/DTD/svg11.dtd">
<svg xmlns:xlink="http://www.w3.org/1999/xlink" width="924.35462pt" height="424.275781pt" viewBox="0 0 924.35462 424.275781" xmlns="http://www.w3.org/2000/svg" version="1.1">
 <metadata>
  <rdf:RDF xmlns:dc="http://purl.org/dc/elements/1.1/" xmlns:cc="http://creativecommons.org/ns#" xmlns:rdf="http://www.w3.org/1999/02/22-rdf-syntax-ns#">
   <cc:Work>
    <dc:type rdf:resource="http://purl.org/dc/dcmitype/StillImage"/>
    <dc:date>2026-04-20T13:10:00.436687</dc:date>
    <dc:format>image/svg+xml</dc:format>
    <dc:creator>
     <cc:Agent>
      <dc:title>Matplotlib v3.10.8, https://matplotlib.org/</dc:title>
     </cc:Agent>
    </dc:creator>
   </cc:Work>
  </rdf:RDF>
 </metadata>
 <defs>
  <style type="text/css">*{stroke-linejoin: round; stroke-linecap: butt}</style>
 </defs>
 <g id="figure_1">
  <g id="patch_1">
   <path d="M 0 424.275781 
L 924.35462 424.275781 
L 924.35462 0 
L 0 0 
z
" style="fill: #ffffff"/>
  </g>
  <g id="axes_1">
   <g id="patch_2">
    <path d="M 61.62625 400.397656 
L 901.798977 400.397656 
L 901.798977 24.597656 
L 61.62625 24.597656 
z
" style="fill: #ffffff"/>
   </g>
   <g id="matplotlib.axis_1">
    <g id="xtick_1">
     <g id="line2d_1">
      <defs>
       <path id="m1f4cc3daea" d="M 0 0 
L 0 3.5 
" style="stroke: #000000; stroke-width: 0.8"/>
      </defs>
      <g>
       <use xlink:href="#m1f4cc3daea" x="98.524637" y="400.397656" style="stroke: #000000; stroke-width: 0.8"/>
      </g>
     </g>
     <g id="text_1">
      <!-- 2023-01 -->
      <g transform="translate(77.633231 414.996094) scale(0.1 -0.1)">
       <defs>
        <path id="DejaVuSans-32" d="M 1228 531 
L 3431 531 
L 3431 0 
L 469 0 
L 469 531 
Q 828 903 1448 1529 
Q 2069 2156 2228 2338 
Q 2531 2678 2651 2914 
Q 2772 3150 2772 3378 
Q 2772 3750 2511 3984 
Q 2250 4219 1831 4219 
Q 1534 4219 1204 4116 
Q 875 4013 500 3803 
L 500 4441 
Q 881 4594 1212 4672 
Q 1544 4750 1819 4750 
Q 2544 4750 2975 4387 
Q 3406 4025 3406 3419 
Q 3406 3131 3298 2873 
Q 3191 2616 2906 2266 
Q 2828 2175 2409 1742 
Q 1991 1309 1228 531 
z
" transform="scale(0.015625)"/>
        <path id="DejaVuSans-30" d="M 2034 4250 
Q 1547 4250 1301 3770 
Q 1056 3291 1056 2328 
Q 1056 1369 1301 889 
Q 1547 409 2034 409 
Q 2525 409 2770 889 
Q 3016 1369 3016 2328 
Q 3016 3291 2770 3770 
Q 2525 4250 2034 4250 
z
M 2034 4750 
Q 2819 4750 3233 4129 
Q 3647 3509 3647 2328 
Q 3647 1150 3233 529 
Q 2819 -91 2034 -91 
Q 1250 -91 836 529 
Q 422 1150 422 2328 
Q 422 3509 836 4129 
Q 1250 4750 2034 4750 
z
" transform="scale(0.015625)"/>
        <path id="DejaVuSans-33" d="M 2597 2516 
Q 3050 2419 3304 2112 
Q 3559 1806 3559 1356 
Q 3559 666 3084 287 
Q 2609 -91 1734 -91 
Q 1441 -91 1130 -33 
Q 819 25 488 141 
L 488 750 
Q 750 597 1062 519 
Q 1375 441 1716 441 
Q 2309 441 2620 675 
Q 2931 909 2931 1356 
Q 2931 1769 2642 2001 
Q 2353 2234 1838 2234 
L 1294 2234 
L 1294 2753 
L 1863 2753 
Q 2328 2753 2575 2939 
Q 2822 3125 2822 3475 
Q 2822 3834 2567 4026 
Q 2313 4219 1838 4219 
Q 1578 4219 1281 4162 
Q 984 4106 628 3988 
L 628 4550 
Q 988 4650 1302 4700 
Q 1616 4750 1894 4750 
Q 2613 4750 3031 4423 
Q 3450 4097 3450 3541 
Q 3450 3153 3228 2886 
Q 3006 2619 2597 2516 
z
" transform="scale(0.015625)"/>
        <path id="DejaVuSans-2d" d="M 313 2009 
L 1997 2009 
L 1997 1497 
L 313 1497 
L 313 2009 
z
" transform="scale(0.015625)"/>
        <path id="DejaVuSans-31" d="M 794 531 
L 1825 531 
L 1825 4091 
L 703 3866 
L 703 4441 
L 1819 4666 
L 2450 4666 
L 2450 531 
L 3481 531 
L 3481 0 
L 794 0 
L 794 531 
z
" transform="scale(0.015625)"/>
       </defs>
       <use xlink:href="#DejaVuSans-32"/>
       <use xlink:href="#DejaVuSans-30" transform="translate(63.623047 0)"/>
       <use xlink:href="#DejaVuSans-32" transform="translate(127.246094 0)"/>
       <use xlink:href="#DejaVuSans-33" transform="translate(190.869141 0)"/>
       <use xlink:href="#DejaVuSans-2d" transform="translate(254.492188 0)"/>
       <use xlink:href="#DejaVuSans-30" transform="translate(290.576172 0)"/>
       <use xlink:href="#DejaVuSans-31" transform="translate(354.199219 0)"/>
      </g>
     </g>
    </g>
    <g id="xtick_2">
     <g id="line2d_2">
      <g>
       <use xlink:href="#m1f4cc3daea" x="176.001566" y="400.397656" style="stroke: #000000; stroke-width: 0.8"/>
      </g>
     </g>
     <g id="text_2">
      <!-- 2023-05 -->
      <g transform="translate(155.11016 414.996094) scale(0.1 -0.1)">
       <defs>
        <path id="DejaVuSans-35" d="M 691 4666 
L 3169 4666 
L 3169 4134 
L 1269 4134 
L 1269 2991 
Q 1406 3038 1543 3061 
Q 1681 3084 1819 3084 
Q 2600 3084 3056 2656 
Q 3513 2228 3513 1497 
Q 3513 744 3044 326 
Q 2575 -91 1722 -91 
Q 1428 -91 1123 -41 
Q 819 9 494 109 
L 494 744 
Q 775 591 1075 516 
Q 1375 441 1709 441 
Q 2250 441 2565 725 
Q 2881 1009 2881 1497 
Q 2881 1984 2565 2268 
Q 2250 2553 1709 2553 
Q 1456 2553 1204 2497 
Q 953 2441 691 2322 
L 691 4666 
z
" transform="scale(0.015625)"/>
       </defs>
       <use xlink:href="#DejaVuSans-32"/>
       <use xlink:href="#DejaVuSans-30" transform="translate(63.623047 0)"/>
       <use xlink:href="#DejaVuSans-32" transform="translate(127.246094 0)"/>
       <use xlink:href="#DejaVuSans-33" transform="translate(190.869141 0)"/>
       <use xlink:href="#DejaVuSans-2d" transform="translate(254.492188 0)"/>
       <use xlink:href="#DejaVuSans-30" transform="translate(290.576172 0)"/>
       <use xlink:href="#DejaVuSans-35" transform="translate(354.199219 0)"/>
      </g>
     </g>
    </g>
    <g id="xtick_3">
     <g id="line2d_3">
      <g>
       <use xlink:href="#m1f4cc3daea" x="255.415418" y="400.397656" style="stroke: #000000; stroke-width: 0.8"/>
      </g>
     </g>
     <g id="text_3">
      <!-- 2023-09 -->
      <g transform="translate(234.524012 414.996094) scale(0.1 -0.1)">
       <defs>
        <path id="DejaVuSans-39" d="M 703 97 
L 703 672 
Q 941 559 1184 500 
Q 1428 441 1663 441 
Q 2288 441 2617 861 
Q 2947 1281 2994 2138 
Q 2813 1869 2534 1725 
Q 2256 1581 1919 1581 
Q 1219 1581 811 2004 
Q 403 2428 403 3163 
Q 403 3881 828 4315 
Q 1253 4750 1959 4750 
Q 2769 4750 3195 4129 
Q 3622 3509 3622 2328 
Q 3622 1225 3098 567 
Q 2575 -91 1691 -91 
Q 1453 -91 1209 -44 
Q 966 3 703 97 
z
M 1959 2075 
Q 2384 2075 2632 2365 
Q 2881 2656 2881 3163 
Q 2881 3666 2632 3958 
Q 2384 4250 1959 4250 
Q 1534 4250 1286 3958 
Q 1038 3666 1038 3163 
Q 1038 2656 1286 2365 
Q 1534 2075 1959 2075 
z
" transform="scale(0.015625)"/>
       </defs>
       <use xlink:href="#DejaVuSans-32"/>
       <use xlink:href="#DejaVuSans-30" transform="translate(63.623047 0)"/>
       <use xlink:href="#DejaVuSans-32" transform="translate(127.246094 0)"/>
       <use xlink:href="#DejaVuSans-33" transform="translate(190.869141 0)"/>
       <use xlink:href="#DejaVuSans-2d" transform="translate(254.492188 0)"/>
       <use xlink:href="#DejaVuSans-30" transform="translate(290.576172 0)"/>
       <use xlink:href="#DejaVuSans-39" transform="translate(354.199219 0)"/>
      </g>
     </g>
    </g>
    <g id="xtick_4">
     <g id="line2d_4">
      <g>
       <use xlink:href="#m1f4cc3daea" x="334.183629" y="400.397656" style="stroke: #000000; stroke-width: 0.8"/>
      </g>
     </g>
     <g id="text_4">
      <!-- 2024-01 -->
      <g transform="translate(313.292222 414.996094) scale(0.1 -0.1)">
       <defs>
        <path id="DejaVuSans-34" d="M 2419 4116 
L 825 1625 
L 2419 1625 
L 2419 4116 
z
M 2253 4666 
L 3047 4666 
L 3047 1625 
L 3713 1625 
L 3713 1100 
L 3047 1100 
L 3047 0 
L 2419 0 
L 2419 1100 
L 313 1100 
L 313 1709 
L 2253 4666 
z
" transform="scale(0.015625)"/>
       </defs>
       <use xlink:href="#DejaVuSans-32"/>
       <use xlink:href="#DejaVuSans-30" transform="translate(63.623047 0)"/>
       <use xlink:href="#DejaVuSans-32" transform="translate(127.246094 0)"/>
       <use xlink:href="#DejaVuSans-34" transform="translate(190.869141 0)"/>
       <use xlink:href="#DejaVuSans-2d" transform="translate(254.492188 0)"/>
       <use xlink:href="#DejaVuSans-30" transform="translate(290.576172 0)"/>
       <use xlink:href="#DejaVuSans-31" transform="translate(354.199219 0)"/>
      </g>
     </g>
    </g>
    <g id="xtick_5">
     <g id="line2d_5">
      <g>
       <use xlink:href="#m1f4cc3daea" x="412.306198" y="400.397656" style="stroke: #000000; stroke-width: 0.8"/>
      </g>
     </g>
     <g id="text_5">
      <!-- 2024-05 -->
      <g transform="translate(391.414792 414.996094) scale(0.1 -0.1)">
       <use xlink:href="#DejaVuSans-32"/>
       <use xlink:href="#DejaVuSans-30" transform="translate(63.623047 0)"/>
       <use xlink:href="#DejaVuSans-32" transform="translate(127.246094 0)"/>
       <use xlink:href="#DejaVuSans-34" transform="translate(190.869141 0)"/>
       <use xlink:href="#DejaVuSans-2d" transform="translate(254.492188 0)"/>
       <use xlink:href="#DejaVuSans-30" transform="translate(290.576172 0)"/>
       <use xlink:href="#DejaVuSans-35" transform="translate(354.199219 0)"/>
      </g>
     </g>
    </g>
    <g id="xtick_6">
     <g id="line2d_6">
      <g>
       <use xlink:href="#m1f4cc3daea" x="491.72005" y="400.397656" style="stroke: #000000; stroke-width: 0.8"/>
      </g>
     </g>
     <g id="text_6">
      <!-- 2024-09 -->
      <g transform="translate(470.828644 414.996094) scale(0.1 -0.1)">
       <use xlink:href="#DejaVuSans-32"/>
       <use xlink:href="#DejaVuSans-30" transform="translate(63.623047 0)"/>
       <use xlink:href="#DejaVuSans-32" transform="translate(127.246094 0)"/>
       <use xlink:href="#DejaVuSans-34" transform="translate(190.869141 0)"/>
       <use xlink:href="#DejaVuSans-2d" transform="translate(254.492188 0)"/>
       <use xlink:href="#DejaVuSans-30" transform="translate(290.576172 0)"/>
       <use xlink:href="#DejaVuSans-39" transform="translate(354.199219 0)"/>
      </g>
     </g>
    </g>
    <g id="xtick_7">
     <g id="line2d_7">
      <g>
       <use xlink:href="#m1f4cc3daea" x="570.488261" y="400.397656" style="stroke: #000000; stroke-width: 0.8"/>
      </g>
     </g>
     <g id="text_7">
      <!-- 2025-01 -->
      <g transform="translate(549.596855 414.996094) scale(0.1 -0.1)">
       <use xlink:href="#DejaVuSans-32"/>
       <use xlink:href="#DejaVuSans-30" transform="translate(63.623047 0)"/>
       <use xlink:href="#DejaVuSans-32" transform="translate(127.246094 0)"/>
       <use xlink:href="#DejaVuSans-35" transform="translate(190.869141 0)"/>
       <use xlink:href="#DejaVuSans-2d" transform="translate(254.492188 0)"/>
       <use xlink:href="#DejaVuSans-30" transform="translate(290.576172 0)"/>
       <use xlink:href="#DejaVuSans-31" transform="translate(354.199219 0)"/>
      </g>
     </g>
    </g>
    <g id="xtick_8">
     <g id="line2d_8">
      <g>
       <use xlink:href="#m1f4cc3daea" x="647.96519" y="400.397656" style="stroke: #000000; stroke-width: 0.8"/>
      </g>
     </g>
     <g id="text_8">
      <!-- 2025-05 -->
      <g transform="translate(627.073783 414.996094) scale(0.1 -0.1)">
       <use xlink:href="#DejaVuSans-32"/>
       <use xlink:href="#DejaVuSans-30" transform="translate(63.623047 0)"/>
       <use xlink:href="#DejaVuSans-32" transform="translate(127.246094 0)"/>
       <use xlink:href="#DejaVuSans-35" transform="translate(190.869141 0)"/>
       <use xlink:href="#DejaVuSans-2d" transform="translate(254.492188 0)"/>
       <use xlink:href="#DejaVuSans-30" transform="translate(290.576172 0)"/>
       <use xlink:href="#DejaVuSans-35" transform="translate(354.199219 0)"/>
      </g>
     </g>
    </g>
    <g id="xtick_9">
     <g id="line2d_9">
      <g>
       <use xlink:href="#m1f4cc3daea" x="727.379042" y="400.397656" style="stroke: #000000; stroke-width: 0.8"/>
      </g>
     </g>
     <g id="text_9">
      <!-- 2025-09 -->
      <g transform="translate(706.487635 414.996094) scale(0.1 -0.1)">
       <use xlink:href="#DejaVuSans-32"/>
       <use xlink:href="#DejaVuSans-30" transform="translate(63.623047 0)"/>
       <use xlink:href="#DejaVuSans-32" transform="translate(127.246094 0)"/>
       <use xlink:href="#DejaVuSans-35" transform="translate(190.869141 0)"/>
       <use xlink:href="#DejaVuSans-2d" transform="translate(254.492188 0)"/>
       <use xlink:href="#DejaVuSans-30" transform="translate(290.576172 0)"/>
       <use xlink:href="#DejaVuSans-39" transform="translate(354.199219 0)"/>
      </g>
     </g>
    </g>
    <g id="xtick_10">
     <g id="line2d_10">
      <g>
       <use xlink:href="#m1f4cc3daea" x="806.147252" y="400.397656" style="stroke: #000000; stroke-width: 0.8"/>
      </g>
     </g>
     <g id="text_10">
      <!-- 2026-01 -->
      <g transform="translate(785.255846 414.996094) scale(0.1 -0.1)">
       <defs>
        <path id="DejaVuSans-36" d="M 2113 2584 
Q 1688 2584 1439 2293 
Q 1191 2003 1191 1497 
Q 1191 994 1439 701 
Q 1688 409 2113 409 
Q 2538 409 2786 701 
Q 3034 994 3034 1497 
Q 3034 2003 2786 2293 
Q 2538 2584 2113 2584 
z
M 3366 4563 
L 3366 3988 
Q 3128 4100 2886 4159 
Q 2644 4219 2406 4219 
Q 1781 4219 1451 3797 
Q 1122 3375 1075 2522 
Q 1259 2794 1537 2939 
Q 1816 3084 2150 3084 
Q 2853 3084 3261 2657 
Q 3669 2231 3669 1497 
Q 3669 778 3244 343 
Q 2819 -91 2113 -91 
Q 1303 -91 875 529 
Q 447 1150 447 2328 
Q 447 3434 972 4092 
Q 1497 4750 2381 4750 
Q 2619 4750 2861 4703 
Q 3103 4656 3366 4563 
z
" transform="scale(0.015625)"/>
       </defs>
       <use xlink:href="#DejaVuSans-32"/>
       <use xlink:href="#DejaVuSans-30" transform="translate(63.623047 0)"/>
       <use xlink:href="#DejaVuSans-32" transform="translate(127.246094 0)"/>
       <use xlink:href="#DejaVuSans-36" transform="translate(190.869141 0)"/>
       <use xlink:href="#DejaVuSans-2d" transform="translate(254.492188 0)"/>
       <use xlink:href="#DejaVuSans-30" transform="translate(290.576172 0)"/>
       <use xlink:href="#DejaVuSans-31" transform="translate(354.199219 0)"/>
      </g>
     </g>
    </g>
    <g id="xtick_11">
     <g id="line2d_11">
      <g>
       <use xlink:href="#m1f4cc3daea" x="883.624181" y="400.397656" style="stroke: #000000; stroke-width: 0.8"/>
      </g>
     </g>
     <g id="text_11">
      <!-- 2026-05 -->
      <g transform="translate(862.732775 414.996094) scale(0.1 -0.1)">
       <use xlink:href="#DejaVuSans-32"/>
       <use xlink:href="#DejaVuSans-30" transform="translate(63.623047 0)"/>
       <use xlink:href="#DejaVuSans-32" transform="translate(127.246094 0)"/>
       <use xlink:href="#DejaVuSans-36" transform="translate(190.869141 0)"/>
       <use xlink:href="#DejaVuSans-2d" transform="translate(254.492188 0)"/>
       <use xlink:href="#DejaVuSans-30" transform="translate(290.576172 0)"/>
       <use xlink:href="#DejaVuSans-35" transform="translate(354.199219 0)"/>
      </g>
     </g>
    </g>
   </g>
   <g id="matplotlib.axis_2">
    <g id="ytick_1">
     <g id="line2d_12">
      <defs>
       <path id="md560c056ce" d="M 0 0 
L -3.5 0 
" style="stroke: #000000; stroke-width: 0.8"/>
      </defs>
      <g>
       <use xlink:href="#md560c056ce" x="61.62625" y="382.354524" style="stroke: #000000; stroke-width: 0.8"/>
      </g>
     </g>
     <g id="text_12">
      <!-- 10000 -->
      <g transform="translate(22.81375 386.153743) scale(0.1 -0.1)">
       <use xlink:href="#DejaVuSans-31"/>
       <use xlink:href="#DejaVuSans-30" transform="translate(63.623047 0)"/>
       <use xlink:href="#DejaVuSans-30" transform="translate(127.246094 0)"/>
       <use xlink:href="#DejaVuSans-30" transform="translate(190.869141 0)"/>
       <use xlink:href="#DejaVuSans-30" transform="translate(254.492188 0)"/>
      </g>
     </g>
    </g>
    <g id="ytick_2">
     <g id="line2d_13">
      <g>
       <use xlink:href="#md560c056ce" x="61.62625" y="331.511658" style="stroke: #000000; stroke-width: 0.8"/>
      </g>
     </g>
     <g id="text_13">
      <!-- 12000 -->
      <g transform="translate(22.81375 335.310877) scale(0.1 -0.1)">
       <use xlink:href="#DejaVuSans-31"/>
       <use xlink:href="#DejaVuSans-32" transform="translate(63.623047 0)"/>
       <use xlink:href="#DejaVuSans-30" transform="translate(127.246094 0)"/>
       <use xlink:href="#DejaVuSans-30" transform="translate(190.869141 0)"/>
       <use xlink:href="#DejaVuSans-30" transform="translate(254.492188 0)"/>
      </g>
     </g>
    </g>
    <g id="ytick_3">
     <g id="line2d_14">
      <g>
       <use xlink:href="#md560c056ce" x="61.62625" y="280.668792" style="stroke: #000000; stroke-width: 0.8"/>
      </g>
     </g>
     <g id="text_14">
      <!-- 14000 -->
      <g transform="translate(22.81375 284.468011) scale(0.1 -0.1)">
       <use xlink:href="#DejaVuSans-31"/>
       <use xlink:href="#DejaVuSans-34" transform="translate(63.623047 0)"/>
       <use xlink:href="#DejaVuSans-30" transform="translate(127.246094 0)"/>
       <use xlink:href="#DejaVuSans-30" transform="translate(190.869141 0)"/>
       <use xlink:href="#DejaVuSans-30" transform="translate(254.492188 0)"/>
      </g>
     </g>
    </g>
    <g id="ytick_4">
     <g id="line2d_15">
      <g>
       <use xlink:href="#md560c056ce" x="61.62625" y="229.825926" style="stroke: #000000; stroke-width: 0.8"/>
      </g>
     </g>
     <g id="text_15">
      <!-- 16000 -->
      <g transform="translate(22.81375 233.625145) scale(0.1 -0.1)">
       <use xlink:href="#DejaVuSans-31"/>
       <use xlink:href="#DejaVuSans-36" transform="translate(63.623047 0)"/>
       <use xlink:href="#DejaVuSans-30" transform="translate(127.246094 0)"/>
       <use xlink:href="#DejaVuSans-30" transform="translate(190.869141 0)"/>
       <use xlink:href="#DejaVuSans-30" transform="translate(254.492188 0)"/>
      </g>
     </g>
    </g>
    <g id="ytick_5">
     <g id="line2d_16">
      <g>
       <use xlink:href="#md560c056ce" x="61.62625" y="178.98306" style="stroke: #000000; stroke-width: 0.8"/>
      </g>
     </g>
     <g id="text_16">
      <!-- 18000 -->
      <g transform="translate(22.81375 182.782279) scale(0.1 -0.1)">
       <defs>
        <path id="DejaVuSans-38" d="M 2034 2216 
Q 1584 2216 1326 1975 
Q 1069 1734 1069 1313 
Q 1069 891 1326 650 
Q 1584 409 2034 409 
Q 2484 409 2743 651 
Q 3003 894 3003 1313 
Q 3003 1734 2745 1975 
Q 2488 2216 2034 2216 
z
M 1403 2484 
Q 997 2584 770 2862 
Q 544 3141 544 3541 
Q 544 4100 942 4425 
Q 1341 4750 2034 4750 
Q 2731 4750 3128 4425 
Q 3525 4100 3525 3541 
Q 3525 3141 3298 2862 
Q 3072 2584 2669 2484 
Q 3125 2378 3379 2068 
Q 3634 1759 3634 1313 
Q 3634 634 3220 271 
Q 2806 -91 2034 -91 
Q 1263 -91 848 271 
Q 434 634 434 1313 
Q 434 1759 690 2068 
Q 947 2378 1403 2484 
z
M 1172 3481 
Q 1172 3119 1398 2916 
Q 1625 2713 2034 2713 
Q 2441 2713 2670 2916 
Q 2900 3119 2900 3481 
Q 2900 3844 2670 4047 
Q 2441 4250 2034 4250 
Q 1625 4250 1398 4047 
Q 1172 3844 1172 3481 
z
" transform="scale(0.015625)"/>
       </defs>
       <use xlink:href="#DejaVuSans-31"/>
       <use xlink:href="#DejaVuSans-38" transform="translate(63.623047 0)"/>
       <use xlink:href="#DejaVuSans-30" transform="translate(127.246094 0)"/>
       <use xlink:href="#DejaVuSans-30" transform="translate(190.869141 0)"/>
       <use xlink:href="#DejaVuSans-30" transform="translate(254.492188 0)"/>
      </g>
     </g>
    </g>
    <g id="ytick_6">
     <g id="line2d_17">
      <g>
       <use xlink:href="#md560c056ce" x="61.62625" y="128.140194" style="stroke: #000000; stroke-width: 0.8"/>
      </g>
     </g>
     <g id="text_17">
      <!-- 20000 -->
      <g transform="translate(22.81375 131.939412) scale(0.1 -0.1)">
       <use xlink:href="#DejaVuSans-32"/>
       <use xlink:href="#DejaVuSans-30" transform="translate(63.623047 0)"/>
       <use xlink:href="#DejaVuSans-30" transform="translate(127.246094 0)"/>
       <use xlink:href="#DejaVuSans-30" transform="translate(190.869141 0)"/>
       <use xlink:href="#DejaVuSans-30" transform="translate(254.492188 0)"/>
      </g>
     </g>
    </g>
    <g id="ytick_7">
     <g id="line2d_18">
      <g>
       <use xlink:href="#md560c056ce" x="61.62625" y="77.297328" style="stroke: #000000; stroke-width: 0.8"/>
      </g>
     </g>
     <g id="text_18">
      <!-- 22000 -->
      <g transform="translate(22.81375 81.096546) scale(0.1 -0.1)">
       <use xlink:href="#DejaVuSans-32"/>
       <use xlink:href="#DejaVuSans-32" transform="translate(63.623047 0)"/>
       <use xlink:href="#DejaVuSans-30" transform="translate(127.246094 0)"/>
       <use xlink:href="#DejaVuSans-30" transform="translate(190.869141 0)"/>
       <use xlink:href="#DejaVuSans-30" transform="translate(254.492188 0)"/>
      </g>
     </g>
    </g>
    <g id="ytick_8">
     <g id="line2d_19">
      <g>
       <use xlink:href="#md560c056ce" x="61.62625" y="26.454462" style="stroke: #000000; stroke-width: 0.8"/>
      </g>
     </g>
     <g id="text_19">
      <!-- 24000 -->
      <g transform="translate(22.81375 30.25368) scale(0.1 -0.1)">
       <use xlink:href="#DejaVuSans-32"/>
       <use xlink:href="#DejaVuSans-34" transform="translate(63.623047 0)"/>
       <use xlink:href="#DejaVuSans-30" transform="translate(127.246094 0)"/>
       <use xlink:href="#DejaVuSans-30" transform="translate(190.869141 0)"/>
       <use xlink:href="#DejaVuSans-30" transform="translate(254.492188 0)"/>
      </g>
     </g>
    </g>
    <g id="text_20">
     <!-- Growth of $10,000 -->
     <g transform="translate(16.318125 268.620156) rotate(-90) scale(0.12 -0.12)">
      <defs>
       <path id="DejaVuSans-47" d="M 3809 666 
L 3809 1919 
L 2778 1919 
L 2778 2438 
L 4434 2438 
L 4434 434 
Q 4069 175 3628 42 
Q 3188 -91 2688 -91 
Q 1594 -91 976 548 
Q 359 1188 359 2328 
Q 359 3472 976 4111 
Q 1594 4750 2688 4750 
Q 3144 4750 3555 4637 
Q 3966 4525 4313 4306 
L 4313 3634 
Q 3963 3931 3569 4081 
Q 3175 4231 2741 4231 
Q 1884 4231 1454 3753 
Q 1025 3275 1025 2328 
Q 1025 1384 1454 906 
Q 1884 428 2741 428 
Q 3075 428 3337 486 
Q 3600 544 3809 666 
z
" transform="scale(0.015625)"/>
       <path id="DejaVuSans-72" d="M 2631 2963 
Q 2534 3019 2420 3045 
Q 2306 3072 2169 3072 
Q 1681 3072 1420 2755 
Q 1159 2438 1159 1844 
L 1159 0 
L 581 0 
L 581 3500 
L 1159 3500 
L 1159 2956 
Q 1341 3275 1631 3429 
Q 1922 3584 2338 3584 
Q 2397 3584 2469 3576 
Q 2541 3569 2628 3553 
L 2631 2963 
z
" transform="scale(0.015625)"/>
       <path id="DejaVuSans-6f" d="M 1959 3097 
Q 1497 3097 1228 2736 
Q 959 2375 959 1747 
Q 959 1119 1226 758 
Q 1494 397 1959 397 
Q 2419 397 2687 759 
Q 2956 1122 2956 1747 
Q 2956 2369 2687 2733 
Q 2419 3097 1959 3097 
z
M 1959 3584 
Q 2709 3584 3137 3096 
Q 3566 2609 3566 1747 
Q 3566 888 3137 398 
Q 2709 -91 1959 -91 
Q 1206 -91 779 398 
Q 353 888 353 1747 
Q 353 2609 779 3096 
Q 1206 3584 1959 3584 
z
" transform="scale(0.015625)"/>
       <path id="DejaVuSans-77" d="M 269 3500 
L 844 3500 
L 1563 769 
L 2278 3500 
L 2956 3500 
L 3675 769 
L 4391 3500 
L 4966 3500 
L 4050 0 
L 3372 0 
L 2619 2869 
L 1863 0 
L 1184 0 
L 269 3500 
z
" transform="scale(0.015625)"/>
       <path id="DejaVuSans-74" d="M 1172 4494 
L 1172 3500 
L 2356 3500 
L 2356 3053 
L 1172 3053 
L 1172 1153 
Q 1172 725 1289 603 
Q 1406 481 1766 481 
L 2356 481 
L 2356 0 
L 1766 0 
Q 1100 0 847 248 
Q 594 497 594 1153 
L 594 3053 
L 172 3053 
L 172 3500 
L 594 3500 
L 594 4494 
L 1172 4494 
z
" transform="scale(0.015625)"/>
       <path id="DejaVuSans-68" d="M 3513 2113 
L 3513 0 
L 2938 0 
L 2938 2094 
Q 2938 2591 2744 2837 
Q 2550 3084 2163 3084 
Q 1697 3084 1428 2787 
Q 1159 2491 1159 1978 
L 1159 0 
L 581 0 
L 581 4863 
L 1159 4863 
L 1159 2956 
Q 1366 3272 1645 3428 
Q 1925 3584 2291 3584 
Q 2894 3584 3203 3211 
Q 3513 2838 3513 2113 
z
" transform="scale(0.015625)"/>
       <path id="DejaVuSans-20" transform="scale(0.015625)"/>
       <path id="DejaVuSans-66" d="M 2375 4863 
L 2375 4384 
L 1825 4384 
Q 1516 4384 1395 4259 
Q 1275 4134 1275 3809 
L 1275 3500 
L 2222 3500 
L 2222 3053 
L 1275 3053 
L 1275 0 
L 697 0 
L 697 3053 
L 147 3053 
L 147 3500 
L 697 3500 
L 697 3744 
Q 697 4328 969 4595 
Q 1241 4863 1831 4863 
L 2375 4863 
z
" transform="scale(0.015625)"/>
       <path id="DejaVuSans-24" d="M 2163 -941 
L 1850 -941 
L 1847 0 
Q 1519 6 1191 76 
Q 863 147 531 288 
L 531 850 
Q 850 650 1176 548 
Q 1503 447 1850 444 
L 1850 1869 
Q 1159 1981 845 2250 
Q 531 2519 531 2988 
Q 531 3497 872 3790 
Q 1213 4084 1850 4128 
L 1850 4863 
L 2163 4863 
L 2163 4138 
Q 2453 4125 2725 4076 
Q 2997 4028 3256 3944 
L 3256 3397 
Q 2997 3528 2723 3600 
Q 2450 3672 2163 3684 
L 2163 2350 
Q 2872 2241 3206 1959 
Q 3541 1678 3541 1191 
Q 3541 663 3186 358 
Q 2831 53 2163 6 
L 2163 -941 
z
M 1850 2406 
L 1850 3688 
Q 1488 3647 1297 3481 
Q 1106 3316 1106 3041 
Q 1106 2772 1282 2622 
Q 1459 2472 1850 2406 
z
M 2163 1806 
L 2163 453 
Q 2559 506 2761 678 
Q 2963 850 2963 1131 
Q 2963 1406 2770 1568 
Q 2578 1731 2163 1806 
z
" transform="scale(0.015625)"/>
       <path id="DejaVuSans-2c" d="M 750 794 
L 1409 794 
L 1409 256 
L 897 -744 
L 494 -744 
L 750 256 
L 750 794 
z
" transform="scale(0.015625)"/>
      </defs>
      <use xlink:href="#DejaVuSans-47"/>
      <use xlink:href="#DejaVuSans-72" transform="translate(77.490234 0)"/>
      <use xlink:href="#DejaVuSans-6f" transform="translate(116.353516 0)"/>
      <use xlink:href="#DejaVuSans-77" transform="translate(177.535156 0)"/>
      <use xlink:href="#DejaVuSans-74" transform="translate(259.322266 0)"/>
      <use xlink:href="#DejaVuSans-68" transform="translate(298.53125 0)"/>
      <use xlink:href="#DejaVuSans-20" transform="translate(361.910156 0)"/>
      <use xlink:href="#DejaVuSans-6f" transform="translate(393.697266 0)"/>
      <use xlink:href="#DejaVuSans-66" transform="translate(454.878906 0)"/>
      <use xlink:href="#DejaVuSans-20" transform="translate(490.083984 0)"/>
      <use xlink:href="#DejaVuSans-24" transform="translate(521.871094 0)"/>
      <use xlink:href="#DejaVuSans-31" transform="translate(585.494141 0)"/>
      <use xlink:href="#DejaVuSans-30" transform="translate(649.117188 0)"/>
      <use xlink:href="#DejaVuSans-2c" transform="translate(712.740234 0)"/>
      <use xlink:href="#DejaVuSans-30" transform="translate(744.527344 0)"/>
      <use xlink:href="#DejaVuSans-30" transform="translate(808.150391 0)"/>
      <use xlink:href="#DejaVuSans-30" transform="translate(871.773438 0)"/>
     </g>
    </g>
   </g>
   <g id="line2d_20">
    <path d="M 99.815919 382.354524 
L 100.46156 375.740332 
L 101.107202 380.268412 
L 101.752843 376.756333 
L 103.689766 372.594854 
L 104.335407 367.577802 
L 104.981048 365.75654 
L 106.27233 360.492651 
L 108.854894 357.388892 
L 109.500536 360.564775 
L 110.146177 361.619522 
L 110.791818 353.695978 
L 112.728741 348.928371 
L 113.374382 350.990176 
L 114.020023 351.800631 
L 114.665664 348.920944 
L 115.311305 343.59818 
L 117.248228 350.251284 
L 117.893869 345.798086 
L 118.539511 338.888158 
L 119.185152 323.317769 
L 119.830793 328.091186 
L 121.767716 328.635864 
L 122.413357 325.919687 
L 123.058998 329.562148 
L 123.704639 335.340033 
L 124.35028 338.079689 
L 126.287203 336.344395 
L 126.932844 333.499756 
L 127.578486 329.418805 
L 128.224127 333.440716 
L 128.869768 334.988464 
L 131.452332 338.517383 
L 132.097973 338.947792 
L 132.743614 333.155477 
L 133.389255 336.930464 
L 135.326178 336.194779 
L 135.971819 333.2604 
L 136.617461 335.751298 
L 137.263102 334.215505 
L 137.908743 329.603269 
L 139.845666 331.068285 
L 140.491307 332.607638 
L 141.136948 330.553318 
L 141.782589 335.841081 
L 142.42823 339.225938 
L 144.365153 335.10946 
L 145.010794 329.145504 
L 145.656436 326.589298 
L 146.302077 321.642332 
L 146.947718 320.403139 
L 148.884641 320.008574 
L 149.530282 314.134542 
L 150.175923 317.778697 
L 150.821564 318.805199 
L 151.467205 317.713929 
L 153.404128 320.92588 
L 154.049769 321.121652 
L 154.695411 317.812394 
L 155.341052 316.870829 
L 155.986693 325.254669 
L 157.923616 328.33338 
L 158.569257 328.709935 
L 159.214898 331.458744 
L 159.860539 328.505502 
L 162.443103 327.150018 
L 163.088744 327.716523 
L 163.734386 329.601363 
L 164.380027 326.234958 
L 165.025668 325.408419 
L 166.962591 326.010385 
L 167.608232 325.73419 
L 168.253873 326.283322 
L 168.899514 329.689314 
L 169.545155 329.703898 
L 171.482078 331.593382 
L 172.12772 334.500412 
L 172.773361 332.632796 
L 173.419002 325.343646 
L 174.064643 325.240645 
L 176.001566 325.349418 
L 176.647207 326.588908 
L 177.292848 328.507095 
L 177.938489 328.924844 
L 178.58413 322.036852 
L 180.521053 321.253336 
L 181.166695 321.538351 
L 181.812336 318.439211 
L 182.457977 318.390879 
L 183.103618 319.948487 
L 185.040541 317.260496 
L 185.686182 316.926542 
L 186.977464 310.331123 
L 187.623105 312.132849 
L 189.560028 310.100137 
L 190.20567 312.602133 
L 190.851311 312.747063 
L 191.496952 302.046633 
L 192.142593 298.435371 
L 194.725157 295.647327 
L 195.370798 299.316623 
L 196.016439 292.806777 
L 196.66208 292.893401 
L 198.599003 294.833944 
L 199.244645 298.873195 
L 199.890286 301.896442 
L 200.535927 298.502832 
L 201.181568 299.358174 
L 203.118491 298.080462 
L 205.055414 290.797115 
L 205.701055 291.292438 
L 208.28362 289.686293 
L 208.929261 290.384818 
L 209.574902 288.044005 
L 210.220543 287.846349 
L 212.157466 291.406033 
L 212.803107 284.846966 
L 213.448748 285.212004 
L 214.094389 285.26982 
L 214.74003 289.962312 
L 217.968236 288.726027 
L 218.613877 289.062345 
L 219.259518 287.926734 
L 221.196441 288.283875 
L 221.842082 284.192838 
L 222.487723 282.808638 
L 223.133364 271.019408 
L 223.779005 271.77519 
L 225.715929 270.544341 
L 226.36157 269.206779 
L 227.007211 267.585198 
L 227.652852 274.349079 
L 228.298493 276.263922 
L 230.235416 276.53042 
L 230.881057 274.782611 
L 231.526698 274.13593 
L 232.172339 275.055554 
L 232.81798 269.963688 
L 234.754904 269.75344 
L 235.400545 271.248703 
L 236.046186 277.230994 
L 236.691827 276.101849 
L 237.337468 276.6237 
L 239.274391 274.79934 
L 239.920032 275.984208 
L 240.565673 280.620861 
L 241.211314 280.538761 
L 241.856955 283.420632 
L 243.793879 279.728604 
L 246.376443 288.938732 
L 248.313366 282.814555 
L 248.959007 284.05138 
L 249.604648 280.55884 
L 250.250289 283.829177 
L 250.89593 283.566387 
L 252.832854 282.611792 
L 253.478495 274.643524 
L 254.124136 274.567172 
L 254.769777 275.496208 
L 255.415418 275.891642 
L 257.997982 275.487564 
L 258.643623 277.369617 
L 259.289264 276.691069 
L 259.934905 276.684511 
L 261.871829 275.454638 
L 262.51747 276.829556 
L 263.163111 275.694929 
L 263.808752 273.043659 
L 264.454393 277.285063 
L 266.391316 276.988864 
L 267.036957 278.795401 
L 268.328239 287.229937 
L 268.97388 287.821214 
L 270.910804 285.916361 
L 271.556445 288.896494 
L 272.202086 288.154395 
L 272.847727 284.885235 
L 273.493368 285.625094 
L 275.430291 284.259593 
L 276.075932 288.606719 
L 276.721573 285.363939 
L 277.367214 284.373079 
L 278.012855 279.511165 
L 279.949779 279.624496 
L 281.241061 276.248106 
L 281.886702 276.912147 
L 282.532343 280.703153 
L 284.469266 278.092507 
L 285.114907 279.752167 
L 285.760548 284.428888 
L 286.406189 286.268971 
L 287.05183 288.536047 
L 288.988754 284.689565 
L 289.634395 281.781386 
L 290.280036 288.394007 
L 290.925677 293.570792 
L 294.153882 288.490734 
L 295.445164 278.942118 
L 296.090805 276.409878 
L 298.027729 274.874476 
L 298.67337 272.821002 
L 299.319011 272.334243 
L 299.964652 271.426215 
L 300.610293 268.055374 
L 302.547216 267.799657 
L 303.192857 264.93672 
L 303.838498 264.828905 
L 304.484139 263.856167 
L 305.12978 263.747597 
L 307.066704 259.51436 
L 307.712345 260.526919 
L 308.357986 259.257078 
L 309.649268 259.460298 
L 311.586191 258.351037 
L 312.231832 255.932631 
L 312.877473 256.907539 
L 313.523114 259.658565 
L 314.168755 258.155866 
L 316.105679 258.950271 
L 316.75132 257.575269 
L 317.396961 260.66742 
L 318.688243 252.322812 
L 320.625166 257.036451 
L 321.270807 254.112513 
L 321.916448 249.927559 
L 322.562089 249.660835 
L 323.20773 249.191141 
L 325.144654 245.15242 
L 325.790295 243.50864 
L 326.435936 244.723312 
L 327.081577 241.190957 
L 327.727218 240.077759 
L 330.309782 240.129247 
L 330.955423 237.501756 
L 331.601064 237.192856 
L 332.246705 247.864569 
L 335.474911 257.674386 
L 336.120552 257.390249 
L 336.766193 255.88054 
L 338.703116 249.518766 
L 339.348757 249.576319 
L 339.994398 247.00314 
L 340.640039 248.283263 
L 341.28568 249.860564 
L 343.868245 248.610806 
L 344.513886 249.54285 
L 345.159527 248.567924 
L 345.805168 244.828081 
L 347.742091 244.726842 
L 349.033373 243.847981 
L 349.679014 244.384141 
L 350.324655 243.718368 
L 352.261579 242.764511 
L 352.90722 243.035924 
L 353.552861 244.71957 
L 354.198502 243.195367 
L 354.844143 242.094636 
L 357.426707 241.479951 
L 358.072348 240.230697 
L 359.36363 238.759074 
L 361.300554 239.568892 
L 361.946195 240.030123 
L 362.591836 238.315608 
L 363.237477 238.779405 
L 363.883118 240.552289 
L 366.465682 241.502317 
L 367.111323 242.004421 
L 367.756964 233.951161 
L 368.402605 234.689831 
L 370.339529 235.046566 
L 370.98517 235.971418 
L 371.630811 236.561419 
L 372.276452 234.42743 
L 372.922093 234.40129 
L 375.504657 235.418614 
L 376.150298 236.033935 
L 376.795939 235.172796 
L 379.378504 236.258403 
L 380.024145 233.275398 
L 380.669786 233.45568 
L 381.315427 232.941995 
L 381.961068 232.886266 
L 383.897991 231.455216 
L 384.543632 230.774311 
L 385.189273 229.14533 
L 385.834914 228.917988 
L 386.480555 228.304703 
L 388.417479 228.258171 
L 389.06312 228.48492 
L 389.708761 228.145329 
L 390.354402 231.526203 
L 392.936966 233.01743 
L 393.582607 232.774525 
L 394.873889 232.560441 
L 395.51953 232.038607 
L 397.456454 232.681966 
L 398.102095 232.380703 
L 398.747736 231.133149 
L 399.393377 231.040616 
L 400.039018 229.899649 
L 401.975941 228.885056 
L 402.621582 228.989449 
L 403.267223 229.717503 
L 403.912864 229.08017 
L 404.558506 231.404233 
L 406.495429 231.20975 
L 407.14107 231.674882 
L 407.786711 229.660083 
L 408.432352 229.685707 
L 409.077993 231.1877 
L 411.014916 232.97136 
L 411.660557 232.077108 
L 412.306198 230.652546 
L 412.951839 228.704912 
L 413.597481 228.199459 
L 415.534404 228.3389 
L 416.180045 227.400662 
L 416.825686 227.375673 
L 418.116968 226.789202 
L 420.699532 227.339987 
L 421.345173 227.844624 
L 421.990814 226.484648 
L 422.636456 226.799877 
L 424.573379 227.108891 
L 425.21902 227.745538 
L 425.864661 226.97998 
L 426.510302 226.408052 
L 427.155943 227.678243 
L 430.384148 227.86178 
L 431.029789 226.815133 
L 434.257995 226.068314 
L 434.903636 227.593681 
L 436.194918 225.951174 
L 438.131841 225.498957 
L 438.777482 225.144054 
L 439.423123 225.699666 
L 440.714406 225.627569 
L 442.651329 226.359678 
L 443.29697 225.954421 
L 444.588252 224.518549 
L 445.233893 225.143094 
L 447.170816 224.300952 
L 447.816457 223.173672 
L 448.462098 223.175057 
L 449.107739 223.055408 
L 449.753381 224.622043 
L 451.690304 226.537712 
L 452.335945 229.283173 
L 452.981586 231.049737 
L 454.272868 232.3783 
L 456.209791 232.385155 
L 457.501073 233.477975 
L 458.146715 230.75855 
L 458.792356 230.529027 
L 460.729279 230.591976 
L 461.37492 230.755922 
L 462.020561 230.315866 
L 462.666202 229.018519 
L 463.311843 230.567382 
L 465.248766 230.12558 
L 466.540048 228.401121 
L 467.18569 228.733988 
L 467.831331 226.957953 
L 470.413895 226.415918 
L 471.059536 223.306191 
L 471.705177 222.414609 
L 472.350818 223.001996 
L 474.287741 222.791046 
L 474.933382 220.073742 
L 475.579023 221.995968 
L 476.224665 217.442973 
L 476.870306 216.042663 
L 478.807229 216.413047 
L 479.45287 216.924218 
L 480.098511 216.822819 
L 480.744152 218.879329 
L 481.389793 219.305829 
L 483.326716 219.001043 
L 483.972357 218.755424 
L 484.617998 218.375492 
L 485.26364 217.671553 
L 485.909281 216.549062 
L 488.491845 216.267445 
L 489.137486 216.737908 
L 489.783127 216.754219 
L 490.428768 215.360237 
L 493.011332 215.116891 
L 493.656973 215.502234 
L 494.302615 215.602802 
L 494.948256 218.040782 
L 496.885179 217.696446 
L 497.53082 218.723124 
L 498.176461 220.188373 
L 498.822102 222.085822 
L 499.467743 222.283097 
L 501.404666 222.551332 
L 502.050307 222.121621 
L 502.695948 221.965588 
L 503.34159 221.304935 
L 503.987231 221.118705 
L 505.924154 220.91873 
L 506.569795 221.636457 
L 507.215436 221.193697 
L 508.506718 223.6533 
L 510.443641 224.080924 
L 511.089282 227.028813 
L 512.380565 227.478541 
L 513.026206 224.44533 
L 514.963129 225.320378 
L 515.60877 225.288543 
L 516.254411 224.693575 
L 516.900052 224.330096 
L 517.545693 226.702024 
L 520.128257 226.828814 
L 520.773899 227.559895 
L 521.41954 226.989925 
L 522.065181 224.212557 
L 524.002104 224.108675 
L 524.647745 223.959139 
L 525.293386 223.558303 
L 525.939027 222.553693 
L 526.584668 222.048436 
L 528.521591 222.014567 
L 529.167232 222.498281 
L 531.104156 216.79771 
L 533.041079 217.036311 
L 533.68672 216.154312 
L 534.332361 217.752828 
L 535.623643 226.54653 
L 537.560566 227.007454 
L 538.206207 230.264746 
L 538.851849 219.255108 
L 539.49749 217.962561 
L 540.143131 222.498352 
L 542.080054 222.340211 
L 542.725695 227.961431 
L 543.371336 238.703189 
L 544.016977 217.693957 
L 544.662618 222.636517 
L 546.599541 221.158095 
L 547.245182 224.072688 
L 547.890824 214.704949 
L 549.182106 214.544881 
L 551.119029 212.88467 
L 551.76467 213.3071 
L 552.410311 212.835597 
L 553.055952 211.060564 
L 553.701593 212.733693 
L 555.638516 212.151583 
L 556.284157 211.300762 
L 556.929799 208.385508 
L 557.57544 206.786436 
L 558.221081 206.843893 
L 560.158004 207.196446 
L 560.803645 207.58524 
L 561.449286 205.970558 
L 562.094927 210.882141 
L 562.740568 199.36635 
L 564.677491 198.473742 
L 565.323132 195.599019 
L 566.614415 194.266176 
L 567.260056 194.563019 
L 569.196979 193.860752 
L 569.84262 201.237413 
L 571.133902 201.46128 
L 571.779543 195.057803 
L 573.716466 195.461832 
L 574.362107 188.378275 
L 575.007749 187.742167 
L 576.299031 187.791472 
L 578.881595 186.403071 
L 579.527236 186.922679 
L 580.172877 186.980298 
L 580.818518 190.714883 
L 583.401083 191.07954 
L 584.046724 191.928033 
L 584.692365 191.814534 
L 585.338006 192.19967 
L 587.274929 191.171924 
L 587.92057 187.577133 
L 588.566211 188.059188 
L 589.211852 186.384958 
L 589.857493 187.481184 
L 592.440058 186.815511 
L 593.085699 186.435518 
L 593.73134 186.600527 
L 594.376981 187.984324 
L 596.313904 188.282332 
L 596.959545 188.53362 
L 597.605186 186.784032 
L 598.250827 185.821317 
L 598.896468 185.400241 
L 602.124674 185.629024 
L 602.770315 185.354193 
L 603.415956 187.045783 
L 605.352879 187.104804 
L 605.99852 191.838526 
L 606.644161 188.767795 
L 607.289802 195.173638 
L 607.935443 186.010049 
L 609.872366 185.558781 
L 610.518008 184.366092 
L 611.163649 187.185092 
L 611.80929 187.408049 
L 612.454931 181.939188 
L 614.391854 182.749352 
L 615.037495 173.181907 
L 615.683136 169.967003 
L 616.328777 172.282611 
L 616.974418 165.591246 
L 618.911341 165.722046 
L 619.556983 166.088506 
L 620.202624 163.188336 
L 621.493906 161.860037 
L 623.430829 160.565076 
L 624.07647 162.26783 
L 624.722111 157.724756 
L 625.367752 157.586096 
L 626.013393 153.183103 
L 627.950316 162.489779 
L 628.595958 163.724759 
L 629.241599 164.15795 
L 629.88724 158.860519 
L 630.532881 163.515519 
L 632.469804 163.182244 
L 633.115445 168.311915 
L 633.761086 139.820181 
L 634.406727 127.347653 
L 636.989292 128.930778 
L 637.634933 128.839263 
L 638.280574 127.447311 
L 638.926215 127.769824 
L 641.508779 126.388982 
L 642.15442 125.627679 
L 642.800061 126.697907 
L 643.445702 129.562681 
L 644.091343 135.526993 
L 646.028267 135.766003 
L 646.673908 135.499483 
L 647.319549 134.598672 
L 647.96519 134.445971 
L 648.610831 134.768519 
L 651.193395 135.251792 
L 651.839036 134.982133 
L 652.484677 133.027412 
L 653.130318 133.912683 
L 655.067242 134.250316 
L 656.358524 140.815321 
L 657.004165 137.004881 
L 657.649806 139.237695 
L 659.586729 138.883963 
L 660.23237 139.589313 
L 660.878011 138.475884 
L 661.523652 138.60249 
L 662.169293 138.321277 
L 665.397499 137.181705 
L 666.04314 136.878654 
L 666.688781 134.696923 
L 668.625704 135.954735 
L 669.271345 136.645954 
L 670.562627 135.943547 
L 671.208268 135.044865 
L 673.145192 134.90918 
L 673.790833 135.295067 
L 674.436474 134.79314 
L 675.727756 132.915935 
L 677.664679 132.716851 
L 678.31032 132.308674 
L 678.955961 132.192372 
L 680.247243 132.612201 
L 682.829808 131.515267 
L 683.475449 132.972117 
L 684.12109 133.463242 
L 684.766731 132.301734 
L 686.703654 137.901259 
L 687.349295 139.034089 
L 687.994936 137.085096 
L 688.640577 136.394843 
L 691.223142 136.694259 
L 691.868783 136.581024 
L 692.514424 135.740858 
L 693.160065 135.843809 
L 693.805706 136.249263 
L 695.742629 136.218594 
L 696.38827 135.935362 
L 697.033911 136.729376 
L 697.679552 137.703996 
L 698.325193 136.242825 
L 700.907758 136.674129 
L 701.553399 135.9855 
L 702.19904 135.70088 
L 702.844681 135.016078 
L 704.781604 134.729732 
L 706.072886 135.279743 
L 706.718527 134.277963 
L 707.364168 133.833343 
L 709.301092 133.824741 
L 709.946733 132.896541 
L 710.592374 132.442136 
L 711.238015 133.723782 
L 711.883656 134.428859 
L 713.820579 134.294821 
L 714.46622 134.629614 
L 715.111861 134.268592 
L 715.757502 134.816303 
L 716.403143 134.580852 
L 718.340067 134.611234 
L 718.985708 134.078813 
L 719.631349 133.170757 
L 720.27699 133.236192 
L 720.922631 130.543878 
L 722.859554 130.353784 
L 723.505195 129.265199 
L 724.150836 129.532829 
L 724.796477 129.405883 
L 725.442118 128.662736 
L 728.670324 128.181819 
L 729.315965 128.171504 
L 729.961606 127.459789 
L 731.898529 128.127057 
L 732.54417 128.517263 
L 733.189811 129.559536 
L 733.835452 129.291554 
L 734.481093 130.232863 
L 736.418017 130.310156 
L 737.063658 130.08717 
L 738.35494 130.956661 
L 739.000581 133.034854 
L 741.583145 133.013888 
L 742.228786 132.423075 
L 742.874427 134.352908 
L 743.520068 132.209617 
L 745.456992 131.874123 
L 746.102633 133.255849 
L 746.748274 136.482405 
L 747.393915 138.362292 
L 748.039556 138.363583 
L 749.976479 138.577334 
L 750.62212 137.621482 
L 751.267761 138.566968 
L 751.913402 139.166647 
L 752.559043 135.9528 
L 754.495967 135.273309 
L 755.141608 134.384307 
L 755.787249 136.075843 
L 756.43289 135.420659 
L 757.078531 131.539251 
L 759.015454 131.713485 
L 759.661095 131.996942 
L 760.306736 129.91488 
L 760.952377 128.348883 
L 761.598018 128.24995 
L 764.180583 128.283066 
L 764.826224 128.52759 
L 765.471865 128.219143 
L 766.117506 124.8185 
L 768.054429 124.270102 
L 768.70007 125.303821 
L 769.345711 121.355557 
L 769.991352 126.067143 
L 770.636993 122.5736 
L 772.573917 122.713693 
L 773.219558 121.840227 
L 774.51084 124.369029 
L 775.156481 126.396359 
L 777.739045 125.562527 
L 778.384686 124.257114 
L 779.030327 127.377739 
L 779.675968 127.504694 
L 781.612892 127.645796 
L 782.258533 126.426223 
L 782.904174 128.818427 
L 784.195456 131.742069 
L 786.132379 131.589278 
L 786.77802 129.165395 
L 787.423661 128.896326 
L 788.069302 128.46728 
L 788.714943 127.406916 
L 790.651867 127.391985 
L 791.943149 128.061263 
L 792.58879 126.809741 
L 793.234431 124.70246 
L 795.171354 123.614212 
L 795.816995 121.667092 
L 796.462636 123.88643 
L 797.108277 122.631189 
L 797.753918 116.890686 
L 799.690842 116.607001 
L 800.336483 116.012816 
L 800.982124 115.612776 
L 802.273406 114.46594 
L 804.85597 113.537638 
L 805.501611 116.826916 
L 806.792893 118.152847 
L 808.729817 118.105601 
L 809.375458 117.378848 
L 810.021099 117.149055 
L 810.66674 116.463507 
L 811.312381 116.163624 
L 813.249304 116.259256 
L 814.540586 117.884142 
L 815.186227 115.567422 
L 815.831869 116.973713 
L 818.414433 115.721951 
L 819.060074 114.332547 
L 819.705715 114.887926 
L 820.351356 113.195779 
L 822.288279 112.492595 
L 822.93392 111.488675 
L 823.579561 111.814465 
L 824.225202 110.953823 
L 824.870844 109.339142 
L 826.807767 108.742082 
L 827.453408 109.915802 
L 828.099049 112.777131 
L 828.74469 129.406749 
L 829.390331 82.392481 
L 831.327254 81.873158 
L 831.972895 81.235397 
L 832.618536 79.341011 
L 833.264177 79.653202 
L 833.909819 73.39896 
L 836.492383 73.812191 
L 837.138024 73.656022 
L 838.429306 71.802089 
L 840.366229 70.840542 
L 841.01187 70.153856 
L 841.657511 67.599048 
L 842.948794 63.663266 
L 844.885717 62.427092 
L 845.531358 60.465463 
L 846.176999 60.087507 
L 846.82264 57.123728 
L 847.468281 54.972934 
L 850.050845 54.09135 
L 850.696486 54.512169 
L 851.342127 52.30391 
L 851.987769 52.311689 
L 853.924692 52.512138 
L 854.570333 52.092622 
L 855.215974 49.669586 
L 855.861615 48.816736 
L 856.507256 48.537927 
L 858.444179 47.354458 
L 859.08982 47.318064 
L 859.735461 47.470282 
L 860.381102 44.716115 
L 861.026744 47.462371 
L 862.963667 46.786238 
L 863.609308 41.679474 
L 863.609308 41.679474 
" clip-path="url(#p7495c46fd9)" style="fill: none; stroke: #1f77b4; stroke-width: 2.8; stroke-linecap: square"/>
   </g>
   <g id="line2d_21">
    <path d="M 99.815919 382.354524 
L 100.46156 380.391902 
L 101.107202 383.315838 
L 101.752843 377.508152 
L 103.689766 377.655036 
L 104.335407 375.839299 
L 104.981048 372.541628 
L 106.27233 370.552358 
L 108.854894 371.039656 
L 109.500536 375.23185 
L 110.146177 377.134332 
L 110.791818 372.301326 
L 112.728741 369.130522 
L 113.374382 369.417533 
L 114.020023 369.317422 
L 114.665664 366.380204 
L 115.311305 365.75941 
L 117.248228 369.157192 
L 117.893869 365.225361 
L 118.539511 362.341568 
L 119.185152 358.34964 
L 119.830793 361.306833 
L 121.767716 362.989116 
L 122.413357 359.411023 
L 123.058998 362.441679 
L 123.704639 364.818178 
L 124.35028 364.183953 
L 126.287203 360.986437 
L 126.932844 361.113282 
L 127.578486 360.218759 
L 128.224127 364.023766 
L 128.869768 364.704636 
L 131.452332 370.1585 
L 132.097973 370.525646 
L 132.743614 369.110441 
L 133.389255 371.967543 
L 135.326178 371.066347 
L 136.617461 373.062311 
L 137.263102 371.012965 
L 137.908743 366.754024 
L 139.845666 366.567125 
L 140.491307 370.705894 
L 141.136948 370.271978 
L 141.782589 375.185098 
L 142.42823 378.956721 
L 144.365153 379.323868 
L 145.010794 375.071641 
L 145.656436 376.707131 
L 146.302077 372.147812 
L 146.947718 375.239606 
L 148.884641 372.726764 
L 149.530282 369.262382 
L 150.175923 373.818981 
L 150.821564 373.108701 
L 151.467205 371.379836 
L 153.404128 370.883974 
L 154.049769 371.480373 
L 154.695411 367.62736 
L 155.341052 366.052626 
L 155.986693 362.23982 
L 157.923616 361.19446 
L 158.569257 362.722272 
L 159.214898 363.439247 
L 159.860539 362.373762 
L 163.088744 362.018665 
L 163.734386 363.137722 
L 164.380027 359.505865 
L 165.025668 360.182654 
L 166.962591 359.190845 
L 167.608232 359.00996 
L 168.253873 359.056818 
L 168.899514 360.571243 
L 169.545155 360.356803 
L 171.482078 360.068666 
L 172.12772 364.45781 
L 172.773361 365.610358 
L 173.419002 360.216124 
L 174.064643 357.857412 
L 176.001566 358.138813 
L 176.647207 361.268157 
L 177.938489 365.094372 
L 178.58413 360.068666 
L 180.521053 359.99499 
L 181.166695 361.207869 
L 181.812336 359.921293 
L 183.103618 360.765622 
L 185.040541 359.814041 
L 185.686182 361.663503 
L 186.331823 358.326434 
L 186.977464 355.646116 
L 187.623105 356.05485 
L 189.560028 355.940925 
L 190.20567 359.090351 
L 190.851311 361.100659 
L 191.496952 358.715087 
L 192.142593 355.116742 
L 194.725157 355.009511 
L 195.370798 356.570815 
L 196.016439 353.910536 
L 196.66208 349.82298 
L 198.599003 350.372436 
L 199.244645 349.749304 
L 199.890286 350.741049 
L 200.535927 349.012184 
L 201.181568 348.496241 
L 203.118491 345.882861 
L 203.764132 343.966375 
L 204.409773 343.61795 
L 205.055414 339.986029 
L 205.701055 340.99624 
L 208.28362 342.529727 
L 208.929261 344.036311 
L 209.574902 342.980325 
L 210.220543 345.199909 
L 212.157466 346.39039 
L 212.803107 343.209067 
L 213.448748 343.061077 
L 214.094389 341.904236 
L 214.74003 338.42702 
L 216.676953 338.083992 
L 217.968236 338.527875 
L 218.613877 340.861745 
L 219.259518 341.608322 
L 221.196441 340.861745 
L 221.842082 338.978473 
L 223.133364 334.203163 
L 223.779005 334.391507 
L 225.715929 333.342279 
L 226.36157 331.089141 
L 227.007211 330.409822 
L 227.652852 332.44102 
L 228.298493 332.44102 
L 230.235416 331.082404 
L 230.881057 330.248403 
L 231.526698 330.201332 
L 232.172339 332.23253 
L 232.81798 329.253024 
L 234.754904 328.667824 
L 235.400545 329.548917 
L 236.046186 333.819781 
L 236.691827 334.687422 
L 237.337468 336.052816 
L 239.274391 333.429747 
L 239.920032 334.747965 
L 240.565673 336.765732 
L 241.211314 336.658098 
L 241.856955 336.832969 
L 243.793879 335.178439 
L 244.43952 338.689316 
L 245.730802 343.128336 
L 246.376443 342.987083 
L 248.313366 341.076971 
L 248.959007 341.877333 
L 249.604648 338.595112 
L 250.250289 342.724765 
L 250.89593 340.653255 
L 252.832854 338.776741 
L 253.478495 334.472217 
L 254.124136 333.227951 
L 254.769777 333.671834 
L 255.415418 333.106865 
L 257.997982 334.41841 
L 258.643623 336.449608 
L 259.289264 337.371034 
L 259.934905 336.920436 
L 261.871829 334.949761 
L 262.51747 336.604312 
L 263.163111 336.254548 
L 263.808752 333.66514 
L 264.454393 337.314614 
L 266.391316 337.139105 
L 267.036957 337.760048 
L 267.682598 340.507157 
L 268.328239 345.400536 
L 268.97388 346.055225 
L 270.910804 344.83357 
L 271.556445 349.119521 
L 272.202086 349.004789 
L 272.847727 347.337678 
L 273.493368 348.039586 
L 275.430291 348.154361 
L 276.075932 352.015066 
L 276.721573 349.942982 
L 277.367214 350.050935 
L 278.012855 346.649222 
L 279.949779 344.793087 
L 280.59542 343.274434 
L 281.241061 342.072988 
L 281.886702 343.868388 
L 282.532343 345.326308 
L 284.469266 342.262033 
L 285.114907 342.275527 
L 285.760548 346.197009 
L 286.406189 348.748315 
L 287.05183 352.285076 
L 288.988754 352.777772 
L 289.634395 350.638175 
L 290.280036 354.741881 
L 290.925677 358.116691 
L 291.571318 359.378828 
L 293.508241 356.064838 
L 294.153882 354.303183 
L 294.799523 351.292885 
L 295.445164 345.825761 
L 296.090805 343.173174 
L 298.027729 342.498255 
L 298.67337 341.661278 
L 299.319011 341.445329 
L 299.964652 343.74692 
L 300.610293 339.177464 
L 302.547216 339.460968 
L 303.192857 333.696867 
L 303.838498 333.055651 
L 305.12978 332.306461 
L 307.066704 329.964324 
L 307.712345 330.632571 
L 308.357986 329.451398 
L 309.649268 329.262417 
L 311.586191 329.815889 
L 312.231832 329.512133 
L 312.877473 329.728145 
L 313.523114 328.519963 
L 314.168755 326.697553 
L 316.105679 328.324202 
L 316.75132 328.384979 
L 317.396961 329.626865 
L 318.042602 327.284771 
L 318.688243 325.95512 
L 320.625166 324.746959 
L 321.270807 323.322806 
L 321.916448 319.003088 
L 322.562089 317.983887 
L 323.20773 318.50848 
L 325.144654 316.719348 
L 325.790295 314.774407 
L 326.435936 319.233572 
L 327.081577 316.224634 
L 327.727218 315.580847 
L 330.309782 314.225483 
L 330.955423 313.642621 
L 331.601064 313.520642 
L 332.246705 314.455882 
L 334.82927 316.258529 
L 335.474911 318.874394 
L 336.120552 319.897739 
L 336.766193 319.463993 
L 338.703116 314.937017 
L 339.348757 315.424952 
L 339.994398 313.608768 
L 340.640039 313.751084 
L 341.28568 313.527442 
L 343.868245 314.713375 
L 344.513886 316.502465 
L 345.159527 313.6562 
L 345.805168 309.630717 
L 347.742091 308.939435 
L 348.387732 307.983944 
L 349.033373 307.624745 
L 349.679014 305.835634 
L 350.324655 306.255801 
L 352.261579 303.639914 
L 352.90722 303.897472 
L 353.552861 309.32575 
L 354.198502 305.042752 
L 354.844143 301.552615 
L 356.781066 302.772507 
L 357.426707 301.803373 
L 358.072348 299.011318 
L 358.717989 298.862224 
L 359.36363 296.910462 
L 361.300554 297.059556 
L 361.946195 301.735626 
L 362.591836 298.692814 
L 363.237477 296.361537 
L 363.883118 298.055763 
L 366.465682 299.919378 
L 367.111323 299.614453 
L 367.756964 292.641001 
L 368.402605 292.403844 
L 370.339529 293.664324 
L 370.98517 293.027316 
L 371.630811 293.481356 
L 372.276452 292.247971 
L 372.922093 289.01537 
L 374.859016 289.388106 
L 375.504657 292.857885 
L 376.150298 291.116248 
L 376.795939 287.6871 
L 377.44158 289.781136 
L 379.378504 290.079324 
L 380.024145 286.352052 
L 381.315427 287.592259 
L 381.961068 289.988499 
L 383.897991 287.92872 
L 384.543632 285.991259 
L 385.189273 282.748691 
L 385.834914 281.579398 
L 386.480555 282.252405 
L 388.417479 283.23125 
L 389.06312 283.88392 
L 389.708761 280.919991 
L 390.354402 280.987972 
L 392.936966 281.60662 
L 393.582607 283.863499 
L 394.228248 283.476079 
L 394.873889 287.785958 
L 395.51953 284.142264 
L 397.456454 283.945144 
L 398.102095 283.537259 
L 398.747736 287.072171 
L 399.393377 284.434545 
L 400.039018 289.295134 
L 401.975941 293.645794 
L 402.621582 294.271199 
L 403.267223 296.296999 
L 403.912864 296.997207 
L 404.558506 299.961093 
L 406.495429 296.861245 
L 407.14107 292.830046 
L 407.786711 292.993166 
L 408.432352 294.298421 
L 409.077993 291.055748 
L 411.014916 289.83218 
L 411.660557 295.324889 
L 412.306198 296.432939 
L 412.951839 293.25151 
L 413.597481 288.995968 
L 415.534404 285.406654 
L 416.180045 285.019171 
L 416.825686 284.985191 
L 417.471327 282.959476 
L 418.116968 282.503927 
L 420.053891 282.456389 
L 420.699532 280.83161 
L 421.345173 276.426549 
L 421.990814 277.167515 
L 422.636456 276.650913 
L 424.573379 276.236228 
L 425.21902 275.352458 
L 425.864661 276.392548 
L 426.510302 279.023416 
L 427.155943 276.657713 
L 429.738507 276.406148 
L 431.029789 281.300675 
L 431.675431 278.064801 
L 433.612354 277.772563 
L 434.257995 277.371479 
L 434.903636 273.102358 
L 435.549277 273.109201 
L 436.194918 273.551043 
L 438.131841 272.429436 
L 438.777482 271.552466 
L 439.423123 268.554599 
L 440.068764 267.81359 
L 440.714406 267.589226 
L 443.29697 263.707632 
L 445.233893 265.219018 
L 447.170816 266.426138 
L 447.816457 265.000774 
L 449.107739 263.950484 
L 449.753381 265.416776 
L 451.690304 264.652944 
L 452.335945 262.150047 
L 452.981586 260.479154 
L 454.272868 258.310444 
L 456.209791 257.873998 
L 456.855432 257.505768 
L 457.501073 253.754822 
L 458.146715 257.055595 
L 458.792356 254.661798 
L 460.729279 253.61155 
L 461.37492 251.340625 
L 462.020561 256.741893 
L 463.311843 262.16369 
L 465.248766 258.303601 
L 465.894407 258.897003 
L 466.540048 267.4559 
L 467.18569 269.379123 
L 467.831331 265.266747 
L 469.768254 265.048546 
L 470.413895 266.930797 
L 471.059536 260.922484 
L 471.705177 266.24198 
L 472.350818 273.136869 
L 474.287741 283.721353 
L 474.933382 280.468246 
L 475.579023 282.848442 
L 476.224665 274.671376 
L 476.870306 273.075497 
L 478.807229 272.884497 
L 479.45287 266.903554 
L 480.098511 265.737363 
L 480.744152 259.381177 
L 481.389793 258.535488 
L 483.326716 254.921013 
L 483.972357 255.541574 
L 484.617998 254.232196 
L 485.26364 257.232952 
L 485.909281 253.202391 
L 487.846204 254.116253 
L 488.491845 253.591065 
L 489.137486 255.814389 
L 489.783127 255.780261 
L 490.428768 252.145301 
L 493.011332 260.056394 
L 494.302615 261.740845 
L 494.948256 268.04926 
L 497.53082 262.300076 
L 498.822102 255.275558 
L 499.467743 253.284248 
L 502.050307 252.561303 
L 502.695948 253.700208 
L 503.34159 247.166792 
L 503.987231 247.839926 
L 505.924154 246.868476 
L 506.569795 245.753456 
L 507.215436 246.615381 
L 507.861077 245.069399 
L 508.506718 245.637215 
L 510.443641 244.070663 
L 511.089282 247.586789 
L 511.734923 247.422607 
L 512.380565 248.134035 
L 513.026206 244.604223 
L 514.963129 248.14772 
L 515.60877 244.474212 
L 516.254411 241.758383 
L 516.900052 242.449368 
L 517.545693 240.089318 
L 519.482616 236.846729 
L 520.128257 239.952421 
L 520.773899 238.228571 
L 521.41954 238.194358 
L 522.065181 236.661976 
L 524.647745 237.530829 
L 525.293386 241.176967 
L 525.939027 240.321842 
L 526.584668 240.458696 
L 528.521591 239.23415 
L 529.167232 238.591107 
L 529.812874 239.795082 
L 530.458515 247.573061 
L 531.104156 245.931324 
L 533.041079 246.772763 
L 533.68672 242.059377 
L 534.332361 232.249669 
L 534.978002 229.123449 
L 535.623643 227.3585 
L 537.560566 226.968594 
L 538.206207 228.240953 
L 538.851849 228.042557 
L 539.49749 230.669473 
L 540.143131 235.868521 
L 542.080054 234.226656 
L 542.725695 232.755943 
L 543.371336 232.61909 
L 544.016977 230.450592 
L 544.662618 229.191876 
L 546.599541 227.810033 
L 547.245182 225.675664 
L 547.890824 226.920738 
L 549.182106 224.375934 
L 551.76467 223.445582 
L 552.410311 220.880336 
L 553.055952 221.564435 
L 553.701593 220.777695 
L 555.638516 222.918822 
L 556.284157 224.204952 
L 556.929799 221.017105 
L 557.57544 223.158274 
L 558.221081 223.240301 
L 560.158004 221.475438 
L 560.803645 223.185687 
L 561.449286 235.505858 
L 562.094927 235.629069 
L 562.740568 230.813425 
L 564.677491 228.38363 
L 565.323132 223.846581 
L 566.614415 223.819125 
L 567.260056 228.163941 
L 569.84262 234.29334 
L 571.133902 235.281749 
L 571.779543 230.264309 
L 573.716466 227.923724 
L 574.362107 232.543097 
L 575.007749 231.95284 
L 576.299031 238.130266 
L 578.235954 237.512468 
L 578.881595 236.963395 
L 579.527236 229.694623 
L 580.172877 230.477028 
L 580.818518 226.399885 
L 583.401083 222.645454 
L 584.692365 218.046694 
L 585.338006 219.268477 
L 587.274929 225.171302 
L 587.92057 221.636432 
L 588.566211 223.496541 
L 589.211852 221.27955 
L 589.857493 223.489656 
L 591.794416 226.269534 
L 592.440058 223.517112 
L 593.73134 220.400964 
L 594.376981 224.210349 
L 596.313904 221.409943 
L 596.959545 221.094202 
L 597.605186 222.432608 
L 598.250827 218.060422 
L 598.896468 218.080992 
L 601.479033 216.852367 
L 602.124674 215.863958 
L 602.770315 217.614201 
L 603.415956 224.780078 
L 605.352879 226.653957 
L 605.99852 228.692444 
L 606.644161 228.486568 
L 607.289802 235.000348 
L 607.935443 228.733627 
L 609.872366 235.878891 
L 610.518008 240.621773 
L 611.163649 236.366253 
L 611.80929 243.470248 
L 612.454931 241.267027 
L 615.037495 254.99471 
L 615.683136 252.969867 
L 616.328777 258.083402 
L 616.974418 250.265514 
L 618.911341 247.28656 
L 619.556983 251.494139 
L 620.202624 247.300288 
L 620.848265 248.425976 
L 621.493906 248.297962 
L 623.430829 241.344591 
L 624.07647 240.394519 
L 624.722111 245.12414 
L 625.367752 246.16372 
L 626.013393 254.02581 
L 627.950316 251.457928 
L 628.595958 250.370152 
L 629.241599 247.926161 
L 630.532881 288.709829 
L 632.469804 289.329411 
L 633.115445 294.768166 
L 633.761086 258.87248 
L 634.406727 275.422755 
L 635.052368 268.978889 
L 636.989292 265.412739 
L 637.634933 266.452361 
L 638.280574 274.679281 
L 638.926215 274.162934 
L 641.508779 282.789174 
L 642.15442 273.584619 
L 642.800061 267.96005 
L 643.445702 260.201196 
L 644.091343 257.481797 
L 646.028267 257.33725 
L 646.673908 254.948342 
L 647.319549 254.79691 
L 647.96519 252.091282 
L 648.610831 246.384004 
L 650.547754 248.621481 
L 651.193395 251.864113 
L 651.839036 250.246218 
L 652.484677 247.554446 
L 653.130318 248.050052 
L 655.067242 235.210517 
L 655.712883 232.560013 
L 656.358524 232.043665 
L 657.004165 230.067826 
L 657.649806 227.493017 
L 659.586729 227.045564 
L 660.23237 228.422433 
L 660.878011 235.300067 
L 661.523652 235.141707 
L 662.169293 237.881719 
L 664.751858 229.59279 
L 665.397499 231.947273 
L 666.04314 230.350119 
L 666.688781 230.804415 
L 668.625704 228.518741 
L 669.271345 226.191884 
L 669.916986 226.302047 
L 670.562627 228.284772 
L 671.208268 224.092111 
L 673.145192 223.720353 
L 673.790833 221.379598 
L 674.436474 222.563767 
L 675.082115 220.918374 
L 675.727756 225.565331 
L 677.664679 221.655006 
L 678.31032 225.200458 
L 678.955961 225.262467 
L 680.247243 226.228393 
L 682.184167 222.175306 
L 682.829808 217.597413 
L 683.475449 217.362637 
L 684.12109 214.082859 
L 684.766731 211.983809 
L 686.703654 209.95378 
L 687.349295 210.091824 
L 687.994936 208.158443 
L 688.640577 204.781976 
L 691.223142 207.999744 
L 691.868783 208.234436 
L 692.514424 205.665874 
L 693.160065 204.450636 
L 693.805706 205.96963 
L 695.742629 205.147997 
L 696.38827 206.991572 
L 697.033911 205.555413 
L 697.679552 202.917745 
L 698.325193 203.235356 
L 700.262117 202.41368 
L 700.907758 202.351543 
L 701.553399 198.657464 
L 702.19904 198.51245 
L 702.844681 196.661947 
L 704.781604 196.772407 
L 705.427245 197.932436 
L 706.072886 198.484824 
L 706.718527 200.128177 
L 707.364168 207.281643 
L 709.301092 200.756515 
L 709.946733 202.966069 
L 710.592374 199.644853 
L 711.238015 200.010788 
L 711.883656 196.606738 
L 713.820579 197.476738 
L 714.46622 192.802155 
L 715.111861 191.283076 
L 715.757502 191.24168 
L 716.403143 192.28432 
L 718.340067 192.380926 
L 718.985708 194.790745 
L 719.631349 195.964586 
L 720.27699 197.73217 
L 720.922631 190.993048 
L 722.859554 192.954055 
L 723.505195 191.096666 
L 724.150836 190.081652 
L 724.796477 188.500479 
L 725.442118 191.172616 
L 728.024683 194.473091 
L 728.670324 192.077169 
L 729.315965 188.36235 
L 729.961606 189.660465 
L 731.898529 188.562573 
L 732.54417 187.52686 
L 733.189811 186.228788 
L 733.835452 182.4863 
L 734.481093 182.638284 
L 736.418017 180.22158 
L 737.709299 181.416077 
L 739.000581 177.024552 
L 740.937504 174.850445 
L 741.583145 177.363797 
L 742.228786 178.824819 
L 742.874427 180.93662 
L 743.520068 178.326237 
L 745.456992 177.038408 
L 746.748274 173.735637 
L 747.393915 173.202587 
L 748.039556 173.20943 
L 749.976479 171.547717 
L 750.62212 173.271779 
L 751.267761 170.509114 
L 751.913402 171.859293 
L 752.559043 184.419383 
L 754.495967 177.481568 
L 755.141608 178.042414 
L 755.787249 176.006733 
L 756.43289 179.143281 
L 757.078531 176.546796 
L 759.015454 171.762348 
L 759.661095 171.769318 
L 760.306736 174.185725 
L 760.952377 171.443844 
L 761.598018 167.642576 
L 763.534942 162.110319 
L 764.180583 160.850158 
L 764.826224 160.621671 
L 765.471865 165.856207 
L 766.117506 164.312138 
L 768.054429 163.42586 
L 768.70007 169.034279 
L 769.345711 167.41409 
L 769.991352 172.447808 
L 770.636993 171.990877 
L 772.573917 164.7414 
L 773.219558 163.661317 
L 773.865199 163.398191 
L 774.51084 171.249996 
L 775.156481 171.326115 
L 777.093404 175.66056 
L 777.739045 179.53102 
L 778.384686 177.765391 
L 779.030327 184.758628 
L 779.675968 180.258046 
L 781.612892 173.541832 
L 782.258533 169.186646 
L 782.904174 165.960038 
L 784.195456 163.391264 
L 786.132379 165.551516 
L 786.77802 164.679093 
L 787.423661 163.045049 
L 788.069302 162.698876 
L 788.714943 161.798743 
L 791.297508 163.633648 
L 791.943149 160.497015 
L 792.58879 159.389221 
L 793.234431 164.519884 
L 795.171354 165.233054 
L 795.816995 166.520884 
L 796.462636 171.693113 
L 797.108277 168.182682 
L 797.753918 163.93749 
L 799.690842 160.993047 
L 800.336483 158.819449 
L 800.982124 157.138908 
L 802.273406 157.18753 
L 804.85597 159.479153 
L 805.501611 163.013895 
L 806.792893 162.14585 
L 808.729817 158.986139 
L 809.375458 156.145867 
L 810.021099 157.694442 
L 810.66674 157.743063 
L 811.312381 154.576424 
L 813.249304 153.819477 
L 813.894945 154.784723 
L 814.540586 157.152806 
L 815.186227 155.847254 
L 815.831869 156.250038 
L 818.414433 166.027785 
L 819.060074 160.597233 
L 819.705715 158.111124 
L 820.351356 157.937549 
L 822.288279 155.506989 
L 822.93392 153.590311 
L 823.579561 153.638932 
L 824.225202 154.59725 
L 824.870844 156.034769 
L 826.807767 153.64586 
L 827.453408 157.729165 
L 828.099049 160.048627 
L 828.74469 165.999989 
L 829.390331 156.972261 
L 831.327254 154.659727 
L 831.972895 155.930598 
L 832.618536 156.041654 
L 833.264177 163.465258 
L 833.909819 163.131964 
L 836.492383 162.368089 
L 837.138024 159.97918 
L 837.783665 161.236154 
L 838.429306 157.798612 
L 840.366229 162.687486 
L 841.657511 155.21526 
L 842.948794 160.187521 
L 844.885717 159.916661 
L 845.531358 164.118035 
L 846.176999 160.784749 
L 846.82264 163.437505 
L 847.468281 169.638902 
L 849.405204 165.548584 
L 850.696486 166.89583 
L 851.342127 174.027791 
L 851.987769 176.645824 
L 853.924692 171.965249 
L 854.570333 170.743083 
L 855.215974 177.243051 
L 855.861615 178.374986 
L 856.507256 184.943551 
L 858.444179 180.201476 
L 859.08982 181.733433 
L 859.735461 179.198745 
L 861.026744 195.026542 
L 862.963667 196.502822 
L 863.609308 183.711015 
L 863.609308 183.711015 
" clip-path="url(#p7495c46fd9)" style="fill: none; stroke-dasharray: 8.14,3.52; stroke-dashoffset: 0; stroke: #ff7f0e; stroke-width: 2.2"/>
   </g>
   <g id="patch_3">
    <path d="M 61.62625 400.397656 
L 61.62625 24.597656 
" style="fill: none; stroke: #000000; stroke-width: 0.8; stroke-linejoin: miter; stroke-linecap: square"/>
   </g>
   <g id="patch_4">
    <path d="M 61.62625 400.397656 
L 901.798977 400.397656 
" style="fill: none; stroke: #000000; stroke-width: 0.8; stroke-linejoin: miter; stroke-linecap: square"/>
   </g>
   <g id="text_21">
    <!-- $23,401 -->
    <g style="fill: #1f77b4" transform="translate(871.609308 44.438849) scale(0.1 -0.1)">
     <defs>
      <path id="DejaVuSans-Bold-24" d="M 2484 -941 
L 1978 -941 
L 1975 0 
Q 1584 16 1218 87 
Q 853 159 506 288 
L 506 1106 
Q 866 922 1233 823 
Q 1600 725 1978 713 
L 1978 1684 
L 1875 1703 
Q 1128 1834 814 2115 
Q 500 2397 500 2925 
Q 500 3484 883 3798 
Q 1266 4113 1975 4141 
L 1978 4863 
L 2484 4863 
L 2484 4153 
Q 2797 4128 3109 4075 
Q 3422 4022 3738 3938 
L 3738 3144 
Q 3425 3275 3112 3348 
Q 2800 3422 2484 3438 
L 2484 2541 
L 2584 2522 
Q 3378 2397 3698 2105 
Q 4019 1813 4019 1241 
Q 4019 666 3637 358 
Q 3256 50 2484 6 
L 2484 -941 
z
M 1978 2613 
L 1978 3428 
Q 1756 3416 1623 3308 
Q 1491 3200 1491 3034 
Q 1491 2850 1612 2745 
Q 1734 2641 1978 2613 
z
M 2484 1594 
L 2484 725 
Q 2756 728 2892 831 
Q 3028 934 3028 1141 
Q 3028 1353 2903 1458 
Q 2778 1563 2484 1594 
z
" transform="scale(0.015625)"/>
      <path id="DejaVuSans-Bold-32" d="M 1844 884 
L 3897 884 
L 3897 0 
L 506 0 
L 506 884 
L 2209 2388 
Q 2438 2594 2547 2791 
Q 2656 2988 2656 3200 
Q 2656 3528 2436 3728 
Q 2216 3928 1850 3928 
Q 1569 3928 1234 3808 
Q 900 3688 519 3450 
L 519 4475 
Q 925 4609 1322 4679 
Q 1719 4750 2100 4750 
Q 2938 4750 3402 4381 
Q 3866 4013 3866 3353 
Q 3866 2972 3669 2642 
Q 3472 2313 2841 1759 
L 1844 884 
z
" transform="scale(0.015625)"/>
      <path id="DejaVuSans-Bold-33" d="M 2981 2516 
Q 3453 2394 3698 2092 
Q 3944 1791 3944 1325 
Q 3944 631 3412 270 
Q 2881 -91 1863 -91 
Q 1503 -91 1142 -33 
Q 781 25 428 141 
L 428 1069 
Q 766 900 1098 814 
Q 1431 728 1753 728 
Q 2231 728 2486 893 
Q 2741 1059 2741 1369 
Q 2741 1688 2480 1852 
Q 2219 2016 1709 2016 
L 1228 2016 
L 1228 2791 
L 1734 2791 
Q 2188 2791 2409 2933 
Q 2631 3075 2631 3366 
Q 2631 3634 2415 3781 
Q 2200 3928 1806 3928 
Q 1516 3928 1219 3862 
Q 922 3797 628 3669 
L 628 4550 
Q 984 4650 1334 4700 
Q 1684 4750 2022 4750 
Q 2931 4750 3382 4451 
Q 3834 4153 3834 3553 
Q 3834 3144 3618 2883 
Q 3403 2622 2981 2516 
z
" transform="scale(0.015625)"/>
      <path id="DejaVuSans-Bold-2c" d="M 653 1209 
L 1778 1209 
L 1778 256 
L 1006 -909 
L 341 -909 
L 653 256 
L 653 1209 
z
" transform="scale(0.015625)"/>
      <path id="DejaVuSans-Bold-34" d="M 2356 3675 
L 1038 1722 
L 2356 1722 
L 2356 3675 
z
M 2156 4666 
L 3494 4666 
L 3494 1722 
L 4159 1722 
L 4159 850 
L 3494 850 
L 3494 0 
L 2356 0 
L 2356 850 
L 288 850 
L 288 1881 
L 2156 4666 
z
" transform="scale(0.015625)"/>
      <path id="DejaVuSans-Bold-30" d="M 2944 2338 
Q 2944 3213 2780 3570 
Q 2616 3928 2228 3928 
Q 1841 3928 1675 3570 
Q 1509 3213 1509 2338 
Q 1509 1453 1675 1090 
Q 1841 728 2228 728 
Q 2613 728 2778 1090 
Q 2944 1453 2944 2338 
z
M 4147 2328 
Q 4147 1169 3647 539 
Q 3147 -91 2228 -91 
Q 1306 -91 806 539 
Q 306 1169 306 2328 
Q 306 3491 806 4120 
Q 1306 4750 2228 4750 
Q 3147 4750 3647 4120 
Q 4147 3491 4147 2328 
z
" transform="scale(0.015625)"/>
      <path id="DejaVuSans-Bold-31" d="M 750 831 
L 1813 831 
L 1813 3847 
L 722 3622 
L 722 4441 
L 1806 4666 
L 2950 4666 
L 2950 831 
L 4013 831 
L 4013 0 
L 750 0 
L 750 831 
z
" transform="scale(0.015625)"/>
     </defs>
     <use xlink:href="#DejaVuSans-Bold-24"/>
     <use xlink:href="#DejaVuSans-Bold-32" transform="translate(69.580078 0)"/>
     <use xlink:href="#DejaVuSans-Bold-33" transform="translate(139.160156 0)"/>
     <use xlink:href="#DejaVuSans-Bold-2c" transform="translate(208.740234 0)"/>
     <use xlink:href="#DejaVuSans-Bold-34" transform="translate(246.728516 0)"/>
     <use xlink:href="#DejaVuSans-Bold-30" transform="translate(316.308594 0)"/>
     <use xlink:href="#DejaVuSans-Bold-31" transform="translate(385.888672 0)"/>
    </g>
   </g>
   <g id="text_22">
    <!-- $17,814 -->
    <g style="fill: #ff7f0e" transform="translate(871.609308 194.47039) scale(0.1 -0.1)">
     <defs>
      <path id="DejaVuSans-Bold-37" d="M 428 4666 
L 3944 4666 
L 3944 3988 
L 2125 0 
L 953 0 
L 2675 3781 
L 428 3781 
L 428 4666 
z
" transform="scale(0.015625)"/>
      <path id="DejaVuSans-Bold-38" d="M 2228 2088 
Q 1891 2088 1709 1903 
Q 1528 1719 1528 1375 
Q 1528 1031 1709 848 
Q 1891 666 2228 666 
Q 2563 666 2741 848 
Q 2919 1031 2919 1375 
Q 2919 1722 2741 1905 
Q 2563 2088 2228 2088 
z
M 1350 2484 
Q 925 2613 709 2878 
Q 494 3144 494 3541 
Q 494 4131 934 4440 
Q 1375 4750 2228 4750 
Q 3075 4750 3515 4442 
Q 3956 4134 3956 3541 
Q 3956 3144 3739 2878 
Q 3522 2613 3097 2484 
Q 3572 2353 3814 2058 
Q 4056 1763 4056 1313 
Q 4056 619 3595 264 
Q 3134 -91 2228 -91 
Q 1319 -91 855 264 
Q 391 619 391 1313 
Q 391 1763 633 2058 
Q 875 2353 1350 2484 
z
M 1631 3419 
Q 1631 3141 1786 2991 
Q 1941 2841 2228 2841 
Q 2509 2841 2662 2991 
Q 2816 3141 2816 3419 
Q 2816 3697 2662 3845 
Q 2509 3994 2228 3994 
Q 1941 3994 1786 3844 
Q 1631 3694 1631 3419 
z
" transform="scale(0.015625)"/>
     </defs>
     <use xlink:href="#DejaVuSans-Bold-24"/>
     <use xlink:href="#DejaVuSans-Bold-31" transform="translate(69.580078 0)"/>
     <use xlink:href="#DejaVuSans-Bold-37" transform="translate(139.160156 0)"/>
     <use xlink:href="#DejaVuSans-Bold-2c" transform="translate(208.740234 0)"/>
     <use xlink:href="#DejaVuSans-Bold-38" transform="translate(246.728516 0)"/>
     <use xlink:href="#DejaVuSans-Bold-31" transform="translate(316.308594 0)"/>
     <use xlink:href="#DejaVuSans-Bold-34" transform="translate(385.888672 0)"/>
    </g>
   </g>
   <g id="text_23">
    <!-- Backtested Cumulative Performance (Normalized to $10,000) -->
    <g transform="translate(250.548551 18.597656) scale(0.15 -0.15)">
     <defs>
      <path id="DejaVuSans-42" d="M 1259 2228 
L 1259 519 
L 2272 519 
Q 2781 519 3026 730 
Q 3272 941 3272 1375 
Q 3272 1813 3026 2020 
Q 2781 2228 2272 2228 
L 1259 2228 
z
M 1259 4147 
L 1259 2741 
L 2194 2741 
Q 2656 2741 2882 2914 
Q 3109 3088 3109 3444 
Q 3109 3797 2882 3972 
Q 2656 4147 2194 4147 
L 1259 4147 
z
M 628 4666 
L 2241 4666 
Q 2963 4666 3353 4366 
Q 3744 4066 3744 3513 
Q 3744 3084 3544 2831 
Q 3344 2578 2956 2516 
Q 3422 2416 3680 2098 
Q 3938 1781 3938 1306 
Q 3938 681 3513 340 
Q 3088 0 2303 0 
L 628 0 
L 628 4666 
z
" transform="scale(0.015625)"/>
      <path id="DejaVuSans-61" d="M 2194 1759 
Q 1497 1759 1228 1600 
Q 959 1441 959 1056 
Q 959 750 1161 570 
Q 1363 391 1709 391 
Q 2188 391 2477 730 
Q 2766 1069 2766 1631 
L 2766 1759 
L 2194 1759 
z
M 3341 1997 
L 3341 0 
L 2766 0 
L 2766 531 
Q 2569 213 2275 61 
Q 1981 -91 1556 -91 
Q 1019 -91 701 211 
Q 384 513 384 1019 
Q 384 1609 779 1909 
Q 1175 2209 1959 2209 
L 2766 2209 
L 2766 2266 
Q 2766 2663 2505 2880 
Q 2244 3097 1772 3097 
Q 1472 3097 1187 3025 
Q 903 2953 641 2809 
L 641 3341 
Q 956 3463 1253 3523 
Q 1550 3584 1831 3584 
Q 2591 3584 2966 3190 
Q 3341 2797 3341 1997 
z
" transform="scale(0.015625)"/>
      <path id="DejaVuSans-63" d="M 3122 3366 
L 3122 2828 
Q 2878 2963 2633 3030 
Q 2388 3097 2138 3097 
Q 1578 3097 1268 2742 
Q 959 2388 959 1747 
Q 959 1106 1268 751 
Q 1578 397 2138 397 
Q 2388 397 2633 464 
Q 2878 531 3122 666 
L 3122 134 
Q 2881 22 2623 -34 
Q 2366 -91 2075 -91 
Q 1284 -91 818 406 
Q 353 903 353 1747 
Q 353 2603 823 3093 
Q 1294 3584 2113 3584 
Q 2378 3584 2631 3529 
Q 2884 3475 3122 3366 
z
" transform="scale(0.015625)"/>
      <path id="DejaVuSans-6b" d="M 581 4863 
L 1159 4863 
L 1159 1991 
L 2875 3500 
L 3609 3500 
L 1753 1863 
L 3688 0 
L 2938 0 
L 1159 1709 
L 1159 0 
L 581 0 
L 581 4863 
z
" transform="scale(0.015625)"/>
      <path id="DejaVuSans-65" d="M 3597 1894 
L 3597 1613 
L 953 1613 
Q 991 1019 1311 708 
Q 1631 397 2203 397 
Q 2534 397 2845 478 
Q 3156 559 3463 722 
L 3463 178 
Q 3153 47 2828 -22 
Q 2503 -91 2169 -91 
Q 1331 -91 842 396 
Q 353 884 353 1716 
Q 353 2575 817 3079 
Q 1281 3584 2069 3584 
Q 2775 3584 3186 3129 
Q 3597 2675 3597 1894 
z
M 3022 2063 
Q 3016 2534 2758 2815 
Q 2500 3097 2075 3097 
Q 1594 3097 1305 2825 
Q 1016 2553 972 2059 
L 3022 2063 
z
" transform="scale(0.015625)"/>
      <path id="DejaVuSans-73" d="M 2834 3397 
L 2834 2853 
Q 2591 2978 2328 3040 
Q 2066 3103 1784 3103 
Q 1356 3103 1142 2972 
Q 928 2841 928 2578 
Q 928 2378 1081 2264 
Q 1234 2150 1697 2047 
L 1894 2003 
Q 2506 1872 2764 1633 
Q 3022 1394 3022 966 
Q 3022 478 2636 193 
Q 2250 -91 1575 -91 
Q 1294 -91 989 -36 
Q 684 19 347 128 
L 347 722 
Q 666 556 975 473 
Q 1284 391 1588 391 
Q 1994 391 2212 530 
Q 2431 669 2431 922 
Q 2431 1156 2273 1281 
Q 2116 1406 1581 1522 
L 1381 1569 
Q 847 1681 609 1914 
Q 372 2147 372 2553 
Q 372 3047 722 3315 
Q 1072 3584 1716 3584 
Q 2034 3584 2315 3537 
Q 2597 3491 2834 3397 
z
" transform="scale(0.015625)"/>
      <path id="DejaVuSans-64" d="M 2906 2969 
L 2906 4863 
L 3481 4863 
L 3481 0 
L 2906 0 
L 2906 525 
Q 2725 213 2448 61 
Q 2172 -91 1784 -91 
Q 1150 -91 751 415 
Q 353 922 353 1747 
Q 353 2572 751 3078 
Q 1150 3584 1784 3584 
Q 2172 3584 2448 3432 
Q 2725 3281 2906 2969 
z
M 947 1747 
Q 947 1113 1208 752 
Q 1469 391 1925 391 
Q 2381 391 2643 752 
Q 2906 1113 2906 1747 
Q 2906 2381 2643 2742 
Q 2381 3103 1925 3103 
Q 1469 3103 1208 2742 
Q 947 2381 947 1747 
z
" transform="scale(0.015625)"/>
      <path id="DejaVuSans-43" d="M 4122 4306 
L 4122 3641 
Q 3803 3938 3442 4084 
Q 3081 4231 2675 4231 
Q 1875 4231 1450 3742 
Q 1025 3253 1025 2328 
Q 1025 1406 1450 917 
Q 1875 428 2675 428 
Q 3081 428 3442 575 
Q 3803 722 4122 1019 
L 4122 359 
Q 3791 134 3420 21 
Q 3050 -91 2638 -91 
Q 1578 -91 968 557 
Q 359 1206 359 2328 
Q 359 3453 968 4101 
Q 1578 4750 2638 4750 
Q 3056 4750 3426 4639 
Q 3797 4528 4122 4306 
z
" transform="scale(0.015625)"/>
      <path id="DejaVuSans-75" d="M 544 1381 
L 544 3500 
L 1119 3500 
L 1119 1403 
Q 1119 906 1312 657 
Q 1506 409 1894 409 
Q 2359 409 2629 706 
Q 2900 1003 2900 1516 
L 2900 3500 
L 3475 3500 
L 3475 0 
L 2900 0 
L 2900 538 
Q 2691 219 2414 64 
Q 2138 -91 1772 -91 
Q 1169 -91 856 284 
Q 544 659 544 1381 
z
M 1991 3584 
L 1991 3584 
z
" transform="scale(0.015625)"/>
      <path id="DejaVuSans-6d" d="M 3328 2828 
Q 3544 3216 3844 3400 
Q 4144 3584 4550 3584 
Q 5097 3584 5394 3201 
Q 5691 2819 5691 2113 
L 5691 0 
L 5113 0 
L 5113 2094 
Q 5113 2597 4934 2840 
Q 4756 3084 4391 3084 
Q 3944 3084 3684 2787 
Q 3425 2491 3425 1978 
L 3425 0 
L 2847 0 
L 2847 2094 
Q 2847 2600 2669 2842 
Q 2491 3084 2119 3084 
Q 1678 3084 1418 2786 
Q 1159 2488 1159 1978 
L 1159 0 
L 581 0 
L 581 3500 
L 1159 3500 
L 1159 2956 
Q 1356 3278 1631 3431 
Q 1906 3584 2284 3584 
Q 2666 3584 2933 3390 
Q 3200 3197 3328 2828 
z
" transform="scale(0.015625)"/>
      <path id="DejaVuSans-6c" d="M 603 4863 
L 1178 4863 
L 1178 0 
L 603 0 
L 603 4863 
z
" transform="scale(0.015625)"/>
      <path id="DejaVuSans-69" d="M 603 3500 
L 1178 3500 
L 1178 0 
L 603 0 
L 603 3500 
z
M 603 4863 
L 1178 4863 
L 1178 4134 
L 603 4134 
L 603 4863 
z
" transform="scale(0.015625)"/>
      <path id="DejaVuSans-76" d="M 191 3500 
L 800 3500 
L 1894 563 
L 2988 3500 
L 3597 3500 
L 2284 0 
L 1503 0 
L 191 3500 
z
" transform="scale(0.015625)"/>
      <path id="DejaVuSans-50" d="M 1259 4147 
L 1259 2394 
L 2053 2394 
Q 2494 2394 2734 2622 
Q 2975 2850 2975 3272 
Q 2975 3691 2734 3919 
Q 2494 4147 2053 4147 
L 1259 4147 
z
M 628 4666 
L 2053 4666 
Q 2838 4666 3239 4311 
Q 3641 3956 3641 3272 
Q 3641 2581 3239 2228 
Q 2838 1875 2053 1875 
L 1259 1875 
L 1259 0 
L 628 0 
L 628 4666 
z
" transform="scale(0.015625)"/>
      <path id="DejaVuSans-6e" d="M 3513 2113 
L 3513 0 
L 2938 0 
L 2938 2094 
Q 2938 2591 2744 2837 
Q 2550 3084 2163 3084 
Q 1697 3084 1428 2787 
Q 1159 2491 1159 1978 
L 1159 0 
L 581 0 
L 581 3500 
L 1159 3500 
L 1159 2956 
Q 1366 3272 1645 3428 
Q 1925 3584 2291 3584 
Q 2894 3584 3203 3211 
Q 3513 2838 3513 2113 
z
" transform="scale(0.015625)"/>
      <path id="DejaVuSans-28" d="M 1984 4856 
Q 1566 4138 1362 3434 
Q 1159 2731 1159 2009 
Q 1159 1288 1364 580 
Q 1569 -128 1984 -844 
L 1484 -844 
Q 1016 -109 783 600 
Q 550 1309 550 2009 
Q 550 2706 781 3412 
Q 1013 4119 1484 4856 
L 1984 4856 
z
" transform="scale(0.015625)"/>
      <path id="DejaVuSans-4e" d="M 628 4666 
L 1478 4666 
L 3547 763 
L 3547 4666 
L 4159 4666 
L 4159 0 
L 3309 0 
L 1241 3903 
L 1241 0 
L 628 0 
L 628 4666 
z
" transform="scale(0.015625)"/>
      <path id="DejaVuSans-7a" d="M 353 3500 
L 3084 3500 
L 3084 2975 
L 922 459 
L 3084 459 
L 3084 0 
L 275 0 
L 275 525 
L 2438 3041 
L 353 3041 
L 353 3500 
z
" transform="scale(0.015625)"/>
      <path id="DejaVuSans-29" d="M 513 4856 
L 1013 4856 
Q 1481 4119 1714 3412 
Q 1947 2706 1947 2009 
Q 1947 1309 1714 600 
Q 1481 -109 1013 -844 
L 513 -844 
Q 928 -128 1133 580 
Q 1338 1288 1338 2009 
Q 1338 2731 1133 3434 
Q 928 4138 513 4856 
z
" transform="scale(0.015625)"/>
     </defs>
     <use xlink:href="#DejaVuSans-42"/>
     <use xlink:href="#DejaVuSans-61" transform="translate(68.603516 0)"/>
     <use xlink:href="#DejaVuSans-63" transform="translate(129.882812 0)"/>
     <use xlink:href="#DejaVuSans-6b" transform="translate(184.863281 0)"/>
     <use xlink:href="#DejaVuSans-74" transform="translate(242.773438 0)"/>
     <use xlink:href="#DejaVuSans-65" transform="translate(281.982422 0)"/>
     <use xlink:href="#DejaVuSans-73" transform="translate(343.505859 0)"/>
     <use xlink:href="#DejaVuSans-74" transform="translate(395.605469 0)"/>
     <use xlink:href="#DejaVuSans-65" transform="translate(434.814453 0)"/>
     <use xlink:href="#DejaVuSans-64" transform="translate(496.337891 0)"/>
     <use xlink:href="#DejaVuSans-20" transform="translate(559.814453 0)"/>
     <use xlink:href="#DejaVuSans-43" transform="translate(591.601562 0)"/>
     <use xlink:href="#DejaVuSans-75" transform="translate(661.425781 0)"/>
     <use xlink:href="#DejaVuSans-6d" transform="translate(724.804688 0)"/>
     <use xlink:href="#DejaVuSans-75" transform="translate(822.216797 0)"/>
     <use xlink:href="#DejaVuSans-6c" transform="translate(885.595703 0)"/>
     <use xlink:href="#DejaVuSans-61" transform="translate(913.378906 0)"/>
     <use xlink:href="#DejaVuSans-74" transform="translate(974.658203 0)"/>
     <use xlink:href="#DejaVuSans-69" transform="translate(1013.867188 0)"/>
     <use xlink:href="#DejaVuSans-76" transform="translate(1041.650391 0)"/>
     <use xlink:href="#DejaVuSans-65" transform="translate(1100.830078 0)"/>
     <use xlink:href="#DejaVuSans-20" transform="translate(1162.353516 0)"/>
     <use xlink:href="#DejaVuSans-50" transform="translate(1194.140625 0)"/>
     <use xlink:href="#DejaVuSans-65" transform="translate(1250.818359 0)"/>
     <use xlink:href="#DejaVuSans-72" transform="translate(1312.341797 0)"/>
     <use xlink:href="#DejaVuSans-66" transform="translate(1353.455078 0)"/>
     <use xlink:href="#DejaVuSans-6f" transform="translate(1388.660156 0)"/>
     <use xlink:href="#DejaVuSans-72" transform="translate(1449.841797 0)"/>
     <use xlink:href="#DejaVuSans-6d" transform="translate(1489.205078 0)"/>
     <use xlink:href="#DejaVuSans-61" transform="translate(1586.617188 0)"/>
     <use xlink:href="#DejaVuSans-6e" transform="translate(1647.896484 0)"/>
     <use xlink:href="#DejaVuSans-63" transform="translate(1711.275391 0)"/>
     <use xlink:href="#DejaVuSans-65" transform="translate(1766.255859 0)"/>
     <use xlink:href="#DejaVuSans-20" transform="translate(1827.779297 0)"/>
     <use xlink:href="#DejaVuSans-28" transform="translate(1859.566406 0)"/>
     <use xlink:href="#DejaVuSans-4e" transform="translate(1898.580078 0)"/>
     <use xlink:href="#DejaVuSans-6f" transform="translate(1973.384766 0)"/>
     <use xlink:href="#DejaVuSans-72" transform="translate(2034.566406 0)"/>
     <use xlink:href="#DejaVuSans-6d" transform="translate(2073.929688 0)"/>
     <use xlink:href="#DejaVuSans-61" transform="translate(2171.341797 0)"/>
     <use xlink:href="#DejaVuSans-6c" transform="translate(2232.621094 0)"/>
     <use xlink:href="#DejaVuSans-69" transform="translate(2260.404297 0)"/>
     <use xlink:href="#DejaVuSans-7a" transform="translate(2288.1875 0)"/>
     <use xlink:href="#DejaVuSans-65" transform="translate(2340.677734 0)"/>
     <use xlink:href="#DejaVuSans-64" transform="translate(2402.201172 0)"/>
     <use xlink:href="#DejaVuSans-20" transform="translate(2465.677734 0)"/>
     <use xlink:href="#DejaVuSans-74" transform="translate(2497.464844 0)"/>
     <use xlink:href="#DejaVuSans-6f" transform="translate(2536.673828 0)"/>
     <use xlink:href="#DejaVuSans-20" transform="translate(2597.855469 0)"/>
     <use xlink:href="#DejaVuSans-24" transform="translate(2629.642578 0)"/>
     <use xlink:href="#DejaVuSans-31" transform="translate(2693.265625 0)"/>
     <use xlink:href="#DejaVuSans-30" transform="translate(2756.888672 0)"/>
     <use xlink:href="#DejaVuSans-2c" transform="translate(2820.511719 0)"/>
     <use xlink:href="#DejaVuSans-30" transform="translate(2852.298828 0)"/>
     <use xlink:href="#DejaVuSans-30" transform="translate(2915.921875 0)"/>
     <use xlink:href="#DejaVuSans-30" transform="translate(2979.544922 0)"/>
     <use xlink:href="#DejaVuSans-29" transform="translate(3043.167969 0)"/>
    </g>
   </g>
   <g id="legend_1">
    <g id="line2d_22">
     <path d="M 69.72625 36.38625 
L 78.72625 36.38625 
L 87.72625 36.38625 
" style="fill: none; stroke: #1f77b4; stroke-width: 2.8; stroke-linecap: square"/>
    </g>
    <g id="text_24">
     <!-- Diamond Creek ETF Arb Fund (Net) -->
     <g transform="translate(94.92625 39.53625) scale(0.09 -0.09)">
      <defs>
       <path id="DejaVuSans-44" d="M 1259 4147 
L 1259 519 
L 2022 519 
Q 2988 519 3436 956 
Q 3884 1394 3884 2338 
Q 3884 3275 3436 3711 
Q 2988 4147 2022 4147 
L 1259 4147 
z
M 628 4666 
L 1925 4666 
Q 3281 4666 3915 4102 
Q 4550 3538 4550 2338 
Q 4550 1131 3912 565 
Q 3275 0 1925 0 
L 628 0 
L 628 4666 
z
" transform="scale(0.015625)"/>
       <path id="DejaVuSans-45" d="M 628 4666 
L 3578 4666 
L 3578 4134 
L 1259 4134 
L 1259 2753 
L 3481 2753 
L 3481 2222 
L 1259 2222 
L 1259 531 
L 3634 531 
L 3634 0 
L 628 0 
L 628 4666 
z
" transform="scale(0.015625)"/>
       <path id="DejaVuSans-54" d="M -19 4666 
L 3928 4666 
L 3928 4134 
L 2272 4134 
L 2272 0 
L 1638 0 
L 1638 4134 
L -19 4134 
L -19 4666 
z
" transform="scale(0.015625)"/>
       <path id="DejaVuSans-46" d="M 628 4666 
L 3309 4666 
L 3309 4134 
L 1259 4134 
L 1259 2759 
L 3109 2759 
L 3109 2228 
L 1259 2228 
L 1259 0 
L 628 0 
L 628 4666 
z
" transform="scale(0.015625)"/>
       <path id="DejaVuSans-41" d="M 2188 4044 
L 1331 1722 
L 3047 1722 
L 2188 4044 
z
M 1831 4666 
L 2547 4666 
L 4325 0 
L 3669 0 
L 3244 1197 
L 1141 1197 
L 716 0 
L 50 0 
L 1831 4666 
z
" transform="scale(0.015625)"/>
       <path id="DejaVuSans-62" d="M 3116 1747 
Q 3116 2381 2855 2742 
Q 2594 3103 2138 3103 
Q 1681 3103 1420 2742 
Q 1159 2381 1159 1747 
Q 1159 1113 1420 752 
Q 1681 391 2138 391 
Q 2594 391 2855 752 
Q 3116 1113 3116 1747 
z
M 1159 2969 
Q 1341 3281 1617 3432 
Q 1894 3584 2278 3584 
Q 2916 3584 3314 3078 
Q 3713 2572 3713 1747 
Q 3713 922 3314 415 
Q 2916 -91 2278 -91 
Q 1894 -91 1617 61 
Q 1341 213 1159 525 
L 1159 0 
L 581 0 
L 581 4863 
L 1159 4863 
L 1159 2969 
z
" transform="scale(0.015625)"/>
      </defs>
      <use xlink:href="#DejaVuSans-44"/>
      <use xlink:href="#DejaVuSans-69" transform="translate(77.001953 0)"/>
      <use xlink:href="#DejaVuSans-61" transform="translate(104.785156 0)"/>
      <use xlink:href="#DejaVuSans-6d" transform="translate(166.064453 0)"/>
      <use xlink:href="#DejaVuSans-6f" transform="translate(263.476562 0)"/>
      <use xlink:href="#DejaVuSans-6e" transform="translate(324.658203 0)"/>
      <use xlink:href="#DejaVuSans-64" transform="translate(388.037109 0)"/>
      <use xlink:href="#DejaVuSans-20" transform="translate(451.513672 0)"/>
      <use xlink:href="#DejaVuSans-43" transform="translate(483.300781 0)"/>
      <use xlink:href="#DejaVuSans-72" transform="translate(553.125 0)"/>
      <use xlink:href="#DejaVuSans-65" transform="translate(591.988281 0)"/>
      <use xlink:href="#DejaVuSans-65" transform="translate(653.511719 0)"/>
      <use xlink:href="#DejaVuSans-6b" transform="translate(715.035156 0)"/>
      <use xlink:href="#DejaVuSans-20" transform="translate(772.945312 0)"/>
      <use xlink:href="#DejaVuSans-45" transform="translate(804.732422 0)"/>
      <use xlink:href="#DejaVuSans-54" transform="translate(867.916016 0)"/>
      <use xlink:href="#DejaVuSans-46" transform="translate(929 0)"/>
      <use xlink:href="#DejaVuSans-20" transform="translate(986.519531 0)"/>
      <use xlink:href="#DejaVuSans-41" transform="translate(1018.306641 0)"/>
      <use xlink:href="#DejaVuSans-72" transform="translate(1086.714844 0)"/>
      <use xlink:href="#DejaVuSans-62" transform="translate(1127.828125 0)"/>
      <use xlink:href="#DejaVuSans-20" transform="translate(1191.304688 0)"/>
      <use xlink:href="#DejaVuSans-46" transform="translate(1223.091797 0)"/>
      <use xlink:href="#DejaVuSans-75" transform="translate(1275.111328 0)"/>
      <use xlink:href="#DejaVuSans-6e" transform="translate(1338.490234 0)"/>
      <use xlink:href="#DejaVuSans-64" transform="translate(1401.869141 0)"/>
      <use xlink:href="#DejaVuSans-20" transform="translate(1465.345703 0)"/>
      <use xlink:href="#DejaVuSans-28" transform="translate(1497.132812 0)"/>
      <use xlink:href="#DejaVuSans-4e" transform="translate(1536.146484 0)"/>
      <use xlink:href="#DejaVuSans-65" transform="translate(1610.951172 0)"/>
      <use xlink:href="#DejaVuSans-74" transform="translate(1672.474609 0)"/>
      <use xlink:href="#DejaVuSans-29" transform="translate(1711.683594 0)"/>
     </g>
    </g>
    <g id="line2d_23">
     <path d="M 69.72625 49.596562 
L 78.72625 49.596562 
L 87.72625 49.596562 
" style="fill: none; stroke-dasharray: 8.14,3.52; stroke-dashoffset: 0; stroke: #ff7f0e; stroke-width: 2.2"/>
    </g>
    <g id="text_25">
     <!-- SPY (Total Return) -->
     <g transform="translate(94.92625 52.746562) scale(0.09 -0.09)">
      <defs>
       <path id="DejaVuSans-53" d="M 3425 4513 
L 3425 3897 
Q 3066 4069 2747 4153 
Q 2428 4238 2131 4238 
Q 1616 4238 1336 4038 
Q 1056 3838 1056 3469 
Q 1056 3159 1242 3001 
Q 1428 2844 1947 2747 
L 2328 2669 
Q 3034 2534 3370 2195 
Q 3706 1856 3706 1288 
Q 3706 609 3251 259 
Q 2797 -91 1919 -91 
Q 1588 -91 1214 -16 
Q 841 59 441 206 
L 441 856 
Q 825 641 1194 531 
Q 1563 422 1919 422 
Q 2459 422 2753 634 
Q 3047 847 3047 1241 
Q 3047 1584 2836 1778 
Q 2625 1972 2144 2069 
L 1759 2144 
Q 1053 2284 737 2584 
Q 422 2884 422 3419 
Q 422 4038 858 4394 
Q 1294 4750 2059 4750 
Q 2388 4750 2728 4690 
Q 3069 4631 3425 4513 
z
" transform="scale(0.015625)"/>
       <path id="DejaVuSans-59" d="M -13 4666 
L 666 4666 
L 1959 2747 
L 3244 4666 
L 3922 4666 
L 2272 2222 
L 2272 0 
L 1638 0 
L 1638 2222 
L -13 4666 
z
" transform="scale(0.015625)"/>
       <path id="DejaVuSans-52" d="M 2841 2188 
Q 3044 2119 3236 1894 
Q 3428 1669 3622 1275 
L 4263 0 
L 3584 0 
L 2988 1197 
Q 2756 1666 2539 1819 
Q 2322 1972 1947 1972 
L 1259 1972 
L 1259 0 
L 628 0 
L 628 4666 
L 2053 4666 
Q 2853 4666 3247 4331 
Q 3641 3997 3641 3322 
Q 3641 2881 3436 2590 
Q 3231 2300 2841 2188 
z
M 1259 4147 
L 1259 2491 
L 2053 2491 
Q 2509 2491 2742 2702 
Q 2975 2913 2975 3322 
Q 2975 3731 2742 3939 
Q 2509 4147 2053 4147 
L 1259 4147 
z
" transform="scale(0.015625)"/>
      </defs>
      <use xlink:href="#DejaVuSans-53"/>
      <use xlink:href="#DejaVuSans-50" transform="translate(63.476562 0)"/>
      <use xlink:href="#DejaVuSans-59" transform="translate(121.529297 0)"/>
      <use xlink:href="#DejaVuSans-20" transform="translate(182.613281 0)"/>
      <use xlink:href="#DejaVuSans-28" transform="translate(214.400391 0)"/>
      <use xlink:href="#DejaVuSans-54" transform="translate(253.414062 0)"/>
      <use xlink:href="#DejaVuSans-6f" transform="translate(297.498047 0)"/>
      <use xlink:href="#DejaVuSans-74" transform="translate(358.679688 0)"/>
      <use xlink:href="#DejaVuSans-61" transform="translate(397.888672 0)"/>
      <use xlink:href="#DejaVuSans-6c" transform="translate(459.167969 0)"/>
      <use xlink:href="#DejaVuSans-20" transform="translate(486.951172 0)"/>
      <use xlink:href="#DejaVuSans-52" transform="translate(518.738281 0)"/>
      <use xlink:href="#DejaVuSans-65" transform="translate(583.720703 0)"/>
      <use xlink:href="#DejaVuSans-74" transform="translate(645.244141 0)"/>
      <use xlink:href="#DejaVuSans-75" transform="translate(684.453125 0)"/>
      <use xlink:href="#DejaVuSans-72" transform="translate(747.832031 0)"/>
      <use xlink:href="#DejaVuSans-6e" transform="translate(787.195312 0)"/>
      <use xlink:href="#DejaVuSans-29" transform="translate(850.574219 0)"/>
     </g>
    </g>
   </g>
  </g>
 </g>
 <defs>
  <clipPath id="p7495c46fd9">
   <rect x="61.62625" y="24.597656" width="840.172727" height="375.8"/>
  </clipPath>
 </defs>
</svg>
