<?xml version="1.0" encoding="utf-8" standalone="no"?>
<!DOCTYPE svg PUBLIC "-//W3C//DTD SVG 1.1//EN"
  "http://www.w3.org/Graphics/SVG/1.1/DTD/svg11.dtd">
<svg xmlns:xlink="http://www.w3.org/1999/xlink" width="924.35462pt" height="424.275781pt" viewBox="0 0 924.35462 424.275781" xmlns="http://www.w3.org/2000/svg" version="1.1">
 <metadata>
  <rdf:RDF xmlns:dc="http://purl.org/dc/elements/1.1/" xmlns:cc="http://creativecommons.org/ns#" xmlns:rdf="http://www.w3.org/1999/02/22-rdf-syntax-ns#">
   <cc:Work>
    <dc:type rdf:resource="http://purl.org/dc/dcmitype/StillImage"/>
    <dc:date>2026-04-15T13:11:17.922191</dc:date>
    <dc:format>image/svg+xml</dc:format>
    <dc:creator>
     <cc:Agent>
      <dc:title>Matplotlib v3.10.8, https://matplotlib.org/</dc:title>
     </cc:Agent>
    </dc:creator>
   </cc:Work>
  </rdf:RDF>
 </metadata>
 <defs>
  <style type="text/css">*{stroke-linejoin: round; stroke-linecap: butt}</style>
 </defs>
 <g id="figure_1">
  <g id="patch_1">
   <path d="M 0 424.275781 
L 924.35462 424.275781 
L 924.35462 0 
L 0 0 
z
" style="fill: #ffffff"/>
  </g>
  <g id="axes_1">
   <g id="patch_2">
    <path d="M 61.62625 400.397656 
L 901.798977 400.397656 
L 901.798977 24.597656 
L 61.62625 24.597656 
z
" style="fill: #ffffff"/>
   </g>
   <g id="matplotlib.axis_1">
    <g id="xtick_1">
     <g id="line2d_1">
      <defs>
       <path id="m18b43a1300" d="M 0 0 
L 0 3.5 
" style="stroke: #000000; stroke-width: 0.8"/>
      </defs>
      <g>
       <use xlink:href="#m18b43a1300" x="98.524637" y="400.397656" style="stroke: #000000; stroke-width: 0.8"/>
      </g>
     </g>
     <g id="text_1">
      <!-- 2023-01 -->
      <g transform="translate(77.633231 414.996094) scale(0.1 -0.1)">
       <defs>
        <path id="DejaVuSans-32" d="M 1228 531 
L 3431 531 
L 3431 0 
L 469 0 
L 469 531 
Q 828 903 1448 1529 
Q 2069 2156 2228 2338 
Q 2531 2678 2651 2914 
Q 2772 3150 2772 3378 
Q 2772 3750 2511 3984 
Q 2250 4219 1831 4219 
Q 1534 4219 1204 4116 
Q 875 4013 500 3803 
L 500 4441 
Q 881 4594 1212 4672 
Q 1544 4750 1819 4750 
Q 2544 4750 2975 4387 
Q 3406 4025 3406 3419 
Q 3406 3131 3298 2873 
Q 3191 2616 2906 2266 
Q 2828 2175 2409 1742 
Q 1991 1309 1228 531 
z
" transform="scale(0.015625)"/>
        <path id="DejaVuSans-30" d="M 2034 4250 
Q 1547 4250 1301 3770 
Q 1056 3291 1056 2328 
Q 1056 1369 1301 889 
Q 1547 409 2034 409 
Q 2525 409 2770 889 
Q 3016 1369 3016 2328 
Q 3016 3291 2770 3770 
Q 2525 4250 2034 4250 
z
M 2034 4750 
Q 2819 4750 3233 4129 
Q 3647 3509 3647 2328 
Q 3647 1150 3233 529 
Q 2819 -91 2034 -91 
Q 1250 -91 836 529 
Q 422 1150 422 2328 
Q 422 3509 836 4129 
Q 1250 4750 2034 4750 
z
" transform="scale(0.015625)"/>
        <path id="DejaVuSans-33" d="M 2597 2516 
Q 3050 2419 3304 2112 
Q 3559 1806 3559 1356 
Q 3559 666 3084 287 
Q 2609 -91 1734 -91 
Q 1441 -91 1130 -33 
Q 819 25 488 141 
L 488 750 
Q 750 597 1062 519 
Q 1375 441 1716 441 
Q 2309 441 2620 675 
Q 2931 909 2931 1356 
Q 2931 1769 2642 2001 
Q 2353 2234 1838 2234 
L 1294 2234 
L 1294 2753 
L 1863 2753 
Q 2328 2753 2575 2939 
Q 2822 3125 2822 3475 
Q 2822 3834 2567 4026 
Q 2313 4219 1838 4219 
Q 1578 4219 1281 4162 
Q 984 4106 628 3988 
L 628 4550 
Q 988 4650 1302 4700 
Q 1616 4750 1894 4750 
Q 2613 4750 3031 4423 
Q 3450 4097 3450 3541 
Q 3450 3153 3228 2886 
Q 3006 2619 2597 2516 
z
" transform="scale(0.015625)"/>
        <path id="DejaVuSans-2d" d="M 313 2009 
L 1997 2009 
L 1997 1497 
L 313 1497 
L 313 2009 
z
" transform="scale(0.015625)"/>
        <path id="DejaVuSans-31" d="M 794 531 
L 1825 531 
L 1825 4091 
L 703 3866 
L 703 4441 
L 1819 4666 
L 2450 4666 
L 2450 531 
L 3481 531 
L 3481 0 
L 794 0 
L 794 531 
z
" transform="scale(0.015625)"/>
       </defs>
       <use xlink:href="#DejaVuSans-32"/>
       <use xlink:href="#DejaVuSans-30" transform="translate(63.623047 0)"/>
       <use xlink:href="#DejaVuSans-32" transform="translate(127.246094 0)"/>
       <use xlink:href="#DejaVuSans-33" transform="translate(190.869141 0)"/>
       <use xlink:href="#DejaVuSans-2d" transform="translate(254.492188 0)"/>
       <use xlink:href="#DejaVuSans-30" transform="translate(290.576172 0)"/>
       <use xlink:href="#DejaVuSans-31" transform="translate(354.199219 0)"/>
      </g>
     </g>
    </g>
    <g id="xtick_2">
     <g id="line2d_2">
      <g>
       <use xlink:href="#m18b43a1300" x="176.001566" y="400.397656" style="stroke: #000000; stroke-width: 0.8"/>
      </g>
     </g>
     <g id="text_2">
      <!-- 2023-05 -->
      <g transform="translate(155.11016 414.996094) scale(0.1 -0.1)">
       <defs>
        <path id="DejaVuSans-35" d="M 691 4666 
L 3169 4666 
L 3169 4134 
L 1269 4134 
L 1269 2991 
Q 1406 3038 1543 3061 
Q 1681 3084 1819 3084 
Q 2600 3084 3056 2656 
Q 3513 2228 3513 1497 
Q 3513 744 3044 326 
Q 2575 -91 1722 -91 
Q 1428 -91 1123 -41 
Q 819 9 494 109 
L 494 744 
Q 775 591 1075 516 
Q 1375 441 1709 441 
Q 2250 441 2565 725 
Q 2881 1009 2881 1497 
Q 2881 1984 2565 2268 
Q 2250 2553 1709 2553 
Q 1456 2553 1204 2497 
Q 953 2441 691 2322 
L 691 4666 
z
" transform="scale(0.015625)"/>
       </defs>
       <use xlink:href="#DejaVuSans-32"/>
       <use xlink:href="#DejaVuSans-30" transform="translate(63.623047 0)"/>
       <use xlink:href="#DejaVuSans-32" transform="translate(127.246094 0)"/>
       <use xlink:href="#DejaVuSans-33" transform="translate(190.869141 0)"/>
       <use xlink:href="#DejaVuSans-2d" transform="translate(254.492188 0)"/>
       <use xlink:href="#DejaVuSans-30" transform="translate(290.576172 0)"/>
       <use xlink:href="#DejaVuSans-35" transform="translate(354.199219 0)"/>
      </g>
     </g>
    </g>
    <g id="xtick_3">
     <g id="line2d_3">
      <g>
       <use xlink:href="#m18b43a1300" x="255.415418" y="400.397656" style="stroke: #000000; stroke-width: 0.8"/>
      </g>
     </g>
     <g id="text_3">
      <!-- 2023-09 -->
      <g transform="translate(234.524012 414.996094) scale(0.1 -0.1)">
       <defs>
        <path id="DejaVuSans-39" d="M 703 97 
L 703 672 
Q 941 559 1184 500 
Q 1428 441 1663 441 
Q 2288 441 2617 861 
Q 2947 1281 2994 2138 
Q 2813 1869 2534 1725 
Q 2256 1581 1919 1581 
Q 1219 1581 811 2004 
Q 403 2428 403 3163 
Q 403 3881 828 4315 
Q 1253 4750 1959 4750 
Q 2769 4750 3195 4129 
Q 3622 3509 3622 2328 
Q 3622 1225 3098 567 
Q 2575 -91 1691 -91 
Q 1453 -91 1209 -44 
Q 966 3 703 97 
z
M 1959 2075 
Q 2384 2075 2632 2365 
Q 2881 2656 2881 3163 
Q 2881 3666 2632 3958 
Q 2384 4250 1959 4250 
Q 1534 4250 1286 3958 
Q 1038 3666 1038 3163 
Q 1038 2656 1286 2365 
Q 1534 2075 1959 2075 
z
" transform="scale(0.015625)"/>
       </defs>
       <use xlink:href="#DejaVuSans-32"/>
       <use xlink:href="#DejaVuSans-30" transform="translate(63.623047 0)"/>
       <use xlink:href="#DejaVuSans-32" transform="translate(127.246094 0)"/>
       <use xlink:href="#DejaVuSans-33" transform="translate(190.869141 0)"/>
       <use xlink:href="#DejaVuSans-2d" transform="translate(254.492188 0)"/>
       <use xlink:href="#DejaVuSans-30" transform="translate(290.576172 0)"/>
       <use xlink:href="#DejaVuSans-39" transform="translate(354.199219 0)"/>
      </g>
     </g>
    </g>
    <g id="xtick_4">
     <g id="line2d_4">
      <g>
       <use xlink:href="#m18b43a1300" x="334.183629" y="400.397656" style="stroke: #000000; stroke-width: 0.8"/>
      </g>
     </g>
     <g id="text_4">
      <!-- 2024-01 -->
      <g transform="translate(313.292222 414.996094) scale(0.1 -0.1)">
       <defs>
        <path id="DejaVuSans-34" d="M 2419 4116 
L 825 1625 
L 2419 1625 
L 2419 4116 
z
M 2253 4666 
L 3047 4666 
L 3047 1625 
L 3713 1625 
L 3713 1100 
L 3047 1100 
L 3047 0 
L 2419 0 
L 2419 1100 
L 313 1100 
L 313 1709 
L 2253 4666 
z
" transform="scale(0.015625)"/>
       </defs>
       <use xlink:href="#DejaVuSans-32"/>
       <use xlink:href="#DejaVuSans-30" transform="translate(63.623047 0)"/>
       <use xlink:href="#DejaVuSans-32" transform="translate(127.246094 0)"/>
       <use xlink:href="#DejaVuSans-34" transform="translate(190.869141 0)"/>
       <use xlink:href="#DejaVuSans-2d" transform="translate(254.492188 0)"/>
       <use xlink:href="#DejaVuSans-30" transform="translate(290.576172 0)"/>
       <use xlink:href="#DejaVuSans-31" transform="translate(354.199219 0)"/>
      </g>
     </g>
    </g>
    <g id="xtick_5">
     <g id="line2d_5">
      <g>
       <use xlink:href="#m18b43a1300" x="412.306198" y="400.397656" style="stroke: #000000; stroke-width: 0.8"/>
      </g>
     </g>
     <g id="text_5">
      <!-- 2024-05 -->
      <g transform="translate(391.414792 414.996094) scale(0.1 -0.1)">
       <use xlink:href="#DejaVuSans-32"/>
       <use xlink:href="#DejaVuSans-30" transform="translate(63.623047 0)"/>
       <use xlink:href="#DejaVuSans-32" transform="translate(127.246094 0)"/>
       <use xlink:href="#DejaVuSans-34" transform="translate(190.869141 0)"/>
       <use xlink:href="#DejaVuSans-2d" transform="translate(254.492188 0)"/>
       <use xlink:href="#DejaVuSans-30" transform="translate(290.576172 0)"/>
       <use xlink:href="#DejaVuSans-35" transform="translate(354.199219 0)"/>
      </g>
     </g>
    </g>
    <g id="xtick_6">
     <g id="line2d_6">
      <g>
       <use xlink:href="#m18b43a1300" x="491.72005" y="400.397656" style="stroke: #000000; stroke-width: 0.8"/>
      </g>
     </g>
     <g id="text_6">
      <!-- 2024-09 -->
      <g transform="translate(470.828644 414.996094) scale(0.1 -0.1)">
       <use xlink:href="#DejaVuSans-32"/>
       <use xlink:href="#DejaVuSans-30" transform="translate(63.623047 0)"/>
       <use xlink:href="#DejaVuSans-32" transform="translate(127.246094 0)"/>
       <use xlink:href="#DejaVuSans-34" transform="translate(190.869141 0)"/>
       <use xlink:href="#DejaVuSans-2d" transform="translate(254.492188 0)"/>
       <use xlink:href="#DejaVuSans-30" transform="translate(290.576172 0)"/>
       <use xlink:href="#DejaVuSans-39" transform="translate(354.199219 0)"/>
      </g>
     </g>
    </g>
    <g id="xtick_7">
     <g id="line2d_7">
      <g>
       <use xlink:href="#m18b43a1300" x="570.488261" y="400.397656" style="stroke: #000000; stroke-width: 0.8"/>
      </g>
     </g>
     <g id="text_7">
      <!-- 2025-01 -->
      <g transform="translate(549.596855 414.996094) scale(0.1 -0.1)">
       <use xlink:href="#DejaVuSans-32"/>
       <use xlink:href="#DejaVuSans-30" transform="translate(63.623047 0)"/>
       <use xlink:href="#DejaVuSans-32" transform="translate(127.246094 0)"/>
       <use xlink:href="#DejaVuSans-35" transform="translate(190.869141 0)"/>
       <use xlink:href="#DejaVuSans-2d" transform="translate(254.492188 0)"/>
       <use xlink:href="#DejaVuSans-30" transform="translate(290.576172 0)"/>
       <use xlink:href="#DejaVuSans-31" transform="translate(354.199219 0)"/>
      </g>
     </g>
    </g>
    <g id="xtick_8">
     <g id="line2d_8">
      <g>
       <use xlink:href="#m18b43a1300" x="647.96519" y="400.397656" style="stroke: #000000; stroke-width: 0.8"/>
      </g>
     </g>
     <g id="text_8">
      <!-- 2025-05 -->
      <g transform="translate(627.073783 414.996094) scale(0.1 -0.1)">
       <use xlink:href="#DejaVuSans-32"/>
       <use xlink:href="#DejaVuSans-30" transform="translate(63.623047 0)"/>
       <use xlink:href="#DejaVuSans-32" transform="translate(127.246094 0)"/>
       <use xlink:href="#DejaVuSans-35" transform="translate(190.869141 0)"/>
       <use xlink:href="#DejaVuSans-2d" transform="translate(254.492188 0)"/>
       <use xlink:href="#DejaVuSans-30" transform="translate(290.576172 0)"/>
       <use xlink:href="#DejaVuSans-35" transform="translate(354.199219 0)"/>
      </g>
     </g>
    </g>
    <g id="xtick_9">
     <g id="line2d_9">
      <g>
       <use xlink:href="#m18b43a1300" x="727.379042" y="400.397656" style="stroke: #000000; stroke-width: 0.8"/>
      </g>
     </g>
     <g id="text_9">
      <!-- 2025-09 -->
      <g transform="translate(706.487635 414.996094) scale(0.1 -0.1)">
       <use xlink:href="#DejaVuSans-32"/>
       <use xlink:href="#DejaVuSans-30" transform="translate(63.623047 0)"/>
       <use xlink:href="#DejaVuSans-32" transform="translate(127.246094 0)"/>
       <use xlink:href="#DejaVuSans-35" transform="translate(190.869141 0)"/>
       <use xlink:href="#DejaVuSans-2d" transform="translate(254.492188 0)"/>
       <use xlink:href="#DejaVuSans-30" transform="translate(290.576172 0)"/>
       <use xlink:href="#DejaVuSans-39" transform="translate(354.199219 0)"/>
      </g>
     </g>
    </g>
    <g id="xtick_10">
     <g id="line2d_10">
      <g>
       <use xlink:href="#m18b43a1300" x="806.147252" y="400.397656" style="stroke: #000000; stroke-width: 0.8"/>
      </g>
     </g>
     <g id="text_10">
      <!-- 2026-01 -->
      <g transform="translate(785.255846 414.996094) scale(0.1 -0.1)">
       <defs>
        <path id="DejaVuSans-36" d="M 2113 2584 
Q 1688 2584 1439 2293 
Q 1191 2003 1191 1497 
Q 1191 994 1439 701 
Q 1688 409 2113 409 
Q 2538 409 2786 701 
Q 3034 994 3034 1497 
Q 3034 2003 2786 2293 
Q 2538 2584 2113 2584 
z
M 3366 4563 
L 3366 3988 
Q 3128 4100 2886 4159 
Q 2644 4219 2406 4219 
Q 1781 4219 1451 3797 
Q 1122 3375 1075 2522 
Q 1259 2794 1537 2939 
Q 1816 3084 2150 3084 
Q 2853 3084 3261 2657 
Q 3669 2231 3669 1497 
Q 3669 778 3244 343 
Q 2819 -91 2113 -91 
Q 1303 -91 875 529 
Q 447 1150 447 2328 
Q 447 3434 972 4092 
Q 1497 4750 2381 4750 
Q 2619 4750 2861 4703 
Q 3103 4656 3366 4563 
z
" transform="scale(0.015625)"/>
       </defs>
       <use xlink:href="#DejaVuSans-32"/>
       <use xlink:href="#DejaVuSans-30" transform="translate(63.623047 0)"/>
       <use xlink:href="#DejaVuSans-32" transform="translate(127.246094 0)"/>
       <use xlink:href="#DejaVuSans-36" transform="translate(190.869141 0)"/>
       <use xlink:href="#DejaVuSans-2d" transform="translate(254.492188 0)"/>
       <use xlink:href="#DejaVuSans-30" transform="translate(290.576172 0)"/>
       <use xlink:href="#DejaVuSans-31" transform="translate(354.199219 0)"/>
      </g>
     </g>
    </g>
    <g id="xtick_11">
     <g id="line2d_11">
      <g>
       <use xlink:href="#m18b43a1300" x="883.624181" y="400.397656" style="stroke: #000000; stroke-width: 0.8"/>
      </g>
     </g>
     <g id="text_11">
      <!-- 2026-05 -->
      <g transform="translate(862.732775 414.996094) scale(0.1 -0.1)">
       <use xlink:href="#DejaVuSans-32"/>
       <use xlink:href="#DejaVuSans-30" transform="translate(63.623047 0)"/>
       <use xlink:href="#DejaVuSans-32" transform="translate(127.246094 0)"/>
       <use xlink:href="#DejaVuSans-36" transform="translate(190.869141 0)"/>
       <use xlink:href="#DejaVuSans-2d" transform="translate(254.492188 0)"/>
       <use xlink:href="#DejaVuSans-30" transform="translate(290.576172 0)"/>
       <use xlink:href="#DejaVuSans-35" transform="translate(354.199219 0)"/>
      </g>
     </g>
    </g>
   </g>
   <g id="matplotlib.axis_2">
    <g id="ytick_1">
     <g id="line2d_12">
      <defs>
       <path id="m6a2df86aa2" d="M 0 0 
L -3.5 0 
" style="stroke: #000000; stroke-width: 0.8"/>
      </defs>
      <g>
       <use xlink:href="#m6a2df86aa2" x="61.62625" y="382.32928" style="stroke: #000000; stroke-width: 0.8"/>
      </g>
     </g>
     <g id="text_12">
      <!-- 10000 -->
      <g transform="translate(22.81375 386.128499) scale(0.1 -0.1)">
       <use xlink:href="#DejaVuSans-31"/>
       <use xlink:href="#DejaVuSans-30" transform="translate(63.623047 0)"/>
       <use xlink:href="#DejaVuSans-30" transform="translate(127.246094 0)"/>
       <use xlink:href="#DejaVuSans-30" transform="translate(190.869141 0)"/>
       <use xlink:href="#DejaVuSans-30" transform="translate(254.492188 0)"/>
      </g>
     </g>
    </g>
    <g id="ytick_2">
     <g id="line2d_13">
      <g>
       <use xlink:href="#m6a2df86aa2" x="61.62625" y="330.147824" style="stroke: #000000; stroke-width: 0.8"/>
      </g>
     </g>
     <g id="text_13">
      <!-- 12000 -->
      <g transform="translate(22.81375 333.947043) scale(0.1 -0.1)">
       <use xlink:href="#DejaVuSans-31"/>
       <use xlink:href="#DejaVuSans-32" transform="translate(63.623047 0)"/>
       <use xlink:href="#DejaVuSans-30" transform="translate(127.246094 0)"/>
       <use xlink:href="#DejaVuSans-30" transform="translate(190.869141 0)"/>
       <use xlink:href="#DejaVuSans-30" transform="translate(254.492188 0)"/>
      </g>
     </g>
    </g>
    <g id="ytick_3">
     <g id="line2d_14">
      <g>
       <use xlink:href="#m6a2df86aa2" x="61.62625" y="277.966368" style="stroke: #000000; stroke-width: 0.8"/>
      </g>
     </g>
     <g id="text_14">
      <!-- 14000 -->
      <g transform="translate(22.81375 281.765587) scale(0.1 -0.1)">
       <use xlink:href="#DejaVuSans-31"/>
       <use xlink:href="#DejaVuSans-34" transform="translate(63.623047 0)"/>
       <use xlink:href="#DejaVuSans-30" transform="translate(127.246094 0)"/>
       <use xlink:href="#DejaVuSans-30" transform="translate(190.869141 0)"/>
       <use xlink:href="#DejaVuSans-30" transform="translate(254.492188 0)"/>
      </g>
     </g>
    </g>
    <g id="ytick_4">
     <g id="line2d_15">
      <g>
       <use xlink:href="#m6a2df86aa2" x="61.62625" y="225.784912" style="stroke: #000000; stroke-width: 0.8"/>
      </g>
     </g>
     <g id="text_15">
      <!-- 16000 -->
      <g transform="translate(22.81375 229.584131) scale(0.1 -0.1)">
       <use xlink:href="#DejaVuSans-31"/>
       <use xlink:href="#DejaVuSans-36" transform="translate(63.623047 0)"/>
       <use xlink:href="#DejaVuSans-30" transform="translate(127.246094 0)"/>
       <use xlink:href="#DejaVuSans-30" transform="translate(190.869141 0)"/>
       <use xlink:href="#DejaVuSans-30" transform="translate(254.492188 0)"/>
      </g>
     </g>
    </g>
    <g id="ytick_5">
     <g id="line2d_16">
      <g>
       <use xlink:href="#m6a2df86aa2" x="61.62625" y="173.603456" style="stroke: #000000; stroke-width: 0.8"/>
      </g>
     </g>
     <g id="text_16">
      <!-- 18000 -->
      <g transform="translate(22.81375 177.402675) scale(0.1 -0.1)">
       <defs>
        <path id="DejaVuSans-38" d="M 2034 2216 
Q 1584 2216 1326 1975 
Q 1069 1734 1069 1313 
Q 1069 891 1326 650 
Q 1584 409 2034 409 
Q 2484 409 2743 651 
Q 3003 894 3003 1313 
Q 3003 1734 2745 1975 
Q 2488 2216 2034 2216 
z
M 1403 2484 
Q 997 2584 770 2862 
Q 544 3141 544 3541 
Q 544 4100 942 4425 
Q 1341 4750 2034 4750 
Q 2731 4750 3128 4425 
Q 3525 4100 3525 3541 
Q 3525 3141 3298 2862 
Q 3072 2584 2669 2484 
Q 3125 2378 3379 2068 
Q 3634 1759 3634 1313 
Q 3634 634 3220 271 
Q 2806 -91 2034 -91 
Q 1263 -91 848 271 
Q 434 634 434 1313 
Q 434 1759 690 2068 
Q 947 2378 1403 2484 
z
M 1172 3481 
Q 1172 3119 1398 2916 
Q 1625 2713 2034 2713 
Q 2441 2713 2670 2916 
Q 2900 3119 2900 3481 
Q 2900 3844 2670 4047 
Q 2441 4250 2034 4250 
Q 1625 4250 1398 4047 
Q 1172 3844 1172 3481 
z
" transform="scale(0.015625)"/>
       </defs>
       <use xlink:href="#DejaVuSans-31"/>
       <use xlink:href="#DejaVuSans-38" transform="translate(63.623047 0)"/>
       <use xlink:href="#DejaVuSans-30" transform="translate(127.246094 0)"/>
       <use xlink:href="#DejaVuSans-30" transform="translate(190.869141 0)"/>
       <use xlink:href="#DejaVuSans-30" transform="translate(254.492188 0)"/>
      </g>
     </g>
    </g>
    <g id="ytick_6">
     <g id="line2d_17">
      <g>
       <use xlink:href="#m6a2df86aa2" x="61.62625" y="121.422" style="stroke: #000000; stroke-width: 0.8"/>
      </g>
     </g>
     <g id="text_17">
      <!-- 20000 -->
      <g transform="translate(22.81375 125.221219) scale(0.1 -0.1)">
       <use xlink:href="#DejaVuSans-32"/>
       <use xlink:href="#DejaVuSans-30" transform="translate(63.623047 0)"/>
       <use xlink:href="#DejaVuSans-30" transform="translate(127.246094 0)"/>
       <use xlink:href="#DejaVuSans-30" transform="translate(190.869141 0)"/>
       <use xlink:href="#DejaVuSans-30" transform="translate(254.492188 0)"/>
      </g>
     </g>
    </g>
    <g id="ytick_7">
     <g id="line2d_18">
      <g>
       <use xlink:href="#m6a2df86aa2" x="61.62625" y="69.240544" style="stroke: #000000; stroke-width: 0.8"/>
      </g>
     </g>
     <g id="text_18">
      <!-- 22000 -->
      <g transform="translate(22.81375 73.039763) scale(0.1 -0.1)">
       <use xlink:href="#DejaVuSans-32"/>
       <use xlink:href="#DejaVuSans-32" transform="translate(63.623047 0)"/>
       <use xlink:href="#DejaVuSans-30" transform="translate(127.246094 0)"/>
       <use xlink:href="#DejaVuSans-30" transform="translate(190.869141 0)"/>
       <use xlink:href="#DejaVuSans-30" transform="translate(254.492188 0)"/>
      </g>
     </g>
    </g>
    <g id="text_19">
     <!-- Growth of $10,000 -->
     <g transform="translate(16.318125 268.620156) rotate(-90) scale(0.12 -0.12)">
      <defs>
       <path id="DejaVuSans-47" d="M 3809 666 
L 3809 1919 
L 2778 1919 
L 2778 2438 
L 4434 2438 
L 4434 434 
Q 4069 175 3628 42 
Q 3188 -91 2688 -91 
Q 1594 -91 976 548 
Q 359 1188 359 2328 
Q 359 3472 976 4111 
Q 1594 4750 2688 4750 
Q 3144 4750 3555 4637 
Q 3966 4525 4313 4306 
L 4313 3634 
Q 3963 3931 3569 4081 
Q 3175 4231 2741 4231 
Q 1884 4231 1454 3753 
Q 1025 3275 1025 2328 
Q 1025 1384 1454 906 
Q 1884 428 2741 428 
Q 3075 428 3337 486 
Q 3600 544 3809 666 
z
" transform="scale(0.015625)"/>
       <path id="DejaVuSans-72" d="M 2631 2963 
Q 2534 3019 2420 3045 
Q 2306 3072 2169 3072 
Q 1681 3072 1420 2755 
Q 1159 2438 1159 1844 
L 1159 0 
L 581 0 
L 581 3500 
L 1159 3500 
L 1159 2956 
Q 1341 3275 1631 3429 
Q 1922 3584 2338 3584 
Q 2397 3584 2469 3576 
Q 2541 3569 2628 3553 
L 2631 2963 
z
" transform="scale(0.015625)"/>
       <path id="DejaVuSans-6f" d="M 1959 3097 
Q 1497 3097 1228 2736 
Q 959 2375 959 1747 
Q 959 1119 1226 758 
Q 1494 397 1959 397 
Q 2419 397 2687 759 
Q 2956 1122 2956 1747 
Q 2956 2369 2687 2733 
Q 2419 3097 1959 3097 
z
M 1959 3584 
Q 2709 3584 3137 3096 
Q 3566 2609 3566 1747 
Q 3566 888 3137 398 
Q 2709 -91 1959 -91 
Q 1206 -91 779 398 
Q 353 888 353 1747 
Q 353 2609 779 3096 
Q 1206 3584 1959 3584 
z
" transform="scale(0.015625)"/>
       <path id="DejaVuSans-77" d="M 269 3500 
L 844 3500 
L 1563 769 
L 2278 3500 
L 2956 3500 
L 3675 769 
L 4391 3500 
L 4966 3500 
L 4050 0 
L 3372 0 
L 2619 2869 
L 1863 0 
L 1184 0 
L 269 3500 
z
" transform="scale(0.015625)"/>
       <path id="DejaVuSans-74" d="M 1172 4494 
L 1172 3500 
L 2356 3500 
L 2356 3053 
L 1172 3053 
L 1172 1153 
Q 1172 725 1289 603 
Q 1406 481 1766 481 
L 2356 481 
L 2356 0 
L 1766 0 
Q 1100 0 847 248 
Q 594 497 594 1153 
L 594 3053 
L 172 3053 
L 172 3500 
L 594 3500 
L 594 4494 
L 1172 4494 
z
" transform="scale(0.015625)"/>
       <path id="DejaVuSans-68" d="M 3513 2113 
L 3513 0 
L 2938 0 
L 2938 2094 
Q 2938 2591 2744 2837 
Q 2550 3084 2163 3084 
Q 1697 3084 1428 2787 
Q 1159 2491 1159 1978 
L 1159 0 
L 581 0 
L 581 4863 
L 1159 4863 
L 1159 2956 
Q 1366 3272 1645 3428 
Q 1925 3584 2291 3584 
Q 2894 3584 3203 3211 
Q 3513 2838 3513 2113 
z
" transform="scale(0.015625)"/>
       <path id="DejaVuSans-20" transform="scale(0.015625)"/>
       <path id="DejaVuSans-66" d="M 2375 4863 
L 2375 4384 
L 1825 4384 
Q 1516 4384 1395 4259 
Q 1275 4134 1275 3809 
L 1275 3500 
L 2222 3500 
L 2222 3053 
L 1275 3053 
L 1275 0 
L 697 0 
L 697 3053 
L 147 3053 
L 147 3500 
L 697 3500 
L 697 3744 
Q 697 4328 969 4595 
Q 1241 4863 1831 4863 
L 2375 4863 
z
" transform="scale(0.015625)"/>
       <path id="DejaVuSans-24" d="M 2163 -941 
L 1850 -941 
L 1847 0 
Q 1519 6 1191 76 
Q 863 147 531 288 
L 531 850 
Q 850 650 1176 548 
Q 1503 447 1850 444 
L 1850 1869 
Q 1159 1981 845 2250 
Q 531 2519 531 2988 
Q 531 3497 872 3790 
Q 1213 4084 1850 4128 
L 1850 4863 
L 2163 4863 
L 2163 4138 
Q 2453 4125 2725 4076 
Q 2997 4028 3256 3944 
L 3256 3397 
Q 2997 3528 2723 3600 
Q 2450 3672 2163 3684 
L 2163 2350 
Q 2872 2241 3206 1959 
Q 3541 1678 3541 1191 
Q 3541 663 3186 358 
Q 2831 53 2163 6 
L 2163 -941 
z
M 1850 2406 
L 1850 3688 
Q 1488 3647 1297 3481 
Q 1106 3316 1106 3041 
Q 1106 2772 1282 2622 
Q 1459 2472 1850 2406 
z
M 2163 1806 
L 2163 453 
Q 2559 506 2761 678 
Q 2963 850 2963 1131 
Q 2963 1406 2770 1568 
Q 2578 1731 2163 1806 
z
" transform="scale(0.015625)"/>
       <path id="DejaVuSans-2c" d="M 750 794 
L 1409 794 
L 1409 256 
L 897 -744 
L 494 -744 
L 750 256 
L 750 794 
z
" transform="scale(0.015625)"/>
      </defs>
      <use xlink:href="#DejaVuSans-47"/>
      <use xlink:href="#DejaVuSans-72" transform="translate(77.490234 0)"/>
      <use xlink:href="#DejaVuSans-6f" transform="translate(116.353516 0)"/>
      <use xlink:href="#DejaVuSans-77" transform="translate(177.535156 0)"/>
      <use xlink:href="#DejaVuSans-74" transform="translate(259.322266 0)"/>
      <use xlink:href="#DejaVuSans-68" transform="translate(298.53125 0)"/>
      <use xlink:href="#DejaVuSans-20" transform="translate(361.910156 0)"/>
      <use xlink:href="#DejaVuSans-6f" transform="translate(393.697266 0)"/>
      <use xlink:href="#DejaVuSans-66" transform="translate(454.878906 0)"/>
      <use xlink:href="#DejaVuSans-20" transform="translate(490.083984 0)"/>
      <use xlink:href="#DejaVuSans-24" transform="translate(521.871094 0)"/>
      <use xlink:href="#DejaVuSans-31" transform="translate(585.494141 0)"/>
      <use xlink:href="#DejaVuSans-30" transform="translate(649.117188 0)"/>
      <use xlink:href="#DejaVuSans-2c" transform="translate(712.740234 0)"/>
      <use xlink:href="#DejaVuSans-30" transform="translate(744.527344 0)"/>
      <use xlink:href="#DejaVuSans-30" transform="translate(808.150391 0)"/>
      <use xlink:href="#DejaVuSans-30" transform="translate(871.773438 0)"/>
     </g>
    </g>
   </g>
   <g id="line2d_19">
    <path d="M 99.815919 382.32928 
L 100.46156 374.924594 
L 101.107202 379.682512 
L 101.752843 376.640291 
L 103.689766 371.842236 
L 104.335407 366.412958 
L 104.981048 365.261415 
L 105.626689 362.160424 
L 106.27233 359.77444 
L 108.854894 355.800158 
L 109.500536 359.340288 
L 110.146177 360.191477 
L 110.791818 351.931943 
L 112.728741 346.977187 
L 113.374382 349.073695 
L 114.020023 350.237561 
L 114.665664 347.517054 
L 115.311305 341.618417 
L 117.248228 348.734153 
L 117.893869 344.292901 
L 118.539511 336.771201 
L 119.185152 320.611834 
L 119.830793 324.681495 
L 121.767716 324.972717 
L 122.413357 322.364752 
L 123.058998 325.942644 
L 123.704639 332.526208 
L 124.35028 335.482057 
L 126.287203 334.163815 
L 126.932844 331.010969 
L 127.578486 326.214841 
L 128.224127 330.044056 
L 128.869768 331.549023 
L 132.097973 335.836707 
L 132.743614 329.768046 
L 133.389255 333.706447 
L 135.326178 332.909618 
L 135.971819 329.485031 
L 136.617461 331.660263 
L 137.263102 330.182882 
L 137.908743 325.893117 
L 139.845666 327.479367 
L 140.491307 329.041246 
L 141.136948 326.947185 
L 141.782589 332.655454 
L 142.42823 336.362348 
L 144.365153 331.810338 
L 145.010794 325.801682 
L 145.656436 323.119745 
L 146.302077 318.46283 
L 146.947718 316.57175 
L 148.884641 315.974934 
L 149.530282 309.709128 
L 150.175923 313.269688 
L 150.821564 315.30025 
L 151.467205 313.878256 
L 153.404128 317.629769 
L 154.049769 317.417939 
L 154.695411 314.471895 
L 155.341052 313.81156 
L 155.986693 322.629883 
L 157.923616 325.961772 
L 158.569257 326.729858 
L 159.214898 329.230361 
L 159.860539 326.18359 
L 162.443103 324.434002 
L 163.088744 324.430781 
L 163.734386 326.235208 
L 164.380027 323.530753 
L 165.025668 322.549192 
L 166.962591 323.462844 
L 167.608232 323.022563 
L 168.253873 324.281645 
L 168.899514 328.202629 
L 171.482078 331.110767 
L 172.12772 333.386887 
L 172.773361 332.0804 
L 173.419002 325.300759 
L 174.064643 324.340055 
L 176.001566 324.096481 
L 176.647207 325.595226 
L 177.292848 327.855151 
L 177.938489 328.322321 
L 178.58413 320.777382 
L 180.521053 319.985951 
L 181.166695 320.273417 
L 181.812336 317.528681 
L 182.457977 317.768251 
L 183.103618 319.403145 
L 185.040541 316.327138 
L 185.686182 316.575582 
L 186.331823 313.20471 
L 186.977464 310.508373 
L 187.623105 312.129479 
L 189.560028 309.483349 
L 190.20567 312.147041 
L 190.851311 312.771974 
L 191.496952 301.579217 
L 192.142593 298.747648 
L 194.725157 295.912182 
L 195.370798 299.400341 
L 196.016439 292.864533 
L 196.66208 293.005876 
L 198.599003 295.677533 
L 199.244645 300.729574 
L 199.890286 302.941362 
L 200.535927 299.645942 
L 201.181568 300.573916 
L 203.118491 300.0478 
L 205.055414 292.181416 
L 205.701055 292.238291 
L 208.28362 290.594086 
L 208.929261 291.154802 
L 209.574902 289.705211 
L 210.220543 289.119769 
L 212.157466 292.526775 
L 212.803107 285.336731 
L 213.448748 285.517637 
L 214.094389 285.207328 
L 214.74003 289.8495 
L 216.676953 288.454413 
L 217.968236 287.8851 
L 218.613877 287.934411 
L 219.259518 286.802618 
L 221.196441 286.534726 
L 221.842082 281.915264 
L 222.487723 281.164507 
L 223.133364 267.806461 
L 223.779005 268.719648 
L 225.715929 267.36948 
L 227.007211 264.26326 
L 227.652852 271.015167 
L 228.298493 273.06055 
L 230.235416 273.116708 
L 230.881057 271.468402 
L 231.526698 270.482494 
L 232.172339 271.938981 
L 232.81798 267.092168 
L 234.754904 266.901768 
L 235.400545 268.368905 
L 236.046186 274.363294 
L 236.691827 273.098464 
L 237.337468 275.730824 
L 239.274391 274.347775 
L 239.920032 275.192885 
L 240.565673 279.765978 
L 241.211314 279.792341 
L 241.856955 282.961209 
L 243.793879 279.565836 
L 245.085161 283.950927 
L 246.376443 288.827702 
L 248.313366 282.523576 
L 248.959007 283.698201 
L 249.604648 280.05568 
L 250.250289 283.188401 
L 250.89593 283.040827 
L 252.832854 282.133624 
L 253.478495 273.250045 
L 254.124136 273.174574 
L 254.769777 274.957388 
L 255.415418 275.486264 
L 257.997982 274.974515 
L 258.643623 276.507408 
L 259.289264 275.877268 
L 259.934905 276.023018 
L 261.871829 275.499729 
L 262.51747 276.524154 
L 263.163111 276.026411 
L 263.808752 272.925361 
L 264.454393 276.830833 
L 266.391316 276.532871 
L 267.036957 278.386299 
L 268.328239 286.158239 
L 268.97388 286.993755 
L 270.910804 285.286994 
L 271.556445 287.624357 
L 272.202086 286.88091 
L 272.847727 283.092557 
L 273.493368 284.419089 
L 275.430291 283.292713 
L 276.075932 287.209304 
L 276.721573 284.23331 
L 277.367214 282.824057 
L 278.012855 277.830797 
L 279.949779 277.915982 
L 280.59542 276.276382 
L 281.241061 275.110537 
L 281.886702 275.899931 
L 282.532343 279.68519 
L 284.469266 277.33025 
L 285.114907 278.638704 
L 285.760548 283.317081 
L 287.05183 287.215651 
L 288.988754 283.253053 
L 289.634395 280.110071 
L 290.925677 291.434902 
L 291.571318 292.188759 
L 293.508241 289.841827 
L 294.153882 288.414241 
L 295.445164 278.618383 
L 296.090805 276.012939 
L 298.027729 274.606281 
L 298.67337 272.703706 
L 299.319011 272.213281 
L 299.964652 271.004106 
L 300.610293 267.907151 
L 302.547216 267.470621 
L 303.192857 265.003806 
L 304.484139 263.215958 
L 305.12978 263.383155 
L 307.066704 258.80088 
L 307.712345 259.51871 
L 308.357986 258.363518 
L 309.649268 258.362522 
L 311.586191 257.133275 
L 312.231832 254.169023 
L 312.877473 255.21194 
L 313.523114 258.098128 
L 314.168755 256.293906 
L 316.105679 256.45009 
L 316.75132 255.452113 
L 317.396961 258.567333 
L 318.042602 254.601731 
L 318.688243 249.917961 
L 320.625166 254.88932 
L 321.270807 252.168769 
L 321.916448 247.343103 
L 322.562089 246.777762 
L 323.20773 247.058803 
L 325.144654 242.888866 
L 325.790295 240.862321 
L 326.435936 241.809586 
L 327.081577 238.083795 
L 327.727218 236.577276 
L 330.309782 236.727135 
L 330.955423 233.615918 
L 331.601064 233.2266 
L 332.246705 244.566056 
L 335.474911 254.906694 
L 336.120552 253.930105 
L 336.766193 252.541904 
L 338.703116 246.329793 
L 339.348757 246.935161 
L 339.994398 244.670801 
L 341.28568 248.391343 
L 343.868245 246.942602 
L 344.513886 247.756779 
L 345.159527 247.327989 
L 345.805168 243.694469 
L 347.742091 243.588716 
L 349.033373 242.893104 
L 349.679014 243.676341 
L 350.324655 243.065772 
L 352.261579 242.232993 
L 352.90722 242.278052 
L 353.552861 243.643543 
L 354.198502 242.35465 
L 354.844143 242.863075 
L 356.781066 242.316191 
L 357.426707 241.973206 
L 358.072348 240.719755 
L 358.717989 239.774148 
L 359.36363 239.532526 
L 361.300554 240.167227 
L 361.946195 240.232224 
L 362.591836 238.656133 
L 363.237477 238.957285 
L 363.883118 241.129575 
L 366.465682 241.832277 
L 367.111323 242.487187 
L 367.756964 234.621835 
L 368.402605 235.545969 
L 370.339529 235.888652 
L 370.98517 236.764943 
L 371.630811 237.391401 
L 372.276452 235.548665 
L 372.922093 235.600344 
L 374.859016 236.401161 
L 375.504657 236.225478 
L 376.150298 236.837424 
L 376.795939 236.348642 
L 377.44158 236.714936 
L 379.378504 237.150043 
L 380.024145 234.405761 
L 380.669786 234.759709 
L 381.315427 234.467603 
L 381.961068 233.898649 
L 384.543632 231.772146 
L 385.189273 230.199501 
L 385.834914 229.956111 
L 386.480555 229.397918 
L 388.417479 229.368275 
L 389.708761 229.183513 
L 390.354402 231.89653 
L 392.936966 233.24529 
L 394.228248 232.93994 
L 394.873889 232.761217 
L 395.51953 232.285227 
L 397.456454 232.883536 
L 398.102095 232.667457 
L 398.747736 231.260612 
L 399.393377 231.294093 
L 400.039018 230.004274 
L 401.975941 228.908561 
L 402.621582 229.052799 
L 403.267223 229.843306 
L 403.912864 229.229653 
L 404.558506 231.737799 
L 406.495429 231.409561 
L 407.14107 232.345522 
L 407.786711 231.587471 
L 408.432352 232.618548 
L 409.077993 234.457794 
L 411.014916 236.412701 
L 411.660557 234.977512 
L 412.306198 234.132962 
L 412.951839 231.793933 
L 413.597481 231.351447 
L 415.534404 231.489235 
L 416.180045 230.426282 
L 416.825686 230.401925 
L 417.471327 230.223035 
L 418.116968 229.914229 
L 420.053891 230.271817 
L 420.699532 230.552842 
L 421.345173 231.028567 
L 421.990814 229.485749 
L 422.636456 229.895657 
L 424.573379 230.166011 
L 425.21902 230.922853 
L 425.864661 230.136327 
L 426.510302 229.525858 
L 427.155943 231.058104 
L 430.384148 231.155783 
L 431.029789 230.136604 
L 431.675431 230.023163 
L 434.257995 229.361564 
L 434.903636 231.105689 
L 435.549277 230.32431 
L 436.194918 229.257666 
L 438.131841 228.631702 
L 438.777482 228.272866 
L 439.423123 228.885612 
L 440.068764 229.037966 
L 440.714406 228.886871 
L 442.651329 229.647639 
L 443.29697 229.229166 
L 444.588252 227.798522 
L 445.233893 228.39698 
L 447.170816 227.449054 
L 447.816457 226.239159 
L 448.462098 226.31803 
L 449.107739 226.118588 
L 449.753381 227.207704 
L 451.690304 229.121774 
L 452.335945 232.162581 
L 452.981586 234.533308 
L 454.272868 235.832119 
L 456.209791 235.804986 
L 457.501073 237.049469 
L 458.146715 234.056497 
L 458.792356 233.79474 
L 460.729279 233.854116 
L 461.37492 233.991461 
L 462.020561 233.49253 
L 462.666202 231.882148 
L 463.311843 233.53822 
L 465.248766 233.039175 
L 466.540048 231.239703 
L 467.18569 231.583304 
L 467.831331 229.631937 
L 470.413895 229.106204 
L 471.059536 225.7117 
L 471.705177 224.801788 
L 472.350818 225.627332 
L 474.287741 225.446226 
L 474.933382 222.597277 
L 475.579023 224.77875 
L 476.224665 219.709992 
L 476.870306 218.284137 
L 478.807229 218.71638 
L 479.45287 219.182889 
L 480.098511 219.157478 
L 480.744152 221.246844 
L 481.389793 221.864325 
L 483.326716 221.447822 
L 484.617998 220.807362 
L 485.26364 220.064601 
L 485.909281 218.895217 
L 488.491845 218.500885 
L 489.137486 219.023387 
L 489.783127 219.100899 
L 490.428768 217.629654 
L 493.011332 217.341696 
L 493.656973 217.891827 
L 494.302615 218.085723 
L 494.948256 220.7266 
L 496.885179 220.44123 
L 497.53082 221.552124 
L 498.176461 222.947977 
L 498.822102 224.907713 
L 499.467743 225.208754 
L 501.404666 225.539318 
L 502.050307 225.064684 
L 502.695948 224.90209 
L 503.34159 224.19567 
L 503.987231 223.868073 
L 505.924154 223.723709 
L 506.569795 224.579586 
L 507.215436 224.072664 
L 508.506718 227.201122 
L 510.443641 227.389711 
L 511.089282 230.450855 
L 512.380565 230.994822 
L 513.026206 227.924048 
L 514.963129 228.899523 
L 515.60877 228.766929 
L 516.254411 228.191274 
L 516.900052 227.801762 
L 517.545693 230.255766 
L 519.482616 230.385524 
L 520.128257 230.302168 
L 520.773899 231.268583 
L 521.41954 230.599019 
L 522.065181 228.050782 
L 524.002104 227.956255 
L 524.647745 227.784149 
L 525.293386 227.393003 
L 525.939027 226.27649 
L 526.584668 225.915927 
L 528.521591 225.864168 
L 529.167232 226.324483 
L 530.458515 222.810293 
L 531.104156 220.726743 
L 533.041079 220.940128 
L 533.68672 220.042141 
L 534.332361 221.962046 
L 535.623643 231.463382 
L 537.560566 232.026856 
L 538.206207 235.047747 
L 538.851849 223.695921 
L 539.49749 222.40754 
L 540.143131 226.947473 
L 542.080054 226.745563 
L 542.725695 232.410828 
L 543.371336 243.40677 
L 544.016977 222.464626 
L 544.662618 227.450134 
L 546.599541 225.729943 
L 547.245182 228.661076 
L 547.890824 218.996491 
L 549.182106 218.76499 
L 551.119029 216.947316 
L 551.76467 217.336507 
L 552.410311 216.862049 
L 553.055952 215.093544 
L 553.701593 216.84647 
L 555.638516 216.21319 
L 556.284157 215.246705 
L 556.929799 212.250508 
L 557.57544 210.715764 
L 558.221081 210.610088 
L 560.158004 210.997044 
L 560.803645 211.425238 
L 561.449286 209.794049 
L 562.094927 214.543055 
L 562.740568 202.981451 
L 564.677491 202.237923 
L 565.323132 199.332552 
L 566.614415 197.989461 
L 567.260056 198.04896 
L 569.196979 197.416968 
L 569.84262 204.772543 
L 571.133902 205.067326 
L 571.779543 198.532147 
L 573.716466 198.930783 
L 574.362107 191.726337 
L 575.007749 191.228708 
L 576.299031 191.215403 
L 578.881595 189.84094 
L 579.527236 190.14513 
L 580.172877 190.239667 
L 580.818518 194.017199 
L 583.401083 194.383848 
L 584.046724 195.235209 
L 584.692365 195.14039 
L 585.338006 195.448579 
L 587.274929 194.380011 
L 587.92057 190.436322 
L 588.566211 191.031271 
L 589.211852 189.313756 
L 589.857493 190.301483 
L 592.440058 189.590261 
L 593.085699 189.320302 
L 593.73134 189.46962 
L 594.376981 190.918714 
L 596.313904 191.125278 
L 596.959545 191.538991 
L 597.605186 189.641749 
L 598.250827 188.593218 
L 598.896468 187.965481 
L 601.479033 188.183202 
L 602.770315 187.828083 
L 603.415956 189.78377 
L 605.352879 189.719346 
L 605.99852 194.634407 
L 606.644161 191.781376 
L 607.289802 198.186229 
L 607.935443 188.844874 
L 609.872366 188.42346 
L 610.518008 187.156061 
L 611.163649 189.947224 
L 611.80929 190.328843 
L 612.454931 184.670112 
L 614.391854 185.553037 
L 615.037495 175.583197 
L 615.683136 172.079494 
L 616.328777 174.755637 
L 616.974418 167.631069 
L 618.911341 167.823979 
L 619.556983 168.201156 
L 620.202624 165.199783 
L 620.848265 164.430319 
L 621.493906 163.845534 
L 623.430829 162.399144 
L 624.07647 164.210807 
L 624.722111 159.643939 
L 625.367752 159.503064 
L 626.013393 155.172412 
L 627.950316 164.780815 
L 628.595958 165.944867 
L 629.241599 166.393478 
L 629.88724 161.144733 
L 630.532881 165.777303 
L 632.469804 165.259753 
L 633.115445 170.467954 
L 633.761086 142.04292 
L 634.406727 129.68217 
L 635.052368 129.946142 
L 636.989292 131.152424 
L 637.634933 131.158555 
L 638.280574 129.685184 
L 638.926215 129.973572 
L 641.508779 128.473251 
L 642.15442 127.682182 
L 642.800061 128.849322 
L 643.445702 131.749094 
L 644.091343 137.983587 
L 646.028267 138.15088 
L 646.673908 137.92289 
L 647.319549 137.12464 
L 647.96519 137.061219 
L 648.610831 137.257432 
L 651.193395 137.830958 
L 651.839036 137.551336 
L 652.484677 135.431458 
L 653.130318 136.414488 
L 655.067242 136.612401 
L 656.358524 143.305785 
L 657.004165 139.410235 
L 657.649806 141.666035 
L 659.586729 141.308588 
L 660.23237 142.114324 
L 660.878011 140.905007 
L 661.523652 140.944387 
L 664.751858 139.861558 
L 666.04314 139.222566 
L 666.688781 136.999617 
L 668.625704 138.151455 
L 669.271345 138.879436 
L 669.916986 138.501143 
L 670.562627 138.310084 
L 671.208268 137.400738 
L 673.145192 137.234046 
L 673.790833 137.66466 
L 674.436474 137.191909 
L 675.082115 136.417157 
L 675.727756 135.339336 
L 677.664679 135.130908 
L 678.31032 134.717682 
L 678.955961 134.5528 
L 680.247243 135.049592 
L 682.829808 133.880365 
L 683.475449 135.329587 
L 684.12109 136.04868 
L 684.766731 134.630706 
L 686.703654 140.225082 
L 687.349295 141.33443 
L 687.994936 139.379969 
L 688.640577 138.672807 
L 691.223142 138.948061 
L 691.868783 138.879743 
L 692.514424 138.11373 
L 693.160065 138.093815 
L 693.805706 138.453079 
L 695.742629 138.404009 
L 696.38827 138.064252 
L 697.033911 138.802733 
L 697.679552 139.779312 
L 698.325193 138.441704 
L 700.907758 138.964458 
L 701.553399 138.352486 
L 702.19904 137.979744 
L 702.844681 137.151123 
L 704.781604 136.849811 
L 706.072886 137.303188 
L 706.718527 136.228232 
L 707.364168 135.928506 
L 709.301092 135.818985 
L 709.946733 134.928567 
L 710.592374 134.697982 
L 711.238015 136.141544 
L 711.883656 137.120418 
L 713.820579 137.019162 
L 714.46622 137.37213 
L 715.111861 136.990673 
L 715.757502 137.57447 
L 716.403143 137.422983 
L 718.340067 137.431762 
L 718.985708 136.759467 
L 719.631349 135.76824 
L 720.27699 135.682991 
L 720.922631 133.411405 
L 722.859554 133.059383 
L 723.505195 131.868836 
L 724.150836 132.1626 
L 724.796477 132.018217 
L 725.442118 131.226865 
L 728.670324 130.749976 
L 729.315965 130.961052 
L 729.961606 130.248151 
L 731.898529 130.989446 
L 732.54417 131.377838 
L 733.189811 132.603876 
L 733.835452 132.353946 
L 734.481093 133.157231 
L 736.418017 133.20925 
L 737.063658 132.982931 
L 738.35494 133.902633 
L 739.000581 135.715118 
L 741.583145 135.55817 
L 742.228786 134.960274 
L 742.874427 136.749656 
L 743.520068 134.439479 
L 745.456992 134.077924 
L 746.102633 135.476262 
L 746.748274 138.521837 
L 747.393915 140.303441 
L 748.039556 140.326614 
L 749.976479 140.639452 
L 750.62212 139.295855 
L 751.267761 139.394725 
L 751.913402 140.325981 
L 752.559043 137.447841 
L 754.495967 136.762153 
L 755.141608 135.245825 
L 755.787249 136.359704 
L 756.43289 135.191442 
L 757.078531 131.729943 
L 759.015454 132.010514 
L 759.661095 132.228144 
L 760.952377 128.854484 
L 761.598018 128.716056 
L 764.180583 128.706946 
L 764.826224 129.201051 
L 765.471865 128.756123 
L 766.117506 125.595961 
L 768.054429 125.046302 
L 768.70007 126.005132 
L 769.345711 121.864907 
L 769.991352 126.788197 
L 770.636993 122.738501 
L 772.573917 122.842339 
L 773.219558 121.961866 
L 774.51084 124.77205 
L 775.156481 126.743497 
L 777.739045 125.860582 
L 778.384686 124.426247 
L 779.030327 127.513088 
L 779.675968 127.726556 
L 781.612892 127.702524 
L 782.258533 126.605856 
L 782.904174 128.869017 
L 784.195456 131.611436 
L 786.132379 131.518742 
L 786.77802 129.066957 
L 787.423661 129.112214 
L 788.069302 128.842782 
L 788.714943 127.847592 
L 790.651867 127.750606 
L 791.943149 128.478701 
L 792.58879 127.398862 
L 793.234431 125.416186 
L 795.171354 124.336017 
L 795.816995 122.226318 
L 796.462636 124.349319 
L 797.108277 123.126761 
L 797.753918 117.376291 
L 799.690842 117.224618 
L 800.336483 116.803705 
L 800.982124 116.249507 
L 802.273406 115.290682 
L 804.85597 114.43372 
L 805.501611 117.883448 
L 806.792893 119.534839 
L 808.729817 119.244411 
L 809.375458 118.538623 
L 810.021099 118.094139 
L 810.66674 117.351858 
L 811.312381 116.791738 
L 813.249304 116.87939 
L 814.540586 118.509593 
L 815.186227 115.999365 
L 815.831869 117.252618 
L 818.414433 115.987884 
L 819.060074 114.573371 
L 819.705715 115.26619 
L 820.351356 113.503977 
L 822.288279 112.770419 
L 822.93392 111.998796 
L 823.579561 112.350271 
L 824.225202 111.586846 
L 824.870844 109.153984 
L 826.807767 108.731386 
L 827.453408 110.096808 
L 828.099049 113.277839 
L 828.74469 130.36839 
L 829.390331 82.08024 
L 831.327254 81.521931 
L 831.972895 80.957471 
L 832.618536 79.337343 
L 833.264177 79.649277 
L 833.909819 72.859198 
L 836.492383 73.39863 
L 837.138024 73.167799 
L 837.783665 72.308369 
L 838.429306 71.12574 
L 840.366229 70.322339 
L 841.01187 69.676161 
L 841.657511 66.789972 
L 842.948794 62.742846 
L 844.885717 61.819517 
L 845.531358 59.534043 
L 846.176999 59.086148 
L 846.82264 56.003721 
L 847.468281 53.532221 
L 850.050845 52.986965 
L 850.696486 53.540667 
L 851.342127 51.185696 
L 851.987769 51.78578 
L 853.924692 51.780424 
L 854.570333 51.039811 
L 855.215974 48.759644 
L 856.507256 47.718507 
L 858.444179 46.326894 
L 859.08982 46.497897 
L 859.735461 46.381443 
L 860.381102 44.581578 
L 861.026744 48.006878 
L 862.963667 47.400814 
L 863.609308 41.679474 
L 863.609308 41.679474 
" clip-path="url(#pac560491df)" style="fill: none; stroke: #1f77b4; stroke-width: 2.8; stroke-linecap: square"/>
   </g>
   <g id="line2d_20">
    <path d="M 99.815919 382.32928 
L 100.46156 380.31503 
L 101.107202 383.315838 
L 101.752843 377.35529 
L 103.689766 377.506063 
L 104.335407 375.642521 
L 104.981048 372.258008 
L 106.27233 370.216408 
L 108.854894 370.71647 
L 109.500536 375.019058 
L 110.146177 376.971672 
L 110.791818 372.011357 
L 112.728741 368.757094 
L 113.374382 369.051639 
L 114.020023 368.948936 
L 114.665664 365.934344 
L 115.311305 365.297205 
L 117.248228 368.784466 
L 117.893869 364.749074 
L 118.539511 361.789399 
L 119.185152 357.692394 
L 119.830793 360.727422 
L 121.767716 362.453975 
L 122.413357 358.781721 
L 123.058998 361.892169 
L 123.704639 364.33117 
L 124.35028 363.680313 
L 126.287203 360.398591 
L 126.932844 360.528754 
L 127.578486 359.610723 
L 128.224127 363.515909 
L 128.869768 364.214683 
L 131.452332 369.812114 
L 132.097973 370.188949 
L 132.743614 368.736505 
L 133.389255 371.668852 
L 135.326178 370.743885 
L 136.617461 372.792421 
L 137.263102 370.689076 
L 137.908743 366.318027 
L 139.845666 366.126207 
L 140.491307 370.373964 
L 141.136948 369.928602 
L 141.782589 374.971054 
L 142.42823 378.842041 
L 144.365153 379.218832 
L 145.010794 374.854588 
L 145.656436 376.533158 
L 146.302077 371.853823 
L 146.947718 375.027018 
L 148.884641 372.447974 
L 149.530282 368.892404 
L 150.175923 373.568991 
L 150.821564 372.84001 
L 151.467205 371.06565 
L 153.404128 370.556755 
L 154.049769 371.16879 
L 154.695411 367.214335 
L 155.341052 365.598141 
L 155.986693 361.684907 
L 157.923616 360.612112 
L 158.569257 362.180084 
L 159.214898 362.916 
L 159.860539 361.822507 
L 163.088744 361.458017 
L 163.734386 362.606493 
L 164.380027 358.878994 
L 165.025668 359.573602 
L 166.962591 358.555747 
L 167.608232 358.370099 
L 168.253873 358.418234 
L 168.899514 359.972509 
L 169.545155 359.752423 
L 171.482078 359.456656 
L 172.12772 363.96138 
L 172.773361 365.144229 
L 173.419002 359.607975 
L 174.064643 357.187163 
L 176.001566 357.476059 
L 176.647207 360.687728 
L 177.938489 364.614702 
L 178.58413 359.456656 
L 180.521053 359.381084 
L 181.166695 360.625852 
L 181.812336 359.30536 
L 183.103618 360.17194 
L 185.040541 359.195328 
L 185.686182 361.093461 
L 186.331823 357.668577 
L 186.977464 354.917625 
L 187.623105 355.337143 
L 189.560028 355.220241 
L 190.20567 358.452607 
L 190.851311 360.515798 
L 191.496952 358.067484 
L 192.142593 354.374314 
L 194.725157 354.264304 
L 195.370798 355.866714 
L 196.016439 353.136438 
L 196.66208 348.941222 
L 198.599003 349.505165 
L 199.244645 348.865562 
L 199.890286 349.883418 
L 200.535927 348.109057 
L 201.181568 347.579508 
L 203.118491 344.897345 
L 203.764132 342.930445 
L 204.409773 342.572781 
L 205.055414 338.845282 
L 205.701055 339.882113 
L 208.28362 341.455951 
L 208.929261 343.002222 
L 209.574902 341.918434 
L 210.220543 344.19639 
L 212.157466 345.418171 
L 212.803107 342.153155 
L 213.448748 342.001269 
L 214.094389 340.814015 
L 214.74003 337.245206 
L 216.676953 336.893147 
L 217.968236 337.34876 
L 218.613877 339.744033 
L 219.259518 340.510309 
L 221.196441 339.744033 
L 221.842082 337.811222 
L 223.133364 332.91023 
L 223.779005 333.103446 
L 225.715929 332.026616 
L 226.36157 329.714134 
L 227.007211 329.016953 
L 227.652852 331.101606 
L 228.298493 331.101606 
L 230.235416 329.707243 
L 230.881057 328.851283 
L 231.526698 328.802974 
L 232.172339 330.887649 
L 232.81798 327.829655 
L 234.754904 327.22907 
L 235.400545 328.133338 
L 236.046186 332.516732 
L 236.691827 333.407195 
L 237.337468 334.808516 
L 239.274391 332.116364 
L 239.920032 333.46931 
L 240.565673 335.54018 
L 241.211314 335.429733 
L 241.856955 335.609208 
L 243.793879 333.911096 
L 244.43952 337.514408 
L 245.730802 342.070276 
L 246.376443 341.92537 
L 248.313366 339.964947 
L 248.959007 340.786381 
L 249.604648 337.417767 
L 250.250289 341.656124 
L 250.89593 339.530054 
L 252.832854 337.604135 
L 253.478495 333.186303 
L 254.124136 331.909256 
L 254.769777 332.364869 
L 255.415418 331.785025 
L 257.997982 333.131079 
L 258.643623 335.215711 
L 259.289264 336.161462 
L 259.934905 335.698957 
L 261.871829 333.676419 
L 262.51747 335.37451 
L 263.163111 335.015603 
L 263.808752 332.357977 
L 264.454393 336.103534 
L 266.391316 335.923405 
L 267.036957 336.56074 
L 267.682598 339.380109 
L 268.328239 344.402343 
L 268.97388 345.074269 
L 270.910804 343.820472 
L 271.556445 348.219285 
L 272.202086 348.101511 
L 272.847727 346.390465 
L 273.493368 347.110918 
L 275.430291 347.228692 
L 276.075932 351.191021 
L 276.721573 349.064383 
L 277.367214 349.175222 
L 278.012855 345.683905 
L 279.949779 343.778923 
L 280.59542 342.220264 
L 281.241061 340.98723 
L 281.886702 342.829857 
L 282.532343 344.326161 
L 284.469266 341.181188 
L 285.114907 341.195059 
L 285.760548 345.219742 
L 286.406189 347.838241 
L 287.05183 351.46814 
L 288.988754 351.973829 
L 289.634395 349.777944 
L 290.280036 353.989671 
L 290.925677 357.45329 
L 291.571318 358.748657 
L 293.508241 355.347372 
L 294.153882 353.53938 
L 294.799523 350.449848 
L 295.445164 344.838742 
L 296.090805 342.116361 
L 298.027729 341.423651 
L 298.67337 340.56466 
L 299.319011 340.343004 
L 299.964652 342.70519 
L 300.610293 338.01543 
L 302.547216 338.306398 
L 303.192857 332.390517 
L 303.838498 331.732419 
L 305.12978 330.963483 
L 307.066704 328.559726 
L 307.712345 329.245523 
L 308.357986 328.033295 
L 309.649268 327.839338 
L 311.586191 328.407317 
L 312.231832 328.095629 
L 312.877473 328.317307 
L 313.523114 327.077337 
L 314.168755 325.206946 
L 316.105679 326.876444 
L 316.75132 326.938777 
L 317.396961 328.213403 
L 318.042602 325.809625 
L 318.688243 324.444923 
L 320.625166 323.205019 
L 321.270807 321.74335 
L 321.916448 317.309923 
L 322.562089 316.263889 
L 323.20773 316.802271 
L 325.144654 314.966035 
L 325.790295 312.969844 
L 326.435936 317.546454 
L 327.081577 314.458274 
L 327.727218 313.797559 
L 330.309782 312.406511 
L 330.955423 311.808325 
L 331.601064 311.683157 
L 332.246705 312.642998 
L 334.82927 314.493105 
L 335.474911 317.177819 
L 336.120552 318.22815 
L 336.766193 317.782984 
L 338.703116 313.136778 
L 339.348757 313.637582 
L 339.994398 311.773538 
L 340.640039 311.9196 
L 341.28568 311.690136 
L 343.868245 312.907249 
L 344.513886 314.743463 
L 345.159527 311.822262 
L 345.805168 307.690796 
L 347.742091 306.981335 
L 348.387732 306.000666 
L 349.033373 305.631944 
L 349.679014 303.795796 
L 350.324655 304.227047 
L 352.261579 301.542289 
L 352.90722 301.806584 
L 353.552861 307.377734 
L 354.198502 302.982017 
L 354.844143 299.399992 
L 356.781066 300.651979 
L 357.426707 299.657395 
L 358.072348 296.791765 
L 358.717989 296.638767 
L 359.36363 294.635619 
L 361.300554 294.78866 
L 361.946195 299.587777 
L 362.591836 296.464876 
L 363.237477 294.072286 
L 363.883118 295.811074 
L 366.465682 297.723776 
L 367.111323 297.410823 
L 367.756964 290.25373 
L 368.402605 290.010351 
L 370.339529 291.303995 
L 370.98517 290.650237 
L 371.630811 291.11621 
L 372.276452 289.850352 
L 372.922093 286.532686 
L 374.859016 286.915192 
L 375.504657 290.476367 
L 376.150298 288.688855 
L 376.795939 285.169402 
L 377.44158 287.318613 
L 379.378504 287.624653 
L 380.024145 283.799205 
L 381.315427 285.072086 
L 381.961068 287.531393 
L 383.897991 285.417405 
L 384.543632 283.428956 
L 385.189273 280.101019 
L 385.834914 278.900983 
L 386.480555 279.591687 
L 388.417479 280.59637 
L 389.06312 281.266158 
L 389.708761 278.224172 
L 390.354402 278.293943 
L 392.936966 278.928922 
L 393.582607 281.245111 
L 394.228248 280.847535 
L 394.873889 285.270863 
L 395.51953 281.531303 
L 397.456454 281.328949 
L 398.102095 280.910282 
L 398.747736 284.538327 
L 399.393377 281.831257 
L 400.039018 286.819751 
L 401.975941 291.28502 
L 402.621582 291.92687 
L 403.267223 294.006027 
L 403.912864 294.724648 
L 404.558506 297.766568 
L 406.495429 294.585063 
L 407.14107 290.447796 
L 407.786711 290.615232 
L 408.432352 291.954808 
L 409.077993 288.626805 
L 411.014916 287.370936 
L 411.660557 293.008302 
L 412.306198 294.145546 
L 412.951839 290.880334 
L 413.597481 286.512796 
L 415.534404 282.828982 
L 416.180045 282.431253 
L 416.825686 282.396401 
L 417.471327 280.317288 
L 418.116968 279.849766 
L 420.053891 279.801021 
L 420.699532 278.133486 
L 421.345173 273.612492 
L 421.990814 274.372923 
L 422.636456 273.842632 
L 424.573379 273.41703 
L 425.21902 272.510122 
L 425.864661 273.577465 
L 426.510302 276.277642 
L 427.155943 273.849698 
L 429.738507 273.591423 
L 431.029789 278.614922 
L 431.675431 275.293789 
L 433.612354 274.9939 
L 434.257995 274.582212 
L 434.903636 270.200738 
L 435.549277 270.207717 
L 436.194918 270.661192 
L 438.131841 269.509968 
L 438.777482 268.609996 
L 439.423123 265.533114 
L 440.068764 264.772683 
L 440.714406 264.542325 
L 443.29697 260.558492 
L 445.233893 262.109801 
L 447.170816 263.348658 
L 447.816457 261.885811 
L 449.107739 260.807912 
L 449.753381 262.312809 
L 451.690304 261.528911 
L 452.335945 258.96003 
L 452.981586 257.245145 
L 454.272868 255.019337 
L 456.209791 254.571358 
L 456.855432 254.193432 
L 457.501073 250.343731 
L 458.146715 253.731451 
L 458.792356 251.27463 
L 460.729279 250.196688 
L 461.37492 247.865929 
L 462.020561 253.409446 
L 463.311843 258.974032 
L 465.248766 255.012314 
L 465.894407 255.621296 
L 466.540048 264.405663 
L 467.18569 266.379477 
L 467.831331 262.158786 
L 469.768254 261.934797 
L 470.413895 263.866692 
L 471.059536 257.700147 
L 471.705177 263.159696 
L 472.350818 270.236114 
L 474.287741 281.099245 
L 474.933382 277.760468 
L 475.579023 280.203395 
L 476.224665 271.810934 
L 476.870306 270.17317 
L 478.807229 269.977097 
L 479.45287 263.838731 
L 480.098511 262.641749 
L 480.744152 256.118261 
L 481.389793 255.250393 
L 483.326716 251.540713 
L 483.972357 252.177568 
L 484.617998 250.833717 
L 485.26364 253.913521 
L 485.909281 249.776799 
L 487.846204 250.714677 
L 488.491845 250.17575 
L 489.137486 252.457566 
L 489.783127 252.422539 
L 490.428768 248.691878 
L 493.011332 256.811255 
L 494.302615 258.540054 
L 494.948256 265.014601 
L 497.53082 259.114053 
L 498.822102 251.904549 
L 499.467743 249.860768 
L 502.050307 249.118832 
L 502.695948 250.287679 
L 503.34159 243.582251 
L 503.987231 244.273108 
L 505.924154 243.276212 
L 506.569795 242.131748 
L 507.215436 243.01641 
L 507.861077 241.429638 
L 508.506718 242.012447 
L 510.443641 240.404607 
L 511.089282 244.013349 
L 511.734923 243.844845 
L 512.380565 244.57496 
L 513.026206 240.952215 
L 514.963129 244.589049 
L 515.60877 240.818824 
L 516.254411 238.031449 
L 516.900052 238.740627 
L 517.545693 236.318441 
L 519.482616 232.990524 
L 520.128257 236.177983 
L 520.773899 234.408704 
L 521.41954 234.373677 
L 522.065181 232.800951 
L 524.647745 233.692592 
L 525.293386 237.434725 
L 525.939027 236.55713 
L 526.584668 236.697587 
L 528.521591 235.440802 
L 529.167232 234.780872 
L 529.812874 236.016501 
L 530.458515 243.99926 
L 531.104156 242.314343 
L 533.041079 243.177935 
L 533.68672 238.340411 
L 534.332361 228.272389 
L 534.978002 225.063905 
L 535.623643 223.252489 
L 537.560566 222.852317 
L 538.206207 224.158175 
L 538.851849 223.954643 
L 539.49749 226.650633 
L 540.143131 231.986518 
L 542.080054 230.30147 
L 542.725695 228.791993 
L 543.371336 228.651623 
L 544.016977 226.425989 
L 544.662618 225.13409 
L 546.599541 223.715866 
L 547.245182 221.525303 
L 547.890824 222.803201 
L 549.182106 220.191398 
L 551.76467 219.236595 
L 552.410311 216.603767 
L 553.055952 217.305834 
L 553.701593 216.498424 
L 555.638516 218.695923 
L 556.284157 220.01587 
L 556.929799 216.744093 
L 557.57544 218.941592 
L 558.221081 219.025909 
L 560.158004 217.214537 
L 560.803645 218.969814 
L 561.449286 231.614438 
L 562.094927 231.740806 
L 562.740568 226.798331 
L 564.677491 224.304608 
L 565.323132 219.648152 
L 566.614415 219.619929 
L 567.260056 224.079135 
L 569.84262 230.36991 
L 571.133902 231.384341 
L 571.779543 226.234758 
L 573.716466 223.832594 
L 574.362107 228.573543 
L 575.007749 227.967745 
L 576.299031 234.307855 
L 578.235954 233.673791 
L 578.881595 233.110306 
L 579.527236 225.650073 
L 580.172877 226.453165 
L 580.818518 222.268679 
L 583.401083 218.415357 
L 584.692365 213.695521 
L 585.338006 214.949427 
L 587.274929 221.00775 
L 587.92057 217.37977 
L 588.566211 219.288852 
L 589.211852 217.013491 
L 589.857493 219.281829 
L 591.794416 222.134896 
L 592.440058 219.309964 
L 593.73134 216.111731 
L 594.376981 220.021453 
L 596.313904 217.147362 
L 596.959545 216.823264 
L 597.605186 218.196951 
L 598.250827 213.70961 
L 598.896468 213.730722 
L 601.479033 212.469749 
L 602.124674 211.455274 
L 602.770315 213.251685 
L 603.415956 220.606182 
L 605.352879 222.529353 
L 605.99852 224.621553 
L 606.644161 224.4103 
L 607.289802 231.095532 
L 607.935443 224.663821 
L 609.872366 231.997249 
L 610.518008 236.865002 
L 611.163649 232.497398 
L 611.80929 239.788428 
L 612.454931 237.5272 
L 615.037495 251.616351 
L 615.683136 249.53811 
L 616.328777 254.786318 
L 616.974418 246.762556 
L 618.911341 243.705304 
L 619.556983 248.023529 
L 620.202624 243.719393 
L 620.848265 244.87463 
L 621.493906 244.743246 
L 623.430829 237.606763 
L 624.07647 236.631764 
L 624.722111 241.485908 
L 625.367752 242.552814 
L 626.013393 250.621897 
L 627.950316 247.986365 
L 628.595958 246.869993 
L 629.241599 244.361657 
L 630.532881 286.219079 
L 632.469804 286.854974 
L 633.115445 292.436921 
L 633.761086 255.596171 
L 634.406727 272.582226 
L 635.052368 265.968749 
L 636.989292 262.308665 
L 637.634933 263.375572 
L 638.280574 271.819178 
L 638.926215 271.289193 
L 641.508779 280.142523 
L 642.15442 270.695652 
L 642.800061 264.922955 
L 643.445702 256.959825 
L 644.091343 254.168918 
L 646.028267 254.020565 
L 646.673908 251.568717 
L 647.319549 251.413299 
L 647.96519 248.63648 
L 648.610831 242.778941 
L 650.547754 245.075283 
L 651.193395 248.40333 
L 651.839036 246.742796 
L 652.484677 243.980111 
L 653.130318 244.48881 
L 655.067242 231.311234 
L 655.712883 228.590904 
L 656.358524 228.061005 
L 657.004165 226.033146 
L 657.649806 223.390547 
L 659.586729 222.931313 
L 660.23237 224.344433 
L 660.878011 231.403098 
L 661.523652 231.240569 
L 662.169293 234.052807 
L 664.751858 225.545603 
L 665.397499 227.962118 
L 666.04314 226.322828 
L 666.688781 226.789215 
L 668.625704 224.44332 
L 669.271345 222.055158 
L 669.916986 222.168178 
L 670.562627 224.203148 
L 671.208268 219.900102 
L 673.145192 219.518556 
L 673.790833 217.116173 
L 674.436474 218.331519 
L 675.082115 216.642807 
L 675.727756 221.412109 
L 677.664679 217.398832 
L 678.31032 221.03763 
L 678.955961 221.101271 
L 680.247243 222.092628 
L 682.184167 217.932874 
L 682.829808 213.234412 
L 683.475449 212.993497 
L 684.12109 209.627283 
L 684.766731 207.472968 
L 686.703654 205.389536 
L 687.349295 205.531215 
L 687.994936 203.546975 
L 688.640577 200.081569 
L 691.223142 203.38401 
L 691.868783 203.624925 
L 692.514424 200.988738 
L 693.160065 199.741505 
L 693.805706 201.300535 
L 695.742629 200.457226 
L 696.38827 202.349339 
L 697.033911 200.875369 
L 697.679552 198.168256 
L 698.325193 198.494229 
L 700.262117 197.65092 
L 700.907758 197.587147 
L 701.553399 193.79581 
L 702.19904 193.646978 
L 702.844681 191.747798 
L 704.781604 191.861123 
L 705.427245 193.051693 
L 706.072886 193.618625 
L 706.718527 195.305244 
L 707.364168 202.647003 
L 709.301092 195.950168 
L 709.946733 198.217852 
L 710.592374 194.809151 
L 711.238015 195.184765 
L 711.883656 191.691048 
L 713.820579 192.583997 
L 714.46622 187.786342 
L 715.111861 186.227269 
L 715.757502 186.184739 
L 716.403143 187.25483 
L 718.340067 187.354022 
L 718.985708 189.827288 
L 719.631349 191.032034 
L 720.27699 192.846198 
L 720.922631 185.929648 
L 722.859554 187.942284 
L 723.505195 186.035951 
L 724.150836 184.994213 
L 724.796477 183.371367 
L 725.442118 186.1139 
L 728.024683 189.501314 
L 728.670324 187.042269 
L 729.315965 183.229601 
L 729.961606 184.561981 
L 731.898529 183.435096 
L 732.54417 182.372159 
L 733.189811 181.039867 
L 733.835452 177.198934 
L 734.481093 177.354876 
L 736.418017 174.874501 
L 737.709299 176.10049 
L 739.000581 171.593346 
L 740.937504 169.361998 
L 741.583145 171.941522 
L 742.228786 173.44101 
L 742.874427 175.608411 
L 743.520068 172.929301 
L 745.456992 171.607566 
L 746.748274 168.21784 
L 747.393915 167.670755 
L 748.039556 167.677778 
L 749.976479 165.972315 
L 750.62212 167.741769 
L 751.267761 164.906369 
L 751.913402 166.292095 
L 752.559043 179.182868 
L 754.495967 172.062394 
L 755.141608 172.638006 
L 755.787249 170.548729 
L 756.43289 173.767856 
L 757.078531 171.103011 
L 759.015454 166.192598 
L 759.661095 166.199751 
L 760.306736 168.679778 
L 760.952377 165.865708 
L 761.598018 161.96436 
L 763.534942 156.28645 
L 764.180583 154.993111 
L 764.826224 154.758608 
L 765.471865 160.13096 
L 766.117506 158.546238 
L 768.054429 157.636626 
L 768.70007 163.392704 
L 769.345711 161.729858 
L 769.991352 166.896104 
L 770.636993 166.427143 
L 772.573917 158.986802 
L 773.219558 157.878282 
L 773.865199 157.608229 
L 774.51084 165.666756 
L 775.156481 165.74488 
L 777.093404 170.193442 
L 777.739045 174.165803 
L 778.384686 172.353689 
L 779.030327 179.531045 
L 779.675968 174.911971 
L 781.612892 168.018932 
L 782.258533 163.549082 
L 782.904174 160.237524 
L 784.195456 157.601119 
L 786.132379 159.818247 
L 786.77802 158.922855 
L 787.423661 157.245789 
L 788.069302 156.890502 
L 788.714943 155.96667 
L 791.297508 157.849885 
L 791.943149 154.63067 
L 792.58879 153.49371 
L 793.234431 158.759453 
L 795.171354 159.4914 
L 795.816995 160.813136 
L 796.462636 166.12154 
L 797.108277 162.518686 
L 797.753918 158.161726 
L 799.690842 155.139762 
L 800.336483 152.908937 
L 800.982124 151.184151 
L 802.273406 151.234053 
L 804.85597 153.58601 
L 805.501611 157.213815 
L 806.792893 156.322916 
L 808.729817 153.080016 
L 809.375458 150.164965 
L 810.021099 151.754311 
L 810.66674 151.804212 
L 811.312381 148.554202 
L 813.249304 147.777326 
L 813.894945 148.767984 
L 814.540586 151.198415 
L 815.186227 149.858489 
L 815.831869 150.271878 
L 818.414433 160.307055 
L 819.060074 154.733527 
L 819.705715 152.181963 
L 820.351356 152.003818 
L 822.288279 149.509266 
L 822.93392 147.542126 
L 823.579561 147.592027 
L 824.225202 148.575576 
L 824.870844 150.050942 
L 826.807767 147.599138 
L 827.453408 151.789948 
L 828.099049 154.170477 
L 828.74469 160.278527 
L 829.390331 151.013116 
L 831.327254 148.639697 
L 831.972895 149.944029 
L 832.618536 150.058008 
L 833.264177 157.677062 
L 833.909819 157.334992 
L 836.492383 156.551006 
L 837.138024 154.099202 
L 837.783665 155.389269 
L 838.429306 151.861224 
L 840.366229 156.878812 
L 841.657511 149.209857 
L 842.948794 154.313028 
L 844.885717 154.035037 
L 845.531358 158.347024 
L 846.176999 154.925979 
L 846.82264 157.648578 
L 847.468281 164.013245 
L 849.405204 159.815237 
L 850.696486 161.197954 
L 851.342127 168.517685 
L 851.987769 171.204646 
L 853.924692 166.40084 
L 854.570333 165.146498 
L 855.215974 171.817597 
L 855.861615 172.979334 
L 856.507256 179.720836 
L 858.444179 174.853912 
L 859.08982 176.426202 
L 859.735461 173.824781 
L 861.026744 190.069293 
L 862.963667 191.58444 
L 863.609308 178.45585 
L 863.609308 178.45585 
" clip-path="url(#pac560491df)" style="fill: none; stroke-dasharray: 8.14,3.52; stroke-dashoffset: 0; stroke: #ff7f0e; stroke-width: 2.2"/>
   </g>
   <g id="patch_3">
    <path d="M 61.62625 400.397656 
L 61.62625 24.597656 
" style="fill: none; stroke: #000000; stroke-width: 0.8; stroke-linejoin: miter; stroke-linecap: square"/>
   </g>
   <g id="patch_4">
    <path d="M 61.62625 400.397656 
L 901.798977 400.397656 
" style="fill: none; stroke: #000000; stroke-width: 0.8; stroke-linejoin: miter; stroke-linecap: square"/>
   </g>
   <g id="text_20">
    <!-- $23,056 -->
    <g style="fill: #1f77b4" transform="translate(871.609308 44.438849) scale(0.1 -0.1)">
     <defs>
      <path id="DejaVuSans-Bold-24" d="M 2484 -941 
L 1978 -941 
L 1975 0 
Q 1584 16 1218 87 
Q 853 159 506 288 
L 506 1106 
Q 866 922 1233 823 
Q 1600 725 1978 713 
L 1978 1684 
L 1875 1703 
Q 1128 1834 814 2115 
Q 500 2397 500 2925 
Q 500 3484 883 3798 
Q 1266 4113 1975 4141 
L 1978 4863 
L 2484 4863 
L 2484 4153 
Q 2797 4128 3109 4075 
Q 3422 4022 3738 3938 
L 3738 3144 
Q 3425 3275 3112 3348 
Q 2800 3422 2484 3438 
L 2484 2541 
L 2584 2522 
Q 3378 2397 3698 2105 
Q 4019 1813 4019 1241 
Q 4019 666 3637 358 
Q 3256 50 2484 6 
L 2484 -941 
z
M 1978 2613 
L 1978 3428 
Q 1756 3416 1623 3308 
Q 1491 3200 1491 3034 
Q 1491 2850 1612 2745 
Q 1734 2641 1978 2613 
z
M 2484 1594 
L 2484 725 
Q 2756 728 2892 831 
Q 3028 934 3028 1141 
Q 3028 1353 2903 1458 
Q 2778 1563 2484 1594 
z
" transform="scale(0.015625)"/>
      <path id="DejaVuSans-Bold-32" d="M 1844 884 
L 3897 884 
L 3897 0 
L 506 0 
L 506 884 
L 2209 2388 
Q 2438 2594 2547 2791 
Q 2656 2988 2656 3200 
Q 2656 3528 2436 3728 
Q 2216 3928 1850 3928 
Q 1569 3928 1234 3808 
Q 900 3688 519 3450 
L 519 4475 
Q 925 4609 1322 4679 
Q 1719 4750 2100 4750 
Q 2938 4750 3402 4381 
Q 3866 4013 3866 3353 
Q 3866 2972 3669 2642 
Q 3472 2313 2841 1759 
L 1844 884 
z
" transform="scale(0.015625)"/>
      <path id="DejaVuSans-Bold-33" d="M 2981 2516 
Q 3453 2394 3698 2092 
Q 3944 1791 3944 1325 
Q 3944 631 3412 270 
Q 2881 -91 1863 -91 
Q 1503 -91 1142 -33 
Q 781 25 428 141 
L 428 1069 
Q 766 900 1098 814 
Q 1431 728 1753 728 
Q 2231 728 2486 893 
Q 2741 1059 2741 1369 
Q 2741 1688 2480 1852 
Q 2219 2016 1709 2016 
L 1228 2016 
L 1228 2791 
L 1734 2791 
Q 2188 2791 2409 2933 
Q 2631 3075 2631 3366 
Q 2631 3634 2415 3781 
Q 2200 3928 1806 3928 
Q 1516 3928 1219 3862 
Q 922 3797 628 3669 
L 628 4550 
Q 984 4650 1334 4700 
Q 1684 4750 2022 4750 
Q 2931 4750 3382 4451 
Q 3834 4153 3834 3553 
Q 3834 3144 3618 2883 
Q 3403 2622 2981 2516 
z
" transform="scale(0.015625)"/>
      <path id="DejaVuSans-Bold-2c" d="M 653 1209 
L 1778 1209 
L 1778 256 
L 1006 -909 
L 341 -909 
L 653 256 
L 653 1209 
z
" transform="scale(0.015625)"/>
      <path id="DejaVuSans-Bold-30" d="M 2944 2338 
Q 2944 3213 2780 3570 
Q 2616 3928 2228 3928 
Q 1841 3928 1675 3570 
Q 1509 3213 1509 2338 
Q 1509 1453 1675 1090 
Q 1841 728 2228 728 
Q 2613 728 2778 1090 
Q 2944 1453 2944 2338 
z
M 4147 2328 
Q 4147 1169 3647 539 
Q 3147 -91 2228 -91 
Q 1306 -91 806 539 
Q 306 1169 306 2328 
Q 306 3491 806 4120 
Q 1306 4750 2228 4750 
Q 3147 4750 3647 4120 
Q 4147 3491 4147 2328 
z
" transform="scale(0.015625)"/>
      <path id="DejaVuSans-Bold-35" d="M 678 4666 
L 3669 4666 
L 3669 3781 
L 1638 3781 
L 1638 3059 
Q 1775 3097 1914 3117 
Q 2053 3138 2203 3138 
Q 3056 3138 3531 2711 
Q 4006 2284 4006 1522 
Q 4006 766 3489 337 
Q 2972 -91 2053 -91 
Q 1656 -91 1267 -14 
Q 878 63 494 219 
L 494 1166 
Q 875 947 1217 837 
Q 1559 728 1863 728 
Q 2300 728 2551 942 
Q 2803 1156 2803 1522 
Q 2803 1891 2551 2103 
Q 2300 2316 1863 2316 
Q 1603 2316 1309 2248 
Q 1016 2181 678 2041 
L 678 4666 
z
" transform="scale(0.015625)"/>
      <path id="DejaVuSans-Bold-36" d="M 2316 2303 
Q 2000 2303 1842 2098 
Q 1684 1894 1684 1484 
Q 1684 1075 1842 870 
Q 2000 666 2316 666 
Q 2634 666 2792 870 
Q 2950 1075 2950 1484 
Q 2950 1894 2792 2098 
Q 2634 2303 2316 2303 
z
M 3803 4544 
L 3803 3681 
Q 3506 3822 3243 3889 
Q 2981 3956 2731 3956 
Q 2194 3956 1894 3657 
Q 1594 3359 1544 2772 
Q 1750 2925 1990 3001 
Q 2231 3078 2516 3078 
Q 3231 3078 3670 2659 
Q 4109 2241 4109 1563 
Q 4109 813 3618 361 
Q 3128 -91 2303 -91 
Q 1394 -91 895 523 
Q 397 1138 397 2266 
Q 397 3422 980 4083 
Q 1563 4744 2578 4744 
Q 2900 4744 3203 4694 
Q 3506 4644 3803 4544 
z
" transform="scale(0.015625)"/>
     </defs>
     <use xlink:href="#DejaVuSans-Bold-24"/>
     <use xlink:href="#DejaVuSans-Bold-32" transform="translate(69.580078 0)"/>
     <use xlink:href="#DejaVuSans-Bold-33" transform="translate(139.160156 0)"/>
     <use xlink:href="#DejaVuSans-Bold-2c" transform="translate(208.740234 0)"/>
     <use xlink:href="#DejaVuSans-Bold-30" transform="translate(246.728516 0)"/>
     <use xlink:href="#DejaVuSans-Bold-35" transform="translate(316.308594 0)"/>
     <use xlink:href="#DejaVuSans-Bold-36" transform="translate(385.888672 0)"/>
    </g>
   </g>
   <g id="text_21">
    <!-- $17,814 -->
    <g style="fill: #ff7f0e" transform="translate(871.609308 189.215225) scale(0.1 -0.1)">
     <defs>
      <path id="DejaVuSans-Bold-31" d="M 750 831 
L 1813 831 
L 1813 3847 
L 722 3622 
L 722 4441 
L 1806 4666 
L 2950 4666 
L 2950 831 
L 4013 831 
L 4013 0 
L 750 0 
L 750 831 
z
" transform="scale(0.015625)"/>
      <path id="DejaVuSans-Bold-37" d="M 428 4666 
L 3944 4666 
L 3944 3988 
L 2125 0 
L 953 0 
L 2675 3781 
L 428 3781 
L 428 4666 
z
" transform="scale(0.015625)"/>
      <path id="DejaVuSans-Bold-38" d="M 2228 2088 
Q 1891 2088 1709 1903 
Q 1528 1719 1528 1375 
Q 1528 1031 1709 848 
Q 1891 666 2228 666 
Q 2563 666 2741 848 
Q 2919 1031 2919 1375 
Q 2919 1722 2741 1905 
Q 2563 2088 2228 2088 
z
M 1350 2484 
Q 925 2613 709 2878 
Q 494 3144 494 3541 
Q 494 4131 934 4440 
Q 1375 4750 2228 4750 
Q 3075 4750 3515 4442 
Q 3956 4134 3956 3541 
Q 3956 3144 3739 2878 
Q 3522 2613 3097 2484 
Q 3572 2353 3814 2058 
Q 4056 1763 4056 1313 
Q 4056 619 3595 264 
Q 3134 -91 2228 -91 
Q 1319 -91 855 264 
Q 391 619 391 1313 
Q 391 1763 633 2058 
Q 875 2353 1350 2484 
z
M 1631 3419 
Q 1631 3141 1786 2991 
Q 1941 2841 2228 2841 
Q 2509 2841 2662 2991 
Q 2816 3141 2816 3419 
Q 2816 3697 2662 3845 
Q 2509 3994 2228 3994 
Q 1941 3994 1786 3844 
Q 1631 3694 1631 3419 
z
" transform="scale(0.015625)"/>
      <path id="DejaVuSans-Bold-34" d="M 2356 3675 
L 1038 1722 
L 2356 1722 
L 2356 3675 
z
M 2156 4666 
L 3494 4666 
L 3494 1722 
L 4159 1722 
L 4159 850 
L 3494 850 
L 3494 0 
L 2356 0 
L 2356 850 
L 288 850 
L 288 1881 
L 2156 4666 
z
" transform="scale(0.015625)"/>
     </defs>
     <use xlink:href="#DejaVuSans-Bold-24"/>
     <use xlink:href="#DejaVuSans-Bold-31" transform="translate(69.580078 0)"/>
     <use xlink:href="#DejaVuSans-Bold-37" transform="translate(139.160156 0)"/>
     <use xlink:href="#DejaVuSans-Bold-2c" transform="translate(208.740234 0)"/>
     <use xlink:href="#DejaVuSans-Bold-38" transform="translate(246.728516 0)"/>
     <use xlink:href="#DejaVuSans-Bold-31" transform="translate(316.308594 0)"/>
     <use xlink:href="#DejaVuSans-Bold-34" transform="translate(385.888672 0)"/>
    </g>
   </g>
   <g id="text_22">
    <!-- Backtested Cumulative Performance (Normalized to $10,000) -->
    <g transform="translate(250.548551 18.597656) scale(0.15 -0.15)">
     <defs>
      <path id="DejaVuSans-42" d="M 1259 2228 
L 1259 519 
L 2272 519 
Q 2781 519 3026 730 
Q 3272 941 3272 1375 
Q 3272 1813 3026 2020 
Q 2781 2228 2272 2228 
L 1259 2228 
z
M 1259 4147 
L 1259 2741 
L 2194 2741 
Q 2656 2741 2882 2914 
Q 3109 3088 3109 3444 
Q 3109 3797 2882 3972 
Q 2656 4147 2194 4147 
L 1259 4147 
z
M 628 4666 
L 2241 4666 
Q 2963 4666 3353 4366 
Q 3744 4066 3744 3513 
Q 3744 3084 3544 2831 
Q 3344 2578 2956 2516 
Q 3422 2416 3680 2098 
Q 3938 1781 3938 1306 
Q 3938 681 3513 340 
Q 3088 0 2303 0 
L 628 0 
L 628 4666 
z
" transform="scale(0.015625)"/>
      <path id="DejaVuSans-61" d="M 2194 1759 
Q 1497 1759 1228 1600 
Q 959 1441 959 1056 
Q 959 750 1161 570 
Q 1363 391 1709 391 
Q 2188 391 2477 730 
Q 2766 1069 2766 1631 
L 2766 1759 
L 2194 1759 
z
M 3341 1997 
L 3341 0 
L 2766 0 
L 2766 531 
Q 2569 213 2275 61 
Q 1981 -91 1556 -91 
Q 1019 -91 701 211 
Q 384 513 384 1019 
Q 384 1609 779 1909 
Q 1175 2209 1959 2209 
L 2766 2209 
L 2766 2266 
Q 2766 2663 2505 2880 
Q 2244 3097 1772 3097 
Q 1472 3097 1187 3025 
Q 903 2953 641 2809 
L 641 3341 
Q 956 3463 1253 3523 
Q 1550 3584 1831 3584 
Q 2591 3584 2966 3190 
Q 3341 2797 3341 1997 
z
" transform="scale(0.015625)"/>
      <path id="DejaVuSans-63" d="M 3122 3366 
L 3122 2828 
Q 2878 2963 2633 3030 
Q 2388 3097 2138 3097 
Q 1578 3097 1268 2742 
Q 959 2388 959 1747 
Q 959 1106 1268 751 
Q 1578 397 2138 397 
Q 2388 397 2633 464 
Q 2878 531 3122 666 
L 3122 134 
Q 2881 22 2623 -34 
Q 2366 -91 2075 -91 
Q 1284 -91 818 406 
Q 353 903 353 1747 
Q 353 2603 823 3093 
Q 1294 3584 2113 3584 
Q 2378 3584 2631 3529 
Q 2884 3475 3122 3366 
z
" transform="scale(0.015625)"/>
      <path id="DejaVuSans-6b" d="M 581 4863 
L 1159 4863 
L 1159 1991 
L 2875 3500 
L 3609 3500 
L 1753 1863 
L 3688 0 
L 2938 0 
L 1159 1709 
L 1159 0 
L 581 0 
L 581 4863 
z
" transform="scale(0.015625)"/>
      <path id="DejaVuSans-65" d="M 3597 1894 
L 3597 1613 
L 953 1613 
Q 991 1019 1311 708 
Q 1631 397 2203 397 
Q 2534 397 2845 478 
Q 3156 559 3463 722 
L 3463 178 
Q 3153 47 2828 -22 
Q 2503 -91 2169 -91 
Q 1331 -91 842 396 
Q 353 884 353 1716 
Q 353 2575 817 3079 
Q 1281 3584 2069 3584 
Q 2775 3584 3186 3129 
Q 3597 2675 3597 1894 
z
M 3022 2063 
Q 3016 2534 2758 2815 
Q 2500 3097 2075 3097 
Q 1594 3097 1305 2825 
Q 1016 2553 972 2059 
L 3022 2063 
z
" transform="scale(0.015625)"/>
      <path id="DejaVuSans-73" d="M 2834 3397 
L 2834 2853 
Q 2591 2978 2328 3040 
Q 2066 3103 1784 3103 
Q 1356 3103 1142 2972 
Q 928 2841 928 2578 
Q 928 2378 1081 2264 
Q 1234 2150 1697 2047 
L 1894 2003 
Q 2506 1872 2764 1633 
Q 3022 1394 3022 966 
Q 3022 478 2636 193 
Q 2250 -91 1575 -91 
Q 1294 -91 989 -36 
Q 684 19 347 128 
L 347 722 
Q 666 556 975 473 
Q 1284 391 1588 391 
Q 1994 391 2212 530 
Q 2431 669 2431 922 
Q 2431 1156 2273 1281 
Q 2116 1406 1581 1522 
L 1381 1569 
Q 847 1681 609 1914 
Q 372 2147 372 2553 
Q 372 3047 722 3315 
Q 1072 3584 1716 3584 
Q 2034 3584 2315 3537 
Q 2597 3491 2834 3397 
z
" transform="scale(0.015625)"/>
      <path id="DejaVuSans-64" d="M 2906 2969 
L 2906 4863 
L 3481 4863 
L 3481 0 
L 2906 0 
L 2906 525 
Q 2725 213 2448 61 
Q 2172 -91 1784 -91 
Q 1150 -91 751 415 
Q 353 922 353 1747 
Q 353 2572 751 3078 
Q 1150 3584 1784 3584 
Q 2172 3584 2448 3432 
Q 2725 3281 2906 2969 
z
M 947 1747 
Q 947 1113 1208 752 
Q 1469 391 1925 391 
Q 2381 391 2643 752 
Q 2906 1113 2906 1747 
Q 2906 2381 2643 2742 
Q 2381 3103 1925 3103 
Q 1469 3103 1208 2742 
Q 947 2381 947 1747 
z
" transform="scale(0.015625)"/>
      <path id="DejaVuSans-43" d="M 4122 4306 
L 4122 3641 
Q 3803 3938 3442 4084 
Q 3081 4231 2675 4231 
Q 1875 4231 1450 3742 
Q 1025 3253 1025 2328 
Q 1025 1406 1450 917 
Q 1875 428 2675 428 
Q 3081 428 3442 575 
Q 3803 722 4122 1019 
L 4122 359 
Q 3791 134 3420 21 
Q 3050 -91 2638 -91 
Q 1578 -91 968 557 
Q 359 1206 359 2328 
Q 359 3453 968 4101 
Q 1578 4750 2638 4750 
Q 3056 4750 3426 4639 
Q 3797 4528 4122 4306 
z
" transform="scale(0.015625)"/>
      <path id="DejaVuSans-75" d="M 544 1381 
L 544 3500 
L 1119 3500 
L 1119 1403 
Q 1119 906 1312 657 
Q 1506 409 1894 409 
Q 2359 409 2629 706 
Q 2900 1003 2900 1516 
L 2900 3500 
L 3475 3500 
L 3475 0 
L 2900 0 
L 2900 538 
Q 2691 219 2414 64 
Q 2138 -91 1772 -91 
Q 1169 -91 856 284 
Q 544 659 544 1381 
z
M 1991 3584 
L 1991 3584 
z
" transform="scale(0.015625)"/>
      <path id="DejaVuSans-6d" d="M 3328 2828 
Q 3544 3216 3844 3400 
Q 4144 3584 4550 3584 
Q 5097 3584 5394 3201 
Q 5691 2819 5691 2113 
L 5691 0 
L 5113 0 
L 5113 2094 
Q 5113 2597 4934 2840 
Q 4756 3084 4391 3084 
Q 3944 3084 3684 2787 
Q 3425 2491 3425 1978 
L 3425 0 
L 2847 0 
L 2847 2094 
Q 2847 2600 2669 2842 
Q 2491 3084 2119 3084 
Q 1678 3084 1418 2786 
Q 1159 2488 1159 1978 
L 1159 0 
L 581 0 
L 581 3500 
L 1159 3500 
L 1159 2956 
Q 1356 3278 1631 3431 
Q 1906 3584 2284 3584 
Q 2666 3584 2933 3390 
Q 3200 3197 3328 2828 
z
" transform="scale(0.015625)"/>
      <path id="DejaVuSans-6c" d="M 603 4863 
L 1178 4863 
L 1178 0 
L 603 0 
L 603 4863 
z
" transform="scale(0.015625)"/>
      <path id="DejaVuSans-69" d="M 603 3500 
L 1178 3500 
L 1178 0 
L 603 0 
L 603 3500 
z
M 603 4863 
L 1178 4863 
L 1178 4134 
L 603 4134 
L 603 4863 
z
" transform="scale(0.015625)"/>
      <path id="DejaVuSans-76" d="M 191 3500 
L 800 3500 
L 1894 563 
L 2988 3500 
L 3597 3500 
L 2284 0 
L 1503 0 
L 191 3500 
z
" transform="scale(0.015625)"/>
      <path id="DejaVuSans-50" d="M 1259 4147 
L 1259 2394 
L 2053 2394 
Q 2494 2394 2734 2622 
Q 2975 2850 2975 3272 
Q 2975 3691 2734 3919 
Q 2494 4147 2053 4147 
L 1259 4147 
z
M 628 4666 
L 2053 4666 
Q 2838 4666 3239 4311 
Q 3641 3956 3641 3272 
Q 3641 2581 3239 2228 
Q 2838 1875 2053 1875 
L 1259 1875 
L 1259 0 
L 628 0 
L 628 4666 
z
" transform="scale(0.015625)"/>
      <path id="DejaVuSans-6e" d="M 3513 2113 
L 3513 0 
L 2938 0 
L 2938 2094 
Q 2938 2591 2744 2837 
Q 2550 3084 2163 3084 
Q 1697 3084 1428 2787 
Q 1159 2491 1159 1978 
L 1159 0 
L 581 0 
L 581 3500 
L 1159 3500 
L 1159 2956 
Q 1366 3272 1645 3428 
Q 1925 3584 2291 3584 
Q 2894 3584 3203 3211 
Q 3513 2838 3513 2113 
z
" transform="scale(0.015625)"/>
      <path id="DejaVuSans-28" d="M 1984 4856 
Q 1566 4138 1362 3434 
Q 1159 2731 1159 2009 
Q 1159 1288 1364 580 
Q 1569 -128 1984 -844 
L 1484 -844 
Q 1016 -109 783 600 
Q 550 1309 550 2009 
Q 550 2706 781 3412 
Q 1013 4119 1484 4856 
L 1984 4856 
z
" transform="scale(0.015625)"/>
      <path id="DejaVuSans-4e" d="M 628 4666 
L 1478 4666 
L 3547 763 
L 3547 4666 
L 4159 4666 
L 4159 0 
L 3309 0 
L 1241 3903 
L 1241 0 
L 628 0 
L 628 4666 
z
" transform="scale(0.015625)"/>
      <path id="DejaVuSans-7a" d="M 353 3500 
L 3084 3500 
L 3084 2975 
L 922 459 
L 3084 459 
L 3084 0 
L 275 0 
L 275 525 
L 2438 3041 
L 353 3041 
L 353 3500 
z
" transform="scale(0.015625)"/>
      <path id="DejaVuSans-29" d="M 513 4856 
L 1013 4856 
Q 1481 4119 1714 3412 
Q 1947 2706 1947 2009 
Q 1947 1309 1714 600 
Q 1481 -109 1013 -844 
L 513 -844 
Q 928 -128 1133 580 
Q 1338 1288 1338 2009 
Q 1338 2731 1133 3434 
Q 928 4138 513 4856 
z
" transform="scale(0.015625)"/>
     </defs>
     <use xlink:href="#DejaVuSans-42"/>
     <use xlink:href="#DejaVuSans-61" transform="translate(68.603516 0)"/>
     <use xlink:href="#DejaVuSans-63" transform="translate(129.882812 0)"/>
     <use xlink:href="#DejaVuSans-6b" transform="translate(184.863281 0)"/>
     <use xlink:href="#DejaVuSans-74" transform="translate(242.773438 0)"/>
     <use xlink:href="#DejaVuSans-65" transform="translate(281.982422 0)"/>
     <use xlink:href="#DejaVuSans-73" transform="translate(343.505859 0)"/>
     <use xlink:href="#DejaVuSans-74" transform="translate(395.605469 0)"/>
     <use xlink:href="#DejaVuSans-65" transform="translate(434.814453 0)"/>
     <use xlink:href="#DejaVuSans-64" transform="translate(496.337891 0)"/>
     <use xlink:href="#DejaVuSans-20" transform="translate(559.814453 0)"/>
     <use xlink:href="#DejaVuSans-43" transform="translate(591.601562 0)"/>
     <use xlink:href="#DejaVuSans-75" transform="translate(661.425781 0)"/>
     <use xlink:href="#DejaVuSans-6d" transform="translate(724.804688 0)"/>
     <use xlink:href="#DejaVuSans-75" transform="translate(822.216797 0)"/>
     <use xlink:href="#DejaVuSans-6c" transform="translate(885.595703 0)"/>
     <use xlink:href="#DejaVuSans-61" transform="translate(913.378906 0)"/>
     <use xlink:href="#DejaVuSans-74" transform="translate(974.658203 0)"/>
     <use xlink:href="#DejaVuSans-69" transform="translate(1013.867188 0)"/>
     <use xlink:href="#DejaVuSans-76" transform="translate(1041.650391 0)"/>
     <use xlink:href="#DejaVuSans-65" transform="translate(1100.830078 0)"/>
     <use xlink:href="#DejaVuSans-20" transform="translate(1162.353516 0)"/>
     <use xlink:href="#DejaVuSans-50" transform="translate(1194.140625 0)"/>
     <use xlink:href="#DejaVuSans-65" transform="translate(1250.818359 0)"/>
     <use xlink:href="#DejaVuSans-72" transform="translate(1312.341797 0)"/>
     <use xlink:href="#DejaVuSans-66" transform="translate(1353.455078 0)"/>
     <use xlink:href="#DejaVuSans-6f" transform="translate(1388.660156 0)"/>
     <use xlink:href="#DejaVuSans-72" transform="translate(1449.841797 0)"/>
     <use xlink:href="#DejaVuSans-6d" transform="translate(1489.205078 0)"/>
     <use xlink:href="#DejaVuSans-61" transform="translate(1586.617188 0)"/>
     <use xlink:href="#DejaVuSans-6e" transform="translate(1647.896484 0)"/>
     <use xlink:href="#DejaVuSans-63" transform="translate(1711.275391 0)"/>
     <use xlink:href="#DejaVuSans-65" transform="translate(1766.255859 0)"/>
     <use xlink:href="#DejaVuSans-20" transform="translate(1827.779297 0)"/>
     <use xlink:href="#DejaVuSans-28" transform="translate(1859.566406 0)"/>
     <use xlink:href="#DejaVuSans-4e" transform="translate(1898.580078 0)"/>
     <use xlink:href="#DejaVuSans-6f" transform="translate(1973.384766 0)"/>
     <use xlink:href="#DejaVuSans-72" transform="translate(2034.566406 0)"/>
     <use xlink:href="#DejaVuSans-6d" transform="translate(2073.929688 0)"/>
     <use xlink:href="#DejaVuSans-61" transform="translate(2171.341797 0)"/>
     <use xlink:href="#DejaVuSans-6c" transform="translate(2232.621094 0)"/>
     <use xlink:href="#DejaVuSans-69" transform="translate(2260.404297 0)"/>
     <use xlink:href="#DejaVuSans-7a" transform="translate(2288.1875 0)"/>
     <use xlink:href="#DejaVuSans-65" transform="translate(2340.677734 0)"/>
     <use xlink:href="#DejaVuSans-64" transform="translate(2402.201172 0)"/>
     <use xlink:href="#DejaVuSans-20" transform="translate(2465.677734 0)"/>
     <use xlink:href="#DejaVuSans-74" transform="translate(2497.464844 0)"/>
     <use xlink:href="#DejaVuSans-6f" transform="translate(2536.673828 0)"/>
     <use xlink:href="#DejaVuSans-20" transform="translate(2597.855469 0)"/>
     <use xlink:href="#DejaVuSans-24" transform="translate(2629.642578 0)"/>
     <use xlink:href="#DejaVuSans-31" transform="translate(2693.265625 0)"/>
     <use xlink:href="#DejaVuSans-30" transform="translate(2756.888672 0)"/>
     <use xlink:href="#DejaVuSans-2c" transform="translate(2820.511719 0)"/>
     <use xlink:href="#DejaVuSans-30" transform="translate(2852.298828 0)"/>
     <use xlink:href="#DejaVuSans-30" transform="translate(2915.921875 0)"/>
     <use xlink:href="#DejaVuSans-30" transform="translate(2979.544922 0)"/>
     <use xlink:href="#DejaVuSans-29" transform="translate(3043.167969 0)"/>
    </g>
   </g>
   <g id="legend_1">
    <g id="line2d_21">
     <path d="M 69.72625 36.38625 
L 78.72625 36.38625 
L 87.72625 36.38625 
" style="fill: none; stroke: #1f77b4; stroke-width: 2.8; stroke-linecap: square"/>
    </g>
    <g id="text_23">
     <!-- Diamond Creek ETF Arb Fund (Net) -->
     <g transform="translate(94.92625 39.53625) scale(0.09 -0.09)">
      <defs>
       <path id="DejaVuSans-44" d="M 1259 4147 
L 1259 519 
L 2022 519 
Q 2988 519 3436 956 
Q 3884 1394 3884 2338 
Q 3884 3275 3436 3711 
Q 2988 4147 2022 4147 
L 1259 4147 
z
M 628 4666 
L 1925 4666 
Q 3281 4666 3915 4102 
Q 4550 3538 4550 2338 
Q 4550 1131 3912 565 
Q 3275 0 1925 0 
L 628 0 
L 628 4666 
z
" transform="scale(0.015625)"/>
       <path id="DejaVuSans-45" d="M 628 4666 
L 3578 4666 
L 3578 4134 
L 1259 4134 
L 1259 2753 
L 3481 2753 
L 3481 2222 
L 1259 2222 
L 1259 531 
L 3634 531 
L 3634 0 
L 628 0 
L 628 4666 
z
" transform="scale(0.015625)"/>
       <path id="DejaVuSans-54" d="M -19 4666 
L 3928 4666 
L 3928 4134 
L 2272 4134 
L 2272 0 
L 1638 0 
L 1638 4134 
L -19 4134 
L -19 4666 
z
" transform="scale(0.015625)"/>
       <path id="DejaVuSans-46" d="M 628 4666 
L 3309 4666 
L 3309 4134 
L 1259 4134 
L 1259 2759 
L 3109 2759 
L 3109 2228 
L 1259 2228 
L 1259 0 
L 628 0 
L 628 4666 
z
" transform="scale(0.015625)"/>
       <path id="DejaVuSans-41" d="M 2188 4044 
L 1331 1722 
L 3047 1722 
L 2188 4044 
z
M 1831 4666 
L 2547 4666 
L 4325 0 
L 3669 0 
L 3244 1197 
L 1141 1197 
L 716 0 
L 50 0 
L 1831 4666 
z
" transform="scale(0.015625)"/>
       <path id="DejaVuSans-62" d="M 3116 1747 
Q 3116 2381 2855 2742 
Q 2594 3103 2138 3103 
Q 1681 3103 1420 2742 
Q 1159 2381 1159 1747 
Q 1159 1113 1420 752 
Q 1681 391 2138 391 
Q 2594 391 2855 752 
Q 3116 1113 3116 1747 
z
M 1159 2969 
Q 1341 3281 1617 3432 
Q 1894 3584 2278 3584 
Q 2916 3584 3314 3078 
Q 3713 2572 3713 1747 
Q 3713 922 3314 415 
Q 2916 -91 2278 -91 
Q 1894 -91 1617 61 
Q 1341 213 1159 525 
L 1159 0 
L 581 0 
L 581 4863 
L 1159 4863 
L 1159 2969 
z
" transform="scale(0.015625)"/>
      </defs>
      <use xlink:href="#DejaVuSans-44"/>
      <use xlink:href="#DejaVuSans-69" transform="translate(77.001953 0)"/>
      <use xlink:href="#DejaVuSans-61" transform="translate(104.785156 0)"/>
      <use xlink:href="#DejaVuSans-6d" transform="translate(166.064453 0)"/>
      <use xlink:href="#DejaVuSans-6f" transform="translate(263.476562 0)"/>
      <use xlink:href="#DejaVuSans-6e" transform="translate(324.658203 0)"/>
      <use xlink:href="#DejaVuSans-64" transform="translate(388.037109 0)"/>
      <use xlink:href="#DejaVuSans-20" transform="translate(451.513672 0)"/>
      <use xlink:href="#DejaVuSans-43" transform="translate(483.300781 0)"/>
      <use xlink:href="#DejaVuSans-72" transform="translate(553.125 0)"/>
      <use xlink:href="#DejaVuSans-65" transform="translate(591.988281 0)"/>
      <use xlink:href="#DejaVuSans-65" transform="translate(653.511719 0)"/>
      <use xlink:href="#DejaVuSans-6b" transform="translate(715.035156 0)"/>
      <use xlink:href="#DejaVuSans-20" transform="translate(772.945312 0)"/>
      <use xlink:href="#DejaVuSans-45" transform="translate(804.732422 0)"/>
      <use xlink:href="#DejaVuSans-54" transform="translate(867.916016 0)"/>
      <use xlink:href="#DejaVuSans-46" transform="translate(929 0)"/>
      <use xlink:href="#DejaVuSans-20" transform="translate(986.519531 0)"/>
      <use xlink:href="#DejaVuSans-41" transform="translate(1018.306641 0)"/>
      <use xlink:href="#DejaVuSans-72" transform="translate(1086.714844 0)"/>
      <use xlink:href="#DejaVuSans-62" transform="translate(1127.828125 0)"/>
      <use xlink:href="#DejaVuSans-20" transform="translate(1191.304688 0)"/>
      <use xlink:href="#DejaVuSans-46" transform="translate(1223.091797 0)"/>
      <use xlink:href="#DejaVuSans-75" transform="translate(1275.111328 0)"/>
      <use xlink:href="#DejaVuSans-6e" transform="translate(1338.490234 0)"/>
      <use xlink:href="#DejaVuSans-64" transform="translate(1401.869141 0)"/>
      <use xlink:href="#DejaVuSans-20" transform="translate(1465.345703 0)"/>
      <use xlink:href="#DejaVuSans-28" transform="translate(1497.132812 0)"/>
      <use xlink:href="#DejaVuSans-4e" transform="translate(1536.146484 0)"/>
      <use xlink:href="#DejaVuSans-65" transform="translate(1610.951172 0)"/>
      <use xlink:href="#DejaVuSans-74" transform="translate(1672.474609 0)"/>
      <use xlink:href="#DejaVuSans-29" transform="translate(1711.683594 0)"/>
     </g>
    </g>
    <g id="line2d_22">
     <path d="M 69.72625 49.596562 
L 78.72625 49.596562 
L 87.72625 49.596562 
" style="fill: none; stroke-dasharray: 8.14,3.52; stroke-dashoffset: 0; stroke: #ff7f0e; stroke-width: 2.2"/>
    </g>
    <g id="text_24">
     <!-- SPY (Total Return) -->
     <g transform="translate(94.92625 52.746562) scale(0.09 -0.09)">
      <defs>
       <path id="DejaVuSans-53" d="M 3425 4513 
L 3425 3897 
Q 3066 4069 2747 4153 
Q 2428 4238 2131 4238 
Q 1616 4238 1336 4038 
Q 1056 3838 1056 3469 
Q 1056 3159 1242 3001 
Q 1428 2844 1947 2747 
L 2328 2669 
Q 3034 2534 3370 2195 
Q 3706 1856 3706 1288 
Q 3706 609 3251 259 
Q 2797 -91 1919 -91 
Q 1588 -91 1214 -16 
Q 841 59 441 206 
L 441 856 
Q 825 641 1194 531 
Q 1563 422 1919 422 
Q 2459 422 2753 634 
Q 3047 847 3047 1241 
Q 3047 1584 2836 1778 
Q 2625 1972 2144 2069 
L 1759 2144 
Q 1053 2284 737 2584 
Q 422 2884 422 3419 
Q 422 4038 858 4394 
Q 1294 4750 2059 4750 
Q 2388 4750 2728 4690 
Q 3069 4631 3425 4513 
z
" transform="scale(0.015625)"/>
       <path id="DejaVuSans-59" d="M -13 4666 
L 666 4666 
L 1959 2747 
L 3244 4666 
L 3922 4666 
L 2272 2222 
L 2272 0 
L 1638 0 
L 1638 2222 
L -13 4666 
z
" transform="scale(0.015625)"/>
       <path id="DejaVuSans-52" d="M 2841 2188 
Q 3044 2119 3236 1894 
Q 3428 1669 3622 1275 
L 4263 0 
L 3584 0 
L 2988 1197 
Q 2756 1666 2539 1819 
Q 2322 1972 1947 1972 
L 1259 1972 
L 1259 0 
L 628 0 
L 628 4666 
L 2053 4666 
Q 2853 4666 3247 4331 
Q 3641 3997 3641 3322 
Q 3641 2881 3436 2590 
Q 3231 2300 2841 2188 
z
M 1259 4147 
L 1259 2491 
L 2053 2491 
Q 2509 2491 2742 2702 
Q 2975 2913 2975 3322 
Q 2975 3731 2742 3939 
Q 2509 4147 2053 4147 
L 1259 4147 
z
" transform="scale(0.015625)"/>
      </defs>
      <use xlink:href="#DejaVuSans-53"/>
      <use xlink:href="#DejaVuSans-50" transform="translate(63.476562 0)"/>
      <use xlink:href="#DejaVuSans-59" transform="translate(121.529297 0)"/>
      <use xlink:href="#DejaVuSans-20" transform="translate(182.613281 0)"/>
      <use xlink:href="#DejaVuSans-28" transform="translate(214.400391 0)"/>
      <use xlink:href="#DejaVuSans-54" transform="translate(253.414062 0)"/>
      <use xlink:href="#DejaVuSans-6f" transform="translate(297.498047 0)"/>
      <use xlink:href="#DejaVuSans-74" transform="translate(358.679688 0)"/>
      <use xlink:href="#DejaVuSans-61" transform="translate(397.888672 0)"/>
      <use xlink:href="#DejaVuSans-6c" transform="translate(459.167969 0)"/>
      <use xlink:href="#DejaVuSans-20" transform="translate(486.951172 0)"/>
      <use xlink:href="#DejaVuSans-52" transform="translate(518.738281 0)"/>
      <use xlink:href="#DejaVuSans-65" transform="translate(583.720703 0)"/>
      <use xlink:href="#DejaVuSans-74" transform="translate(645.244141 0)"/>
      <use xlink:href="#DejaVuSans-75" transform="translate(684.453125 0)"/>
      <use xlink:href="#DejaVuSans-72" transform="translate(747.832031 0)"/>
      <use xlink:href="#DejaVuSans-6e" transform="translate(787.195312 0)"/>
      <use xlink:href="#DejaVuSans-29" transform="translate(850.574219 0)"/>
     </g>
    </g>
   </g>
  </g>
 </g>
 <defs>
  <clipPath id="pac560491df">
   <rect x="61.62625" y="24.597656" width="840.172727" height="375.8"/>
  </clipPath>
 </defs>
</svg>
