<?xml version="1.0" encoding="utf-8" standalone="no"?>
<!DOCTYPE svg PUBLIC "-//W3C//DTD SVG 1.1//EN"
  "http://www.w3.org/Graphics/SVG/1.1/DTD/svg11.dtd">
<svg xmlns:xlink="http://www.w3.org/1999/xlink" width="924.35462pt" height="424.275781pt" viewBox="0 0 924.35462 424.275781" xmlns="http://www.w3.org/2000/svg" version="1.1">
 <metadata>
  <rdf:RDF xmlns:dc="http://purl.org/dc/elements/1.1/" xmlns:cc="http://creativecommons.org/ns#" xmlns:rdf="http://www.w3.org/1999/02/22-rdf-syntax-ns#">
   <cc:Work>
    <dc:type rdf:resource="http://purl.org/dc/dcmitype/StillImage"/>
    <dc:date>2026-04-06T23:16:28.060558</dc:date>
    <dc:format>image/svg+xml</dc:format>
    <dc:creator>
     <cc:Agent>
      <dc:title>Matplotlib v3.10.8, https://matplotlib.org/</dc:title>
     </cc:Agent>
    </dc:creator>
   </cc:Work>
  </rdf:RDF>
 </metadata>
 <defs>
  <style type="text/css">*{stroke-linejoin: round; stroke-linecap: butt}</style>
 </defs>
 <g id="figure_1">
  <g id="patch_1">
   <path d="M 0 424.275781 
L 924.35462 424.275781 
L 924.35462 0 
L 0 0 
z
" style="fill: #ffffff"/>
  </g>
  <g id="axes_1">
   <g id="patch_2">
    <path d="M 61.62625 400.397656 
L 901.798977 400.397656 
L 901.798977 24.597656 
L 61.62625 24.597656 
z
" style="fill: #ffffff"/>
   </g>
   <g id="matplotlib.axis_1">
    <g id="xtick_1">
     <g id="line2d_1">
      <defs>
       <path id="mc30fae6247" d="M 0 0 
L 0 3.5 
" style="stroke: #000000; stroke-width: 0.8"/>
      </defs>
      <g>
       <use xlink:href="#mc30fae6247" x="97.228982" y="400.397656" style="stroke: #000000; stroke-width: 0.8"/>
      </g>
     </g>
     <g id="text_1">
      <!-- 2023-01 -->
      <g transform="translate(76.337575 414.996094) scale(0.1 -0.1)">
       <defs>
        <path id="DejaVuSans-32" d="M 1228 531 
L 3431 531 
L 3431 0 
L 469 0 
L 469 531 
Q 828 903 1448 1529 
Q 2069 2156 2228 2338 
Q 2531 2678 2651 2914 
Q 2772 3150 2772 3378 
Q 2772 3750 2511 3984 
Q 2250 4219 1831 4219 
Q 1534 4219 1204 4116 
Q 875 4013 500 3803 
L 500 4441 
Q 881 4594 1212 4672 
Q 1544 4750 1819 4750 
Q 2544 4750 2975 4387 
Q 3406 4025 3406 3419 
Q 3406 3131 3298 2873 
Q 3191 2616 2906 2266 
Q 2828 2175 2409 1742 
Q 1991 1309 1228 531 
z
" transform="scale(0.015625)"/>
        <path id="DejaVuSans-30" d="M 2034 4250 
Q 1547 4250 1301 3770 
Q 1056 3291 1056 2328 
Q 1056 1369 1301 889 
Q 1547 409 2034 409 
Q 2525 409 2770 889 
Q 3016 1369 3016 2328 
Q 3016 3291 2770 3770 
Q 2525 4250 2034 4250 
z
M 2034 4750 
Q 2819 4750 3233 4129 
Q 3647 3509 3647 2328 
Q 3647 1150 3233 529 
Q 2819 -91 2034 -91 
Q 1250 -91 836 529 
Q 422 1150 422 2328 
Q 422 3509 836 4129 
Q 1250 4750 2034 4750 
z
" transform="scale(0.015625)"/>
        <path id="DejaVuSans-33" d="M 2597 2516 
Q 3050 2419 3304 2112 
Q 3559 1806 3559 1356 
Q 3559 666 3084 287 
Q 2609 -91 1734 -91 
Q 1441 -91 1130 -33 
Q 819 25 488 141 
L 488 750 
Q 750 597 1062 519 
Q 1375 441 1716 441 
Q 2309 441 2620 675 
Q 2931 909 2931 1356 
Q 2931 1769 2642 2001 
Q 2353 2234 1838 2234 
L 1294 2234 
L 1294 2753 
L 1863 2753 
Q 2328 2753 2575 2939 
Q 2822 3125 2822 3475 
Q 2822 3834 2567 4026 
Q 2313 4219 1838 4219 
Q 1578 4219 1281 4162 
Q 984 4106 628 3988 
L 628 4550 
Q 988 4650 1302 4700 
Q 1616 4750 1894 4750 
Q 2613 4750 3031 4423 
Q 3450 4097 3450 3541 
Q 3450 3153 3228 2886 
Q 3006 2619 2597 2516 
z
" transform="scale(0.015625)"/>
        <path id="DejaVuSans-2d" d="M 313 2009 
L 1997 2009 
L 1997 1497 
L 313 1497 
L 313 2009 
z
" transform="scale(0.015625)"/>
        <path id="DejaVuSans-31" d="M 794 531 
L 1825 531 
L 1825 4091 
L 703 3866 
L 703 4441 
L 1819 4666 
L 2450 4666 
L 2450 531 
L 3481 531 
L 3481 0 
L 794 0 
L 794 531 
z
" transform="scale(0.015625)"/>
       </defs>
       <use xlink:href="#DejaVuSans-32"/>
       <use xlink:href="#DejaVuSans-30" transform="translate(63.623047 0)"/>
       <use xlink:href="#DejaVuSans-32" transform="translate(127.246094 0)"/>
       <use xlink:href="#DejaVuSans-33" transform="translate(190.869141 0)"/>
       <use xlink:href="#DejaVuSans-2d" transform="translate(254.492188 0)"/>
       <use xlink:href="#DejaVuSans-30" transform="translate(290.576172 0)"/>
       <use xlink:href="#DejaVuSans-31" transform="translate(354.199219 0)"/>
      </g>
     </g>
    </g>
    <g id="xtick_2">
     <g id="line2d_2">
      <g>
       <use xlink:href="#mc30fae6247" x="174.837116" y="400.397656" style="stroke: #000000; stroke-width: 0.8"/>
      </g>
     </g>
     <g id="text_2">
      <!-- 2023-05 -->
      <g transform="translate(153.94571 414.996094) scale(0.1 -0.1)">
       <defs>
        <path id="DejaVuSans-35" d="M 691 4666 
L 3169 4666 
L 3169 4134 
L 1269 4134 
L 1269 2991 
Q 1406 3038 1543 3061 
Q 1681 3084 1819 3084 
Q 2600 3084 3056 2656 
Q 3513 2228 3513 1497 
Q 3513 744 3044 326 
Q 2575 -91 1722 -91 
Q 1428 -91 1123 -41 
Q 819 9 494 109 
L 494 744 
Q 775 591 1075 516 
Q 1375 441 1709 441 
Q 2250 441 2565 725 
Q 2881 1009 2881 1497 
Q 2881 1984 2565 2268 
Q 2250 2553 1709 2553 
Q 1456 2553 1204 2497 
Q 953 2441 691 2322 
L 691 4666 
z
" transform="scale(0.015625)"/>
       </defs>
       <use xlink:href="#DejaVuSans-32"/>
       <use xlink:href="#DejaVuSans-30" transform="translate(63.623047 0)"/>
       <use xlink:href="#DejaVuSans-32" transform="translate(127.246094 0)"/>
       <use xlink:href="#DejaVuSans-33" transform="translate(190.869141 0)"/>
       <use xlink:href="#DejaVuSans-2d" transform="translate(254.492188 0)"/>
       <use xlink:href="#DejaVuSans-30" transform="translate(290.576172 0)"/>
       <use xlink:href="#DejaVuSans-35" transform="translate(354.199219 0)"/>
      </g>
     </g>
    </g>
    <g id="xtick_3">
     <g id="line2d_3">
      <g>
       <use xlink:href="#mc30fae6247" x="254.385454" y="400.397656" style="stroke: #000000; stroke-width: 0.8"/>
      </g>
     </g>
     <g id="text_3">
      <!-- 2023-09 -->
      <g transform="translate(233.494047 414.996094) scale(0.1 -0.1)">
       <defs>
        <path id="DejaVuSans-39" d="M 703 97 
L 703 672 
Q 941 559 1184 500 
Q 1428 441 1663 441 
Q 2288 441 2617 861 
Q 2947 1281 2994 2138 
Q 2813 1869 2534 1725 
Q 2256 1581 1919 1581 
Q 1219 1581 811 2004 
Q 403 2428 403 3163 
Q 403 3881 828 4315 
Q 1253 4750 1959 4750 
Q 2769 4750 3195 4129 
Q 3622 3509 3622 2328 
Q 3622 1225 3098 567 
Q 2575 -91 1691 -91 
Q 1453 -91 1209 -44 
Q 966 3 703 97 
z
M 1959 2075 
Q 2384 2075 2632 2365 
Q 2881 2656 2881 3163 
Q 2881 3666 2632 3958 
Q 2384 4250 1959 4250 
Q 1534 4250 1286 3958 
Q 1038 3666 1038 3163 
Q 1038 2656 1286 2365 
Q 1534 2075 1959 2075 
z
" transform="scale(0.015625)"/>
       </defs>
       <use xlink:href="#DejaVuSans-32"/>
       <use xlink:href="#DejaVuSans-30" transform="translate(63.623047 0)"/>
       <use xlink:href="#DejaVuSans-32" transform="translate(127.246094 0)"/>
       <use xlink:href="#DejaVuSans-33" transform="translate(190.869141 0)"/>
       <use xlink:href="#DejaVuSans-2d" transform="translate(254.492188 0)"/>
       <use xlink:href="#DejaVuSans-30" transform="translate(290.576172 0)"/>
       <use xlink:href="#DejaVuSans-39" transform="translate(354.199219 0)"/>
      </g>
     </g>
    </g>
    <g id="xtick_4">
     <g id="line2d_4">
      <g>
       <use xlink:href="#mc30fae6247" x="333.287057" y="400.397656" style="stroke: #000000; stroke-width: 0.8"/>
      </g>
     </g>
     <g id="text_4">
      <!-- 2024-01 -->
      <g transform="translate(312.395651 414.996094) scale(0.1 -0.1)">
       <defs>
        <path id="DejaVuSans-34" d="M 2419 4116 
L 825 1625 
L 2419 1625 
L 2419 4116 
z
M 2253 4666 
L 3047 4666 
L 3047 1625 
L 3713 1625 
L 3713 1100 
L 3047 1100 
L 3047 0 
L 2419 0 
L 2419 1100 
L 313 1100 
L 313 1709 
L 2253 4666 
z
" transform="scale(0.015625)"/>
       </defs>
       <use xlink:href="#DejaVuSans-32"/>
       <use xlink:href="#DejaVuSans-30" transform="translate(63.623047 0)"/>
       <use xlink:href="#DejaVuSans-32" transform="translate(127.246094 0)"/>
       <use xlink:href="#DejaVuSans-34" transform="translate(190.869141 0)"/>
       <use xlink:href="#DejaVuSans-2d" transform="translate(254.492188 0)"/>
       <use xlink:href="#DejaVuSans-30" transform="translate(290.576172 0)"/>
       <use xlink:href="#DejaVuSans-31" transform="translate(354.199219 0)"/>
      </g>
     </g>
    </g>
    <g id="xtick_5">
     <g id="line2d_5">
      <g>
       <use xlink:href="#mc30fae6247" x="411.541926" y="400.397656" style="stroke: #000000; stroke-width: 0.8"/>
      </g>
     </g>
     <g id="text_5">
      <!-- 2024-05 -->
      <g transform="translate(390.650519 414.996094) scale(0.1 -0.1)">
       <use xlink:href="#DejaVuSans-32"/>
       <use xlink:href="#DejaVuSans-30" transform="translate(63.623047 0)"/>
       <use xlink:href="#DejaVuSans-32" transform="translate(127.246094 0)"/>
       <use xlink:href="#DejaVuSans-34" transform="translate(190.869141 0)"/>
       <use xlink:href="#DejaVuSans-2d" transform="translate(254.492188 0)"/>
       <use xlink:href="#DejaVuSans-30" transform="translate(290.576172 0)"/>
       <use xlink:href="#DejaVuSans-35" transform="translate(354.199219 0)"/>
      </g>
     </g>
    </g>
    <g id="xtick_6">
     <g id="line2d_6">
      <g>
       <use xlink:href="#mc30fae6247" x="491.090263" y="400.397656" style="stroke: #000000; stroke-width: 0.8"/>
      </g>
     </g>
     <g id="text_6">
      <!-- 2024-09 -->
      <g transform="translate(470.198857 414.996094) scale(0.1 -0.1)">
       <use xlink:href="#DejaVuSans-32"/>
       <use xlink:href="#DejaVuSans-30" transform="translate(63.623047 0)"/>
       <use xlink:href="#DejaVuSans-32" transform="translate(127.246094 0)"/>
       <use xlink:href="#DejaVuSans-34" transform="translate(190.869141 0)"/>
       <use xlink:href="#DejaVuSans-2d" transform="translate(254.492188 0)"/>
       <use xlink:href="#DejaVuSans-30" transform="translate(290.576172 0)"/>
       <use xlink:href="#DejaVuSans-39" transform="translate(354.199219 0)"/>
      </g>
     </g>
    </g>
    <g id="xtick_7">
     <g id="line2d_7">
      <g>
       <use xlink:href="#mc30fae6247" x="569.991866" y="400.397656" style="stroke: #000000; stroke-width: 0.8"/>
      </g>
     </g>
     <g id="text_7">
      <!-- 2025-01 -->
      <g transform="translate(549.10046 414.996094) scale(0.1 -0.1)">
       <use xlink:href="#DejaVuSans-32"/>
       <use xlink:href="#DejaVuSans-30" transform="translate(63.623047 0)"/>
       <use xlink:href="#DejaVuSans-32" transform="translate(127.246094 0)"/>
       <use xlink:href="#DejaVuSans-35" transform="translate(190.869141 0)"/>
       <use xlink:href="#DejaVuSans-2d" transform="translate(254.492188 0)"/>
       <use xlink:href="#DejaVuSans-30" transform="translate(290.576172 0)"/>
       <use xlink:href="#DejaVuSans-31" transform="translate(354.199219 0)"/>
      </g>
     </g>
    </g>
    <g id="xtick_8">
     <g id="line2d_8">
      <g>
       <use xlink:href="#mc30fae6247" x="647.600001" y="400.397656" style="stroke: #000000; stroke-width: 0.8"/>
      </g>
     </g>
     <g id="text_8">
      <!-- 2025-05 -->
      <g transform="translate(626.708594 414.996094) scale(0.1 -0.1)">
       <use xlink:href="#DejaVuSans-32"/>
       <use xlink:href="#DejaVuSans-30" transform="translate(63.623047 0)"/>
       <use xlink:href="#DejaVuSans-32" transform="translate(127.246094 0)"/>
       <use xlink:href="#DejaVuSans-35" transform="translate(190.869141 0)"/>
       <use xlink:href="#DejaVuSans-2d" transform="translate(254.492188 0)"/>
       <use xlink:href="#DejaVuSans-30" transform="translate(290.576172 0)"/>
       <use xlink:href="#DejaVuSans-35" transform="translate(354.199219 0)"/>
      </g>
     </g>
    </g>
    <g id="xtick_9">
     <g id="line2d_9">
      <g>
       <use xlink:href="#mc30fae6247" x="727.148338" y="400.397656" style="stroke: #000000; stroke-width: 0.8"/>
      </g>
     </g>
     <g id="text_9">
      <!-- 2025-09 -->
      <g transform="translate(706.256932 414.996094) scale(0.1 -0.1)">
       <use xlink:href="#DejaVuSans-32"/>
       <use xlink:href="#DejaVuSans-30" transform="translate(63.623047 0)"/>
       <use xlink:href="#DejaVuSans-32" transform="translate(127.246094 0)"/>
       <use xlink:href="#DejaVuSans-35" transform="translate(190.869141 0)"/>
       <use xlink:href="#DejaVuSans-2d" transform="translate(254.492188 0)"/>
       <use xlink:href="#DejaVuSans-30" transform="translate(290.576172 0)"/>
       <use xlink:href="#DejaVuSans-39" transform="translate(354.199219 0)"/>
      </g>
     </g>
    </g>
    <g id="xtick_10">
     <g id="line2d_10">
      <g>
       <use xlink:href="#mc30fae6247" x="806.049942" y="400.397656" style="stroke: #000000; stroke-width: 0.8"/>
      </g>
     </g>
     <g id="text_10">
      <!-- 2026-01 -->
      <g transform="translate(785.158535 414.996094) scale(0.1 -0.1)">
       <defs>
        <path id="DejaVuSans-36" d="M 2113 2584 
Q 1688 2584 1439 2293 
Q 1191 2003 1191 1497 
Q 1191 994 1439 701 
Q 1688 409 2113 409 
Q 2538 409 2786 701 
Q 3034 994 3034 1497 
Q 3034 2003 2786 2293 
Q 2538 2584 2113 2584 
z
M 3366 4563 
L 3366 3988 
Q 3128 4100 2886 4159 
Q 2644 4219 2406 4219 
Q 1781 4219 1451 3797 
Q 1122 3375 1075 2522 
Q 1259 2794 1537 2939 
Q 1816 3084 2150 3084 
Q 2853 3084 3261 2657 
Q 3669 2231 3669 1497 
Q 3669 778 3244 343 
Q 2819 -91 2113 -91 
Q 1303 -91 875 529 
Q 447 1150 447 2328 
Q 447 3434 972 4092 
Q 1497 4750 2381 4750 
Q 2619 4750 2861 4703 
Q 3103 4656 3366 4563 
z
" transform="scale(0.015625)"/>
       </defs>
       <use xlink:href="#DejaVuSans-32"/>
       <use xlink:href="#DejaVuSans-30" transform="translate(63.623047 0)"/>
       <use xlink:href="#DejaVuSans-32" transform="translate(127.246094 0)"/>
       <use xlink:href="#DejaVuSans-36" transform="translate(190.869141 0)"/>
       <use xlink:href="#DejaVuSans-2d" transform="translate(254.492188 0)"/>
       <use xlink:href="#DejaVuSans-30" transform="translate(290.576172 0)"/>
       <use xlink:href="#DejaVuSans-31" transform="translate(354.199219 0)"/>
      </g>
     </g>
    </g>
    <g id="xtick_11">
     <g id="line2d_11">
      <g>
       <use xlink:href="#mc30fae6247" x="883.658076" y="400.397656" style="stroke: #000000; stroke-width: 0.8"/>
      </g>
     </g>
     <g id="text_11">
      <!-- 2026-05 -->
      <g transform="translate(862.76667 414.996094) scale(0.1 -0.1)">
       <use xlink:href="#DejaVuSans-32"/>
       <use xlink:href="#DejaVuSans-30" transform="translate(63.623047 0)"/>
       <use xlink:href="#DejaVuSans-32" transform="translate(127.246094 0)"/>
       <use xlink:href="#DejaVuSans-36" transform="translate(190.869141 0)"/>
       <use xlink:href="#DejaVuSans-2d" transform="translate(254.492188 0)"/>
       <use xlink:href="#DejaVuSans-30" transform="translate(290.576172 0)"/>
       <use xlink:href="#DejaVuSans-35" transform="translate(354.199219 0)"/>
      </g>
     </g>
    </g>
   </g>
   <g id="matplotlib.axis_2">
    <g id="ytick_1">
     <g id="line2d_12">
      <defs>
       <path id="m0f647a0d04" d="M 0 0 
L -3.5 0 
" style="stroke: #000000; stroke-width: 0.8"/>
      </defs>
      <g>
       <use xlink:href="#m0f647a0d04" x="61.62625" y="383.315838" style="stroke: #000000; stroke-width: 0.8"/>
      </g>
     </g>
     <g id="text_12">
      <!-- 10000 -->
      <g transform="translate(22.81375 387.115057) scale(0.1 -0.1)">
       <use xlink:href="#DejaVuSans-31"/>
       <use xlink:href="#DejaVuSans-30" transform="translate(63.623047 0)"/>
       <use xlink:href="#DejaVuSans-30" transform="translate(127.246094 0)"/>
       <use xlink:href="#DejaVuSans-30" transform="translate(190.869141 0)"/>
       <use xlink:href="#DejaVuSans-30" transform="translate(254.492188 0)"/>
      </g>
     </g>
    </g>
    <g id="ytick_2">
     <g id="line2d_13">
      <g>
       <use xlink:href="#m0f647a0d04" x="61.62625" y="326.351866" style="stroke: #000000; stroke-width: 0.8"/>
      </g>
     </g>
     <g id="text_13">
      <!-- 12000 -->
      <g transform="translate(22.81375 330.151084) scale(0.1 -0.1)">
       <use xlink:href="#DejaVuSans-31"/>
       <use xlink:href="#DejaVuSans-32" transform="translate(63.623047 0)"/>
       <use xlink:href="#DejaVuSans-30" transform="translate(127.246094 0)"/>
       <use xlink:href="#DejaVuSans-30" transform="translate(190.869141 0)"/>
       <use xlink:href="#DejaVuSans-30" transform="translate(254.492188 0)"/>
      </g>
     </g>
    </g>
    <g id="ytick_3">
     <g id="line2d_14">
      <g>
       <use xlink:href="#m0f647a0d04" x="61.62625" y="269.387893" style="stroke: #000000; stroke-width: 0.8"/>
      </g>
     </g>
     <g id="text_14">
      <!-- 14000 -->
      <g transform="translate(22.81375 273.187112) scale(0.1 -0.1)">
       <use xlink:href="#DejaVuSans-31"/>
       <use xlink:href="#DejaVuSans-34" transform="translate(63.623047 0)"/>
       <use xlink:href="#DejaVuSans-30" transform="translate(127.246094 0)"/>
       <use xlink:href="#DejaVuSans-30" transform="translate(190.869141 0)"/>
       <use xlink:href="#DejaVuSans-30" transform="translate(254.492188 0)"/>
      </g>
     </g>
    </g>
    <g id="ytick_4">
     <g id="line2d_15">
      <g>
       <use xlink:href="#m0f647a0d04" x="61.62625" y="212.423921" style="stroke: #000000; stroke-width: 0.8"/>
      </g>
     </g>
     <g id="text_15">
      <!-- 16000 -->
      <g transform="translate(22.81375 216.22314) scale(0.1 -0.1)">
       <use xlink:href="#DejaVuSans-31"/>
       <use xlink:href="#DejaVuSans-36" transform="translate(63.623047 0)"/>
       <use xlink:href="#DejaVuSans-30" transform="translate(127.246094 0)"/>
       <use xlink:href="#DejaVuSans-30" transform="translate(190.869141 0)"/>
       <use xlink:href="#DejaVuSans-30" transform="translate(254.492188 0)"/>
      </g>
     </g>
    </g>
    <g id="ytick_5">
     <g id="line2d_16">
      <g>
       <use xlink:href="#m0f647a0d04" x="61.62625" y="155.459949" style="stroke: #000000; stroke-width: 0.8"/>
      </g>
     </g>
     <g id="text_16">
      <!-- 18000 -->
      <g transform="translate(22.81375 159.259167) scale(0.1 -0.1)">
       <defs>
        <path id="DejaVuSans-38" d="M 2034 2216 
Q 1584 2216 1326 1975 
Q 1069 1734 1069 1313 
Q 1069 891 1326 650 
Q 1584 409 2034 409 
Q 2484 409 2743 651 
Q 3003 894 3003 1313 
Q 3003 1734 2745 1975 
Q 2488 2216 2034 2216 
z
M 1403 2484 
Q 997 2584 770 2862 
Q 544 3141 544 3541 
Q 544 4100 942 4425 
Q 1341 4750 2034 4750 
Q 2731 4750 3128 4425 
Q 3525 4100 3525 3541 
Q 3525 3141 3298 2862 
Q 3072 2584 2669 2484 
Q 3125 2378 3379 2068 
Q 3634 1759 3634 1313 
Q 3634 634 3220 271 
Q 2806 -91 2034 -91 
Q 1263 -91 848 271 
Q 434 634 434 1313 
Q 434 1759 690 2068 
Q 947 2378 1403 2484 
z
M 1172 3481 
Q 1172 3119 1398 2916 
Q 1625 2713 2034 2713 
Q 2441 2713 2670 2916 
Q 2900 3119 2900 3481 
Q 2900 3844 2670 4047 
Q 2441 4250 2034 4250 
Q 1625 4250 1398 4047 
Q 1172 3844 1172 3481 
z
" transform="scale(0.015625)"/>
       </defs>
       <use xlink:href="#DejaVuSans-31"/>
       <use xlink:href="#DejaVuSans-38" transform="translate(63.623047 0)"/>
       <use xlink:href="#DejaVuSans-30" transform="translate(127.246094 0)"/>
       <use xlink:href="#DejaVuSans-30" transform="translate(190.869141 0)"/>
       <use xlink:href="#DejaVuSans-30" transform="translate(254.492188 0)"/>
      </g>
     </g>
    </g>
    <g id="ytick_6">
     <g id="line2d_17">
      <g>
       <use xlink:href="#m0f647a0d04" x="61.62625" y="98.495976" style="stroke: #000000; stroke-width: 0.8"/>
      </g>
     </g>
     <g id="text_17">
      <!-- 20000 -->
      <g transform="translate(22.81375 102.295195) scale(0.1 -0.1)">
       <use xlink:href="#DejaVuSans-32"/>
       <use xlink:href="#DejaVuSans-30" transform="translate(63.623047 0)"/>
       <use xlink:href="#DejaVuSans-30" transform="translate(127.246094 0)"/>
       <use xlink:href="#DejaVuSans-30" transform="translate(190.869141 0)"/>
       <use xlink:href="#DejaVuSans-30" transform="translate(254.492188 0)"/>
      </g>
     </g>
    </g>
    <g id="ytick_7">
     <g id="line2d_18">
      <g>
       <use xlink:href="#m0f647a0d04" x="61.62625" y="41.532004" style="stroke: #000000; stroke-width: 0.8"/>
      </g>
     </g>
     <g id="text_18">
      <!-- 22000 -->
      <g transform="translate(22.81375 45.331223) scale(0.1 -0.1)">
       <use xlink:href="#DejaVuSans-32"/>
       <use xlink:href="#DejaVuSans-32" transform="translate(63.623047 0)"/>
       <use xlink:href="#DejaVuSans-30" transform="translate(127.246094 0)"/>
       <use xlink:href="#DejaVuSans-30" transform="translate(190.869141 0)"/>
       <use xlink:href="#DejaVuSans-30" transform="translate(254.492188 0)"/>
      </g>
     </g>
    </g>
    <g id="text_19">
     <!-- Growth of $10,000 -->
     <g transform="translate(16.318125 268.620156) rotate(-90) scale(0.12 -0.12)">
      <defs>
       <path id="DejaVuSans-47" d="M 3809 666 
L 3809 1919 
L 2778 1919 
L 2778 2438 
L 4434 2438 
L 4434 434 
Q 4069 175 3628 42 
Q 3188 -91 2688 -91 
Q 1594 -91 976 548 
Q 359 1188 359 2328 
Q 359 3472 976 4111 
Q 1594 4750 2688 4750 
Q 3144 4750 3555 4637 
Q 3966 4525 4313 4306 
L 4313 3634 
Q 3963 3931 3569 4081 
Q 3175 4231 2741 4231 
Q 1884 4231 1454 3753 
Q 1025 3275 1025 2328 
Q 1025 1384 1454 906 
Q 1884 428 2741 428 
Q 3075 428 3337 486 
Q 3600 544 3809 666 
z
" transform="scale(0.015625)"/>
       <path id="DejaVuSans-72" d="M 2631 2963 
Q 2534 3019 2420 3045 
Q 2306 3072 2169 3072 
Q 1681 3072 1420 2755 
Q 1159 2438 1159 1844 
L 1159 0 
L 581 0 
L 581 3500 
L 1159 3500 
L 1159 2956 
Q 1341 3275 1631 3429 
Q 1922 3584 2338 3584 
Q 2397 3584 2469 3576 
Q 2541 3569 2628 3553 
L 2631 2963 
z
" transform="scale(0.015625)"/>
       <path id="DejaVuSans-6f" d="M 1959 3097 
Q 1497 3097 1228 2736 
Q 959 2375 959 1747 
Q 959 1119 1226 758 
Q 1494 397 1959 397 
Q 2419 397 2687 759 
Q 2956 1122 2956 1747 
Q 2956 2369 2687 2733 
Q 2419 3097 1959 3097 
z
M 1959 3584 
Q 2709 3584 3137 3096 
Q 3566 2609 3566 1747 
Q 3566 888 3137 398 
Q 2709 -91 1959 -91 
Q 1206 -91 779 398 
Q 353 888 353 1747 
Q 353 2609 779 3096 
Q 1206 3584 1959 3584 
z
" transform="scale(0.015625)"/>
       <path id="DejaVuSans-77" d="M 269 3500 
L 844 3500 
L 1563 769 
L 2278 3500 
L 2956 3500 
L 3675 769 
L 4391 3500 
L 4966 3500 
L 4050 0 
L 3372 0 
L 2619 2869 
L 1863 0 
L 1184 0 
L 269 3500 
z
" transform="scale(0.015625)"/>
       <path id="DejaVuSans-74" d="M 1172 4494 
L 1172 3500 
L 2356 3500 
L 2356 3053 
L 1172 3053 
L 1172 1153 
Q 1172 725 1289 603 
Q 1406 481 1766 481 
L 2356 481 
L 2356 0 
L 1766 0 
Q 1100 0 847 248 
Q 594 497 594 1153 
L 594 3053 
L 172 3053 
L 172 3500 
L 594 3500 
L 594 4494 
L 1172 4494 
z
" transform="scale(0.015625)"/>
       <path id="DejaVuSans-68" d="M 3513 2113 
L 3513 0 
L 2938 0 
L 2938 2094 
Q 2938 2591 2744 2837 
Q 2550 3084 2163 3084 
Q 1697 3084 1428 2787 
Q 1159 2491 1159 1978 
L 1159 0 
L 581 0 
L 581 4863 
L 1159 4863 
L 1159 2956 
Q 1366 3272 1645 3428 
Q 1925 3584 2291 3584 
Q 2894 3584 3203 3211 
Q 3513 2838 3513 2113 
z
" transform="scale(0.015625)"/>
       <path id="DejaVuSans-20" transform="scale(0.015625)"/>
       <path id="DejaVuSans-66" d="M 2375 4863 
L 2375 4384 
L 1825 4384 
Q 1516 4384 1395 4259 
Q 1275 4134 1275 3809 
L 1275 3500 
L 2222 3500 
L 2222 3053 
L 1275 3053 
L 1275 0 
L 697 0 
L 697 3053 
L 147 3053 
L 147 3500 
L 697 3500 
L 697 3744 
Q 697 4328 969 4595 
Q 1241 4863 1831 4863 
L 2375 4863 
z
" transform="scale(0.015625)"/>
       <path id="DejaVuSans-24" d="M 2163 -941 
L 1850 -941 
L 1847 0 
Q 1519 6 1191 76 
Q 863 147 531 288 
L 531 850 
Q 850 650 1176 548 
Q 1503 447 1850 444 
L 1850 1869 
Q 1159 1981 845 2250 
Q 531 2519 531 2988 
Q 531 3497 872 3790 
Q 1213 4084 1850 4128 
L 1850 4863 
L 2163 4863 
L 2163 4138 
Q 2453 4125 2725 4076 
Q 2997 4028 3256 3944 
L 3256 3397 
Q 2997 3528 2723 3600 
Q 2450 3672 2163 3684 
L 2163 2350 
Q 2872 2241 3206 1959 
Q 3541 1678 3541 1191 
Q 3541 663 3186 358 
Q 2831 53 2163 6 
L 2163 -941 
z
M 1850 2406 
L 1850 3688 
Q 1488 3647 1297 3481 
Q 1106 3316 1106 3041 
Q 1106 2772 1282 2622 
Q 1459 2472 1850 2406 
z
M 2163 1806 
L 2163 453 
Q 2559 506 2761 678 
Q 2963 850 2963 1131 
Q 2963 1406 2770 1568 
Q 2578 1731 2163 1806 
z
" transform="scale(0.015625)"/>
       <path id="DejaVuSans-2c" d="M 750 794 
L 1409 794 
L 1409 256 
L 897 -744 
L 494 -744 
L 750 256 
L 750 794 
z
" transform="scale(0.015625)"/>
      </defs>
      <use xlink:href="#DejaVuSans-47"/>
      <use xlink:href="#DejaVuSans-72" transform="translate(77.490234 0)"/>
      <use xlink:href="#DejaVuSans-6f" transform="translate(116.353516 0)"/>
      <use xlink:href="#DejaVuSans-77" transform="translate(177.535156 0)"/>
      <use xlink:href="#DejaVuSans-74" transform="translate(259.322266 0)"/>
      <use xlink:href="#DejaVuSans-68" transform="translate(298.53125 0)"/>
      <use xlink:href="#DejaVuSans-20" transform="translate(361.910156 0)"/>
      <use xlink:href="#DejaVuSans-6f" transform="translate(393.697266 0)"/>
      <use xlink:href="#DejaVuSans-66" transform="translate(454.878906 0)"/>
      <use xlink:href="#DejaVuSans-20" transform="translate(490.083984 0)"/>
      <use xlink:href="#DejaVuSans-24" transform="translate(521.871094 0)"/>
      <use xlink:href="#DejaVuSans-31" transform="translate(585.494141 0)"/>
      <use xlink:href="#DejaVuSans-30" transform="translate(649.117188 0)"/>
      <use xlink:href="#DejaVuSans-2c" transform="translate(712.740234 0)"/>
      <use xlink:href="#DejaVuSans-30" transform="translate(744.527344 0)"/>
      <use xlink:href="#DejaVuSans-30" transform="translate(808.150391 0)"/>
      <use xlink:href="#DejaVuSans-30" transform="translate(871.773438 0)"/>
     </g>
    </g>
   </g>
   <g id="line2d_19">
    <path d="M 99.815919 383.315838 
L 100.462654 378.952873 
L 102.402857 373.806763 
L 103.049592 368.380339 
L 103.696326 365.679835 
L 104.343061 362.326385 
L 104.989795 359.599435 
L 107.576733 355.595268 
L 108.223467 359.382441 
L 108.870202 360.666734 
L 109.516936 351.289384 
L 111.45714 344.882104 
L 112.103874 347.296096 
L 112.750608 347.926058 
L 113.397343 342.80478 
L 114.044077 334.980205 
L 115.984281 343.307645 
L 116.631015 337.837675 
L 117.27775 329.57407 
L 117.924484 312.26307 
L 118.571219 318.123119 
L 120.511422 318.394499 
L 121.158156 314.793834 
L 121.804891 318.634466 
L 122.451625 324.202993 
L 123.09836 328.1575 
L 125.038563 326.23267 
L 126.332032 317.004323 
L 126.978766 322.887925 
L 130.212439 329.227863 
L 130.859173 329.50456 
L 131.505908 322.38011 
L 132.152642 327.196111 
L 134.092845 325.482334 
L 134.73958 322.615356 
L 135.386314 325.756215 
L 136.033049 324.906037 
L 136.679783 319.175185 
L 138.619987 321.093987 
L 139.266721 323.455727 
L 139.913455 321.558461 
L 140.56019 328.183234 
L 141.206924 331.781902 
L 143.147128 327.034742 
L 143.793862 319.825259 
L 144.440597 317.195149 
L 145.087331 311.024438 
L 145.734066 310.174767 
L 147.674269 309.5761 
L 148.321003 301.965956 
L 148.967738 306.431107 
L 149.614472 307.247883 
L 150.261207 306.221969 
L 152.20141 309.538864 
L 152.848145 309.614342 
L 153.494879 305.6434 
L 154.141613 304.276399 
L 154.788348 309.327195 
L 156.728551 312.04967 
L 157.375286 312.687171 
L 158.02202 316.241287 
L 158.668755 312.782167 
L 161.255692 311.291668 
L 161.902427 312.12907 
L 162.549161 314.779036 
L 163.195896 310.548855 
L 163.84263 309.661135 
L 165.782834 310.04194 
L 166.429568 309.876221 
L 167.076302 310.595949 
L 167.723037 315.67601 
L 168.369771 315.41543 
L 170.309975 317.59912 
L 170.956709 321.120084 
L 171.603444 319.004143 
L 172.250178 310.529536 
L 172.896913 310.386153 
L 174.837116 310.550665 
L 175.48385 311.985968 
L 176.130585 314.099602 
L 176.777319 314.41942 
L 177.424054 306.360481 
L 179.364257 305.326365 
L 180.010992 305.823387 
L 180.657726 302.136808 
L 181.30446 301.605437 
L 181.951195 303.672413 
L 183.891398 300.786798 
L 184.538133 300.133907 
L 185.831602 292.007923 
L 186.478336 293.708595 
L 188.418539 290.861958 
L 189.065274 294.148077 
L 189.712008 294.628975 
L 190.358743 281.391331 
L 191.005477 275.999841 
L 193.592415 272.40763 
L 194.239149 276.870954 
L 194.885884 268.67504 
L 195.532618 267.85181 
L 197.472822 268.60898 
L 198.119556 272.212392 
L 198.766291 276.589902 
L 199.413025 271.489928 
L 200.05976 271.305473 
L 201.999963 268.538294 
L 203.293432 260.758088 
L 203.940166 258.267306 
L 204.586901 259.137171 
L 207.173839 256.41031 
L 207.820573 258.402315 
L 208.467307 255.175729 
L 209.114042 255.433901 
L 211.054245 260.714484 
L 211.70098 252.104067 
L 212.347714 252.189914 
L 212.994449 252.03251 
L 213.641183 259.240597 
L 215.581386 254.726885 
L 216.874855 254.065949 
L 217.52159 254.943666 
L 218.168324 253.577496 
L 220.108528 254.410347 
L 220.755262 249.182543 
L 221.401996 247.444901 
L 222.048731 232.125512 
L 222.695465 232.724953 
L 224.635669 230.909266 
L 225.929138 227.339879 
L 226.575872 236.949604 
L 227.222607 239.282939 
L 229.16281 238.980552 
L 229.809544 236.93109 
L 230.456279 236.351658 
L 231.103013 237.90335 
L 231.749748 231.274524 
L 233.689951 230.943767 
L 234.336686 233.086294 
L 234.98342 240.843236 
L 235.630154 238.89831 
L 236.276889 239.013586 
L 238.217092 236.804519 
L 238.863827 238.418388 
L 239.510561 244.177306 
L 240.157296 243.723797 
L 240.80403 247.169726 
L 242.744233 242.993856 
L 244.684437 251.728281 
L 245.331171 254.240558 
L 247.271375 245.712829 
L 247.918109 247.094422 
L 248.564844 242.635929 
L 249.211578 247.03873 
L 249.858312 246.03002 
L 251.798516 244.846926 
L 252.44525 234.21567 
L 253.091985 234.07359 
L 253.738719 234.753121 
L 254.385454 236.435609 
L 256.972391 234.98689 
L 257.619126 237.605943 
L 258.26586 237.005197 
L 258.912595 237.366666 
L 260.852798 233.671156 
L 261.499533 235.81834 
L 262.146267 233.855127 
L 262.793001 230.49465 
L 263.439736 235.865904 
L 265.379939 236.274364 
L 266.026674 238.294048 
L 266.673408 243.323798 
L 267.320143 249.483556 
L 267.966877 250.73021 
L 269.90708 248.267002 
L 270.553815 252.084159 
L 271.200549 251.537813 
L 271.847284 247.314112 
L 272.494018 258.00439 
L 274.434222 254.016413 
L 275.080956 259.518982 
L 275.727691 254.962206 
L 276.374425 253.808522 
L 277.021159 247.979085 
L 278.961363 248.218065 
L 280.254832 243.810323 
L 280.901566 244.513608 
L 281.548301 249.485888 
L 283.488504 246.297286 
L 284.135238 248.542213 
L 284.781973 254.749741 
L 286.075442 260.887705 
L 288.015645 256.29624 
L 288.66238 252.693869 
L 289.309114 260.54445 
L 289.955848 266.727898 
L 290.602583 265.279109 
L 293.189521 260.642947 
L 294.48299 248.952496 
L 295.129724 245.714822 
L 297.069927 243.771556 
L 297.716662 241.170051 
L 298.363396 240.610142 
L 299.010131 240.368907 
L 299.656865 236.046308 
L 301.597069 235.158934 
L 302.243803 230.726742 
L 304.184006 229.608112 
L 306.12421 224.484638 
L 306.770944 225.402887 
L 307.417679 224.399522 
L 308.711148 224.92648 
L 310.651351 223.324893 
L 311.298085 219.781224 
L 311.94482 221.206234 
L 312.591554 224.963467 
L 313.238289 223.418689 
L 315.178492 225.495824 
L 315.825227 223.405291 
L 316.471961 226.725878 
L 317.76543 217.498624 
L 319.705633 222.508275 
L 320.352368 219.242951 
L 320.999102 215.144502 
L 321.645837 214.428735 
L 322.292571 213.122955 
L 324.879509 206.869237 
L 325.526243 209.775728 
L 326.172978 204.979483 
L 326.819712 204.124935 
L 329.40665 203.995456 
L 330.053385 200.19841 
L 330.700119 200.074025 
L 331.346853 215.830432 
L 333.933791 223.250038 
L 334.580526 225.975396 
L 335.22726 225.568937 
L 335.873995 223.824799 
L 337.814198 215.91804 
L 338.460932 216.249791 
L 339.107667 213.097228 
L 339.754401 214.921586 
L 340.401136 217.448638 
L 342.988074 215.708498 
L 343.634808 217.049787 
L 344.281542 216.204663 
L 344.928277 211.332413 
L 346.86848 211.41612 
L 348.161949 209.990734 
L 348.808684 211.17914 
L 349.455418 210.516667 
L 351.395621 209.03863 
L 352.042356 209.464181 
L 352.68909 211.782545 
L 353.982559 207.825742 
L 355.922763 207.820774 
L 356.569497 207.463076 
L 357.216232 205.486379 
L 357.862966 204.50052 
L 358.5097 202.99234 
L 360.449904 204.42276 
L 361.096638 205.444358 
L 361.743373 202.956237 
L 362.390107 202.731457 
L 363.036842 204.770533 
L 365.623779 206.680916 
L 366.270514 206.621577 
L 366.917248 197.134126 
L 367.563983 198.305786 
L 369.504186 198.266016 
L 370.150921 199.350548 
L 370.797655 200.013078 
L 371.444389 197.032315 
L 372.091124 196.442292 
L 374.031327 198.156299 
L 374.678062 198.948405 
L 375.324796 199.526964 
L 375.971531 197.983311 
L 376.618265 199.079859 
L 378.558468 200.045689 
L 379.205203 196.233715 
L 379.851937 196.82109 
L 380.498672 196.331227 
L 381.145406 196.39737 
L 383.732344 193.346962 
L 384.379079 191.273007 
L 385.025813 191.118124 
L 385.672547 190.242231 
L 388.259485 190.150746 
L 388.90622 189.71148 
L 389.552954 193.319556 
L 392.139892 192.532438 
L 392.786626 192.584231 
L 393.433361 192.468956 
L 394.72683 191.568205 
L 396.667033 192.262415 
L 397.313768 191.766688 
L 397.960502 190.430103 
L 398.607236 190.234119 
L 399.253971 188.974191 
L 401.194174 187.988188 
L 401.840909 188.023676 
L 402.487643 188.755596 
L 403.134378 187.84333 
L 403.781112 190.073785 
L 405.721315 189.993708 
L 406.36805 190.805 
L 407.014784 188.733849 
L 407.661519 188.690731 
L 408.308253 190.491715 
L 410.248457 190.754919 
L 410.895191 190.603506 
L 411.541926 189.187276 
L 412.18866 186.929727 
L 412.835394 186.256186 
L 414.775598 186.093465 
L 415.422332 185.513415 
L 416.069067 185.656834 
L 416.715801 185.584634 
L 417.362536 185.291731 
L 419.302739 185.430532 
L 419.949473 185.129112 
L 420.596208 185.841418 
L 421.242942 184.270268 
L 421.889677 184.533146 
L 423.82988 184.910675 
L 424.476615 184.884941 
L 425.123349 184.343721 
L 425.770083 184.219164 
L 426.416818 185.040824 
L 429.003756 185.457832 
L 429.65049 185.310702 
L 430.297225 184.074123 
L 433.530897 183.170445 
L 434.177631 184.970033 
L 435.4711 182.685694 
L 438.058038 182.047326 
L 438.704773 182.402584 
L 439.351507 181.727559 
L 439.998241 181.927085 
L 441.938445 182.030783 
L 442.585179 181.55294 
L 443.878648 180.338989 
L 444.525383 181.068434 
L 446.465586 179.97659 
L 447.11232 178.552203 
L 447.759055 177.840695 
L 448.405789 177.695974 
L 449.052524 181.440779 
L 450.992727 180.27969 
L 451.639462 181.720294 
L 452.286196 182.309069 
L 453.579665 183.190405 
L 456.166603 183.196761 
L 456.813337 183.935893 
L 457.460072 182.044278 
L 458.106806 181.350337 
L 460.047009 181.198415 
L 460.693744 181.299072 
L 461.340478 180.893291 
L 461.987213 179.464354 
L 462.633947 181.116408 
L 464.574151 181.286679 
L 465.86762 178.488992 
L 466.514354 178.831245 
L 467.161088 176.891515 
L 469.748026 176.272347 
L 470.394761 173.117638 
L 471.041495 172.371834 
L 471.68823 172.537618 
L 473.628433 172.5426 
L 474.275167 169.256436 
L 474.921902 171.186244 
L 475.568636 166.579316 
L 476.215371 164.786633 
L 478.155574 165.224014 
L 478.802309 165.873492 
L 479.449043 165.564892 
L 480.095778 167.75732 
L 480.742512 168.30506 
L 482.682715 167.908416 
L 483.32945 167.591535 
L 483.976184 167.130486 
L 484.622919 166.350285 
L 485.269653 165.147527 
L 487.856591 164.59095 
L 488.503325 165.052552 
L 489.15006 164.922227 
L 489.796794 163.289845 
L 492.383732 162.784132 
L 493.030467 163.322798 
L 493.677201 163.445419 
L 494.323935 166.249951 
L 496.264139 165.744726 
L 496.910873 166.9222 
L 497.557608 168.362478 
L 498.204342 170.598229 
L 500.79128 171.285101 
L 501.438014 170.645805 
L 502.084749 170.365426 
L 503.378218 169.532483 
L 505.318421 169.307066 
L 505.965156 170.116265 
L 506.61189 169.340847 
L 507.258625 170.771392 
L 507.905359 171.504473 
L 509.845562 175.389377 
L 511.139031 176.510348 
L 511.785766 176.62117 
L 512.4325 174.684314 
L 514.372703 175.988895 
L 515.019438 174.963503 
L 515.666172 174.734762 
L 516.312907 174.925978 
L 516.959641 174.626781 
L 518.899845 175.353581 
L 519.546579 174.246662 
L 520.193314 175.217067 
L 520.840048 174.505977 
L 521.486782 174.81342 
L 523.426986 175.009217 
L 524.720455 174.222807 
L 525.367189 173.236136 
L 526.013924 173.566671 
L 527.954127 173.748902 
L 528.600861 174.23111 
L 529.247596 173.763001 
L 529.89433 171.773632 
L 530.541065 170.569806 
L 532.481268 170.888391 
L 533.128003 169.848039 
L 533.774737 171.16932 
L 534.421472 173.756194 
L 535.068206 177.61841 
L 537.008409 178.466915 
L 537.655144 177.597725 
L 538.301878 173.427365 
L 538.948613 172.152627 
L 539.595347 173.375776 
L 541.53555 173.080995 
L 542.182285 174.613987 
L 542.829019 178.340458 
L 543.475754 174.05819 
L 544.122488 174.961211 
L 546.062692 173.735224 
L 546.709426 174.276334 
L 547.356161 169.647808 
L 548.649629 169.064847 
L 550.589833 167.231453 
L 551.236567 166.987481 
L 551.883302 167.108789 
L 552.530036 166.655248 
L 553.176771 168.254004 
L 555.116974 167.823553 
L 555.763708 166.920948 
L 556.410443 164.724902 
L 557.057177 164.583248 
L 557.703912 163.221306 
L 559.644115 163.454529 
L 560.29085 163.766792 
L 560.937584 161.941401 
L 561.584319 162.23235 
L 562.231053 159.592382 
L 564.171256 159.368724 
L 564.817991 157.942732 
L 566.11146 157.695008 
L 566.758194 156.213394 
L 568.698398 154.93448 
L 569.345132 160.026266 
L 570.638601 159.570042 
L 571.285335 157.01183 
L 573.225539 157.603251 
L 573.872273 153.95044 
L 574.519008 153.720919 
L 575.812476 153.472153 
L 577.75268 152.529293 
L 578.399414 152.617665 
L 579.046149 151.393354 
L 579.692883 150.750953 
L 580.339618 151.942088 
L 582.926555 152.005152 
L 583.57329 152.628782 
L 584.220024 152.170824 
L 584.866759 151.150126 
L 586.806962 149.437848 
L 587.453697 145.121503 
L 588.100431 145.816838 
L 588.747166 144.19437 
L 589.3939 144.764298 
L 591.334103 143.985435 
L 591.980838 143.976179 
L 592.627572 143.713853 
L 593.274307 143.821393 
L 593.921041 145.393797 
L 595.861245 144.809874 
L 596.507979 144.906852 
L 597.154713 143.494164 
L 597.801448 143.216806 
L 598.448182 142.347537 
L 601.03512 142.753657 
L 602.328589 142.040965 
L 602.975323 142.626314 
L 604.915527 141.951732 
L 605.562261 143.169875 
L 606.208996 143.229697 
L 606.85573 145.030822 
L 607.502465 141.005267 
L 609.442668 140.65636 
L 610.089402 139.492229 
L 610.736137 139.424906 
L 611.382871 140.796705 
L 612.029606 137.940229 
L 613.969809 137.600365 
L 614.616544 132.271266 
L 615.263278 130.486059 
L 615.910013 133.297413 
L 616.556747 127.312307 
L 619.143685 128.229194 
L 619.790419 126.081933 
L 620.437154 125.769999 
L 621.083888 124.982422 
L 623.024092 123.352445 
L 623.670826 124.732755 
L 624.31756 121.877396 
L 624.964295 121.956694 
L 625.611029 120.342002 
L 627.551233 125.51605 
L 628.197967 124.053946 
L 628.844702 124.299213 
L 629.491436 121.157417 
L 630.13817 126.261976 
L 632.078374 125.730619 
L 632.725108 128.364694 
L 633.371843 114.999621 
L 634.018577 107.289788 
L 634.665312 105.084142 
L 636.605515 106.395752 
L 637.252249 106.365302 
L 637.898984 105.891184 
L 641.132656 104.573075 
L 641.779391 103.373719 
L 642.426125 103.854197 
L 643.07286 105.720593 
L 643.719594 109.80481 
L 645.659797 109.775477 
L 646.306532 109.41536 
L 646.953266 108.47206 
L 647.600001 108.501225 
L 648.246735 108.229728 
L 650.186939 108.525122 
L 650.833673 108.758939 
L 651.480407 108.676415 
L 652.127142 106.898359 
L 652.773876 107.948739 
L 654.71408 107.727503 
L 656.007549 114.199705 
L 656.654283 110.047398 
L 657.301017 111.855308 
L 659.241221 111.492854 
L 659.887955 112.488675 
L 660.53469 111.336086 
L 661.181424 111.805224 
L 661.828159 111.185416 
L 664.415096 110.562919 
L 665.061831 110.125127 
L 665.708565 109.890238 
L 666.3553 107.266834 
L 668.942238 109.482848 
L 670.235707 109.225424 
L 670.882441 108.29362 
L 672.822644 108.25827 
L 673.469379 109.240981 
L 674.116113 108.861977 
L 674.762848 107.438097 
L 675.409582 106.321474 
L 677.349786 106.049812 
L 677.99652 105.304286 
L 678.643254 105.08014 
L 679.936723 105.557469 
L 681.876927 104.715689 
L 682.523661 104.252875 
L 683.170396 105.523994 
L 683.81713 106.127455 
L 684.463865 104.753131 
L 686.404068 109.14217 
L 687.050802 109.162523 
L 687.697537 107.486961 
L 688.344271 106.371489 
L 690.931209 106.643406 
L 691.577943 106.441988 
L 692.224678 105.792644 
L 692.871412 105.926063 
L 693.518147 106.316352 
L 695.45835 106.08521 
L 696.105085 105.81767 
L 696.751819 106.236597 
L 697.398554 107.617407 
L 698.045288 106.678613 
L 700.632226 107.049141 
L 701.925695 105.694352 
L 702.572429 104.571377 
L 704.512633 104.264815 
L 705.159367 104.280345 
L 705.806101 104.649369 
L 707.09957 102.575719 
L 709.686508 102.389901 
L 710.333243 101.885766 
L 710.979977 102.591341 
L 711.626712 104.090891 
L 713.566915 104.149129 
L 714.213649 104.449743 
L 714.860384 104.530741 
L 716.153853 103.180445 
L 718.094056 102.731374 
L 718.74079 102.404913 
L 719.387525 101.817954 
L 720.034259 101.738983 
L 720.680994 99.06528 
L 722.621197 99.226592 
L 723.267932 98.285133 
L 723.914666 98.092777 
L 724.561401 97.681396 
L 725.208135 97.070195 
L 728.441807 96.528844 
L 729.088542 96.07872 
L 729.735276 95.781047 
L 731.67548 96.014978 
L 732.322214 96.339641 
L 732.968948 97.471776 
L 733.615683 97.036217 
L 734.262417 97.429044 
L 736.202621 97.485842 
L 736.849355 97.16498 
L 737.49609 97.579396 
L 738.142824 97.667478 
L 738.789559 99.147745 
L 740.729762 99.115783 
L 741.376496 99.685969 
L 742.023231 98.901467 
L 742.669965 99.847542 
L 743.3167 98.972568 
L 745.256903 98.651445 
L 745.903637 103.884398 
L 746.550372 104.374331 
L 747.197106 106.836897 
L 747.843841 107.288567 
L 749.784044 107.24207 
L 750.430779 106.75727 
L 751.077513 107.232961 
L 751.724248 107.477175 
L 752.370982 104.390709 
L 754.311185 103.808184 
L 754.95792 102.867657 
L 755.604654 104.316957 
L 756.251389 103.209233 
L 756.898123 100.573608 
L 758.838327 100.541679 
L 759.485061 100.658326 
L 760.131795 100.254824 
L 760.77853 98.106889 
L 761.425264 97.005238 
L 763.365468 96.874951 
L 764.012202 96.616734 
L 764.658937 97.298627 
L 765.305671 95.849608 
L 765.952406 94.759297 
L 767.892609 94.335492 
L 768.539343 95.605983 
L 769.186078 91.76574 
L 769.832812 95.764614 
L 770.479547 92.933979 
L 772.41975 92.865762 
L 773.066484 91.997242 
L 773.713219 93.146662 
L 774.359953 93.675812 
L 775.006688 94.483738 
L 776.946891 93.774861 
L 778.24036 93.83586 
L 778.887095 95.962863 
L 779.533829 95.053435 
L 781.474032 95.004767 
L 782.120767 94.449512 
L 782.767501 96.270187 
L 784.06097 98.911984 
L 786.001174 99.099706 
L 786.647908 96.519403 
L 787.294642 96.385101 
L 787.941377 96.035485 
L 788.588111 95.145282 
L 790.528315 94.920354 
L 791.821784 95.217367 
L 792.468518 94.059113 
L 793.115253 92.38663 
L 795.055456 92.029992 
L 795.70219 90.366113 
L 796.348925 92.844367 
L 796.995659 90.843397 
L 797.642394 85.539888 
L 800.229332 84.820993 
L 800.876066 84.200196 
L 802.169535 83.64447 
L 804.109738 83.493508 
L 804.756473 83.200242 
L 805.403207 87.922358 
L 806.696676 86.370501 
L 808.636879 86.725155 
L 809.283614 86.4813 
L 809.930348 85.218803 
L 810.577083 84.460561 
L 811.223817 84.874395 
L 813.164021 84.524108 
L 813.810755 84.673055 
L 814.457489 85.121998 
L 815.104224 83.909159 
L 815.750958 84.601355 
L 818.337896 84.480549 
L 818.984631 83.249261 
L 819.631365 83.924846 
L 820.2781 83.213314 
L 822.218303 83.03718 
L 822.865037 82.388239 
L 823.511772 82.4305 
L 824.158506 81.381806 
L 824.805241 81.107493 
L 826.745444 80.478485 
L 827.392179 80.793083 
L 828.038913 82.342858 
L 828.685647 91.648817 
L 829.332382 69.02933 
L 831.272585 68.800549 
L 831.91932 68.908687 
L 832.566054 67.354571 
L 833.212789 66.994282 
L 833.859523 62.67114 
L 836.446461 63.256875 
L 837.093195 62.559153 
L 837.73993 62.121174 
L 838.386664 61.123799 
L 840.326868 60.664948 
L 840.973602 60.055032 
L 842.267071 57.002971 
L 842.913805 54.965339 
L 844.854009 54.08252 
L 845.500743 53.613769 
L 846.147478 54.111978 
L 846.794212 52.539908 
L 847.440947 50.132364 
L 849.38115 49.46515 
L 850.027884 49.81259 
L 850.674619 50.452276 
L 851.321353 48.356861 
L 851.968088 48.682266 
L 853.908291 48.727773 
L 854.555026 47.81928 
L 855.20176 46.20088 
L 855.848494 45.361903 
L 856.495229 44.98532 
L 858.435432 43.418694 
L 859.082167 43.578931 
L 859.728901 43.364981 
L 860.375636 41.679474 
L 861.02237 44.022348 
L 862.962573 43.016749 
L 863.609308 42.155247 
L 863.609308 42.155247 
" clip-path="url(#p8fe027f887)" style="fill: none; stroke: #1f77b4; stroke-width: 2.8; stroke-linecap: square"/>
   </g>
   <g id="line2d_20">
    <path d="M 99.815919 383.315838 
L 100.462654 376.784322 
L 102.402857 376.949515 
L 103.049592 374.90743 
L 103.696326 371.198744 
L 104.989795 368.961473 
L 107.576733 369.509511 
L 108.223467 374.224266 
L 108.870202 376.363836 
L 109.516936 370.928418 
L 111.45714 367.362364 
L 112.103874 367.68515 
L 112.750608 367.572559 
L 113.397343 364.269303 
L 114.044077 363.571082 
L 115.984281 367.392382 
L 116.631015 362.970466 
L 117.27775 359.727245 
L 117.924484 355.237742 
L 118.571219 358.563583 
L 120.511422 360.455508 
L 121.158156 356.43147 
L 121.804891 359.839859 
L 122.451625 362.512554 
L 123.09836 361.799324 
L 125.038563 358.20318 
L 125.685298 358.345836 
L 126.332032 357.339862 
L 126.978766 361.619098 
L 127.625501 362.384907 
L 130.212439 368.518546 
L 130.859173 368.931456 
L 131.505908 367.339899 
L 132.152642 370.553078 
L 134.092845 369.539552 
L 135.386314 371.78428 
L 136.033049 369.479469 
L 136.679783 364.689718 
L 138.619987 364.479499 
L 139.266721 369.13417 
L 139.913455 368.646145 
L 140.56019 374.171687 
L 141.206924 378.413401 
L 143.147128 378.826359 
L 143.793862 374.04404 
L 144.440597 375.88341 
L 145.087331 370.755769 
L 145.734066 374.232965 
L 147.674269 371.406908 
L 148.321003 367.510684 
L 148.967738 372.635266 
L 149.614472 371.836452 
L 150.261207 369.892092 
L 152.20141 369.334471 
L 152.848145 370.005113 
L 153.494879 365.671864 
L 154.141613 363.900894 
L 154.788348 359.612791 
L 156.728551 358.437108 
L 157.375286 360.155379 
L 158.02202 360.961721 
L 158.668755 359.763501 
L 161.902427 359.364094 
L 162.549161 360.622637 
L 163.195896 356.537989 
L 163.84263 357.299209 
L 165.782834 356.183848 
L 166.429568 355.980345 
L 167.076302 356.033162 
L 167.723037 357.736305 
L 168.369771 357.495113 
L 170.309975 357.171061 
L 170.956709 362.107291 
L 171.603444 363.403523 
L 172.250178 357.336875 
L 172.896913 354.684184 
L 174.837116 355.000636 
L 175.48385 358.520039 
L 176.777319 362.823174 
L 177.424054 357.171061 
L 179.364257 357.088201 
L 180.010992 358.452212 
L 180.657726 357.005271 
L 181.951195 357.954818 
L 183.891398 356.884698 
L 184.538133 358.964687 
L 185.184867 355.211692 
L 185.831602 352.197212 
L 186.478336 352.656941 
L 188.418539 352.528793 
L 189.065274 356.07078 
L 189.712008 358.33164 
L 190.358743 355.648788 
L 191.005477 351.601854 
L 193.592415 351.481282 
L 194.239149 353.237171 
L 194.885884 350.245348 
L 195.532618 345.64825 
L 197.472822 346.26624 
L 198.119556 345.56539 
L 198.766291 346.680752 
L 199.413025 344.736416 
L 200.05976 344.156114 
L 201.999963 341.217037 
L 202.646697 339.061669 
L 203.293432 338.669815 
L 203.940166 334.585215 
L 204.586901 335.721321 
L 207.173839 337.445974 
L 207.820573 339.140322 
L 208.467307 337.952785 
L 209.114042 340.448958 
L 211.054245 341.787779 
L 211.70098 338.209895 
L 212.347714 338.043531 
L 212.994449 336.742519 
L 213.641183 332.831812 
L 215.581386 332.446027 
L 216.874855 332.945286 
L 217.52159 335.570038 
L 218.168324 336.40972 
L 220.108528 335.570038 
L 220.755262 333.452121 
L 222.048731 328.081542 
L 222.695465 328.293315 
L 224.635669 327.113282 
L 225.282403 324.579395 
L 225.929138 323.815379 
L 226.575872 326.09978 
L 227.222607 326.09978 
L 229.16281 324.571795 
L 229.809544 323.633815 
L 230.456279 323.58083 
L 231.103013 325.865255 
L 231.749748 322.514319 
L 233.689951 321.856249 
L 234.336686 322.847095 
L 234.98342 327.650373 
L 235.630154 328.626162 
L 236.276889 330.161675 
L 238.217092 327.211675 
L 238.863827 328.694227 
L 239.510561 330.963476 
L 240.157296 330.842425 
L 240.80403 331.039117 
L 242.744233 329.178334 
L 243.390968 333.12685 
L 244.684437 338.119149 
L 245.331171 337.960337 
L 247.271375 335.812091 
L 247.918109 336.712238 
L 248.564844 333.020928 
L 249.211578 337.665299 
L 249.858312 335.335561 
L 251.798516 333.2251 
L 252.44525 328.384085 
L 253.091985 326.984727 
L 253.738719 327.483985 
L 254.385454 326.848572 
L 256.972391 328.323595 
L 257.619126 330.607972 
L 258.26586 331.644298 
L 258.912595 331.137439 
L 260.852798 328.921128 
L 261.499533 330.78196 
L 262.146267 330.388623 
L 262.793001 327.476433 
L 263.439736 331.580797 
L 265.379939 331.383412 
L 266.026674 332.081777 
L 266.673408 335.171229 
L 267.320143 340.674568 
L 267.966877 341.410861 
L 269.90708 340.037028 
L 270.553815 344.857155 
L 271.200549 344.728099 
L 271.847284 342.85319 
L 272.494018 343.642659 
L 274.434222 343.771668 
L 275.080956 348.113664 
L 275.727691 345.78321 
L 276.374425 345.90469 
L 277.021159 342.078897 
L 278.961363 339.991404 
L 279.608097 338.283481 
L 280.254832 336.932304 
L 280.901566 338.951493 
L 281.548301 340.591088 
L 283.488504 337.144842 
L 284.135238 337.160042 
L 284.781973 341.570318 
L 285.428707 344.439657 
L 286.075442 348.417235 
L 288.015645 348.971366 
L 288.66238 346.565055 
L 289.309114 351.180364 
L 289.955848 354.975781 
L 290.602583 356.395238 
L 292.542786 352.668126 
L 293.189521 350.686889 
L 293.836255 347.301371 
L 294.48299 341.152796 
L 295.129724 338.1696 
L 297.069927 337.410531 
L 297.716662 336.469277 
L 298.363396 336.226387 
L 299.010131 338.81486 
L 299.656865 333.675867 
L 301.597069 333.994685 
L 302.243803 327.512091 
L 302.890538 326.790974 
L 304.184006 325.948353 
L 306.12421 323.3144 
L 306.770944 324.065869 
L 307.417679 322.737444 
L 308.711148 322.524907 
L 310.651351 323.147367 
L 311.298085 322.805749 
L 311.94482 323.04871 
L 312.591554 321.689933 
L 313.238289 319.640416 
L 315.178492 321.469796 
L 315.825227 321.5381 
L 316.471961 322.934805 
L 317.118695 320.30078 
L 317.76543 318.805418 
L 319.705633 317.446666 
L 320.352368 315.844927 
L 320.999102 310.986848 
L 321.645837 309.840632 
L 322.292571 310.430565 
L 324.232774 308.418427 
L 324.879509 306.23101 
L 325.526243 311.246037 
L 326.172978 307.862048 
L 326.819712 307.13804 
L 329.40665 305.613664 
L 330.053385 304.958223 
L 330.700119 304.821064 
L 331.346853 305.872805 
L 333.933791 307.900168 
L 334.580526 310.842089 
L 335.22726 311.992965 
L 335.873995 311.505178 
L 337.814198 306.41396 
L 338.460932 306.962714 
L 339.107667 304.920103 
L 339.754401 305.080206 
L 340.401136 304.828688 
L 342.988074 306.162442 
L 343.634808 308.174557 
L 344.281542 304.973471 
L 344.928277 300.446231 
L 346.86848 299.668807 
L 347.515215 298.59417 
L 348.161949 298.190198 
L 348.808684 296.178155 
L 349.455418 296.650671 
L 351.395621 293.708749 
L 352.042356 293.998291 
L 352.68909 300.103202 
L 353.335825 295.286397 
L 353.982559 291.361254 
L 355.922763 292.733152 
L 356.569497 291.643291 
L 357.216232 288.503125 
L 357.862966 288.335494 
L 358.5097 286.140429 
L 360.449904 286.308155 
L 361.096638 291.567052 
L 361.743373 288.144944 
L 362.390107 285.523084 
L 363.036842 287.428512 
L 365.623779 289.524442 
L 366.270514 289.181461 
L 366.917248 281.338824 
L 367.563983 281.072059 
L 369.504186 282.4897 
L 370.150921 281.773267 
L 370.797655 282.283878 
L 371.444389 280.896804 
L 372.091124 277.261299 
L 374.031327 277.680447 
L 374.678062 281.582741 
L 375.324796 279.623946 
L 375.971531 275.767443 
L 376.618265 278.122562 
L 378.558468 278.457894 
L 379.205203 274.265986 
L 379.851937 274.883332 
L 380.498672 275.660756 
L 381.145406 278.355724 
L 383.08561 276.039203 
L 383.732344 273.860294 
L 384.379079 270.213508 
L 385.025813 268.898443 
L 385.672547 269.655361 
L 387.612751 270.756311 
L 388.259485 271.490214 
L 388.90622 268.156916 
L 389.552954 268.23337 
L 392.139892 268.929106 
L 392.786626 271.467247 
L 393.433361 271.031513 
L 394.080095 275.878599 
L 394.72683 271.780735 
L 396.667033 271.559068 
L 397.313768 271.100343 
L 397.960502 275.075889 
L 398.607236 272.109519 
L 399.253971 277.575887 
L 401.194174 282.46886 
L 401.840909 283.172219 
L 402.487643 285.450549 
L 403.134378 286.237987 
L 403.781112 289.571332 
L 405.721315 286.085054 
L 406.36805 281.551409 
L 407.014784 281.734909 
L 407.661519 283.202834 
L 408.308253 279.556024 
L 410.248457 278.179848 
L 410.895191 284.357247 
L 411.541926 285.603434 
L 412.18866 282.025454 
L 412.835394 277.239479 
L 414.775598 273.202774 
L 415.422332 272.767016 
L 416.069067 272.728753 
L 416.715801 270.45047 
L 417.362536 269.938234 
L 419.302739 269.884748 
L 419.949473 268.057495 
L 420.596208 263.103363 
L 421.242942 263.93664 
L 421.889677 263.355645 
L 423.82988 262.889225 
L 424.476615 261.895392 
L 425.123349 263.065076 
L 425.770083 266.023727 
L 426.416818 263.363293 
L 429.003756 263.08042 
L 430.297225 268.58505 
L 430.943959 264.945864 
L 432.884162 264.617056 
L 433.530897 264.166074 
L 434.177631 259.364875 
L 434.824366 259.372379 
L 435.4711 259.869344 
L 437.411304 258.607933 
L 438.058038 257.6217 
L 438.704773 254.250116 
L 439.351507 253.416791 
L 439.998241 253.164414 
L 442.585179 248.799044 
L 444.525383 250.498865 
L 446.465586 251.856399 
L 447.11232 250.253323 
L 448.405789 249.072262 
L 449.052524 250.721273 
L 450.992727 249.862185 
L 451.639462 247.047361 
L 452.286196 245.168103 
L 453.579665 242.729121 
L 455.519868 242.238323 
L 456.166603 241.824146 
L 456.813337 237.605662 
L 457.460072 241.317909 
L 458.106806 238.625689 
L 460.047009 237.444485 
L 460.693744 234.890451 
L 461.340478 240.965058 
L 462.633947 247.062704 
L 464.574151 242.721425 
L 465.220885 243.388745 
L 465.86762 253.014564 
L 466.514354 255.17746 
L 467.161088 250.552448 
L 469.101292 250.307049 
L 469.748026 252.42401 
L 470.394761 245.66674 
L 471.041495 251.649239 
L 471.68823 259.403592 
L 473.628433 271.307431 
L 474.275167 267.648791 
L 474.921902 270.325644 
L 475.568636 261.129416 
L 476.215371 259.334571 
L 478.155574 259.119763 
L 478.802309 252.393323 
L 479.449043 251.081724 
L 480.095778 243.933316 
L 480.742512 242.982263 
L 482.682715 238.917214 
L 483.32945 239.615172 
L 483.976184 238.142491 
L 484.622919 241.517326 
L 485.269653 236.984373 
L 487.209856 238.012143 
L 487.856591 237.421541 
L 488.503325 239.921945 
L 489.15006 239.88361 
L 489.796794 235.795474 
L 492.383732 244.692648 
L 493.677201 246.587154 
L 494.323935 253.681836 
L 496.910873 247.216043 
L 498.204342 239.315999 
L 498.851077 237.076338 
L 501.438014 236.263376 
L 502.084749 237.544241 
L 502.731483 230.196417 
L 503.378218 230.953454 
L 505.318421 229.86106 
L 505.965156 228.607011 
L 506.61189 229.576323 
L 507.258625 227.837593 
L 507.905359 228.476233 
L 509.845562 226.714321 
L 510.492297 230.66886 
L 511.139031 230.484166 
L 511.785766 231.28427 
L 512.4325 227.314531 
L 514.372703 231.299661 
L 515.019438 227.168267 
L 515.666172 224.11397 
L 516.312907 224.891036 
L 516.959641 222.236768 
L 518.899845 218.590006 
L 519.546579 222.082808 
L 520.193314 220.144088 
L 520.840048 220.105706 
L 521.486782 218.38232 
L 524.07372 219.359423 
L 524.720455 223.460035 
L 525.367189 222.498323 
L 526.013924 222.652235 
L 527.954127 221.275056 
L 528.600861 220.55186 
L 529.247596 221.905904 
L 529.89433 230.653469 
L 530.541065 228.807001 
L 532.481268 229.753274 
L 533.128003 224.452482 
L 533.774737 213.419991 
L 534.421472 209.904054 
L 535.068206 207.91916 
L 537.008409 207.480654 
L 537.655144 208.911655 
L 538.301878 208.688578 
L 538.948613 211.642831 
L 539.595347 217.48982 
L 541.53555 215.643448 
L 542.182285 213.989322 
L 542.829019 213.835458 
L 543.475754 211.396667 
L 544.122488 209.981058 
L 546.062692 208.426927 
L 546.709426 206.026614 
L 547.356161 207.426785 
L 548.649629 204.564783 
L 551.236567 203.518563 
L 551.883302 200.633475 
L 552.530036 201.402797 
L 553.176771 200.518041 
L 555.116974 202.926097 
L 555.763708 204.372489 
L 556.410443 200.787291 
L 557.057177 203.195395 
L 557.703912 203.287695 
L 559.644115 201.302802 
L 560.29085 203.226226 
L 560.937584 217.082097 
L 561.584319 217.220665 
L 562.231053 211.804678 
L 564.171256 209.072068 
L 564.817991 203.969593 
L 566.11146 203.938619 
L 566.758194 208.824948 
L 569.345132 215.718396 
L 570.638601 216.830053 
L 571.285335 211.187165 
L 573.225539 208.554885 
L 573.872273 213.749946 
L 574.519008 213.086116 
L 575.812476 220.033577 
L 577.75268 219.338774 
L 578.399414 218.721309 
L 579.046149 210.54647 
L 579.692883 211.426446 
L 580.339618 206.841058 
L 582.926555 202.618655 
L 584.220024 197.44668 
L 584.866759 198.820753 
L 586.806962 205.459338 
L 587.453697 201.483863 
L 588.100431 203.575826 
L 588.747166 201.082545 
L 589.3939 203.568083 
L 591.334103 206.694507 
L 591.980838 203.598961 
L 593.274307 200.094352 
L 593.921041 204.378607 
L 595.861245 201.229191 
L 596.507979 200.874094 
L 597.154713 202.379278 
L 597.801448 197.462119 
L 598.448182 197.485302 
L 601.03512 196.103486 
L 601.681855 194.991829 
L 602.328589 196.96028 
L 602.975323 205.019302 
L 604.915527 207.126752 
L 605.562261 209.419422 
L 606.208996 209.187836 
L 606.85573 216.513577 
L 607.502465 209.465739 
L 609.442668 217.501579 
L 610.089402 222.835639 
L 610.736137 218.049688 
L 611.382871 226.039211 
L 612.029606 223.561321 
L 614.616544 239.000145 
L 615.263278 236.722866 
L 615.910013 242.473828 
L 616.556747 233.68138 
L 618.49695 230.331209 
L 619.143685 235.063196 
L 619.790419 230.346696 
L 620.437154 231.6126 
L 621.083888 231.46863 
L 623.024092 223.648553 
L 623.670826 222.580059 
L 624.31756 227.899206 
L 624.964295 229.068365 
L 625.611029 237.910475 
L 627.551233 235.022423 
L 628.197967 233.799109 
L 628.844702 231.050486 
L 630.13817 276.917649 
L 632.078374 277.61446 
L 632.725108 283.731107 
L 633.371843 243.361212 
L 634.018577 261.974403 
L 634.665312 254.727435 
L 636.605515 250.716684 
L 637.252249 251.885843 
L 637.898984 261.138259 
L 638.545718 260.557551 
L 641.132656 270.259012 
L 641.779391 259.907153 
L 642.426125 253.581506 
L 643.07286 244.855547 
L 643.719594 241.797188 
L 645.659797 241.634672 
L 646.306532 238.947948 
L 646.953266 238.777641 
L 647.600001 235.734769 
L 648.246735 229.316154 
L 650.186939 231.832427 
L 650.833673 235.479284 
L 651.480407 233.659679 
L 652.127142 230.63239 
L 652.773876 231.189819 
L 654.71408 216.749895 
L 655.360814 213.76897 
L 656.007549 213.18831 
L 656.654283 210.966191 
L 657.301017 208.070444 
L 659.241221 207.567218 
L 659.887955 209.115708 
L 660.53469 216.850559 
L 661.181424 216.672509 
L 661.828159 219.754098 
L 664.415096 210.431944 
L 665.061831 213.07995 
L 665.708565 211.283623 
L 666.3553 211.79464 
L 668.295503 209.224116 
L 668.942238 206.607131 
L 669.588972 206.730978 
L 670.235707 208.960888 
L 670.882441 204.245631 
L 672.822644 203.827535 
L 673.469379 201.195015 
L 674.116113 202.526738 
L 674.762848 200.676303 
L 675.409582 205.902481 
L 677.349786 201.504751 
L 677.99652 205.492128 
L 678.643254 205.561867 
L 679.936723 206.64819 
L 681.876927 202.089952 
L 682.523661 196.941399 
L 683.170396 196.677406 
L 683.81713 192.988724 
L 684.463865 190.628037 
L 686.404068 188.345022 
L 687.050802 188.500273 
L 687.697537 186.325953 
L 688.344271 182.528577 
L 690.931209 186.147377 
L 691.577943 186.411369 
L 692.224678 183.522648 
L 692.871412 182.155937 
L 693.518147 183.864314 
L 695.45835 182.94022 
L 696.105085 185.013589 
L 696.751819 183.398419 
L 697.398554 180.431977 
L 698.045288 180.789178 
L 699.985491 179.865084 
L 700.632226 179.795202 
L 701.27896 175.640673 
L 701.925695 175.477583 
L 702.572429 173.396471 
L 704.512633 173.520652 
L 705.159367 174.825273 
L 705.806101 175.446514 
L 706.452836 177.294703 
L 707.09957 185.339768 
L 709.039774 178.001408 
L 709.686508 180.486325 
L 710.333243 176.751087 
L 710.979977 177.162682 
L 711.626712 173.334284 
L 713.566915 174.312774 
L 714.213649 169.055526 
L 714.860384 167.347101 
L 715.507118 167.300497 
L 716.153853 168.473098 
L 718.094056 168.581792 
L 718.74079 171.291985 
L 719.387525 172.61214 
L 720.034259 174.600093 
L 720.680994 167.02097 
L 722.621197 169.226407 
L 723.267932 167.137456 
L 723.914666 165.995925 
L 724.561401 164.217618 
L 725.208135 167.222872 
L 727.795073 170.934784 
L 728.441807 168.240174 
L 729.088542 164.062272 
L 729.735276 165.522286 
L 731.67548 164.287452 
L 732.322214 163.12269 
L 732.968948 161.662771 
L 733.615683 157.453895 
L 734.262417 157.624776 
L 736.202621 154.906792 
L 737.49609 156.250225 
L 738.789559 151.311318 
L 740.729762 148.866218 
L 741.376496 151.692848 
L 742.023231 153.33598 
L 742.669965 155.711007 
L 743.3167 152.775252 
L 745.256903 151.3269 
L 746.550372 147.612455 
L 747.197106 147.012962 
L 747.843841 147.020658 
L 749.784044 145.15182 
L 750.430779 147.090779 
L 751.077513 143.98376 
L 751.724248 145.502233 
L 752.370982 159.62788 
L 754.311185 151.825298 
L 754.95792 152.456052 
L 755.604654 150.166632 
L 756.251389 153.694136 
L 756.898123 150.774011 
L 758.838327 145.393204 
L 759.485061 145.401043 
L 760.131795 148.118644 
L 760.77853 145.035 
L 761.425264 140.759922 
L 763.365468 134.538094 
L 764.012202 133.12086 
L 764.658937 132.863893 
L 765.305671 138.75089 
L 765.952406 137.01436 
L 767.892609 136.017611 
L 768.539343 142.325094 
L 769.186078 140.502956 
L 769.832812 146.164103 
L 770.479547 145.650218 
L 772.41975 137.497128 
L 773.066484 136.282416 
L 773.713219 135.986494 
L 774.359953 144.816989 
L 775.006688 144.902597 
L 776.946891 149.777311 
L 777.593626 154.130205 
L 778.24036 152.144499 
L 778.887095 160.009411 
L 779.533829 154.947851 
L 781.474032 147.394492 
L 782.120767 142.496453 
L 782.767501 138.867663 
L 784.06097 135.978703 
L 786.001174 138.408221 
L 786.647908 137.427054 
L 787.294642 135.589334 
L 787.941377 135.200012 
L 788.588111 134.187681 
L 791.175049 136.251299 
L 791.821784 132.723699 
L 792.468518 131.477824 
L 793.115253 137.248 
L 795.055456 138.050064 
L 795.70219 139.498416 
L 796.348925 145.31534 
L 796.995659 141.367349 
L 797.642394 136.593013 
L 799.582597 133.281559 
L 800.229332 130.837033 
L 800.876066 128.94702 
L 802.169535 129.001702 
L 804.756473 131.578966 
L 805.403207 135.554297 
L 806.696676 134.578054 
L 808.636879 131.0245 
L 809.283614 127.830201 
L 809.930348 129.571798 
L 810.577083 129.62648 
L 811.223817 126.065134 
L 813.164021 125.213837 
L 813.810755 126.299396 
L 814.457489 128.96265 
L 815.104224 127.494366 
L 815.750958 127.947356 
L 818.337896 138.943854 
L 818.984631 132.836409 
L 819.631365 130.040418 
L 820.2781 129.845207 
L 822.218303 127.111689 
L 822.865037 124.956106 
L 823.511772 125.010788 
L 824.158506 126.088556 
L 824.805241 127.705255 
L 826.745444 125.018579 
L 827.392179 129.61085 
L 828.038913 132.219422 
L 828.685647 138.912594 
L 829.332382 128.759601 
L 831.272585 126.15882 
L 831.91932 127.5881 
L 832.566054 127.712998 
L 833.212789 136.06192 
L 833.859523 135.687082 
L 836.446461 134.827994 
L 837.093195 132.141319 
L 837.73993 133.554969 
L 838.386664 129.688953 
L 840.326868 135.187202 
L 841.620336 126.783598 
L 842.913805 132.375629 
L 844.854009 132.071007 
L 845.500743 136.796062 
L 846.147478 133.047297 
L 846.794212 136.030708 
L 847.440947 143.00508 
L 849.38115 138.404922 
L 850.027884 139.256267 
L 850.674619 139.920097 
L 851.321353 147.941024 
L 851.968088 150.885383 
L 853.908291 145.621395 
L 854.555026 144.246893 
L 855.20176 151.557052 
L 855.848494 152.830077 
L 856.495229 160.217383 
L 858.435432 154.884231 
L 859.082167 156.607139 
L 859.728901 153.756514 
L 861.02237 171.557173 
L 862.962573 173.217464 
L 863.609308 158.831218 
L 863.609308 158.831218 
" clip-path="url(#p8fe027f887)" style="fill: none; stroke-dasharray: 8.14,3.52; stroke-dashoffset: 0; stroke: #ff7f0e; stroke-width: 2.2"/>
   </g>
   <g id="patch_3">
    <path d="M 61.62625 400.397656 
L 61.62625 24.597656 
" style="fill: none; stroke: #000000; stroke-width: 0.8; stroke-linejoin: miter; stroke-linecap: square"/>
   </g>
   <g id="patch_4">
    <path d="M 61.62625 400.397656 
L 901.798977 400.397656 
" style="fill: none; stroke: #000000; stroke-width: 0.8; stroke-linejoin: miter; stroke-linecap: square"/>
   </g>
   <g id="text_20">
    <!-- $21,978 -->
    <g style="fill: #1f77b4" transform="translate(871.609308 44.914622) scale(0.1 -0.1)">
     <defs>
      <path id="DejaVuSans-Bold-24" d="M 2484 -941 
L 1978 -941 
L 1975 0 
Q 1584 16 1218 87 
Q 853 159 506 288 
L 506 1106 
Q 866 922 1233 823 
Q 1600 725 1978 713 
L 1978 1684 
L 1875 1703 
Q 1128 1834 814 2115 
Q 500 2397 500 2925 
Q 500 3484 883 3798 
Q 1266 4113 1975 4141 
L 1978 4863 
L 2484 4863 
L 2484 4153 
Q 2797 4128 3109 4075 
Q 3422 4022 3738 3938 
L 3738 3144 
Q 3425 3275 3112 3348 
Q 2800 3422 2484 3438 
L 2484 2541 
L 2584 2522 
Q 3378 2397 3698 2105 
Q 4019 1813 4019 1241 
Q 4019 666 3637 358 
Q 3256 50 2484 6 
L 2484 -941 
z
M 1978 2613 
L 1978 3428 
Q 1756 3416 1623 3308 
Q 1491 3200 1491 3034 
Q 1491 2850 1612 2745 
Q 1734 2641 1978 2613 
z
M 2484 1594 
L 2484 725 
Q 2756 728 2892 831 
Q 3028 934 3028 1141 
Q 3028 1353 2903 1458 
Q 2778 1563 2484 1594 
z
" transform="scale(0.015625)"/>
      <path id="DejaVuSans-Bold-32" d="M 1844 884 
L 3897 884 
L 3897 0 
L 506 0 
L 506 884 
L 2209 2388 
Q 2438 2594 2547 2791 
Q 2656 2988 2656 3200 
Q 2656 3528 2436 3728 
Q 2216 3928 1850 3928 
Q 1569 3928 1234 3808 
Q 900 3688 519 3450 
L 519 4475 
Q 925 4609 1322 4679 
Q 1719 4750 2100 4750 
Q 2938 4750 3402 4381 
Q 3866 4013 3866 3353 
Q 3866 2972 3669 2642 
Q 3472 2313 2841 1759 
L 1844 884 
z
" transform="scale(0.015625)"/>
      <path id="DejaVuSans-Bold-31" d="M 750 831 
L 1813 831 
L 1813 3847 
L 722 3622 
L 722 4441 
L 1806 4666 
L 2950 4666 
L 2950 831 
L 4013 831 
L 4013 0 
L 750 0 
L 750 831 
z
" transform="scale(0.015625)"/>
      <path id="DejaVuSans-Bold-2c" d="M 653 1209 
L 1778 1209 
L 1778 256 
L 1006 -909 
L 341 -909 
L 653 256 
L 653 1209 
z
" transform="scale(0.015625)"/>
      <path id="DejaVuSans-Bold-39" d="M 641 103 
L 641 966 
Q 928 831 1190 764 
Q 1453 697 1709 697 
Q 2247 697 2547 995 
Q 2847 1294 2900 1881 
Q 2688 1725 2447 1647 
Q 2206 1569 1925 1569 
Q 1209 1569 770 1986 
Q 331 2403 331 3084 
Q 331 3838 820 4291 
Q 1309 4744 2131 4744 
Q 3044 4744 3544 4128 
Q 4044 3513 4044 2388 
Q 4044 1231 3459 570 
Q 2875 -91 1856 -91 
Q 1528 -91 1228 -42 
Q 928 6 641 103 
z
M 2125 2350 
Q 2441 2350 2600 2554 
Q 2759 2759 2759 3169 
Q 2759 3575 2600 3781 
Q 2441 3988 2125 3988 
Q 1809 3988 1650 3781 
Q 1491 3575 1491 3169 
Q 1491 2759 1650 2554 
Q 1809 2350 2125 2350 
z
" transform="scale(0.015625)"/>
      <path id="DejaVuSans-Bold-37" d="M 428 4666 
L 3944 4666 
L 3944 3988 
L 2125 0 
L 953 0 
L 2675 3781 
L 428 3781 
L 428 4666 
z
" transform="scale(0.015625)"/>
      <path id="DejaVuSans-Bold-38" d="M 2228 2088 
Q 1891 2088 1709 1903 
Q 1528 1719 1528 1375 
Q 1528 1031 1709 848 
Q 1891 666 2228 666 
Q 2563 666 2741 848 
Q 2919 1031 2919 1375 
Q 2919 1722 2741 1905 
Q 2563 2088 2228 2088 
z
M 1350 2484 
Q 925 2613 709 2878 
Q 494 3144 494 3541 
Q 494 4131 934 4440 
Q 1375 4750 2228 4750 
Q 3075 4750 3515 4442 
Q 3956 4134 3956 3541 
Q 3956 3144 3739 2878 
Q 3522 2613 3097 2484 
Q 3572 2353 3814 2058 
Q 4056 1763 4056 1313 
Q 4056 619 3595 264 
Q 3134 -91 2228 -91 
Q 1319 -91 855 264 
Q 391 619 391 1313 
Q 391 1763 633 2058 
Q 875 2353 1350 2484 
z
M 1631 3419 
Q 1631 3141 1786 2991 
Q 1941 2841 2228 2841 
Q 2509 2841 2662 2991 
Q 2816 3141 2816 3419 
Q 2816 3697 2662 3845 
Q 2509 3994 2228 3994 
Q 1941 3994 1786 3844 
Q 1631 3694 1631 3419 
z
" transform="scale(0.015625)"/>
     </defs>
     <use xlink:href="#DejaVuSans-Bold-24"/>
     <use xlink:href="#DejaVuSans-Bold-32" transform="translate(69.580078 0)"/>
     <use xlink:href="#DejaVuSans-Bold-31" transform="translate(139.160156 0)"/>
     <use xlink:href="#DejaVuSans-Bold-2c" transform="translate(208.740234 0)"/>
     <use xlink:href="#DejaVuSans-Bold-39" transform="translate(246.728516 0)"/>
     <use xlink:href="#DejaVuSans-Bold-37" transform="translate(316.308594 0)"/>
     <use xlink:href="#DejaVuSans-Bold-38" transform="translate(385.888672 0)"/>
    </g>
   </g>
   <g id="text_21">
    <!-- $17,882 -->
    <g style="fill: #ff7f0e" transform="translate(871.609308 169.590593) scale(0.1 -0.1)">
     <use xlink:href="#DejaVuSans-Bold-24"/>
     <use xlink:href="#DejaVuSans-Bold-31" transform="translate(69.580078 0)"/>
     <use xlink:href="#DejaVuSans-Bold-37" transform="translate(139.160156 0)"/>
     <use xlink:href="#DejaVuSans-Bold-2c" transform="translate(208.740234 0)"/>
     <use xlink:href="#DejaVuSans-Bold-38" transform="translate(246.728516 0)"/>
     <use xlink:href="#DejaVuSans-Bold-38" transform="translate(316.308594 0)"/>
     <use xlink:href="#DejaVuSans-Bold-32" transform="translate(385.888672 0)"/>
    </g>
   </g>
   <g id="text_22">
    <!-- Backtested Cumulative Performance (Normalized to $10,000) -->
    <g transform="translate(250.548551 18.597656) scale(0.15 -0.15)">
     <defs>
      <path id="DejaVuSans-42" d="M 1259 2228 
L 1259 519 
L 2272 519 
Q 2781 519 3026 730 
Q 3272 941 3272 1375 
Q 3272 1813 3026 2020 
Q 2781 2228 2272 2228 
L 1259 2228 
z
M 1259 4147 
L 1259 2741 
L 2194 2741 
Q 2656 2741 2882 2914 
Q 3109 3088 3109 3444 
Q 3109 3797 2882 3972 
Q 2656 4147 2194 4147 
L 1259 4147 
z
M 628 4666 
L 2241 4666 
Q 2963 4666 3353 4366 
Q 3744 4066 3744 3513 
Q 3744 3084 3544 2831 
Q 3344 2578 2956 2516 
Q 3422 2416 3680 2098 
Q 3938 1781 3938 1306 
Q 3938 681 3513 340 
Q 3088 0 2303 0 
L 628 0 
L 628 4666 
z
" transform="scale(0.015625)"/>
      <path id="DejaVuSans-61" d="M 2194 1759 
Q 1497 1759 1228 1600 
Q 959 1441 959 1056 
Q 959 750 1161 570 
Q 1363 391 1709 391 
Q 2188 391 2477 730 
Q 2766 1069 2766 1631 
L 2766 1759 
L 2194 1759 
z
M 3341 1997 
L 3341 0 
L 2766 0 
L 2766 531 
Q 2569 213 2275 61 
Q 1981 -91 1556 -91 
Q 1019 -91 701 211 
Q 384 513 384 1019 
Q 384 1609 779 1909 
Q 1175 2209 1959 2209 
L 2766 2209 
L 2766 2266 
Q 2766 2663 2505 2880 
Q 2244 3097 1772 3097 
Q 1472 3097 1187 3025 
Q 903 2953 641 2809 
L 641 3341 
Q 956 3463 1253 3523 
Q 1550 3584 1831 3584 
Q 2591 3584 2966 3190 
Q 3341 2797 3341 1997 
z
" transform="scale(0.015625)"/>
      <path id="DejaVuSans-63" d="M 3122 3366 
L 3122 2828 
Q 2878 2963 2633 3030 
Q 2388 3097 2138 3097 
Q 1578 3097 1268 2742 
Q 959 2388 959 1747 
Q 959 1106 1268 751 
Q 1578 397 2138 397 
Q 2388 397 2633 464 
Q 2878 531 3122 666 
L 3122 134 
Q 2881 22 2623 -34 
Q 2366 -91 2075 -91 
Q 1284 -91 818 406 
Q 353 903 353 1747 
Q 353 2603 823 3093 
Q 1294 3584 2113 3584 
Q 2378 3584 2631 3529 
Q 2884 3475 3122 3366 
z
" transform="scale(0.015625)"/>
      <path id="DejaVuSans-6b" d="M 581 4863 
L 1159 4863 
L 1159 1991 
L 2875 3500 
L 3609 3500 
L 1753 1863 
L 3688 0 
L 2938 0 
L 1159 1709 
L 1159 0 
L 581 0 
L 581 4863 
z
" transform="scale(0.015625)"/>
      <path id="DejaVuSans-65" d="M 3597 1894 
L 3597 1613 
L 953 1613 
Q 991 1019 1311 708 
Q 1631 397 2203 397 
Q 2534 397 2845 478 
Q 3156 559 3463 722 
L 3463 178 
Q 3153 47 2828 -22 
Q 2503 -91 2169 -91 
Q 1331 -91 842 396 
Q 353 884 353 1716 
Q 353 2575 817 3079 
Q 1281 3584 2069 3584 
Q 2775 3584 3186 3129 
Q 3597 2675 3597 1894 
z
M 3022 2063 
Q 3016 2534 2758 2815 
Q 2500 3097 2075 3097 
Q 1594 3097 1305 2825 
Q 1016 2553 972 2059 
L 3022 2063 
z
" transform="scale(0.015625)"/>
      <path id="DejaVuSans-73" d="M 2834 3397 
L 2834 2853 
Q 2591 2978 2328 3040 
Q 2066 3103 1784 3103 
Q 1356 3103 1142 2972 
Q 928 2841 928 2578 
Q 928 2378 1081 2264 
Q 1234 2150 1697 2047 
L 1894 2003 
Q 2506 1872 2764 1633 
Q 3022 1394 3022 966 
Q 3022 478 2636 193 
Q 2250 -91 1575 -91 
Q 1294 -91 989 -36 
Q 684 19 347 128 
L 347 722 
Q 666 556 975 473 
Q 1284 391 1588 391 
Q 1994 391 2212 530 
Q 2431 669 2431 922 
Q 2431 1156 2273 1281 
Q 2116 1406 1581 1522 
L 1381 1569 
Q 847 1681 609 1914 
Q 372 2147 372 2553 
Q 372 3047 722 3315 
Q 1072 3584 1716 3584 
Q 2034 3584 2315 3537 
Q 2597 3491 2834 3397 
z
" transform="scale(0.015625)"/>
      <path id="DejaVuSans-64" d="M 2906 2969 
L 2906 4863 
L 3481 4863 
L 3481 0 
L 2906 0 
L 2906 525 
Q 2725 213 2448 61 
Q 2172 -91 1784 -91 
Q 1150 -91 751 415 
Q 353 922 353 1747 
Q 353 2572 751 3078 
Q 1150 3584 1784 3584 
Q 2172 3584 2448 3432 
Q 2725 3281 2906 2969 
z
M 947 1747 
Q 947 1113 1208 752 
Q 1469 391 1925 391 
Q 2381 391 2643 752 
Q 2906 1113 2906 1747 
Q 2906 2381 2643 2742 
Q 2381 3103 1925 3103 
Q 1469 3103 1208 2742 
Q 947 2381 947 1747 
z
" transform="scale(0.015625)"/>
      <path id="DejaVuSans-43" d="M 4122 4306 
L 4122 3641 
Q 3803 3938 3442 4084 
Q 3081 4231 2675 4231 
Q 1875 4231 1450 3742 
Q 1025 3253 1025 2328 
Q 1025 1406 1450 917 
Q 1875 428 2675 428 
Q 3081 428 3442 575 
Q 3803 722 4122 1019 
L 4122 359 
Q 3791 134 3420 21 
Q 3050 -91 2638 -91 
Q 1578 -91 968 557 
Q 359 1206 359 2328 
Q 359 3453 968 4101 
Q 1578 4750 2638 4750 
Q 3056 4750 3426 4639 
Q 3797 4528 4122 4306 
z
" transform="scale(0.015625)"/>
      <path id="DejaVuSans-75" d="M 544 1381 
L 544 3500 
L 1119 3500 
L 1119 1403 
Q 1119 906 1312 657 
Q 1506 409 1894 409 
Q 2359 409 2629 706 
Q 2900 1003 2900 1516 
L 2900 3500 
L 3475 3500 
L 3475 0 
L 2900 0 
L 2900 538 
Q 2691 219 2414 64 
Q 2138 -91 1772 -91 
Q 1169 -91 856 284 
Q 544 659 544 1381 
z
M 1991 3584 
L 1991 3584 
z
" transform="scale(0.015625)"/>
      <path id="DejaVuSans-6d" d="M 3328 2828 
Q 3544 3216 3844 3400 
Q 4144 3584 4550 3584 
Q 5097 3584 5394 3201 
Q 5691 2819 5691 2113 
L 5691 0 
L 5113 0 
L 5113 2094 
Q 5113 2597 4934 2840 
Q 4756 3084 4391 3084 
Q 3944 3084 3684 2787 
Q 3425 2491 3425 1978 
L 3425 0 
L 2847 0 
L 2847 2094 
Q 2847 2600 2669 2842 
Q 2491 3084 2119 3084 
Q 1678 3084 1418 2786 
Q 1159 2488 1159 1978 
L 1159 0 
L 581 0 
L 581 3500 
L 1159 3500 
L 1159 2956 
Q 1356 3278 1631 3431 
Q 1906 3584 2284 3584 
Q 2666 3584 2933 3390 
Q 3200 3197 3328 2828 
z
" transform="scale(0.015625)"/>
      <path id="DejaVuSans-6c" d="M 603 4863 
L 1178 4863 
L 1178 0 
L 603 0 
L 603 4863 
z
" transform="scale(0.015625)"/>
      <path id="DejaVuSans-69" d="M 603 3500 
L 1178 3500 
L 1178 0 
L 603 0 
L 603 3500 
z
M 603 4863 
L 1178 4863 
L 1178 4134 
L 603 4134 
L 603 4863 
z
" transform="scale(0.015625)"/>
      <path id="DejaVuSans-76" d="M 191 3500 
L 800 3500 
L 1894 563 
L 2988 3500 
L 3597 3500 
L 2284 0 
L 1503 0 
L 191 3500 
z
" transform="scale(0.015625)"/>
      <path id="DejaVuSans-50" d="M 1259 4147 
L 1259 2394 
L 2053 2394 
Q 2494 2394 2734 2622 
Q 2975 2850 2975 3272 
Q 2975 3691 2734 3919 
Q 2494 4147 2053 4147 
L 1259 4147 
z
M 628 4666 
L 2053 4666 
Q 2838 4666 3239 4311 
Q 3641 3956 3641 3272 
Q 3641 2581 3239 2228 
Q 2838 1875 2053 1875 
L 1259 1875 
L 1259 0 
L 628 0 
L 628 4666 
z
" transform="scale(0.015625)"/>
      <path id="DejaVuSans-6e" d="M 3513 2113 
L 3513 0 
L 2938 0 
L 2938 2094 
Q 2938 2591 2744 2837 
Q 2550 3084 2163 3084 
Q 1697 3084 1428 2787 
Q 1159 2491 1159 1978 
L 1159 0 
L 581 0 
L 581 3500 
L 1159 3500 
L 1159 2956 
Q 1366 3272 1645 3428 
Q 1925 3584 2291 3584 
Q 2894 3584 3203 3211 
Q 3513 2838 3513 2113 
z
" transform="scale(0.015625)"/>
      <path id="DejaVuSans-28" d="M 1984 4856 
Q 1566 4138 1362 3434 
Q 1159 2731 1159 2009 
Q 1159 1288 1364 580 
Q 1569 -128 1984 -844 
L 1484 -844 
Q 1016 -109 783 600 
Q 550 1309 550 2009 
Q 550 2706 781 3412 
Q 1013 4119 1484 4856 
L 1984 4856 
z
" transform="scale(0.015625)"/>
      <path id="DejaVuSans-4e" d="M 628 4666 
L 1478 4666 
L 3547 763 
L 3547 4666 
L 4159 4666 
L 4159 0 
L 3309 0 
L 1241 3903 
L 1241 0 
L 628 0 
L 628 4666 
z
" transform="scale(0.015625)"/>
      <path id="DejaVuSans-7a" d="M 353 3500 
L 3084 3500 
L 3084 2975 
L 922 459 
L 3084 459 
L 3084 0 
L 275 0 
L 275 525 
L 2438 3041 
L 353 3041 
L 353 3500 
z
" transform="scale(0.015625)"/>
      <path id="DejaVuSans-29" d="M 513 4856 
L 1013 4856 
Q 1481 4119 1714 3412 
Q 1947 2706 1947 2009 
Q 1947 1309 1714 600 
Q 1481 -109 1013 -844 
L 513 -844 
Q 928 -128 1133 580 
Q 1338 1288 1338 2009 
Q 1338 2731 1133 3434 
Q 928 4138 513 4856 
z
" transform="scale(0.015625)"/>
     </defs>
     <use xlink:href="#DejaVuSans-42"/>
     <use xlink:href="#DejaVuSans-61" transform="translate(68.603516 0)"/>
     <use xlink:href="#DejaVuSans-63" transform="translate(129.882812 0)"/>
     <use xlink:href="#DejaVuSans-6b" transform="translate(184.863281 0)"/>
     <use xlink:href="#DejaVuSans-74" transform="translate(242.773438 0)"/>
     <use xlink:href="#DejaVuSans-65" transform="translate(281.982422 0)"/>
     <use xlink:href="#DejaVuSans-73" transform="translate(343.505859 0)"/>
     <use xlink:href="#DejaVuSans-74" transform="translate(395.605469 0)"/>
     <use xlink:href="#DejaVuSans-65" transform="translate(434.814453 0)"/>
     <use xlink:href="#DejaVuSans-64" transform="translate(496.337891 0)"/>
     <use xlink:href="#DejaVuSans-20" transform="translate(559.814453 0)"/>
     <use xlink:href="#DejaVuSans-43" transform="translate(591.601562 0)"/>
     <use xlink:href="#DejaVuSans-75" transform="translate(661.425781 0)"/>
     <use xlink:href="#DejaVuSans-6d" transform="translate(724.804688 0)"/>
     <use xlink:href="#DejaVuSans-75" transform="translate(822.216797 0)"/>
     <use xlink:href="#DejaVuSans-6c" transform="translate(885.595703 0)"/>
     <use xlink:href="#DejaVuSans-61" transform="translate(913.378906 0)"/>
     <use xlink:href="#DejaVuSans-74" transform="translate(974.658203 0)"/>
     <use xlink:href="#DejaVuSans-69" transform="translate(1013.867188 0)"/>
     <use xlink:href="#DejaVuSans-76" transform="translate(1041.650391 0)"/>
     <use xlink:href="#DejaVuSans-65" transform="translate(1100.830078 0)"/>
     <use xlink:href="#DejaVuSans-20" transform="translate(1162.353516 0)"/>
     <use xlink:href="#DejaVuSans-50" transform="translate(1194.140625 0)"/>
     <use xlink:href="#DejaVuSans-65" transform="translate(1250.818359 0)"/>
     <use xlink:href="#DejaVuSans-72" transform="translate(1312.341797 0)"/>
     <use xlink:href="#DejaVuSans-66" transform="translate(1353.455078 0)"/>
     <use xlink:href="#DejaVuSans-6f" transform="translate(1388.660156 0)"/>
     <use xlink:href="#DejaVuSans-72" transform="translate(1449.841797 0)"/>
     <use xlink:href="#DejaVuSans-6d" transform="translate(1489.205078 0)"/>
     <use xlink:href="#DejaVuSans-61" transform="translate(1586.617188 0)"/>
     <use xlink:href="#DejaVuSans-6e" transform="translate(1647.896484 0)"/>
     <use xlink:href="#DejaVuSans-63" transform="translate(1711.275391 0)"/>
     <use xlink:href="#DejaVuSans-65" transform="translate(1766.255859 0)"/>
     <use xlink:href="#DejaVuSans-20" transform="translate(1827.779297 0)"/>
     <use xlink:href="#DejaVuSans-28" transform="translate(1859.566406 0)"/>
     <use xlink:href="#DejaVuSans-4e" transform="translate(1898.580078 0)"/>
     <use xlink:href="#DejaVuSans-6f" transform="translate(1973.384766 0)"/>
     <use xlink:href="#DejaVuSans-72" transform="translate(2034.566406 0)"/>
     <use xlink:href="#DejaVuSans-6d" transform="translate(2073.929688 0)"/>
     <use xlink:href="#DejaVuSans-61" transform="translate(2171.341797 0)"/>
     <use xlink:href="#DejaVuSans-6c" transform="translate(2232.621094 0)"/>
     <use xlink:href="#DejaVuSans-69" transform="translate(2260.404297 0)"/>
     <use xlink:href="#DejaVuSans-7a" transform="translate(2288.1875 0)"/>
     <use xlink:href="#DejaVuSans-65" transform="translate(2340.677734 0)"/>
     <use xlink:href="#DejaVuSans-64" transform="translate(2402.201172 0)"/>
     <use xlink:href="#DejaVuSans-20" transform="translate(2465.677734 0)"/>
     <use xlink:href="#DejaVuSans-74" transform="translate(2497.464844 0)"/>
     <use xlink:href="#DejaVuSans-6f" transform="translate(2536.673828 0)"/>
     <use xlink:href="#DejaVuSans-20" transform="translate(2597.855469 0)"/>
     <use xlink:href="#DejaVuSans-24" transform="translate(2629.642578 0)"/>
     <use xlink:href="#DejaVuSans-31" transform="translate(2693.265625 0)"/>
     <use xlink:href="#DejaVuSans-30" transform="translate(2756.888672 0)"/>
     <use xlink:href="#DejaVuSans-2c" transform="translate(2820.511719 0)"/>
     <use xlink:href="#DejaVuSans-30" transform="translate(2852.298828 0)"/>
     <use xlink:href="#DejaVuSans-30" transform="translate(2915.921875 0)"/>
     <use xlink:href="#DejaVuSans-30" transform="translate(2979.544922 0)"/>
     <use xlink:href="#DejaVuSans-29" transform="translate(3043.167969 0)"/>
    </g>
   </g>
   <g id="legend_1">
    <g id="line2d_21">
     <path d="M 69.72625 36.38625 
L 78.72625 36.38625 
L 87.72625 36.38625 
" style="fill: none; stroke: #1f77b4; stroke-width: 2.8; stroke-linecap: square"/>
    </g>
    <g id="text_23">
     <!-- Diamond Creek ETF Arb Fund (Net) -->
     <g transform="translate(94.92625 39.53625) scale(0.09 -0.09)">
      <defs>
       <path id="DejaVuSans-44" d="M 1259 4147 
L 1259 519 
L 2022 519 
Q 2988 519 3436 956 
Q 3884 1394 3884 2338 
Q 3884 3275 3436 3711 
Q 2988 4147 2022 4147 
L 1259 4147 
z
M 628 4666 
L 1925 4666 
Q 3281 4666 3915 4102 
Q 4550 3538 4550 2338 
Q 4550 1131 3912 565 
Q 3275 0 1925 0 
L 628 0 
L 628 4666 
z
" transform="scale(0.015625)"/>
       <path id="DejaVuSans-45" d="M 628 4666 
L 3578 4666 
L 3578 4134 
L 1259 4134 
L 1259 2753 
L 3481 2753 
L 3481 2222 
L 1259 2222 
L 1259 531 
L 3634 531 
L 3634 0 
L 628 0 
L 628 4666 
z
" transform="scale(0.015625)"/>
       <path id="DejaVuSans-54" d="M -19 4666 
L 3928 4666 
L 3928 4134 
L 2272 4134 
L 2272 0 
L 1638 0 
L 1638 4134 
L -19 4134 
L -19 4666 
z
" transform="scale(0.015625)"/>
       <path id="DejaVuSans-46" d="M 628 4666 
L 3309 4666 
L 3309 4134 
L 1259 4134 
L 1259 2759 
L 3109 2759 
L 3109 2228 
L 1259 2228 
L 1259 0 
L 628 0 
L 628 4666 
z
" transform="scale(0.015625)"/>
       <path id="DejaVuSans-41" d="M 2188 4044 
L 1331 1722 
L 3047 1722 
L 2188 4044 
z
M 1831 4666 
L 2547 4666 
L 4325 0 
L 3669 0 
L 3244 1197 
L 1141 1197 
L 716 0 
L 50 0 
L 1831 4666 
z
" transform="scale(0.015625)"/>
       <path id="DejaVuSans-62" d="M 3116 1747 
Q 3116 2381 2855 2742 
Q 2594 3103 2138 3103 
Q 1681 3103 1420 2742 
Q 1159 2381 1159 1747 
Q 1159 1113 1420 752 
Q 1681 391 2138 391 
Q 2594 391 2855 752 
Q 3116 1113 3116 1747 
z
M 1159 2969 
Q 1341 3281 1617 3432 
Q 1894 3584 2278 3584 
Q 2916 3584 3314 3078 
Q 3713 2572 3713 1747 
Q 3713 922 3314 415 
Q 2916 -91 2278 -91 
Q 1894 -91 1617 61 
Q 1341 213 1159 525 
L 1159 0 
L 581 0 
L 581 4863 
L 1159 4863 
L 1159 2969 
z
" transform="scale(0.015625)"/>
      </defs>
      <use xlink:href="#DejaVuSans-44"/>
      <use xlink:href="#DejaVuSans-69" transform="translate(77.001953 0)"/>
      <use xlink:href="#DejaVuSans-61" transform="translate(104.785156 0)"/>
      <use xlink:href="#DejaVuSans-6d" transform="translate(166.064453 0)"/>
      <use xlink:href="#DejaVuSans-6f" transform="translate(263.476562 0)"/>
      <use xlink:href="#DejaVuSans-6e" transform="translate(324.658203 0)"/>
      <use xlink:href="#DejaVuSans-64" transform="translate(388.037109 0)"/>
      <use xlink:href="#DejaVuSans-20" transform="translate(451.513672 0)"/>
      <use xlink:href="#DejaVuSans-43" transform="translate(483.300781 0)"/>
      <use xlink:href="#DejaVuSans-72" transform="translate(553.125 0)"/>
      <use xlink:href="#DejaVuSans-65" transform="translate(591.988281 0)"/>
      <use xlink:href="#DejaVuSans-65" transform="translate(653.511719 0)"/>
      <use xlink:href="#DejaVuSans-6b" transform="translate(715.035156 0)"/>
      <use xlink:href="#DejaVuSans-20" transform="translate(772.945312 0)"/>
      <use xlink:href="#DejaVuSans-45" transform="translate(804.732422 0)"/>
      <use xlink:href="#DejaVuSans-54" transform="translate(867.916016 0)"/>
      <use xlink:href="#DejaVuSans-46" transform="translate(929 0)"/>
      <use xlink:href="#DejaVuSans-20" transform="translate(986.519531 0)"/>
      <use xlink:href="#DejaVuSans-41" transform="translate(1018.306641 0)"/>
      <use xlink:href="#DejaVuSans-72" transform="translate(1086.714844 0)"/>
      <use xlink:href="#DejaVuSans-62" transform="translate(1127.828125 0)"/>
      <use xlink:href="#DejaVuSans-20" transform="translate(1191.304688 0)"/>
      <use xlink:href="#DejaVuSans-46" transform="translate(1223.091797 0)"/>
      <use xlink:href="#DejaVuSans-75" transform="translate(1275.111328 0)"/>
      <use xlink:href="#DejaVuSans-6e" transform="translate(1338.490234 0)"/>
      <use xlink:href="#DejaVuSans-64" transform="translate(1401.869141 0)"/>
      <use xlink:href="#DejaVuSans-20" transform="translate(1465.345703 0)"/>
      <use xlink:href="#DejaVuSans-28" transform="translate(1497.132812 0)"/>
      <use xlink:href="#DejaVuSans-4e" transform="translate(1536.146484 0)"/>
      <use xlink:href="#DejaVuSans-65" transform="translate(1610.951172 0)"/>
      <use xlink:href="#DejaVuSans-74" transform="translate(1672.474609 0)"/>
      <use xlink:href="#DejaVuSans-29" transform="translate(1711.683594 0)"/>
     </g>
    </g>
    <g id="line2d_22">
     <path d="M 69.72625 49.596562 
L 78.72625 49.596562 
L 87.72625 49.596562 
" style="fill: none; stroke-dasharray: 8.14,3.52; stroke-dashoffset: 0; stroke: #ff7f0e; stroke-width: 2.2"/>
    </g>
    <g id="text_24">
     <!-- SPY (Total Return) -->
     <g transform="translate(94.92625 52.746562) scale(0.09 -0.09)">
      <defs>
       <path id="DejaVuSans-53" d="M 3425 4513 
L 3425 3897 
Q 3066 4069 2747 4153 
Q 2428 4238 2131 4238 
Q 1616 4238 1336 4038 
Q 1056 3838 1056 3469 
Q 1056 3159 1242 3001 
Q 1428 2844 1947 2747 
L 2328 2669 
Q 3034 2534 3370 2195 
Q 3706 1856 3706 1288 
Q 3706 609 3251 259 
Q 2797 -91 1919 -91 
Q 1588 -91 1214 -16 
Q 841 59 441 206 
L 441 856 
Q 825 641 1194 531 
Q 1563 422 1919 422 
Q 2459 422 2753 634 
Q 3047 847 3047 1241 
Q 3047 1584 2836 1778 
Q 2625 1972 2144 2069 
L 1759 2144 
Q 1053 2284 737 2584 
Q 422 2884 422 3419 
Q 422 4038 858 4394 
Q 1294 4750 2059 4750 
Q 2388 4750 2728 4690 
Q 3069 4631 3425 4513 
z
" transform="scale(0.015625)"/>
       <path id="DejaVuSans-59" d="M -13 4666 
L 666 4666 
L 1959 2747 
L 3244 4666 
L 3922 4666 
L 2272 2222 
L 2272 0 
L 1638 0 
L 1638 2222 
L -13 4666 
z
" transform="scale(0.015625)"/>
       <path id="DejaVuSans-52" d="M 2841 2188 
Q 3044 2119 3236 1894 
Q 3428 1669 3622 1275 
L 4263 0 
L 3584 0 
L 2988 1197 
Q 2756 1666 2539 1819 
Q 2322 1972 1947 1972 
L 1259 1972 
L 1259 0 
L 628 0 
L 628 4666 
L 2053 4666 
Q 2853 4666 3247 4331 
Q 3641 3997 3641 3322 
Q 3641 2881 3436 2590 
Q 3231 2300 2841 2188 
z
M 1259 4147 
L 1259 2491 
L 2053 2491 
Q 2509 2491 2742 2702 
Q 2975 2913 2975 3322 
Q 2975 3731 2742 3939 
Q 2509 4147 2053 4147 
L 1259 4147 
z
" transform="scale(0.015625)"/>
      </defs>
      <use xlink:href="#DejaVuSans-53"/>
      <use xlink:href="#DejaVuSans-50" transform="translate(63.476562 0)"/>
      <use xlink:href="#DejaVuSans-59" transform="translate(121.529297 0)"/>
      <use xlink:href="#DejaVuSans-20" transform="translate(182.613281 0)"/>
      <use xlink:href="#DejaVuSans-28" transform="translate(214.400391 0)"/>
      <use xlink:href="#DejaVuSans-54" transform="translate(253.414062 0)"/>
      <use xlink:href="#DejaVuSans-6f" transform="translate(297.498047 0)"/>
      <use xlink:href="#DejaVuSans-74" transform="translate(358.679688 0)"/>
      <use xlink:href="#DejaVuSans-61" transform="translate(397.888672 0)"/>
      <use xlink:href="#DejaVuSans-6c" transform="translate(459.167969 0)"/>
      <use xlink:href="#DejaVuSans-20" transform="translate(486.951172 0)"/>
      <use xlink:href="#DejaVuSans-52" transform="translate(518.738281 0)"/>
      <use xlink:href="#DejaVuSans-65" transform="translate(583.720703 0)"/>
      <use xlink:href="#DejaVuSans-74" transform="translate(645.244141 0)"/>
      <use xlink:href="#DejaVuSans-75" transform="translate(684.453125 0)"/>
      <use xlink:href="#DejaVuSans-72" transform="translate(747.832031 0)"/>
      <use xlink:href="#DejaVuSans-6e" transform="translate(787.195312 0)"/>
      <use xlink:href="#DejaVuSans-29" transform="translate(850.574219 0)"/>
     </g>
    </g>
   </g>
  </g>
 </g>
 <defs>
  <clipPath id="p8fe027f887">
   <rect x="61.62625" y="24.597656" width="840.172727" height="375.8"/>
  </clipPath>
 </defs>
</svg>
