<?xml version="1.0" encoding="utf-8" standalone="no"?>
<!DOCTYPE svg PUBLIC "-//W3C//DTD SVG 1.1//EN"
  "http://www.w3.org/Graphics/SVG/1.1/DTD/svg11.dtd">
<svg xmlns:xlink="http://www.w3.org/1999/xlink" width="924.35462pt" height="424.275781pt" viewBox="0 0 924.35462 424.275781" xmlns="http://www.w3.org/2000/svg" version="1.1">
 <metadata>
  <rdf:RDF xmlns:dc="http://purl.org/dc/elements/1.1/" xmlns:cc="http://creativecommons.org/ns#" xmlns:rdf="http://www.w3.org/1999/02/22-rdf-syntax-ns#">
   <cc:Work>
    <dc:type rdf:resource="http://purl.org/dc/dcmitype/StillImage"/>
    <dc:date>2026-05-10T11:05:02.353290</dc:date>
    <dc:format>image/svg+xml</dc:format>
    <dc:creator>
     <cc:Agent>
      <dc:title>Matplotlib v3.10.8, https://matplotlib.org/</dc:title>
     </cc:Agent>
    </dc:creator>
   </cc:Work>
  </rdf:RDF>
 </metadata>
 <defs>
  <style type="text/css">*{stroke-linejoin: round; stroke-linecap: butt}</style>
 </defs>
 <g id="figure_1">
  <g id="patch_1">
   <path d="M 0 424.275781 
L 924.35462 424.275781 
L 924.35462 0 
L 0 0 
z
" style="fill: #ffffff"/>
  </g>
  <g id="axes_1">
   <g id="patch_2">
    <path d="M 61.62625 400.397656 
L 901.798977 400.397656 
L 901.798977 24.597656 
L 61.62625 24.597656 
z
" style="fill: #ffffff"/>
   </g>
   <g id="matplotlib.axis_1">
    <g id="xtick_1">
     <g id="line2d_1">
      <defs>
       <path id="m4cb2d59f0b" d="M 0 0 
L 0 3.5 
" style="stroke: #000000; stroke-width: 0.8"/>
      </defs>
      <g>
       <use xlink:href="#m4cb2d59f0b" x="98.524637" y="400.397656" style="stroke: #000000; stroke-width: 0.8"/>
      </g>
     </g>
     <g id="text_1">
      <!-- 2023-01 -->
      <g transform="translate(77.633231 414.996094) scale(0.1 -0.1)">
       <defs>
        <path id="DejaVuSans-32" d="M 1228 531 
L 3431 531 
L 3431 0 
L 469 0 
L 469 531 
Q 828 903 1448 1529 
Q 2069 2156 2228 2338 
Q 2531 2678 2651 2914 
Q 2772 3150 2772 3378 
Q 2772 3750 2511 3984 
Q 2250 4219 1831 4219 
Q 1534 4219 1204 4116 
Q 875 4013 500 3803 
L 500 4441 
Q 881 4594 1212 4672 
Q 1544 4750 1819 4750 
Q 2544 4750 2975 4387 
Q 3406 4025 3406 3419 
Q 3406 3131 3298 2873 
Q 3191 2616 2906 2266 
Q 2828 2175 2409 1742 
Q 1991 1309 1228 531 
z
" transform="scale(0.015625)"/>
        <path id="DejaVuSans-30" d="M 2034 4250 
Q 1547 4250 1301 3770 
Q 1056 3291 1056 2328 
Q 1056 1369 1301 889 
Q 1547 409 2034 409 
Q 2525 409 2770 889 
Q 3016 1369 3016 2328 
Q 3016 3291 2770 3770 
Q 2525 4250 2034 4250 
z
M 2034 4750 
Q 2819 4750 3233 4129 
Q 3647 3509 3647 2328 
Q 3647 1150 3233 529 
Q 2819 -91 2034 -91 
Q 1250 -91 836 529 
Q 422 1150 422 2328 
Q 422 3509 836 4129 
Q 1250 4750 2034 4750 
z
" transform="scale(0.015625)"/>
        <path id="DejaVuSans-33" d="M 2597 2516 
Q 3050 2419 3304 2112 
Q 3559 1806 3559 1356 
Q 3559 666 3084 287 
Q 2609 -91 1734 -91 
Q 1441 -91 1130 -33 
Q 819 25 488 141 
L 488 750 
Q 750 597 1062 519 
Q 1375 441 1716 441 
Q 2309 441 2620 675 
Q 2931 909 2931 1356 
Q 2931 1769 2642 2001 
Q 2353 2234 1838 2234 
L 1294 2234 
L 1294 2753 
L 1863 2753 
Q 2328 2753 2575 2939 
Q 2822 3125 2822 3475 
Q 2822 3834 2567 4026 
Q 2313 4219 1838 4219 
Q 1578 4219 1281 4162 
Q 984 4106 628 3988 
L 628 4550 
Q 988 4650 1302 4700 
Q 1616 4750 1894 4750 
Q 2613 4750 3031 4423 
Q 3450 4097 3450 3541 
Q 3450 3153 3228 2886 
Q 3006 2619 2597 2516 
z
" transform="scale(0.015625)"/>
        <path id="DejaVuSans-2d" d="M 313 2009 
L 1997 2009 
L 1997 1497 
L 313 1497 
L 313 2009 
z
" transform="scale(0.015625)"/>
        <path id="DejaVuSans-31" d="M 794 531 
L 1825 531 
L 1825 4091 
L 703 3866 
L 703 4441 
L 1819 4666 
L 2450 4666 
L 2450 531 
L 3481 531 
L 3481 0 
L 794 0 
L 794 531 
z
" transform="scale(0.015625)"/>
       </defs>
       <use xlink:href="#DejaVuSans-32"/>
       <use xlink:href="#DejaVuSans-30" transform="translate(63.623047 0)"/>
       <use xlink:href="#DejaVuSans-32" transform="translate(127.246094 0)"/>
       <use xlink:href="#DejaVuSans-33" transform="translate(190.869141 0)"/>
       <use xlink:href="#DejaVuSans-2d" transform="translate(254.492188 0)"/>
       <use xlink:href="#DejaVuSans-30" transform="translate(290.576172 0)"/>
       <use xlink:href="#DejaVuSans-31" transform="translate(354.199219 0)"/>
      </g>
     </g>
    </g>
    <g id="xtick_2">
     <g id="line2d_2">
      <g>
       <use xlink:href="#m4cb2d59f0b" x="176.001566" y="400.397656" style="stroke: #000000; stroke-width: 0.8"/>
      </g>
     </g>
     <g id="text_2">
      <!-- 2023-05 -->
      <g transform="translate(155.11016 414.996094) scale(0.1 -0.1)">
       <defs>
        <path id="DejaVuSans-35" d="M 691 4666 
L 3169 4666 
L 3169 4134 
L 1269 4134 
L 1269 2991 
Q 1406 3038 1543 3061 
Q 1681 3084 1819 3084 
Q 2600 3084 3056 2656 
Q 3513 2228 3513 1497 
Q 3513 744 3044 326 
Q 2575 -91 1722 -91 
Q 1428 -91 1123 -41 
Q 819 9 494 109 
L 494 744 
Q 775 591 1075 516 
Q 1375 441 1709 441 
Q 2250 441 2565 725 
Q 2881 1009 2881 1497 
Q 2881 1984 2565 2268 
Q 2250 2553 1709 2553 
Q 1456 2553 1204 2497 
Q 953 2441 691 2322 
L 691 4666 
z
" transform="scale(0.015625)"/>
       </defs>
       <use xlink:href="#DejaVuSans-32"/>
       <use xlink:href="#DejaVuSans-30" transform="translate(63.623047 0)"/>
       <use xlink:href="#DejaVuSans-32" transform="translate(127.246094 0)"/>
       <use xlink:href="#DejaVuSans-33" transform="translate(190.869141 0)"/>
       <use xlink:href="#DejaVuSans-2d" transform="translate(254.492188 0)"/>
       <use xlink:href="#DejaVuSans-30" transform="translate(290.576172 0)"/>
       <use xlink:href="#DejaVuSans-35" transform="translate(354.199219 0)"/>
      </g>
     </g>
    </g>
    <g id="xtick_3">
     <g id="line2d_3">
      <g>
       <use xlink:href="#m4cb2d59f0b" x="255.415418" y="400.397656" style="stroke: #000000; stroke-width: 0.8"/>
      </g>
     </g>
     <g id="text_3">
      <!-- 2023-09 -->
      <g transform="translate(234.524012 414.996094) scale(0.1 -0.1)">
       <defs>
        <path id="DejaVuSans-39" d="M 703 97 
L 703 672 
Q 941 559 1184 500 
Q 1428 441 1663 441 
Q 2288 441 2617 861 
Q 2947 1281 2994 2138 
Q 2813 1869 2534 1725 
Q 2256 1581 1919 1581 
Q 1219 1581 811 2004 
Q 403 2428 403 3163 
Q 403 3881 828 4315 
Q 1253 4750 1959 4750 
Q 2769 4750 3195 4129 
Q 3622 3509 3622 2328 
Q 3622 1225 3098 567 
Q 2575 -91 1691 -91 
Q 1453 -91 1209 -44 
Q 966 3 703 97 
z
M 1959 2075 
Q 2384 2075 2632 2365 
Q 2881 2656 2881 3163 
Q 2881 3666 2632 3958 
Q 2384 4250 1959 4250 
Q 1534 4250 1286 3958 
Q 1038 3666 1038 3163 
Q 1038 2656 1286 2365 
Q 1534 2075 1959 2075 
z
" transform="scale(0.015625)"/>
       </defs>
       <use xlink:href="#DejaVuSans-32"/>
       <use xlink:href="#DejaVuSans-30" transform="translate(63.623047 0)"/>
       <use xlink:href="#DejaVuSans-32" transform="translate(127.246094 0)"/>
       <use xlink:href="#DejaVuSans-33" transform="translate(190.869141 0)"/>
       <use xlink:href="#DejaVuSans-2d" transform="translate(254.492188 0)"/>
       <use xlink:href="#DejaVuSans-30" transform="translate(290.576172 0)"/>
       <use xlink:href="#DejaVuSans-39" transform="translate(354.199219 0)"/>
      </g>
     </g>
    </g>
    <g id="xtick_4">
     <g id="line2d_4">
      <g>
       <use xlink:href="#m4cb2d59f0b" x="334.183629" y="400.397656" style="stroke: #000000; stroke-width: 0.8"/>
      </g>
     </g>
     <g id="text_4">
      <!-- 2024-01 -->
      <g transform="translate(313.292222 414.996094) scale(0.1 -0.1)">
       <defs>
        <path id="DejaVuSans-34" d="M 2419 4116 
L 825 1625 
L 2419 1625 
L 2419 4116 
z
M 2253 4666 
L 3047 4666 
L 3047 1625 
L 3713 1625 
L 3713 1100 
L 3047 1100 
L 3047 0 
L 2419 0 
L 2419 1100 
L 313 1100 
L 313 1709 
L 2253 4666 
z
" transform="scale(0.015625)"/>
       </defs>
       <use xlink:href="#DejaVuSans-32"/>
       <use xlink:href="#DejaVuSans-30" transform="translate(63.623047 0)"/>
       <use xlink:href="#DejaVuSans-32" transform="translate(127.246094 0)"/>
       <use xlink:href="#DejaVuSans-34" transform="translate(190.869141 0)"/>
       <use xlink:href="#DejaVuSans-2d" transform="translate(254.492188 0)"/>
       <use xlink:href="#DejaVuSans-30" transform="translate(290.576172 0)"/>
       <use xlink:href="#DejaVuSans-31" transform="translate(354.199219 0)"/>
      </g>
     </g>
    </g>
    <g id="xtick_5">
     <g id="line2d_5">
      <g>
       <use xlink:href="#m4cb2d59f0b" x="412.306198" y="400.397656" style="stroke: #000000; stroke-width: 0.8"/>
      </g>
     </g>
     <g id="text_5">
      <!-- 2024-05 -->
      <g transform="translate(391.414792 414.996094) scale(0.1 -0.1)">
       <use xlink:href="#DejaVuSans-32"/>
       <use xlink:href="#DejaVuSans-30" transform="translate(63.623047 0)"/>
       <use xlink:href="#DejaVuSans-32" transform="translate(127.246094 0)"/>
       <use xlink:href="#DejaVuSans-34" transform="translate(190.869141 0)"/>
       <use xlink:href="#DejaVuSans-2d" transform="translate(254.492188 0)"/>
       <use xlink:href="#DejaVuSans-30" transform="translate(290.576172 0)"/>
       <use xlink:href="#DejaVuSans-35" transform="translate(354.199219 0)"/>
      </g>
     </g>
    </g>
    <g id="xtick_6">
     <g id="line2d_6">
      <g>
       <use xlink:href="#m4cb2d59f0b" x="491.72005" y="400.397656" style="stroke: #000000; stroke-width: 0.8"/>
      </g>
     </g>
     <g id="text_6">
      <!-- 2024-09 -->
      <g transform="translate(470.828644 414.996094) scale(0.1 -0.1)">
       <use xlink:href="#DejaVuSans-32"/>
       <use xlink:href="#DejaVuSans-30" transform="translate(63.623047 0)"/>
       <use xlink:href="#DejaVuSans-32" transform="translate(127.246094 0)"/>
       <use xlink:href="#DejaVuSans-34" transform="translate(190.869141 0)"/>
       <use xlink:href="#DejaVuSans-2d" transform="translate(254.492188 0)"/>
       <use xlink:href="#DejaVuSans-30" transform="translate(290.576172 0)"/>
       <use xlink:href="#DejaVuSans-39" transform="translate(354.199219 0)"/>
      </g>
     </g>
    </g>
    <g id="xtick_7">
     <g id="line2d_7">
      <g>
       <use xlink:href="#m4cb2d59f0b" x="570.488261" y="400.397656" style="stroke: #000000; stroke-width: 0.8"/>
      </g>
     </g>
     <g id="text_7">
      <!-- 2025-01 -->
      <g transform="translate(549.596855 414.996094) scale(0.1 -0.1)">
       <use xlink:href="#DejaVuSans-32"/>
       <use xlink:href="#DejaVuSans-30" transform="translate(63.623047 0)"/>
       <use xlink:href="#DejaVuSans-32" transform="translate(127.246094 0)"/>
       <use xlink:href="#DejaVuSans-35" transform="translate(190.869141 0)"/>
       <use xlink:href="#DejaVuSans-2d" transform="translate(254.492188 0)"/>
       <use xlink:href="#DejaVuSans-30" transform="translate(290.576172 0)"/>
       <use xlink:href="#DejaVuSans-31" transform="translate(354.199219 0)"/>
      </g>
     </g>
    </g>
    <g id="xtick_8">
     <g id="line2d_8">
      <g>
       <use xlink:href="#m4cb2d59f0b" x="647.96519" y="400.397656" style="stroke: #000000; stroke-width: 0.8"/>
      </g>
     </g>
     <g id="text_8">
      <!-- 2025-05 -->
      <g transform="translate(627.073783 414.996094) scale(0.1 -0.1)">
       <use xlink:href="#DejaVuSans-32"/>
       <use xlink:href="#DejaVuSans-30" transform="translate(63.623047 0)"/>
       <use xlink:href="#DejaVuSans-32" transform="translate(127.246094 0)"/>
       <use xlink:href="#DejaVuSans-35" transform="translate(190.869141 0)"/>
       <use xlink:href="#DejaVuSans-2d" transform="translate(254.492188 0)"/>
       <use xlink:href="#DejaVuSans-30" transform="translate(290.576172 0)"/>
       <use xlink:href="#DejaVuSans-35" transform="translate(354.199219 0)"/>
      </g>
     </g>
    </g>
    <g id="xtick_9">
     <g id="line2d_9">
      <g>
       <use xlink:href="#m4cb2d59f0b" x="727.379042" y="400.397656" style="stroke: #000000; stroke-width: 0.8"/>
      </g>
     </g>
     <g id="text_9">
      <!-- 2025-09 -->
      <g transform="translate(706.487635 414.996094) scale(0.1 -0.1)">
       <use xlink:href="#DejaVuSans-32"/>
       <use xlink:href="#DejaVuSans-30" transform="translate(63.623047 0)"/>
       <use xlink:href="#DejaVuSans-32" transform="translate(127.246094 0)"/>
       <use xlink:href="#DejaVuSans-35" transform="translate(190.869141 0)"/>
       <use xlink:href="#DejaVuSans-2d" transform="translate(254.492188 0)"/>
       <use xlink:href="#DejaVuSans-30" transform="translate(290.576172 0)"/>
       <use xlink:href="#DejaVuSans-39" transform="translate(354.199219 0)"/>
      </g>
     </g>
    </g>
    <g id="xtick_10">
     <g id="line2d_10">
      <g>
       <use xlink:href="#m4cb2d59f0b" x="806.147252" y="400.397656" style="stroke: #000000; stroke-width: 0.8"/>
      </g>
     </g>
     <g id="text_10">
      <!-- 2026-01 -->
      <g transform="translate(785.255846 414.996094) scale(0.1 -0.1)">
       <defs>
        <path id="DejaVuSans-36" d="M 2113 2584 
Q 1688 2584 1439 2293 
Q 1191 2003 1191 1497 
Q 1191 994 1439 701 
Q 1688 409 2113 409 
Q 2538 409 2786 701 
Q 3034 994 3034 1497 
Q 3034 2003 2786 2293 
Q 2538 2584 2113 2584 
z
M 3366 4563 
L 3366 3988 
Q 3128 4100 2886 4159 
Q 2644 4219 2406 4219 
Q 1781 4219 1451 3797 
Q 1122 3375 1075 2522 
Q 1259 2794 1537 2939 
Q 1816 3084 2150 3084 
Q 2853 3084 3261 2657 
Q 3669 2231 3669 1497 
Q 3669 778 3244 343 
Q 2819 -91 2113 -91 
Q 1303 -91 875 529 
Q 447 1150 447 2328 
Q 447 3434 972 4092 
Q 1497 4750 2381 4750 
Q 2619 4750 2861 4703 
Q 3103 4656 3366 4563 
z
" transform="scale(0.015625)"/>
       </defs>
       <use xlink:href="#DejaVuSans-32"/>
       <use xlink:href="#DejaVuSans-30" transform="translate(63.623047 0)"/>
       <use xlink:href="#DejaVuSans-32" transform="translate(127.246094 0)"/>
       <use xlink:href="#DejaVuSans-36" transform="translate(190.869141 0)"/>
       <use xlink:href="#DejaVuSans-2d" transform="translate(254.492188 0)"/>
       <use xlink:href="#DejaVuSans-30" transform="translate(290.576172 0)"/>
       <use xlink:href="#DejaVuSans-31" transform="translate(354.199219 0)"/>
      </g>
     </g>
    </g>
    <g id="xtick_11">
     <g id="line2d_11">
      <g>
       <use xlink:href="#m4cb2d59f0b" x="883.624181" y="400.397656" style="stroke: #000000; stroke-width: 0.8"/>
      </g>
     </g>
     <g id="text_11">
      <!-- 2026-05 -->
      <g transform="translate(862.732775 414.996094) scale(0.1 -0.1)">
       <use xlink:href="#DejaVuSans-32"/>
       <use xlink:href="#DejaVuSans-30" transform="translate(63.623047 0)"/>
       <use xlink:href="#DejaVuSans-32" transform="translate(127.246094 0)"/>
       <use xlink:href="#DejaVuSans-36" transform="translate(190.869141 0)"/>
       <use xlink:href="#DejaVuSans-2d" transform="translate(254.492188 0)"/>
       <use xlink:href="#DejaVuSans-30" transform="translate(290.576172 0)"/>
       <use xlink:href="#DejaVuSans-35" transform="translate(354.199219 0)"/>
      </g>
     </g>
    </g>
   </g>
   <g id="matplotlib.axis_2">
    <g id="ytick_1">
     <g id="line2d_12">
      <defs>
       <path id="m73924733a3" d="M 0 0 
L -3.5 0 
" style="stroke: #000000; stroke-width: 0.8"/>
      </defs>
      <g>
       <use xlink:href="#m73924733a3" x="61.62625" y="382.241577" style="stroke: #000000; stroke-width: 0.8"/>
      </g>
     </g>
     <g id="text_12">
      <!-- 10000 -->
      <g transform="translate(22.81375 386.040795) scale(0.1 -0.1)">
       <use xlink:href="#DejaVuSans-31"/>
       <use xlink:href="#DejaVuSans-30" transform="translate(63.623047 0)"/>
       <use xlink:href="#DejaVuSans-30" transform="translate(127.246094 0)"/>
       <use xlink:href="#DejaVuSans-30" transform="translate(190.869141 0)"/>
       <use xlink:href="#DejaVuSans-30" transform="translate(254.492188 0)"/>
      </g>
     </g>
    </g>
    <g id="ytick_2">
     <g id="line2d_13">
      <g>
       <use xlink:href="#m73924733a3" x="61.62625" y="325.418773" style="stroke: #000000; stroke-width: 0.8"/>
      </g>
     </g>
     <g id="text_13">
      <!-- 12000 -->
      <g transform="translate(22.81375 329.217991) scale(0.1 -0.1)">
       <use xlink:href="#DejaVuSans-31"/>
       <use xlink:href="#DejaVuSans-32" transform="translate(63.623047 0)"/>
       <use xlink:href="#DejaVuSans-30" transform="translate(127.246094 0)"/>
       <use xlink:href="#DejaVuSans-30" transform="translate(190.869141 0)"/>
       <use xlink:href="#DejaVuSans-30" transform="translate(254.492188 0)"/>
      </g>
     </g>
    </g>
    <g id="ytick_3">
     <g id="line2d_14">
      <g>
       <use xlink:href="#m73924733a3" x="61.62625" y="268.595968" style="stroke: #000000; stroke-width: 0.8"/>
      </g>
     </g>
     <g id="text_14">
      <!-- 14000 -->
      <g transform="translate(22.81375 272.395187) scale(0.1 -0.1)">
       <use xlink:href="#DejaVuSans-31"/>
       <use xlink:href="#DejaVuSans-34" transform="translate(63.623047 0)"/>
       <use xlink:href="#DejaVuSans-30" transform="translate(127.246094 0)"/>
       <use xlink:href="#DejaVuSans-30" transform="translate(190.869141 0)"/>
       <use xlink:href="#DejaVuSans-30" transform="translate(254.492188 0)"/>
      </g>
     </g>
    </g>
    <g id="ytick_4">
     <g id="line2d_15">
      <g>
       <use xlink:href="#m73924733a3" x="61.62625" y="211.773164" style="stroke: #000000; stroke-width: 0.8"/>
      </g>
     </g>
     <g id="text_15">
      <!-- 16000 -->
      <g transform="translate(22.81375 215.572383) scale(0.1 -0.1)">
       <use xlink:href="#DejaVuSans-31"/>
       <use xlink:href="#DejaVuSans-36" transform="translate(63.623047 0)"/>
       <use xlink:href="#DejaVuSans-30" transform="translate(127.246094 0)"/>
       <use xlink:href="#DejaVuSans-30" transform="translate(190.869141 0)"/>
       <use xlink:href="#DejaVuSans-30" transform="translate(254.492188 0)"/>
      </g>
     </g>
    </g>
    <g id="ytick_5">
     <g id="line2d_16">
      <g>
       <use xlink:href="#m73924733a3" x="61.62625" y="154.95036" style="stroke: #000000; stroke-width: 0.8"/>
      </g>
     </g>
     <g id="text_16">
      <!-- 18000 -->
      <g transform="translate(22.81375 158.749579) scale(0.1 -0.1)">
       <defs>
        <path id="DejaVuSans-38" d="M 2034 2216 
Q 1584 2216 1326 1975 
Q 1069 1734 1069 1313 
Q 1069 891 1326 650 
Q 1584 409 2034 409 
Q 2484 409 2743 651 
Q 3003 894 3003 1313 
Q 3003 1734 2745 1975 
Q 2488 2216 2034 2216 
z
M 1403 2484 
Q 997 2584 770 2862 
Q 544 3141 544 3541 
Q 544 4100 942 4425 
Q 1341 4750 2034 4750 
Q 2731 4750 3128 4425 
Q 3525 4100 3525 3541 
Q 3525 3141 3298 2862 
Q 3072 2584 2669 2484 
Q 3125 2378 3379 2068 
Q 3634 1759 3634 1313 
Q 3634 634 3220 271 
Q 2806 -91 2034 -91 
Q 1263 -91 848 271 
Q 434 634 434 1313 
Q 434 1759 690 2068 
Q 947 2378 1403 2484 
z
M 1172 3481 
Q 1172 3119 1398 2916 
Q 1625 2713 2034 2713 
Q 2441 2713 2670 2916 
Q 2900 3119 2900 3481 
Q 2900 3844 2670 4047 
Q 2441 4250 2034 4250 
Q 1625 4250 1398 4047 
Q 1172 3844 1172 3481 
z
" transform="scale(0.015625)"/>
       </defs>
       <use xlink:href="#DejaVuSans-31"/>
       <use xlink:href="#DejaVuSans-38" transform="translate(63.623047 0)"/>
       <use xlink:href="#DejaVuSans-30" transform="translate(127.246094 0)"/>
       <use xlink:href="#DejaVuSans-30" transform="translate(190.869141 0)"/>
       <use xlink:href="#DejaVuSans-30" transform="translate(254.492188 0)"/>
      </g>
     </g>
    </g>
    <g id="ytick_6">
     <g id="line2d_17">
      <g>
       <use xlink:href="#m73924733a3" x="61.62625" y="98.127556" style="stroke: #000000; stroke-width: 0.8"/>
      </g>
     </g>
     <g id="text_17">
      <!-- 20000 -->
      <g transform="translate(22.81375 101.926775) scale(0.1 -0.1)">
       <use xlink:href="#DejaVuSans-32"/>
       <use xlink:href="#DejaVuSans-30" transform="translate(63.623047 0)"/>
       <use xlink:href="#DejaVuSans-30" transform="translate(127.246094 0)"/>
       <use xlink:href="#DejaVuSans-30" transform="translate(190.869141 0)"/>
       <use xlink:href="#DejaVuSans-30" transform="translate(254.492188 0)"/>
      </g>
     </g>
    </g>
    <g id="ytick_7">
     <g id="line2d_18">
      <g>
       <use xlink:href="#m73924733a3" x="61.62625" y="41.304752" style="stroke: #000000; stroke-width: 0.8"/>
      </g>
     </g>
     <g id="text_18">
      <!-- 22000 -->
      <g transform="translate(22.81375 45.103971) scale(0.1 -0.1)">
       <use xlink:href="#DejaVuSans-32"/>
       <use xlink:href="#DejaVuSans-32" transform="translate(63.623047 0)"/>
       <use xlink:href="#DejaVuSans-30" transform="translate(127.246094 0)"/>
       <use xlink:href="#DejaVuSans-30" transform="translate(190.869141 0)"/>
       <use xlink:href="#DejaVuSans-30" transform="translate(254.492188 0)"/>
      </g>
     </g>
    </g>
    <g id="text_19">
     <!-- Growth of $10,000 -->
     <g transform="translate(16.318125 268.620156) rotate(-90) scale(0.12 -0.12)">
      <defs>
       <path id="DejaVuSans-47" d="M 3809 666 
L 3809 1919 
L 2778 1919 
L 2778 2438 
L 4434 2438 
L 4434 434 
Q 4069 175 3628 42 
Q 3188 -91 2688 -91 
Q 1594 -91 976 548 
Q 359 1188 359 2328 
Q 359 3472 976 4111 
Q 1594 4750 2688 4750 
Q 3144 4750 3555 4637 
Q 3966 4525 4313 4306 
L 4313 3634 
Q 3963 3931 3569 4081 
Q 3175 4231 2741 4231 
Q 1884 4231 1454 3753 
Q 1025 3275 1025 2328 
Q 1025 1384 1454 906 
Q 1884 428 2741 428 
Q 3075 428 3337 486 
Q 3600 544 3809 666 
z
" transform="scale(0.015625)"/>
       <path id="DejaVuSans-72" d="M 2631 2963 
Q 2534 3019 2420 3045 
Q 2306 3072 2169 3072 
Q 1681 3072 1420 2755 
Q 1159 2438 1159 1844 
L 1159 0 
L 581 0 
L 581 3500 
L 1159 3500 
L 1159 2956 
Q 1341 3275 1631 3429 
Q 1922 3584 2338 3584 
Q 2397 3584 2469 3576 
Q 2541 3569 2628 3553 
L 2631 2963 
z
" transform="scale(0.015625)"/>
       <path id="DejaVuSans-6f" d="M 1959 3097 
Q 1497 3097 1228 2736 
Q 959 2375 959 1747 
Q 959 1119 1226 758 
Q 1494 397 1959 397 
Q 2419 397 2687 759 
Q 2956 1122 2956 1747 
Q 2956 2369 2687 2733 
Q 2419 3097 1959 3097 
z
M 1959 3584 
Q 2709 3584 3137 3096 
Q 3566 2609 3566 1747 
Q 3566 888 3137 398 
Q 2709 -91 1959 -91 
Q 1206 -91 779 398 
Q 353 888 353 1747 
Q 353 2609 779 3096 
Q 1206 3584 1959 3584 
z
" transform="scale(0.015625)"/>
       <path id="DejaVuSans-77" d="M 269 3500 
L 844 3500 
L 1563 769 
L 2278 3500 
L 2956 3500 
L 3675 769 
L 4391 3500 
L 4966 3500 
L 4050 0 
L 3372 0 
L 2619 2869 
L 1863 0 
L 1184 0 
L 269 3500 
z
" transform="scale(0.015625)"/>
       <path id="DejaVuSans-74" d="M 1172 4494 
L 1172 3500 
L 2356 3500 
L 2356 3053 
L 1172 3053 
L 1172 1153 
Q 1172 725 1289 603 
Q 1406 481 1766 481 
L 2356 481 
L 2356 0 
L 1766 0 
Q 1100 0 847 248 
Q 594 497 594 1153 
L 594 3053 
L 172 3053 
L 172 3500 
L 594 3500 
L 594 4494 
L 1172 4494 
z
" transform="scale(0.015625)"/>
       <path id="DejaVuSans-68" d="M 3513 2113 
L 3513 0 
L 2938 0 
L 2938 2094 
Q 2938 2591 2744 2837 
Q 2550 3084 2163 3084 
Q 1697 3084 1428 2787 
Q 1159 2491 1159 1978 
L 1159 0 
L 581 0 
L 581 4863 
L 1159 4863 
L 1159 2956 
Q 1366 3272 1645 3428 
Q 1925 3584 2291 3584 
Q 2894 3584 3203 3211 
Q 3513 2838 3513 2113 
z
" transform="scale(0.015625)"/>
       <path id="DejaVuSans-20" transform="scale(0.015625)"/>
       <path id="DejaVuSans-66" d="M 2375 4863 
L 2375 4384 
L 1825 4384 
Q 1516 4384 1395 4259 
Q 1275 4134 1275 3809 
L 1275 3500 
L 2222 3500 
L 2222 3053 
L 1275 3053 
L 1275 0 
L 697 0 
L 697 3053 
L 147 3053 
L 147 3500 
L 697 3500 
L 697 3744 
Q 697 4328 969 4595 
Q 1241 4863 1831 4863 
L 2375 4863 
z
" transform="scale(0.015625)"/>
       <path id="DejaVuSans-24" d="M 2163 -941 
L 1850 -941 
L 1847 0 
Q 1519 6 1191 76 
Q 863 147 531 288 
L 531 850 
Q 850 650 1176 548 
Q 1503 447 1850 444 
L 1850 1869 
Q 1159 1981 845 2250 
Q 531 2519 531 2988 
Q 531 3497 872 3790 
Q 1213 4084 1850 4128 
L 1850 4863 
L 2163 4863 
L 2163 4138 
Q 2453 4125 2725 4076 
Q 2997 4028 3256 3944 
L 3256 3397 
Q 2997 3528 2723 3600 
Q 2450 3672 2163 3684 
L 2163 2350 
Q 2872 2241 3206 1959 
Q 3541 1678 3541 1191 
Q 3541 663 3186 358 
Q 2831 53 2163 6 
L 2163 -941 
z
M 1850 2406 
L 1850 3688 
Q 1488 3647 1297 3481 
Q 1106 3316 1106 3041 
Q 1106 2772 1282 2622 
Q 1459 2472 1850 2406 
z
M 2163 1806 
L 2163 453 
Q 2559 506 2761 678 
Q 2963 850 2963 1131 
Q 2963 1406 2770 1568 
Q 2578 1731 2163 1806 
z
" transform="scale(0.015625)"/>
       <path id="DejaVuSans-2c" d="M 750 794 
L 1409 794 
L 1409 256 
L 897 -744 
L 494 -744 
L 750 256 
L 750 794 
z
" transform="scale(0.015625)"/>
      </defs>
      <use xlink:href="#DejaVuSans-47"/>
      <use xlink:href="#DejaVuSans-72" transform="translate(77.490234 0)"/>
      <use xlink:href="#DejaVuSans-6f" transform="translate(116.353516 0)"/>
      <use xlink:href="#DejaVuSans-77" transform="translate(177.535156 0)"/>
      <use xlink:href="#DejaVuSans-74" transform="translate(259.322266 0)"/>
      <use xlink:href="#DejaVuSans-68" transform="translate(298.53125 0)"/>
      <use xlink:href="#DejaVuSans-20" transform="translate(361.910156 0)"/>
      <use xlink:href="#DejaVuSans-6f" transform="translate(393.697266 0)"/>
      <use xlink:href="#DejaVuSans-66" transform="translate(454.878906 0)"/>
      <use xlink:href="#DejaVuSans-20" transform="translate(490.083984 0)"/>
      <use xlink:href="#DejaVuSans-24" transform="translate(521.871094 0)"/>
      <use xlink:href="#DejaVuSans-31" transform="translate(585.494141 0)"/>
      <use xlink:href="#DejaVuSans-30" transform="translate(649.117188 0)"/>
      <use xlink:href="#DejaVuSans-2c" transform="translate(712.740234 0)"/>
      <use xlink:href="#DejaVuSans-30" transform="translate(744.527344 0)"/>
      <use xlink:href="#DejaVuSans-30" transform="translate(808.150391 0)"/>
      <use xlink:href="#DejaVuSans-30" transform="translate(871.773438 0)"/>
     </g>
    </g>
   </g>
   <g id="line2d_19">
    <path d="M 99.815919 382.241577 
L 100.46156 378.904651 
L 101.107202 382.491928 
L 101.752843 382.702264 
L 103.689766 378.432377 
L 104.335407 373.880488 
L 104.981048 373.012094 
L 105.626689 371.623956 
L 106.27233 370.582494 
L 108.854894 366.691478 
L 109.500536 368.931849 
L 110.146177 369.261963 
L 110.791818 364.048394 
L 112.728741 362.835882 
L 113.374382 364.43174 
L 114.020023 365.50407 
L 114.665664 364.058812 
L 115.311305 356.155651 
L 117.248228 360.687044 
L 117.893869 357.63431 
L 118.539511 352.620267 
L 119.185152 338.99985 
L 119.830793 341.528073 
L 121.767716 340.729005 
L 122.413357 341.973199 
L 123.058998 343.885913 
L 123.704639 349.919085 
L 124.35028 352.751113 
L 126.287203 353.523166 
L 126.932844 350.572338 
L 127.578486 343.513616 
L 128.224127 346.224629 
L 128.869768 346.133288 
L 131.452332 348.457897 
L 132.097973 348.592487 
L 132.743614 346.637268 
L 133.389255 350.545283 
L 135.326178 350.486565 
L 135.971819 346.78176 
L 136.617461 349.431308 
L 137.263102 350.133562 
L 137.908743 349.269789 
L 139.845666 349.878648 
L 140.491307 349.739087 
L 141.136948 349.229994 
L 141.782589 353.177737 
L 142.42823 356.102024 
L 144.365153 352.730092 
L 145.656436 348.65673 
L 146.302077 346.482126 
L 146.947718 345.872779 
L 148.884641 346.180505 
L 149.530282 339.817485 
L 150.175923 343.273337 
L 150.821564 348.584565 
L 151.467205 347.097562 
L 153.404128 349.859911 
L 154.049769 349.462426 
L 154.695411 348.521802 
L 155.341052 349.16105 
L 155.986693 353.128289 
L 157.923616 357.387569 
L 158.569257 358.251457 
L 159.214898 359.917279 
L 159.860539 358.401542 
L 162.443103 356.002059 
L 163.088744 355.201829 
L 163.734386 356.586988 
L 164.380027 355.86163 
L 165.025668 354.639251 
L 167.608232 355.168076 
L 168.253873 356.412181 
L 168.899514 359.575611 
L 169.545155 360.050532 
L 171.482078 362.496848 
L 172.12772 361.926219 
L 172.773361 362.539501 
L 173.419002 360.030326 
L 174.064643 360.360027 
L 176.001566 361.998109 
L 176.647207 362.125562 
L 177.292848 364.02048 
L 177.938489 364.305838 
L 178.58413 358.558031 
L 180.521053 358.327342 
L 181.166695 357.357252 
L 181.812336 355.060475 
L 182.457977 354.677022 
L 183.103618 355.971708 
L 185.040541 354.332295 
L 185.686182 354.786605 
L 186.331823 352.617667 
L 186.977464 352.483587 
L 187.623105 353.532952 
L 189.560028 350.723574 
L 190.20567 351.792901 
L 190.851311 351.415801 
L 191.496952 350.683712 
L 192.142593 350.536275 
L 194.725157 347.741622 
L 195.370798 347.885894 
L 196.66208 345.094309 
L 198.599003 347.567816 
L 199.244645 352.633127 
L 199.890286 352.089853 
L 200.535927 350.27888 
L 201.181568 351.071082 
L 203.118491 351.665501 
L 203.764132 350.282348 
L 204.409773 349.395591 
L 205.055414 348.184308 
L 205.701055 347.273145 
L 208.929261 344.853166 
L 209.574902 343.956036 
L 210.220543 342.198248 
L 212.157466 343.918693 
L 212.803107 339.004124 
L 213.448748 338.093259 
L 214.094389 337.844959 
L 214.74003 340.490797 
L 216.676953 338.377678 
L 217.968236 338.000044 
L 219.259518 335.615023 
L 221.196441 335.820957 
L 221.842082 332.160619 
L 222.487723 335.067843 
L 223.133364 325.399438 
L 223.779005 325.541085 
L 225.715929 325.428252 
L 226.36157 325.514771 
L 227.007211 323.44549 
L 227.652852 326.285279 
L 228.298493 326.907878 
L 230.235416 327.040862 
L 230.881057 327.584659 
L 231.526698 327.05891 
L 232.172339 328.677021 
L 232.81798 326.81984 
L 234.754904 326.533271 
L 235.400545 327.009518 
L 236.046186 328.459894 
L 236.691827 327.129835 
L 237.337468 329.501983 
L 239.274391 329.667361 
L 239.920032 328.727093 
L 240.565673 330.279623 
L 241.211314 330.028335 
L 241.856955 331.391316 
L 243.793879 331.184417 
L 244.43952 331.761486 
L 245.085161 332.639585 
L 245.730802 333.823404 
L 246.376443 335.954737 
L 248.313366 333.185277 
L 248.959007 333.933484 
L 249.604648 333.748973 
L 250.250289 335.488155 
L 250.89593 334.393833 
L 252.832854 335.066763 
L 253.478495 329.370276 
L 254.124136 329.70951 
L 254.769777 330.979605 
L 255.415418 331.441283 
L 257.997982 330.071765 
L 258.643623 329.907342 
L 259.289264 328.049628 
L 259.934905 327.571428 
L 261.871829 326.988117 
L 262.51747 327.451545 
L 263.163111 327.576946 
L 263.808752 325.600975 
L 264.454393 327.289728 
L 266.391316 327.947046 
L 267.036957 328.992613 
L 268.97388 333.057838 
L 270.910804 331.715219 
L 271.556445 332.27314 
L 272.202086 331.873511 
L 272.847727 329.721789 
L 273.493368 331.543975 
L 275.430291 331.518163 
L 276.075932 332.904912 
L 276.721573 331.118018 
L 277.367214 330.114922 
L 278.012855 327.9281 
L 279.949779 328.132619 
L 280.59542 328.007458 
L 281.241061 329.140915 
L 281.886702 329.057487 
L 282.532343 331.523022 
L 285.114907 330.309016 
L 285.760548 332.450731 
L 286.406189 334.164879 
L 287.05183 334.040426 
L 288.988754 331.771479 
L 289.634395 329.773154 
L 291.571318 335.364269 
L 293.508241 333.907055 
L 294.153882 331.417671 
L 294.799523 330.137991 
L 295.445164 327.31463 
L 296.090805 328.097118 
L 298.027729 327.238467 
L 298.67337 325.12569 
L 299.319011 325.25103 
L 299.964652 323.935626 
L 300.610293 323.53761 
L 302.547216 322.861614 
L 303.192857 323.288789 
L 303.838498 321.673063 
L 304.484139 322.285445 
L 305.12978 322.00724 
L 307.066704 319.024322 
L 307.712345 318.871938 
L 308.357986 317.386892 
L 309.649268 316.985931 
L 311.586191 315.759058 
L 312.231832 313.511195 
L 312.877473 314.703569 
L 313.523114 316.25051 
L 314.168755 315.213125 
L 316.105679 312.704286 
L 316.75132 312.144125 
L 317.396961 314.018071 
L 318.042602 312.610121 
L 318.688243 308.935623 
L 320.625166 312.968201 
L 321.270807 311.358644 
L 321.916448 308.592878 
L 322.562089 309.208951 
L 323.20773 310.402691 
L 325.144654 307.548789 
L 325.790295 306.835532 
L 327.727218 303.081588 
L 330.309782 303.919741 
L 330.955423 300.838388 
L 331.601064 300.001418 
L 332.246705 307.844987 
L 334.82927 313.913804 
L 335.474911 314.815013 
L 336.120552 313.501682 
L 336.766193 313.696099 
L 338.703116 311.353537 
L 339.348757 312.428471 
L 339.994398 311.951735 
L 340.640039 314.600187 
L 341.28568 317.969797 
L 344.513886 315.755226 
L 345.159527 318.246131 
L 345.805168 318.099817 
L 347.742091 317.423417 
L 348.387732 318.019434 
L 349.033373 318.198382 
L 349.679014 319.216571 
L 350.324655 318.367969 
L 352.261579 317.95253 
L 352.90722 317.310724 
L 353.552861 317.151201 
L 354.198502 317.320784 
L 354.844143 315.782961 
L 356.781066 316.154851 
L 357.426707 316.400002 
L 358.072348 315.430223 
L 358.717989 314.00283 
L 359.36363 314.527499 
L 361.300554 315.250627 
L 361.946195 312.939366 
L 362.591836 312.554626 
L 363.237477 312.645929 
L 363.883118 314.682762 
L 366.465682 314.948854 
L 367.111323 314.488697 
L 367.756964 312.801512 
L 368.402605 313.619043 
L 370.339529 312.726386 
L 370.98517 313.613939 
L 371.630811 313.034809 
L 372.276452 312.752872 
L 372.922093 314.236351 
L 374.859016 316.321016 
L 375.504657 315.428847 
L 376.150298 317.242424 
L 376.795939 318.38777 
L 377.44158 319.180449 
L 379.378504 319.935638 
L 380.024145 319.038586 
L 380.669786 319.766783 
L 381.961068 318.357515 
L 383.897991 317.415931 
L 384.543632 316.53605 
L 385.189273 316.495142 
L 385.834914 316.697749 
L 386.480555 315.760407 
L 388.417479 315.674882 
L 389.06312 315.303373 
L 389.708761 315.976516 
L 390.354402 317.228683 
L 393.582607 319.551239 
L 394.228248 319.87594 
L 394.873889 319.165733 
L 395.51953 320.299372 
L 398.102095 320.72554 
L 398.747736 319.051383 
L 399.393377 319.922138 
L 400.039018 318.157967 
L 401.975941 316.895627 
L 402.621582 316.802547 
L 403.267223 316.911578 
L 403.912864 316.583841 
L 404.558506 317.634107 
L 406.495429 316.613072 
L 407.14107 317.934495 
L 407.786711 317.173133 
L 408.432352 317.855904 
L 409.077993 319.327856 
L 411.014916 320.02384 
L 412.951839 315.913449 
L 415.534404 316.834938 
L 416.180045 316.167371 
L 416.825686 316.665329 
L 417.471327 317.756097 
L 420.699532 317.573906 
L 421.345173 318.819645 
L 421.990814 317.888165 
L 422.636456 319.489532 
L 425.21902 319.551656 
L 426.510302 317.552357 
L 429.738507 318.187417 
L 430.384148 317.454195 
L 431.675431 316.971329 
L 433.612354 315.666066 
L 434.257995 314.780178 
L 434.903636 316.278623 
L 435.549277 316.083199 
L 436.194918 313.671054 
L 438.777482 313.114344 
L 439.423123 314.058271 
L 440.714406 312.439291 
L 443.29697 313.265144 
L 444.588252 312.926966 
L 445.233893 312.342385 
L 447.170816 311.6783 
L 447.816457 311.22489 
L 449.107739 310.616467 
L 449.753381 310.583125 
L 451.690304 311.783653 
L 452.335945 312.590191 
L 452.981586 313.719655 
L 454.272868 315.387276 
L 456.209791 315.858694 
L 456.855432 315.447506 
L 457.501073 317.091571 
L 460.729279 316.249369 
L 461.37492 317.359656 
L 462.666202 313.716877 
L 463.311843 314.593196 
L 465.248766 315.200385 
L 465.894407 314.28262 
L 466.540048 312.500111 
L 467.18569 312.218306 
L 467.831331 311.122417 
L 469.768254 310.682467 
L 470.413895 310.383374 
L 471.059536 310.734632 
L 471.705177 309.084848 
L 472.350818 308.807837 
L 474.287741 307.701883 
L 474.933382 305.48894 
L 475.579023 307.411441 
L 476.224665 303.555599 
L 476.870306 303.037862 
L 478.807229 303.65978 
L 479.45287 304.364771 
L 480.098511 303.895741 
L 480.744152 304.976648 
L 481.389793 306.836781 
L 483.326716 306.807444 
L 483.972357 306.598296 
L 484.617998 306.662395 
L 485.26364 305.088876 
L 485.909281 305.45954 
L 487.846204 304.583906 
L 488.491845 304.654003 
L 489.137486 305.081176 
L 489.783127 304.970782 
L 490.428768 304.597515 
L 493.011332 302.932011 
L 494.302615 303.411917 
L 494.948256 305.00664 
L 496.885179 305.228107 
L 498.822102 309.153168 
L 499.467743 311.017751 
L 501.404666 311.923943 
L 502.050307 310.769146 
L 502.695948 310.307645 
L 503.987231 309.760855 
L 505.924154 309.805776 
L 506.569795 311.35811 
L 507.215436 310.332282 
L 507.861077 312.00315 
L 508.506718 312.073495 
L 510.443641 311.428552 
L 511.089282 313.945871 
L 511.734923 315.258363 
L 512.380565 315.171202 
L 513.026206 313.763037 
L 514.963129 314.05013 
L 515.60877 312.509351 
L 516.900052 312.965364 
L 517.545693 312.426566 
L 519.482616 313.300491 
L 520.128257 312.36734 
L 520.773899 313.377763 
L 521.41954 312.828027 
L 522.065181 314.31546 
L 524.002104 314.323058 
L 524.647745 314.507134 
L 525.293386 314.214609 
L 525.939027 312.615423 
L 526.584668 313.537761 
L 528.521591 312.918432 
L 529.167232 313.955478 
L 529.812874 312.332318 
L 530.458515 313.601398 
L 531.104156 314.074653 
L 533.041079 314.187309 
L 533.68672 314.079022 
L 534.332361 314.411812 
L 535.623643 319.39441 
L 537.560566 319.168164 
L 538.206207 317.764044 
L 538.851849 314.995494 
L 539.49749 314.7731 
L 540.143131 315.769172 
L 542.080054 315.786774 
L 542.725695 317.097128 
L 543.371336 316.212751 
L 544.662618 317.370282 
L 546.599541 316.691788 
L 547.245182 315.511586 
L 547.890824 314.055725 
L 549.182106 314.036211 
L 551.76467 313.154386 
L 552.410311 313.510215 
L 553.055952 312.144895 
L 553.701593 314.687667 
L 555.638516 315.147484 
L 556.284157 314.774029 
L 556.929799 312.836076 
L 557.57544 311.954526 
L 558.221081 311.261467 
L 560.803645 310.747908 
L 561.449286 309.432902 
L 562.094927 310.090726 
L 562.740568 308.813231 
L 564.677491 311.900332 
L 565.323132 309.633561 
L 566.614415 310.867602 
L 567.260056 313.071643 
L 569.196979 315.430503 
L 569.84262 312.880182 
L 571.133902 304.311062 
L 571.779543 324.651691 
L 573.716466 326.260719 
L 574.362107 329.964062 
L 575.007749 332.352661 
L 576.299031 334.040008 
L 578.235954 331.135151 
L 578.881595 333.603381 
L 579.527236 318.957581 
L 580.172877 326.429447 
L 580.818518 319.580263 
L 583.401083 322.938989 
L 584.046724 328.064028 
L 584.692365 329.574982 
L 585.338006 332.655946 
L 587.274929 334.715441 
L 587.92057 334.292016 
L 589.211852 336.85902 
L 589.857493 334.861958 
L 591.794416 341.987766 
L 592.440058 340.163415 
L 593.085699 344.838111 
L 593.73134 348.120865 
L 594.376981 350.393117 
L 596.313904 355.276407 
L 596.959545 352.406353 
L 597.605186 357.469512 
L 598.250827 355.873579 
L 598.896468 356.492237 
L 601.479033 358.444677 
L 602.124674 360.515131 
L 602.770315 361.199689 
L 603.415956 346.037462 
L 605.352879 343.504376 
L 605.99852 339.581556 
L 606.644161 340.735854 
L 607.289802 344.446001 
L 607.935443 338.740668 
L 609.872366 335.908306 
L 610.518008 329.052694 
L 611.163649 330.916517 
L 612.454931 313.242492 
L 614.391854 309.898919 
L 615.037495 303.906193 
L 616.328777 295.95978 
L 616.974418 289.515367 
L 620.202624 276.82178 
L 620.848265 274.983703 
L 621.493906 285.734978 
L 624.07647 267.406845 
L 624.722111 275.636309 
L 625.367752 276.848757 
L 626.013393 284.813309 
L 627.950316 286.088617 
L 628.595958 288.196802 
L 629.241599 287.615488 
L 629.88724 291.839655 
L 630.532881 283.587457 
L 632.469804 279.945773 
L 633.115445 281.595764 
L 633.761086 269.105273 
L 634.406727 272.205766 
L 635.052368 278.016231 
L 636.989292 277.050383 
L 637.634933 278.436228 
L 638.280574 274.692677 
L 638.926215 267.386943 
L 641.508779 268.323078 
L 642.15442 263.312813 
L 642.800061 266.320564 
L 643.445702 266.455495 
L 644.091343 255.799351 
L 646.028267 253.098843 
L 646.673908 255.321408 
L 647.319549 253.698772 
L 647.96519 256.100105 
L 648.610831 264.533017 
L 650.547754 262.677477 
L 651.193395 262.942551 
L 651.839036 263.793575 
L 652.484677 265.294343 
L 653.130318 267.506365 
L 655.067242 263.576492 
L 656.358524 257.889522 
L 657.004165 258.324872 
L 657.649806 258.263671 
L 659.586729 255.864128 
L 660.23237 259.838715 
L 660.878011 255.399884 
L 661.523652 260.417336 
L 662.169293 258.81142 
L 664.751858 259.586704 
L 665.397499 261.580902 
L 666.04314 259.14634 
L 666.688781 264.24266 
L 668.625704 263.61482 
L 669.271345 265.891942 
L 669.916986 264.085005 
L 670.562627 266.291085 
L 671.208268 265.718358 
L 673.145192 262.787076 
L 673.790833 260.668206 
L 674.436474 261.597107 
L 675.082115 264.706926 
L 675.727756 265.266948 
L 677.664679 266.097751 
L 678.31032 263.362668 
L 678.955961 266.19564 
L 680.247243 269.616092 
L 682.184167 265.48483 
L 682.829808 267.85941 
L 683.475449 269.399085 
L 684.12109 269.869576 
L 684.766731 271.019436 
L 686.703654 270.935054 
L 687.349295 268.842766 
L 687.994936 273.571703 
L 688.640577 273.531353 
L 691.223142 270.839295 
L 691.868783 271.639005 
L 692.514424 270.055941 
L 693.160065 274.708163 
L 693.805706 275.98564 
L 695.742629 275.870354 
L 696.38827 276.26711 
L 697.033911 279.483286 
L 697.679552 285.046016 
L 698.325193 283.229288 
L 700.262117 283.97839 
L 700.907758 285.080995 
L 701.553399 283.044928 
L 702.19904 279.971254 
L 702.844681 282.076452 
L 704.781604 280.98553 
L 705.427245 282.176117 
L 706.072886 282.617716 
L 706.718527 280.668308 
L 707.364168 275.023428 
L 709.301092 276.377914 
L 709.946733 275.74927 
L 710.592374 275.710358 
L 711.883656 275.920705 
L 713.820579 276.847671 
L 714.46622 277.923781 
L 715.111861 276.772342 
L 715.757502 280.880711 
L 716.403143 282.720379 
L 718.340067 284.362268 
L 718.985708 280.224062 
L 719.631349 279.614616 
L 720.27699 277.037937 
L 720.922631 286.92066 
L 723.505195 283.520085 
L 724.150836 283.677997 
L 724.796477 285.52359 
L 725.442118 281.024533 
L 728.024683 278.681863 
L 728.670324 281.058325 
L 729.315965 284.052725 
L 729.961606 280.665508 
L 731.898529 282.74225 
L 732.54417 283.826796 
L 733.189811 287.560219 
L 733.835452 285.606117 
L 734.481093 281.863041 
L 736.418017 282.063596 
L 737.063658 281.579521 
L 737.709299 282.843912 
L 738.35494 289.424886 
L 739.000581 297.886641 
L 740.937504 296.055308 
L 741.583145 294.771584 
L 742.228786 295.66387 
L 742.874427 293.173471 
L 743.520068 292.633824 
L 745.456992 292.373393 
L 746.748274 294.24655 
L 748.039556 291.124012 
L 749.976479 289.623162 
L 750.62212 289.411456 
L 751.267761 290.910161 
L 751.913402 292.794451 
L 752.559043 279.712716 
L 754.495967 281.34403 
L 755.141608 282.872499 
L 755.787249 286.842912 
L 756.43289 285.277679 
L 757.078531 276.521141 
L 759.015454 277.534064 
L 759.661095 278.257876 
L 760.306736 275.296404 
L 760.952377 276.859749 
L 761.598018 279.487146 
L 763.534942 279.071931 
L 764.180583 279.386943 
L 764.826224 278.362869 
L 765.471865 280.184869 
L 766.117506 279.77566 
L 768.054429 278.048199 
L 768.70007 276.752676 
L 769.345711 276.157798 
L 769.991352 277.765378 
L 770.636993 271.186363 
L 772.573917 271.746507 
L 773.219558 269.847193 
L 773.865199 269.357312 
L 774.51084 263.986943 
L 775.156481 260.460786 
L 777.093404 257.985359 
L 777.739045 257.460647 
L 778.384686 257.388474 
L 779.675968 257.997047 
L 781.612892 258.2186 
L 782.258533 259.480244 
L 782.904174 263.016618 
L 784.195456 266.508304 
L 786.132379 263.524491 
L 787.423661 266.14019 
L 788.069302 269.840145 
L 788.714943 274.932131 
L 790.651867 274.941228 
L 791.297508 275.603713 
L 791.943149 278.530731 
L 792.58879 276.616175 
L 793.234431 269.778102 
L 795.171354 260.651673 
L 795.816995 258.813138 
L 796.462636 256.270466 
L 797.108277 255.215669 
L 797.753918 256.240329 
L 800.336483 244.971395 
L 800.982124 245.68601 
L 802.273406 245.399622 
L 804.210329 238.502344 
L 804.85597 230.652299 
L 805.501611 235.076121 
L 806.792893 247.974531 
L 808.729817 251.33065 
L 809.375458 249.678797 
L 810.66674 247.29894 
L 811.312381 239.731468 
L 813.249304 232.688045 
L 813.894945 229.771813 
L 814.540586 229.123871 
L 815.186227 226.04379 
L 815.831869 229.811392 
L 819.060074 202.62757 
L 819.705715 203.526927 
L 820.351356 200.029851 
L 822.288279 198.58143 
L 822.93392 197.035956 
L 823.579561 196.44927 
L 824.225202 189.986764 
L 824.870844 178.067977 
L 826.807767 173.132064 
L 827.453408 166.412125 
L 828.099049 164.543408 
L 828.74469 163.597101 
L 829.390331 147.672745 
L 831.327254 155.141834 
L 831.972895 152.077469 
L 832.618536 144.18782 
L 833.264177 132.561853 
L 833.909819 130.12431 
L 836.492383 124.359373 
L 837.138024 113.814297 
L 837.783665 109.646736 
L 838.429306 109.66708 
L 840.366229 102.220103 
L 841.01187 100.863558 
L 841.657511 110.750531 
L 842.303152 103.672102 
L 842.948794 103.379916 
L 844.885717 99.607266 
L 845.531358 91.590094 
L 846.176999 90.081996 
L 846.82264 84.683899 
L 847.468281 84.740468 
L 849.405204 78.420486 
L 850.050845 73.913552 
L 850.696486 71.713122 
L 851.342127 71.905362 
L 851.987769 68.277791 
L 853.924692 66.414102 
L 854.570333 64.458978 
L 855.215974 64.195936 
L 855.861615 60.488308 
L 856.507256 60.660567 
L 858.444179 53.959726 
L 859.08982 49.182916 
L 860.381102 43.166547 
L 861.026744 47.556703 
L 862.963667 49.475483 
L 863.609308 41.679474 
L 863.609308 41.679474 
" clip-path="url(#p72a0545055)" style="fill: none; stroke: #1f77b4; stroke-width: 2.8; stroke-linecap: square"/>
   </g>
   <g id="line2d_20">
    <path d="M 99.815919 382.241577 
L 100.46156 380.048095 
L 101.107202 383.315838 
L 101.752843 376.825144 
L 103.689766 376.989281 
L 104.335407 374.96003 
L 104.981048 371.274524 
L 106.27233 369.051212 
L 108.854894 369.5958 
L 109.500536 374.281088 
L 110.146177 376.407333 
L 110.791818 371.005887 
L 112.728741 367.462097 
L 113.374382 367.782889 
L 114.020023 367.671026 
L 114.665664 364.388368 
L 115.311305 363.694511 
L 117.248228 367.491999 
L 117.893869 363.097673 
L 118.539511 359.874698 
L 119.185152 355.413254 
L 119.830793 358.718238 
L 121.767716 360.598409 
L 122.413357 356.599497 
L 123.058998 359.986584 
L 123.704639 362.642598 
L 124.35028 361.933826 
L 126.287203 358.360206 
L 126.932844 358.501922 
L 127.578486 357.502212 
L 128.224127 361.754703 
L 128.869768 362.515725 
L 131.452332 368.610981 
L 132.097973 369.021334 
L 132.743614 367.439701 
L 133.389255 370.632845 
L 135.326178 369.625678 
L 136.617461 371.856423 
L 137.263102 369.565994 
L 137.908743 364.806084 
L 139.845666 364.597226 
L 140.491307 369.222806 
L 141.136948 368.737854 
L 141.782589 374.228814 
L 142.42823 378.444065 
L 144.365153 378.854418 
L 145.010794 374.10206 
L 145.656436 375.929863 
L 146.302077 370.834317 
L 146.947718 374.289757 
L 148.884641 371.481363 
L 149.530282 367.609466 
L 150.175923 372.702067 
L 150.821564 371.908222 
L 151.467205 369.976062 
L 153.404128 369.421879 
L 154.049769 370.0884 
L 154.695411 365.782139 
L 155.341052 364.022238 
L 155.986693 359.760959 
L 157.923616 358.592648 
L 158.569257 360.300132 
L 159.214898 361.10153 
L 159.860539 359.910751 
L 163.088744 359.513816 
L 163.734386 360.764564 
L 164.380027 356.705446 
L 165.025668 357.46179 
L 166.962591 356.353447 
L 167.608232 356.151263 
L 168.253873 356.203608 
L 168.899514 357.896178 
L 169.545155 357.656516 
L 171.482078 357.33449 
L 172.12772 362.239869 
L 172.773361 363.527999 
L 173.419002 357.499244 
L 174.064643 354.863109 
L 176.001566 355.17763 
L 176.647207 358.675108 
L 177.938489 362.951325 
L 178.58413 357.33449 
L 180.521053 357.252101 
L 181.166695 358.607658 
L 181.812336 357.169736 
L 183.103618 358.113372 
L 185.040541 357.049917 
L 185.686182 359.11693 
L 186.331823 355.387343 
L 186.977464 352.391751 
L 187.623105 352.848583 
L 189.560028 352.721212 
L 190.20567 356.241109 
L 190.851311 358.487839 
L 191.496952 355.821731 
L 192.142593 351.800114 
L 194.725157 351.680272 
L 195.370798 353.42521 
L 196.016439 350.452039 
L 196.66208 345.88372 
L 198.599003 346.497848 
L 199.244645 345.801331 
L 199.890286 346.909698 
L 200.535927 344.977537 
L 201.181568 344.400887 
L 203.118491 341.480179 
L 203.764132 339.338282 
L 204.409773 338.9489 
L 205.055414 334.889758 
L 205.701055 336.018811 
L 208.28362 337.732709 
L 208.929261 339.416443 
L 209.574902 338.236328 
L 210.220543 340.7169 
L 212.157466 342.047377 
L 212.803107 338.491878 
L 213.448748 338.326507 
L 214.094389 337.033603 
L 214.74003 333.147385 
L 216.676953 332.764012 
L 217.968236 333.260174 
L 218.613877 335.86845 
L 219.259518 336.702907 
L 221.196441 335.86845 
L 221.842082 333.763769 
L 223.133364 328.426781 
L 223.779005 328.637253 
L 225.715929 327.464619 
L 226.36157 324.946451 
L 227.007211 324.187257 
L 227.652852 326.45738 
L 228.298493 326.45738 
L 230.235416 324.938922 
L 230.881057 324.006828 
L 231.526698 323.954175 
L 232.172339 326.224345 
L 232.81798 322.894306 
L 234.754904 322.240396 
L 235.400545 323.225096 
L 236.046186 327.998306 
L 236.691827 328.967973 
L 237.337468 330.493912 
L 239.274391 327.562375 
L 239.920032 329.03566 
L 240.565673 331.290702 
L 241.211314 331.170408 
L 241.856955 331.365895 
L 243.793879 329.516717 
L 244.43952 333.440531 
L 245.730802 338.401676 
L 246.376443 338.243857 
L 248.313366 336.109014 
L 248.959007 337.003559 
L 249.604648 333.335271 
L 250.250289 337.950663 
L 250.89593 335.635462 
L 252.832854 333.538263 
L 253.478495 328.727456 
L 254.124136 327.336844 
L 254.769777 327.832959 
L 255.415418 327.20154 
L 257.997982 328.667369 
L 258.643623 330.93742 
L 259.289264 331.967198 
L 259.934905 331.463602 
L 261.871829 329.261143 
L 262.51747 331.110297 
L 263.163111 330.719395 
L 263.808752 327.825454 
L 264.454393 331.904118 
L 266.391316 331.708038 
L 267.036957 332.401966 
L 267.682598 335.472133 
L 268.328239 340.941148 
L 268.97388 341.672839 
L 270.910804 340.307497 
L 271.556445 345.097523 
L 272.202086 344.96932 
L 272.847727 343.106106 
L 273.493368 343.890546 
L 275.430291 344.018867 
L 276.075932 348.333655 
L 276.721573 346.017836 
L 277.367214 346.138534 
L 278.012855 342.336652 
L 279.949779 340.262206 
L 280.59542 338.564981 
L 281.241061 337.222249 
L 281.886702 339.228747 
L 282.532343 340.858142 
L 284.469266 337.433458 
L 285.114907 337.448563 
L 285.760548 341.831228 
L 286.406189 344.682657 
L 287.05183 348.635422 
L 288.988754 349.186043 
L 289.634395 346.794795 
L 290.280036 351.381211 
L 290.925677 355.152835 
L 291.571318 356.563516 
L 293.508241 352.859698 
L 294.153882 350.890844 
L 294.799523 347.526533 
L 295.445164 341.416362 
L 296.090805 338.451788 
L 298.027729 337.697487 
L 298.67337 336.762116 
L 299.319011 336.520697 
L 299.964652 339.093015 
L 300.610293 333.986141 
L 302.547216 334.302919 
L 303.192857 327.860889 
L 303.838498 327.144255 
L 305.12978 326.306948 
L 307.066704 323.689338 
L 307.712345 324.436205 
L 308.357986 323.116083 
L 309.649268 322.904851 
L 311.586191 323.523444 
L 312.231832 323.183937 
L 312.877473 323.42538 
L 313.523114 322.075072 
L 314.168755 320.038388 
L 316.105679 321.856358 
L 316.75132 321.924212 
L 317.396961 323.312187 
L 318.042602 320.694625 
L 318.688243 319.208609 
L 320.625166 317.858349 
L 321.270807 316.266669 
L 321.916448 311.438905 
L 322.562089 310.299877 
L 323.20773 310.886099 
L 325.144654 308.88656 
L 325.790295 306.712862 
L 326.435936 311.696498 
L 327.081577 308.333659 
L 327.727218 307.614104 
L 330.309782 306.099351 
L 330.955423 305.447983 
L 331.601064 305.311681 
L 332.246705 306.356873 
L 334.82927 308.37154 
L 335.474911 311.295098 
L 336.120552 312.438757 
L 336.766193 311.953995 
L 338.703116 306.894597 
L 339.348757 307.439945 
L 339.994398 305.410101 
L 340.640039 305.569132 
L 341.28568 305.319257 
L 343.868245 306.644676 
L 344.513886 308.644191 
L 345.159527 305.463135 
L 345.805168 300.96419 
L 347.742091 300.191625 
L 348.387732 299.123753 
L 349.033373 298.722235 
L 349.679014 296.72279 
L 350.324655 297.192305 
L 352.261579 294.268795 
L 352.90722 294.556597 
L 353.552861 300.62333 
L 354.198502 295.836629 
L 354.844143 291.935995 
L 356.781066 293.299318 
L 357.426707 292.216269 
L 358.072348 289.095729 
L 358.717989 288.929122 
L 359.36363 286.747824 
L 361.300554 286.914454 
L 361.946195 292.14053 
L 362.591836 288.739811 
L 363.237477 286.134313 
L 363.883118 288.027785 
L 366.465682 290.110663 
L 367.111323 289.76985 
L 367.756964 281.976229 
L 368.402605 281.711155 
L 370.339529 283.119935 
L 370.98517 282.407981 
L 371.630811 282.915424 
L 372.276452 281.536948 
L 372.922093 277.924141 
L 374.859016 278.34074 
L 375.504657 282.218622 
L 376.150298 280.272045 
L 376.795939 276.439645 
L 377.44158 278.780021 
L 379.378504 279.113234 
L 380.024145 274.947525 
L 380.669786 275.56106 
L 381.315427 276.333625 
L 381.961068 279.011726 
L 383.897991 276.709683 
L 384.543632 274.544392 
L 385.189273 270.920398 
L 385.834914 269.6136 
L 386.480555 270.365716 
L 388.417479 271.459833 
L 389.06312 272.189149 
L 389.708761 268.876637 
L 390.354402 268.952613 
L 392.936966 269.644048 
L 393.582607 272.166349 
L 394.228248 271.733386 
L 394.873889 276.550083 
L 395.51953 272.477902 
L 397.456454 272.257525 
L 398.102095 271.801643 
L 398.747736 275.752438 
L 399.393377 272.80456 
L 400.039018 278.236786 
L 401.975941 283.099178 
L 402.621582 283.798189 
L 403.267223 286.062232 
L 403.912864 286.844772 
L 404.558506 290.157236 
L 406.495429 286.692795 
L 407.14107 282.187462 
L 407.786711 282.369814 
L 408.432352 283.828589 
L 409.077993 280.204524 
L 411.014916 278.836973 
L 411.660557 284.975763 
L 412.306198 286.214137 
L 412.951839 282.65852 
L 413.597481 277.902481 
L 415.534404 273.890958 
L 416.180045 273.457876 
L 416.825686 273.419947 
L 417.471327 271.155975 
L 418.116968 270.646822 
L 420.053891 270.593717 
L 420.699532 268.777837 
L 421.345173 263.854621 
L 421.990814 264.682832 
L 422.636456 264.105422 
L 424.573379 263.641963 
L 425.21902 262.65439 
L 425.864661 263.816669 
L 426.510302 266.756875 
L 427.155943 264.113022 
L 429.738507 263.831869 
L 431.029789 269.302095 
L 431.675431 265.685701 
L 433.612354 265.358948 
L 434.257995 264.910738 
L 434.903636 260.139546 
L 435.549277 260.147194 
L 436.194918 260.640909 
L 438.131841 259.38743 
L 438.777482 258.407266 
L 439.423123 255.056754 
L 440.068764 254.228685 
L 440.714406 253.977837 
L 443.29697 249.639751 
L 445.233893 251.328949 
L 447.170816 252.678046 
L 447.816457 251.085036 
L 449.107739 249.911262 
L 449.753381 251.549967 
L 451.690304 250.696295 
L 452.335945 247.899064 
L 452.981586 246.031646 
L 454.272868 243.607813 
L 456.209791 243.119987 
L 456.855432 242.708447 
L 457.501073 238.516281 
L 458.146715 242.205421 
L 458.792356 239.530027 
L 460.729279 238.356206 
L 461.37492 235.818182 
L 462.020561 241.854776 
L 463.311843 247.914359 
L 465.248766 243.600213 
L 465.894407 244.263314 
L 466.540048 253.828972 
L 467.18569 255.97835 
L 467.831331 251.382291 
L 469.768254 251.138379 
L 470.413895 253.242109 
L 471.059536 246.527025 
L 471.705177 252.472228 
L 472.350818 260.178116 
L 474.287741 272.007461 
L 474.933382 268.371782 
L 475.579023 271.031881 
L 476.224665 261.893011 
L 476.870306 260.109478 
L 478.807229 259.896108 
L 479.45287 253.211566 
L 480.098511 251.908212 
L 480.744152 244.80453 
L 481.389793 243.859421 
L 483.326716 239.81973 
L 483.972357 240.513326 
L 484.617998 239.049849 
L 485.26364 242.403544 
L 485.909281 237.898923 
L 487.846204 238.920317 
L 488.491845 238.333453 
L 489.137486 240.818182 
L 489.783127 240.780039 
L 490.428768 236.717549 
L 493.011332 245.559021 
L 494.302615 247.441686 
L 494.948256 254.492121 
L 497.53082 248.066739 
L 498.822102 240.215928 
L 499.467743 237.990408 
L 502.050307 237.182479 
L 502.695948 238.455291 
L 503.34159 231.153486 
L 503.987231 231.905744 
L 505.924154 230.82013 
L 506.569795 229.573919 
L 507.215436 230.53722 
L 507.861077 228.809358 
L 508.506718 229.444006 
L 510.443641 227.693106 
L 511.089282 231.622929 
L 511.734923 231.439389 
L 512.380565 232.234492 
L 513.026206 228.289469 
L 514.963129 232.249787 
L 515.60877 228.144262 
L 516.254411 225.10896 
L 516.900052 225.881169 
L 517.545693 223.243537 
L 519.482616 219.619567 
L 520.128257 223.090587 
L 520.773899 221.163984 
L 521.41954 221.125747 
L 522.065181 219.413227 
L 524.647745 220.384128 
L 525.293386 224.459159 
L 525.939027 223.50341 
L 526.584668 223.656455 
L 528.521591 222.287836 
L 529.167232 221.569113 
L 529.812874 222.914789 
L 530.458515 231.607586 
L 531.104156 229.772706 
L 533.041079 230.713113 
L 533.68672 225.445355 
L 534.332361 214.481913 
L 534.978002 210.98795 
L 535.623643 209.015415 
L 537.560566 208.57965 
L 538.206207 210.001659 
L 538.851849 209.779976 
L 539.49749 212.715813 
L 540.143131 218.526306 
L 542.080054 216.691426 
L 542.725695 215.047638 
L 543.371336 214.894783 
L 544.016977 212.47114 
L 544.662618 211.064378 
L 546.599541 209.520008 
L 547.245182 207.134603 
L 547.890824 208.526117 
L 549.182106 205.682098 
L 551.76467 204.642274 
L 552.410311 201.775313 
L 553.055952 202.539826 
L 553.701593 201.660552 
L 555.638516 204.053606 
L 556.284157 205.49091 
L 556.929799 201.92812 
L 557.57544 204.321126 
L 558.221081 204.412896 
L 560.158004 202.440361 
L 560.803645 204.351716 
L 561.449286 218.121083 
L 562.094927 218.258738 
L 562.740568 212.876648 
L 564.677491 210.161069 
L 565.323132 205.090485 
L 566.614415 205.059752 
L 567.260056 209.915589 
L 569.84262 216.765906 
L 571.133902 217.870567 
L 571.779543 212.262947 
L 573.716466 209.647118 
L 574.362107 214.809758 
L 575.007749 214.150077 
L 576.299031 221.054069 
L 578.235954 220.363608 
L 578.881595 219.750003 
L 579.527236 211.626304 
L 580.172877 212.50078 
L 580.818518 207.944099 
L 583.401083 203.748038 
L 584.692365 198.608341 
L 585.338006 199.973825 
L 587.274929 206.570967 
L 587.92057 202.620386 
L 588.566211 204.699227 
L 589.211852 202.221481 
L 589.857493 204.691579 
L 591.794416 207.798368 
L 592.440058 204.722217 
L 593.73134 201.239512 
L 594.376981 205.496943 
L 596.313904 202.367258 
L 596.959545 202.01438 
L 597.605186 203.510205 
L 598.250827 198.623683 
L 598.896468 198.646721 
L 601.479033 197.273636 
L 602.124674 196.168975 
L 602.770315 198.125123 
L 603.415956 206.133776 
L 605.352879 208.227912 
L 605.99852 210.5063 
L 606.644161 210.276162 
L 607.289802 217.556069 
L 607.935443 210.552327 
L 609.872366 218.537943 
L 610.518008 223.838713 
L 611.163649 219.082579 
L 611.80929 227.022215 
L 612.454931 224.559764 
L 615.037495 239.902048 
L 615.683136 237.639097 
L 616.328777 243.354068 
L 616.974418 234.616668 
L 618.911341 231.287389 
L 619.556983 235.989753 
L 620.202624 231.302731 
L 620.848265 232.560818 
L 621.493906 232.417748 
L 623.430829 224.646499 
L 624.07647 223.584683 
L 624.722111 228.870585 
L 625.367752 230.032484 
L 626.013393 238.819236 
L 627.950316 235.94933 
L 628.595958 234.733661 
L 629.241599 232.002169 
L 630.532881 277.582663 
L 632.469804 278.275142 
L 633.115445 284.353536 
L 633.761086 244.235954 
L 634.406727 262.73286 
L 635.052368 255.531042 
L 636.989292 251.545454 
L 637.634933 252.707258 
L 638.280574 261.901893 
L 638.926215 261.324815 
L 641.508779 270.965666 
L 642.15442 260.678529 
L 642.800061 254.392323 
L 643.445702 245.720949 
L 644.091343 242.681704 
L 646.028267 242.520157 
L 646.673908 239.850225 
L 647.319549 239.68103 
L 647.96519 236.657223 
L 648.610831 230.278725 
L 650.547754 232.779271 
L 651.193395 236.403241 
L 651.839036 234.595103 
L 652.484677 231.586686 
L 653.130318 232.14068 
L 655.067242 217.790957 
L 655.712883 214.828711 
L 656.358524 214.251632 
L 657.004165 212.043402 
L 657.649806 209.165753 
L 659.586729 208.665672 
L 660.23237 210.204532 
L 660.878011 217.890992 
L 661.523652 217.714007 
L 662.169293 220.776384 
L 664.751858 211.512494 
L 665.397499 214.143902 
L 666.04314 212.35885 
L 666.688781 212.866625 
L 668.625704 210.312214 
L 669.271345 207.711538 
L 669.916986 207.834658 
L 670.562627 210.050632 
L 671.208268 205.364845 
L 673.145192 204.949362 
L 673.790833 202.333296 
L 674.436474 203.656743 
L 675.082115 201.817778 
L 675.727756 207.011387 
L 677.664679 202.641096 
L 678.31032 206.603552 
L 678.955961 206.672854 
L 680.247243 207.752436 
L 682.184167 203.222592 
L 682.829808 198.106217 
L 683.475449 197.843875 
L 684.12109 194.178342 
L 684.766731 191.832361 
L 686.703654 189.563568 
L 687.349295 189.717896 
L 687.994936 187.557165 
L 688.640577 183.78357 
L 691.223142 187.379705 
L 691.868783 187.642048 
L 692.514424 184.771382 
L 693.160065 183.413165 
L 693.805706 185.110912 
L 695.742629 184.192593 
L 696.38827 186.253004 
L 697.033911 184.647929 
L 697.679552 181.700027 
L 698.325193 182.055043 
L 700.262117 181.136676 
L 700.907758 181.067231 
L 701.553399 176.938621 
L 702.19904 176.776645 
L 702.844681 174.708493 
L 704.781604 174.831898 
L 705.427245 176.128365 
L 706.072886 176.745723 
L 706.718527 178.58236 
L 707.364168 186.577144 
L 709.301092 179.284649 
L 709.946733 181.754035 
L 710.592374 178.04219 
L 711.238015 178.451213 
L 711.883656 174.646695 
L 713.820579 175.619069 
L 714.46622 170.394679 
L 715.111861 168.696979 
L 715.757502 168.650619 
L 716.403143 169.815891 
L 718.340067 169.923953 
L 718.985708 172.61716 
L 719.631349 173.929016 
L 720.27699 175.904592 
L 720.922631 168.372886 
L 722.859554 170.564444 
L 723.505195 168.488644 
L 724.150836 167.3542 
L 724.796477 165.587055 
L 725.442118 168.573479 
L 728.024683 172.262192 
L 728.670324 169.584423 
L 729.315965 165.432727 
L 729.961606 166.883474 
L 731.898529 165.6565 
L 732.54417 164.498923 
L 733.189811 163.048129 
L 733.835452 158.865511 
L 734.481093 159.035371 
L 736.418017 156.334422 
L 737.709299 157.669459 
L 739.000581 152.761372 
L 740.937504 150.331506 
L 741.583145 153.140518 
L 742.228786 154.77338 
L 742.874427 157.133563 
L 743.520068 154.216157 
L 745.456992 152.776857 
L 746.748274 149.085675 
L 747.393915 148.489881 
L 748.039556 148.497529 
L 749.976479 146.640371 
L 750.62212 148.567211 
L 751.267761 145.479612 
L 751.913402 146.988594 
L 752.559043 161.025956 
L 754.495967 153.27214 
L 755.141608 153.898951 
L 755.787249 151.623888 
L 756.43289 155.129345 
L 757.078531 152.227424 
L 759.015454 146.880246 
L 759.661095 146.887989 
L 760.306736 149.588653 
L 760.952377 146.524281 
L 761.598018 142.275923 
L 763.534942 136.092982 
L 764.180583 134.684605 
L 764.826224 134.429197 
L 765.471865 140.2794 
L 766.117506 138.553817 
L 768.054429 137.563251 
L 768.70007 143.831312 
L 769.345711 142.020562 
L 769.991352 147.646328 
L 770.636993 147.135654 
L 772.573917 139.033568 
L 773.219558 137.826401 
L 773.865199 137.532281 
L 774.51084 146.307586 
L 775.156481 146.392753 
L 777.093404 151.236953 
L 777.739045 155.562689 
L 778.384686 153.589393 
L 779.030327 161.405102 
L 779.675968 156.375177 
L 781.612892 148.869027 
L 782.258533 144.001552 
L 782.904174 140.39549 
L 784.195456 137.524586 
L 786.132379 139.938967 
L 786.77802 138.963885 
L 787.423661 137.13765 
L 788.069302 136.750762 
L 788.714943 135.744759 
L 791.297508 137.795431 
L 791.943149 134.289927 
L 792.58879 133.051837 
L 793.234431 138.785903 
L 795.171354 139.583001 
L 795.816995 141.022301 
L 796.462636 146.802869 
L 797.108277 142.879553 
L 797.753918 138.135057 
L 799.690842 134.8443 
L 800.336483 132.415051 
L 800.982124 130.536851 
L 802.273406 130.591191 
L 804.85597 133.152347 
L 805.501611 137.102833 
L 806.792893 136.132692 
L 808.729817 132.601347 
L 809.375458 129.427012 
L 810.021099 131.157725 
L 810.66674 131.212065 
L 811.312381 127.672977 
L 813.249304 126.827001 
L 813.894945 127.905775 
L 814.540586 130.552384 
L 815.186227 129.093277 
L 815.831869 129.543435 
L 818.414433 140.471205 
L 819.060074 134.401932 
L 819.705715 131.623415 
L 820.351356 131.429425 
L 822.288279 128.712991 
L 822.93392 126.570881 
L 823.579561 126.625221 
L 824.225202 127.696252 
L 824.870844 129.302847 
L 826.807767 126.632963 
L 827.453408 131.196532 
L 828.099049 133.788801 
L 828.74469 140.44014 
L 829.390331 130.350604 
L 831.327254 127.766077 
L 831.972895 129.186424 
L 832.618536 129.310542 
L 833.264177 137.607284 
L 833.909819 137.234788 
L 836.492383 136.381069 
L 837.138024 133.711186 
L 837.783665 135.116 
L 838.429306 131.274147 
L 840.366229 136.738032 
L 841.657511 128.386951 
L 842.948794 133.944031 
L 844.885717 133.641313 
L 845.531358 138.336837 
L 846.176999 134.611502 
L 846.82264 137.576266 
L 847.468281 144.507048 
L 849.405204 139.935642 
L 850.050845 140.781666 
L 850.696486 141.441346 
L 851.342127 149.412142 
L 851.987769 152.338099 
L 853.924692 147.107012 
L 854.570333 145.7411 
L 855.215974 153.00557 
L 855.861615 154.270639 
L 856.507256 161.611774 
L 858.444179 156.311955 
L 859.08982 158.024094 
L 859.735461 155.191285 
L 861.026744 172.88069 
L 862.963667 174.530605 
L 863.609308 160.234272 
L 863.609308 160.234272 
" clip-path="url(#p72a0545055)" style="fill: none; stroke-dasharray: 8.14,3.52; stroke-dashoffset: 0; stroke: #ff7f0e; stroke-width: 2.2"/>
   </g>
   <g id="patch_3">
    <path d="M 61.62625 400.397656 
L 61.62625 24.597656 
" style="fill: none; stroke: #000000; stroke-width: 0.8; stroke-linejoin: miter; stroke-linecap: square"/>
   </g>
   <g id="patch_4">
    <path d="M 61.62625 400.397656 
L 901.798977 400.397656 
" style="fill: none; stroke: #000000; stroke-width: 0.8; stroke-linejoin: miter; stroke-linecap: square"/>
   </g>
   <g id="text_20">
    <!-- $21,987 -->
    <g style="fill: #1f77b4" transform="translate(871.609308 44.438849) scale(0.1 -0.1)">
     <defs>
      <path id="DejaVuSans-Bold-24" d="M 2484 -941 
L 1978 -941 
L 1975 0 
Q 1584 16 1218 87 
Q 853 159 506 288 
L 506 1106 
Q 866 922 1233 823 
Q 1600 725 1978 713 
L 1978 1684 
L 1875 1703 
Q 1128 1834 814 2115 
Q 500 2397 500 2925 
Q 500 3484 883 3798 
Q 1266 4113 1975 4141 
L 1978 4863 
L 2484 4863 
L 2484 4153 
Q 2797 4128 3109 4075 
Q 3422 4022 3738 3938 
L 3738 3144 
Q 3425 3275 3112 3348 
Q 2800 3422 2484 3438 
L 2484 2541 
L 2584 2522 
Q 3378 2397 3698 2105 
Q 4019 1813 4019 1241 
Q 4019 666 3637 358 
Q 3256 50 2484 6 
L 2484 -941 
z
M 1978 2613 
L 1978 3428 
Q 1756 3416 1623 3308 
Q 1491 3200 1491 3034 
Q 1491 2850 1612 2745 
Q 1734 2641 1978 2613 
z
M 2484 1594 
L 2484 725 
Q 2756 728 2892 831 
Q 3028 934 3028 1141 
Q 3028 1353 2903 1458 
Q 2778 1563 2484 1594 
z
" transform="scale(0.015625)"/>
      <path id="DejaVuSans-Bold-32" d="M 1844 884 
L 3897 884 
L 3897 0 
L 506 0 
L 506 884 
L 2209 2388 
Q 2438 2594 2547 2791 
Q 2656 2988 2656 3200 
Q 2656 3528 2436 3728 
Q 2216 3928 1850 3928 
Q 1569 3928 1234 3808 
Q 900 3688 519 3450 
L 519 4475 
Q 925 4609 1322 4679 
Q 1719 4750 2100 4750 
Q 2938 4750 3402 4381 
Q 3866 4013 3866 3353 
Q 3866 2972 3669 2642 
Q 3472 2313 2841 1759 
L 1844 884 
z
" transform="scale(0.015625)"/>
      <path id="DejaVuSans-Bold-31" d="M 750 831 
L 1813 831 
L 1813 3847 
L 722 3622 
L 722 4441 
L 1806 4666 
L 2950 4666 
L 2950 831 
L 4013 831 
L 4013 0 
L 750 0 
L 750 831 
z
" transform="scale(0.015625)"/>
      <path id="DejaVuSans-Bold-2c" d="M 653 1209 
L 1778 1209 
L 1778 256 
L 1006 -909 
L 341 -909 
L 653 256 
L 653 1209 
z
" transform="scale(0.015625)"/>
      <path id="DejaVuSans-Bold-39" d="M 641 103 
L 641 966 
Q 928 831 1190 764 
Q 1453 697 1709 697 
Q 2247 697 2547 995 
Q 2847 1294 2900 1881 
Q 2688 1725 2447 1647 
Q 2206 1569 1925 1569 
Q 1209 1569 770 1986 
Q 331 2403 331 3084 
Q 331 3838 820 4291 
Q 1309 4744 2131 4744 
Q 3044 4744 3544 4128 
Q 4044 3513 4044 2388 
Q 4044 1231 3459 570 
Q 2875 -91 1856 -91 
Q 1528 -91 1228 -42 
Q 928 6 641 103 
z
M 2125 2350 
Q 2441 2350 2600 2554 
Q 2759 2759 2759 3169 
Q 2759 3575 2600 3781 
Q 2441 3988 2125 3988 
Q 1809 3988 1650 3781 
Q 1491 3575 1491 3169 
Q 1491 2759 1650 2554 
Q 1809 2350 2125 2350 
z
" transform="scale(0.015625)"/>
      <path id="DejaVuSans-Bold-38" d="M 2228 2088 
Q 1891 2088 1709 1903 
Q 1528 1719 1528 1375 
Q 1528 1031 1709 848 
Q 1891 666 2228 666 
Q 2563 666 2741 848 
Q 2919 1031 2919 1375 
Q 2919 1722 2741 1905 
Q 2563 2088 2228 2088 
z
M 1350 2484 
Q 925 2613 709 2878 
Q 494 3144 494 3541 
Q 494 4131 934 4440 
Q 1375 4750 2228 4750 
Q 3075 4750 3515 4442 
Q 3956 4134 3956 3541 
Q 3956 3144 3739 2878 
Q 3522 2613 3097 2484 
Q 3572 2353 3814 2058 
Q 4056 1763 4056 1313 
Q 4056 619 3595 264 
Q 3134 -91 2228 -91 
Q 1319 -91 855 264 
Q 391 619 391 1313 
Q 391 1763 633 2058 
Q 875 2353 1350 2484 
z
M 1631 3419 
Q 1631 3141 1786 2991 
Q 1941 2841 2228 2841 
Q 2509 2841 2662 2991 
Q 2816 3141 2816 3419 
Q 2816 3697 2662 3845 
Q 2509 3994 2228 3994 
Q 1941 3994 1786 3844 
Q 1631 3694 1631 3419 
z
" transform="scale(0.015625)"/>
      <path id="DejaVuSans-Bold-37" d="M 428 4666 
L 3944 4666 
L 3944 3988 
L 2125 0 
L 953 0 
L 2675 3781 
L 428 3781 
L 428 4666 
z
" transform="scale(0.015625)"/>
     </defs>
     <use xlink:href="#DejaVuSans-Bold-24"/>
     <use xlink:href="#DejaVuSans-Bold-32" transform="translate(69.580078 0)"/>
     <use xlink:href="#DejaVuSans-Bold-31" transform="translate(139.160156 0)"/>
     <use xlink:href="#DejaVuSans-Bold-2c" transform="translate(208.740234 0)"/>
     <use xlink:href="#DejaVuSans-Bold-39" transform="translate(246.728516 0)"/>
     <use xlink:href="#DejaVuSans-Bold-38" transform="translate(316.308594 0)"/>
     <use xlink:href="#DejaVuSans-Bold-37" transform="translate(385.888672 0)"/>
    </g>
   </g>
   <g id="text_21">
    <!-- $17,814 -->
    <g style="fill: #ff7f0e" transform="translate(871.609308 170.993647) scale(0.1 -0.1)">
     <defs>
      <path id="DejaVuSans-Bold-34" d="M 2356 3675 
L 1038 1722 
L 2356 1722 
L 2356 3675 
z
M 2156 4666 
L 3494 4666 
L 3494 1722 
L 4159 1722 
L 4159 850 
L 3494 850 
L 3494 0 
L 2356 0 
L 2356 850 
L 288 850 
L 288 1881 
L 2156 4666 
z
" transform="scale(0.015625)"/>
     </defs>
     <use xlink:href="#DejaVuSans-Bold-24"/>
     <use xlink:href="#DejaVuSans-Bold-31" transform="translate(69.580078 0)"/>
     <use xlink:href="#DejaVuSans-Bold-37" transform="translate(139.160156 0)"/>
     <use xlink:href="#DejaVuSans-Bold-2c" transform="translate(208.740234 0)"/>
     <use xlink:href="#DejaVuSans-Bold-38" transform="translate(246.728516 0)"/>
     <use xlink:href="#DejaVuSans-Bold-31" transform="translate(316.308594 0)"/>
     <use xlink:href="#DejaVuSans-Bold-34" transform="translate(385.888672 0)"/>
    </g>
   </g>
   <g id="text_22">
    <!-- Backtested Cumulative Performance (Normalized to $10,000) -->
    <g transform="translate(250.548551 18.597656) scale(0.15 -0.15)">
     <defs>
      <path id="DejaVuSans-42" d="M 1259 2228 
L 1259 519 
L 2272 519 
Q 2781 519 3026 730 
Q 3272 941 3272 1375 
Q 3272 1813 3026 2020 
Q 2781 2228 2272 2228 
L 1259 2228 
z
M 1259 4147 
L 1259 2741 
L 2194 2741 
Q 2656 2741 2882 2914 
Q 3109 3088 3109 3444 
Q 3109 3797 2882 3972 
Q 2656 4147 2194 4147 
L 1259 4147 
z
M 628 4666 
L 2241 4666 
Q 2963 4666 3353 4366 
Q 3744 4066 3744 3513 
Q 3744 3084 3544 2831 
Q 3344 2578 2956 2516 
Q 3422 2416 3680 2098 
Q 3938 1781 3938 1306 
Q 3938 681 3513 340 
Q 3088 0 2303 0 
L 628 0 
L 628 4666 
z
" transform="scale(0.015625)"/>
      <path id="DejaVuSans-61" d="M 2194 1759 
Q 1497 1759 1228 1600 
Q 959 1441 959 1056 
Q 959 750 1161 570 
Q 1363 391 1709 391 
Q 2188 391 2477 730 
Q 2766 1069 2766 1631 
L 2766 1759 
L 2194 1759 
z
M 3341 1997 
L 3341 0 
L 2766 0 
L 2766 531 
Q 2569 213 2275 61 
Q 1981 -91 1556 -91 
Q 1019 -91 701 211 
Q 384 513 384 1019 
Q 384 1609 779 1909 
Q 1175 2209 1959 2209 
L 2766 2209 
L 2766 2266 
Q 2766 2663 2505 2880 
Q 2244 3097 1772 3097 
Q 1472 3097 1187 3025 
Q 903 2953 641 2809 
L 641 3341 
Q 956 3463 1253 3523 
Q 1550 3584 1831 3584 
Q 2591 3584 2966 3190 
Q 3341 2797 3341 1997 
z
" transform="scale(0.015625)"/>
      <path id="DejaVuSans-63" d="M 3122 3366 
L 3122 2828 
Q 2878 2963 2633 3030 
Q 2388 3097 2138 3097 
Q 1578 3097 1268 2742 
Q 959 2388 959 1747 
Q 959 1106 1268 751 
Q 1578 397 2138 397 
Q 2388 397 2633 464 
Q 2878 531 3122 666 
L 3122 134 
Q 2881 22 2623 -34 
Q 2366 -91 2075 -91 
Q 1284 -91 818 406 
Q 353 903 353 1747 
Q 353 2603 823 3093 
Q 1294 3584 2113 3584 
Q 2378 3584 2631 3529 
Q 2884 3475 3122 3366 
z
" transform="scale(0.015625)"/>
      <path id="DejaVuSans-6b" d="M 581 4863 
L 1159 4863 
L 1159 1991 
L 2875 3500 
L 3609 3500 
L 1753 1863 
L 3688 0 
L 2938 0 
L 1159 1709 
L 1159 0 
L 581 0 
L 581 4863 
z
" transform="scale(0.015625)"/>
      <path id="DejaVuSans-65" d="M 3597 1894 
L 3597 1613 
L 953 1613 
Q 991 1019 1311 708 
Q 1631 397 2203 397 
Q 2534 397 2845 478 
Q 3156 559 3463 722 
L 3463 178 
Q 3153 47 2828 -22 
Q 2503 -91 2169 -91 
Q 1331 -91 842 396 
Q 353 884 353 1716 
Q 353 2575 817 3079 
Q 1281 3584 2069 3584 
Q 2775 3584 3186 3129 
Q 3597 2675 3597 1894 
z
M 3022 2063 
Q 3016 2534 2758 2815 
Q 2500 3097 2075 3097 
Q 1594 3097 1305 2825 
Q 1016 2553 972 2059 
L 3022 2063 
z
" transform="scale(0.015625)"/>
      <path id="DejaVuSans-73" d="M 2834 3397 
L 2834 2853 
Q 2591 2978 2328 3040 
Q 2066 3103 1784 3103 
Q 1356 3103 1142 2972 
Q 928 2841 928 2578 
Q 928 2378 1081 2264 
Q 1234 2150 1697 2047 
L 1894 2003 
Q 2506 1872 2764 1633 
Q 3022 1394 3022 966 
Q 3022 478 2636 193 
Q 2250 -91 1575 -91 
Q 1294 -91 989 -36 
Q 684 19 347 128 
L 347 722 
Q 666 556 975 473 
Q 1284 391 1588 391 
Q 1994 391 2212 530 
Q 2431 669 2431 922 
Q 2431 1156 2273 1281 
Q 2116 1406 1581 1522 
L 1381 1569 
Q 847 1681 609 1914 
Q 372 2147 372 2553 
Q 372 3047 722 3315 
Q 1072 3584 1716 3584 
Q 2034 3584 2315 3537 
Q 2597 3491 2834 3397 
z
" transform="scale(0.015625)"/>
      <path id="DejaVuSans-64" d="M 2906 2969 
L 2906 4863 
L 3481 4863 
L 3481 0 
L 2906 0 
L 2906 525 
Q 2725 213 2448 61 
Q 2172 -91 1784 -91 
Q 1150 -91 751 415 
Q 353 922 353 1747 
Q 353 2572 751 3078 
Q 1150 3584 1784 3584 
Q 2172 3584 2448 3432 
Q 2725 3281 2906 2969 
z
M 947 1747 
Q 947 1113 1208 752 
Q 1469 391 1925 391 
Q 2381 391 2643 752 
Q 2906 1113 2906 1747 
Q 2906 2381 2643 2742 
Q 2381 3103 1925 3103 
Q 1469 3103 1208 2742 
Q 947 2381 947 1747 
z
" transform="scale(0.015625)"/>
      <path id="DejaVuSans-43" d="M 4122 4306 
L 4122 3641 
Q 3803 3938 3442 4084 
Q 3081 4231 2675 4231 
Q 1875 4231 1450 3742 
Q 1025 3253 1025 2328 
Q 1025 1406 1450 917 
Q 1875 428 2675 428 
Q 3081 428 3442 575 
Q 3803 722 4122 1019 
L 4122 359 
Q 3791 134 3420 21 
Q 3050 -91 2638 -91 
Q 1578 -91 968 557 
Q 359 1206 359 2328 
Q 359 3453 968 4101 
Q 1578 4750 2638 4750 
Q 3056 4750 3426 4639 
Q 3797 4528 4122 4306 
z
" transform="scale(0.015625)"/>
      <path id="DejaVuSans-75" d="M 544 1381 
L 544 3500 
L 1119 3500 
L 1119 1403 
Q 1119 906 1312 657 
Q 1506 409 1894 409 
Q 2359 409 2629 706 
Q 2900 1003 2900 1516 
L 2900 3500 
L 3475 3500 
L 3475 0 
L 2900 0 
L 2900 538 
Q 2691 219 2414 64 
Q 2138 -91 1772 -91 
Q 1169 -91 856 284 
Q 544 659 544 1381 
z
M 1991 3584 
L 1991 3584 
z
" transform="scale(0.015625)"/>
      <path id="DejaVuSans-6d" d="M 3328 2828 
Q 3544 3216 3844 3400 
Q 4144 3584 4550 3584 
Q 5097 3584 5394 3201 
Q 5691 2819 5691 2113 
L 5691 0 
L 5113 0 
L 5113 2094 
Q 5113 2597 4934 2840 
Q 4756 3084 4391 3084 
Q 3944 3084 3684 2787 
Q 3425 2491 3425 1978 
L 3425 0 
L 2847 0 
L 2847 2094 
Q 2847 2600 2669 2842 
Q 2491 3084 2119 3084 
Q 1678 3084 1418 2786 
Q 1159 2488 1159 1978 
L 1159 0 
L 581 0 
L 581 3500 
L 1159 3500 
L 1159 2956 
Q 1356 3278 1631 3431 
Q 1906 3584 2284 3584 
Q 2666 3584 2933 3390 
Q 3200 3197 3328 2828 
z
" transform="scale(0.015625)"/>
      <path id="DejaVuSans-6c" d="M 603 4863 
L 1178 4863 
L 1178 0 
L 603 0 
L 603 4863 
z
" transform="scale(0.015625)"/>
      <path id="DejaVuSans-69" d="M 603 3500 
L 1178 3500 
L 1178 0 
L 603 0 
L 603 3500 
z
M 603 4863 
L 1178 4863 
L 1178 4134 
L 603 4134 
L 603 4863 
z
" transform="scale(0.015625)"/>
      <path id="DejaVuSans-76" d="M 191 3500 
L 800 3500 
L 1894 563 
L 2988 3500 
L 3597 3500 
L 2284 0 
L 1503 0 
L 191 3500 
z
" transform="scale(0.015625)"/>
      <path id="DejaVuSans-50" d="M 1259 4147 
L 1259 2394 
L 2053 2394 
Q 2494 2394 2734 2622 
Q 2975 2850 2975 3272 
Q 2975 3691 2734 3919 
Q 2494 4147 2053 4147 
L 1259 4147 
z
M 628 4666 
L 2053 4666 
Q 2838 4666 3239 4311 
Q 3641 3956 3641 3272 
Q 3641 2581 3239 2228 
Q 2838 1875 2053 1875 
L 1259 1875 
L 1259 0 
L 628 0 
L 628 4666 
z
" transform="scale(0.015625)"/>
      <path id="DejaVuSans-6e" d="M 3513 2113 
L 3513 0 
L 2938 0 
L 2938 2094 
Q 2938 2591 2744 2837 
Q 2550 3084 2163 3084 
Q 1697 3084 1428 2787 
Q 1159 2491 1159 1978 
L 1159 0 
L 581 0 
L 581 3500 
L 1159 3500 
L 1159 2956 
Q 1366 3272 1645 3428 
Q 1925 3584 2291 3584 
Q 2894 3584 3203 3211 
Q 3513 2838 3513 2113 
z
" transform="scale(0.015625)"/>
      <path id="DejaVuSans-28" d="M 1984 4856 
Q 1566 4138 1362 3434 
Q 1159 2731 1159 2009 
Q 1159 1288 1364 580 
Q 1569 -128 1984 -844 
L 1484 -844 
Q 1016 -109 783 600 
Q 550 1309 550 2009 
Q 550 2706 781 3412 
Q 1013 4119 1484 4856 
L 1984 4856 
z
" transform="scale(0.015625)"/>
      <path id="DejaVuSans-4e" d="M 628 4666 
L 1478 4666 
L 3547 763 
L 3547 4666 
L 4159 4666 
L 4159 0 
L 3309 0 
L 1241 3903 
L 1241 0 
L 628 0 
L 628 4666 
z
" transform="scale(0.015625)"/>
      <path id="DejaVuSans-7a" d="M 353 3500 
L 3084 3500 
L 3084 2975 
L 922 459 
L 3084 459 
L 3084 0 
L 275 0 
L 275 525 
L 2438 3041 
L 353 3041 
L 353 3500 
z
" transform="scale(0.015625)"/>
      <path id="DejaVuSans-29" d="M 513 4856 
L 1013 4856 
Q 1481 4119 1714 3412 
Q 1947 2706 1947 2009 
Q 1947 1309 1714 600 
Q 1481 -109 1013 -844 
L 513 -844 
Q 928 -128 1133 580 
Q 1338 1288 1338 2009 
Q 1338 2731 1133 3434 
Q 928 4138 513 4856 
z
" transform="scale(0.015625)"/>
     </defs>
     <use xlink:href="#DejaVuSans-42"/>
     <use xlink:href="#DejaVuSans-61" transform="translate(68.603516 0)"/>
     <use xlink:href="#DejaVuSans-63" transform="translate(129.882812 0)"/>
     <use xlink:href="#DejaVuSans-6b" transform="translate(184.863281 0)"/>
     <use xlink:href="#DejaVuSans-74" transform="translate(242.773438 0)"/>
     <use xlink:href="#DejaVuSans-65" transform="translate(281.982422 0)"/>
     <use xlink:href="#DejaVuSans-73" transform="translate(343.505859 0)"/>
     <use xlink:href="#DejaVuSans-74" transform="translate(395.605469 0)"/>
     <use xlink:href="#DejaVuSans-65" transform="translate(434.814453 0)"/>
     <use xlink:href="#DejaVuSans-64" transform="translate(496.337891 0)"/>
     <use xlink:href="#DejaVuSans-20" transform="translate(559.814453 0)"/>
     <use xlink:href="#DejaVuSans-43" transform="translate(591.601562 0)"/>
     <use xlink:href="#DejaVuSans-75" transform="translate(661.425781 0)"/>
     <use xlink:href="#DejaVuSans-6d" transform="translate(724.804688 0)"/>
     <use xlink:href="#DejaVuSans-75" transform="translate(822.216797 0)"/>
     <use xlink:href="#DejaVuSans-6c" transform="translate(885.595703 0)"/>
     <use xlink:href="#DejaVuSans-61" transform="translate(913.378906 0)"/>
     <use xlink:href="#DejaVuSans-74" transform="translate(974.658203 0)"/>
     <use xlink:href="#DejaVuSans-69" transform="translate(1013.867188 0)"/>
     <use xlink:href="#DejaVuSans-76" transform="translate(1041.650391 0)"/>
     <use xlink:href="#DejaVuSans-65" transform="translate(1100.830078 0)"/>
     <use xlink:href="#DejaVuSans-20" transform="translate(1162.353516 0)"/>
     <use xlink:href="#DejaVuSans-50" transform="translate(1194.140625 0)"/>
     <use xlink:href="#DejaVuSans-65" transform="translate(1250.818359 0)"/>
     <use xlink:href="#DejaVuSans-72" transform="translate(1312.341797 0)"/>
     <use xlink:href="#DejaVuSans-66" transform="translate(1353.455078 0)"/>
     <use xlink:href="#DejaVuSans-6f" transform="translate(1388.660156 0)"/>
     <use xlink:href="#DejaVuSans-72" transform="translate(1449.841797 0)"/>
     <use xlink:href="#DejaVuSans-6d" transform="translate(1489.205078 0)"/>
     <use xlink:href="#DejaVuSans-61" transform="translate(1586.617188 0)"/>
     <use xlink:href="#DejaVuSans-6e" transform="translate(1647.896484 0)"/>
     <use xlink:href="#DejaVuSans-63" transform="translate(1711.275391 0)"/>
     <use xlink:href="#DejaVuSans-65" transform="translate(1766.255859 0)"/>
     <use xlink:href="#DejaVuSans-20" transform="translate(1827.779297 0)"/>
     <use xlink:href="#DejaVuSans-28" transform="translate(1859.566406 0)"/>
     <use xlink:href="#DejaVuSans-4e" transform="translate(1898.580078 0)"/>
     <use xlink:href="#DejaVuSans-6f" transform="translate(1973.384766 0)"/>
     <use xlink:href="#DejaVuSans-72" transform="translate(2034.566406 0)"/>
     <use xlink:href="#DejaVuSans-6d" transform="translate(2073.929688 0)"/>
     <use xlink:href="#DejaVuSans-61" transform="translate(2171.341797 0)"/>
     <use xlink:href="#DejaVuSans-6c" transform="translate(2232.621094 0)"/>
     <use xlink:href="#DejaVuSans-69" transform="translate(2260.404297 0)"/>
     <use xlink:href="#DejaVuSans-7a" transform="translate(2288.1875 0)"/>
     <use xlink:href="#DejaVuSans-65" transform="translate(2340.677734 0)"/>
     <use xlink:href="#DejaVuSans-64" transform="translate(2402.201172 0)"/>
     <use xlink:href="#DejaVuSans-20" transform="translate(2465.677734 0)"/>
     <use xlink:href="#DejaVuSans-74" transform="translate(2497.464844 0)"/>
     <use xlink:href="#DejaVuSans-6f" transform="translate(2536.673828 0)"/>
     <use xlink:href="#DejaVuSans-20" transform="translate(2597.855469 0)"/>
     <use xlink:href="#DejaVuSans-24" transform="translate(2629.642578 0)"/>
     <use xlink:href="#DejaVuSans-31" transform="translate(2693.265625 0)"/>
     <use xlink:href="#DejaVuSans-30" transform="translate(2756.888672 0)"/>
     <use xlink:href="#DejaVuSans-2c" transform="translate(2820.511719 0)"/>
     <use xlink:href="#DejaVuSans-30" transform="translate(2852.298828 0)"/>
     <use xlink:href="#DejaVuSans-30" transform="translate(2915.921875 0)"/>
     <use xlink:href="#DejaVuSans-30" transform="translate(2979.544922 0)"/>
     <use xlink:href="#DejaVuSans-29" transform="translate(3043.167969 0)"/>
    </g>
   </g>
   <g id="legend_1">
    <g id="line2d_21">
     <path d="M 69.72625 36.38625 
L 78.72625 36.38625 
L 87.72625 36.38625 
" style="fill: none; stroke: #1f77b4; stroke-width: 2.8; stroke-linecap: square"/>
    </g>
    <g id="text_23">
     <!-- Diamond Creek ETF Arb Fund (Net) -->
     <g transform="translate(94.92625 39.53625) scale(0.09 -0.09)">
      <defs>
       <path id="DejaVuSans-44" d="M 1259 4147 
L 1259 519 
L 2022 519 
Q 2988 519 3436 956 
Q 3884 1394 3884 2338 
Q 3884 3275 3436 3711 
Q 2988 4147 2022 4147 
L 1259 4147 
z
M 628 4666 
L 1925 4666 
Q 3281 4666 3915 4102 
Q 4550 3538 4550 2338 
Q 4550 1131 3912 565 
Q 3275 0 1925 0 
L 628 0 
L 628 4666 
z
" transform="scale(0.015625)"/>
       <path id="DejaVuSans-45" d="M 628 4666 
L 3578 4666 
L 3578 4134 
L 1259 4134 
L 1259 2753 
L 3481 2753 
L 3481 2222 
L 1259 2222 
L 1259 531 
L 3634 531 
L 3634 0 
L 628 0 
L 628 4666 
z
" transform="scale(0.015625)"/>
       <path id="DejaVuSans-54" d="M -19 4666 
L 3928 4666 
L 3928 4134 
L 2272 4134 
L 2272 0 
L 1638 0 
L 1638 4134 
L -19 4134 
L -19 4666 
z
" transform="scale(0.015625)"/>
       <path id="DejaVuSans-46" d="M 628 4666 
L 3309 4666 
L 3309 4134 
L 1259 4134 
L 1259 2759 
L 3109 2759 
L 3109 2228 
L 1259 2228 
L 1259 0 
L 628 0 
L 628 4666 
z
" transform="scale(0.015625)"/>
       <path id="DejaVuSans-41" d="M 2188 4044 
L 1331 1722 
L 3047 1722 
L 2188 4044 
z
M 1831 4666 
L 2547 4666 
L 4325 0 
L 3669 0 
L 3244 1197 
L 1141 1197 
L 716 0 
L 50 0 
L 1831 4666 
z
" transform="scale(0.015625)"/>
       <path id="DejaVuSans-62" d="M 3116 1747 
Q 3116 2381 2855 2742 
Q 2594 3103 2138 3103 
Q 1681 3103 1420 2742 
Q 1159 2381 1159 1747 
Q 1159 1113 1420 752 
Q 1681 391 2138 391 
Q 2594 391 2855 752 
Q 3116 1113 3116 1747 
z
M 1159 2969 
Q 1341 3281 1617 3432 
Q 1894 3584 2278 3584 
Q 2916 3584 3314 3078 
Q 3713 2572 3713 1747 
Q 3713 922 3314 415 
Q 2916 -91 2278 -91 
Q 1894 -91 1617 61 
Q 1341 213 1159 525 
L 1159 0 
L 581 0 
L 581 4863 
L 1159 4863 
L 1159 2969 
z
" transform="scale(0.015625)"/>
      </defs>
      <use xlink:href="#DejaVuSans-44"/>
      <use xlink:href="#DejaVuSans-69" transform="translate(77.001953 0)"/>
      <use xlink:href="#DejaVuSans-61" transform="translate(104.785156 0)"/>
      <use xlink:href="#DejaVuSans-6d" transform="translate(166.064453 0)"/>
      <use xlink:href="#DejaVuSans-6f" transform="translate(263.476562 0)"/>
      <use xlink:href="#DejaVuSans-6e" transform="translate(324.658203 0)"/>
      <use xlink:href="#DejaVuSans-64" transform="translate(388.037109 0)"/>
      <use xlink:href="#DejaVuSans-20" transform="translate(451.513672 0)"/>
      <use xlink:href="#DejaVuSans-43" transform="translate(483.300781 0)"/>
      <use xlink:href="#DejaVuSans-72" transform="translate(553.125 0)"/>
      <use xlink:href="#DejaVuSans-65" transform="translate(591.988281 0)"/>
      <use xlink:href="#DejaVuSans-65" transform="translate(653.511719 0)"/>
      <use xlink:href="#DejaVuSans-6b" transform="translate(715.035156 0)"/>
      <use xlink:href="#DejaVuSans-20" transform="translate(772.945312 0)"/>
      <use xlink:href="#DejaVuSans-45" transform="translate(804.732422 0)"/>
      <use xlink:href="#DejaVuSans-54" transform="translate(867.916016 0)"/>
      <use xlink:href="#DejaVuSans-46" transform="translate(929 0)"/>
      <use xlink:href="#DejaVuSans-20" transform="translate(986.519531 0)"/>
      <use xlink:href="#DejaVuSans-41" transform="translate(1018.306641 0)"/>
      <use xlink:href="#DejaVuSans-72" transform="translate(1086.714844 0)"/>
      <use xlink:href="#DejaVuSans-62" transform="translate(1127.828125 0)"/>
      <use xlink:href="#DejaVuSans-20" transform="translate(1191.304688 0)"/>
      <use xlink:href="#DejaVuSans-46" transform="translate(1223.091797 0)"/>
      <use xlink:href="#DejaVuSans-75" transform="translate(1275.111328 0)"/>
      <use xlink:href="#DejaVuSans-6e" transform="translate(1338.490234 0)"/>
      <use xlink:href="#DejaVuSans-64" transform="translate(1401.869141 0)"/>
      <use xlink:href="#DejaVuSans-20" transform="translate(1465.345703 0)"/>
      <use xlink:href="#DejaVuSans-28" transform="translate(1497.132812 0)"/>
      <use xlink:href="#DejaVuSans-4e" transform="translate(1536.146484 0)"/>
      <use xlink:href="#DejaVuSans-65" transform="translate(1610.951172 0)"/>
      <use xlink:href="#DejaVuSans-74" transform="translate(1672.474609 0)"/>
      <use xlink:href="#DejaVuSans-29" transform="translate(1711.683594 0)"/>
     </g>
    </g>
    <g id="line2d_22">
     <path d="M 69.72625 49.596562 
L 78.72625 49.596562 
L 87.72625 49.596562 
" style="fill: none; stroke-dasharray: 8.14,3.52; stroke-dashoffset: 0; stroke: #ff7f0e; stroke-width: 2.2"/>
    </g>
    <g id="text_24">
     <!-- SPY (Total Return) -->
     <g transform="translate(94.92625 52.746562) scale(0.09 -0.09)">
      <defs>
       <path id="DejaVuSans-53" d="M 3425 4513 
L 3425 3897 
Q 3066 4069 2747 4153 
Q 2428 4238 2131 4238 
Q 1616 4238 1336 4038 
Q 1056 3838 1056 3469 
Q 1056 3159 1242 3001 
Q 1428 2844 1947 2747 
L 2328 2669 
Q 3034 2534 3370 2195 
Q 3706 1856 3706 1288 
Q 3706 609 3251 259 
Q 2797 -91 1919 -91 
Q 1588 -91 1214 -16 
Q 841 59 441 206 
L 441 856 
Q 825 641 1194 531 
Q 1563 422 1919 422 
Q 2459 422 2753 634 
Q 3047 847 3047 1241 
Q 3047 1584 2836 1778 
Q 2625 1972 2144 2069 
L 1759 2144 
Q 1053 2284 737 2584 
Q 422 2884 422 3419 
Q 422 4038 858 4394 
Q 1294 4750 2059 4750 
Q 2388 4750 2728 4690 
Q 3069 4631 3425 4513 
z
" transform="scale(0.015625)"/>
       <path id="DejaVuSans-59" d="M -13 4666 
L 666 4666 
L 1959 2747 
L 3244 4666 
L 3922 4666 
L 2272 2222 
L 2272 0 
L 1638 0 
L 1638 2222 
L -13 4666 
z
" transform="scale(0.015625)"/>
       <path id="DejaVuSans-52" d="M 2841 2188 
Q 3044 2119 3236 1894 
Q 3428 1669 3622 1275 
L 4263 0 
L 3584 0 
L 2988 1197 
Q 2756 1666 2539 1819 
Q 2322 1972 1947 1972 
L 1259 1972 
L 1259 0 
L 628 0 
L 628 4666 
L 2053 4666 
Q 2853 4666 3247 4331 
Q 3641 3997 3641 3322 
Q 3641 2881 3436 2590 
Q 3231 2300 2841 2188 
z
M 1259 4147 
L 1259 2491 
L 2053 2491 
Q 2509 2491 2742 2702 
Q 2975 2913 2975 3322 
Q 2975 3731 2742 3939 
Q 2509 4147 2053 4147 
L 1259 4147 
z
" transform="scale(0.015625)"/>
      </defs>
      <use xlink:href="#DejaVuSans-53"/>
      <use xlink:href="#DejaVuSans-50" transform="translate(63.476562 0)"/>
      <use xlink:href="#DejaVuSans-59" transform="translate(121.529297 0)"/>
      <use xlink:href="#DejaVuSans-20" transform="translate(182.613281 0)"/>
      <use xlink:href="#DejaVuSans-28" transform="translate(214.400391 0)"/>
      <use xlink:href="#DejaVuSans-54" transform="translate(253.414062 0)"/>
      <use xlink:href="#DejaVuSans-6f" transform="translate(297.498047 0)"/>
      <use xlink:href="#DejaVuSans-74" transform="translate(358.679688 0)"/>
      <use xlink:href="#DejaVuSans-61" transform="translate(397.888672 0)"/>
      <use xlink:href="#DejaVuSans-6c" transform="translate(459.167969 0)"/>
      <use xlink:href="#DejaVuSans-20" transform="translate(486.951172 0)"/>
      <use xlink:href="#DejaVuSans-52" transform="translate(518.738281 0)"/>
      <use xlink:href="#DejaVuSans-65" transform="translate(583.720703 0)"/>
      <use xlink:href="#DejaVuSans-74" transform="translate(645.244141 0)"/>
      <use xlink:href="#DejaVuSans-75" transform="translate(684.453125 0)"/>
      <use xlink:href="#DejaVuSans-72" transform="translate(747.832031 0)"/>
      <use xlink:href="#DejaVuSans-6e" transform="translate(787.195312 0)"/>
      <use xlink:href="#DejaVuSans-29" transform="translate(850.574219 0)"/>
     </g>
    </g>
   </g>
  </g>
 </g>
 <defs>
  <clipPath id="p72a0545055">
   <rect x="61.62625" y="24.597656" width="840.172727" height="375.8"/>
  </clipPath>
 </defs>
</svg>
