<?xml version="1.0" encoding="utf-8" standalone="no"?>
<!DOCTYPE svg PUBLIC "-//W3C//DTD SVG 1.1//EN"
  "http://www.w3.org/Graphics/SVG/1.1/DTD/svg11.dtd">
<svg xmlns:xlink="http://www.w3.org/1999/xlink" width="924.35462pt" height="424.275781pt" viewBox="0 0 924.35462 424.275781" xmlns="http://www.w3.org/2000/svg" version="1.1">
 <metadata>
  <rdf:RDF xmlns:dc="http://purl.org/dc/elements/1.1/" xmlns:cc="http://creativecommons.org/ns#" xmlns:rdf="http://www.w3.org/1999/02/22-rdf-syntax-ns#">
   <cc:Work>
    <dc:type rdf:resource="http://purl.org/dc/dcmitype/StillImage"/>
    <dc:date>2026-04-20T10:46:10.926586</dc:date>
    <dc:format>image/svg+xml</dc:format>
    <dc:creator>
     <cc:Agent>
      <dc:title>Matplotlib v3.10.8, https://matplotlib.org/</dc:title>
     </cc:Agent>
    </dc:creator>
   </cc:Work>
  </rdf:RDF>
 </metadata>
 <defs>
  <style type="text/css">*{stroke-linejoin: round; stroke-linecap: butt}</style>
 </defs>
 <g id="figure_1">
  <g id="patch_1">
   <path d="M 0 424.275781 
L 924.35462 424.275781 
L 924.35462 0 
L 0 0 
z
" style="fill: #ffffff"/>
  </g>
  <g id="axes_1">
   <g id="patch_2">
    <path d="M 61.62625 400.397656 
L 901.798977 400.397656 
L 901.798977 24.597656 
L 61.62625 24.597656 
z
" style="fill: #ffffff"/>
   </g>
   <g id="matplotlib.axis_1">
    <g id="xtick_1">
     <g id="line2d_1">
      <defs>
       <path id="m756919359f" d="M 0 0 
L 0 3.5 
" style="stroke: #000000; stroke-width: 0.8"/>
      </defs>
      <g>
       <use xlink:href="#m756919359f" x="98.524637" y="400.397656" style="stroke: #000000; stroke-width: 0.8"/>
      </g>
     </g>
     <g id="text_1">
      <!-- 2023-01 -->
      <g transform="translate(77.633231 414.996094) scale(0.1 -0.1)">
       <defs>
        <path id="DejaVuSans-32" d="M 1228 531 
L 3431 531 
L 3431 0 
L 469 0 
L 469 531 
Q 828 903 1448 1529 
Q 2069 2156 2228 2338 
Q 2531 2678 2651 2914 
Q 2772 3150 2772 3378 
Q 2772 3750 2511 3984 
Q 2250 4219 1831 4219 
Q 1534 4219 1204 4116 
Q 875 4013 500 3803 
L 500 4441 
Q 881 4594 1212 4672 
Q 1544 4750 1819 4750 
Q 2544 4750 2975 4387 
Q 3406 4025 3406 3419 
Q 3406 3131 3298 2873 
Q 3191 2616 2906 2266 
Q 2828 2175 2409 1742 
Q 1991 1309 1228 531 
z
" transform="scale(0.015625)"/>
        <path id="DejaVuSans-30" d="M 2034 4250 
Q 1547 4250 1301 3770 
Q 1056 3291 1056 2328 
Q 1056 1369 1301 889 
Q 1547 409 2034 409 
Q 2525 409 2770 889 
Q 3016 1369 3016 2328 
Q 3016 3291 2770 3770 
Q 2525 4250 2034 4250 
z
M 2034 4750 
Q 2819 4750 3233 4129 
Q 3647 3509 3647 2328 
Q 3647 1150 3233 529 
Q 2819 -91 2034 -91 
Q 1250 -91 836 529 
Q 422 1150 422 2328 
Q 422 3509 836 4129 
Q 1250 4750 2034 4750 
z
" transform="scale(0.015625)"/>
        <path id="DejaVuSans-33" d="M 2597 2516 
Q 3050 2419 3304 2112 
Q 3559 1806 3559 1356 
Q 3559 666 3084 287 
Q 2609 -91 1734 -91 
Q 1441 -91 1130 -33 
Q 819 25 488 141 
L 488 750 
Q 750 597 1062 519 
Q 1375 441 1716 441 
Q 2309 441 2620 675 
Q 2931 909 2931 1356 
Q 2931 1769 2642 2001 
Q 2353 2234 1838 2234 
L 1294 2234 
L 1294 2753 
L 1863 2753 
Q 2328 2753 2575 2939 
Q 2822 3125 2822 3475 
Q 2822 3834 2567 4026 
Q 2313 4219 1838 4219 
Q 1578 4219 1281 4162 
Q 984 4106 628 3988 
L 628 4550 
Q 988 4650 1302 4700 
Q 1616 4750 1894 4750 
Q 2613 4750 3031 4423 
Q 3450 4097 3450 3541 
Q 3450 3153 3228 2886 
Q 3006 2619 2597 2516 
z
" transform="scale(0.015625)"/>
        <path id="DejaVuSans-2d" d="M 313 2009 
L 1997 2009 
L 1997 1497 
L 313 1497 
L 313 2009 
z
" transform="scale(0.015625)"/>
        <path id="DejaVuSans-31" d="M 794 531 
L 1825 531 
L 1825 4091 
L 703 3866 
L 703 4441 
L 1819 4666 
L 2450 4666 
L 2450 531 
L 3481 531 
L 3481 0 
L 794 0 
L 794 531 
z
" transform="scale(0.015625)"/>
       </defs>
       <use xlink:href="#DejaVuSans-32"/>
       <use xlink:href="#DejaVuSans-30" transform="translate(63.623047 0)"/>
       <use xlink:href="#DejaVuSans-32" transform="translate(127.246094 0)"/>
       <use xlink:href="#DejaVuSans-33" transform="translate(190.869141 0)"/>
       <use xlink:href="#DejaVuSans-2d" transform="translate(254.492188 0)"/>
       <use xlink:href="#DejaVuSans-30" transform="translate(290.576172 0)"/>
       <use xlink:href="#DejaVuSans-31" transform="translate(354.199219 0)"/>
      </g>
     </g>
    </g>
    <g id="xtick_2">
     <g id="line2d_2">
      <g>
       <use xlink:href="#m756919359f" x="176.001566" y="400.397656" style="stroke: #000000; stroke-width: 0.8"/>
      </g>
     </g>
     <g id="text_2">
      <!-- 2023-05 -->
      <g transform="translate(155.11016 414.996094) scale(0.1 -0.1)">
       <defs>
        <path id="DejaVuSans-35" d="M 691 4666 
L 3169 4666 
L 3169 4134 
L 1269 4134 
L 1269 2991 
Q 1406 3038 1543 3061 
Q 1681 3084 1819 3084 
Q 2600 3084 3056 2656 
Q 3513 2228 3513 1497 
Q 3513 744 3044 326 
Q 2575 -91 1722 -91 
Q 1428 -91 1123 -41 
Q 819 9 494 109 
L 494 744 
Q 775 591 1075 516 
Q 1375 441 1709 441 
Q 2250 441 2565 725 
Q 2881 1009 2881 1497 
Q 2881 1984 2565 2268 
Q 2250 2553 1709 2553 
Q 1456 2553 1204 2497 
Q 953 2441 691 2322 
L 691 4666 
z
" transform="scale(0.015625)"/>
       </defs>
       <use xlink:href="#DejaVuSans-32"/>
       <use xlink:href="#DejaVuSans-30" transform="translate(63.623047 0)"/>
       <use xlink:href="#DejaVuSans-32" transform="translate(127.246094 0)"/>
       <use xlink:href="#DejaVuSans-33" transform="translate(190.869141 0)"/>
       <use xlink:href="#DejaVuSans-2d" transform="translate(254.492188 0)"/>
       <use xlink:href="#DejaVuSans-30" transform="translate(290.576172 0)"/>
       <use xlink:href="#DejaVuSans-35" transform="translate(354.199219 0)"/>
      </g>
     </g>
    </g>
    <g id="xtick_3">
     <g id="line2d_3">
      <g>
       <use xlink:href="#m756919359f" x="255.415418" y="400.397656" style="stroke: #000000; stroke-width: 0.8"/>
      </g>
     </g>
     <g id="text_3">
      <!-- 2023-09 -->
      <g transform="translate(234.524012 414.996094) scale(0.1 -0.1)">
       <defs>
        <path id="DejaVuSans-39" d="M 703 97 
L 703 672 
Q 941 559 1184 500 
Q 1428 441 1663 441 
Q 2288 441 2617 861 
Q 2947 1281 2994 2138 
Q 2813 1869 2534 1725 
Q 2256 1581 1919 1581 
Q 1219 1581 811 2004 
Q 403 2428 403 3163 
Q 403 3881 828 4315 
Q 1253 4750 1959 4750 
Q 2769 4750 3195 4129 
Q 3622 3509 3622 2328 
Q 3622 1225 3098 567 
Q 2575 -91 1691 -91 
Q 1453 -91 1209 -44 
Q 966 3 703 97 
z
M 1959 2075 
Q 2384 2075 2632 2365 
Q 2881 2656 2881 3163 
Q 2881 3666 2632 3958 
Q 2384 4250 1959 4250 
Q 1534 4250 1286 3958 
Q 1038 3666 1038 3163 
Q 1038 2656 1286 2365 
Q 1534 2075 1959 2075 
z
" transform="scale(0.015625)"/>
       </defs>
       <use xlink:href="#DejaVuSans-32"/>
       <use xlink:href="#DejaVuSans-30" transform="translate(63.623047 0)"/>
       <use xlink:href="#DejaVuSans-32" transform="translate(127.246094 0)"/>
       <use xlink:href="#DejaVuSans-33" transform="translate(190.869141 0)"/>
       <use xlink:href="#DejaVuSans-2d" transform="translate(254.492188 0)"/>
       <use xlink:href="#DejaVuSans-30" transform="translate(290.576172 0)"/>
       <use xlink:href="#DejaVuSans-39" transform="translate(354.199219 0)"/>
      </g>
     </g>
    </g>
    <g id="xtick_4">
     <g id="line2d_4">
      <g>
       <use xlink:href="#m756919359f" x="334.183629" y="400.397656" style="stroke: #000000; stroke-width: 0.8"/>
      </g>
     </g>
     <g id="text_4">
      <!-- 2024-01 -->
      <g transform="translate(313.292222 414.996094) scale(0.1 -0.1)">
       <defs>
        <path id="DejaVuSans-34" d="M 2419 4116 
L 825 1625 
L 2419 1625 
L 2419 4116 
z
M 2253 4666 
L 3047 4666 
L 3047 1625 
L 3713 1625 
L 3713 1100 
L 3047 1100 
L 3047 0 
L 2419 0 
L 2419 1100 
L 313 1100 
L 313 1709 
L 2253 4666 
z
" transform="scale(0.015625)"/>
       </defs>
       <use xlink:href="#DejaVuSans-32"/>
       <use xlink:href="#DejaVuSans-30" transform="translate(63.623047 0)"/>
       <use xlink:href="#DejaVuSans-32" transform="translate(127.246094 0)"/>
       <use xlink:href="#DejaVuSans-34" transform="translate(190.869141 0)"/>
       <use xlink:href="#DejaVuSans-2d" transform="translate(254.492188 0)"/>
       <use xlink:href="#DejaVuSans-30" transform="translate(290.576172 0)"/>
       <use xlink:href="#DejaVuSans-31" transform="translate(354.199219 0)"/>
      </g>
     </g>
    </g>
    <g id="xtick_5">
     <g id="line2d_5">
      <g>
       <use xlink:href="#m756919359f" x="412.306198" y="400.397656" style="stroke: #000000; stroke-width: 0.8"/>
      </g>
     </g>
     <g id="text_5">
      <!-- 2024-05 -->
      <g transform="translate(391.414792 414.996094) scale(0.1 -0.1)">
       <use xlink:href="#DejaVuSans-32"/>
       <use xlink:href="#DejaVuSans-30" transform="translate(63.623047 0)"/>
       <use xlink:href="#DejaVuSans-32" transform="translate(127.246094 0)"/>
       <use xlink:href="#DejaVuSans-34" transform="translate(190.869141 0)"/>
       <use xlink:href="#DejaVuSans-2d" transform="translate(254.492188 0)"/>
       <use xlink:href="#DejaVuSans-30" transform="translate(290.576172 0)"/>
       <use xlink:href="#DejaVuSans-35" transform="translate(354.199219 0)"/>
      </g>
     </g>
    </g>
    <g id="xtick_6">
     <g id="line2d_6">
      <g>
       <use xlink:href="#m756919359f" x="491.72005" y="400.397656" style="stroke: #000000; stroke-width: 0.8"/>
      </g>
     </g>
     <g id="text_6">
      <!-- 2024-09 -->
      <g transform="translate(470.828644 414.996094) scale(0.1 -0.1)">
       <use xlink:href="#DejaVuSans-32"/>
       <use xlink:href="#DejaVuSans-30" transform="translate(63.623047 0)"/>
       <use xlink:href="#DejaVuSans-32" transform="translate(127.246094 0)"/>
       <use xlink:href="#DejaVuSans-34" transform="translate(190.869141 0)"/>
       <use xlink:href="#DejaVuSans-2d" transform="translate(254.492188 0)"/>
       <use xlink:href="#DejaVuSans-30" transform="translate(290.576172 0)"/>
       <use xlink:href="#DejaVuSans-39" transform="translate(354.199219 0)"/>
      </g>
     </g>
    </g>
    <g id="xtick_7">
     <g id="line2d_7">
      <g>
       <use xlink:href="#m756919359f" x="570.488261" y="400.397656" style="stroke: #000000; stroke-width: 0.8"/>
      </g>
     </g>
     <g id="text_7">
      <!-- 2025-01 -->
      <g transform="translate(549.596855 414.996094) scale(0.1 -0.1)">
       <use xlink:href="#DejaVuSans-32"/>
       <use xlink:href="#DejaVuSans-30" transform="translate(63.623047 0)"/>
       <use xlink:href="#DejaVuSans-32" transform="translate(127.246094 0)"/>
       <use xlink:href="#DejaVuSans-35" transform="translate(190.869141 0)"/>
       <use xlink:href="#DejaVuSans-2d" transform="translate(254.492188 0)"/>
       <use xlink:href="#DejaVuSans-30" transform="translate(290.576172 0)"/>
       <use xlink:href="#DejaVuSans-31" transform="translate(354.199219 0)"/>
      </g>
     </g>
    </g>
    <g id="xtick_8">
     <g id="line2d_8">
      <g>
       <use xlink:href="#m756919359f" x="647.96519" y="400.397656" style="stroke: #000000; stroke-width: 0.8"/>
      </g>
     </g>
     <g id="text_8">
      <!-- 2025-05 -->
      <g transform="translate(627.073783 414.996094) scale(0.1 -0.1)">
       <use xlink:href="#DejaVuSans-32"/>
       <use xlink:href="#DejaVuSans-30" transform="translate(63.623047 0)"/>
       <use xlink:href="#DejaVuSans-32" transform="translate(127.246094 0)"/>
       <use xlink:href="#DejaVuSans-35" transform="translate(190.869141 0)"/>
       <use xlink:href="#DejaVuSans-2d" transform="translate(254.492188 0)"/>
       <use xlink:href="#DejaVuSans-30" transform="translate(290.576172 0)"/>
       <use xlink:href="#DejaVuSans-35" transform="translate(354.199219 0)"/>
      </g>
     </g>
    </g>
    <g id="xtick_9">
     <g id="line2d_9">
      <g>
       <use xlink:href="#m756919359f" x="727.379042" y="400.397656" style="stroke: #000000; stroke-width: 0.8"/>
      </g>
     </g>
     <g id="text_9">
      <!-- 2025-09 -->
      <g transform="translate(706.487635 414.996094) scale(0.1 -0.1)">
       <use xlink:href="#DejaVuSans-32"/>
       <use xlink:href="#DejaVuSans-30" transform="translate(63.623047 0)"/>
       <use xlink:href="#DejaVuSans-32" transform="translate(127.246094 0)"/>
       <use xlink:href="#DejaVuSans-35" transform="translate(190.869141 0)"/>
       <use xlink:href="#DejaVuSans-2d" transform="translate(254.492188 0)"/>
       <use xlink:href="#DejaVuSans-30" transform="translate(290.576172 0)"/>
       <use xlink:href="#DejaVuSans-39" transform="translate(354.199219 0)"/>
      </g>
     </g>
    </g>
    <g id="xtick_10">
     <g id="line2d_10">
      <g>
       <use xlink:href="#m756919359f" x="806.147252" y="400.397656" style="stroke: #000000; stroke-width: 0.8"/>
      </g>
     </g>
     <g id="text_10">
      <!-- 2026-01 -->
      <g transform="translate(785.255846 414.996094) scale(0.1 -0.1)">
       <defs>
        <path id="DejaVuSans-36" d="M 2113 2584 
Q 1688 2584 1439 2293 
Q 1191 2003 1191 1497 
Q 1191 994 1439 701 
Q 1688 409 2113 409 
Q 2538 409 2786 701 
Q 3034 994 3034 1497 
Q 3034 2003 2786 2293 
Q 2538 2584 2113 2584 
z
M 3366 4563 
L 3366 3988 
Q 3128 4100 2886 4159 
Q 2644 4219 2406 4219 
Q 1781 4219 1451 3797 
Q 1122 3375 1075 2522 
Q 1259 2794 1537 2939 
Q 1816 3084 2150 3084 
Q 2853 3084 3261 2657 
Q 3669 2231 3669 1497 
Q 3669 778 3244 343 
Q 2819 -91 2113 -91 
Q 1303 -91 875 529 
Q 447 1150 447 2328 
Q 447 3434 972 4092 
Q 1497 4750 2381 4750 
Q 2619 4750 2861 4703 
Q 3103 4656 3366 4563 
z
" transform="scale(0.015625)"/>
       </defs>
       <use xlink:href="#DejaVuSans-32"/>
       <use xlink:href="#DejaVuSans-30" transform="translate(63.623047 0)"/>
       <use xlink:href="#DejaVuSans-32" transform="translate(127.246094 0)"/>
       <use xlink:href="#DejaVuSans-36" transform="translate(190.869141 0)"/>
       <use xlink:href="#DejaVuSans-2d" transform="translate(254.492188 0)"/>
       <use xlink:href="#DejaVuSans-30" transform="translate(290.576172 0)"/>
       <use xlink:href="#DejaVuSans-31" transform="translate(354.199219 0)"/>
      </g>
     </g>
    </g>
    <g id="xtick_11">
     <g id="line2d_11">
      <g>
       <use xlink:href="#m756919359f" x="883.624181" y="400.397656" style="stroke: #000000; stroke-width: 0.8"/>
      </g>
     </g>
     <g id="text_11">
      <!-- 2026-05 -->
      <g transform="translate(862.732775 414.996094) scale(0.1 -0.1)">
       <use xlink:href="#DejaVuSans-32"/>
       <use xlink:href="#DejaVuSans-30" transform="translate(63.623047 0)"/>
       <use xlink:href="#DejaVuSans-32" transform="translate(127.246094 0)"/>
       <use xlink:href="#DejaVuSans-36" transform="translate(190.869141 0)"/>
       <use xlink:href="#DejaVuSans-2d" transform="translate(254.492188 0)"/>
       <use xlink:href="#DejaVuSans-30" transform="translate(290.576172 0)"/>
       <use xlink:href="#DejaVuSans-35" transform="translate(354.199219 0)"/>
      </g>
     </g>
    </g>
   </g>
   <g id="matplotlib.axis_2">
    <g id="ytick_1">
     <g id="line2d_12">
      <defs>
       <path id="m64dc16b406" d="M 0 0 
L -3.5 0 
" style="stroke: #000000; stroke-width: 0.8"/>
      </defs>
      <g>
       <use xlink:href="#m64dc16b406" x="61.62625" y="382.429166" style="stroke: #000000; stroke-width: 0.8"/>
      </g>
     </g>
     <g id="text_12">
      <!-- 10000 -->
      <g transform="translate(22.81375 386.228385) scale(0.1 -0.1)">
       <use xlink:href="#DejaVuSans-31"/>
       <use xlink:href="#DejaVuSans-30" transform="translate(63.623047 0)"/>
       <use xlink:href="#DejaVuSans-30" transform="translate(127.246094 0)"/>
       <use xlink:href="#DejaVuSans-30" transform="translate(190.869141 0)"/>
       <use xlink:href="#DejaVuSans-30" transform="translate(254.492188 0)"/>
      </g>
     </g>
    </g>
    <g id="ytick_2">
     <g id="line2d_13">
      <g>
       <use xlink:href="#m64dc16b406" x="61.62625" y="335.528869" style="stroke: #000000; stroke-width: 0.8"/>
      </g>
     </g>
     <g id="text_13">
      <!-- 12000 -->
      <g transform="translate(22.81375 339.328087) scale(0.1 -0.1)">
       <use xlink:href="#DejaVuSans-31"/>
       <use xlink:href="#DejaVuSans-32" transform="translate(63.623047 0)"/>
       <use xlink:href="#DejaVuSans-30" transform="translate(127.246094 0)"/>
       <use xlink:href="#DejaVuSans-30" transform="translate(190.869141 0)"/>
       <use xlink:href="#DejaVuSans-30" transform="translate(254.492188 0)"/>
      </g>
     </g>
    </g>
    <g id="ytick_3">
     <g id="line2d_14">
      <g>
       <use xlink:href="#m64dc16b406" x="61.62625" y="288.628571" style="stroke: #000000; stroke-width: 0.8"/>
      </g>
     </g>
     <g id="text_14">
      <!-- 14000 -->
      <g transform="translate(22.81375 292.42779) scale(0.1 -0.1)">
       <use xlink:href="#DejaVuSans-31"/>
       <use xlink:href="#DejaVuSans-34" transform="translate(63.623047 0)"/>
       <use xlink:href="#DejaVuSans-30" transform="translate(127.246094 0)"/>
       <use xlink:href="#DejaVuSans-30" transform="translate(190.869141 0)"/>
       <use xlink:href="#DejaVuSans-30" transform="translate(254.492188 0)"/>
      </g>
     </g>
    </g>
    <g id="ytick_4">
     <g id="line2d_15">
      <g>
       <use xlink:href="#m64dc16b406" x="61.62625" y="241.728273" style="stroke: #000000; stroke-width: 0.8"/>
      </g>
     </g>
     <g id="text_15">
      <!-- 16000 -->
      <g transform="translate(22.81375 245.527492) scale(0.1 -0.1)">
       <use xlink:href="#DejaVuSans-31"/>
       <use xlink:href="#DejaVuSans-36" transform="translate(63.623047 0)"/>
       <use xlink:href="#DejaVuSans-30" transform="translate(127.246094 0)"/>
       <use xlink:href="#DejaVuSans-30" transform="translate(190.869141 0)"/>
       <use xlink:href="#DejaVuSans-30" transform="translate(254.492188 0)"/>
      </g>
     </g>
    </g>
    <g id="ytick_5">
     <g id="line2d_16">
      <g>
       <use xlink:href="#m64dc16b406" x="61.62625" y="194.827975" style="stroke: #000000; stroke-width: 0.8"/>
      </g>
     </g>
     <g id="text_16">
      <!-- 18000 -->
      <g transform="translate(22.81375 198.627194) scale(0.1 -0.1)">
       <defs>
        <path id="DejaVuSans-38" d="M 2034 2216 
Q 1584 2216 1326 1975 
Q 1069 1734 1069 1313 
Q 1069 891 1326 650 
Q 1584 409 2034 409 
Q 2484 409 2743 651 
Q 3003 894 3003 1313 
Q 3003 1734 2745 1975 
Q 2488 2216 2034 2216 
z
M 1403 2484 
Q 997 2584 770 2862 
Q 544 3141 544 3541 
Q 544 4100 942 4425 
Q 1341 4750 2034 4750 
Q 2731 4750 3128 4425 
Q 3525 4100 3525 3541 
Q 3525 3141 3298 2862 
Q 3072 2584 2669 2484 
Q 3125 2378 3379 2068 
Q 3634 1759 3634 1313 
Q 3634 634 3220 271 
Q 2806 -91 2034 -91 
Q 1263 -91 848 271 
Q 434 634 434 1313 
Q 434 1759 690 2068 
Q 947 2378 1403 2484 
z
M 1172 3481 
Q 1172 3119 1398 2916 
Q 1625 2713 2034 2713 
Q 2441 2713 2670 2916 
Q 2900 3119 2900 3481 
Q 2900 3844 2670 4047 
Q 2441 4250 2034 4250 
Q 1625 4250 1398 4047 
Q 1172 3844 1172 3481 
z
" transform="scale(0.015625)"/>
       </defs>
       <use xlink:href="#DejaVuSans-31"/>
       <use xlink:href="#DejaVuSans-38" transform="translate(63.623047 0)"/>
       <use xlink:href="#DejaVuSans-30" transform="translate(127.246094 0)"/>
       <use xlink:href="#DejaVuSans-30" transform="translate(190.869141 0)"/>
       <use xlink:href="#DejaVuSans-30" transform="translate(254.492188 0)"/>
      </g>
     </g>
    </g>
    <g id="ytick_6">
     <g id="line2d_17">
      <g>
       <use xlink:href="#m64dc16b406" x="61.62625" y="147.927677" style="stroke: #000000; stroke-width: 0.8"/>
      </g>
     </g>
     <g id="text_17">
      <!-- 20000 -->
      <g transform="translate(22.81375 151.726896) scale(0.1 -0.1)">
       <use xlink:href="#DejaVuSans-32"/>
       <use xlink:href="#DejaVuSans-30" transform="translate(63.623047 0)"/>
       <use xlink:href="#DejaVuSans-30" transform="translate(127.246094 0)"/>
       <use xlink:href="#DejaVuSans-30" transform="translate(190.869141 0)"/>
       <use xlink:href="#DejaVuSans-30" transform="translate(254.492188 0)"/>
      </g>
     </g>
    </g>
    <g id="ytick_7">
     <g id="line2d_18">
      <g>
       <use xlink:href="#m64dc16b406" x="61.62625" y="101.02738" style="stroke: #000000; stroke-width: 0.8"/>
      </g>
     </g>
     <g id="text_18">
      <!-- 22000 -->
      <g transform="translate(22.81375 104.826598) scale(0.1 -0.1)">
       <use xlink:href="#DejaVuSans-32"/>
       <use xlink:href="#DejaVuSans-32" transform="translate(63.623047 0)"/>
       <use xlink:href="#DejaVuSans-30" transform="translate(127.246094 0)"/>
       <use xlink:href="#DejaVuSans-30" transform="translate(190.869141 0)"/>
       <use xlink:href="#DejaVuSans-30" transform="translate(254.492188 0)"/>
      </g>
     </g>
    </g>
    <g id="ytick_8">
     <g id="line2d_19">
      <g>
       <use xlink:href="#m64dc16b406" x="61.62625" y="54.127082" style="stroke: #000000; stroke-width: 0.8"/>
      </g>
     </g>
     <g id="text_19">
      <!-- 24000 -->
      <g transform="translate(22.81375 57.926301) scale(0.1 -0.1)">
       <use xlink:href="#DejaVuSans-32"/>
       <use xlink:href="#DejaVuSans-34" transform="translate(63.623047 0)"/>
       <use xlink:href="#DejaVuSans-30" transform="translate(127.246094 0)"/>
       <use xlink:href="#DejaVuSans-30" transform="translate(190.869141 0)"/>
       <use xlink:href="#DejaVuSans-30" transform="translate(254.492188 0)"/>
      </g>
     </g>
    </g>
    <g id="text_20">
     <!-- Growth of $10,000 -->
     <g transform="translate(16.318125 268.620156) rotate(-90) scale(0.12 -0.12)">
      <defs>
       <path id="DejaVuSans-47" d="M 3809 666 
L 3809 1919 
L 2778 1919 
L 2778 2438 
L 4434 2438 
L 4434 434 
Q 4069 175 3628 42 
Q 3188 -91 2688 -91 
Q 1594 -91 976 548 
Q 359 1188 359 2328 
Q 359 3472 976 4111 
Q 1594 4750 2688 4750 
Q 3144 4750 3555 4637 
Q 3966 4525 4313 4306 
L 4313 3634 
Q 3963 3931 3569 4081 
Q 3175 4231 2741 4231 
Q 1884 4231 1454 3753 
Q 1025 3275 1025 2328 
Q 1025 1384 1454 906 
Q 1884 428 2741 428 
Q 3075 428 3337 486 
Q 3600 544 3809 666 
z
" transform="scale(0.015625)"/>
       <path id="DejaVuSans-72" d="M 2631 2963 
Q 2534 3019 2420 3045 
Q 2306 3072 2169 3072 
Q 1681 3072 1420 2755 
Q 1159 2438 1159 1844 
L 1159 0 
L 581 0 
L 581 3500 
L 1159 3500 
L 1159 2956 
Q 1341 3275 1631 3429 
Q 1922 3584 2338 3584 
Q 2397 3584 2469 3576 
Q 2541 3569 2628 3553 
L 2631 2963 
z
" transform="scale(0.015625)"/>
       <path id="DejaVuSans-6f" d="M 1959 3097 
Q 1497 3097 1228 2736 
Q 959 2375 959 1747 
Q 959 1119 1226 758 
Q 1494 397 1959 397 
Q 2419 397 2687 759 
Q 2956 1122 2956 1747 
Q 2956 2369 2687 2733 
Q 2419 3097 1959 3097 
z
M 1959 3584 
Q 2709 3584 3137 3096 
Q 3566 2609 3566 1747 
Q 3566 888 3137 398 
Q 2709 -91 1959 -91 
Q 1206 -91 779 398 
Q 353 888 353 1747 
Q 353 2609 779 3096 
Q 1206 3584 1959 3584 
z
" transform="scale(0.015625)"/>
       <path id="DejaVuSans-77" d="M 269 3500 
L 844 3500 
L 1563 769 
L 2278 3500 
L 2956 3500 
L 3675 769 
L 4391 3500 
L 4966 3500 
L 4050 0 
L 3372 0 
L 2619 2869 
L 1863 0 
L 1184 0 
L 269 3500 
z
" transform="scale(0.015625)"/>
       <path id="DejaVuSans-74" d="M 1172 4494 
L 1172 3500 
L 2356 3500 
L 2356 3053 
L 1172 3053 
L 1172 1153 
Q 1172 725 1289 603 
Q 1406 481 1766 481 
L 2356 481 
L 2356 0 
L 1766 0 
Q 1100 0 847 248 
Q 594 497 594 1153 
L 594 3053 
L 172 3053 
L 172 3500 
L 594 3500 
L 594 4494 
L 1172 4494 
z
" transform="scale(0.015625)"/>
       <path id="DejaVuSans-68" d="M 3513 2113 
L 3513 0 
L 2938 0 
L 2938 2094 
Q 2938 2591 2744 2837 
Q 2550 3084 2163 3084 
Q 1697 3084 1428 2787 
Q 1159 2491 1159 1978 
L 1159 0 
L 581 0 
L 581 4863 
L 1159 4863 
L 1159 2956 
Q 1366 3272 1645 3428 
Q 1925 3584 2291 3584 
Q 2894 3584 3203 3211 
Q 3513 2838 3513 2113 
z
" transform="scale(0.015625)"/>
       <path id="DejaVuSans-20" transform="scale(0.015625)"/>
       <path id="DejaVuSans-66" d="M 2375 4863 
L 2375 4384 
L 1825 4384 
Q 1516 4384 1395 4259 
Q 1275 4134 1275 3809 
L 1275 3500 
L 2222 3500 
L 2222 3053 
L 1275 3053 
L 1275 0 
L 697 0 
L 697 3053 
L 147 3053 
L 147 3500 
L 697 3500 
L 697 3744 
Q 697 4328 969 4595 
Q 1241 4863 1831 4863 
L 2375 4863 
z
" transform="scale(0.015625)"/>
       <path id="DejaVuSans-24" d="M 2163 -941 
L 1850 -941 
L 1847 0 
Q 1519 6 1191 76 
Q 863 147 531 288 
L 531 850 
Q 850 650 1176 548 
Q 1503 447 1850 444 
L 1850 1869 
Q 1159 1981 845 2250 
Q 531 2519 531 2988 
Q 531 3497 872 3790 
Q 1213 4084 1850 4128 
L 1850 4863 
L 2163 4863 
L 2163 4138 
Q 2453 4125 2725 4076 
Q 2997 4028 3256 3944 
L 3256 3397 
Q 2997 3528 2723 3600 
Q 2450 3672 2163 3684 
L 2163 2350 
Q 2872 2241 3206 1959 
Q 3541 1678 3541 1191 
Q 3541 663 3186 358 
Q 2831 53 2163 6 
L 2163 -941 
z
M 1850 2406 
L 1850 3688 
Q 1488 3647 1297 3481 
Q 1106 3316 1106 3041 
Q 1106 2772 1282 2622 
Q 1459 2472 1850 2406 
z
M 2163 1806 
L 2163 453 
Q 2559 506 2761 678 
Q 2963 850 2963 1131 
Q 2963 1406 2770 1568 
Q 2578 1731 2163 1806 
z
" transform="scale(0.015625)"/>
       <path id="DejaVuSans-2c" d="M 750 794 
L 1409 794 
L 1409 256 
L 897 -744 
L 494 -744 
L 750 256 
L 750 794 
z
" transform="scale(0.015625)"/>
      </defs>
      <use xlink:href="#DejaVuSans-47"/>
      <use xlink:href="#DejaVuSans-72" transform="translate(77.490234 0)"/>
      <use xlink:href="#DejaVuSans-6f" transform="translate(116.353516 0)"/>
      <use xlink:href="#DejaVuSans-77" transform="translate(177.535156 0)"/>
      <use xlink:href="#DejaVuSans-74" transform="translate(259.322266 0)"/>
      <use xlink:href="#DejaVuSans-68" transform="translate(298.53125 0)"/>
      <use xlink:href="#DejaVuSans-20" transform="translate(361.910156 0)"/>
      <use xlink:href="#DejaVuSans-6f" transform="translate(393.697266 0)"/>
      <use xlink:href="#DejaVuSans-66" transform="translate(454.878906 0)"/>
      <use xlink:href="#DejaVuSans-20" transform="translate(490.083984 0)"/>
      <use xlink:href="#DejaVuSans-24" transform="translate(521.871094 0)"/>
      <use xlink:href="#DejaVuSans-31" transform="translate(585.494141 0)"/>
      <use xlink:href="#DejaVuSans-30" transform="translate(649.117188 0)"/>
      <use xlink:href="#DejaVuSans-2c" transform="translate(712.740234 0)"/>
      <use xlink:href="#DejaVuSans-30" transform="translate(744.527344 0)"/>
      <use xlink:href="#DejaVuSans-30" transform="translate(808.150391 0)"/>
      <use xlink:href="#DejaVuSans-30" transform="translate(871.773438 0)"/>
     </g>
    </g>
   </g>
   <g id="line2d_20">
    <path d="M 99.815919 382.429166 
L 100.46156 375.765962 
L 101.107202 380.524018 
L 101.752843 377.53378 
L 103.689766 372.657989 
L 104.335407 367.053705 
L 104.981048 365.373812 
L 105.626689 362.250488 
L 106.27233 359.768536 
L 108.854894 356.212434 
L 109.500536 359.67245 
L 110.146177 360.90347 
L 110.791818 352.651153 
L 112.728741 348.067773 
L 113.374382 350.395083 
L 114.020023 351.349812 
L 114.665664 348.516179 
L 115.311305 342.146702 
L 117.248228 348.988029 
L 117.893869 344.361039 
L 118.539511 336.866811 
L 119.185152 320.038379 
L 119.830793 325.450057 
L 121.767716 325.740536 
L 122.413357 323.701325 
L 123.058998 327.33847 
L 123.704639 334.163775 
L 124.35028 337.218566 
L 126.287203 335.896593 
L 126.932844 332.748872 
L 127.578486 327.694061 
L 128.224127 331.789525 
L 128.869768 333.283183 
L 131.452332 336.75585 
L 132.097973 337.389427 
L 132.743614 331.532717 
L 133.389255 335.455337 
L 135.326178 334.794456 
L 135.971819 331.036141 
L 136.617461 333.516946 
L 137.263102 332.151572 
L 137.908743 327.902716 
L 139.845666 329.779929 
L 140.491307 331.227319 
L 141.136948 329.152819 
L 141.782589 334.780973 
L 142.42823 338.588472 
L 144.365153 333.954922 
L 145.010794 327.950011 
L 145.656436 325.24798 
L 146.302077 320.174242 
L 146.947718 318.26728 
L 148.884641 318.078815 
L 149.530282 311.519975 
L 150.175923 315.441623 
L 150.821564 317.759219 
L 151.467205 316.538029 
L 153.404128 320.194948 
L 154.049769 320.48309 
L 154.695411 317.252836 
L 155.341052 316.620676 
L 155.986693 324.650641 
L 157.923616 328.030171 
L 158.569257 328.416879 
L 159.214898 331.343167 
L 159.860539 328.582537 
L 162.443103 326.610297 
L 163.088744 326.577997 
L 163.734386 328.534832 
L 164.380027 325.427314 
L 165.025668 324.533879 
L 166.962591 325.390543 
L 167.608232 325.214146 
L 168.253873 326.122345 
L 168.899514 329.931022 
L 169.545155 329.940851 
L 171.482078 332.0972 
L 172.12772 334.730103 
L 172.773361 333.164299 
L 173.419002 326.169247 
L 174.064643 326.234346 
L 176.001566 326.635969 
L 176.647207 327.636725 
L 177.292848 329.696248 
L 177.938489 329.997267 
L 178.58413 322.699077 
L 181.166695 321.860825 
L 181.812336 318.85973 
L 182.457977 319.01196 
L 183.103618 320.790195 
L 185.040541 317.786361 
L 185.686182 317.730991 
L 186.977464 311.14618 
L 187.623105 313.165778 
L 189.560028 310.7446 
L 190.20567 313.079287 
L 190.851311 313.216346 
L 191.496952 303.037866 
L 192.142593 299.643675 
L 194.725157 296.530149 
L 195.370798 300.002702 
L 196.016439 293.789424 
L 196.66208 293.798982 
L 198.599003 296.405796 
L 199.244645 301.378807 
L 199.890286 304.032018 
L 200.535927 300.538115 
L 201.181568 301.641838 
L 203.118491 300.966882 
L 204.409773 295.507074 
L 205.055414 293.481147 
L 205.701055 293.740655 
L 208.28362 291.839223 
L 208.929261 292.395109 
L 209.574902 290.304215 
L 210.220543 289.598016 
L 212.157466 292.919271 
L 212.803107 285.783956 
L 213.448748 285.997727 
L 214.094389 285.908939 
L 214.74003 290.614338 
L 216.676953 288.613636 
L 217.968236 287.974984 
L 218.613877 288.594148 
L 219.259518 287.453502 
L 221.196441 287.39005 
L 221.842082 282.448748 
L 222.487723 281.527838 
L 223.133364 267.70411 
L 223.779005 268.62624 
L 225.715929 267.563371 
L 226.36157 266.195486 
L 227.007211 264.282632 
L 227.652852 271.683835 
L 228.298493 273.63882 
L 230.235416 274.248426 
L 230.881057 272.593115 
L 231.526698 271.870714 
L 232.172339 273.302864 
L 232.81798 268.283167 
L 234.754904 267.895201 
L 235.400545 269.535447 
L 236.046186 275.600927 
L 236.691827 274.377064 
L 237.337468 274.579666 
L 239.274391 272.608486 
L 239.920032 273.660904 
L 240.565673 278.450217 
L 241.211314 278.581303 
L 241.856955 281.589651 
L 243.793879 278.023923 
L 245.085161 282.686684 
L 245.730802 285.407872 
L 246.376443 287.616155 
L 248.313366 281.337556 
L 248.959007 282.643201 
L 249.604648 279.133707 
L 250.250289 282.618934 
L 250.89593 282.450534 
L 252.832854 281.678124 
L 253.478495 272.75609 
L 254.124136 272.845005 
L 254.769777 274.283666 
L 255.415418 275.009331 
L 257.997982 274.655041 
L 258.643623 276.003658 
L 259.289264 274.304241 
L 259.934905 274.395474 
L 261.871829 273.202845 
L 262.51747 274.294575 
L 263.163111 273.169401 
L 263.808752 270.113607 
L 264.454393 274.567541 
L 266.391316 274.521841 
L 267.036957 276.812535 
L 267.682598 280.625835 
L 268.328239 285.219239 
L 268.97388 286.554246 
L 270.910804 284.578093 
L 271.556445 287.402363 
L 272.202086 286.511333 
L 272.847727 282.764318 
L 273.493368 284.096445 
L 275.430291 282.809902 
L 276.075932 287.270172 
L 276.721573 284.032091 
L 277.367214 282.951364 
L 278.012855 277.94796 
L 279.949779 278.102809 
L 280.59542 276.366851 
L 281.241061 275.095906 
L 281.886702 275.810962 
L 282.532343 279.723487 
L 284.469266 277.022317 
L 285.114907 278.211696 
L 285.760548 283.14984 
L 287.05183 286.971635 
L 288.988754 282.911684 
L 289.634395 279.611287 
L 290.280036 286.408727 
L 290.925677 291.520989 
L 291.571318 291.087669 
L 293.508241 288.102114 
L 294.153882 286.579044 
L 295.445164 276.807272 
L 296.090805 274.255394 
L 298.027729 272.871193 
L 298.67337 270.741913 
L 299.319011 270.397129 
L 299.964652 269.067939 
L 300.610293 266.016213 
L 302.547216 265.653598 
L 303.192857 263.052133 
L 303.838498 262.42516 
L 304.484139 261.53212 
L 305.12978 261.186788 
L 307.066704 256.569383 
L 307.712345 257.587499 
L 308.357986 256.126262 
L 309.649268 255.842714 
L 311.586191 254.451878 
L 312.231832 251.384841 
L 312.877473 252.29775 
L 313.523114 255.25936 
L 314.168755 253.189943 
L 316.105679 253.307133 
L 316.75132 252.244659 
L 317.396961 255.651413 
L 318.042602 251.650737 
L 318.688243 246.65929 
L 320.625166 251.896875 
L 321.270807 248.91501 
L 321.916448 244.067455 
L 322.562089 243.52281 
L 323.20773 243.596191 
L 325.144654 238.916431 
L 325.790295 236.84963 
L 326.435936 237.817611 
L 327.081577 233.964161 
L 327.727218 232.40316 
L 330.309782 232.644606 
L 330.955423 229.274344 
L 331.601064 228.994288 
L 332.246705 241.187994 
L 335.474911 251.512121 
L 336.120552 250.883936 
L 336.766193 249.388621 
L 338.703116 243.012727 
L 339.348757 243.396177 
L 339.994398 240.875726 
L 340.640039 242.644686 
L 341.28568 244.786249 
L 343.868245 243.257847 
L 344.513886 244.087999 
L 345.159527 243.893888 
L 345.805168 240.336902 
L 347.742091 240.271362 
L 349.033373 239.481983 
L 349.679014 240.130773 
L 350.324655 239.339638 
L 352.261579 238.277844 
L 352.90722 238.41087 
L 353.552861 239.953254 
L 354.844143 237.372752 
L 357.426707 236.870191 
L 358.072348 235.591946 
L 358.717989 234.691771 
L 359.36363 234.098812 
L 361.300554 234.749805 
L 361.946195 235.104459 
L 362.591836 233.263335 
L 363.237477 233.720229 
L 363.883118 235.963723 
L 366.465682 236.890957 
L 367.111323 237.486829 
L 367.756964 229.442327 
L 368.402605 230.163276 
L 370.339529 230.416397 
L 370.98517 231.496646 
L 371.630811 232.105363 
L 372.276452 230.052383 
L 372.922093 230.092085 
L 374.859016 230.653094 
L 375.504657 230.542663 
L 376.150298 231.285529 
L 376.795939 230.394563 
L 377.44158 231.144766 
L 379.378504 232.114112 
L 380.024145 229.132442 
L 380.669786 229.294564 
L 381.315427 228.878583 
L 381.961068 228.711905 
L 383.897991 227.310995 
L 384.543632 226.655058 
L 385.189273 224.992063 
L 386.480555 223.972245 
L 388.417479 223.733192 
L 389.06312 223.794491 
L 389.708761 223.666105 
L 390.354402 226.630815 
L 392.936966 227.899857 
L 393.582607 227.613958 
L 394.873889 227.348138 
L 395.51953 226.93516 
L 397.456454 227.562999 
L 398.102095 227.304891 
L 398.747736 225.901687 
L 399.393377 226.007615 
L 400.039018 224.767749 
L 401.975941 223.678013 
L 402.621582 223.865481 
L 403.267223 224.577598 
L 403.912864 223.93189 
L 404.558506 226.343725 
L 406.495429 226.093137 
L 407.14107 227.015882 
L 407.786711 226.106356 
L 408.432352 226.936299 
L 409.077993 228.664483 
L 411.014916 230.412254 
L 411.660557 229.636701 
L 412.306198 228.141459 
L 412.951839 225.950311 
L 413.597481 225.431407 
L 415.534404 225.6004 
L 416.180045 224.625629 
L 417.471327 224.441569 
L 418.116968 224.18559 
L 420.053891 224.516052 
L 420.699532 224.751911 
L 421.345173 225.253323 
L 421.990814 223.641264 
L 422.636456 223.919889 
L 424.573379 224.279044 
L 425.21902 224.898355 
L 426.510302 223.512078 
L 427.155943 224.901045 
L 430.384148 225.066648 
L 431.029789 224.012591 
L 434.257995 223.287222 
L 434.903636 224.918195 
L 435.549277 224.257951 
L 436.194918 223.128108 
L 438.777482 222.407561 
L 439.423123 222.845942 
L 440.714406 222.806026 
L 442.651329 223.406019 
L 443.29697 223.058467 
L 444.588252 221.699204 
L 445.233893 222.458777 
L 447.170816 221.495359 
L 447.816457 220.348008 
L 448.462098 220.398506 
L 449.107739 220.183854 
L 449.753381 221.404486 
L 451.690304 223.184896 
L 452.335945 225.975042 
L 452.981586 227.878455 
L 454.272868 229.056908 
L 456.209791 229.049377 
L 457.501073 230.161625 
L 458.146715 227.418413 
L 458.792356 227.172103 
L 460.729279 227.158339 
L 461.37492 227.4353 
L 462.020561 226.962528 
L 462.666202 225.436142 
L 463.311843 226.972985 
L 465.248766 226.523613 
L 466.540048 224.786945 
L 467.18569 225.14483 
L 467.831331 223.221643 
L 470.413895 222.734781 
L 471.059536 219.604956 
L 471.705177 218.841042 
L 472.350818 219.579904 
L 474.287741 219.417907 
L 474.933382 216.572729 
L 475.579023 218.661897 
L 476.224665 213.863561 
L 476.870306 212.435017 
L 478.807229 212.83621 
L 479.45287 213.306976 
L 480.098511 213.241106 
L 480.744152 215.262215 
L 481.389793 215.642469 
L 483.972357 215.120817 
L 484.617998 214.662774 
L 485.26364 213.981801 
L 485.909281 212.774978 
L 488.491845 212.504211 
L 489.137486 213.040233 
L 489.783127 213.036724 
L 490.428768 211.77214 
L 493.011332 211.562293 
L 493.656973 212.047502 
L 494.302615 212.166353 
L 494.948256 214.75396 
L 496.885179 214.450844 
L 497.53082 215.630779 
L 498.176461 217.045858 
L 498.822102 218.85547 
L 499.467743 219.097599 
L 501.404666 219.376993 
L 502.050307 218.942476 
L 502.695948 218.797319 
L 503.34159 218.177252 
L 503.987231 217.897748 
L 505.924154 217.854752 
L 506.569795 218.526552 
L 507.215436 218.100921 
L 508.506718 220.442368 
L 510.443641 220.821537 
L 511.089282 223.832098 
L 512.380565 224.381718 
L 513.026206 221.204921 
L 514.963129 222.084922 
L 515.60877 222.096957 
L 516.254411 221.500165 
L 516.900052 221.153147 
L 517.545693 223.40162 
L 520.128257 223.527314 
L 520.773899 224.540327 
L 521.41954 223.753307 
L 522.065181 221.528243 
L 524.002104 221.468039 
L 524.647745 221.321664 
L 525.293386 221.020344 
L 525.939027 219.777771 
L 526.584668 219.416532 
L 528.521591 219.34518 
L 529.167232 219.819555 
L 529.812874 218.166531 
L 531.104156 214.116011 
L 533.041079 214.307984 
L 533.68672 213.513446 
L 534.332361 215.460049 
L 535.623643 224.741286 
L 537.560566 225.282343 
L 538.206207 228.212497 
L 538.851849 217.143867 
L 539.49749 215.857968 
L 540.143131 220.196527 
L 542.080054 220.017094 
L 542.725695 225.397054 
L 543.371336 235.741564 
L 544.016977 215.394036 
L 544.662618 220.093605 
L 546.599541 218.604709 
L 547.245182 221.434065 
L 547.890824 212.162059 
L 549.182106 211.996301 
L 551.119029 210.364344 
L 551.76467 210.771454 
L 552.410311 210.460453 
L 553.055952 208.61636 
L 553.701593 210.438616 
L 555.638516 209.835972 
L 556.284157 209.079208 
L 556.929799 206.155125 
L 557.57544 204.598813 
L 560.158004 204.984685 
L 560.803645 205.403609 
L 561.449286 203.921812 
L 562.094927 208.574384 
L 562.740568 197.342328 
L 564.677491 196.472004 
L 565.323132 193.651627 
L 566.614415 192.280563 
L 567.260056 192.557207 
L 569.196979 191.850417 
L 569.84262 198.99762 
L 571.133902 199.152957 
L 571.779543 192.860139 
L 573.716466 193.247759 
L 574.362107 186.184286 
L 575.007749 185.605979 
L 576.299031 185.597969 
L 578.881595 184.242895 
L 579.527236 184.619642 
L 580.172877 184.735047 
L 580.818518 188.418366 
L 583.401083 188.802979 
L 584.046724 189.644072 
L 584.692365 189.525281 
L 585.338006 189.880107 
L 587.274929 188.826438 
L 587.92057 185.078817 
L 588.566211 185.622038 
L 589.211852 183.932964 
L 589.857493 185.210496 
L 592.440058 184.580513 
L 593.085699 184.351184 
L 593.73134 184.539348 
L 594.376981 185.852112 
L 596.313904 186.137772 
L 596.959545 186.391214 
L 597.605186 184.529207 
L 598.250827 183.488494 
L 598.896468 182.815772 
L 602.124674 183.068755 
L 602.770315 182.829549 
L 603.415956 184.522327 
L 605.352879 184.576177 
L 605.99852 189.307149 
L 606.644161 186.512635 
L 607.289802 192.757227 
L 607.935443 183.684585 
L 609.872366 183.261878 
L 610.518008 182.025496 
L 611.163649 184.767684 
L 611.80929 184.888845 
L 612.454931 179.651071 
L 614.391854 180.515499 
L 615.037495 170.808879 
L 615.683136 167.547618 
L 616.328777 169.967312 
L 616.974418 163.354073 
L 618.911341 163.466366 
L 619.556983 163.813997 
L 620.202624 160.96959 
L 621.493906 159.680475 
L 623.430829 158.328248 
L 624.07647 159.933682 
L 624.722111 155.483007 
L 625.367752 155.269357 
L 626.013393 151.092849 
L 627.950316 160.375715 
L 628.595958 161.458714 
L 629.241599 161.885223 
L 629.88724 156.796697 
L 630.532881 161.045122 
L 632.469804 160.649325 
L 633.115445 165.506275 
L 633.761086 138.105131 
L 634.406727 125.989041 
L 635.052368 126.389084 
L 636.989292 127.43831 
L 637.634933 127.451408 
L 638.280574 126.137613 
L 638.926215 126.46846 
L 641.508779 125.117738 
L 642.15442 124.33865 
L 642.800061 125.46778 
L 643.445702 128.305087 
L 644.091343 134.286597 
L 646.028267 134.518243 
L 646.673908 134.242006 
L 647.319549 133.332478 
L 647.96519 133.244168 
L 648.610831 133.50554 
L 651.193395 134.049343 
L 651.839036 133.718967 
L 652.484677 131.726545 
L 653.130318 132.640269 
L 655.067242 132.961446 
L 656.358524 139.904833 
L 657.004165 135.616351 
L 657.649806 138.150995 
L 659.586729 137.864762 
L 660.23237 138.553422 
L 660.878011 137.469824 
L 661.523652 137.542105 
L 662.169293 137.24139 
L 666.04314 135.757355 
L 666.688781 133.531311 
L 668.625704 134.805597 
L 669.271345 135.451285 
L 669.916986 135.055668 
L 670.562627 134.8409 
L 671.208268 133.916139 
L 673.145192 133.806337 
L 673.790833 134.156755 
L 674.436474 133.677426 
L 675.727756 131.793605 
L 677.664679 131.499631 
L 678.31032 131.134653 
L 678.955961 131.123331 
L 680.247243 131.722878 
L 682.829808 130.478544 
L 683.475449 131.953532 
L 684.12109 132.752283 
L 684.766731 131.1837 
L 686.703654 136.611785 
L 687.349295 137.712327 
L 687.994936 135.716581 
L 688.640577 135.018666 
L 691.223142 135.298926 
L 691.868783 135.194567 
L 692.514424 134.352246 
L 693.160065 134.463357 
L 693.805706 134.91271 
L 695.742629 134.843698 
L 696.38827 134.57037 
L 697.679552 136.283723 
L 698.325193 134.936443 
L 700.907758 135.466612 
L 701.553399 134.74127 
L 702.19904 134.462805 
L 702.844681 133.727755 
L 704.781604 133.49654 
L 706.072886 133.8959 
L 706.718527 132.893876 
L 707.364168 132.792854 
L 709.301092 132.799 
L 709.946733 131.925693 
L 710.592374 131.52987 
L 711.238015 132.731673 
L 711.883656 133.444493 
L 713.820579 133.278478 
L 714.46622 133.627228 
L 715.111861 133.29452 
L 715.757502 133.789721 
L 716.403143 133.558728 
L 718.340067 133.58767 
L 718.985708 133.085609 
L 719.631349 132.114992 
L 720.27699 132.193689 
L 720.922631 129.529521 
L 722.859554 129.280578 
L 723.505195 128.168906 
L 724.150836 128.473525 
L 724.796477 128.259301 
L 725.442118 127.721006 
L 729.315965 127.147124 
L 729.961606 126.464671 
L 731.898529 127.094188 
L 732.54417 127.457256 
L 733.189811 128.479382 
L 733.835452 128.260509 
L 734.481093 129.229355 
L 736.418017 129.272644 
L 737.063658 129.072427 
L 738.35494 129.846552 
L 739.000581 132.007836 
L 740.937504 131.897637 
L 741.583145 132.02088 
L 742.228786 131.392995 
L 742.874427 133.316204 
L 743.520068 131.243949 
L 745.456992 130.9248 
L 746.102633 132.267437 
L 746.748274 135.403241 
L 747.393915 137.4321 
L 748.039556 137.542344 
L 749.976479 137.747348 
L 750.62212 136.681701 
L 751.913402 137.875775 
L 752.559043 135.137953 
L 754.495967 134.470093 
L 755.141608 133.721698 
L 755.787249 135.610779 
L 756.43289 135.131833 
L 757.078531 131.062654 
L 759.015454 131.156558 
L 759.661095 131.369162 
L 760.952377 127.849454 
L 761.598018 127.57073 
L 764.180583 127.567088 
L 764.826224 127.848162 
L 765.471865 127.490371 
L 766.117506 124.136353 
L 768.054429 123.615828 
L 768.70007 124.706153 
L 769.345711 120.818073 
L 769.991352 125.616204 
L 770.636993 122.147346 
L 772.573917 122.281653 
L 773.219558 121.374834 
L 774.51084 124.037982 
L 775.156481 126.026894 
L 777.739045 125.173497 
L 778.384686 123.997148 
L 779.030327 127.06701 
L 779.675968 127.17998 
L 781.612892 127.234912 
L 782.258533 126.110565 
L 782.904174 128.458261 
L 784.195456 131.461626 
L 786.132379 131.370152 
L 786.77802 128.85128 
L 787.423661 128.60768 
L 788.069302 128.239436 
L 788.714943 127.210512 
L 790.651867 127.127649 
L 791.943149 127.665283 
L 792.58879 126.505673 
L 793.234431 124.602285 
L 795.171354 123.563672 
L 795.816995 121.583038 
L 796.462636 123.816063 
L 797.108277 122.572682 
L 797.753918 116.919752 
L 799.690842 116.616822 
L 800.336483 116.011091 
L 800.982124 115.564771 
L 802.273406 114.524922 
L 804.85597 113.573138 
L 805.501611 116.688138 
L 806.792893 117.943808 
L 808.729817 117.840268 
L 809.375458 117.15004 
L 810.021099 116.787425 
L 810.66674 116.15195 
L 811.312381 115.979412 
L 813.249304 116.062851 
L 814.540586 117.567312 
L 815.186227 115.265418 
L 815.831869 116.630853 
L 818.414433 115.419297 
L 819.060074 114.109853 
L 819.705715 114.626528 
L 820.351356 112.997231 
L 822.288279 112.28061 
L 822.93392 111.210329 
L 823.579561 111.538689 
L 824.225202 110.699145 
L 824.870844 109.1161 
L 826.807767 108.484701 
L 827.453408 109.683468 
L 828.099049 112.520046 
L 828.74469 129.175761 
L 829.390331 82.565957 
L 831.327254 82.046061 
L 831.972895 81.303956 
L 832.618536 79.46014 
L 833.264177 79.856442 
L 833.909819 73.351654 
L 836.492383 73.733085 
L 837.138024 73.5495 
L 837.783665 72.71291 
L 838.429306 71.669661 
L 840.366229 70.764895 
L 841.01187 70.144731 
L 841.657511 67.52716 
L 842.948794 63.303194 
L 844.885717 62.087103 
L 845.531358 60.089329 
L 846.176999 59.697627 
L 846.82264 56.574867 
L 847.468281 54.191302 
L 850.050845 53.392156 
L 850.696486 54.170401 
L 851.342127 51.664562 
L 851.987769 51.898662 
L 853.924692 52.145982 
L 854.570333 51.367089 
L 855.215974 48.972681 
L 855.861615 48.248728 
L 858.444179 46.473815 
L 859.735461 46.492688 
L 860.381102 44.27209 
L 861.026744 47.824436 
L 862.963667 47.116975 
L 863.609308 41.679474 
L 863.609308 41.679474 
" clip-path="url(#p5126021b40)" style="fill: none; stroke: #1f77b4; stroke-width: 2.8; stroke-linecap: square"/>
   </g>
   <g id="line2d_21">
    <path d="M 99.815919 382.429166 
L 100.46156 380.618774 
L 101.107202 383.315838 
L 101.752843 377.958602 
L 103.689766 378.094115 
L 104.335407 376.419178 
L 104.981048 373.377203 
L 106.27233 371.54215 
L 108.854894 371.99168 
L 109.500536 375.858774 
L 110.146177 377.613769 
L 110.791818 373.155496 
L 112.728741 370.230569 
L 113.374382 370.495304 
L 114.020023 370.402975 
L 114.665664 367.693541 
L 115.311305 367.120886 
L 117.248228 370.25519 
L 117.893869 366.62821 
L 118.539511 363.968077 
L 119.185152 360.28568 
L 119.830793 363.013599 
L 121.767716 364.565373 
L 122.413357 361.264798 
L 123.058998 364.060445 
L 123.704639 366.252621 
L 124.35028 365.667616 
L 126.287203 362.718009 
L 126.932844 362.835038 
L 127.578486 362.009899 
L 128.224127 365.519831 
L 128.869768 366.147903 
L 131.452332 371.178872 
L 132.097973 371.517529 
L 132.743614 370.212103 
L 133.389255 372.847634 
L 135.326178 372.01634 
L 136.617461 373.857529 
L 137.263102 371.967039 
L 137.908743 368.038373 
L 139.845666 367.865928 
L 140.491307 371.68376 
L 141.136948 371.28355 
L 141.782589 375.815727 
L 142.42823 379.294862 
L 144.365153 379.63352 
L 145.010794 375.711009 
L 145.656436 377.219676 
L 146.302077 373.013866 
L 146.947718 375.86591 
L 148.884641 373.547943 
L 149.530282 370.352204 
L 150.175923 374.555505 
L 150.821564 373.900263 
L 151.467205 372.305501 
L 153.404128 371.848051 
L 154.049769 372.398222 
L 154.695411 368.843968 
L 155.341052 367.391345 
L 155.986693 363.874239 
L 157.923616 362.909901 
L 158.569257 364.319241 
L 159.214898 364.980638 
L 159.860539 363.997834 
L 163.088744 363.670194 
L 163.734386 364.702514 
L 164.380027 361.352266 
L 165.025668 361.976555 
L 166.962591 361.061753 
L 167.608232 360.894836 
L 168.253873 360.938099 
L 168.899514 362.33505 
L 169.545155 362.137258 
L 171.482078 361.871465 
L 172.12772 365.920256 
L 172.773361 366.983412 
L 173.419002 362.007449 
L 174.064643 359.831641 
L 176.001566 360.091221 
L 176.647207 362.977922 
L 177.938489 366.507437 
L 178.58413 361.871465 
L 180.521053 361.803482 
L 181.166695 362.922309 
L 181.812336 361.735461 
L 183.103618 362.514298 
L 185.040541 361.636545 
L 185.686182 363.342592 
L 186.331823 360.264274 
L 186.977464 357.791779 
L 187.623105 358.168857 
L 189.560028 358.063728 
L 190.20567 360.968993 
L 190.851311 362.823394 
L 191.496952 360.622808 
L 192.142593 357.303474 
L 194.725157 357.204617 
L 195.370798 358.644792 
L 196.016439 356.190861 
L 196.66208 352.420232 
L 198.599003 352.9271 
L 199.244645 352.35223 
L 199.890286 353.26711 
L 200.535927 351.672309 
L 201.181568 351.196334 
L 203.118491 348.785627 
L 203.764132 347.017752 
L 204.409773 346.696346 
L 205.055414 343.346039 
L 205.701055 344.277954 
L 208.28362 345.692528 
L 208.929261 347.082304 
L 209.574902 346.108224 
L 210.220543 348.155673 
L 212.157466 349.253819 
L 212.803107 346.319169 
L 213.448748 346.182675 
L 214.094389 345.11556 
L 214.74003 341.907981 
L 216.676953 341.591495 
L 217.968236 342.000976 
L 218.613877 344.153849 
L 219.259518 344.842572 
L 221.196441 344.153849 
L 221.842082 342.416712 
L 223.133364 338.011659 
L 223.779005 338.185398 
L 225.715929 337.217512 
L 226.36157 335.139052 
L 227.007211 334.51245 
L 227.652852 336.38616 
L 228.298493 336.38616 
L 230.235416 335.132838 
L 230.881057 334.363567 
L 231.526698 334.320127 
L 232.172339 336.193798 
L 232.81798 333.445315 
L 234.754904 332.905573 
L 235.400545 333.718323 
L 236.046186 337.658026 
L 236.691827 338.458347 
L 237.337468 339.717824 
L 239.274391 337.298197 
L 239.920032 338.514195 
L 240.565673 340.375496 
L 241.211314 340.276189 
L 241.856955 340.437539 
L 243.793879 338.911269 
L 244.43952 342.149899 
L 245.730802 346.244737 
L 246.376443 346.114457 
L 248.313366 344.352425 
L 248.959007 345.090723 
L 249.604648 342.063078 
L 250.250289 345.872422 
L 250.89593 343.961546 
L 252.832854 342.230564 
L 253.478495 338.25983 
L 254.124136 337.111991 
L 254.769777 337.521532 
L 255.415418 337.000334 
L 257.997982 338.210235 
L 258.643623 340.083906 
L 259.289264 340.933822 
L 259.934905 340.518205 
L 261.871829 338.700343 
L 262.51747 340.226574 
L 263.163111 339.903952 
L 263.808752 337.515337 
L 264.454393 340.881796 
L 266.391316 340.719936 
L 267.036957 341.292729 
L 267.682598 343.826738 
L 268.328239 348.340742 
L 268.97388 348.944664 
L 270.910804 347.817741 
L 271.556445 351.771342 
L 272.202086 351.665487 
L 272.847727 350.127631 
L 273.493368 350.775149 
L 275.430291 350.881004 
L 276.075932 354.442354 
L 276.721573 352.530948 
L 277.367214 352.63057 
L 278.012855 349.492541 
L 279.949779 347.780378 
L 280.59542 346.379467 
L 281.241061 345.271245 
L 281.886702 346.927384 
L 282.532343 348.272211 
L 284.469266 345.445612 
L 285.114907 345.45804 
L 285.760548 349.075453 
L 286.406189 351.428901 
L 287.05183 354.691446 
L 288.988754 355.145917 
L 289.634395 353.172213 
L 290.280036 356.957721 
L 290.925677 360.070814 
L 291.571318 361.23512 
L 293.508241 358.178051 
L 294.153882 356.553002 
L 294.799523 353.776155 
L 295.445164 348.732954 
L 296.090805 346.286099 
L 298.027729 345.663477 
L 298.67337 344.891461 
L 299.319011 344.692219 
L 299.964652 346.815334 
L 300.610293 342.600233 
L 302.547216 342.861714 
L 303.192857 337.544584 
L 303.838498 336.953091 
L 305.12978 336.262015 
L 307.066704 334.101557 
L 307.712345 334.717887 
L 308.357986 333.628327 
L 309.649268 333.454019 
L 311.586191 333.964534 
L 312.231832 333.684371 
L 312.877473 333.883633 
L 313.523114 332.769138 
L 314.168755 331.088065 
L 316.105679 332.588577 
L 316.75132 332.644602 
L 317.396961 333.790226 
L 318.042602 331.629748 
L 318.688243 330.403203 
L 320.625166 329.288708 
L 321.270807 327.974991 
L 321.916448 323.990241 
L 322.562089 323.050112 
L 323.20773 323.533967 
L 325.144654 321.883611 
L 325.790295 320.08943 
L 326.435936 324.202852 
L 327.081577 321.42724 
L 327.727218 320.833355 
L 330.309782 319.583091 
L 330.955423 319.045446 
L 331.601064 318.932907 
L 332.246705 319.795644 
L 334.82927 321.458526 
L 335.474911 323.871527 
L 336.120552 324.815517 
L 336.766193 324.415405 
L 338.703116 320.23947 
L 339.348757 320.689568 
L 339.994398 319.014199 
L 340.640039 319.145499 
L 341.28568 318.93918 
L 343.868245 320.03319 
L 344.513886 321.683526 
L 345.159527 319.057953 
L 345.805168 315.344662 
L 347.742091 314.707004 
L 348.387732 313.825547 
L 349.033373 313.49424 
L 349.679014 311.843845 
L 350.324655 312.23147 
L 352.261579 309.81841 
L 352.90722 310.055957 
L 353.552861 315.063362 
L 354.198502 311.112447 
L 354.844143 307.89295 
L 356.781066 309.018226 
L 357.426707 308.124282 
L 358.072348 305.548695 
L 358.717989 305.411163 
L 359.36363 303.610767 
L 361.300554 303.74832 
L 361.946195 308.061749 
L 362.591836 305.254889 
L 363.237477 303.104389 
L 363.883118 304.667277 
L 366.465682 306.38638 
L 367.111323 306.10508 
L 367.756964 299.672398 
L 368.402605 299.453611 
L 370.339529 300.616349 
L 370.98517 300.028736 
L 371.630811 300.447549 
L 372.276452 299.309805 
L 372.922093 296.327893 
L 374.859016 296.671745 
L 375.504657 299.872424 
L 376.150298 298.265841 
L 376.795939 295.102643 
L 377.44158 297.034279 
L 379.378504 297.309344 
L 380.024145 293.871061 
L 381.315427 295.015097 
L 381.961068 297.225543 
L 383.897991 295.325526 
L 384.543632 293.538324 
L 385.189273 290.54712 
L 385.834914 289.468537 
L 386.480555 290.089356 
L 388.417479 290.992337 
L 389.06312 291.594318 
L 389.708761 288.860283 
L 390.354402 288.922953 
L 392.936966 289.493648 
L 393.582607 291.575559 
L 394.228248 291.218142 
L 394.873889 295.193796 
L 395.51953 291.832668 
L 397.456454 291.650814 
L 398.102095 291.274558 
L 398.747736 294.535398 
L 399.393377 292.102285 
L 400.039018 296.585944 
L 401.975941 300.599255 
L 402.621582 301.176164 
L 403.267223 303.044855 
L 403.912864 303.690786 
L 404.558506 306.42488 
L 406.495429 303.565367 
L 407.14107 299.846744 
L 407.786711 299.997254 
L 408.432352 301.201275 
L 409.077993 298.210071 
L 411.014916 297.081306 
L 411.660557 302.148147 
L 412.306198 303.170274 
L 412.951839 300.235545 
L 413.597481 296.310016 
L 415.534404 292.999032 
L 416.180045 292.641576 
L 416.825686 292.61027 
L 417.471327 290.741559 
L 418.116968 290.321374 
L 420.053891 290.277523 
L 420.699532 288.778814 
L 421.345173 284.715261 
L 421.990814 285.398849 
L 422.636456 284.922188 
L 424.573379 284.539699 
L 425.21902 283.724577 
L 425.864661 284.683936 
L 426.510302 287.110639 
L 427.155943 284.9285 
L 429.738507 284.696482 
L 431.029789 289.211467 
L 431.675431 286.226555 
L 433.612354 285.9569 
L 434.257995 285.586957 
L 434.903636 281.64892 
L 435.549277 281.655115 
L 436.194918 282.062734 
L 438.131841 281.028023 
L 438.777482 280.219095 
L 439.423123 277.453656 
L 440.068764 276.770187 
L 440.714406 276.563182 
L 443.29697 272.982582 
L 445.233893 274.376808 
L 447.170816 275.490362 
L 447.816457 274.175488 
L 449.107739 273.206681 
L 449.753381 274.559231 
L 451.690304 273.854669 
L 452.335945 271.545779 
L 452.981586 270.004532 
L 454.272868 268.003914 
L 456.209791 267.601352 
L 456.855432 267.261636 
L 457.501073 263.801593 
L 458.146715 266.84641 
L 458.792356 264.638239 
L 460.729279 263.669392 
L 461.37492 261.574563 
L 462.020561 266.557035 
L 463.311843 271.558403 
L 465.248766 267.997719 
L 465.894407 268.544989 
L 466.540048 276.440233 
L 467.18569 278.214322 
L 467.831331 274.420875 
L 469.768254 274.219516 
L 470.413895 275.955849 
L 471.059536 270.413445 
L 471.705177 275.320446 
L 472.350818 281.680716 
L 474.287741 291.444455 
L 474.933382 288.443587 
L 475.579023 290.639155 
L 476.224665 283.096152 
L 476.870306 281.624142 
L 478.807229 281.447953 
L 479.45287 275.930679 
L 480.098511 274.854919 
L 480.744152 268.991697 
L 481.389793 268.211546 
L 483.326716 264.877392 
L 483.972357 265.449832 
L 484.617998 264.24191 
L 485.26364 267.009976 
L 485.909281 263.292 
L 487.846204 264.134918 
L 488.491845 263.650613 
L 489.137486 265.701453 
L 489.783127 265.669971 
L 490.428768 262.31692 
L 493.011332 269.614476 
L 494.302615 271.168386 
L 494.948256 276.98766 
L 497.53082 271.684213 
L 498.822102 265.204445 
L 499.467743 263.367431 
L 502.050307 262.700624 
L 502.695948 263.751214 
L 503.34159 257.724387 
L 503.987231 258.345323 
L 505.924154 257.449282 
L 506.569795 256.420725 
L 507.215436 257.215774 
L 507.861077 255.789673 
L 508.506718 256.313459 
L 510.443641 254.868344 
L 511.089282 258.111894 
L 511.734923 257.960443 
L 512.380565 258.616665 
L 513.026206 255.360608 
L 514.963129 258.629289 
L 515.60877 255.240718 
L 516.254411 252.735447 
L 516.900052 253.372811 
L 517.545693 251.195689 
L 519.482616 248.204662 
L 520.128257 251.069526 
L 520.773899 249.479312 
L 521.41954 249.44779 
L 522.065181 248.034236 
L 524.647745 248.835675 
L 525.293386 252.199115 
L 525.939027 251.4103 
L 526.584668 251.536503 
L 528.521591 250.406914 
L 529.167232 249.813735 
L 529.812874 250.924387 
L 530.458515 258.09923 
L 531.104156 256.584761 
L 533.041079 257.360912 
L 533.68672 253.013139 
L 534.332361 243.964038 
L 534.978002 241.080237 
L 535.623643 239.45215 
L 537.560566 239.09244 
L 538.206207 240.266174 
L 538.851849 240.083202 
L 539.49749 242.506377 
L 540.143131 247.30223 
L 542.080054 245.78776 
L 542.725695 244.431014 
L 543.371336 244.304773 
L 544.016977 242.304429 
L 544.662618 241.143358 
L 546.599541 239.86867 
L 547.245182 237.899808 
L 547.890824 239.048334 
L 549.182106 236.700904 
L 551.76467 235.842656 
L 552.410311 233.476329 
L 553.055952 234.107303 
L 553.701593 233.381609 
L 555.638516 235.356782 
L 556.284157 236.543141 
L 556.929799 233.602453 
L 557.57544 235.577588 
L 558.221081 235.653333 
L 560.158004 234.025285 
L 560.803645 235.602836 
L 561.449286 246.967768 
L 562.094927 247.081385 
L 562.740568 242.639166 
L 564.677491 240.397748 
L 565.323132 236.212599 
L 566.614415 236.187233 
L 567.260056 240.195173 
L 569.84262 245.849234 
L 571.133902 246.760998 
L 571.779543 242.132631 
L 573.716466 239.973583 
L 574.362107 244.234673 
L 575.007749 243.690226 
L 576.299031 249.38859 
L 578.235954 248.818738 
L 578.881595 248.312203 
L 579.527236 241.607081 
L 580.172877 242.328894 
L 580.818518 238.567909 
L 583.401083 235.104573 
L 584.692365 230.86238 
L 585.338006 231.989421 
L 587.274929 237.434596 
L 587.92057 234.173834 
L 588.566211 235.889663 
L 589.211852 233.844587 
L 589.857493 235.883391 
L 591.794416 238.447588 
L 592.440058 235.908678 
L 593.73134 233.03413 
L 594.376981 236.54812 
L 596.313904 233.964869 
L 596.959545 233.673651 
L 597.605186 234.90835 
L 598.250827 230.875044 
L 598.896468 230.894058 
L 601.479033 229.760745 
L 602.124674 228.848982 
L 602.770315 230.463504 
L 603.415956 237.07367 
L 605.352879 238.802123 
L 605.99852 240.682654 
L 606.644161 240.492743 
L 607.289802 246.501457 
L 607.935443 240.720684 
L 609.872366 247.311835 
L 610.518008 251.686974 
L 611.163649 247.761405 
L 611.80929 254.314527 
L 612.454931 252.282153 
L 615.037495 264.945335 
L 615.683136 263.077467 
L 616.328777 267.794517 
L 616.974418 260.582821 
L 618.911341 257.834985 
L 619.556983 261.716174 
L 620.202624 257.847649 
L 620.848265 258.886007 
L 621.493906 258.76788 
L 623.430829 252.353703 
L 624.07647 251.477303 
L 624.722111 255.840209 
L 625.367752 256.799137 
L 626.013393 264.051567 
L 627.950316 261.682771 
L 628.595958 260.679384 
L 629.241599 258.424911 
L 630.532881 296.046045 
L 632.469804 296.617602 
L 633.115445 301.634574 
L 633.761086 268.522407 
L 634.406727 283.789306 
L 635.052368 277.845163 
L 636.989292 274.555507 
L 637.634933 275.514474 
L 638.280574 283.103523 
L 638.926215 282.627176 
L 641.508779 290.584502 
L 642.15442 282.093707 
L 642.800061 276.905289 
L 643.445702 269.748088 
L 644.091343 267.239563 
L 646.028267 267.106265 
L 646.673908 264.902562 
L 647.319549 264.762834 
L 647.96519 262.26709 
L 648.610831 257.002378 
L 650.547754 259.066313 
L 651.193395 262.057497 
L 651.839036 260.565061 
L 652.484677 258.08198 
L 653.130318 258.539234 
L 655.067242 246.695329 
L 655.712883 244.250316 
L 656.358524 243.774009 
L 657.004165 241.951345 
L 657.649806 239.576275 
L 659.586729 239.16348 
L 660.23237 240.433621 
L 660.878011 246.777856 
L 661.523652 246.631776 
L 662.169293 249.159395 
L 664.751858 241.513223 
L 665.397499 243.68509 
L 666.04314 242.211787 
L 666.688781 242.630894 
L 668.625704 240.5225 
L 669.271345 238.375998 
L 669.916986 238.47758 
L 670.562627 240.306595 
L 671.208268 236.439011 
L 673.145192 236.09612 
L 673.790833 233.936837 
L 674.436474 235.02922 
L 675.082115 233.511379 
L 675.727756 237.798031 
L 677.664679 234.190928 
L 678.31032 237.461491 
L 678.955961 237.518652 
L 680.247243 238.409715 
L 682.184167 234.670921 
L 682.829808 230.447939 
L 683.475449 230.231446 
L 684.12109 227.205957 
L 684.766731 225.269636 
L 686.703654 223.397064 
L 687.349295 223.524403 
L 687.994936 221.740984 
L 688.640577 218.626342 
L 691.223142 221.594512 
L 691.868783 221.811044 
L 692.514424 219.441659 
L 693.160065 218.320617 
L 693.805706 219.7219 
L 695.742629 218.96394 
L 696.38827 220.664557 
L 697.033911 219.339764 
L 697.679552 216.906631 
L 698.325193 217.199614 
L 700.262117 216.441654 
L 700.907758 216.384375 
L 701.553399 212.976671 
L 702.19904 212.842941 
L 702.844681 211.135933 
L 704.781604 211.237868 
L 705.427245 212.307904 
L 706.072886 212.817458 
L 706.718527 214.333378 
L 707.364168 220.932096 
L 709.301092 214.913031 
L 709.946733 216.951247 
L 710.592374 213.887493 
L 711.238015 214.225092 
L 711.883656 211.084966 
L 713.820579 211.887581 
L 714.46622 207.575446 
L 715.111861 206.174163 
L 715.757502 206.135937 
L 716.403143 207.097727 
L 718.340067 207.186919 
L 718.985708 209.409832 
L 719.631349 210.49261 
L 720.27699 212.123206 
L 720.922631 205.906703 
L 722.859554 207.715606 
L 723.505195 206.002207 
L 724.150836 205.065901 
L 724.796477 203.6073 
L 725.442118 206.072268 
L 728.024683 209.11685 
L 728.670324 206.906678 
L 729.315965 203.479921 
L 729.961606 204.677414 
L 731.898529 203.664618 
L 732.54417 202.709219 
L 733.189811 201.511765 
L 733.835452 198.059564 
L 734.481093 198.199723 
L 736.418017 195.97042 
L 737.709299 197.072291 
L 739.000581 193.021303 
L 740.937504 191.015745 
L 741.583145 193.334242 
L 742.228786 194.68197 
L 742.874427 196.630013 
L 743.520068 194.22205 
L 745.456992 193.034084 
L 746.748274 189.987463 
L 747.393915 189.495709 
L 748.039556 189.502021 
L 749.976479 187.969164 
L 750.62212 189.559535 
L 751.267761 187.011099 
L 751.913402 188.256579 
L 752.559043 199.842709 
L 754.495967 193.44288 
L 755.141608 193.960236 
L 755.787249 192.082449 
L 756.43289 194.975776 
L 757.078531 192.580594 
L 759.015454 188.167152 
L 759.661095 188.173542 
L 760.306736 190.40261 
L 760.952377 187.873346 
L 761.598018 184.366844 
L 763.534942 179.263581 
L 764.180583 178.101138 
L 764.826224 177.89033 
L 765.471865 182.718958 
L 766.117506 181.294701 
L 768.054429 180.477109 
L 768.70007 185.650629 
L 769.345711 184.156075 
L 769.991352 188.799458 
L 770.636993 188.37796 
L 772.573917 181.690676 
L 773.219558 180.694308 
L 773.865199 180.451547 
L 774.51084 187.69449 
L 775.156481 187.764786 
L 777.093404 191.763081 
L 777.739045 195.333448 
L 778.384686 193.704734 
L 779.030327 200.155647 
L 779.675968 196.004058 
L 781.612892 189.808647 
L 782.258533 185.791141 
L 782.904174 182.814777 
L 784.195456 180.445196 
L 786.132379 182.437972 
L 786.77802 181.633162 
L 787.423661 180.125828 
L 788.069302 179.806499 
L 788.714943 178.976165 
L 791.297508 180.668746 
L 791.943149 177.775379 
L 792.58879 176.753488 
L 793.234431 181.486259 
L 795.171354 182.144166 
L 795.816995 183.332132 
L 796.462636 188.103286 
L 797.108277 184.865068 
L 797.753918 180.949065 
L 799.690842 178.232947 
L 800.336483 176.227899 
L 800.982124 174.677674 
L 802.273406 174.722525 
L 804.85597 176.836446 
L 805.501611 180.09709 
L 806.792893 179.296357 
L 808.729817 176.381663 
L 809.375458 173.761637 
L 810.021099 175.190129 
L 810.66674 175.23498 
L 811.312381 172.313895 
L 813.249304 171.615645 
L 813.894945 172.506041 
L 814.540586 174.690494 
L 815.186227 173.486179 
L 815.831869 173.85773 
L 818.414433 182.87727 
L 819.060074 177.867826 
L 819.705715 175.5745 
L 820.351356 175.414384 
L 822.288279 173.1723 
L 822.93392 171.404249 
L 823.579561 171.4491 
L 824.225202 172.333106 
L 824.870844 173.659154 
L 826.807767 171.455491 
L 827.453408 175.22216 
L 828.099049 177.361761 
L 828.74469 182.85163 
L 829.390331 174.523949 
L 831.327254 172.390738 
L 831.972895 173.563061 
L 832.618536 173.665505 
L 833.264177 180.513453 
L 833.909819 180.206003 
L 836.492383 179.501362 
L 837.138024 177.297699 
L 837.783665 178.457202 
L 838.429306 175.286221 
L 840.366229 179.795992 
L 841.657511 172.903193 
L 842.948794 177.489885 
L 844.885717 177.240028 
L 845.531358 181.11561 
L 846.176999 178.0408 
L 846.82264 180.487851 
L 847.468281 186.208366 
L 849.405204 182.435228 
L 850.696486 183.678003 
L 851.342127 190.256923 
L 851.987769 192.671943 
L 853.924692 188.354319 
L 854.570333 187.226925 
L 855.215974 193.222859 
L 855.861615 194.267019 
L 856.507256 200.32623 
L 858.444179 195.951876 
L 859.08982 197.365038 
L 859.735461 195.0269 
L 861.026744 209.627345 
L 862.963667 210.989148 
L 863.609308 199.18927 
L 863.609308 199.18927 
" clip-path="url(#p5126021b40)" style="fill: none; stroke-dasharray: 8.14,3.52; stroke-dashoffset: 0; stroke: #ff7f0e; stroke-width: 2.2"/>
   </g>
   <g id="patch_3">
    <path d="M 61.62625 400.397656 
L 61.62625 24.597656 
" style="fill: none; stroke: #000000; stroke-width: 0.8; stroke-linejoin: miter; stroke-linecap: square"/>
   </g>
   <g id="patch_4">
    <path d="M 61.62625 400.397656 
L 901.798977 400.397656 
" style="fill: none; stroke: #000000; stroke-width: 0.8; stroke-linejoin: miter; stroke-linecap: square"/>
   </g>
   <g id="text_21">
    <!-- $24,531 -->
    <g style="fill: #1f77b4" transform="translate(871.609308 44.438849) scale(0.1 -0.1)">
     <defs>
      <path id="DejaVuSans-Bold-24" d="M 2484 -941 
L 1978 -941 
L 1975 0 
Q 1584 16 1218 87 
Q 853 159 506 288 
L 506 1106 
Q 866 922 1233 823 
Q 1600 725 1978 713 
L 1978 1684 
L 1875 1703 
Q 1128 1834 814 2115 
Q 500 2397 500 2925 
Q 500 3484 883 3798 
Q 1266 4113 1975 4141 
L 1978 4863 
L 2484 4863 
L 2484 4153 
Q 2797 4128 3109 4075 
Q 3422 4022 3738 3938 
L 3738 3144 
Q 3425 3275 3112 3348 
Q 2800 3422 2484 3438 
L 2484 2541 
L 2584 2522 
Q 3378 2397 3698 2105 
Q 4019 1813 4019 1241 
Q 4019 666 3637 358 
Q 3256 50 2484 6 
L 2484 -941 
z
M 1978 2613 
L 1978 3428 
Q 1756 3416 1623 3308 
Q 1491 3200 1491 3034 
Q 1491 2850 1612 2745 
Q 1734 2641 1978 2613 
z
M 2484 1594 
L 2484 725 
Q 2756 728 2892 831 
Q 3028 934 3028 1141 
Q 3028 1353 2903 1458 
Q 2778 1563 2484 1594 
z
" transform="scale(0.015625)"/>
      <path id="DejaVuSans-Bold-32" d="M 1844 884 
L 3897 884 
L 3897 0 
L 506 0 
L 506 884 
L 2209 2388 
Q 2438 2594 2547 2791 
Q 2656 2988 2656 3200 
Q 2656 3528 2436 3728 
Q 2216 3928 1850 3928 
Q 1569 3928 1234 3808 
Q 900 3688 519 3450 
L 519 4475 
Q 925 4609 1322 4679 
Q 1719 4750 2100 4750 
Q 2938 4750 3402 4381 
Q 3866 4013 3866 3353 
Q 3866 2972 3669 2642 
Q 3472 2313 2841 1759 
L 1844 884 
z
" transform="scale(0.015625)"/>
      <path id="DejaVuSans-Bold-34" d="M 2356 3675 
L 1038 1722 
L 2356 1722 
L 2356 3675 
z
M 2156 4666 
L 3494 4666 
L 3494 1722 
L 4159 1722 
L 4159 850 
L 3494 850 
L 3494 0 
L 2356 0 
L 2356 850 
L 288 850 
L 288 1881 
L 2156 4666 
z
" transform="scale(0.015625)"/>
      <path id="DejaVuSans-Bold-2c" d="M 653 1209 
L 1778 1209 
L 1778 256 
L 1006 -909 
L 341 -909 
L 653 256 
L 653 1209 
z
" transform="scale(0.015625)"/>
      <path id="DejaVuSans-Bold-35" d="M 678 4666 
L 3669 4666 
L 3669 3781 
L 1638 3781 
L 1638 3059 
Q 1775 3097 1914 3117 
Q 2053 3138 2203 3138 
Q 3056 3138 3531 2711 
Q 4006 2284 4006 1522 
Q 4006 766 3489 337 
Q 2972 -91 2053 -91 
Q 1656 -91 1267 -14 
Q 878 63 494 219 
L 494 1166 
Q 875 947 1217 837 
Q 1559 728 1863 728 
Q 2300 728 2551 942 
Q 2803 1156 2803 1522 
Q 2803 1891 2551 2103 
Q 2300 2316 1863 2316 
Q 1603 2316 1309 2248 
Q 1016 2181 678 2041 
L 678 4666 
z
" transform="scale(0.015625)"/>
      <path id="DejaVuSans-Bold-33" d="M 2981 2516 
Q 3453 2394 3698 2092 
Q 3944 1791 3944 1325 
Q 3944 631 3412 270 
Q 2881 -91 1863 -91 
Q 1503 -91 1142 -33 
Q 781 25 428 141 
L 428 1069 
Q 766 900 1098 814 
Q 1431 728 1753 728 
Q 2231 728 2486 893 
Q 2741 1059 2741 1369 
Q 2741 1688 2480 1852 
Q 2219 2016 1709 2016 
L 1228 2016 
L 1228 2791 
L 1734 2791 
Q 2188 2791 2409 2933 
Q 2631 3075 2631 3366 
Q 2631 3634 2415 3781 
Q 2200 3928 1806 3928 
Q 1516 3928 1219 3862 
Q 922 3797 628 3669 
L 628 4550 
Q 984 4650 1334 4700 
Q 1684 4750 2022 4750 
Q 2931 4750 3382 4451 
Q 3834 4153 3834 3553 
Q 3834 3144 3618 2883 
Q 3403 2622 2981 2516 
z
" transform="scale(0.015625)"/>
      <path id="DejaVuSans-Bold-31" d="M 750 831 
L 1813 831 
L 1813 3847 
L 722 3622 
L 722 4441 
L 1806 4666 
L 2950 4666 
L 2950 831 
L 4013 831 
L 4013 0 
L 750 0 
L 750 831 
z
" transform="scale(0.015625)"/>
     </defs>
     <use xlink:href="#DejaVuSans-Bold-24"/>
     <use xlink:href="#DejaVuSans-Bold-32" transform="translate(69.580078 0)"/>
     <use xlink:href="#DejaVuSans-Bold-34" transform="translate(139.160156 0)"/>
     <use xlink:href="#DejaVuSans-Bold-2c" transform="translate(208.740234 0)"/>
     <use xlink:href="#DejaVuSans-Bold-35" transform="translate(246.728516 0)"/>
     <use xlink:href="#DejaVuSans-Bold-33" transform="translate(316.308594 0)"/>
     <use xlink:href="#DejaVuSans-Bold-31" transform="translate(385.888672 0)"/>
    </g>
   </g>
   <g id="text_22">
    <!-- $17,814 -->
    <g style="fill: #ff7f0e" transform="translate(871.609308 209.948645) scale(0.1 -0.1)">
     <defs>
      <path id="DejaVuSans-Bold-37" d="M 428 4666 
L 3944 4666 
L 3944 3988 
L 2125 0 
L 953 0 
L 2675 3781 
L 428 3781 
L 428 4666 
z
" transform="scale(0.015625)"/>
      <path id="DejaVuSans-Bold-38" d="M 2228 2088 
Q 1891 2088 1709 1903 
Q 1528 1719 1528 1375 
Q 1528 1031 1709 848 
Q 1891 666 2228 666 
Q 2563 666 2741 848 
Q 2919 1031 2919 1375 
Q 2919 1722 2741 1905 
Q 2563 2088 2228 2088 
z
M 1350 2484 
Q 925 2613 709 2878 
Q 494 3144 494 3541 
Q 494 4131 934 4440 
Q 1375 4750 2228 4750 
Q 3075 4750 3515 4442 
Q 3956 4134 3956 3541 
Q 3956 3144 3739 2878 
Q 3522 2613 3097 2484 
Q 3572 2353 3814 2058 
Q 4056 1763 4056 1313 
Q 4056 619 3595 264 
Q 3134 -91 2228 -91 
Q 1319 -91 855 264 
Q 391 619 391 1313 
Q 391 1763 633 2058 
Q 875 2353 1350 2484 
z
M 1631 3419 
Q 1631 3141 1786 2991 
Q 1941 2841 2228 2841 
Q 2509 2841 2662 2991 
Q 2816 3141 2816 3419 
Q 2816 3697 2662 3845 
Q 2509 3994 2228 3994 
Q 1941 3994 1786 3844 
Q 1631 3694 1631 3419 
z
" transform="scale(0.015625)"/>
     </defs>
     <use xlink:href="#DejaVuSans-Bold-24"/>
     <use xlink:href="#DejaVuSans-Bold-31" transform="translate(69.580078 0)"/>
     <use xlink:href="#DejaVuSans-Bold-37" transform="translate(139.160156 0)"/>
     <use xlink:href="#DejaVuSans-Bold-2c" transform="translate(208.740234 0)"/>
     <use xlink:href="#DejaVuSans-Bold-38" transform="translate(246.728516 0)"/>
     <use xlink:href="#DejaVuSans-Bold-31" transform="translate(316.308594 0)"/>
     <use xlink:href="#DejaVuSans-Bold-34" transform="translate(385.888672 0)"/>
    </g>
   </g>
   <g id="text_23">
    <!-- Backtested Cumulative Performance (Normalized to $10,000) -->
    <g transform="translate(250.548551 18.597656) scale(0.15 -0.15)">
     <defs>
      <path id="DejaVuSans-42" d="M 1259 2228 
L 1259 519 
L 2272 519 
Q 2781 519 3026 730 
Q 3272 941 3272 1375 
Q 3272 1813 3026 2020 
Q 2781 2228 2272 2228 
L 1259 2228 
z
M 1259 4147 
L 1259 2741 
L 2194 2741 
Q 2656 2741 2882 2914 
Q 3109 3088 3109 3444 
Q 3109 3797 2882 3972 
Q 2656 4147 2194 4147 
L 1259 4147 
z
M 628 4666 
L 2241 4666 
Q 2963 4666 3353 4366 
Q 3744 4066 3744 3513 
Q 3744 3084 3544 2831 
Q 3344 2578 2956 2516 
Q 3422 2416 3680 2098 
Q 3938 1781 3938 1306 
Q 3938 681 3513 340 
Q 3088 0 2303 0 
L 628 0 
L 628 4666 
z
" transform="scale(0.015625)"/>
      <path id="DejaVuSans-61" d="M 2194 1759 
Q 1497 1759 1228 1600 
Q 959 1441 959 1056 
Q 959 750 1161 570 
Q 1363 391 1709 391 
Q 2188 391 2477 730 
Q 2766 1069 2766 1631 
L 2766 1759 
L 2194 1759 
z
M 3341 1997 
L 3341 0 
L 2766 0 
L 2766 531 
Q 2569 213 2275 61 
Q 1981 -91 1556 -91 
Q 1019 -91 701 211 
Q 384 513 384 1019 
Q 384 1609 779 1909 
Q 1175 2209 1959 2209 
L 2766 2209 
L 2766 2266 
Q 2766 2663 2505 2880 
Q 2244 3097 1772 3097 
Q 1472 3097 1187 3025 
Q 903 2953 641 2809 
L 641 3341 
Q 956 3463 1253 3523 
Q 1550 3584 1831 3584 
Q 2591 3584 2966 3190 
Q 3341 2797 3341 1997 
z
" transform="scale(0.015625)"/>
      <path id="DejaVuSans-63" d="M 3122 3366 
L 3122 2828 
Q 2878 2963 2633 3030 
Q 2388 3097 2138 3097 
Q 1578 3097 1268 2742 
Q 959 2388 959 1747 
Q 959 1106 1268 751 
Q 1578 397 2138 397 
Q 2388 397 2633 464 
Q 2878 531 3122 666 
L 3122 134 
Q 2881 22 2623 -34 
Q 2366 -91 2075 -91 
Q 1284 -91 818 406 
Q 353 903 353 1747 
Q 353 2603 823 3093 
Q 1294 3584 2113 3584 
Q 2378 3584 2631 3529 
Q 2884 3475 3122 3366 
z
" transform="scale(0.015625)"/>
      <path id="DejaVuSans-6b" d="M 581 4863 
L 1159 4863 
L 1159 1991 
L 2875 3500 
L 3609 3500 
L 1753 1863 
L 3688 0 
L 2938 0 
L 1159 1709 
L 1159 0 
L 581 0 
L 581 4863 
z
" transform="scale(0.015625)"/>
      <path id="DejaVuSans-65" d="M 3597 1894 
L 3597 1613 
L 953 1613 
Q 991 1019 1311 708 
Q 1631 397 2203 397 
Q 2534 397 2845 478 
Q 3156 559 3463 722 
L 3463 178 
Q 3153 47 2828 -22 
Q 2503 -91 2169 -91 
Q 1331 -91 842 396 
Q 353 884 353 1716 
Q 353 2575 817 3079 
Q 1281 3584 2069 3584 
Q 2775 3584 3186 3129 
Q 3597 2675 3597 1894 
z
M 3022 2063 
Q 3016 2534 2758 2815 
Q 2500 3097 2075 3097 
Q 1594 3097 1305 2825 
Q 1016 2553 972 2059 
L 3022 2063 
z
" transform="scale(0.015625)"/>
      <path id="DejaVuSans-73" d="M 2834 3397 
L 2834 2853 
Q 2591 2978 2328 3040 
Q 2066 3103 1784 3103 
Q 1356 3103 1142 2972 
Q 928 2841 928 2578 
Q 928 2378 1081 2264 
Q 1234 2150 1697 2047 
L 1894 2003 
Q 2506 1872 2764 1633 
Q 3022 1394 3022 966 
Q 3022 478 2636 193 
Q 2250 -91 1575 -91 
Q 1294 -91 989 -36 
Q 684 19 347 128 
L 347 722 
Q 666 556 975 473 
Q 1284 391 1588 391 
Q 1994 391 2212 530 
Q 2431 669 2431 922 
Q 2431 1156 2273 1281 
Q 2116 1406 1581 1522 
L 1381 1569 
Q 847 1681 609 1914 
Q 372 2147 372 2553 
Q 372 3047 722 3315 
Q 1072 3584 1716 3584 
Q 2034 3584 2315 3537 
Q 2597 3491 2834 3397 
z
" transform="scale(0.015625)"/>
      <path id="DejaVuSans-64" d="M 2906 2969 
L 2906 4863 
L 3481 4863 
L 3481 0 
L 2906 0 
L 2906 525 
Q 2725 213 2448 61 
Q 2172 -91 1784 -91 
Q 1150 -91 751 415 
Q 353 922 353 1747 
Q 353 2572 751 3078 
Q 1150 3584 1784 3584 
Q 2172 3584 2448 3432 
Q 2725 3281 2906 2969 
z
M 947 1747 
Q 947 1113 1208 752 
Q 1469 391 1925 391 
Q 2381 391 2643 752 
Q 2906 1113 2906 1747 
Q 2906 2381 2643 2742 
Q 2381 3103 1925 3103 
Q 1469 3103 1208 2742 
Q 947 2381 947 1747 
z
" transform="scale(0.015625)"/>
      <path id="DejaVuSans-43" d="M 4122 4306 
L 4122 3641 
Q 3803 3938 3442 4084 
Q 3081 4231 2675 4231 
Q 1875 4231 1450 3742 
Q 1025 3253 1025 2328 
Q 1025 1406 1450 917 
Q 1875 428 2675 428 
Q 3081 428 3442 575 
Q 3803 722 4122 1019 
L 4122 359 
Q 3791 134 3420 21 
Q 3050 -91 2638 -91 
Q 1578 -91 968 557 
Q 359 1206 359 2328 
Q 359 3453 968 4101 
Q 1578 4750 2638 4750 
Q 3056 4750 3426 4639 
Q 3797 4528 4122 4306 
z
" transform="scale(0.015625)"/>
      <path id="DejaVuSans-75" d="M 544 1381 
L 544 3500 
L 1119 3500 
L 1119 1403 
Q 1119 906 1312 657 
Q 1506 409 1894 409 
Q 2359 409 2629 706 
Q 2900 1003 2900 1516 
L 2900 3500 
L 3475 3500 
L 3475 0 
L 2900 0 
L 2900 538 
Q 2691 219 2414 64 
Q 2138 -91 1772 -91 
Q 1169 -91 856 284 
Q 544 659 544 1381 
z
M 1991 3584 
L 1991 3584 
z
" transform="scale(0.015625)"/>
      <path id="DejaVuSans-6d" d="M 3328 2828 
Q 3544 3216 3844 3400 
Q 4144 3584 4550 3584 
Q 5097 3584 5394 3201 
Q 5691 2819 5691 2113 
L 5691 0 
L 5113 0 
L 5113 2094 
Q 5113 2597 4934 2840 
Q 4756 3084 4391 3084 
Q 3944 3084 3684 2787 
Q 3425 2491 3425 1978 
L 3425 0 
L 2847 0 
L 2847 2094 
Q 2847 2600 2669 2842 
Q 2491 3084 2119 3084 
Q 1678 3084 1418 2786 
Q 1159 2488 1159 1978 
L 1159 0 
L 581 0 
L 581 3500 
L 1159 3500 
L 1159 2956 
Q 1356 3278 1631 3431 
Q 1906 3584 2284 3584 
Q 2666 3584 2933 3390 
Q 3200 3197 3328 2828 
z
" transform="scale(0.015625)"/>
      <path id="DejaVuSans-6c" d="M 603 4863 
L 1178 4863 
L 1178 0 
L 603 0 
L 603 4863 
z
" transform="scale(0.015625)"/>
      <path id="DejaVuSans-69" d="M 603 3500 
L 1178 3500 
L 1178 0 
L 603 0 
L 603 3500 
z
M 603 4863 
L 1178 4863 
L 1178 4134 
L 603 4134 
L 603 4863 
z
" transform="scale(0.015625)"/>
      <path id="DejaVuSans-76" d="M 191 3500 
L 800 3500 
L 1894 563 
L 2988 3500 
L 3597 3500 
L 2284 0 
L 1503 0 
L 191 3500 
z
" transform="scale(0.015625)"/>
      <path id="DejaVuSans-50" d="M 1259 4147 
L 1259 2394 
L 2053 2394 
Q 2494 2394 2734 2622 
Q 2975 2850 2975 3272 
Q 2975 3691 2734 3919 
Q 2494 4147 2053 4147 
L 1259 4147 
z
M 628 4666 
L 2053 4666 
Q 2838 4666 3239 4311 
Q 3641 3956 3641 3272 
Q 3641 2581 3239 2228 
Q 2838 1875 2053 1875 
L 1259 1875 
L 1259 0 
L 628 0 
L 628 4666 
z
" transform="scale(0.015625)"/>
      <path id="DejaVuSans-6e" d="M 3513 2113 
L 3513 0 
L 2938 0 
L 2938 2094 
Q 2938 2591 2744 2837 
Q 2550 3084 2163 3084 
Q 1697 3084 1428 2787 
Q 1159 2491 1159 1978 
L 1159 0 
L 581 0 
L 581 3500 
L 1159 3500 
L 1159 2956 
Q 1366 3272 1645 3428 
Q 1925 3584 2291 3584 
Q 2894 3584 3203 3211 
Q 3513 2838 3513 2113 
z
" transform="scale(0.015625)"/>
      <path id="DejaVuSans-28" d="M 1984 4856 
Q 1566 4138 1362 3434 
Q 1159 2731 1159 2009 
Q 1159 1288 1364 580 
Q 1569 -128 1984 -844 
L 1484 -844 
Q 1016 -109 783 600 
Q 550 1309 550 2009 
Q 550 2706 781 3412 
Q 1013 4119 1484 4856 
L 1984 4856 
z
" transform="scale(0.015625)"/>
      <path id="DejaVuSans-4e" d="M 628 4666 
L 1478 4666 
L 3547 763 
L 3547 4666 
L 4159 4666 
L 4159 0 
L 3309 0 
L 1241 3903 
L 1241 0 
L 628 0 
L 628 4666 
z
" transform="scale(0.015625)"/>
      <path id="DejaVuSans-7a" d="M 353 3500 
L 3084 3500 
L 3084 2975 
L 922 459 
L 3084 459 
L 3084 0 
L 275 0 
L 275 525 
L 2438 3041 
L 353 3041 
L 353 3500 
z
" transform="scale(0.015625)"/>
      <path id="DejaVuSans-29" d="M 513 4856 
L 1013 4856 
Q 1481 4119 1714 3412 
Q 1947 2706 1947 2009 
Q 1947 1309 1714 600 
Q 1481 -109 1013 -844 
L 513 -844 
Q 928 -128 1133 580 
Q 1338 1288 1338 2009 
Q 1338 2731 1133 3434 
Q 928 4138 513 4856 
z
" transform="scale(0.015625)"/>
     </defs>
     <use xlink:href="#DejaVuSans-42"/>
     <use xlink:href="#DejaVuSans-61" transform="translate(68.603516 0)"/>
     <use xlink:href="#DejaVuSans-63" transform="translate(129.882812 0)"/>
     <use xlink:href="#DejaVuSans-6b" transform="translate(184.863281 0)"/>
     <use xlink:href="#DejaVuSans-74" transform="translate(242.773438 0)"/>
     <use xlink:href="#DejaVuSans-65" transform="translate(281.982422 0)"/>
     <use xlink:href="#DejaVuSans-73" transform="translate(343.505859 0)"/>
     <use xlink:href="#DejaVuSans-74" transform="translate(395.605469 0)"/>
     <use xlink:href="#DejaVuSans-65" transform="translate(434.814453 0)"/>
     <use xlink:href="#DejaVuSans-64" transform="translate(496.337891 0)"/>
     <use xlink:href="#DejaVuSans-20" transform="translate(559.814453 0)"/>
     <use xlink:href="#DejaVuSans-43" transform="translate(591.601562 0)"/>
     <use xlink:href="#DejaVuSans-75" transform="translate(661.425781 0)"/>
     <use xlink:href="#DejaVuSans-6d" transform="translate(724.804688 0)"/>
     <use xlink:href="#DejaVuSans-75" transform="translate(822.216797 0)"/>
     <use xlink:href="#DejaVuSans-6c" transform="translate(885.595703 0)"/>
     <use xlink:href="#DejaVuSans-61" transform="translate(913.378906 0)"/>
     <use xlink:href="#DejaVuSans-74" transform="translate(974.658203 0)"/>
     <use xlink:href="#DejaVuSans-69" transform="translate(1013.867188 0)"/>
     <use xlink:href="#DejaVuSans-76" transform="translate(1041.650391 0)"/>
     <use xlink:href="#DejaVuSans-65" transform="translate(1100.830078 0)"/>
     <use xlink:href="#DejaVuSans-20" transform="translate(1162.353516 0)"/>
     <use xlink:href="#DejaVuSans-50" transform="translate(1194.140625 0)"/>
     <use xlink:href="#DejaVuSans-65" transform="translate(1250.818359 0)"/>
     <use xlink:href="#DejaVuSans-72" transform="translate(1312.341797 0)"/>
     <use xlink:href="#DejaVuSans-66" transform="translate(1353.455078 0)"/>
     <use xlink:href="#DejaVuSans-6f" transform="translate(1388.660156 0)"/>
     <use xlink:href="#DejaVuSans-72" transform="translate(1449.841797 0)"/>
     <use xlink:href="#DejaVuSans-6d" transform="translate(1489.205078 0)"/>
     <use xlink:href="#DejaVuSans-61" transform="translate(1586.617188 0)"/>
     <use xlink:href="#DejaVuSans-6e" transform="translate(1647.896484 0)"/>
     <use xlink:href="#DejaVuSans-63" transform="translate(1711.275391 0)"/>
     <use xlink:href="#DejaVuSans-65" transform="translate(1766.255859 0)"/>
     <use xlink:href="#DejaVuSans-20" transform="translate(1827.779297 0)"/>
     <use xlink:href="#DejaVuSans-28" transform="translate(1859.566406 0)"/>
     <use xlink:href="#DejaVuSans-4e" transform="translate(1898.580078 0)"/>
     <use xlink:href="#DejaVuSans-6f" transform="translate(1973.384766 0)"/>
     <use xlink:href="#DejaVuSans-72" transform="translate(2034.566406 0)"/>
     <use xlink:href="#DejaVuSans-6d" transform="translate(2073.929688 0)"/>
     <use xlink:href="#DejaVuSans-61" transform="translate(2171.341797 0)"/>
     <use xlink:href="#DejaVuSans-6c" transform="translate(2232.621094 0)"/>
     <use xlink:href="#DejaVuSans-69" transform="translate(2260.404297 0)"/>
     <use xlink:href="#DejaVuSans-7a" transform="translate(2288.1875 0)"/>
     <use xlink:href="#DejaVuSans-65" transform="translate(2340.677734 0)"/>
     <use xlink:href="#DejaVuSans-64" transform="translate(2402.201172 0)"/>
     <use xlink:href="#DejaVuSans-20" transform="translate(2465.677734 0)"/>
     <use xlink:href="#DejaVuSans-74" transform="translate(2497.464844 0)"/>
     <use xlink:href="#DejaVuSans-6f" transform="translate(2536.673828 0)"/>
     <use xlink:href="#DejaVuSans-20" transform="translate(2597.855469 0)"/>
     <use xlink:href="#DejaVuSans-24" transform="translate(2629.642578 0)"/>
     <use xlink:href="#DejaVuSans-31" transform="translate(2693.265625 0)"/>
     <use xlink:href="#DejaVuSans-30" transform="translate(2756.888672 0)"/>
     <use xlink:href="#DejaVuSans-2c" transform="translate(2820.511719 0)"/>
     <use xlink:href="#DejaVuSans-30" transform="translate(2852.298828 0)"/>
     <use xlink:href="#DejaVuSans-30" transform="translate(2915.921875 0)"/>
     <use xlink:href="#DejaVuSans-30" transform="translate(2979.544922 0)"/>
     <use xlink:href="#DejaVuSans-29" transform="translate(3043.167969 0)"/>
    </g>
   </g>
   <g id="legend_1">
    <g id="line2d_22">
     <path d="M 69.72625 36.38625 
L 78.72625 36.38625 
L 87.72625 36.38625 
" style="fill: none; stroke: #1f77b4; stroke-width: 2.8; stroke-linecap: square"/>
    </g>
    <g id="text_24">
     <!-- Diamond Creek ETF Arb Fund (Net) -->
     <g transform="translate(94.92625 39.53625) scale(0.09 -0.09)">
      <defs>
       <path id="DejaVuSans-44" d="M 1259 4147 
L 1259 519 
L 2022 519 
Q 2988 519 3436 956 
Q 3884 1394 3884 2338 
Q 3884 3275 3436 3711 
Q 2988 4147 2022 4147 
L 1259 4147 
z
M 628 4666 
L 1925 4666 
Q 3281 4666 3915 4102 
Q 4550 3538 4550 2338 
Q 4550 1131 3912 565 
Q 3275 0 1925 0 
L 628 0 
L 628 4666 
z
" transform="scale(0.015625)"/>
       <path id="DejaVuSans-45" d="M 628 4666 
L 3578 4666 
L 3578 4134 
L 1259 4134 
L 1259 2753 
L 3481 2753 
L 3481 2222 
L 1259 2222 
L 1259 531 
L 3634 531 
L 3634 0 
L 628 0 
L 628 4666 
z
" transform="scale(0.015625)"/>
       <path id="DejaVuSans-54" d="M -19 4666 
L 3928 4666 
L 3928 4134 
L 2272 4134 
L 2272 0 
L 1638 0 
L 1638 4134 
L -19 4134 
L -19 4666 
z
" transform="scale(0.015625)"/>
       <path id="DejaVuSans-46" d="M 628 4666 
L 3309 4666 
L 3309 4134 
L 1259 4134 
L 1259 2759 
L 3109 2759 
L 3109 2228 
L 1259 2228 
L 1259 0 
L 628 0 
L 628 4666 
z
" transform="scale(0.015625)"/>
       <path id="DejaVuSans-41" d="M 2188 4044 
L 1331 1722 
L 3047 1722 
L 2188 4044 
z
M 1831 4666 
L 2547 4666 
L 4325 0 
L 3669 0 
L 3244 1197 
L 1141 1197 
L 716 0 
L 50 0 
L 1831 4666 
z
" transform="scale(0.015625)"/>
       <path id="DejaVuSans-62" d="M 3116 1747 
Q 3116 2381 2855 2742 
Q 2594 3103 2138 3103 
Q 1681 3103 1420 2742 
Q 1159 2381 1159 1747 
Q 1159 1113 1420 752 
Q 1681 391 2138 391 
Q 2594 391 2855 752 
Q 3116 1113 3116 1747 
z
M 1159 2969 
Q 1341 3281 1617 3432 
Q 1894 3584 2278 3584 
Q 2916 3584 3314 3078 
Q 3713 2572 3713 1747 
Q 3713 922 3314 415 
Q 2916 -91 2278 -91 
Q 1894 -91 1617 61 
Q 1341 213 1159 525 
L 1159 0 
L 581 0 
L 581 4863 
L 1159 4863 
L 1159 2969 
z
" transform="scale(0.015625)"/>
      </defs>
      <use xlink:href="#DejaVuSans-44"/>
      <use xlink:href="#DejaVuSans-69" transform="translate(77.001953 0)"/>
      <use xlink:href="#DejaVuSans-61" transform="translate(104.785156 0)"/>
      <use xlink:href="#DejaVuSans-6d" transform="translate(166.064453 0)"/>
      <use xlink:href="#DejaVuSans-6f" transform="translate(263.476562 0)"/>
      <use xlink:href="#DejaVuSans-6e" transform="translate(324.658203 0)"/>
      <use xlink:href="#DejaVuSans-64" transform="translate(388.037109 0)"/>
      <use xlink:href="#DejaVuSans-20" transform="translate(451.513672 0)"/>
      <use xlink:href="#DejaVuSans-43" transform="translate(483.300781 0)"/>
      <use xlink:href="#DejaVuSans-72" transform="translate(553.125 0)"/>
      <use xlink:href="#DejaVuSans-65" transform="translate(591.988281 0)"/>
      <use xlink:href="#DejaVuSans-65" transform="translate(653.511719 0)"/>
      <use xlink:href="#DejaVuSans-6b" transform="translate(715.035156 0)"/>
      <use xlink:href="#DejaVuSans-20" transform="translate(772.945312 0)"/>
      <use xlink:href="#DejaVuSans-45" transform="translate(804.732422 0)"/>
      <use xlink:href="#DejaVuSans-54" transform="translate(867.916016 0)"/>
      <use xlink:href="#DejaVuSans-46" transform="translate(929 0)"/>
      <use xlink:href="#DejaVuSans-20" transform="translate(986.519531 0)"/>
      <use xlink:href="#DejaVuSans-41" transform="translate(1018.306641 0)"/>
      <use xlink:href="#DejaVuSans-72" transform="translate(1086.714844 0)"/>
      <use xlink:href="#DejaVuSans-62" transform="translate(1127.828125 0)"/>
      <use xlink:href="#DejaVuSans-20" transform="translate(1191.304688 0)"/>
      <use xlink:href="#DejaVuSans-46" transform="translate(1223.091797 0)"/>
      <use xlink:href="#DejaVuSans-75" transform="translate(1275.111328 0)"/>
      <use xlink:href="#DejaVuSans-6e" transform="translate(1338.490234 0)"/>
      <use xlink:href="#DejaVuSans-64" transform="translate(1401.869141 0)"/>
      <use xlink:href="#DejaVuSans-20" transform="translate(1465.345703 0)"/>
      <use xlink:href="#DejaVuSans-28" transform="translate(1497.132812 0)"/>
      <use xlink:href="#DejaVuSans-4e" transform="translate(1536.146484 0)"/>
      <use xlink:href="#DejaVuSans-65" transform="translate(1610.951172 0)"/>
      <use xlink:href="#DejaVuSans-74" transform="translate(1672.474609 0)"/>
      <use xlink:href="#DejaVuSans-29" transform="translate(1711.683594 0)"/>
     </g>
    </g>
    <g id="line2d_23">
     <path d="M 69.72625 49.596562 
L 78.72625 49.596562 
L 87.72625 49.596562 
" style="fill: none; stroke-dasharray: 8.14,3.52; stroke-dashoffset: 0; stroke: #ff7f0e; stroke-width: 2.2"/>
    </g>
    <g id="text_25">
     <!-- SPY (Total Return) -->
     <g transform="translate(94.92625 52.746562) scale(0.09 -0.09)">
      <defs>
       <path id="DejaVuSans-53" d="M 3425 4513 
L 3425 3897 
Q 3066 4069 2747 4153 
Q 2428 4238 2131 4238 
Q 1616 4238 1336 4038 
Q 1056 3838 1056 3469 
Q 1056 3159 1242 3001 
Q 1428 2844 1947 2747 
L 2328 2669 
Q 3034 2534 3370 2195 
Q 3706 1856 3706 1288 
Q 3706 609 3251 259 
Q 2797 -91 1919 -91 
Q 1588 -91 1214 -16 
Q 841 59 441 206 
L 441 856 
Q 825 641 1194 531 
Q 1563 422 1919 422 
Q 2459 422 2753 634 
Q 3047 847 3047 1241 
Q 3047 1584 2836 1778 
Q 2625 1972 2144 2069 
L 1759 2144 
Q 1053 2284 737 2584 
Q 422 2884 422 3419 
Q 422 4038 858 4394 
Q 1294 4750 2059 4750 
Q 2388 4750 2728 4690 
Q 3069 4631 3425 4513 
z
" transform="scale(0.015625)"/>
       <path id="DejaVuSans-59" d="M -13 4666 
L 666 4666 
L 1959 2747 
L 3244 4666 
L 3922 4666 
L 2272 2222 
L 2272 0 
L 1638 0 
L 1638 2222 
L -13 4666 
z
" transform="scale(0.015625)"/>
       <path id="DejaVuSans-52" d="M 2841 2188 
Q 3044 2119 3236 1894 
Q 3428 1669 3622 1275 
L 4263 0 
L 3584 0 
L 2988 1197 
Q 2756 1666 2539 1819 
Q 2322 1972 1947 1972 
L 1259 1972 
L 1259 0 
L 628 0 
L 628 4666 
L 2053 4666 
Q 2853 4666 3247 4331 
Q 3641 3997 3641 3322 
Q 3641 2881 3436 2590 
Q 3231 2300 2841 2188 
z
M 1259 4147 
L 1259 2491 
L 2053 2491 
Q 2509 2491 2742 2702 
Q 2975 2913 2975 3322 
Q 2975 3731 2742 3939 
Q 2509 4147 2053 4147 
L 1259 4147 
z
" transform="scale(0.015625)"/>
      </defs>
      <use xlink:href="#DejaVuSans-53"/>
      <use xlink:href="#DejaVuSans-50" transform="translate(63.476562 0)"/>
      <use xlink:href="#DejaVuSans-59" transform="translate(121.529297 0)"/>
      <use xlink:href="#DejaVuSans-20" transform="translate(182.613281 0)"/>
      <use xlink:href="#DejaVuSans-28" transform="translate(214.400391 0)"/>
      <use xlink:href="#DejaVuSans-54" transform="translate(253.414062 0)"/>
      <use xlink:href="#DejaVuSans-6f" transform="translate(297.498047 0)"/>
      <use xlink:href="#DejaVuSans-74" transform="translate(358.679688 0)"/>
      <use xlink:href="#DejaVuSans-61" transform="translate(397.888672 0)"/>
      <use xlink:href="#DejaVuSans-6c" transform="translate(459.167969 0)"/>
      <use xlink:href="#DejaVuSans-20" transform="translate(486.951172 0)"/>
      <use xlink:href="#DejaVuSans-52" transform="translate(518.738281 0)"/>
      <use xlink:href="#DejaVuSans-65" transform="translate(583.720703 0)"/>
      <use xlink:href="#DejaVuSans-74" transform="translate(645.244141 0)"/>
      <use xlink:href="#DejaVuSans-75" transform="translate(684.453125 0)"/>
      <use xlink:href="#DejaVuSans-72" transform="translate(747.832031 0)"/>
      <use xlink:href="#DejaVuSans-6e" transform="translate(787.195312 0)"/>
      <use xlink:href="#DejaVuSans-29" transform="translate(850.574219 0)"/>
     </g>
    </g>
   </g>
  </g>
 </g>
 <defs>
  <clipPath id="p5126021b40">
   <rect x="61.62625" y="24.597656" width="840.172727" height="375.8"/>
  </clipPath>
 </defs>
</svg>
