<?xml version="1.0" encoding="utf-8" standalone="no"?>
<!DOCTYPE svg PUBLIC "-//W3C//DTD SVG 1.1//EN"
  "http://www.w3.org/Graphics/SVG/1.1/DTD/svg11.dtd">
<svg xmlns:xlink="http://www.w3.org/1999/xlink" width="924.35462pt" height="424.275781pt" viewBox="0 0 924.35462 424.275781" xmlns="http://www.w3.org/2000/svg" version="1.1">
 <metadata>
  <rdf:RDF xmlns:dc="http://purl.org/dc/elements/1.1/" xmlns:cc="http://creativecommons.org/ns#" xmlns:rdf="http://www.w3.org/1999/02/22-rdf-syntax-ns#">
   <cc:Work>
    <dc:type rdf:resource="http://purl.org/dc/dcmitype/StillImage"/>
    <dc:date>2026-04-15T13:48:50.225298</dc:date>
    <dc:format>image/svg+xml</dc:format>
    <dc:creator>
     <cc:Agent>
      <dc:title>Matplotlib v3.10.8, https://matplotlib.org/</dc:title>
     </cc:Agent>
    </dc:creator>
   </cc:Work>
  </rdf:RDF>
 </metadata>
 <defs>
  <style type="text/css">*{stroke-linejoin: round; stroke-linecap: butt}</style>
 </defs>
 <g id="figure_1">
  <g id="patch_1">
   <path d="M 0 424.275781 
L 924.35462 424.275781 
L 924.35462 0 
L 0 0 
z
" style="fill: #ffffff"/>
  </g>
  <g id="axes_1">
   <g id="patch_2">
    <path d="M 61.62625 400.397656 
L 901.798977 400.397656 
L 901.798977 24.597656 
L 61.62625 24.597656 
z
" style="fill: #ffffff"/>
   </g>
   <g id="matplotlib.axis_1">
    <g id="xtick_1">
     <g id="line2d_1">
      <defs>
       <path id="m0b325d6b66" d="M 0 0 
L 0 3.5 
" style="stroke: #000000; stroke-width: 0.8"/>
      </defs>
      <g>
       <use xlink:href="#m0b325d6b66" x="98.524637" y="400.397656" style="stroke: #000000; stroke-width: 0.8"/>
      </g>
     </g>
     <g id="text_1">
      <!-- 2023-01 -->
      <g transform="translate(77.633231 414.996094) scale(0.1 -0.1)">
       <defs>
        <path id="DejaVuSans-32" d="M 1228 531 
L 3431 531 
L 3431 0 
L 469 0 
L 469 531 
Q 828 903 1448 1529 
Q 2069 2156 2228 2338 
Q 2531 2678 2651 2914 
Q 2772 3150 2772 3378 
Q 2772 3750 2511 3984 
Q 2250 4219 1831 4219 
Q 1534 4219 1204 4116 
Q 875 4013 500 3803 
L 500 4441 
Q 881 4594 1212 4672 
Q 1544 4750 1819 4750 
Q 2544 4750 2975 4387 
Q 3406 4025 3406 3419 
Q 3406 3131 3298 2873 
Q 3191 2616 2906 2266 
Q 2828 2175 2409 1742 
Q 1991 1309 1228 531 
z
" transform="scale(0.015625)"/>
        <path id="DejaVuSans-30" d="M 2034 4250 
Q 1547 4250 1301 3770 
Q 1056 3291 1056 2328 
Q 1056 1369 1301 889 
Q 1547 409 2034 409 
Q 2525 409 2770 889 
Q 3016 1369 3016 2328 
Q 3016 3291 2770 3770 
Q 2525 4250 2034 4250 
z
M 2034 4750 
Q 2819 4750 3233 4129 
Q 3647 3509 3647 2328 
Q 3647 1150 3233 529 
Q 2819 -91 2034 -91 
Q 1250 -91 836 529 
Q 422 1150 422 2328 
Q 422 3509 836 4129 
Q 1250 4750 2034 4750 
z
" transform="scale(0.015625)"/>
        <path id="DejaVuSans-33" d="M 2597 2516 
Q 3050 2419 3304 2112 
Q 3559 1806 3559 1356 
Q 3559 666 3084 287 
Q 2609 -91 1734 -91 
Q 1441 -91 1130 -33 
Q 819 25 488 141 
L 488 750 
Q 750 597 1062 519 
Q 1375 441 1716 441 
Q 2309 441 2620 675 
Q 2931 909 2931 1356 
Q 2931 1769 2642 2001 
Q 2353 2234 1838 2234 
L 1294 2234 
L 1294 2753 
L 1863 2753 
Q 2328 2753 2575 2939 
Q 2822 3125 2822 3475 
Q 2822 3834 2567 4026 
Q 2313 4219 1838 4219 
Q 1578 4219 1281 4162 
Q 984 4106 628 3988 
L 628 4550 
Q 988 4650 1302 4700 
Q 1616 4750 1894 4750 
Q 2613 4750 3031 4423 
Q 3450 4097 3450 3541 
Q 3450 3153 3228 2886 
Q 3006 2619 2597 2516 
z
" transform="scale(0.015625)"/>
        <path id="DejaVuSans-2d" d="M 313 2009 
L 1997 2009 
L 1997 1497 
L 313 1497 
L 313 2009 
z
" transform="scale(0.015625)"/>
        <path id="DejaVuSans-31" d="M 794 531 
L 1825 531 
L 1825 4091 
L 703 3866 
L 703 4441 
L 1819 4666 
L 2450 4666 
L 2450 531 
L 3481 531 
L 3481 0 
L 794 0 
L 794 531 
z
" transform="scale(0.015625)"/>
       </defs>
       <use xlink:href="#DejaVuSans-32"/>
       <use xlink:href="#DejaVuSans-30" transform="translate(63.623047 0)"/>
       <use xlink:href="#DejaVuSans-32" transform="translate(127.246094 0)"/>
       <use xlink:href="#DejaVuSans-33" transform="translate(190.869141 0)"/>
       <use xlink:href="#DejaVuSans-2d" transform="translate(254.492188 0)"/>
       <use xlink:href="#DejaVuSans-30" transform="translate(290.576172 0)"/>
       <use xlink:href="#DejaVuSans-31" transform="translate(354.199219 0)"/>
      </g>
     </g>
    </g>
    <g id="xtick_2">
     <g id="line2d_2">
      <g>
       <use xlink:href="#m0b325d6b66" x="176.001566" y="400.397656" style="stroke: #000000; stroke-width: 0.8"/>
      </g>
     </g>
     <g id="text_2">
      <!-- 2023-05 -->
      <g transform="translate(155.11016 414.996094) scale(0.1 -0.1)">
       <defs>
        <path id="DejaVuSans-35" d="M 691 4666 
L 3169 4666 
L 3169 4134 
L 1269 4134 
L 1269 2991 
Q 1406 3038 1543 3061 
Q 1681 3084 1819 3084 
Q 2600 3084 3056 2656 
Q 3513 2228 3513 1497 
Q 3513 744 3044 326 
Q 2575 -91 1722 -91 
Q 1428 -91 1123 -41 
Q 819 9 494 109 
L 494 744 
Q 775 591 1075 516 
Q 1375 441 1709 441 
Q 2250 441 2565 725 
Q 2881 1009 2881 1497 
Q 2881 1984 2565 2268 
Q 2250 2553 1709 2553 
Q 1456 2553 1204 2497 
Q 953 2441 691 2322 
L 691 4666 
z
" transform="scale(0.015625)"/>
       </defs>
       <use xlink:href="#DejaVuSans-32"/>
       <use xlink:href="#DejaVuSans-30" transform="translate(63.623047 0)"/>
       <use xlink:href="#DejaVuSans-32" transform="translate(127.246094 0)"/>
       <use xlink:href="#DejaVuSans-33" transform="translate(190.869141 0)"/>
       <use xlink:href="#DejaVuSans-2d" transform="translate(254.492188 0)"/>
       <use xlink:href="#DejaVuSans-30" transform="translate(290.576172 0)"/>
       <use xlink:href="#DejaVuSans-35" transform="translate(354.199219 0)"/>
      </g>
     </g>
    </g>
    <g id="xtick_3">
     <g id="line2d_3">
      <g>
       <use xlink:href="#m0b325d6b66" x="255.415418" y="400.397656" style="stroke: #000000; stroke-width: 0.8"/>
      </g>
     </g>
     <g id="text_3">
      <!-- 2023-09 -->
      <g transform="translate(234.524012 414.996094) scale(0.1 -0.1)">
       <defs>
        <path id="DejaVuSans-39" d="M 703 97 
L 703 672 
Q 941 559 1184 500 
Q 1428 441 1663 441 
Q 2288 441 2617 861 
Q 2947 1281 2994 2138 
Q 2813 1869 2534 1725 
Q 2256 1581 1919 1581 
Q 1219 1581 811 2004 
Q 403 2428 403 3163 
Q 403 3881 828 4315 
Q 1253 4750 1959 4750 
Q 2769 4750 3195 4129 
Q 3622 3509 3622 2328 
Q 3622 1225 3098 567 
Q 2575 -91 1691 -91 
Q 1453 -91 1209 -44 
Q 966 3 703 97 
z
M 1959 2075 
Q 2384 2075 2632 2365 
Q 2881 2656 2881 3163 
Q 2881 3666 2632 3958 
Q 2384 4250 1959 4250 
Q 1534 4250 1286 3958 
Q 1038 3666 1038 3163 
Q 1038 2656 1286 2365 
Q 1534 2075 1959 2075 
z
" transform="scale(0.015625)"/>
       </defs>
       <use xlink:href="#DejaVuSans-32"/>
       <use xlink:href="#DejaVuSans-30" transform="translate(63.623047 0)"/>
       <use xlink:href="#DejaVuSans-32" transform="translate(127.246094 0)"/>
       <use xlink:href="#DejaVuSans-33" transform="translate(190.869141 0)"/>
       <use xlink:href="#DejaVuSans-2d" transform="translate(254.492188 0)"/>
       <use xlink:href="#DejaVuSans-30" transform="translate(290.576172 0)"/>
       <use xlink:href="#DejaVuSans-39" transform="translate(354.199219 0)"/>
      </g>
     </g>
    </g>
    <g id="xtick_4">
     <g id="line2d_4">
      <g>
       <use xlink:href="#m0b325d6b66" x="334.183629" y="400.397656" style="stroke: #000000; stroke-width: 0.8"/>
      </g>
     </g>
     <g id="text_4">
      <!-- 2024-01 -->
      <g transform="translate(313.292222 414.996094) scale(0.1 -0.1)">
       <defs>
        <path id="DejaVuSans-34" d="M 2419 4116 
L 825 1625 
L 2419 1625 
L 2419 4116 
z
M 2253 4666 
L 3047 4666 
L 3047 1625 
L 3713 1625 
L 3713 1100 
L 3047 1100 
L 3047 0 
L 2419 0 
L 2419 1100 
L 313 1100 
L 313 1709 
L 2253 4666 
z
" transform="scale(0.015625)"/>
       </defs>
       <use xlink:href="#DejaVuSans-32"/>
       <use xlink:href="#DejaVuSans-30" transform="translate(63.623047 0)"/>
       <use xlink:href="#DejaVuSans-32" transform="translate(127.246094 0)"/>
       <use xlink:href="#DejaVuSans-34" transform="translate(190.869141 0)"/>
       <use xlink:href="#DejaVuSans-2d" transform="translate(254.492188 0)"/>
       <use xlink:href="#DejaVuSans-30" transform="translate(290.576172 0)"/>
       <use xlink:href="#DejaVuSans-31" transform="translate(354.199219 0)"/>
      </g>
     </g>
    </g>
    <g id="xtick_5">
     <g id="line2d_5">
      <g>
       <use xlink:href="#m0b325d6b66" x="412.306198" y="400.397656" style="stroke: #000000; stroke-width: 0.8"/>
      </g>
     </g>
     <g id="text_5">
      <!-- 2024-05 -->
      <g transform="translate(391.414792 414.996094) scale(0.1 -0.1)">
       <use xlink:href="#DejaVuSans-32"/>
       <use xlink:href="#DejaVuSans-30" transform="translate(63.623047 0)"/>
       <use xlink:href="#DejaVuSans-32" transform="translate(127.246094 0)"/>
       <use xlink:href="#DejaVuSans-34" transform="translate(190.869141 0)"/>
       <use xlink:href="#DejaVuSans-2d" transform="translate(254.492188 0)"/>
       <use xlink:href="#DejaVuSans-30" transform="translate(290.576172 0)"/>
       <use xlink:href="#DejaVuSans-35" transform="translate(354.199219 0)"/>
      </g>
     </g>
    </g>
    <g id="xtick_6">
     <g id="line2d_6">
      <g>
       <use xlink:href="#m0b325d6b66" x="491.72005" y="400.397656" style="stroke: #000000; stroke-width: 0.8"/>
      </g>
     </g>
     <g id="text_6">
      <!-- 2024-09 -->
      <g transform="translate(470.828644 414.996094) scale(0.1 -0.1)">
       <use xlink:href="#DejaVuSans-32"/>
       <use xlink:href="#DejaVuSans-30" transform="translate(63.623047 0)"/>
       <use xlink:href="#DejaVuSans-32" transform="translate(127.246094 0)"/>
       <use xlink:href="#DejaVuSans-34" transform="translate(190.869141 0)"/>
       <use xlink:href="#DejaVuSans-2d" transform="translate(254.492188 0)"/>
       <use xlink:href="#DejaVuSans-30" transform="translate(290.576172 0)"/>
       <use xlink:href="#DejaVuSans-39" transform="translate(354.199219 0)"/>
      </g>
     </g>
    </g>
    <g id="xtick_7">
     <g id="line2d_7">
      <g>
       <use xlink:href="#m0b325d6b66" x="570.488261" y="400.397656" style="stroke: #000000; stroke-width: 0.8"/>
      </g>
     </g>
     <g id="text_7">
      <!-- 2025-01 -->
      <g transform="translate(549.596855 414.996094) scale(0.1 -0.1)">
       <use xlink:href="#DejaVuSans-32"/>
       <use xlink:href="#DejaVuSans-30" transform="translate(63.623047 0)"/>
       <use xlink:href="#DejaVuSans-32" transform="translate(127.246094 0)"/>
       <use xlink:href="#DejaVuSans-35" transform="translate(190.869141 0)"/>
       <use xlink:href="#DejaVuSans-2d" transform="translate(254.492188 0)"/>
       <use xlink:href="#DejaVuSans-30" transform="translate(290.576172 0)"/>
       <use xlink:href="#DejaVuSans-31" transform="translate(354.199219 0)"/>
      </g>
     </g>
    </g>
    <g id="xtick_8">
     <g id="line2d_8">
      <g>
       <use xlink:href="#m0b325d6b66" x="647.96519" y="400.397656" style="stroke: #000000; stroke-width: 0.8"/>
      </g>
     </g>
     <g id="text_8">
      <!-- 2025-05 -->
      <g transform="translate(627.073783 414.996094) scale(0.1 -0.1)">
       <use xlink:href="#DejaVuSans-32"/>
       <use xlink:href="#DejaVuSans-30" transform="translate(63.623047 0)"/>
       <use xlink:href="#DejaVuSans-32" transform="translate(127.246094 0)"/>
       <use xlink:href="#DejaVuSans-35" transform="translate(190.869141 0)"/>
       <use xlink:href="#DejaVuSans-2d" transform="translate(254.492188 0)"/>
       <use xlink:href="#DejaVuSans-30" transform="translate(290.576172 0)"/>
       <use xlink:href="#DejaVuSans-35" transform="translate(354.199219 0)"/>
      </g>
     </g>
    </g>
    <g id="xtick_9">
     <g id="line2d_9">
      <g>
       <use xlink:href="#m0b325d6b66" x="727.379042" y="400.397656" style="stroke: #000000; stroke-width: 0.8"/>
      </g>
     </g>
     <g id="text_9">
      <!-- 2025-09 -->
      <g transform="translate(706.487635 414.996094) scale(0.1 -0.1)">
       <use xlink:href="#DejaVuSans-32"/>
       <use xlink:href="#DejaVuSans-30" transform="translate(63.623047 0)"/>
       <use xlink:href="#DejaVuSans-32" transform="translate(127.246094 0)"/>
       <use xlink:href="#DejaVuSans-35" transform="translate(190.869141 0)"/>
       <use xlink:href="#DejaVuSans-2d" transform="translate(254.492188 0)"/>
       <use xlink:href="#DejaVuSans-30" transform="translate(290.576172 0)"/>
       <use xlink:href="#DejaVuSans-39" transform="translate(354.199219 0)"/>
      </g>
     </g>
    </g>
    <g id="xtick_10">
     <g id="line2d_10">
      <g>
       <use xlink:href="#m0b325d6b66" x="806.147252" y="400.397656" style="stroke: #000000; stroke-width: 0.8"/>
      </g>
     </g>
     <g id="text_10">
      <!-- 2026-01 -->
      <g transform="translate(785.255846 414.996094) scale(0.1 -0.1)">
       <defs>
        <path id="DejaVuSans-36" d="M 2113 2584 
Q 1688 2584 1439 2293 
Q 1191 2003 1191 1497 
Q 1191 994 1439 701 
Q 1688 409 2113 409 
Q 2538 409 2786 701 
Q 3034 994 3034 1497 
Q 3034 2003 2786 2293 
Q 2538 2584 2113 2584 
z
M 3366 4563 
L 3366 3988 
Q 3128 4100 2886 4159 
Q 2644 4219 2406 4219 
Q 1781 4219 1451 3797 
Q 1122 3375 1075 2522 
Q 1259 2794 1537 2939 
Q 1816 3084 2150 3084 
Q 2853 3084 3261 2657 
Q 3669 2231 3669 1497 
Q 3669 778 3244 343 
Q 2819 -91 2113 -91 
Q 1303 -91 875 529 
Q 447 1150 447 2328 
Q 447 3434 972 4092 
Q 1497 4750 2381 4750 
Q 2619 4750 2861 4703 
Q 3103 4656 3366 4563 
z
" transform="scale(0.015625)"/>
       </defs>
       <use xlink:href="#DejaVuSans-32"/>
       <use xlink:href="#DejaVuSans-30" transform="translate(63.623047 0)"/>
       <use xlink:href="#DejaVuSans-32" transform="translate(127.246094 0)"/>
       <use xlink:href="#DejaVuSans-36" transform="translate(190.869141 0)"/>
       <use xlink:href="#DejaVuSans-2d" transform="translate(254.492188 0)"/>
       <use xlink:href="#DejaVuSans-30" transform="translate(290.576172 0)"/>
       <use xlink:href="#DejaVuSans-31" transform="translate(354.199219 0)"/>
      </g>
     </g>
    </g>
    <g id="xtick_11">
     <g id="line2d_11">
      <g>
       <use xlink:href="#m0b325d6b66" x="883.624181" y="400.397656" style="stroke: #000000; stroke-width: 0.8"/>
      </g>
     </g>
     <g id="text_11">
      <!-- 2026-05 -->
      <g transform="translate(862.732775 414.996094) scale(0.1 -0.1)">
       <use xlink:href="#DejaVuSans-32"/>
       <use xlink:href="#DejaVuSans-30" transform="translate(63.623047 0)"/>
       <use xlink:href="#DejaVuSans-32" transform="translate(127.246094 0)"/>
       <use xlink:href="#DejaVuSans-36" transform="translate(190.869141 0)"/>
       <use xlink:href="#DejaVuSans-2d" transform="translate(254.492188 0)"/>
       <use xlink:href="#DejaVuSans-30" transform="translate(290.576172 0)"/>
       <use xlink:href="#DejaVuSans-35" transform="translate(354.199219 0)"/>
      </g>
     </g>
    </g>
   </g>
   <g id="matplotlib.axis_2">
    <g id="ytick_1">
     <g id="line2d_12">
      <defs>
       <path id="m7bf78c90a7" d="M 0 0 
L -3.5 0 
" style="stroke: #000000; stroke-width: 0.8"/>
      </defs>
      <g>
       <use xlink:href="#m7bf78c90a7" x="61.62625" y="382.334119" style="stroke: #000000; stroke-width: 0.8"/>
      </g>
     </g>
     <g id="text_12">
      <!-- 10000 -->
      <g transform="translate(22.81375 386.133337) scale(0.1 -0.1)">
       <use xlink:href="#DejaVuSans-31"/>
       <use xlink:href="#DejaVuSans-30" transform="translate(63.623047 0)"/>
       <use xlink:href="#DejaVuSans-30" transform="translate(127.246094 0)"/>
       <use xlink:href="#DejaVuSans-30" transform="translate(190.869141 0)"/>
       <use xlink:href="#DejaVuSans-30" transform="translate(254.492188 0)"/>
      </g>
     </g>
    </g>
    <g id="ytick_2">
     <g id="line2d_13">
      <g>
       <use xlink:href="#m7bf78c90a7" x="61.62625" y="330.408588" style="stroke: #000000; stroke-width: 0.8"/>
      </g>
     </g>
     <g id="text_13">
      <!-- 12000 -->
      <g transform="translate(22.81375 334.207807) scale(0.1 -0.1)">
       <use xlink:href="#DejaVuSans-31"/>
       <use xlink:href="#DejaVuSans-32" transform="translate(63.623047 0)"/>
       <use xlink:href="#DejaVuSans-30" transform="translate(127.246094 0)"/>
       <use xlink:href="#DejaVuSans-30" transform="translate(190.869141 0)"/>
       <use xlink:href="#DejaVuSans-30" transform="translate(254.492188 0)"/>
      </g>
     </g>
    </g>
    <g id="ytick_3">
     <g id="line2d_14">
      <g>
       <use xlink:href="#m7bf78c90a7" x="61.62625" y="278.483058" style="stroke: #000000; stroke-width: 0.8"/>
      </g>
     </g>
     <g id="text_14">
      <!-- 14000 -->
      <g transform="translate(22.81375 282.282277) scale(0.1 -0.1)">
       <use xlink:href="#DejaVuSans-31"/>
       <use xlink:href="#DejaVuSans-34" transform="translate(63.623047 0)"/>
       <use xlink:href="#DejaVuSans-30" transform="translate(127.246094 0)"/>
       <use xlink:href="#DejaVuSans-30" transform="translate(190.869141 0)"/>
       <use xlink:href="#DejaVuSans-30" transform="translate(254.492188 0)"/>
      </g>
     </g>
    </g>
    <g id="ytick_4">
     <g id="line2d_15">
      <g>
       <use xlink:href="#m7bf78c90a7" x="61.62625" y="226.557528" style="stroke: #000000; stroke-width: 0.8"/>
      </g>
     </g>
     <g id="text_15">
      <!-- 16000 -->
      <g transform="translate(22.81375 230.356746) scale(0.1 -0.1)">
       <use xlink:href="#DejaVuSans-31"/>
       <use xlink:href="#DejaVuSans-36" transform="translate(63.623047 0)"/>
       <use xlink:href="#DejaVuSans-30" transform="translate(127.246094 0)"/>
       <use xlink:href="#DejaVuSans-30" transform="translate(190.869141 0)"/>
       <use xlink:href="#DejaVuSans-30" transform="translate(254.492188 0)"/>
      </g>
     </g>
    </g>
    <g id="ytick_5">
     <g id="line2d_16">
      <g>
       <use xlink:href="#m7bf78c90a7" x="61.62625" y="174.631997" style="stroke: #000000; stroke-width: 0.8"/>
      </g>
     </g>
     <g id="text_16">
      <!-- 18000 -->
      <g transform="translate(22.81375 178.431216) scale(0.1 -0.1)">
       <defs>
        <path id="DejaVuSans-38" d="M 2034 2216 
Q 1584 2216 1326 1975 
Q 1069 1734 1069 1313 
Q 1069 891 1326 650 
Q 1584 409 2034 409 
Q 2484 409 2743 651 
Q 3003 894 3003 1313 
Q 3003 1734 2745 1975 
Q 2488 2216 2034 2216 
z
M 1403 2484 
Q 997 2584 770 2862 
Q 544 3141 544 3541 
Q 544 4100 942 4425 
Q 1341 4750 2034 4750 
Q 2731 4750 3128 4425 
Q 3525 4100 3525 3541 
Q 3525 3141 3298 2862 
Q 3072 2584 2669 2484 
Q 3125 2378 3379 2068 
Q 3634 1759 3634 1313 
Q 3634 634 3220 271 
Q 2806 -91 2034 -91 
Q 1263 -91 848 271 
Q 434 634 434 1313 
Q 434 1759 690 2068 
Q 947 2378 1403 2484 
z
M 1172 3481 
Q 1172 3119 1398 2916 
Q 1625 2713 2034 2713 
Q 2441 2713 2670 2916 
Q 2900 3119 2900 3481 
Q 2900 3844 2670 4047 
Q 2441 4250 2034 4250 
Q 1625 4250 1398 4047 
Q 1172 3844 1172 3481 
z
" transform="scale(0.015625)"/>
       </defs>
       <use xlink:href="#DejaVuSans-31"/>
       <use xlink:href="#DejaVuSans-38" transform="translate(63.623047 0)"/>
       <use xlink:href="#DejaVuSans-30" transform="translate(127.246094 0)"/>
       <use xlink:href="#DejaVuSans-30" transform="translate(190.869141 0)"/>
       <use xlink:href="#DejaVuSans-30" transform="translate(254.492188 0)"/>
      </g>
     </g>
    </g>
    <g id="ytick_6">
     <g id="line2d_17">
      <g>
       <use xlink:href="#m7bf78c90a7" x="61.62625" y="122.706467" style="stroke: #000000; stroke-width: 0.8"/>
      </g>
     </g>
     <g id="text_17">
      <!-- 20000 -->
      <g transform="translate(22.81375 126.505686) scale(0.1 -0.1)">
       <use xlink:href="#DejaVuSans-32"/>
       <use xlink:href="#DejaVuSans-30" transform="translate(63.623047 0)"/>
       <use xlink:href="#DejaVuSans-30" transform="translate(127.246094 0)"/>
       <use xlink:href="#DejaVuSans-30" transform="translate(190.869141 0)"/>
       <use xlink:href="#DejaVuSans-30" transform="translate(254.492188 0)"/>
      </g>
     </g>
    </g>
    <g id="ytick_7">
     <g id="line2d_18">
      <g>
       <use xlink:href="#m7bf78c90a7" x="61.62625" y="70.780936" style="stroke: #000000; stroke-width: 0.8"/>
      </g>
     </g>
     <g id="text_18">
      <!-- 22000 -->
      <g transform="translate(22.81375 74.580155) scale(0.1 -0.1)">
       <use xlink:href="#DejaVuSans-32"/>
       <use xlink:href="#DejaVuSans-32" transform="translate(63.623047 0)"/>
       <use xlink:href="#DejaVuSans-30" transform="translate(127.246094 0)"/>
       <use xlink:href="#DejaVuSans-30" transform="translate(190.869141 0)"/>
       <use xlink:href="#DejaVuSans-30" transform="translate(254.492188 0)"/>
      </g>
     </g>
    </g>
    <g id="text_19">
     <!-- Growth of $10,000 -->
     <g transform="translate(16.318125 268.620156) rotate(-90) scale(0.12 -0.12)">
      <defs>
       <path id="DejaVuSans-47" d="M 3809 666 
L 3809 1919 
L 2778 1919 
L 2778 2438 
L 4434 2438 
L 4434 434 
Q 4069 175 3628 42 
Q 3188 -91 2688 -91 
Q 1594 -91 976 548 
Q 359 1188 359 2328 
Q 359 3472 976 4111 
Q 1594 4750 2688 4750 
Q 3144 4750 3555 4637 
Q 3966 4525 4313 4306 
L 4313 3634 
Q 3963 3931 3569 4081 
Q 3175 4231 2741 4231 
Q 1884 4231 1454 3753 
Q 1025 3275 1025 2328 
Q 1025 1384 1454 906 
Q 1884 428 2741 428 
Q 3075 428 3337 486 
Q 3600 544 3809 666 
z
" transform="scale(0.015625)"/>
       <path id="DejaVuSans-72" d="M 2631 2963 
Q 2534 3019 2420 3045 
Q 2306 3072 2169 3072 
Q 1681 3072 1420 2755 
Q 1159 2438 1159 1844 
L 1159 0 
L 581 0 
L 581 3500 
L 1159 3500 
L 1159 2956 
Q 1341 3275 1631 3429 
Q 1922 3584 2338 3584 
Q 2397 3584 2469 3576 
Q 2541 3569 2628 3553 
L 2631 2963 
z
" transform="scale(0.015625)"/>
       <path id="DejaVuSans-6f" d="M 1959 3097 
Q 1497 3097 1228 2736 
Q 959 2375 959 1747 
Q 959 1119 1226 758 
Q 1494 397 1959 397 
Q 2419 397 2687 759 
Q 2956 1122 2956 1747 
Q 2956 2369 2687 2733 
Q 2419 3097 1959 3097 
z
M 1959 3584 
Q 2709 3584 3137 3096 
Q 3566 2609 3566 1747 
Q 3566 888 3137 398 
Q 2709 -91 1959 -91 
Q 1206 -91 779 398 
Q 353 888 353 1747 
Q 353 2609 779 3096 
Q 1206 3584 1959 3584 
z
" transform="scale(0.015625)"/>
       <path id="DejaVuSans-77" d="M 269 3500 
L 844 3500 
L 1563 769 
L 2278 3500 
L 2956 3500 
L 3675 769 
L 4391 3500 
L 4966 3500 
L 4050 0 
L 3372 0 
L 2619 2869 
L 1863 0 
L 1184 0 
L 269 3500 
z
" transform="scale(0.015625)"/>
       <path id="DejaVuSans-74" d="M 1172 4494 
L 1172 3500 
L 2356 3500 
L 2356 3053 
L 1172 3053 
L 1172 1153 
Q 1172 725 1289 603 
Q 1406 481 1766 481 
L 2356 481 
L 2356 0 
L 1766 0 
Q 1100 0 847 248 
Q 594 497 594 1153 
L 594 3053 
L 172 3053 
L 172 3500 
L 594 3500 
L 594 4494 
L 1172 4494 
z
" transform="scale(0.015625)"/>
       <path id="DejaVuSans-68" d="M 3513 2113 
L 3513 0 
L 2938 0 
L 2938 2094 
Q 2938 2591 2744 2837 
Q 2550 3084 2163 3084 
Q 1697 3084 1428 2787 
Q 1159 2491 1159 1978 
L 1159 0 
L 581 0 
L 581 4863 
L 1159 4863 
L 1159 2956 
Q 1366 3272 1645 3428 
Q 1925 3584 2291 3584 
Q 2894 3584 3203 3211 
Q 3513 2838 3513 2113 
z
" transform="scale(0.015625)"/>
       <path id="DejaVuSans-20" transform="scale(0.015625)"/>
       <path id="DejaVuSans-66" d="M 2375 4863 
L 2375 4384 
L 1825 4384 
Q 1516 4384 1395 4259 
Q 1275 4134 1275 3809 
L 1275 3500 
L 2222 3500 
L 2222 3053 
L 1275 3053 
L 1275 0 
L 697 0 
L 697 3053 
L 147 3053 
L 147 3500 
L 697 3500 
L 697 3744 
Q 697 4328 969 4595 
Q 1241 4863 1831 4863 
L 2375 4863 
z
" transform="scale(0.015625)"/>
       <path id="DejaVuSans-24" d="M 2163 -941 
L 1850 -941 
L 1847 0 
Q 1519 6 1191 76 
Q 863 147 531 288 
L 531 850 
Q 850 650 1176 548 
Q 1503 447 1850 444 
L 1850 1869 
Q 1159 1981 845 2250 
Q 531 2519 531 2988 
Q 531 3497 872 3790 
Q 1213 4084 1850 4128 
L 1850 4863 
L 2163 4863 
L 2163 4138 
Q 2453 4125 2725 4076 
Q 2997 4028 3256 3944 
L 3256 3397 
Q 2997 3528 2723 3600 
Q 2450 3672 2163 3684 
L 2163 2350 
Q 2872 2241 3206 1959 
Q 3541 1678 3541 1191 
Q 3541 663 3186 358 
Q 2831 53 2163 6 
L 2163 -941 
z
M 1850 2406 
L 1850 3688 
Q 1488 3647 1297 3481 
Q 1106 3316 1106 3041 
Q 1106 2772 1282 2622 
Q 1459 2472 1850 2406 
z
M 2163 1806 
L 2163 453 
Q 2559 506 2761 678 
Q 2963 850 2963 1131 
Q 2963 1406 2770 1568 
Q 2578 1731 2163 1806 
z
" transform="scale(0.015625)"/>
       <path id="DejaVuSans-2c" d="M 750 794 
L 1409 794 
L 1409 256 
L 897 -744 
L 494 -744 
L 750 256 
L 750 794 
z
" transform="scale(0.015625)"/>
      </defs>
      <use xlink:href="#DejaVuSans-47"/>
      <use xlink:href="#DejaVuSans-72" transform="translate(77.490234 0)"/>
      <use xlink:href="#DejaVuSans-6f" transform="translate(116.353516 0)"/>
      <use xlink:href="#DejaVuSans-77" transform="translate(177.535156 0)"/>
      <use xlink:href="#DejaVuSans-74" transform="translate(259.322266 0)"/>
      <use xlink:href="#DejaVuSans-68" transform="translate(298.53125 0)"/>
      <use xlink:href="#DejaVuSans-20" transform="translate(361.910156 0)"/>
      <use xlink:href="#DejaVuSans-6f" transform="translate(393.697266 0)"/>
      <use xlink:href="#DejaVuSans-66" transform="translate(454.878906 0)"/>
      <use xlink:href="#DejaVuSans-20" transform="translate(490.083984 0)"/>
      <use xlink:href="#DejaVuSans-24" transform="translate(521.871094 0)"/>
      <use xlink:href="#DejaVuSans-31" transform="translate(585.494141 0)"/>
      <use xlink:href="#DejaVuSans-30" transform="translate(649.117188 0)"/>
      <use xlink:href="#DejaVuSans-2c" transform="translate(712.740234 0)"/>
      <use xlink:href="#DejaVuSans-30" transform="translate(744.527344 0)"/>
      <use xlink:href="#DejaVuSans-30" transform="translate(808.150391 0)"/>
      <use xlink:href="#DejaVuSans-30" transform="translate(871.773438 0)"/>
     </g>
    </g>
   </g>
   <g id="line2d_19">
    <path d="M 99.815919 382.334119 
L 100.46156 375.555532 
L 101.107202 380.376418 
L 101.752843 377.053513 
L 103.689766 372.326068 
L 104.335407 366.751679 
L 104.981048 364.849595 
L 106.27233 359.246814 
L 108.854894 355.885771 
L 109.500536 359.279079 
L 110.146177 360.381129 
L 110.791818 352.051634 
L 112.728741 347.529697 
L 113.374382 349.781923 
L 114.020023 350.619405 
L 114.665664 347.944282 
L 115.311305 341.841087 
L 117.248228 348.728503 
L 117.893869 344.168638 
L 118.539511 336.808943 
L 119.185152 320.499406 
L 119.830793 325.658556 
L 121.767716 326.135889 
L 122.413357 323.935863 
L 123.058998 327.67498 
L 123.704639 334.245872 
L 124.35028 337.138221 
L 126.287203 335.655681 
L 126.932844 332.724844 
L 127.578486 327.785805 
L 128.224127 331.824195 
L 128.869768 333.35307 
L 131.452332 336.983111 
L 132.097973 337.576045 
L 132.743614 331.97641 
L 133.389255 336.057517 
L 135.326178 335.383518 
L 135.971819 331.906774 
L 136.617461 334.309653 
L 137.263102 332.956187 
L 137.908743 328.577524 
L 139.845666 330.15994 
L 140.491307 331.708047 
L 141.136948 329.704865 
L 141.782589 335.336138 
L 142.42823 339.054212 
L 144.365153 334.474744 
L 145.010794 328.588356 
L 145.656436 325.972521 
L 146.302077 320.968709 
L 146.947718 319.240124 
L 148.884641 318.926979 
L 149.530282 312.478197 
L 150.175923 316.409055 
L 150.821564 318.417106 
L 151.467205 317.105628 
L 153.404128 320.702433 
L 154.049769 320.624847 
L 154.695411 317.347318 
L 155.341052 316.551348 
L 155.986693 324.831468 
L 157.923616 328.288135 
L 158.569257 328.674837 
L 159.214898 331.481366 
L 159.860539 328.565909 
L 162.443103 326.815129 
L 163.088744 327.107613 
L 163.734386 329.061203 
L 164.380027 325.750648 
L 165.025668 324.904633 
L 166.962591 325.677792 
L 167.608232 325.475661 
L 168.253873 326.311648 
L 168.899514 329.947981 
L 169.545155 330.112043 
L 171.482078 332.306114 
L 172.12772 335.066285 
L 172.773361 333.416021 
L 173.419002 326.424189 
L 174.064643 326.411692 
L 176.001566 326.918391 
L 176.647207 327.91644 
L 177.292848 329.996622 
L 177.938489 330.297793 
L 178.58413 322.916505 
L 180.521053 322.207649 
L 181.166695 322.226569 
L 181.812336 319.031764 
L 182.457977 319.032219 
L 183.103618 320.785252 
L 185.040541 317.854669 
L 185.686182 317.764551 
L 186.331823 314.274806 
L 186.977464 311.437304 
L 187.623105 313.372821 
L 189.560028 311.034836 
L 190.20567 313.562211 
L 190.851311 313.766642 
L 191.496952 304.093926 
L 192.142593 300.704887 
L 194.725157 297.818671 
L 195.370798 301.106225 
L 196.016439 294.850313 
L 196.66208 294.750045 
L 198.599003 297.219055 
L 199.244645 301.899362 
L 199.890286 304.566969 
L 200.535927 301.105006 
L 201.181568 302.193345 
L 203.118491 301.311 
L 205.055414 294.042801 
L 205.701055 294.324878 
L 208.28362 292.816694 
L 208.929261 293.324982 
L 209.574902 291.1782 
L 210.220543 290.599806 
L 212.157466 293.828569 
L 212.803107 286.820106 
L 213.448748 287.075482 
L 214.094389 286.921578 
L 214.74003 291.497301 
L 216.676953 290.13552 
L 217.968236 289.731174 
L 218.613877 290.050204 
L 219.259518 288.750146 
L 221.196441 288.842803 
L 221.842082 284.114837 
L 222.487723 283.229191 
L 223.133364 270.048744 
L 223.779005 270.910863 
L 225.715929 269.815618 
L 226.36157 268.602034 
L 227.007211 266.675149 
L 227.652852 273.719742 
L 228.298493 275.506527 
L 230.235416 275.891405 
L 230.881057 274.300258 
L 231.526698 273.561614 
L 232.172339 275.022567 
L 232.81798 269.955888 
L 234.754904 269.522206 
L 235.400545 271.225181 
L 236.046186 277.279913 
L 236.691827 275.991002 
L 237.337468 276.64536 
L 239.274391 274.992213 
L 239.920032 275.996611 
L 240.565673 280.549462 
L 241.211314 280.490464 
L 241.856955 283.410448 
L 243.793879 280.034646 
L 246.376443 289.645512 
L 248.313366 283.695832 
L 248.959007 284.842482 
L 249.604648 281.329222 
L 250.250289 284.815343 
L 250.89593 284.443028 
L 252.832854 283.649818 
L 253.478495 275.087448 
L 254.124136 275.018006 
L 254.769777 276.309124 
L 255.415418 276.75437 
L 257.997982 276.487101 
L 258.643623 278.072943 
L 259.289264 277.000126 
L 259.934905 277.044613 
L 261.871829 276.033652 
L 262.51747 277.141443 
L 263.163111 276.23101 
L 263.808752 273.34259 
L 264.454393 277.519391 
L 266.391316 277.250418 
L 267.036957 279.345533 
L 267.682598 283.170974 
L 268.328239 287.722628 
L 268.97388 288.596353 
L 270.910804 286.726337 
L 271.556445 289.701892 
L 272.202086 288.967619 
L 272.847727 285.46186 
L 273.493368 286.448374 
L 275.430291 285.23835 
L 276.075932 289.607986 
L 276.721573 286.461102 
L 277.367214 285.386868 
L 278.012855 280.373841 
L 279.949779 280.455 
L 280.59542 278.750583 
L 281.241061 277.419983 
L 281.886702 278.109913 
L 282.532343 281.895788 
L 284.469266 279.294676 
L 285.114907 280.590959 
L 285.760548 285.328396 
L 287.05183 289.259858 
L 288.988754 285.369267 
L 289.634395 282.122401 
L 290.280036 288.832064 
L 290.925677 293.921643 
L 291.571318 293.328739 
L 293.508241 290.396115 
L 294.153882 288.90633 
L 295.445164 279.122194 
L 296.090805 276.689895 
L 298.027729 275.238755 
L 298.67337 273.084888 
L 299.319011 272.761372 
L 299.964652 271.642489 
L 300.610293 268.516653 
L 302.547216 268.269219 
L 303.192857 265.626597 
L 303.838498 265.057007 
L 304.484139 264.260595 
L 305.12978 264.016946 
L 307.066704 259.554904 
L 307.712345 260.525208 
L 308.357986 258.996722 
L 309.649268 258.855432 
L 311.586191 257.585368 
L 312.231832 254.725113 
L 312.877473 255.75947 
L 313.523114 258.469836 
L 314.168755 256.540451 
L 316.105679 256.821815 
L 316.75132 255.67347 
L 317.396961 258.930629 
L 318.688243 250.302703 
L 320.625166 255.317055 
L 321.270807 252.480406 
L 321.916448 247.699767 
L 322.562089 247.306692 
L 323.20773 247.284646 
L 325.144654 242.927253 
L 325.790295 240.940088 
L 326.435936 241.947199 
L 327.081577 238.214849 
L 327.727218 236.811051 
L 330.309782 236.997475 
L 330.955423 234.000843 
L 331.601064 233.547149 
L 332.246705 245.304486 
L 335.474911 255.612234 
L 336.120552 255.219857 
L 336.766193 253.882339 
L 338.703116 247.639683 
L 339.348757 248.016218 
L 339.994398 245.686556 
L 340.640039 247.265052 
L 341.28568 249.273225 
L 343.868245 248.061845 
L 344.513886 248.978342 
L 345.159527 248.502133 
L 345.805168 244.978406 
L 347.742091 244.885877 
L 349.033373 244.02911 
L 349.679014 244.638321 
L 350.324655 243.891784 
L 352.261579 242.865807 
L 352.90722 243.148314 
L 353.552861 244.80353 
L 354.198502 243.286302 
L 354.844143 242.105522 
L 356.781066 241.769759 
L 357.426707 241.520917 
L 358.072348 240.225861 
L 358.717989 239.377565 
L 359.36363 238.779807 
L 361.300554 239.50624 
L 361.946195 239.884749 
L 362.591836 238.175809 
L 363.237477 238.639421 
L 363.883118 240.787954 
L 366.465682 241.684407 
L 367.111323 242.155276 
L 367.756964 234.20039 
L 368.402605 234.995235 
L 370.339529 235.334153 
L 370.98517 236.335757 
L 371.630811 236.94534 
L 372.276452 234.82895 
L 372.922093 234.882579 
L 374.859016 235.647946 
L 375.504657 235.726776 
L 376.150298 236.435395 
L 376.795939 235.646782 
L 377.44158 236.188761 
L 379.378504 237.003887 
L 380.024145 234.066882 
L 380.669786 234.266979 
L 381.315427 233.779123 
L 381.961068 233.616168 
L 383.897991 232.161104 
L 384.543632 231.490217 
L 385.189273 229.757931 
L 385.834914 229.53858 
L 386.480555 228.963949 
L 388.417479 228.83095 
L 389.06312 228.961675 
L 389.708761 228.614612 
L 390.354402 231.473808 
L 392.936966 232.887325 
L 394.228248 232.537443 
L 394.873889 232.422025 
L 395.51953 231.886819 
L 397.456454 232.537031 
L 398.102095 232.232361 
L 398.747736 230.894988 
L 399.393377 230.914562 
L 400.039018 229.676723 
L 401.975941 228.552627 
L 402.621582 228.665157 
L 403.267223 229.411279 
L 403.912864 228.806841 
L 404.558506 231.151856 
L 406.495429 230.965837 
L 407.14107 231.478105 
L 407.786711 229.373931 
L 408.432352 229.438402 
L 409.077993 231.008714 
L 411.014916 232.890709 
L 411.660557 231.945948 
L 412.306198 230.484946 
L 412.951839 228.339076 
L 413.597481 227.872171 
L 415.534404 228.042115 
L 416.180045 227.011598 
L 416.825686 227.007503 
L 417.471327 226.841754 
L 418.116968 226.477132 
L 420.053891 226.815125 
L 420.699532 227.040582 
L 421.345173 227.492651 
L 421.990814 226.068995 
L 422.636456 226.37807 
L 424.573379 226.707986 
L 425.21902 227.412819 
L 426.510302 226.003319 
L 427.155943 227.384015 
L 430.384148 227.521642 
L 431.029789 226.468837 
L 431.675431 226.39727 
L 434.257995 225.734192 
L 434.903636 227.323952 
L 435.549277 226.601396 
L 436.194918 225.481672 
L 438.131841 224.989106 
L 438.777482 224.645513 
L 439.423123 225.232706 
L 440.068764 225.233056 
L 440.714406 225.083849 
L 442.651329 225.804942 
L 443.29697 225.444284 
L 444.588252 224.007681 
L 445.233893 224.672694 
L 447.170816 223.764576 
L 447.816457 222.699176 
L 448.462098 222.722678 
L 449.107739 222.608147 
L 449.753381 224.20717 
L 451.690304 226.172668 
L 452.335945 229.076243 
L 452.981586 231.109955 
L 454.272868 232.386935 
L 456.209791 232.418032 
L 456.855432 232.910522 
L 457.501073 233.563361 
L 458.146715 230.715626 
L 458.792356 230.445265 
L 460.729279 230.505938 
L 461.37492 230.689697 
L 462.020561 230.282648 
L 462.666202 228.825856 
L 463.311843 230.47268 
L 465.248766 230.00214 
L 466.540048 228.265989 
L 467.18569 228.64104 
L 467.831331 226.762106 
L 470.413895 226.224693 
L 471.059536 223.057116 
L 471.705177 222.091263 
L 472.350818 222.815088 
L 474.287741 222.61392 
L 474.933382 219.930108 
L 475.579023 221.977811 
L 476.224665 217.229422 
L 476.870306 215.798595 
L 478.807229 216.201956 
L 479.45287 216.660854 
L 480.098511 216.590919 
L 480.744152 218.613167 
L 481.389793 219.108494 
L 483.326716 218.782553 
L 483.972357 218.558481 
L 484.617998 218.156792 
L 485.26364 217.369573 
L 485.909281 216.240507 
L 488.491845 215.881393 
L 489.137486 216.440111 
L 489.783127 216.475188 
L 490.428768 215.001309 
L 493.011332 214.757848 
L 493.656973 215.181044 
L 494.302615 215.368334 
L 494.948256 217.966711 
L 496.885179 217.605308 
L 497.53082 218.780002 
L 498.176461 220.220806 
L 498.822102 222.119647 
L 499.467743 222.342376 
L 501.404666 222.676446 
L 502.050307 222.234935 
L 502.695948 222.048714 
L 503.34159 221.329058 
L 503.987231 221.074797 
L 505.924154 220.973986 
L 506.569795 221.75539 
L 507.215436 221.261681 
L 508.506718 224.084994 
L 510.443641 224.328717 
L 511.089282 227.370676 
L 512.380565 227.925731 
L 513.026206 224.836533 
L 514.963129 225.802433 
L 515.60877 225.631332 
L 516.254411 225.060352 
L 516.900052 224.695306 
L 517.545693 227.012053 
L 520.128257 227.11175 
L 520.773899 228.060577 
L 521.41954 227.344904 
L 522.065181 224.89928 
L 524.002104 224.839691 
L 524.647745 224.667781 
L 525.293386 224.288721 
L 525.939027 223.177251 
L 526.584668 222.78191 
L 528.521591 222.74511 
L 529.167232 223.173432 
L 531.104156 217.521896 
L 533.041079 217.721351 
L 533.68672 216.893324 
L 534.332361 218.791584 
L 535.623643 228.056382 
L 537.560566 228.592516 
L 538.206207 231.545868 
L 538.851849 220.476209 
L 539.49749 219.235161 
L 540.143131 223.603938 
L 542.080054 223.391027 
L 542.725695 228.903226 
L 543.371336 239.552454 
L 544.016977 219.070061 
L 544.662618 223.921686 
L 546.599541 222.306858 
L 547.245182 225.171574 
L 547.890824 215.781563 
L 549.182106 215.572363 
L 551.119029 213.848177 
L 551.76467 214.224944 
L 552.410311 213.835817 
L 553.055952 212.100995 
L 553.701593 213.887634 
L 555.638516 213.291051 
L 556.284157 212.416815 
L 556.929799 209.454516 
L 557.57544 207.96956 
L 558.221081 207.901702 
L 560.158004 208.274618 
L 560.803645 208.680282 
L 561.449286 207.040109 
L 562.094927 211.743408 
L 562.740568 200.461122 
L 564.677491 199.651157 
L 565.323132 196.792469 
L 566.614415 195.534626 
L 567.260056 195.705808 
L 569.196979 194.972898 
L 569.84262 202.191707 
L 571.133902 202.509763 
L 571.779543 196.075331 
L 573.716466 196.449072 
L 574.362107 189.450087 
L 575.007749 188.907984 
L 576.299031 188.933334 
L 578.881595 187.60251 
L 579.527236 187.965996 
L 580.172877 188.006744 
L 580.818518 191.723168 
L 583.401083 192.090025 
L 584.046724 192.917403 
L 584.692365 192.829519 
L 585.338006 193.153544 
L 587.274929 192.146168 
L 587.92057 188.510954 
L 588.566211 188.986548 
L 589.211852 187.294049 
L 589.857493 188.246618 
L 592.440058 187.620451 
L 593.085699 187.235888 
L 593.73134 187.391039 
L 594.376981 188.735561 
L 596.313904 188.892648 
L 596.959545 189.32342 
L 597.605186 187.490869 
L 598.250827 186.436033 
L 598.896468 185.772792 
L 601.479033 185.982678 
L 602.770315 185.658645 
L 603.415956 187.612639 
L 605.352879 187.59455 
L 605.99852 192.400279 
L 606.644161 189.578458 
L 607.289802 195.874879 
L 607.935443 186.754381 
L 609.872366 186.374676 
L 610.518008 185.14284 
L 611.163649 187.835153 
L 611.80929 188.165427 
L 612.454931 182.694937 
L 614.391854 183.588114 
L 615.037495 173.864648 
L 615.683136 170.483081 
L 616.328777 173.063327 
L 616.974418 166.160056 
L 618.911341 166.349029 
L 619.556983 166.701253 
L 620.202624 163.791755 
L 621.493906 162.485704 
L 623.430829 161.094983 
L 624.07647 162.876179 
L 624.722111 158.349288 
L 625.367752 158.161878 
L 626.013393 153.853352 
L 627.950316 163.1926 
L 628.595958 164.450258 
L 629.241599 164.913298 
L 629.88724 159.666714 
L 630.532881 164.496647 
L 632.469804 163.976856 
L 633.115445 169.090168 
L 633.761086 140.845268 
L 634.406727 128.447798 
L 636.989292 129.982755 
L 637.634933 129.940828 
L 638.280574 128.527486 
L 638.926215 128.788909 
L 641.508779 127.395435 
L 642.15442 126.57245 
L 642.800061 127.675908 
L 643.445702 130.627608 
L 644.091343 136.759715 
L 646.028267 136.925865 
L 646.673908 136.70076 
L 647.319549 135.928641 
L 647.96519 135.77648 
L 648.610831 135.959933 
L 651.193395 136.518741 
L 651.839036 136.252555 
L 652.484677 134.195218 
L 653.130318 135.115867 
L 655.067242 135.408316 
L 656.358524 141.990618 
L 657.004165 137.891567 
L 657.649806 140.186976 
L 659.586729 139.846188 
L 660.23237 140.636331 
L 660.878011 139.466261 
L 661.523652 139.585094 
L 662.169293 139.317144 
L 664.751858 138.436203 
L 666.04314 137.755677 
L 666.688781 135.544461 
L 668.625704 136.779691 
L 669.271345 137.452249 
L 670.562627 136.848666 
L 671.208268 135.995691 
L 673.145192 135.806937 
L 673.790833 136.192768 
L 674.436474 135.712629 
L 675.727756 133.902893 
L 677.664679 133.693426 
L 678.31032 133.297192 
L 678.955961 133.134475 
L 680.247243 133.639359 
L 682.184167 132.740486 
L 682.829808 132.565429 
L 683.475449 134.078011 
L 684.12109 134.739498 
L 684.766731 133.300771 
L 686.703654 138.876308 
L 687.349295 140.057266 
L 687.994936 138.129192 
L 688.640577 137.382874 
L 691.223142 137.693914 
L 691.868783 137.59649 
L 692.514424 136.827948 
L 693.160065 136.812731 
L 693.805706 137.168717 
L 695.742629 137.097634 
L 696.38827 136.782656 
L 697.679552 138.466108 
L 698.325193 137.074508 
L 700.262117 137.572418 
L 700.907758 137.579149 
L 701.553399 136.957561 
L 702.19904 136.647644 
L 702.844681 135.872566 
L 704.781604 135.607836 
L 706.072886 136.081655 
L 706.718527 135.031428 
L 707.364168 134.593341 
L 709.301092 134.472679 
L 709.946733 133.586102 
L 710.592374 133.26479 
L 711.238015 134.556837 
L 711.883656 135.428718 
L 713.820579 135.335351 
L 714.46622 135.648132 
L 715.111861 135.289642 
L 715.757502 135.820445 
L 716.403143 135.661396 
L 718.340067 135.675436 
L 718.985708 135.028105 
L 719.631349 134.110889 
L 720.27699 134.057604 
L 720.922631 131.715195 
L 722.859554 131.378446 
L 723.505195 130.194133 
L 724.150836 130.441086 
L 724.796477 130.329643 
L 725.442118 129.582314 
L 728.670324 129.087497 
L 729.315965 129.233064 
L 729.961606 128.534614 
L 731.898529 129.248739 
L 732.54417 129.616178 
L 733.189811 130.794253 
L 733.835452 130.47353 
L 734.481093 131.226378 
L 736.418017 131.306714 
L 737.063658 131.082249 
L 738.35494 131.919704 
L 739.000581 133.679859 
L 741.583145 133.518722 
L 742.228786 132.922052 
L 742.874427 134.723077 
L 743.520068 132.415705 
L 745.456992 132.058873 
L 746.102633 133.57549 
L 746.748274 136.63617 
L 747.393915 138.397416 
L 748.039556 138.361925 
L 749.976479 138.627877 
L 750.62212 137.60792 
L 751.267761 138.664598 
L 751.913402 139.417918 
L 752.559043 135.472831 
L 754.495967 134.808956 
L 755.141608 133.359935 
L 755.787249 134.476064 
L 756.43289 133.305835 
L 757.078531 129.953103 
L 759.015454 130.21604 
L 759.661095 130.436304 
L 760.952377 127.116373 
L 761.598018 126.987994 
L 764.180583 126.998407 
L 764.826224 127.474724 
L 765.471865 127.024063 
L 766.117506 123.858017 
L 768.054429 123.301356 
L 768.70007 124.189127 
L 769.345711 120.136466 
L 769.991352 124.887048 
L 770.636993 120.972725 
L 772.573917 121.099867 
L 773.219558 120.22036 
L 774.51084 122.849905 
L 775.156481 124.78286 
L 777.739045 123.942522 
L 778.384686 122.561431 
L 779.030327 125.813928 
L 779.675968 126.03955 
L 781.612892 125.966974 
L 782.258533 124.868677 
L 782.904174 127.078937 
L 784.195456 129.767795 
L 786.132379 129.637431 
L 786.77802 127.27581 
L 787.423661 127.305232 
L 788.069302 127.035926 
L 788.714943 126.014264 
L 790.651867 125.965596 
L 791.943149 126.643171 
L 792.58879 125.574491 
L 793.234431 123.646677 
L 795.171354 122.585854 
L 795.816995 120.525407 
L 796.462636 122.595214 
L 797.108277 121.420275 
L 797.753918 115.805287 
L 799.690842 115.628644 
L 800.982124 114.69645 
L 802.273406 113.720938 
L 804.85597 112.868544 
L 805.501611 116.280003 
L 806.792893 117.879757 
L 808.729817 117.584824 
L 809.375458 116.908415 
L 810.021099 116.553403 
L 811.312381 115.349409 
L 813.249304 115.45017 
L 814.540586 117.127758 
L 815.186227 114.690099 
L 815.831869 115.938674 
L 818.414433 114.706524 
L 819.060074 113.336895 
L 819.705715 114.040671 
L 820.351356 112.365977 
L 822.288279 111.683377 
L 822.93392 110.939365 
L 823.579561 111.2726 
L 824.225202 110.539967 
L 824.870844 108.240995 
L 826.807767 107.833063 
L 827.453408 109.211068 
L 828.099049 112.173646 
L 828.74469 129.02547 
L 829.390331 81.505724 
L 831.327254 80.952924 
L 831.972895 80.39577 
L 832.618536 78.820839 
L 833.264177 79.192226 
L 833.909819 72.460714 
L 836.492383 73.008276 
L 837.138024 72.793548 
L 837.783665 71.953315 
L 838.429306 70.850069 
L 840.366229 70.022621 
L 841.01187 69.311353 
L 841.657511 66.471219 
L 842.948794 62.48289 
L 844.885717 61.546479 
L 845.531358 59.329282 
L 846.176999 58.948693 
L 847.468281 53.370354 
L 850.050845 52.857408 
L 850.696486 53.443717 
L 851.342127 51.114491 
L 851.987769 51.650626 
L 853.924692 51.654178 
L 854.570333 50.981492 
L 855.215974 48.763291 
L 856.507256 47.702387 
L 858.444179 46.34511 
L 859.08982 46.440615 
L 859.735461 46.4029 
L 860.381102 44.49872 
L 861.026744 47.850691 
L 862.963667 47.215426 
L 863.609308 41.679474 
L 863.609308 41.679474 
" clip-path="url(#p8704f451fb)" style="fill: none; stroke: #1f77b4; stroke-width: 2.8; stroke-linecap: square"/>
   </g>
   <g id="line2d_20">
    <path d="M 99.815919 382.334119 
L 100.46156 380.329704 
L 101.107202 383.315838 
L 101.752843 377.384546 
L 103.689766 377.534558 
L 104.335407 375.680155 
L 104.981048 372.312241 
L 106.27233 370.280633 
L 108.854894 370.778286 
L 109.500536 375.059728 
L 110.146177 377.002744 
L 110.791818 372.066822 
L 112.728741 368.828454 
L 113.374382 369.12162 
L 114.020023 369.019355 
L 114.665664 366.019613 
L 115.311305 365.385621 
L 117.248228 368.855779 
L 117.893869 364.840178 
L 118.539511 361.894976 
L 119.185152 357.818086 
L 119.830793 360.838251 
L 121.767716 362.556249 
L 122.413357 358.902049 
L 123.058998 361.99722 
L 123.704639 364.424281 
L 124.35028 363.776638 
L 126.287203 360.511011 
L 126.932844 360.640514 
L 127.578486 359.72692 
L 128.224127 363.613018 
L 128.869768 364.308386 
L 131.452332 369.878365 
L 132.097973 370.253374 
L 132.743614 368.807988 
L 133.389255 371.72591 
L 135.326178 370.805545 
L 136.617461 372.844033 
L 137.263102 370.75107 
L 137.908743 366.401415 
L 139.845666 366.210471 
L 140.491307 370.437395 
L 141.136948 369.994282 
L 141.782589 375.012046 
L 142.42823 378.86394 
L 144.365153 379.23897 
L 145.010794 374.896108 
L 145.656436 376.566424 
L 146.302077 371.910039 
L 146.947718 375.067649 
L 148.884641 372.501319 
L 149.530282 368.963166 
L 150.175923 373.616838 
L 150.821564 372.891368 
L 151.467205 371.125731 
L 153.404128 370.619288 
L 154.049769 371.228365 
L 154.695411 367.293305 
L 155.341052 365.685038 
L 155.986693 361.791062 
L 157.923616 360.723441 
L 158.569257 362.283766 
L 159.214898 363.01603 
L 159.860539 361.9279 
L 163.088744 361.565176 
L 163.734386 362.708106 
L 164.380027 358.998824 
L 165.025668 359.690068 
L 166.962591 358.677161 
L 167.608232 358.492403 
L 168.253873 358.540302 
L 168.899514 360.086954 
L 169.545155 359.867947 
L 171.482078 359.573718 
L 172.12772 364.056239 
L 172.773361 365.233417 
L 173.419002 359.724294 
L 174.064643 357.315333 
L 176.001566 357.602748 
L 176.647207 360.798708 
L 177.938489 364.7064 
L 178.58413 359.573718 
L 180.521053 359.498451 
L 181.166695 360.737114 
L 181.812336 359.423163 
L 183.103618 360.285429 
L 185.040541 359.313628 
L 185.686182 361.202495 
L 186.331823 357.794365 
L 186.977464 355.056905 
L 187.623105 355.474387 
L 189.560028 355.357993 
L 190.20567 358.574527 
L 190.851311 360.627622 
L 191.496952 358.191293 
L 192.142593 354.516324 
L 194.725157 354.406788 
L 195.370798 356.001295 
L 196.016439 353.284454 
L 196.66208 349.109813 
L 198.599003 349.670991 
L 199.244645 349.034546 
L 199.890286 350.047432 
L 200.535927 348.281665 
L 201.181568 347.754778 
L 203.118491 345.085792 
L 203.764132 343.128473 
L 204.409773 342.77265 
L 205.055414 339.063346 
L 205.701055 340.095113 
L 208.28362 341.661254 
L 208.929261 343.19992 
L 209.574902 342.121491 
L 210.220543 344.388275 
L 212.157466 345.604106 
L 212.803107 342.355017 
L 213.448748 342.20392 
L 214.094389 341.022466 
L 214.74003 337.471161 
L 216.676953 337.120829 
L 217.968236 337.574229 
L 218.613877 339.95771 
L 219.259518 340.720207 
L 221.196441 339.95771 
L 221.842082 338.034422 
L 223.133364 333.157381 
L 223.779005 333.349736 
L 225.715929 332.278144 
L 226.36157 329.977026 
L 227.007211 329.283242 
L 227.652852 331.357736 
L 228.298493 331.357736 
L 230.235416 329.970146 
L 230.881057 329.118428 
L 231.526698 329.070334 
L 232.172339 331.144806 
L 232.81798 328.101788 
L 234.754904 327.504193 
L 235.400545 328.404004 
L 236.046186 332.765857 
L 236.691827 333.651952 
L 237.337468 335.046378 
L 239.274391 332.367474 
L 239.920032 333.713763 
L 240.565673 335.774518 
L 241.211314 335.664636 
L 241.856955 335.843209 
L 243.793879 334.153446 
L 244.43952 337.739043 
L 245.730802 342.272632 
L 246.376443 342.128349 
L 248.313366 340.177541 
L 248.959007 340.995012 
L 249.604648 337.642876 
L 250.250289 341.860424 
L 250.89593 339.744803 
L 252.832854 337.828329 
L 253.478495 333.432164 
L 254.124136 332.161403 
L 254.769777 332.614759 
L 255.415418 332.037738 
L 257.997982 333.377212 
L 258.643623 335.451684 
L 259.289264 336.39271 
L 259.934905 335.932474 
L 261.871829 333.919877 
L 262.51747 335.60964 
L 263.163111 335.25245 
L 263.808752 332.607901 
L 264.454393 336.335089 
L 266.391316 336.155843 
L 267.036957 336.790073 
L 267.682598 339.595572 
L 268.328239 344.593174 
L 268.97388 345.261826 
L 270.910804 344.014113 
L 271.556445 348.391374 
L 272.202086 348.274221 
L 272.847727 346.571588 
L 273.493368 347.288464 
L 275.430291 347.405618 
L 276.075932 351.348621 
L 276.721573 349.232392 
L 277.367214 349.342644 
L 278.012855 345.86845 
L 279.949779 343.97279 
L 280.59542 342.421819 
L 281.241061 341.194811 
L 281.886702 343.028443 
L 282.532343 344.517387 
L 284.469266 341.387838 
L 285.114907 341.401642 
L 285.760548 345.406629 
L 286.406189 348.012286 
L 287.05183 351.624316 
L 288.988754 352.127547 
L 289.634395 349.942389 
L 290.280036 354.13348 
L 290.925677 357.580112 
L 291.571318 358.869191 
L 293.508241 355.484566 
L 294.153882 353.685419 
L 294.799523 350.611019 
L 295.445164 345.027475 
L 296.090805 342.318425 
L 298.027729 341.629112 
L 298.67337 340.774334 
L 299.319011 340.553765 
L 299.964652 342.904345 
L 300.610293 338.237629 
L 302.547216 338.527127 
L 303.192857 332.640282 
L 303.838498 331.985434 
L 305.12978 331.220311 
L 307.066704 328.828301 
L 307.712345 329.510712 
L 308.357986 328.304452 
L 309.649268 328.111424 
L 311.586191 328.676661 
L 312.231832 328.366458 
L 312.877473 328.587027 
L 313.523114 327.35316 
L 314.168755 325.491943 
L 316.105679 327.153253 
L 316.75132 327.21528 
L 317.396961 328.483612 
L 318.042602 326.091688 
L 318.688243 324.733679 
L 320.625166 323.499834 
L 321.270807 322.045312 
L 321.916448 317.633651 
L 322.562089 316.592747 
L 323.20773 317.128467 
L 325.144654 315.301237 
L 325.790295 313.31488 
L 326.435936 317.869022 
L 327.081577 314.796053 
L 327.727218 314.138514 
L 330.309782 312.754244 
L 330.955423 312.159036 
L 331.601064 312.03446 
L 332.246705 312.98955 
L 334.82927 314.830648 
L 335.474911 317.502195 
L 336.120552 318.54731 
L 336.766193 318.104349 
L 338.703116 313.480996 
L 339.348757 313.979299 
L 339.994398 312.12442 
L 340.640039 312.269787 
L 341.28568 312.041383 
L 343.868245 313.252592 
L 344.513886 315.079779 
L 345.159527 312.172883 
L 345.805168 308.061702 
L 347.742091 307.355699 
L 348.387732 306.379817 
L 349.033373 306.012991 
L 349.679014 304.185783 
L 350.324655 304.614897 
L 352.261579 301.943306 
L 352.90722 302.206327 
L 353.552861 307.75024 
L 354.198502 303.375995 
L 354.844143 299.811581 
L 356.781066 301.057428 
L 357.426707 300.067657 
L 358.072348 297.216125 
L 358.717989 297.063856 
L 359.36363 295.070575 
L 361.300554 295.222845 
L 361.946195 299.998467 
L 362.591836 296.890817 
L 363.237477 294.50994 
L 363.883118 296.240201 
L 366.465682 298.143565 
L 367.111323 297.832147 
L 367.756964 290.710199 
L 368.402605 290.467949 
L 370.339529 291.755292 
L 370.98517 291.104697 
L 371.630811 291.568449 
L 372.276452 290.308778 
L 372.922093 287.007363 
L 374.859016 287.388014 
L 375.504657 290.931658 
L 376.150298 289.152913 
L 376.795939 285.650787 
L 377.44158 287.789478 
L 379.378504 288.093995 
L 380.024145 284.287287 
L 381.315427 285.55386 
L 381.961068 288.001192 
L 383.897991 285.897551 
L 384.543632 283.918877 
L 385.189273 280.607196 
L 385.834914 279.413067 
L 386.480555 280.100341 
L 388.417479 281.100052 
L 389.06312 281.766642 
L 389.708761 278.739619 
L 390.354402 278.809069 
L 392.936966 279.440848 
L 393.582607 281.745785 
L 394.228248 281.350072 
L 394.873889 285.75175 
L 395.51953 282.030465 
L 397.456454 281.829147 
L 398.102095 281.412577 
L 398.747736 285.022806 
L 399.393377 282.328948 
L 400.039018 287.293041 
L 401.975941 291.736367 
L 402.621582 292.375133 
L 403.267223 294.444049 
L 403.912864 295.159103 
L 404.558506 298.186147 
L 406.495429 295.020268 
L 407.14107 290.90327 
L 407.786711 291.069863 
L 408.432352 292.402913 
L 409.077993 289.091211 
L 411.014916 287.841479 
L 411.660557 293.451218 
L 412.306198 294.582906 
L 412.951839 291.333708 
L 413.597481 286.987569 
L 415.534404 283.321802 
L 416.180045 282.926045 
L 416.825686 282.891363 
L 417.471327 280.822447 
L 418.116968 280.357241 
L 420.053891 280.308647 
L 420.699532 278.649421 
L 421.345173 274.150405 
L 421.990814 274.907237 
L 422.636456 274.37959 
L 424.573379 273.956119 
L 425.21902 273.053572 
L 425.864661 274.115767 
L 426.510302 276.802528 
L 427.155943 274.386492 
L 429.738507 274.129657 
L 431.029789 279.128388 
L 431.675431 275.823586 
L 433.612354 275.525125 
L 434.257995 275.1155 
L 434.903636 270.755514 
L 435.549277 270.762416 
L 436.194918 271.213711 
L 438.131841 270.068219 
L 438.777482 269.172531 
L 439.423123 266.110783 
L 440.068764 265.354039 
L 440.714406 265.12494 
L 443.29697 261.16069 
L 445.233893 262.704216 
L 447.170816 263.937085 
L 447.816457 262.481412 
L 449.107739 261.408756 
L 449.753381 262.906316 
L 451.690304 262.126132 
L 452.335945 259.569893 
L 452.981586 257.863463 
L 454.272868 255.648571 
L 456.209791 255.202832 
L 456.855432 254.826674 
L 457.501073 250.995897 
L 458.146715 254.367088 
L 458.792356 251.92223 
L 460.729279 250.849618 
L 461.37492 248.530291 
L 462.020561 254.046663 
L 463.311843 259.583827 
L 465.248766 255.641626 
L 465.894407 256.247578 
L 466.540048 264.988818 
L 467.18569 266.953039 
L 467.831331 262.753048 
L 469.768254 262.53007 
L 470.413895 264.452404 
L 471.059536 258.316277 
L 471.705177 263.749049 
L 472.350818 270.790717 
L 474.287741 281.600613 
L 474.933382 278.278232 
L 475.579023 280.70907 
L 476.224665 272.3579 
L 476.870306 270.728082 
L 478.807229 270.533014 
L 479.45287 264.424624 
L 480.098511 263.233643 
L 480.744152 256.742062 
L 481.389793 255.878408 
L 483.326716 252.187009 
L 483.972357 252.82074 
L 484.617998 251.48348 
L 485.26364 254.548092 
L 485.909281 250.431703 
L 487.846204 251.365068 
L 488.491845 250.828696 
L 489.137486 253.099365 
L 489.783127 253.064596 
L 490.428768 249.352145 
L 493.011332 257.431657 
L 494.302615 259.152065 
L 494.948256 265.594813 
L 497.53082 259.723204 
L 498.822102 252.549147 
L 499.467743 250.515303 
L 502.050307 249.776962 
L 502.695948 250.94012 
L 503.34159 244.267622 
L 503.987231 244.955091 
L 505.924154 243.962997 
L 506.569795 242.824147 
L 507.215436 243.704556 
L 507.861077 242.125567 
L 508.506718 242.705431 
L 510.443641 241.105476 
L 511.089282 244.696563 
L 511.734923 244.528841 
L 512.380565 245.255505 
L 513.026206 241.650442 
L 514.963129 245.269482 
L 515.60877 241.517705 
L 516.254411 238.744088 
L 516.900052 239.449657 
L 517.545693 237.039351 
L 519.482616 233.7278 
L 520.128257 236.899669 
L 520.773899 235.139111 
L 521.41954 235.104126 
L 522.065181 233.5392 
L 524.647745 234.42638 
L 525.293386 238.150291 
L 525.939027 237.276913 
L 526.584668 237.416638 
L 528.521591 236.166017 
L 529.167232 235.509367 
L 529.812874 236.738936 
L 530.458515 244.682586 
L 531.104156 243.005802 
L 533.041079 243.865203 
L 533.68672 239.051448 
L 534.332361 229.032848 
L 534.978002 225.8401 
L 535.623643 224.037568 
L 537.560566 223.639359 
L 538.206207 224.938769 
L 538.851849 224.736149 
L 539.49749 227.41896 
L 540.143131 232.728718 
L 542.080054 231.051977 
L 542.725695 229.549903 
L 543.371336 229.410135 
L 544.016977 227.195417 
L 544.662618 225.909854 
L 546.599541 224.498629 
L 547.245182 222.31881 
L 547.890824 223.59044 
L 549.182106 220.991447 
L 551.76467 220.041284 
L 552.410311 217.421412 
L 553.055952 218.119992 
L 553.701593 217.316542 
L 555.638516 219.50335 
L 556.284157 220.816867 
L 556.929799 217.56105 
L 557.57544 219.747814 
L 558.221081 219.831675 
L 560.158004 218.029186 
L 560.803645 219.775811 
L 561.449286 232.358419 
L 562.094927 232.484167 
L 562.740568 227.565977 
L 564.677491 225.08444 
L 565.323132 220.450908 
L 566.614415 220.422738 
L 567.260056 224.860117 
L 569.84262 231.120038 
L 571.133902 232.129538 
L 571.779543 227.005168 
L 573.716466 224.614785 
L 574.362107 229.332525 
L 575.007749 228.729699 
L 576.299031 235.038626 
L 578.235954 234.407716 
L 578.881595 233.84695 
L 579.527236 226.42335 
L 580.172877 227.222503 
L 580.818518 223.05854 
L 583.401083 219.224117 
L 584.692365 214.527386 
L 585.338006 215.775186 
L 587.274929 221.803708 
L 587.92057 218.193566 
L 588.566211 220.093328 
L 589.211852 217.829083 
L 589.857493 220.086296 
L 591.794416 222.925369 
L 592.440058 220.114293 
L 593.73134 216.931832 
L 594.376981 220.822379 
L 596.313904 217.962297 
L 596.959545 217.639788 
L 597.605186 219.006782 
L 598.250827 214.541406 
L 598.896468 214.562415 
L 601.479033 213.30767 
L 602.124674 212.298213 
L 602.770315 214.08577 
L 603.415956 221.40424 
L 605.352879 223.317892 
L 605.99852 225.399917 
L 606.644161 225.189614 
L 607.289802 231.842145 
L 607.935443 225.441978 
L 609.872366 232.739352 
L 610.518008 237.583274 
L 611.163649 233.237049 
L 611.80929 240.492406 
L 612.454931 238.242225 
L 615.037495 252.262188 
L 615.683136 250.19427 
L 616.328777 255.416652 
L 616.974418 247.43233 
L 618.911341 244.389985 
L 619.556983 248.687075 
L 620.202624 244.404005 
L 620.848265 245.553663 
L 621.493906 245.42288 
L 623.430829 238.321441 
L 624.07647 237.351138 
L 624.722111 242.181474 
L 625.367752 243.243191 
L 626.013393 251.272699 
L 627.950316 248.650092 
L 628.595958 247.539239 
L 629.241599 245.043162 
L 630.532881 286.695293 
L 632.469804 287.328091 
L 633.115445 292.882618 
L 633.761086 256.222532 
L 634.406727 273.125279 
L 635.052368 266.544195 
L 636.989292 262.902149 
L 637.634933 263.963823 
L 638.280574 272.36593 
L 638.926215 271.838631 
L 641.508779 280.648562 
L 642.15442 271.248002 
L 642.800061 265.50366 
L 643.445702 257.579586 
L 644.091343 254.802323 
L 646.028267 254.654655 
L 646.673908 252.214875 
L 647.319549 252.060175 
L 647.96519 249.296976 
L 648.610831 243.468209 
L 650.547754 245.753289 
L 651.193395 249.06497 
L 651.839036 247.412623 
L 652.484677 244.663487 
L 653.130318 245.169691 
L 655.067242 232.056702 
L 655.712883 229.3498 
L 656.358524 228.822458 
L 657.004165 226.804544 
L 657.649806 224.174906 
L 659.586729 223.717924 
L 660.23237 225.124114 
L 660.878011 232.148159 
L 661.523652 231.986427 
L 662.169293 234.784829 
L 664.751858 226.319349 
L 665.397499 228.724056 
L 666.04314 227.092805 
L 666.688781 227.556861 
L 668.625704 225.222559 
L 669.271345 222.846066 
L 669.916986 222.958575 
L 670.562627 224.983521 
L 671.208268 220.70158 
L 673.145192 220.321862 
L 673.790833 217.931305 
L 674.436474 219.140647 
L 675.082115 217.460217 
L 675.727756 222.206214 
L 677.664679 218.212578 
L 678.31032 221.833572 
L 678.955961 221.896858 
L 680.247243 222.883396 
L 682.184167 218.743957 
L 682.829808 214.068581 
L 683.475449 213.828805 
L 684.12109 210.479144 
L 684.766731 208.335395 
L 686.703654 206.262138 
L 687.349295 206.403165 
L 687.994936 204.428658 
L 688.640577 200.98029 
L 691.223142 204.266448 
L 691.868783 204.506225 
L 692.514424 201.882967 
L 693.160065 200.641808 
L 693.805706 202.193235 
L 695.742629 201.354105 
L 696.38827 203.236895 
L 697.033911 201.770154 
L 697.679552 199.076361 
L 698.325193 199.400693 
L 700.262117 198.56152 
L 700.907758 198.49806 
L 701.553399 194.725274 
L 702.19904 194.577215 
L 702.844681 192.68735 
L 704.781604 192.800163 
L 705.427245 193.98485 
L 706.072886 194.549001 
L 706.718527 196.227348 
L 707.364168 203.5331 
L 709.301092 196.869109 
L 709.946733 199.125671 
L 710.592374 195.733732 
L 711.238015 196.107503 
L 711.883656 192.630878 
L 713.820579 193.519448 
L 714.46622 188.74528 
L 715.111861 187.193896 
L 715.757502 187.151575 
L 716.403143 188.216418 
L 718.340067 188.315167 
L 718.985708 190.776259 
L 719.631349 191.975096 
L 720.27699 193.780363 
L 720.922631 186.897735 
L 722.859554 188.9005 
L 723.505195 187.003516 
L 724.150836 185.966888 
L 724.796477 184.352045 
L 725.442118 187.081083 
L 728.024683 190.451884 
L 728.670324 188.004855 
L 729.315965 184.211018 
L 729.961606 185.536732 
L 731.898529 184.415505 
L 732.54417 183.357694 
L 733.189811 182.031936 
L 733.835452 178.209798 
L 734.481093 178.365018 
L 736.418017 175.896851 
L 737.709299 177.116784 
L 739.000581 172.631745 
L 740.937504 170.411298 
L 741.583145 172.978214 
L 742.228786 174.470348 
L 742.874427 176.627118 
L 743.520068 173.961149 
L 745.456992 172.645896 
L 746.748274 169.272838 
L 747.393915 168.728394 
L 748.039556 168.735382 
L 749.976479 167.038284 
L 750.62212 168.799059 
L 751.267761 165.977565 
L 751.913402 167.356495 
L 752.559043 180.184045 
L 754.495967 173.098493 
L 755.141608 173.671282 
L 755.787249 171.592296 
L 756.43289 174.795634 
L 757.078531 172.143816 
L 759.015454 167.257485 
L 759.661095 167.264561 
L 760.306736 169.732467 
L 760.952377 166.932199 
L 761.598018 163.049986 
L 763.534942 157.399923 
L 764.180583 156.112927 
L 764.826224 155.879531 
L 765.471865 161.225534 
L 766.117506 159.648671 
L 768.054429 158.743477 
L 768.70007 164.471324 
L 769.345711 162.816634 
L 769.991352 167.957542 
L 770.636993 167.490881 
L 772.573917 160.087074 
L 773.219558 158.983947 
L 773.865199 158.715176 
L 774.51084 166.734179 
L 775.156481 166.812007 
L 777.093404 171.238708 
L 777.739045 175.19163 
L 778.384686 173.388403 
L 779.030327 180.530514 
L 779.675968 175.934094 
L 781.612892 169.074862 
L 782.258533 164.626892 
L 782.904174 161.331619 
L 784.195456 158.708144 
L 786.132379 160.914441 
L 786.77802 160.023397 
L 787.423661 158.354557 
L 788.069302 158.001013 
L 788.714943 157.081711 
L 791.297508 158.955647 
L 791.943149 155.752264 
L 792.58879 154.62088 
L 793.234431 159.860754 
L 795.171354 160.589155 
L 795.816995 161.904408 
L 796.462636 167.186777 
L 797.108277 163.601593 
L 797.753918 159.266001 
L 799.690842 156.258859 
L 800.336483 154.038975 
L 800.982124 152.322648 
L 802.273406 152.372305 
L 804.85597 154.712728 
L 805.501611 158.32274 
L 806.792893 157.43621 
L 808.729817 154.209215 
L 809.375458 151.308461 
L 810.021099 152.890012 
L 810.66674 152.939668 
L 811.312381 149.705598 
L 813.249304 148.932532 
L 813.894945 149.918332 
L 814.540586 152.336842 
L 815.186227 151.003489 
L 815.831869 151.41485 
L 818.414433 161.400808 
L 819.060074 155.854616 
L 819.705715 153.315567 
L 820.351356 153.138295 
L 822.288279 150.655978 
L 822.93392 148.698486 
L 823.579561 148.748142 
L 824.225202 149.726867 
L 824.870844 151.194997 
L 826.807767 148.755218 
L 827.453408 152.925475 
L 828.099049 155.294328 
L 828.74469 161.372421 
L 829.390331 152.152452 
L 831.327254 149.790674 
L 831.972895 151.088608 
L 832.618536 151.202029 
L 833.264177 158.783714 
L 833.909819 158.443322 
L 836.492383 157.663182 
L 837.138024 155.223402 
L 837.783665 156.507143 
L 838.429306 152.9964 
L 840.366229 157.98938 
L 841.657511 150.358037 
L 842.948794 155.43618 
L 844.885717 155.159552 
L 845.531358 159.450391 
L 846.176999 156.046125 
L 846.82264 158.75537 
L 847.468281 165.088822 
L 849.405204 160.911403 
L 850.696486 162.287338 
L 851.342127 169.57117 
L 851.987769 172.244952 
L 853.924692 167.464707 
L 854.570333 166.216516 
L 855.215974 172.854897 
L 855.861615 174.010936 
L 856.507256 180.719374 
L 858.444179 175.87632 
L 859.08982 177.440899 
L 859.735461 174.852236 
L 861.026744 191.017077 
L 862.963667 192.524793 
L 863.609308 179.460593 
L 863.609308 179.460593 
" clip-path="url(#p8704f451fb)" style="fill: none; stroke-dasharray: 8.14,3.52; stroke-dashoffset: 0; stroke: #ff7f0e; stroke-width: 2.2"/>
   </g>
   <g id="patch_3">
    <path d="M 61.62625 400.397656 
L 61.62625 24.597656 
" style="fill: none; stroke: #000000; stroke-width: 0.8; stroke-linejoin: miter; stroke-linecap: square"/>
   </g>
   <g id="patch_4">
    <path d="M 61.62625 400.397656 
L 901.798977 400.397656 
" style="fill: none; stroke: #000000; stroke-width: 0.8; stroke-linejoin: miter; stroke-linecap: square"/>
   </g>
   <g id="text_20">
    <!-- $23,121 -->
    <g style="fill: #1f77b4" transform="translate(871.609308 44.438849) scale(0.1 -0.1)">
     <defs>
      <path id="DejaVuSans-Bold-24" d="M 2484 -941 
L 1978 -941 
L 1975 0 
Q 1584 16 1218 87 
Q 853 159 506 288 
L 506 1106 
Q 866 922 1233 823 
Q 1600 725 1978 713 
L 1978 1684 
L 1875 1703 
Q 1128 1834 814 2115 
Q 500 2397 500 2925 
Q 500 3484 883 3798 
Q 1266 4113 1975 4141 
L 1978 4863 
L 2484 4863 
L 2484 4153 
Q 2797 4128 3109 4075 
Q 3422 4022 3738 3938 
L 3738 3144 
Q 3425 3275 3112 3348 
Q 2800 3422 2484 3438 
L 2484 2541 
L 2584 2522 
Q 3378 2397 3698 2105 
Q 4019 1813 4019 1241 
Q 4019 666 3637 358 
Q 3256 50 2484 6 
L 2484 -941 
z
M 1978 2613 
L 1978 3428 
Q 1756 3416 1623 3308 
Q 1491 3200 1491 3034 
Q 1491 2850 1612 2745 
Q 1734 2641 1978 2613 
z
M 2484 1594 
L 2484 725 
Q 2756 728 2892 831 
Q 3028 934 3028 1141 
Q 3028 1353 2903 1458 
Q 2778 1563 2484 1594 
z
" transform="scale(0.015625)"/>
      <path id="DejaVuSans-Bold-32" d="M 1844 884 
L 3897 884 
L 3897 0 
L 506 0 
L 506 884 
L 2209 2388 
Q 2438 2594 2547 2791 
Q 2656 2988 2656 3200 
Q 2656 3528 2436 3728 
Q 2216 3928 1850 3928 
Q 1569 3928 1234 3808 
Q 900 3688 519 3450 
L 519 4475 
Q 925 4609 1322 4679 
Q 1719 4750 2100 4750 
Q 2938 4750 3402 4381 
Q 3866 4013 3866 3353 
Q 3866 2972 3669 2642 
Q 3472 2313 2841 1759 
L 1844 884 
z
" transform="scale(0.015625)"/>
      <path id="DejaVuSans-Bold-33" d="M 2981 2516 
Q 3453 2394 3698 2092 
Q 3944 1791 3944 1325 
Q 3944 631 3412 270 
Q 2881 -91 1863 -91 
Q 1503 -91 1142 -33 
Q 781 25 428 141 
L 428 1069 
Q 766 900 1098 814 
Q 1431 728 1753 728 
Q 2231 728 2486 893 
Q 2741 1059 2741 1369 
Q 2741 1688 2480 1852 
Q 2219 2016 1709 2016 
L 1228 2016 
L 1228 2791 
L 1734 2791 
Q 2188 2791 2409 2933 
Q 2631 3075 2631 3366 
Q 2631 3634 2415 3781 
Q 2200 3928 1806 3928 
Q 1516 3928 1219 3862 
Q 922 3797 628 3669 
L 628 4550 
Q 984 4650 1334 4700 
Q 1684 4750 2022 4750 
Q 2931 4750 3382 4451 
Q 3834 4153 3834 3553 
Q 3834 3144 3618 2883 
Q 3403 2622 2981 2516 
z
" transform="scale(0.015625)"/>
      <path id="DejaVuSans-Bold-2c" d="M 653 1209 
L 1778 1209 
L 1778 256 
L 1006 -909 
L 341 -909 
L 653 256 
L 653 1209 
z
" transform="scale(0.015625)"/>
      <path id="DejaVuSans-Bold-31" d="M 750 831 
L 1813 831 
L 1813 3847 
L 722 3622 
L 722 4441 
L 1806 4666 
L 2950 4666 
L 2950 831 
L 4013 831 
L 4013 0 
L 750 0 
L 750 831 
z
" transform="scale(0.015625)"/>
     </defs>
     <use xlink:href="#DejaVuSans-Bold-24"/>
     <use xlink:href="#DejaVuSans-Bold-32" transform="translate(69.580078 0)"/>
     <use xlink:href="#DejaVuSans-Bold-33" transform="translate(139.160156 0)"/>
     <use xlink:href="#DejaVuSans-Bold-2c" transform="translate(208.740234 0)"/>
     <use xlink:href="#DejaVuSans-Bold-31" transform="translate(246.728516 0)"/>
     <use xlink:href="#DejaVuSans-Bold-32" transform="translate(316.308594 0)"/>
     <use xlink:href="#DejaVuSans-Bold-31" transform="translate(385.888672 0)"/>
    </g>
   </g>
   <g id="text_21">
    <!-- $17,814 -->
    <g style="fill: #ff7f0e" transform="translate(871.609308 190.219968) scale(0.1 -0.1)">
     <defs>
      <path id="DejaVuSans-Bold-37" d="M 428 4666 
L 3944 4666 
L 3944 3988 
L 2125 0 
L 953 0 
L 2675 3781 
L 428 3781 
L 428 4666 
z
" transform="scale(0.015625)"/>
      <path id="DejaVuSans-Bold-38" d="M 2228 2088 
Q 1891 2088 1709 1903 
Q 1528 1719 1528 1375 
Q 1528 1031 1709 848 
Q 1891 666 2228 666 
Q 2563 666 2741 848 
Q 2919 1031 2919 1375 
Q 2919 1722 2741 1905 
Q 2563 2088 2228 2088 
z
M 1350 2484 
Q 925 2613 709 2878 
Q 494 3144 494 3541 
Q 494 4131 934 4440 
Q 1375 4750 2228 4750 
Q 3075 4750 3515 4442 
Q 3956 4134 3956 3541 
Q 3956 3144 3739 2878 
Q 3522 2613 3097 2484 
Q 3572 2353 3814 2058 
Q 4056 1763 4056 1313 
Q 4056 619 3595 264 
Q 3134 -91 2228 -91 
Q 1319 -91 855 264 
Q 391 619 391 1313 
Q 391 1763 633 2058 
Q 875 2353 1350 2484 
z
M 1631 3419 
Q 1631 3141 1786 2991 
Q 1941 2841 2228 2841 
Q 2509 2841 2662 2991 
Q 2816 3141 2816 3419 
Q 2816 3697 2662 3845 
Q 2509 3994 2228 3994 
Q 1941 3994 1786 3844 
Q 1631 3694 1631 3419 
z
" transform="scale(0.015625)"/>
      <path id="DejaVuSans-Bold-34" d="M 2356 3675 
L 1038 1722 
L 2356 1722 
L 2356 3675 
z
M 2156 4666 
L 3494 4666 
L 3494 1722 
L 4159 1722 
L 4159 850 
L 3494 850 
L 3494 0 
L 2356 0 
L 2356 850 
L 288 850 
L 288 1881 
L 2156 4666 
z
" transform="scale(0.015625)"/>
     </defs>
     <use xlink:href="#DejaVuSans-Bold-24"/>
     <use xlink:href="#DejaVuSans-Bold-31" transform="translate(69.580078 0)"/>
     <use xlink:href="#DejaVuSans-Bold-37" transform="translate(139.160156 0)"/>
     <use xlink:href="#DejaVuSans-Bold-2c" transform="translate(208.740234 0)"/>
     <use xlink:href="#DejaVuSans-Bold-38" transform="translate(246.728516 0)"/>
     <use xlink:href="#DejaVuSans-Bold-31" transform="translate(316.308594 0)"/>
     <use xlink:href="#DejaVuSans-Bold-34" transform="translate(385.888672 0)"/>
    </g>
   </g>
   <g id="text_22">
    <!-- Backtested Cumulative Performance (Normalized to $10,000) -->
    <g transform="translate(250.548551 18.597656) scale(0.15 -0.15)">
     <defs>
      <path id="DejaVuSans-42" d="M 1259 2228 
L 1259 519 
L 2272 519 
Q 2781 519 3026 730 
Q 3272 941 3272 1375 
Q 3272 1813 3026 2020 
Q 2781 2228 2272 2228 
L 1259 2228 
z
M 1259 4147 
L 1259 2741 
L 2194 2741 
Q 2656 2741 2882 2914 
Q 3109 3088 3109 3444 
Q 3109 3797 2882 3972 
Q 2656 4147 2194 4147 
L 1259 4147 
z
M 628 4666 
L 2241 4666 
Q 2963 4666 3353 4366 
Q 3744 4066 3744 3513 
Q 3744 3084 3544 2831 
Q 3344 2578 2956 2516 
Q 3422 2416 3680 2098 
Q 3938 1781 3938 1306 
Q 3938 681 3513 340 
Q 3088 0 2303 0 
L 628 0 
L 628 4666 
z
" transform="scale(0.015625)"/>
      <path id="DejaVuSans-61" d="M 2194 1759 
Q 1497 1759 1228 1600 
Q 959 1441 959 1056 
Q 959 750 1161 570 
Q 1363 391 1709 391 
Q 2188 391 2477 730 
Q 2766 1069 2766 1631 
L 2766 1759 
L 2194 1759 
z
M 3341 1997 
L 3341 0 
L 2766 0 
L 2766 531 
Q 2569 213 2275 61 
Q 1981 -91 1556 -91 
Q 1019 -91 701 211 
Q 384 513 384 1019 
Q 384 1609 779 1909 
Q 1175 2209 1959 2209 
L 2766 2209 
L 2766 2266 
Q 2766 2663 2505 2880 
Q 2244 3097 1772 3097 
Q 1472 3097 1187 3025 
Q 903 2953 641 2809 
L 641 3341 
Q 956 3463 1253 3523 
Q 1550 3584 1831 3584 
Q 2591 3584 2966 3190 
Q 3341 2797 3341 1997 
z
" transform="scale(0.015625)"/>
      <path id="DejaVuSans-63" d="M 3122 3366 
L 3122 2828 
Q 2878 2963 2633 3030 
Q 2388 3097 2138 3097 
Q 1578 3097 1268 2742 
Q 959 2388 959 1747 
Q 959 1106 1268 751 
Q 1578 397 2138 397 
Q 2388 397 2633 464 
Q 2878 531 3122 666 
L 3122 134 
Q 2881 22 2623 -34 
Q 2366 -91 2075 -91 
Q 1284 -91 818 406 
Q 353 903 353 1747 
Q 353 2603 823 3093 
Q 1294 3584 2113 3584 
Q 2378 3584 2631 3529 
Q 2884 3475 3122 3366 
z
" transform="scale(0.015625)"/>
      <path id="DejaVuSans-6b" d="M 581 4863 
L 1159 4863 
L 1159 1991 
L 2875 3500 
L 3609 3500 
L 1753 1863 
L 3688 0 
L 2938 0 
L 1159 1709 
L 1159 0 
L 581 0 
L 581 4863 
z
" transform="scale(0.015625)"/>
      <path id="DejaVuSans-65" d="M 3597 1894 
L 3597 1613 
L 953 1613 
Q 991 1019 1311 708 
Q 1631 397 2203 397 
Q 2534 397 2845 478 
Q 3156 559 3463 722 
L 3463 178 
Q 3153 47 2828 -22 
Q 2503 -91 2169 -91 
Q 1331 -91 842 396 
Q 353 884 353 1716 
Q 353 2575 817 3079 
Q 1281 3584 2069 3584 
Q 2775 3584 3186 3129 
Q 3597 2675 3597 1894 
z
M 3022 2063 
Q 3016 2534 2758 2815 
Q 2500 3097 2075 3097 
Q 1594 3097 1305 2825 
Q 1016 2553 972 2059 
L 3022 2063 
z
" transform="scale(0.015625)"/>
      <path id="DejaVuSans-73" d="M 2834 3397 
L 2834 2853 
Q 2591 2978 2328 3040 
Q 2066 3103 1784 3103 
Q 1356 3103 1142 2972 
Q 928 2841 928 2578 
Q 928 2378 1081 2264 
Q 1234 2150 1697 2047 
L 1894 2003 
Q 2506 1872 2764 1633 
Q 3022 1394 3022 966 
Q 3022 478 2636 193 
Q 2250 -91 1575 -91 
Q 1294 -91 989 -36 
Q 684 19 347 128 
L 347 722 
Q 666 556 975 473 
Q 1284 391 1588 391 
Q 1994 391 2212 530 
Q 2431 669 2431 922 
Q 2431 1156 2273 1281 
Q 2116 1406 1581 1522 
L 1381 1569 
Q 847 1681 609 1914 
Q 372 2147 372 2553 
Q 372 3047 722 3315 
Q 1072 3584 1716 3584 
Q 2034 3584 2315 3537 
Q 2597 3491 2834 3397 
z
" transform="scale(0.015625)"/>
      <path id="DejaVuSans-64" d="M 2906 2969 
L 2906 4863 
L 3481 4863 
L 3481 0 
L 2906 0 
L 2906 525 
Q 2725 213 2448 61 
Q 2172 -91 1784 -91 
Q 1150 -91 751 415 
Q 353 922 353 1747 
Q 353 2572 751 3078 
Q 1150 3584 1784 3584 
Q 2172 3584 2448 3432 
Q 2725 3281 2906 2969 
z
M 947 1747 
Q 947 1113 1208 752 
Q 1469 391 1925 391 
Q 2381 391 2643 752 
Q 2906 1113 2906 1747 
Q 2906 2381 2643 2742 
Q 2381 3103 1925 3103 
Q 1469 3103 1208 2742 
Q 947 2381 947 1747 
z
" transform="scale(0.015625)"/>
      <path id="DejaVuSans-43" d="M 4122 4306 
L 4122 3641 
Q 3803 3938 3442 4084 
Q 3081 4231 2675 4231 
Q 1875 4231 1450 3742 
Q 1025 3253 1025 2328 
Q 1025 1406 1450 917 
Q 1875 428 2675 428 
Q 3081 428 3442 575 
Q 3803 722 4122 1019 
L 4122 359 
Q 3791 134 3420 21 
Q 3050 -91 2638 -91 
Q 1578 -91 968 557 
Q 359 1206 359 2328 
Q 359 3453 968 4101 
Q 1578 4750 2638 4750 
Q 3056 4750 3426 4639 
Q 3797 4528 4122 4306 
z
" transform="scale(0.015625)"/>
      <path id="DejaVuSans-75" d="M 544 1381 
L 544 3500 
L 1119 3500 
L 1119 1403 
Q 1119 906 1312 657 
Q 1506 409 1894 409 
Q 2359 409 2629 706 
Q 2900 1003 2900 1516 
L 2900 3500 
L 3475 3500 
L 3475 0 
L 2900 0 
L 2900 538 
Q 2691 219 2414 64 
Q 2138 -91 1772 -91 
Q 1169 -91 856 284 
Q 544 659 544 1381 
z
M 1991 3584 
L 1991 3584 
z
" transform="scale(0.015625)"/>
      <path id="DejaVuSans-6d" d="M 3328 2828 
Q 3544 3216 3844 3400 
Q 4144 3584 4550 3584 
Q 5097 3584 5394 3201 
Q 5691 2819 5691 2113 
L 5691 0 
L 5113 0 
L 5113 2094 
Q 5113 2597 4934 2840 
Q 4756 3084 4391 3084 
Q 3944 3084 3684 2787 
Q 3425 2491 3425 1978 
L 3425 0 
L 2847 0 
L 2847 2094 
Q 2847 2600 2669 2842 
Q 2491 3084 2119 3084 
Q 1678 3084 1418 2786 
Q 1159 2488 1159 1978 
L 1159 0 
L 581 0 
L 581 3500 
L 1159 3500 
L 1159 2956 
Q 1356 3278 1631 3431 
Q 1906 3584 2284 3584 
Q 2666 3584 2933 3390 
Q 3200 3197 3328 2828 
z
" transform="scale(0.015625)"/>
      <path id="DejaVuSans-6c" d="M 603 4863 
L 1178 4863 
L 1178 0 
L 603 0 
L 603 4863 
z
" transform="scale(0.015625)"/>
      <path id="DejaVuSans-69" d="M 603 3500 
L 1178 3500 
L 1178 0 
L 603 0 
L 603 3500 
z
M 603 4863 
L 1178 4863 
L 1178 4134 
L 603 4134 
L 603 4863 
z
" transform="scale(0.015625)"/>
      <path id="DejaVuSans-76" d="M 191 3500 
L 800 3500 
L 1894 563 
L 2988 3500 
L 3597 3500 
L 2284 0 
L 1503 0 
L 191 3500 
z
" transform="scale(0.015625)"/>
      <path id="DejaVuSans-50" d="M 1259 4147 
L 1259 2394 
L 2053 2394 
Q 2494 2394 2734 2622 
Q 2975 2850 2975 3272 
Q 2975 3691 2734 3919 
Q 2494 4147 2053 4147 
L 1259 4147 
z
M 628 4666 
L 2053 4666 
Q 2838 4666 3239 4311 
Q 3641 3956 3641 3272 
Q 3641 2581 3239 2228 
Q 2838 1875 2053 1875 
L 1259 1875 
L 1259 0 
L 628 0 
L 628 4666 
z
" transform="scale(0.015625)"/>
      <path id="DejaVuSans-6e" d="M 3513 2113 
L 3513 0 
L 2938 0 
L 2938 2094 
Q 2938 2591 2744 2837 
Q 2550 3084 2163 3084 
Q 1697 3084 1428 2787 
Q 1159 2491 1159 1978 
L 1159 0 
L 581 0 
L 581 3500 
L 1159 3500 
L 1159 2956 
Q 1366 3272 1645 3428 
Q 1925 3584 2291 3584 
Q 2894 3584 3203 3211 
Q 3513 2838 3513 2113 
z
" transform="scale(0.015625)"/>
      <path id="DejaVuSans-28" d="M 1984 4856 
Q 1566 4138 1362 3434 
Q 1159 2731 1159 2009 
Q 1159 1288 1364 580 
Q 1569 -128 1984 -844 
L 1484 -844 
Q 1016 -109 783 600 
Q 550 1309 550 2009 
Q 550 2706 781 3412 
Q 1013 4119 1484 4856 
L 1984 4856 
z
" transform="scale(0.015625)"/>
      <path id="DejaVuSans-4e" d="M 628 4666 
L 1478 4666 
L 3547 763 
L 3547 4666 
L 4159 4666 
L 4159 0 
L 3309 0 
L 1241 3903 
L 1241 0 
L 628 0 
L 628 4666 
z
" transform="scale(0.015625)"/>
      <path id="DejaVuSans-7a" d="M 353 3500 
L 3084 3500 
L 3084 2975 
L 922 459 
L 3084 459 
L 3084 0 
L 275 0 
L 275 525 
L 2438 3041 
L 353 3041 
L 353 3500 
z
" transform="scale(0.015625)"/>
      <path id="DejaVuSans-29" d="M 513 4856 
L 1013 4856 
Q 1481 4119 1714 3412 
Q 1947 2706 1947 2009 
Q 1947 1309 1714 600 
Q 1481 -109 1013 -844 
L 513 -844 
Q 928 -128 1133 580 
Q 1338 1288 1338 2009 
Q 1338 2731 1133 3434 
Q 928 4138 513 4856 
z
" transform="scale(0.015625)"/>
     </defs>
     <use xlink:href="#DejaVuSans-42"/>
     <use xlink:href="#DejaVuSans-61" transform="translate(68.603516 0)"/>
     <use xlink:href="#DejaVuSans-63" transform="translate(129.882812 0)"/>
     <use xlink:href="#DejaVuSans-6b" transform="translate(184.863281 0)"/>
     <use xlink:href="#DejaVuSans-74" transform="translate(242.773438 0)"/>
     <use xlink:href="#DejaVuSans-65" transform="translate(281.982422 0)"/>
     <use xlink:href="#DejaVuSans-73" transform="translate(343.505859 0)"/>
     <use xlink:href="#DejaVuSans-74" transform="translate(395.605469 0)"/>
     <use xlink:href="#DejaVuSans-65" transform="translate(434.814453 0)"/>
     <use xlink:href="#DejaVuSans-64" transform="translate(496.337891 0)"/>
     <use xlink:href="#DejaVuSans-20" transform="translate(559.814453 0)"/>
     <use xlink:href="#DejaVuSans-43" transform="translate(591.601562 0)"/>
     <use xlink:href="#DejaVuSans-75" transform="translate(661.425781 0)"/>
     <use xlink:href="#DejaVuSans-6d" transform="translate(724.804688 0)"/>
     <use xlink:href="#DejaVuSans-75" transform="translate(822.216797 0)"/>
     <use xlink:href="#DejaVuSans-6c" transform="translate(885.595703 0)"/>
     <use xlink:href="#DejaVuSans-61" transform="translate(913.378906 0)"/>
     <use xlink:href="#DejaVuSans-74" transform="translate(974.658203 0)"/>
     <use xlink:href="#DejaVuSans-69" transform="translate(1013.867188 0)"/>
     <use xlink:href="#DejaVuSans-76" transform="translate(1041.650391 0)"/>
     <use xlink:href="#DejaVuSans-65" transform="translate(1100.830078 0)"/>
     <use xlink:href="#DejaVuSans-20" transform="translate(1162.353516 0)"/>
     <use xlink:href="#DejaVuSans-50" transform="translate(1194.140625 0)"/>
     <use xlink:href="#DejaVuSans-65" transform="translate(1250.818359 0)"/>
     <use xlink:href="#DejaVuSans-72" transform="translate(1312.341797 0)"/>
     <use xlink:href="#DejaVuSans-66" transform="translate(1353.455078 0)"/>
     <use xlink:href="#DejaVuSans-6f" transform="translate(1388.660156 0)"/>
     <use xlink:href="#DejaVuSans-72" transform="translate(1449.841797 0)"/>
     <use xlink:href="#DejaVuSans-6d" transform="translate(1489.205078 0)"/>
     <use xlink:href="#DejaVuSans-61" transform="translate(1586.617188 0)"/>
     <use xlink:href="#DejaVuSans-6e" transform="translate(1647.896484 0)"/>
     <use xlink:href="#DejaVuSans-63" transform="translate(1711.275391 0)"/>
     <use xlink:href="#DejaVuSans-65" transform="translate(1766.255859 0)"/>
     <use xlink:href="#DejaVuSans-20" transform="translate(1827.779297 0)"/>
     <use xlink:href="#DejaVuSans-28" transform="translate(1859.566406 0)"/>
     <use xlink:href="#DejaVuSans-4e" transform="translate(1898.580078 0)"/>
     <use xlink:href="#DejaVuSans-6f" transform="translate(1973.384766 0)"/>
     <use xlink:href="#DejaVuSans-72" transform="translate(2034.566406 0)"/>
     <use xlink:href="#DejaVuSans-6d" transform="translate(2073.929688 0)"/>
     <use xlink:href="#DejaVuSans-61" transform="translate(2171.341797 0)"/>
     <use xlink:href="#DejaVuSans-6c" transform="translate(2232.621094 0)"/>
     <use xlink:href="#DejaVuSans-69" transform="translate(2260.404297 0)"/>
     <use xlink:href="#DejaVuSans-7a" transform="translate(2288.1875 0)"/>
     <use xlink:href="#DejaVuSans-65" transform="translate(2340.677734 0)"/>
     <use xlink:href="#DejaVuSans-64" transform="translate(2402.201172 0)"/>
     <use xlink:href="#DejaVuSans-20" transform="translate(2465.677734 0)"/>
     <use xlink:href="#DejaVuSans-74" transform="translate(2497.464844 0)"/>
     <use xlink:href="#DejaVuSans-6f" transform="translate(2536.673828 0)"/>
     <use xlink:href="#DejaVuSans-20" transform="translate(2597.855469 0)"/>
     <use xlink:href="#DejaVuSans-24" transform="translate(2629.642578 0)"/>
     <use xlink:href="#DejaVuSans-31" transform="translate(2693.265625 0)"/>
     <use xlink:href="#DejaVuSans-30" transform="translate(2756.888672 0)"/>
     <use xlink:href="#DejaVuSans-2c" transform="translate(2820.511719 0)"/>
     <use xlink:href="#DejaVuSans-30" transform="translate(2852.298828 0)"/>
     <use xlink:href="#DejaVuSans-30" transform="translate(2915.921875 0)"/>
     <use xlink:href="#DejaVuSans-30" transform="translate(2979.544922 0)"/>
     <use xlink:href="#DejaVuSans-29" transform="translate(3043.167969 0)"/>
    </g>
   </g>
   <g id="legend_1">
    <g id="line2d_21">
     <path d="M 69.72625 36.38625 
L 78.72625 36.38625 
L 87.72625 36.38625 
" style="fill: none; stroke: #1f77b4; stroke-width: 2.8; stroke-linecap: square"/>
    </g>
    <g id="text_23">
     <!-- Diamond Creek ETF Arb Fund (Net) -->
     <g transform="translate(94.92625 39.53625) scale(0.09 -0.09)">
      <defs>
       <path id="DejaVuSans-44" d="M 1259 4147 
L 1259 519 
L 2022 519 
Q 2988 519 3436 956 
Q 3884 1394 3884 2338 
Q 3884 3275 3436 3711 
Q 2988 4147 2022 4147 
L 1259 4147 
z
M 628 4666 
L 1925 4666 
Q 3281 4666 3915 4102 
Q 4550 3538 4550 2338 
Q 4550 1131 3912 565 
Q 3275 0 1925 0 
L 628 0 
L 628 4666 
z
" transform="scale(0.015625)"/>
       <path id="DejaVuSans-45" d="M 628 4666 
L 3578 4666 
L 3578 4134 
L 1259 4134 
L 1259 2753 
L 3481 2753 
L 3481 2222 
L 1259 2222 
L 1259 531 
L 3634 531 
L 3634 0 
L 628 0 
L 628 4666 
z
" transform="scale(0.015625)"/>
       <path id="DejaVuSans-54" d="M -19 4666 
L 3928 4666 
L 3928 4134 
L 2272 4134 
L 2272 0 
L 1638 0 
L 1638 4134 
L -19 4134 
L -19 4666 
z
" transform="scale(0.015625)"/>
       <path id="DejaVuSans-46" d="M 628 4666 
L 3309 4666 
L 3309 4134 
L 1259 4134 
L 1259 2759 
L 3109 2759 
L 3109 2228 
L 1259 2228 
L 1259 0 
L 628 0 
L 628 4666 
z
" transform="scale(0.015625)"/>
       <path id="DejaVuSans-41" d="M 2188 4044 
L 1331 1722 
L 3047 1722 
L 2188 4044 
z
M 1831 4666 
L 2547 4666 
L 4325 0 
L 3669 0 
L 3244 1197 
L 1141 1197 
L 716 0 
L 50 0 
L 1831 4666 
z
" transform="scale(0.015625)"/>
       <path id="DejaVuSans-62" d="M 3116 1747 
Q 3116 2381 2855 2742 
Q 2594 3103 2138 3103 
Q 1681 3103 1420 2742 
Q 1159 2381 1159 1747 
Q 1159 1113 1420 752 
Q 1681 391 2138 391 
Q 2594 391 2855 752 
Q 3116 1113 3116 1747 
z
M 1159 2969 
Q 1341 3281 1617 3432 
Q 1894 3584 2278 3584 
Q 2916 3584 3314 3078 
Q 3713 2572 3713 1747 
Q 3713 922 3314 415 
Q 2916 -91 2278 -91 
Q 1894 -91 1617 61 
Q 1341 213 1159 525 
L 1159 0 
L 581 0 
L 581 4863 
L 1159 4863 
L 1159 2969 
z
" transform="scale(0.015625)"/>
      </defs>
      <use xlink:href="#DejaVuSans-44"/>
      <use xlink:href="#DejaVuSans-69" transform="translate(77.001953 0)"/>
      <use xlink:href="#DejaVuSans-61" transform="translate(104.785156 0)"/>
      <use xlink:href="#DejaVuSans-6d" transform="translate(166.064453 0)"/>
      <use xlink:href="#DejaVuSans-6f" transform="translate(263.476562 0)"/>
      <use xlink:href="#DejaVuSans-6e" transform="translate(324.658203 0)"/>
      <use xlink:href="#DejaVuSans-64" transform="translate(388.037109 0)"/>
      <use xlink:href="#DejaVuSans-20" transform="translate(451.513672 0)"/>
      <use xlink:href="#DejaVuSans-43" transform="translate(483.300781 0)"/>
      <use xlink:href="#DejaVuSans-72" transform="translate(553.125 0)"/>
      <use xlink:href="#DejaVuSans-65" transform="translate(591.988281 0)"/>
      <use xlink:href="#DejaVuSans-65" transform="translate(653.511719 0)"/>
      <use xlink:href="#DejaVuSans-6b" transform="translate(715.035156 0)"/>
      <use xlink:href="#DejaVuSans-20" transform="translate(772.945312 0)"/>
      <use xlink:href="#DejaVuSans-45" transform="translate(804.732422 0)"/>
      <use xlink:href="#DejaVuSans-54" transform="translate(867.916016 0)"/>
      <use xlink:href="#DejaVuSans-46" transform="translate(929 0)"/>
      <use xlink:href="#DejaVuSans-20" transform="translate(986.519531 0)"/>
      <use xlink:href="#DejaVuSans-41" transform="translate(1018.306641 0)"/>
      <use xlink:href="#DejaVuSans-72" transform="translate(1086.714844 0)"/>
      <use xlink:href="#DejaVuSans-62" transform="translate(1127.828125 0)"/>
      <use xlink:href="#DejaVuSans-20" transform="translate(1191.304688 0)"/>
      <use xlink:href="#DejaVuSans-46" transform="translate(1223.091797 0)"/>
      <use xlink:href="#DejaVuSans-75" transform="translate(1275.111328 0)"/>
      <use xlink:href="#DejaVuSans-6e" transform="translate(1338.490234 0)"/>
      <use xlink:href="#DejaVuSans-64" transform="translate(1401.869141 0)"/>
      <use xlink:href="#DejaVuSans-20" transform="translate(1465.345703 0)"/>
      <use xlink:href="#DejaVuSans-28" transform="translate(1497.132812 0)"/>
      <use xlink:href="#DejaVuSans-4e" transform="translate(1536.146484 0)"/>
      <use xlink:href="#DejaVuSans-65" transform="translate(1610.951172 0)"/>
      <use xlink:href="#DejaVuSans-74" transform="translate(1672.474609 0)"/>
      <use xlink:href="#DejaVuSans-29" transform="translate(1711.683594 0)"/>
     </g>
    </g>
    <g id="line2d_22">
     <path d="M 69.72625 49.596562 
L 78.72625 49.596562 
L 87.72625 49.596562 
" style="fill: none; stroke-dasharray: 8.14,3.52; stroke-dashoffset: 0; stroke: #ff7f0e; stroke-width: 2.2"/>
    </g>
    <g id="text_24">
     <!-- SPY (Total Return) -->
     <g transform="translate(94.92625 52.746562) scale(0.09 -0.09)">
      <defs>
       <path id="DejaVuSans-53" d="M 3425 4513 
L 3425 3897 
Q 3066 4069 2747 4153 
Q 2428 4238 2131 4238 
Q 1616 4238 1336 4038 
Q 1056 3838 1056 3469 
Q 1056 3159 1242 3001 
Q 1428 2844 1947 2747 
L 2328 2669 
Q 3034 2534 3370 2195 
Q 3706 1856 3706 1288 
Q 3706 609 3251 259 
Q 2797 -91 1919 -91 
Q 1588 -91 1214 -16 
Q 841 59 441 206 
L 441 856 
Q 825 641 1194 531 
Q 1563 422 1919 422 
Q 2459 422 2753 634 
Q 3047 847 3047 1241 
Q 3047 1584 2836 1778 
Q 2625 1972 2144 2069 
L 1759 2144 
Q 1053 2284 737 2584 
Q 422 2884 422 3419 
Q 422 4038 858 4394 
Q 1294 4750 2059 4750 
Q 2388 4750 2728 4690 
Q 3069 4631 3425 4513 
z
" transform="scale(0.015625)"/>
       <path id="DejaVuSans-59" d="M -13 4666 
L 666 4666 
L 1959 2747 
L 3244 4666 
L 3922 4666 
L 2272 2222 
L 2272 0 
L 1638 0 
L 1638 2222 
L -13 4666 
z
" transform="scale(0.015625)"/>
       <path id="DejaVuSans-52" d="M 2841 2188 
Q 3044 2119 3236 1894 
Q 3428 1669 3622 1275 
L 4263 0 
L 3584 0 
L 2988 1197 
Q 2756 1666 2539 1819 
Q 2322 1972 1947 1972 
L 1259 1972 
L 1259 0 
L 628 0 
L 628 4666 
L 2053 4666 
Q 2853 4666 3247 4331 
Q 3641 3997 3641 3322 
Q 3641 2881 3436 2590 
Q 3231 2300 2841 2188 
z
M 1259 4147 
L 1259 2491 
L 2053 2491 
Q 2509 2491 2742 2702 
Q 2975 2913 2975 3322 
Q 2975 3731 2742 3939 
Q 2509 4147 2053 4147 
L 1259 4147 
z
" transform="scale(0.015625)"/>
      </defs>
      <use xlink:href="#DejaVuSans-53"/>
      <use xlink:href="#DejaVuSans-50" transform="translate(63.476562 0)"/>
      <use xlink:href="#DejaVuSans-59" transform="translate(121.529297 0)"/>
      <use xlink:href="#DejaVuSans-20" transform="translate(182.613281 0)"/>
      <use xlink:href="#DejaVuSans-28" transform="translate(214.400391 0)"/>
      <use xlink:href="#DejaVuSans-54" transform="translate(253.414062 0)"/>
      <use xlink:href="#DejaVuSans-6f" transform="translate(297.498047 0)"/>
      <use xlink:href="#DejaVuSans-74" transform="translate(358.679688 0)"/>
      <use xlink:href="#DejaVuSans-61" transform="translate(397.888672 0)"/>
      <use xlink:href="#DejaVuSans-6c" transform="translate(459.167969 0)"/>
      <use xlink:href="#DejaVuSans-20" transform="translate(486.951172 0)"/>
      <use xlink:href="#DejaVuSans-52" transform="translate(518.738281 0)"/>
      <use xlink:href="#DejaVuSans-65" transform="translate(583.720703 0)"/>
      <use xlink:href="#DejaVuSans-74" transform="translate(645.244141 0)"/>
      <use xlink:href="#DejaVuSans-75" transform="translate(684.453125 0)"/>
      <use xlink:href="#DejaVuSans-72" transform="translate(747.832031 0)"/>
      <use xlink:href="#DejaVuSans-6e" transform="translate(787.195312 0)"/>
      <use xlink:href="#DejaVuSans-29" transform="translate(850.574219 0)"/>
     </g>
    </g>
   </g>
  </g>
 </g>
 <defs>
  <clipPath id="p8704f451fb">
   <rect x="61.62625" y="24.597656" width="840.172727" height="375.8"/>
  </clipPath>
 </defs>
</svg>
