<?xml version="1.0" encoding="utf-8" standalone="no"?>
<!DOCTYPE svg PUBLIC "-//W3C//DTD SVG 1.1//EN"
  "http://www.w3.org/Graphics/SVG/1.1/DTD/svg11.dtd">
<svg xmlns:xlink="http://www.w3.org/1999/xlink" width="924.35462pt" height="424.275781pt" viewBox="0 0 924.35462 424.275781" xmlns="http://www.w3.org/2000/svg" version="1.1">
 <metadata>
  <rdf:RDF xmlns:dc="http://purl.org/dc/elements/1.1/" xmlns:cc="http://creativecommons.org/ns#" xmlns:rdf="http://www.w3.org/1999/02/22-rdf-syntax-ns#">
   <cc:Work>
    <dc:type rdf:resource="http://purl.org/dc/dcmitype/StillImage"/>
    <dc:date>2026-04-15T14:19:48.598574</dc:date>
    <dc:format>image/svg+xml</dc:format>
    <dc:creator>
     <cc:Agent>
      <dc:title>Matplotlib v3.10.8, https://matplotlib.org/</dc:title>
     </cc:Agent>
    </dc:creator>
   </cc:Work>
  </rdf:RDF>
 </metadata>
 <defs>
  <style type="text/css">*{stroke-linejoin: round; stroke-linecap: butt}</style>
 </defs>
 <g id="figure_1">
  <g id="patch_1">
   <path d="M 0 424.275781 
L 924.35462 424.275781 
L 924.35462 0 
L 0 0 
z
" style="fill: #ffffff"/>
  </g>
  <g id="axes_1">
   <g id="patch_2">
    <path d="M 61.62625 400.397656 
L 901.798977 400.397656 
L 901.798977 24.597656 
L 61.62625 24.597656 
z
" style="fill: #ffffff"/>
   </g>
   <g id="matplotlib.axis_1">
    <g id="xtick_1">
     <g id="line2d_1">
      <defs>
       <path id="m476a790474" d="M 0 0 
L 0 3.5 
" style="stroke: #000000; stroke-width: 0.8"/>
      </defs>
      <g>
       <use xlink:href="#m476a790474" x="98.524637" y="400.397656" style="stroke: #000000; stroke-width: 0.8"/>
      </g>
     </g>
     <g id="text_1">
      <!-- 2023-01 -->
      <g transform="translate(77.633231 414.996094) scale(0.1 -0.1)">
       <defs>
        <path id="DejaVuSans-32" d="M 1228 531 
L 3431 531 
L 3431 0 
L 469 0 
L 469 531 
Q 828 903 1448 1529 
Q 2069 2156 2228 2338 
Q 2531 2678 2651 2914 
Q 2772 3150 2772 3378 
Q 2772 3750 2511 3984 
Q 2250 4219 1831 4219 
Q 1534 4219 1204 4116 
Q 875 4013 500 3803 
L 500 4441 
Q 881 4594 1212 4672 
Q 1544 4750 1819 4750 
Q 2544 4750 2975 4387 
Q 3406 4025 3406 3419 
Q 3406 3131 3298 2873 
Q 3191 2616 2906 2266 
Q 2828 2175 2409 1742 
Q 1991 1309 1228 531 
z
" transform="scale(0.015625)"/>
        <path id="DejaVuSans-30" d="M 2034 4250 
Q 1547 4250 1301 3770 
Q 1056 3291 1056 2328 
Q 1056 1369 1301 889 
Q 1547 409 2034 409 
Q 2525 409 2770 889 
Q 3016 1369 3016 2328 
Q 3016 3291 2770 3770 
Q 2525 4250 2034 4250 
z
M 2034 4750 
Q 2819 4750 3233 4129 
Q 3647 3509 3647 2328 
Q 3647 1150 3233 529 
Q 2819 -91 2034 -91 
Q 1250 -91 836 529 
Q 422 1150 422 2328 
Q 422 3509 836 4129 
Q 1250 4750 2034 4750 
z
" transform="scale(0.015625)"/>
        <path id="DejaVuSans-33" d="M 2597 2516 
Q 3050 2419 3304 2112 
Q 3559 1806 3559 1356 
Q 3559 666 3084 287 
Q 2609 -91 1734 -91 
Q 1441 -91 1130 -33 
Q 819 25 488 141 
L 488 750 
Q 750 597 1062 519 
Q 1375 441 1716 441 
Q 2309 441 2620 675 
Q 2931 909 2931 1356 
Q 2931 1769 2642 2001 
Q 2353 2234 1838 2234 
L 1294 2234 
L 1294 2753 
L 1863 2753 
Q 2328 2753 2575 2939 
Q 2822 3125 2822 3475 
Q 2822 3834 2567 4026 
Q 2313 4219 1838 4219 
Q 1578 4219 1281 4162 
Q 984 4106 628 3988 
L 628 4550 
Q 988 4650 1302 4700 
Q 1616 4750 1894 4750 
Q 2613 4750 3031 4423 
Q 3450 4097 3450 3541 
Q 3450 3153 3228 2886 
Q 3006 2619 2597 2516 
z
" transform="scale(0.015625)"/>
        <path id="DejaVuSans-2d" d="M 313 2009 
L 1997 2009 
L 1997 1497 
L 313 1497 
L 313 2009 
z
" transform="scale(0.015625)"/>
        <path id="DejaVuSans-31" d="M 794 531 
L 1825 531 
L 1825 4091 
L 703 3866 
L 703 4441 
L 1819 4666 
L 2450 4666 
L 2450 531 
L 3481 531 
L 3481 0 
L 794 0 
L 794 531 
z
" transform="scale(0.015625)"/>
       </defs>
       <use xlink:href="#DejaVuSans-32"/>
       <use xlink:href="#DejaVuSans-30" transform="translate(63.623047 0)"/>
       <use xlink:href="#DejaVuSans-32" transform="translate(127.246094 0)"/>
       <use xlink:href="#DejaVuSans-33" transform="translate(190.869141 0)"/>
       <use xlink:href="#DejaVuSans-2d" transform="translate(254.492188 0)"/>
       <use xlink:href="#DejaVuSans-30" transform="translate(290.576172 0)"/>
       <use xlink:href="#DejaVuSans-31" transform="translate(354.199219 0)"/>
      </g>
     </g>
    </g>
    <g id="xtick_2">
     <g id="line2d_2">
      <g>
       <use xlink:href="#m476a790474" x="176.001566" y="400.397656" style="stroke: #000000; stroke-width: 0.8"/>
      </g>
     </g>
     <g id="text_2">
      <!-- 2023-05 -->
      <g transform="translate(155.11016 414.996094) scale(0.1 -0.1)">
       <defs>
        <path id="DejaVuSans-35" d="M 691 4666 
L 3169 4666 
L 3169 4134 
L 1269 4134 
L 1269 2991 
Q 1406 3038 1543 3061 
Q 1681 3084 1819 3084 
Q 2600 3084 3056 2656 
Q 3513 2228 3513 1497 
Q 3513 744 3044 326 
Q 2575 -91 1722 -91 
Q 1428 -91 1123 -41 
Q 819 9 494 109 
L 494 744 
Q 775 591 1075 516 
Q 1375 441 1709 441 
Q 2250 441 2565 725 
Q 2881 1009 2881 1497 
Q 2881 1984 2565 2268 
Q 2250 2553 1709 2553 
Q 1456 2553 1204 2497 
Q 953 2441 691 2322 
L 691 4666 
z
" transform="scale(0.015625)"/>
       </defs>
       <use xlink:href="#DejaVuSans-32"/>
       <use xlink:href="#DejaVuSans-30" transform="translate(63.623047 0)"/>
       <use xlink:href="#DejaVuSans-32" transform="translate(127.246094 0)"/>
       <use xlink:href="#DejaVuSans-33" transform="translate(190.869141 0)"/>
       <use xlink:href="#DejaVuSans-2d" transform="translate(254.492188 0)"/>
       <use xlink:href="#DejaVuSans-30" transform="translate(290.576172 0)"/>
       <use xlink:href="#DejaVuSans-35" transform="translate(354.199219 0)"/>
      </g>
     </g>
    </g>
    <g id="xtick_3">
     <g id="line2d_3">
      <g>
       <use xlink:href="#m476a790474" x="255.415418" y="400.397656" style="stroke: #000000; stroke-width: 0.8"/>
      </g>
     </g>
     <g id="text_3">
      <!-- 2023-09 -->
      <g transform="translate(234.524012 414.996094) scale(0.1 -0.1)">
       <defs>
        <path id="DejaVuSans-39" d="M 703 97 
L 703 672 
Q 941 559 1184 500 
Q 1428 441 1663 441 
Q 2288 441 2617 861 
Q 2947 1281 2994 2138 
Q 2813 1869 2534 1725 
Q 2256 1581 1919 1581 
Q 1219 1581 811 2004 
Q 403 2428 403 3163 
Q 403 3881 828 4315 
Q 1253 4750 1959 4750 
Q 2769 4750 3195 4129 
Q 3622 3509 3622 2328 
Q 3622 1225 3098 567 
Q 2575 -91 1691 -91 
Q 1453 -91 1209 -44 
Q 966 3 703 97 
z
M 1959 2075 
Q 2384 2075 2632 2365 
Q 2881 2656 2881 3163 
Q 2881 3666 2632 3958 
Q 2384 4250 1959 4250 
Q 1534 4250 1286 3958 
Q 1038 3666 1038 3163 
Q 1038 2656 1286 2365 
Q 1534 2075 1959 2075 
z
" transform="scale(0.015625)"/>
       </defs>
       <use xlink:href="#DejaVuSans-32"/>
       <use xlink:href="#DejaVuSans-30" transform="translate(63.623047 0)"/>
       <use xlink:href="#DejaVuSans-32" transform="translate(127.246094 0)"/>
       <use xlink:href="#DejaVuSans-33" transform="translate(190.869141 0)"/>
       <use xlink:href="#DejaVuSans-2d" transform="translate(254.492188 0)"/>
       <use xlink:href="#DejaVuSans-30" transform="translate(290.576172 0)"/>
       <use xlink:href="#DejaVuSans-39" transform="translate(354.199219 0)"/>
      </g>
     </g>
    </g>
    <g id="xtick_4">
     <g id="line2d_4">
      <g>
       <use xlink:href="#m476a790474" x="334.183629" y="400.397656" style="stroke: #000000; stroke-width: 0.8"/>
      </g>
     </g>
     <g id="text_4">
      <!-- 2024-01 -->
      <g transform="translate(313.292222 414.996094) scale(0.1 -0.1)">
       <defs>
        <path id="DejaVuSans-34" d="M 2419 4116 
L 825 1625 
L 2419 1625 
L 2419 4116 
z
M 2253 4666 
L 3047 4666 
L 3047 1625 
L 3713 1625 
L 3713 1100 
L 3047 1100 
L 3047 0 
L 2419 0 
L 2419 1100 
L 313 1100 
L 313 1709 
L 2253 4666 
z
" transform="scale(0.015625)"/>
       </defs>
       <use xlink:href="#DejaVuSans-32"/>
       <use xlink:href="#DejaVuSans-30" transform="translate(63.623047 0)"/>
       <use xlink:href="#DejaVuSans-32" transform="translate(127.246094 0)"/>
       <use xlink:href="#DejaVuSans-34" transform="translate(190.869141 0)"/>
       <use xlink:href="#DejaVuSans-2d" transform="translate(254.492188 0)"/>
       <use xlink:href="#DejaVuSans-30" transform="translate(290.576172 0)"/>
       <use xlink:href="#DejaVuSans-31" transform="translate(354.199219 0)"/>
      </g>
     </g>
    </g>
    <g id="xtick_5">
     <g id="line2d_5">
      <g>
       <use xlink:href="#m476a790474" x="412.306198" y="400.397656" style="stroke: #000000; stroke-width: 0.8"/>
      </g>
     </g>
     <g id="text_5">
      <!-- 2024-05 -->
      <g transform="translate(391.414792 414.996094) scale(0.1 -0.1)">
       <use xlink:href="#DejaVuSans-32"/>
       <use xlink:href="#DejaVuSans-30" transform="translate(63.623047 0)"/>
       <use xlink:href="#DejaVuSans-32" transform="translate(127.246094 0)"/>
       <use xlink:href="#DejaVuSans-34" transform="translate(190.869141 0)"/>
       <use xlink:href="#DejaVuSans-2d" transform="translate(254.492188 0)"/>
       <use xlink:href="#DejaVuSans-30" transform="translate(290.576172 0)"/>
       <use xlink:href="#DejaVuSans-35" transform="translate(354.199219 0)"/>
      </g>
     </g>
    </g>
    <g id="xtick_6">
     <g id="line2d_6">
      <g>
       <use xlink:href="#m476a790474" x="491.72005" y="400.397656" style="stroke: #000000; stroke-width: 0.8"/>
      </g>
     </g>
     <g id="text_6">
      <!-- 2024-09 -->
      <g transform="translate(470.828644 414.996094) scale(0.1 -0.1)">
       <use xlink:href="#DejaVuSans-32"/>
       <use xlink:href="#DejaVuSans-30" transform="translate(63.623047 0)"/>
       <use xlink:href="#DejaVuSans-32" transform="translate(127.246094 0)"/>
       <use xlink:href="#DejaVuSans-34" transform="translate(190.869141 0)"/>
       <use xlink:href="#DejaVuSans-2d" transform="translate(254.492188 0)"/>
       <use xlink:href="#DejaVuSans-30" transform="translate(290.576172 0)"/>
       <use xlink:href="#DejaVuSans-39" transform="translate(354.199219 0)"/>
      </g>
     </g>
    </g>
    <g id="xtick_7">
     <g id="line2d_7">
      <g>
       <use xlink:href="#m476a790474" x="570.488261" y="400.397656" style="stroke: #000000; stroke-width: 0.8"/>
      </g>
     </g>
     <g id="text_7">
      <!-- 2025-01 -->
      <g transform="translate(549.596855 414.996094) scale(0.1 -0.1)">
       <use xlink:href="#DejaVuSans-32"/>
       <use xlink:href="#DejaVuSans-30" transform="translate(63.623047 0)"/>
       <use xlink:href="#DejaVuSans-32" transform="translate(127.246094 0)"/>
       <use xlink:href="#DejaVuSans-35" transform="translate(190.869141 0)"/>
       <use xlink:href="#DejaVuSans-2d" transform="translate(254.492188 0)"/>
       <use xlink:href="#DejaVuSans-30" transform="translate(290.576172 0)"/>
       <use xlink:href="#DejaVuSans-31" transform="translate(354.199219 0)"/>
      </g>
     </g>
    </g>
    <g id="xtick_8">
     <g id="line2d_8">
      <g>
       <use xlink:href="#m476a790474" x="647.96519" y="400.397656" style="stroke: #000000; stroke-width: 0.8"/>
      </g>
     </g>
     <g id="text_8">
      <!-- 2025-05 -->
      <g transform="translate(627.073783 414.996094) scale(0.1 -0.1)">
       <use xlink:href="#DejaVuSans-32"/>
       <use xlink:href="#DejaVuSans-30" transform="translate(63.623047 0)"/>
       <use xlink:href="#DejaVuSans-32" transform="translate(127.246094 0)"/>
       <use xlink:href="#DejaVuSans-35" transform="translate(190.869141 0)"/>
       <use xlink:href="#DejaVuSans-2d" transform="translate(254.492188 0)"/>
       <use xlink:href="#DejaVuSans-30" transform="translate(290.576172 0)"/>
       <use xlink:href="#DejaVuSans-35" transform="translate(354.199219 0)"/>
      </g>
     </g>
    </g>
    <g id="xtick_9">
     <g id="line2d_9">
      <g>
       <use xlink:href="#m476a790474" x="727.379042" y="400.397656" style="stroke: #000000; stroke-width: 0.8"/>
      </g>
     </g>
     <g id="text_9">
      <!-- 2025-09 -->
      <g transform="translate(706.487635 414.996094) scale(0.1 -0.1)">
       <use xlink:href="#DejaVuSans-32"/>
       <use xlink:href="#DejaVuSans-30" transform="translate(63.623047 0)"/>
       <use xlink:href="#DejaVuSans-32" transform="translate(127.246094 0)"/>
       <use xlink:href="#DejaVuSans-35" transform="translate(190.869141 0)"/>
       <use xlink:href="#DejaVuSans-2d" transform="translate(254.492188 0)"/>
       <use xlink:href="#DejaVuSans-30" transform="translate(290.576172 0)"/>
       <use xlink:href="#DejaVuSans-39" transform="translate(354.199219 0)"/>
      </g>
     </g>
    </g>
    <g id="xtick_10">
     <g id="line2d_10">
      <g>
       <use xlink:href="#m476a790474" x="806.147252" y="400.397656" style="stroke: #000000; stroke-width: 0.8"/>
      </g>
     </g>
     <g id="text_10">
      <!-- 2026-01 -->
      <g transform="translate(785.255846 414.996094) scale(0.1 -0.1)">
       <defs>
        <path id="DejaVuSans-36" d="M 2113 2584 
Q 1688 2584 1439 2293 
Q 1191 2003 1191 1497 
Q 1191 994 1439 701 
Q 1688 409 2113 409 
Q 2538 409 2786 701 
Q 3034 994 3034 1497 
Q 3034 2003 2786 2293 
Q 2538 2584 2113 2584 
z
M 3366 4563 
L 3366 3988 
Q 3128 4100 2886 4159 
Q 2644 4219 2406 4219 
Q 1781 4219 1451 3797 
Q 1122 3375 1075 2522 
Q 1259 2794 1537 2939 
Q 1816 3084 2150 3084 
Q 2853 3084 3261 2657 
Q 3669 2231 3669 1497 
Q 3669 778 3244 343 
Q 2819 -91 2113 -91 
Q 1303 -91 875 529 
Q 447 1150 447 2328 
Q 447 3434 972 4092 
Q 1497 4750 2381 4750 
Q 2619 4750 2861 4703 
Q 3103 4656 3366 4563 
z
" transform="scale(0.015625)"/>
       </defs>
       <use xlink:href="#DejaVuSans-32"/>
       <use xlink:href="#DejaVuSans-30" transform="translate(63.623047 0)"/>
       <use xlink:href="#DejaVuSans-32" transform="translate(127.246094 0)"/>
       <use xlink:href="#DejaVuSans-36" transform="translate(190.869141 0)"/>
       <use xlink:href="#DejaVuSans-2d" transform="translate(254.492188 0)"/>
       <use xlink:href="#DejaVuSans-30" transform="translate(290.576172 0)"/>
       <use xlink:href="#DejaVuSans-31" transform="translate(354.199219 0)"/>
      </g>
     </g>
    </g>
    <g id="xtick_11">
     <g id="line2d_11">
      <g>
       <use xlink:href="#m476a790474" x="883.624181" y="400.397656" style="stroke: #000000; stroke-width: 0.8"/>
      </g>
     </g>
     <g id="text_11">
      <!-- 2026-05 -->
      <g transform="translate(862.732775 414.996094) scale(0.1 -0.1)">
       <use xlink:href="#DejaVuSans-32"/>
       <use xlink:href="#DejaVuSans-30" transform="translate(63.623047 0)"/>
       <use xlink:href="#DejaVuSans-32" transform="translate(127.246094 0)"/>
       <use xlink:href="#DejaVuSans-36" transform="translate(190.869141 0)"/>
       <use xlink:href="#DejaVuSans-2d" transform="translate(254.492188 0)"/>
       <use xlink:href="#DejaVuSans-30" transform="translate(290.576172 0)"/>
       <use xlink:href="#DejaVuSans-35" transform="translate(354.199219 0)"/>
      </g>
     </g>
    </g>
   </g>
   <g id="matplotlib.axis_2">
    <g id="ytick_1">
     <g id="line2d_12">
      <defs>
       <path id="mf28df12ddb" d="M 0 0 
L -3.5 0 
" style="stroke: #000000; stroke-width: 0.8"/>
      </defs>
      <g>
       <use xlink:href="#mf28df12ddb" x="61.62625" y="382.328334" style="stroke: #000000; stroke-width: 0.8"/>
      </g>
     </g>
     <g id="text_12">
      <!-- 10000 -->
      <g transform="translate(22.81375 386.127553) scale(0.1 -0.1)">
       <use xlink:href="#DejaVuSans-31"/>
       <use xlink:href="#DejaVuSans-30" transform="translate(63.623047 0)"/>
       <use xlink:href="#DejaVuSans-30" transform="translate(127.246094 0)"/>
       <use xlink:href="#DejaVuSans-30" transform="translate(190.869141 0)"/>
       <use xlink:href="#DejaVuSans-30" transform="translate(254.492188 0)"/>
      </g>
     </g>
    </g>
    <g id="ytick_2">
     <g id="line2d_13">
      <g>
       <use xlink:href="#mf28df12ddb" x="61.62625" y="330.09685" style="stroke: #000000; stroke-width: 0.8"/>
      </g>
     </g>
     <g id="text_13">
      <!-- 12000 -->
      <g transform="translate(22.81375 333.896068) scale(0.1 -0.1)">
       <use xlink:href="#DejaVuSans-31"/>
       <use xlink:href="#DejaVuSans-32" transform="translate(63.623047 0)"/>
       <use xlink:href="#DejaVuSans-30" transform="translate(127.246094 0)"/>
       <use xlink:href="#DejaVuSans-30" transform="translate(190.869141 0)"/>
       <use xlink:href="#DejaVuSans-30" transform="translate(254.492188 0)"/>
      </g>
     </g>
    </g>
    <g id="ytick_3">
     <g id="line2d_14">
      <g>
       <use xlink:href="#mf28df12ddb" x="61.62625" y="277.865365" style="stroke: #000000; stroke-width: 0.8"/>
      </g>
     </g>
     <g id="text_14">
      <!-- 14000 -->
      <g transform="translate(22.81375 281.664584) scale(0.1 -0.1)">
       <use xlink:href="#DejaVuSans-31"/>
       <use xlink:href="#DejaVuSans-34" transform="translate(63.623047 0)"/>
       <use xlink:href="#DejaVuSans-30" transform="translate(127.246094 0)"/>
       <use xlink:href="#DejaVuSans-30" transform="translate(190.869141 0)"/>
       <use xlink:href="#DejaVuSans-30" transform="translate(254.492188 0)"/>
      </g>
     </g>
    </g>
    <g id="ytick_4">
     <g id="line2d_15">
      <g>
       <use xlink:href="#mf28df12ddb" x="61.62625" y="225.63388" style="stroke: #000000; stroke-width: 0.8"/>
      </g>
     </g>
     <g id="text_15">
      <!-- 16000 -->
      <g transform="translate(22.81375 229.433099) scale(0.1 -0.1)">
       <use xlink:href="#DejaVuSans-31"/>
       <use xlink:href="#DejaVuSans-36" transform="translate(63.623047 0)"/>
       <use xlink:href="#DejaVuSans-30" transform="translate(127.246094 0)"/>
       <use xlink:href="#DejaVuSans-30" transform="translate(190.869141 0)"/>
       <use xlink:href="#DejaVuSans-30" transform="translate(254.492188 0)"/>
      </g>
     </g>
    </g>
    <g id="ytick_5">
     <g id="line2d_16">
      <g>
       <use xlink:href="#mf28df12ddb" x="61.62625" y="173.402395" style="stroke: #000000; stroke-width: 0.8"/>
      </g>
     </g>
     <g id="text_16">
      <!-- 18000 -->
      <g transform="translate(22.81375 177.201614) scale(0.1 -0.1)">
       <defs>
        <path id="DejaVuSans-38" d="M 2034 2216 
Q 1584 2216 1326 1975 
Q 1069 1734 1069 1313 
Q 1069 891 1326 650 
Q 1584 409 2034 409 
Q 2484 409 2743 651 
Q 3003 894 3003 1313 
Q 3003 1734 2745 1975 
Q 2488 2216 2034 2216 
z
M 1403 2484 
Q 997 2584 770 2862 
Q 544 3141 544 3541 
Q 544 4100 942 4425 
Q 1341 4750 2034 4750 
Q 2731 4750 3128 4425 
Q 3525 4100 3525 3541 
Q 3525 3141 3298 2862 
Q 3072 2584 2669 2484 
Q 3125 2378 3379 2068 
Q 3634 1759 3634 1313 
Q 3634 634 3220 271 
Q 2806 -91 2034 -91 
Q 1263 -91 848 271 
Q 434 634 434 1313 
Q 434 1759 690 2068 
Q 947 2378 1403 2484 
z
M 1172 3481 
Q 1172 3119 1398 2916 
Q 1625 2713 2034 2713 
Q 2441 2713 2670 2916 
Q 2900 3119 2900 3481 
Q 2900 3844 2670 4047 
Q 2441 4250 2034 4250 
Q 1625 4250 1398 4047 
Q 1172 3844 1172 3481 
z
" transform="scale(0.015625)"/>
       </defs>
       <use xlink:href="#DejaVuSans-31"/>
       <use xlink:href="#DejaVuSans-38" transform="translate(63.623047 0)"/>
       <use xlink:href="#DejaVuSans-30" transform="translate(127.246094 0)"/>
       <use xlink:href="#DejaVuSans-30" transform="translate(190.869141 0)"/>
       <use xlink:href="#DejaVuSans-30" transform="translate(254.492188 0)"/>
      </g>
     </g>
    </g>
    <g id="ytick_6">
     <g id="line2d_17">
      <g>
       <use xlink:href="#mf28df12ddb" x="61.62625" y="121.170911" style="stroke: #000000; stroke-width: 0.8"/>
      </g>
     </g>
     <g id="text_17">
      <!-- 20000 -->
      <g transform="translate(22.81375 124.97013) scale(0.1 -0.1)">
       <use xlink:href="#DejaVuSans-32"/>
       <use xlink:href="#DejaVuSans-30" transform="translate(63.623047 0)"/>
       <use xlink:href="#DejaVuSans-30" transform="translate(127.246094 0)"/>
       <use xlink:href="#DejaVuSans-30" transform="translate(190.869141 0)"/>
       <use xlink:href="#DejaVuSans-30" transform="translate(254.492188 0)"/>
      </g>
     </g>
    </g>
    <g id="ytick_7">
     <g id="line2d_18">
      <g>
       <use xlink:href="#mf28df12ddb" x="61.62625" y="68.939426" style="stroke: #000000; stroke-width: 0.8"/>
      </g>
     </g>
     <g id="text_18">
      <!-- 22000 -->
      <g transform="translate(22.81375 72.738645) scale(0.1 -0.1)">
       <use xlink:href="#DejaVuSans-32"/>
       <use xlink:href="#DejaVuSans-32" transform="translate(63.623047 0)"/>
       <use xlink:href="#DejaVuSans-30" transform="translate(127.246094 0)"/>
       <use xlink:href="#DejaVuSans-30" transform="translate(190.869141 0)"/>
       <use xlink:href="#DejaVuSans-30" transform="translate(254.492188 0)"/>
      </g>
     </g>
    </g>
    <g id="text_19">
     <!-- Growth of $10,000 -->
     <g transform="translate(16.318125 268.620156) rotate(-90) scale(0.12 -0.12)">
      <defs>
       <path id="DejaVuSans-47" d="M 3809 666 
L 3809 1919 
L 2778 1919 
L 2778 2438 
L 4434 2438 
L 4434 434 
Q 4069 175 3628 42 
Q 3188 -91 2688 -91 
Q 1594 -91 976 548 
Q 359 1188 359 2328 
Q 359 3472 976 4111 
Q 1594 4750 2688 4750 
Q 3144 4750 3555 4637 
Q 3966 4525 4313 4306 
L 4313 3634 
Q 3963 3931 3569 4081 
Q 3175 4231 2741 4231 
Q 1884 4231 1454 3753 
Q 1025 3275 1025 2328 
Q 1025 1384 1454 906 
Q 1884 428 2741 428 
Q 3075 428 3337 486 
Q 3600 544 3809 666 
z
" transform="scale(0.015625)"/>
       <path id="DejaVuSans-72" d="M 2631 2963 
Q 2534 3019 2420 3045 
Q 2306 3072 2169 3072 
Q 1681 3072 1420 2755 
Q 1159 2438 1159 1844 
L 1159 0 
L 581 0 
L 581 3500 
L 1159 3500 
L 1159 2956 
Q 1341 3275 1631 3429 
Q 1922 3584 2338 3584 
Q 2397 3584 2469 3576 
Q 2541 3569 2628 3553 
L 2631 2963 
z
" transform="scale(0.015625)"/>
       <path id="DejaVuSans-6f" d="M 1959 3097 
Q 1497 3097 1228 2736 
Q 959 2375 959 1747 
Q 959 1119 1226 758 
Q 1494 397 1959 397 
Q 2419 397 2687 759 
Q 2956 1122 2956 1747 
Q 2956 2369 2687 2733 
Q 2419 3097 1959 3097 
z
M 1959 3584 
Q 2709 3584 3137 3096 
Q 3566 2609 3566 1747 
Q 3566 888 3137 398 
Q 2709 -91 1959 -91 
Q 1206 -91 779 398 
Q 353 888 353 1747 
Q 353 2609 779 3096 
Q 1206 3584 1959 3584 
z
" transform="scale(0.015625)"/>
       <path id="DejaVuSans-77" d="M 269 3500 
L 844 3500 
L 1563 769 
L 2278 3500 
L 2956 3500 
L 3675 769 
L 4391 3500 
L 4966 3500 
L 4050 0 
L 3372 0 
L 2619 2869 
L 1863 0 
L 1184 0 
L 269 3500 
z
" transform="scale(0.015625)"/>
       <path id="DejaVuSans-74" d="M 1172 4494 
L 1172 3500 
L 2356 3500 
L 2356 3053 
L 1172 3053 
L 1172 1153 
Q 1172 725 1289 603 
Q 1406 481 1766 481 
L 2356 481 
L 2356 0 
L 1766 0 
Q 1100 0 847 248 
Q 594 497 594 1153 
L 594 3053 
L 172 3053 
L 172 3500 
L 594 3500 
L 594 4494 
L 1172 4494 
z
" transform="scale(0.015625)"/>
       <path id="DejaVuSans-68" d="M 3513 2113 
L 3513 0 
L 2938 0 
L 2938 2094 
Q 2938 2591 2744 2837 
Q 2550 3084 2163 3084 
Q 1697 3084 1428 2787 
Q 1159 2491 1159 1978 
L 1159 0 
L 581 0 
L 581 4863 
L 1159 4863 
L 1159 2956 
Q 1366 3272 1645 3428 
Q 1925 3584 2291 3584 
Q 2894 3584 3203 3211 
Q 3513 2838 3513 2113 
z
" transform="scale(0.015625)"/>
       <path id="DejaVuSans-20" transform="scale(0.015625)"/>
       <path id="DejaVuSans-66" d="M 2375 4863 
L 2375 4384 
L 1825 4384 
Q 1516 4384 1395 4259 
Q 1275 4134 1275 3809 
L 1275 3500 
L 2222 3500 
L 2222 3053 
L 1275 3053 
L 1275 0 
L 697 0 
L 697 3053 
L 147 3053 
L 147 3500 
L 697 3500 
L 697 3744 
Q 697 4328 969 4595 
Q 1241 4863 1831 4863 
L 2375 4863 
z
" transform="scale(0.015625)"/>
       <path id="DejaVuSans-24" d="M 2163 -941 
L 1850 -941 
L 1847 0 
Q 1519 6 1191 76 
Q 863 147 531 288 
L 531 850 
Q 850 650 1176 548 
Q 1503 447 1850 444 
L 1850 1869 
Q 1159 1981 845 2250 
Q 531 2519 531 2988 
Q 531 3497 872 3790 
Q 1213 4084 1850 4128 
L 1850 4863 
L 2163 4863 
L 2163 4138 
Q 2453 4125 2725 4076 
Q 2997 4028 3256 3944 
L 3256 3397 
Q 2997 3528 2723 3600 
Q 2450 3672 2163 3684 
L 2163 2350 
Q 2872 2241 3206 1959 
Q 3541 1678 3541 1191 
Q 3541 663 3186 358 
Q 2831 53 2163 6 
L 2163 -941 
z
M 1850 2406 
L 1850 3688 
Q 1488 3647 1297 3481 
Q 1106 3316 1106 3041 
Q 1106 2772 1282 2622 
Q 1459 2472 1850 2406 
z
M 2163 1806 
L 2163 453 
Q 2559 506 2761 678 
Q 2963 850 2963 1131 
Q 2963 1406 2770 1568 
Q 2578 1731 2163 1806 
z
" transform="scale(0.015625)"/>
       <path id="DejaVuSans-2c" d="M 750 794 
L 1409 794 
L 1409 256 
L 897 -744 
L 494 -744 
L 750 256 
L 750 794 
z
" transform="scale(0.015625)"/>
      </defs>
      <use xlink:href="#DejaVuSans-47"/>
      <use xlink:href="#DejaVuSans-72" transform="translate(77.490234 0)"/>
      <use xlink:href="#DejaVuSans-6f" transform="translate(116.353516 0)"/>
      <use xlink:href="#DejaVuSans-77" transform="translate(177.535156 0)"/>
      <use xlink:href="#DejaVuSans-74" transform="translate(259.322266 0)"/>
      <use xlink:href="#DejaVuSans-68" transform="translate(298.53125 0)"/>
      <use xlink:href="#DejaVuSans-20" transform="translate(361.910156 0)"/>
      <use xlink:href="#DejaVuSans-6f" transform="translate(393.697266 0)"/>
      <use xlink:href="#DejaVuSans-66" transform="translate(454.878906 0)"/>
      <use xlink:href="#DejaVuSans-20" transform="translate(490.083984 0)"/>
      <use xlink:href="#DejaVuSans-24" transform="translate(521.871094 0)"/>
      <use xlink:href="#DejaVuSans-31" transform="translate(585.494141 0)"/>
      <use xlink:href="#DejaVuSans-30" transform="translate(649.117188 0)"/>
      <use xlink:href="#DejaVuSans-2c" transform="translate(712.740234 0)"/>
      <use xlink:href="#DejaVuSans-30" transform="translate(744.527344 0)"/>
      <use xlink:href="#DejaVuSans-30" transform="translate(808.150391 0)"/>
      <use xlink:href="#DejaVuSans-30" transform="translate(871.773438 0)"/>
     </g>
    </g>
   </g>
   <g id="line2d_19">
    <path d="M 99.815919 382.328334 
L 100.46156 375.551298 
L 101.107202 380.373982 
L 101.752843 377.071983 
L 103.689766 372.352302 
L 104.335407 366.755326 
L 104.981048 364.87172 
L 106.27233 359.260085 
L 108.854894 355.907372 
L 109.500536 359.304622 
L 110.146177 360.410485 
L 110.791818 352.067925 
L 112.728741 347.568458 
L 113.374382 349.826191 
L 114.020023 350.667984 
L 114.665664 348.058516 
L 115.311305 342.004245 
L 117.248228 348.874967 
L 117.893869 344.319195 
L 118.539511 336.957993 
L 119.185152 320.657953 
L 119.830793 325.824184 
L 121.767716 326.307079 
L 122.413357 324.132461 
L 123.058998 327.87668 
L 123.704639 334.483104 
L 124.35028 337.350953 
L 126.287203 335.873732 
L 126.932844 332.976036 
L 127.578486 328.028272 
L 128.224127 332.025119 
L 128.869768 333.56813 
L 131.452332 337.168807 
L 132.097973 337.775045 
L 132.743614 332.178485 
L 133.389255 336.255233 
L 135.326178 335.609809 
L 135.971819 332.11595 
L 136.617461 334.508105 
L 137.263102 333.128698 
L 137.908743 328.779517 
L 139.845666 330.354093 
L 140.491307 331.88803 
L 141.136948 329.872335 
L 141.782589 335.494123 
L 142.42823 339.218637 
L 144.365153 334.623981 
L 145.010794 328.759557 
L 145.656436 326.133679 
L 146.302077 321.142288 
L 146.947718 319.388867 
L 148.884641 319.086558 
L 149.530282 312.65198 
L 150.175923 316.575128 
L 150.821564 318.618765 
L 151.467205 317.28891 
L 153.404128 320.898288 
L 154.049769 320.806561 
L 154.695411 317.546799 
L 155.341052 316.768412 
L 155.986693 325.042868 
L 157.923616 328.478535 
L 158.569257 328.85621 
L 159.214898 331.642342 
L 159.860539 328.726636 
L 162.443103 326.966753 
L 163.088744 327.254893 
L 163.734386 329.190389 
L 164.380027 325.898986 
L 165.025668 325.045735 
L 166.962591 325.827875 
L 167.608232 325.617928 
L 168.253873 326.45036 
L 168.899514 330.060876 
L 169.545155 330.236296 
L 171.482078 332.425256 
L 172.12772 335.141242 
L 172.773361 333.508088 
L 173.419002 326.551542 
L 174.064643 326.547842 
L 176.001566 327.063339 
L 176.647207 328.062672 
L 177.292848 330.148259 
L 177.938489 330.434233 
L 178.58413 323.035295 
L 180.521053 322.328949 
L 181.166695 322.347518 
L 181.812336 319.151879 
L 182.457977 319.159223 
L 183.103618 320.926889 
L 185.040541 317.988944 
L 185.686182 317.907989 
L 186.331823 314.433155 
L 186.977464 311.624707 
L 187.623105 313.568042 
L 189.560028 311.239884 
L 190.20567 313.759749 
L 190.851311 313.953725 
L 191.496952 304.32721 
L 192.142593 301.00049 
L 194.725157 298.129185 
L 195.370798 301.394287 
L 196.016439 295.166842 
L 196.66208 295.076235 
L 198.599003 297.570551 
L 199.244645 302.278016 
L 199.890286 304.933672 
L 200.535927 301.492324 
L 201.181568 302.61041 
L 203.118491 301.751153 
L 205.055414 294.506959 
L 205.701055 294.792646 
L 208.28362 293.327055 
L 208.929261 293.778457 
L 209.574902 291.653949 
L 210.220543 291.04247 
L 212.157466 294.215466 
L 212.803107 287.219505 
L 213.448748 287.488147 
L 214.094389 287.331011 
L 214.74003 291.896658 
L 216.676953 290.569589 
L 217.968236 290.175036 
L 218.613877 290.475163 
L 219.259518 289.163077 
L 221.196441 289.236506 
L 221.842082 284.49171 
L 222.487723 283.637164 
L 223.133364 270.445468 
L 223.779005 271.314076 
L 225.715929 270.238403 
L 226.36157 269.036521 
L 227.007211 267.09916 
L 227.652852 274.087202 
L 228.298493 275.860952 
L 230.235416 276.258216 
L 230.881057 274.666034 
L 231.526698 273.927528 
L 232.172339 275.391937 
L 232.81798 270.346253 
L 234.754904 269.908994 
L 235.400545 271.609982 
L 236.046186 277.643162 
L 236.691827 276.359578 
L 237.337468 277.01565 
L 239.274391 275.369525 
L 239.920032 276.36704 
L 240.565673 280.900818 
L 241.211314 280.847262 
L 241.856955 283.765481 
L 243.793879 280.395318 
L 246.376443 290.003737 
L 248.313366 284.09169 
L 248.959007 285.239727 
L 249.604648 281.745015 
L 250.250289 285.206197 
L 250.89593 284.848108 
L 252.832854 284.065427 
L 253.478495 275.537484 
L 254.124136 275.471681 
L 254.769777 276.779166 
L 255.415418 277.185881 
L 257.997982 276.948781 
L 258.643623 278.511667 
L 259.289264 277.423357 
L 259.934905 277.458736 
L 261.871829 276.516598 
L 262.51747 277.597288 
L 263.163111 276.705495 
L 263.808752 273.828904 
L 264.454393 277.991774 
L 266.391316 277.698669 
L 267.036957 279.802561 
L 267.682598 283.610029 
L 268.328239 288.142861 
L 268.97388 288.998628 
L 270.910804 287.133387 
L 271.556445 290.102482 
L 272.202086 289.365007 
L 272.847727 285.866412 
L 273.493368 286.862747 
L 275.430291 285.670348 
L 276.075932 290.028903 
L 276.721573 286.90214 
L 277.367214 285.822253 
L 278.012855 280.809469 
L 279.949779 280.888324 
L 280.59542 279.191829 
L 281.241061 277.871395 
L 281.886702 278.55384 
L 282.532343 282.321022 
L 284.469266 279.727815 
L 285.114907 281.016694 
L 285.760548 285.73276 
L 287.05183 289.63252 
L 288.988754 285.743119 
L 289.634395 282.490729 
L 290.280036 289.195823 
L 290.925677 294.276436 
L 291.571318 293.693916 
L 293.508241 290.772886 
L 294.153882 289.272731 
L 295.445164 279.481519 
L 296.090805 277.055735 
L 298.027729 275.603994 
L 298.67337 273.456702 
L 299.319011 273.142373 
L 299.964652 272.002591 
L 300.610293 268.890523 
L 302.547216 268.653635 
L 303.192857 266.043301 
L 303.838498 265.475624 
L 304.484139 264.666911 
L 305.12978 264.426337 
L 307.066704 259.964837 
L 307.712345 260.934863 
L 308.357986 259.393661 
L 309.649268 259.248139 
L 311.586191 257.975721 
L 312.231832 255.12006 
L 312.877473 256.1507 
L 313.523114 258.847589 
L 314.168755 256.912517 
L 316.105679 257.169568 
L 316.75132 256.035958 
L 317.396961 259.294935 
L 318.688243 250.681312 
L 320.625166 255.691981 
L 321.270807 252.860225 
L 321.916448 248.072188 
L 322.562089 247.700532 
L 323.20773 247.698427 
L 325.144654 243.33599 
L 325.790295 241.356322 
L 326.435936 242.323181 
L 327.081577 238.614981 
L 327.727218 237.202784 
L 330.309782 237.396719 
L 330.955423 234.404921 
L 331.601064 233.935585 
L 332.246705 245.699707 
L 335.474911 256.001386 
L 336.120552 255.608628 
L 336.766193 254.275444 
L 338.703116 248.041973 
L 339.348757 248.424111 
L 339.994398 246.111333 
L 340.640039 247.69257 
L 341.28568 249.70514 
L 343.868245 248.493832 
L 344.513886 249.408736 
L 345.159527 248.945753 
L 345.805168 245.439859 
L 347.742091 245.342371 
L 349.033373 244.492415 
L 349.679014 245.095127 
L 350.324655 244.340748 
L 352.261579 243.312756 
L 352.90722 243.587283 
L 353.552861 245.229306 
L 354.198502 243.718657 
L 354.844143 242.538472 
L 356.781066 242.189234 
L 357.426707 241.94376 
L 358.072348 240.65945 
L 358.717989 239.812498 
L 359.36363 239.231258 
L 361.300554 239.943965 
L 361.946195 240.30136 
L 362.591836 238.604486 
L 363.237477 239.084875 
L 363.883118 241.236174 
L 366.465682 242.118804 
L 367.111323 242.592211 
L 367.756964 234.64263 
L 368.402605 235.427282 
L 370.339529 235.776113 
L 370.98517 236.780383 
L 371.630811 237.390467 
L 372.276452 235.282733 
L 372.922093 235.344133 
L 374.859016 236.081476 
L 375.504657 236.142109 
L 376.150298 236.853073 
L 376.795939 236.077073 
L 377.44158 236.609669 
L 379.378504 237.425934 
L 380.024145 234.493477 
L 380.669786 234.680663 
L 381.315427 234.196596 
L 381.961068 234.030522 
L 383.897991 232.582789 
L 384.543632 231.914281 
L 385.189273 230.183021 
L 385.834914 229.96045 
L 386.480555 229.377947 
L 388.417479 229.247708 
L 389.06312 229.378938 
L 389.708761 229.03552 
L 390.354402 231.881614 
L 392.936966 233.299794 
L 393.582607 233.064148 
L 394.873889 232.843259 
L 395.51953 232.299997 
L 397.456454 232.957783 
L 398.102095 232.659808 
L 398.747736 231.309403 
L 399.393377 231.333307 
L 400.039018 230.087475 
L 401.975941 228.951409 
L 402.621582 229.064191 
L 403.267223 229.8122 
L 403.912864 229.213073 
L 404.558506 231.57644 
L 406.495429 231.387384 
L 407.14107 231.88871 
L 407.786711 229.770123 
L 408.432352 229.840452 
L 409.077993 231.403369 
L 411.014916 233.349225 
L 411.660557 232.360927 
L 412.306198 230.891111 
L 412.951839 228.731925 
L 413.597481 228.266224 
L 415.534404 228.445699 
L 416.180045 227.39182 
L 416.825686 227.379723 
L 417.471327 227.212913 
L 418.116968 226.8401 
L 420.053891 227.186061 
L 420.699532 227.431402 
L 421.345173 227.876624 
L 421.990814 226.448309 
L 422.636456 226.768977 
L 424.573379 227.095869 
L 425.21902 227.834485 
L 426.510302 226.386764 
L 427.155943 227.785905 
L 430.384148 227.916765 
L 431.029789 226.870542 
L 431.675431 226.795071 
L 434.257995 226.12449 
L 434.903636 227.709605 
L 435.549277 226.987583 
L 436.194918 225.867611 
L 438.131841 225.365632 
L 438.777482 225.016034 
L 439.423123 225.623565 
L 440.068764 225.636845 
L 440.714406 225.469494 
L 442.651329 226.216804 
L 443.29697 225.855359 
L 444.588252 224.397967 
L 445.233893 225.061312 
L 447.170816 224.148296 
L 447.816457 223.091862 
L 448.462098 223.137729 
L 449.107739 223.026791 
L 449.753381 224.627663 
L 451.690304 226.626828 
L 452.335945 229.603229 
L 452.981586 231.710083 
L 454.272868 233.011763 
L 456.209791 233.046599 
L 456.855432 233.554612 
L 457.501073 234.213142 
L 458.146715 231.317398 
L 458.792356 231.052162 
L 460.729279 231.122063 
L 461.37492 231.303095 
L 462.020561 230.888871 
L 462.666202 229.42288 
L 463.311843 231.085446 
L 465.248766 230.590875 
L 466.540048 228.869896 
L 467.18569 229.245503 
L 467.831331 227.355923 
L 470.413895 226.81226 
L 471.059536 223.631528 
L 471.705177 222.63762 
L 472.350818 223.379335 
L 474.287741 223.177905 
L 474.933382 220.492177 
L 475.579023 222.554983 
L 476.224665 217.768156 
L 476.870306 216.334789 
L 478.807229 216.740618 
L 479.45287 217.194692 
L 480.098511 217.126547 
L 480.744152 219.150216 
L 481.389793 219.648343 
L 483.326716 219.318512 
L 483.972357 219.095579 
L 484.617998 218.695901 
L 485.26364 217.898426 
L 485.909281 216.766642 
L 488.491845 216.402485 
L 489.137486 216.968963 
L 489.783127 217.002515 
L 490.428768 215.518763 
L 493.011332 215.271452 
L 493.656973 215.694069 
L 494.302615 215.885428 
L 494.948256 218.487058 
L 496.885179 218.122822 
L 497.53082 219.306773 
L 498.176461 220.75859 
L 498.822102 222.659666 
L 499.467743 222.892275 
L 501.404666 223.227567 
L 502.050307 222.786556 
L 502.695948 222.598845 
L 503.34159 221.867137 
L 503.987231 221.609286 
L 505.924154 221.514486 
L 506.569795 222.304755 
L 507.215436 221.811172 
L 508.506718 224.644467 
L 510.443641 224.889011 
L 511.089282 227.942359 
L 512.380565 228.509683 
L 513.026206 225.394013 
L 514.963129 226.360152 
L 515.60877 226.190698 
L 516.254411 225.621286 
L 516.900052 225.256662 
L 517.545693 227.606262 
L 520.128257 227.700855 
L 520.773899 228.652461 
L 521.41954 227.937173 
L 522.065181 225.487015 
L 524.002104 225.428143 
L 524.647745 225.257661 
L 525.293386 224.877911 
L 525.939027 223.739212 
L 526.584668 223.358621 
L 528.521591 223.307544 
L 529.167232 223.734102 
L 531.104156 218.070502 
L 533.041079 218.264384 
L 533.68672 217.441605 
L 534.332361 219.386553 
L 535.623643 228.751103 
L 537.560566 229.286868 
L 538.206207 232.240129 
L 538.851849 221.138229 
L 539.49749 219.893724 
L 540.143131 224.281145 
L 542.080054 224.064553 
L 542.725695 229.595278 
L 543.371336 240.272124 
L 544.016977 219.717872 
L 544.662618 224.589209 
L 546.599541 222.962923 
L 547.245182 225.837889 
L 547.890824 216.425168 
L 549.182106 216.215033 
L 551.119029 214.490705 
L 551.76467 214.869438 
L 552.410311 214.47941 
L 553.055952 212.747148 
L 553.701593 214.554792 
L 555.638516 213.956041 
L 556.284157 213.082378 
L 556.929799 210.115914 
L 557.57544 208.618702 
L 558.221081 208.555585 
L 560.158004 208.942025 
L 560.803645 209.358231 
L 561.449286 207.689946 
L 562.094927 212.407413 
L 562.740568 201.076986 
L 564.677491 200.264891 
L 565.323132 197.399266 
L 566.614415 196.13136 
L 567.260056 196.296734 
L 569.196979 195.562792 
L 569.84262 202.772607 
L 571.133902 203.098642 
L 571.779543 196.622964 
L 573.716466 196.997078 
L 574.362107 189.974831 
L 575.007749 189.430544 
L 576.299031 189.454946 
L 578.881595 188.120481 
L 579.527236 188.485703 
L 580.172877 188.520866 
L 580.818518 192.255552 
L 583.401083 192.624596 
L 584.046724 193.457539 
L 584.692365 193.370796 
L 585.338006 193.698575 
L 587.274929 192.689722 
L 587.92057 189.051388 
L 588.566211 189.529034 
L 589.211852 187.819223 
L 589.857493 188.765771 
L 592.440058 188.141933 
L 593.085699 187.757893 
L 593.73134 187.91663 
L 594.376981 189.27771 
L 596.313904 189.445979 
L 596.959545 189.911518 
L 597.605186 188.054481 
L 598.250827 186.961883 
L 598.896468 186.296597 
L 601.479033 186.509463 
L 602.770315 186.182706 
L 603.415956 188.15875 
L 605.352879 188.152884 
L 605.99852 193.019183 
L 606.644161 190.214406 
L 607.289802 196.568338 
L 607.935443 187.381604 
L 609.872366 187.00109 
L 610.518008 185.771557 
L 611.163649 188.468759 
L 611.80929 188.805404 
L 612.454931 183.322197 
L 614.391854 184.25302 
L 615.037495 174.485123 
L 615.683136 171.055732 
L 616.328777 173.645913 
L 616.974418 166.717569 
L 618.911341 166.912522 
L 619.556983 167.268551 
L 620.202624 164.33869 
L 621.493906 163.022563 
L 623.430829 161.627489 
L 624.07647 163.414904 
L 624.722111 158.861106 
L 625.367752 158.673917 
L 626.013393 154.347532 
L 627.950316 163.69963 
L 628.595958 164.960847 
L 629.241599 165.425425 
L 629.88724 160.155538 
L 630.532881 164.998321 
L 632.469804 164.477409 
L 633.115445 169.602786 
L 633.761086 141.233112 
L 634.406727 128.753548 
L 636.989292 130.313777 
L 637.634933 130.274076 
L 638.280574 128.829559 
L 638.926215 129.097871 
L 641.508779 127.685093 
L 642.15442 126.871136 
L 642.800061 128.000088 
L 643.445702 130.985309 
L 644.091343 137.155996 
L 646.028267 137.319875 
L 646.673908 137.094451 
L 647.319549 136.319315 
L 647.96519 136.165445 
L 648.610831 136.353586 
L 651.193395 136.918051 
L 651.839036 136.64461 
L 652.484677 134.578188 
L 653.130318 135.509347 
L 655.067242 135.812332 
L 656.358524 142.449128 
L 657.004165 138.334134 
L 657.649806 140.636736 
L 659.586729 140.29652 
L 660.23237 141.087253 
L 660.878011 139.919664 
L 661.523652 140.038769 
L 662.169293 139.778742 
L 664.751858 138.884088 
L 666.04314 138.198979 
L 666.688781 135.988402 
L 668.625704 137.219846 
L 669.271345 137.892898 
L 669.916986 137.53109 
L 670.562627 137.307158 
L 671.208268 136.436073 
L 673.145192 136.237432 
L 673.790833 136.620976 
L 674.436474 136.13328 
L 675.082115 135.311218 
L 675.727756 134.305654 
L 677.664679 134.101579 
L 678.31032 133.708086 
L 678.955961 133.546568 
L 680.247243 134.050127 
L 682.184167 133.132748 
L 682.829808 132.965075 
L 683.475449 134.477314 
L 684.12109 135.151858 
L 684.766731 133.713423 
L 686.703654 139.309269 
L 687.349295 140.492629 
L 687.994936 138.557659 
L 688.640577 137.81813 
L 691.223142 138.128983 
L 691.868783 138.029932 
L 692.514424 137.261213 
L 693.160065 137.237186 
L 693.805706 137.594584 
L 695.742629 137.517146 
L 696.38827 137.208229 
L 697.679552 138.90659 
L 698.325193 137.512294 
L 700.262117 138.009737 
L 700.907758 138.020215 
L 701.553399 137.389935 
L 702.19904 137.081264 
L 702.844681 136.296717 
L 704.781604 136.029825 
L 706.072886 136.497008 
L 706.718527 135.451924 
L 707.364168 135.021583 
L 709.301092 134.89926 
L 709.946733 134.010142 
L 710.592374 133.678802 
L 711.238015 134.981755 
L 711.883656 135.848519 
L 713.820579 135.746644 
L 714.46622 136.069231 
L 715.111861 135.712889 
L 715.757502 136.255093 
L 716.403143 136.097743 
L 718.340067 136.112325 
L 718.985708 135.45468 
L 719.631349 134.53341 
L 720.27699 134.483469 
L 720.922631 132.140786 
L 722.859554 131.796211 
L 723.505195 130.613944 
L 724.150836 130.862901 
L 724.796477 130.752972 
L 725.442118 129.998887 
L 728.670324 129.508246 
L 729.315965 129.655666 
L 729.961606 128.94885 
L 731.898529 129.669246 
L 732.54417 130.041485 
L 733.189811 131.22869 
L 733.835452 130.90605 
L 734.481093 131.667239 
L 736.418017 131.746447 
L 737.063658 131.520716 
L 738.35494 132.374032 
L 739.000581 134.157834 
L 741.583145 133.996865 
L 742.228786 133.396377 
L 742.874427 135.198042 
L 743.520068 132.885926 
L 745.456992 132.531811 
L 746.102633 134.037589 
L 746.748274 137.098468 
L 747.393915 138.862629 
L 748.039556 138.827728 
L 749.976479 139.098515 
L 750.62212 138.067763 
L 751.267761 139.128866 
L 751.913402 139.895355 
L 752.559043 135.924581 
L 754.495967 135.256271 
L 755.141608 133.808265 
L 755.787249 134.946658 
L 756.43289 133.756309 
L 757.078531 130.361105 
L 759.015454 130.630284 
L 759.661095 130.84956 
L 760.952377 127.513352 
L 761.598018 127.391961 
L 764.180583 127.403454 
L 764.826224 127.882085 
L 765.471865 127.423909 
L 766.117506 124.25621 
L 768.054429 123.699687 
L 768.70007 124.574629 
L 769.345711 120.514459 
L 769.991352 125.277571 
L 770.636993 121.349198 
L 772.573917 121.477952 
L 773.219558 120.588179 
L 774.51084 123.213557 
L 775.156481 125.144895 
L 777.739045 124.301665 
L 778.384686 122.912684 
L 779.030327 126.177522 
L 779.675968 126.410168 
L 781.612892 126.33979 
L 782.258533 125.242772 
L 782.904174 127.478845 
L 784.195456 130.200064 
L 786.132379 130.072407 
L 786.77802 127.700211 
L 787.423661 127.728544 
L 788.069302 127.462149 
L 788.714943 126.442915 
L 790.651867 126.396717 
L 791.943149 127.08036 
L 792.58879 126.004208 
L 793.234431 124.062808 
L 795.171354 122.991868 
L 795.816995 120.937228 
L 796.462636 123.006576 
L 797.108277 121.823017 
L 797.753918 116.193938 
L 799.690842 116.022975 
L 800.982124 115.082631 
L 802.273406 114.102823 
L 804.85597 113.238745 
L 805.501611 116.666403 
L 806.792893 118.27429 
L 808.729817 117.982068 
L 809.375458 117.304994 
L 810.021099 116.948971 
L 811.312381 115.754123 
L 813.249304 115.853521 
L 814.540586 117.531746 
L 815.186227 115.085784 
L 815.831869 116.350982 
L 818.414433 115.101986 
L 819.060074 113.736654 
L 819.705715 114.446828 
L 820.351356 112.751897 
L 822.288279 112.058753 
L 822.93392 111.312625 
L 823.579561 111.650854 
L 824.225202 110.900856 
L 824.870844 108.595624 
L 826.807767 108.184634 
L 827.453408 109.559384 
L 828.099049 112.52135 
L 828.74469 129.395229 
L 829.390331 81.768548 
L 831.327254 81.207178 
L 831.972895 80.657222 
L 832.618536 79.053798 
L 833.264177 79.447052 
L 833.909819 72.703575 
L 836.492383 73.24954 
L 837.138024 73.03302 
L 837.783665 72.181767 
L 838.429306 71.086986 
L 840.366229 70.226107 
L 841.01187 69.453214 
L 841.657511 66.665534 
L 842.948794 62.649923 
L 844.885717 61.697782 
L 845.531358 59.429703 
L 846.176999 59.078254 
L 847.468281 53.453014 
L 850.050845 52.886824 
L 850.696486 53.476171 
L 851.342127 51.147632 
L 851.987769 51.659629 
L 853.924692 51.659054 
L 854.570333 51.000993 
L 855.215974 48.805948 
L 856.507256 47.680748 
L 858.444179 46.330393 
L 859.08982 46.422298 
L 859.735461 46.323793 
L 860.381102 44.432612 
L 861.026744 47.844076 
L 862.963667 47.187187 
L 863.609308 41.679474 
L 863.609308 41.679474 
" clip-path="url(#p2387087b2c)" style="fill: none; stroke: #1f77b4; stroke-width: 2.8; stroke-linecap: square"/>
   </g>
   <g id="line2d_20">
    <path d="M 99.815919 382.328334 
L 100.46156 380.312175 
L 101.107202 383.315838 
L 101.752843 377.349642 
L 103.689766 377.500472 
L 104.335407 375.635165 
L 104.981048 372.247494 
L 106.27233 370.203785 
L 108.854894 370.704457 
L 109.500536 375.011147 
L 110.146177 376.965569 
L 110.791818 372.00052 
L 112.728741 368.743137 
L 113.374382 369.038009 
L 114.020023 368.935119 
L 114.665664 365.917768 
L 115.311305 365.279953 
L 117.248228 368.770557 
L 117.893869 364.731318 
L 118.539511 361.768763 
L 119.185152 357.667829 
L 119.830793 360.705855 
L 121.767716 362.433975 
L 122.413357 358.758245 
L 123.058998 361.871652 
L 123.704639 364.313014 
L 124.35028 363.661533 
L 126.287203 360.376687 
L 126.932844 360.50693 
L 127.578486 359.587976 
L 128.224127 363.496927 
L 128.869768 364.196415 
L 131.452332 369.799212 
L 132.097973 370.176387 
L 132.743614 368.722507 
L 133.389255 371.657686 
L 135.326178 370.731877 
L 136.617461 372.782376 
L 137.263102 370.677015 
L 137.908743 366.301732 
L 139.845666 366.109772 
L 140.491307 370.361535 
L 141.136948 369.915834 
L 141.782589 374.963163 
L 142.42823 378.837752 
L 144.365153 379.214948 
L 145.010794 374.846542 
L 145.656436 376.5267 
L 146.302077 371.842835 
L 146.947718 375.01905 
L 148.884641 372.437599 
L 149.530282 368.878599 
L 150.175923 373.559713 
L 150.821564 372.829946 
L 151.467205 371.05395 
L 153.404128 370.544479 
L 154.049769 371.157145 
L 154.695411 367.198964 
L 155.341052 365.581221 
L 155.986693 361.664214 
L 157.923616 360.590347 
L 158.569257 362.159865 
L 159.214898 362.896444 
L 159.860539 361.80188 
L 163.088744 361.437062 
L 163.734386 362.586705 
L 164.380027 358.855567 
L 165.025668 359.550907 
L 166.962591 358.532032 
L 167.608232 358.346163 
L 168.253873 358.394387 
L 168.899514 359.950131 
L 169.545155 359.729856 
L 171.482078 359.433805 
L 172.12772 363.942826 
L 172.773361 365.126874 
L 173.419002 359.585269 
L 174.064643 357.162158 
L 176.001566 357.451288 
L 176.647207 360.666057 
L 177.938489 364.596795 
L 178.58413 359.433805 
L 180.521053 359.358161 
L 181.166695 360.6041 
L 181.812336 359.282407 
L 183.103618 360.149775 
L 185.040541 359.172248 
L 185.686182 361.072223 
L 186.331823 357.64399 
L 186.977464 354.890423 
L 187.623105 355.310364 
L 189.560028 355.193328 
L 190.20567 358.428815 
L 190.851311 360.493963 
L 191.496952 358.043301 
L 192.142593 354.346569 
L 194.725157 354.236497 
L 195.370798 355.840399 
L 196.016439 353.107484 
L 196.66208 348.908246 
L 198.599003 349.472774 
L 199.244645 348.83258 
L 199.890286 349.851389 
L 200.535927 348.075328 
L 201.181568 347.545271 
L 203.118491 344.86058 
L 203.764132 342.891707 
L 204.409773 342.53381 
L 205.055414 338.80265 
L 205.701055 339.840518 
L 208.28362 341.415887 
L 208.929261 342.963597 
L 209.574902 341.878814 
L 210.220543 344.158932 
L 212.157466 345.381883 
L 212.803107 342.113716 
L 213.448748 341.961684 
L 214.094389 340.773292 
L 214.74003 337.201018 
L 216.676953 336.848644 
L 217.968236 337.304737 
L 218.613877 339.702284 
L 219.259518 340.469229 
L 221.196441 339.702284 
L 221.842082 337.767642 
L 223.133364 332.861887 
L 223.779005 333.055353 
L 225.715929 331.977447 
L 226.36157 329.662749 
L 227.007211 328.964877 
L 227.652852 331.051637 
L 228.298493 331.051637 
L 230.235416 329.655828 
L 230.881057 328.799092 
L 231.526698 328.750715 
L 232.172339 330.837388 
L 232.81798 327.776462 
L 234.754904 327.175367 
L 235.400545 328.080524 
L 236.046186 332.468012 
L 236.691827 333.359393 
L 237.337468 334.761992 
L 239.274391 332.067303 
L 239.920032 333.421568 
L 240.565673 335.494444 
L 241.211314 335.383848 
L 241.856955 335.563496 
L 243.793879 333.863777 
L 244.43952 337.470522 
L 245.730802 342.030801 
L 246.376443 341.885734 
L 248.313366 339.92341 
L 248.959007 340.745675 
L 249.604648 337.373789 
L 250.250289 341.616231 
L 250.89593 339.4881 
L 252.832854 337.560313 
L 253.478495 333.138245 
L 254.124136 331.86004 
L 254.769777 332.316024 
L 255.415418 331.735625 
L 257.997982 333.082991 
L 258.643623 335.169664 
L 259.289264 336.116301 
L 259.934905 335.653374 
L 261.871829 333.628832 
L 262.51747 335.328572 
L 263.163111 334.969299 
L 263.808752 332.309147 
L 264.454393 336.058296 
L 266.391316 335.878015 
L 267.036957 336.515895 
L 267.682598 339.338012 
L 268.328239 344.365038 
L 268.97388 345.03763 
L 270.910804 343.782653 
L 271.556445 348.18564 
L 272.202086 348.06773 
L 272.847727 346.355088 
L 273.493368 347.076231 
L 275.430291 347.194075 
L 276.075932 351.160268 
L 276.721573 349.031548 
L 277.367214 349.142493 
L 278.012855 345.647807 
L 279.949779 343.740999 
L 280.59542 342.180911 
L 281.241061 340.946673 
L 281.886702 342.791066 
L 282.532343 344.288805 
L 284.469266 341.140773 
L 285.114907 341.154679 
L 285.760548 345.183286 
L 286.406189 347.804274 
L 287.05183 351.437652 
L 288.988754 351.943826 
L 289.634395 349.745749 
L 290.280036 353.961579 
L 290.925677 357.428518 
L 291.571318 358.725149 
L 293.508241 355.320559 
L 294.153882 353.510856 
L 294.799523 350.418341 
L 295.445164 344.801877 
L 296.090805 342.076843 
L 298.027729 341.383512 
L 298.67337 340.523698 
L 299.319011 340.301807 
L 299.964652 342.666302 
L 300.610293 337.972024 
L 302.547216 338.263293 
L 303.192857 332.341719 
L 303.838498 331.683012 
L 305.12978 330.913316 
L 307.066704 328.507277 
L 307.712345 329.193731 
L 308.357986 327.980342 
L 309.649268 327.786155 
L 311.586191 328.354722 
L 312.231832 328.042713 
L 312.877473 328.264603 
L 313.523114 327.023423 
L 314.168755 325.151305 
L 316.105679 326.822338 
L 316.75132 326.884753 
L 317.396961 328.160557 
L 318.042602 325.754561 
L 318.688243 324.388551 
L 320.625166 323.147415 
L 321.270807 321.684301 
L 321.916448 317.246668 
L 322.562089 316.199631 
L 323.20773 316.738507 
L 325.144654 314.900533 
L 325.790295 312.902471 
L 326.435936 317.483469 
L 327.081577 314.392285 
L 327.727218 313.730958 
L 330.309782 312.338533 
L 330.955423 311.739796 
L 331.601064 311.614464 
L 332.246705 312.575225 
L 334.82927 314.427127 
L 335.474911 317.114437 
L 336.120552 318.165731 
L 336.766193 317.720139 
L 338.703116 313.069522 
L 339.348757 313.570806 
L 339.994398 311.704997 
L 340.640039 311.851221 
L 341.28568 311.621471 
L 343.868245 312.839795 
L 344.513886 314.677769 
L 345.159527 311.753724 
L 345.805168 307.618319 
L 347.742091 306.908157 
L 348.387732 305.926503 
L 349.033373 305.557537 
L 349.679014 303.719585 
L 350.324655 304.151228 
L 352.261579 301.463896 
L 352.90722 301.728422 
L 353.552861 307.305001 
L 354.198502 302.905048 
L 354.844143 299.319632 
L 356.781066 300.572798 
L 357.426707 299.577173 
L 358.072348 296.708796 
L 358.717989 296.555674 
L 359.36363 294.550626 
L 361.300554 294.703793 
L 361.946195 299.507532 
L 362.591836 296.381615 
L 363.237477 293.98671 
L 363.883118 295.727209 
L 366.465682 297.641723 
L 367.111323 297.328448 
L 367.756964 290.16458 
L 368.402605 289.92088 
L 370.339529 291.21583 
L 370.98517 290.561424 
L 371.630811 291.027844 
L 372.276452 289.760816 
L 372.922093 286.439926 
L 374.859016 286.82282 
L 375.504657 290.387387 
L 376.150298 288.598118 
L 376.795939 285.075401 
L 377.44158 287.226628 
L 379.378504 287.532939 
L 380.024145 283.703846 
L 381.315427 284.977925 
L 381.961068 287.439612 
L 383.897991 285.323576 
L 384.543632 283.333242 
L 385.189273 280.002049 
L 385.834914 278.800863 
L 386.480555 279.492229 
L 388.417479 280.497875 
L 389.06312 281.168305 
L 389.708761 278.123468 
L 390.354402 278.193328 
L 392.936966 278.82885 
L 393.582607 281.147369 
L 394.228248 280.749346 
L 394.873889 285.176915 
L 395.51953 281.433726 
L 397.456454 281.231222 
L 398.102095 280.812176 
L 398.747736 284.443633 
L 399.393377 281.733946 
L 400.039018 286.727266 
L 401.975941 291.196794 
L 402.621582 291.839302 
L 403.267223 293.920431 
L 403.912864 294.639719 
L 404.558506 297.684577 
L 406.495429 294.500044 
L 407.14107 290.358789 
L 407.786711 290.526364 
L 408.432352 291.867246 
L 409.077993 288.536052 
L 411.014916 287.278979 
L 411.660557 292.921771 
L 412.306198 294.060084 
L 412.951839 290.791763 
L 413.597481 286.419994 
L 415.534404 282.73265 
L 416.180045 282.334583 
L 416.825686 282.299719 
L 417.471327 280.218547 
L 418.116968 279.750599 
L 420.053891 279.701763 
L 420.699532 278.032739 
L 421.345173 273.507214 
L 421.990814 274.268505 
L 422.636456 273.73775 
L 424.573379 273.311783 
L 425.21902 272.403919 
L 425.864661 273.472372 
L 426.510302 276.175007 
L 427.155943 273.744648 
L 429.738507 273.486387 
L 431.029789 278.514506 
L 431.675431 275.190298 
L 433.612354 274.890078 
L 434.257995 274.477996 
L 434.903636 270.092277 
L 435.549277 270.099306 
L 436.194918 270.553217 
L 438.131841 269.400976 
L 438.777482 268.50001 
L 439.423123 265.420266 
L 440.068764 264.659019 
L 440.714406 264.428527 
L 443.29697 260.440918 
L 445.233893 261.993584 
L 447.170816 263.23376 
L 447.816457 261.769423 
L 449.107739 260.690491 
L 449.753381 262.19683 
L 451.690304 261.412136 
L 452.335945 258.840836 
L 452.981586 257.124264 
L 454.272868 254.896366 
L 456.209791 254.447957 
L 456.855432 254.069713 
L 457.501073 250.216234 
L 458.146715 253.607289 
L 458.792356 251.148113 
L 460.729279 250.069137 
L 461.37492 247.736188 
L 462.020561 253.285019 
L 463.311843 258.854852 
L 465.248766 254.889336 
L 465.894407 255.498902 
L 466.540048 264.291603 
L 467.18569 266.267353 
L 467.831331 262.04266 
L 469.768254 261.818455 
L 470.413895 263.752159 
L 471.059536 257.579746 
L 471.705177 263.044572 
L 472.350818 270.127774 
L 474.287741 281.001298 
L 474.933382 277.659363 
L 475.579023 280.104545 
L 476.224665 271.704104 
L 476.870306 270.064726 
L 478.807229 269.868553 
L 479.45287 263.724215 
L 480.098511 262.526086 
L 480.744152 255.996343 
L 481.389793 255.127556 
L 483.326716 251.414364 
L 483.972357 252.051916 
L 484.617998 250.70669 
L 485.26364 253.789403 
L 485.909281 249.648715 
L 487.846204 250.587623 
L 488.491845 250.048135 
L 489.137486 252.332139 
L 489.783127 252.297166 
L 490.428768 248.562841 
L 493.011332 256.689958 
L 494.302615 258.420502 
L 494.948256 264.901212 
L 497.53082 258.994963 
L 498.822102 251.778636 
L 499.467743 249.732852 
L 502.050307 248.990248 
L 502.695948 250.160172 
L 503.34159 243.448359 
L 503.987231 244.139878 
L 505.924154 243.141939 
L 506.569795 241.996379 
L 507.215436 242.881932 
L 507.861077 241.293682 
L 508.506718 241.876963 
L 510.443641 240.267669 
L 511.089282 243.879827 
L 511.734923 243.711161 
L 512.380565 244.44202 
L 513.026206 240.815758 
L 514.963129 244.456079 
L 515.60877 240.682239 
L 516.254411 237.89228 
L 516.900052 238.60205 
L 517.545693 236.177542 
L 519.482616 232.846392 
L 520.128257 236.03695 
L 520.773899 234.266062 
L 521.41954 234.230827 
L 522.065181 232.65668 
L 524.647745 233.549132 
L 525.293386 237.294984 
L 525.939027 236.41646 
L 526.584668 236.557008 
L 528.521591 235.299062 
L 529.167232 234.638455 
L 529.812874 235.875313 
L 530.458515 243.865768 
L 531.104156 242.179148 
L 533.041079 243.043525 
L 533.68672 238.201538 
L 534.332361 228.123864 
L 534.978002 224.912217 
L 535.623643 223.099108 
L 537.560566 222.698509 
L 538.206207 224.005662 
L 538.851849 223.801892 
L 539.49749 226.500423 
L 540.143131 231.841467 
L 542.080054 230.154803 
L 542.725695 228.643922 
L 543.371336 228.503418 
L 544.016977 226.275651 
L 544.662618 224.982469 
L 546.599541 223.562886 
L 547.245182 221.37031 
L 547.890824 222.649302 
L 549.182106 220.035038 
L 551.76467 219.079277 
L 552.410311 216.443925 
L 553.055952 217.146708 
L 553.701593 216.338437 
L 555.638516 218.538086 
L 556.284157 219.859342 
L 556.929799 216.584429 
L 557.57544 218.784034 
L 558.221081 218.868477 
L 560.158004 217.055324 
L 560.803645 218.812196 
L 561.449286 231.468986 
L 562.094927 231.595475 
L 562.740568 226.648262 
L 564.677491 224.152148 
L 565.323132 219.491272 
L 566.614415 219.463066 
L 567.260056 223.926503 
L 569.84262 230.223308 
L 571.133902 231.238756 
L 571.779543 226.084236 
L 573.716466 223.679682 
L 574.362107 228.425219 
L 575.007749 227.818841 
L 576.299031 234.165028 
L 578.235954 233.530313 
L 578.881595 232.966287 
L 579.527236 225.498947 
L 580.172877 226.302808 
L 580.818518 222.114267 
L 583.401083 218.257296 
L 584.692365 213.532891 
L 585.338006 214.788086 
L 587.274929 220.852173 
L 587.92057 217.220716 
L 588.566211 219.131584 
L 589.211852 216.854129 
L 589.857493 219.124598 
L 591.794416 221.980356 
L 592.440058 219.15276 
L 593.73134 215.951504 
L 594.376981 219.864931 
L 596.313904 216.988041 
L 596.959545 216.663676 
L 597.605186 218.038636 
L 598.250827 213.546993 
L 598.896468 213.568213 
L 601.479033 212.305988 
L 602.124674 211.290584 
L 602.770315 213.088629 
L 603.415956 220.450177 
L 605.352879 222.375235 
L 605.99852 224.469484 
L 606.644161 224.257942 
L 607.289802 230.949626 
L 607.935443 224.511792 
L 609.872366 231.852164 
L 610.518008 236.724627 
L 611.163649 232.35288 
L 611.80929 239.650899 
L 612.454931 237.38746 
L 615.037495 251.49003 
L 615.683136 249.409884 
L 616.328777 254.663167 
L 616.974418 246.63167 
L 618.911341 243.571486 
L 619.556983 247.893895 
L 620.202624 243.585589 
L 620.848265 244.741934 
L 621.493906 244.610424 
L 623.430829 237.467143 
L 624.07647 236.491122 
L 624.722111 241.349963 
L 625.367752 242.417936 
L 626.013393 250.494754 
L 627.950316 247.856651 
L 628.595958 246.739209 
L 629.241599 244.228469 
L 630.532881 286.125996 
L 632.469804 286.762523 
L 633.115445 292.34982 
L 633.761086 255.473753 
L 634.406727 272.476048 
L 635.052368 265.856231 
L 636.989292 262.192682 
L 637.634933 263.260612 
L 638.280574 271.712269 
L 638.926215 271.181819 
L 641.508779 280.043637 
L 642.15442 270.58771 
L 642.800061 264.809522 
L 643.445702 256.838758 
L 644.091343 254.045088 
L 646.028267 253.896593 
L 646.673908 251.442438 
L 647.319549 251.286827 
L 647.96519 248.50739 
L 648.610831 242.644192 
L 650.547754 244.942823 
L 651.193395 248.273973 
L 651.839036 246.611891 
L 652.484677 243.846601 
L 653.130318 244.355743 
L 655.067242 231.165535 
L 655.712883 228.442597 
L 656.358524 227.912191 
L 657.004165 225.882387 
L 657.649806 223.237254 
L 659.586729 222.777581 
L 660.23237 224.192099 
L 660.878011 231.257531 
L 661.523652 231.094802 
L 662.169293 233.909693 
L 664.751858 225.394333 
L 665.397499 227.813165 
L 666.04314 226.17239 
L 666.688781 226.639093 
L 668.625704 224.291037 
L 669.271345 221.900585 
L 669.916986 222.013757 
L 670.562627 224.050634 
L 671.208268 219.743463 
L 673.145192 219.361552 
L 673.790833 216.95691 
L 674.436474 218.173334 
L 675.082115 216.483046 
L 675.727756 221.25692 
L 677.664679 217.239796 
L 678.31032 220.882125 
L 678.955961 220.945784 
L 680.247243 221.938091 
L 682.184167 217.774306 
L 682.829808 213.071383 
L 683.475449 212.830194 
L 684.12109 209.46084 
L 684.766731 207.30446 
L 686.703654 205.218987 
L 687.349295 205.360801 
L 687.994936 203.374616 
L 688.640577 199.905931 
L 691.223142 203.211582 
L 691.868783 203.452684 
L 692.514424 200.81397 
L 693.160065 199.565542 
L 693.805706 201.126022 
L 695.742629 200.281948 
L 696.38827 202.175875 
L 697.033911 200.700492 
L 697.679552 197.990784 
L 698.325193 198.31707 
L 700.262117 197.472952 
L 700.907758 197.409118 
L 701.553399 193.614147 
L 702.19904 193.465172 
L 702.844681 191.564127 
L 704.781604 191.677605 
L 705.427245 192.869316 
L 706.072886 193.436791 
L 706.718527 195.125027 
L 707.364168 202.473869 
L 709.301092 195.770526 
L 709.946733 198.040427 
L 710.592374 194.628503 
L 711.238015 195.004433 
L 711.883656 191.50741 
L 713.820579 192.401172 
L 714.46622 187.598918 
L 715.111861 186.03835 
L 715.757502 185.995823 
L 716.403143 187.066939 
L 718.340067 187.166183 
L 718.985708 189.64182 
L 719.631349 190.847721 
L 720.27699 192.663581 
L 720.922631 185.7404 
L 722.859554 187.754966 
L 723.505195 185.846848 
L 724.150836 184.804112 
L 724.796477 183.179754 
L 725.442118 185.924872 
L 728.024683 189.31549 
L 728.670324 186.854131 
L 729.315965 183.037852 
L 729.961606 184.371421 
L 731.898529 183.243544 
L 732.54417 182.179544 
L 733.189811 180.846019 
L 733.835452 177.001316 
L 734.481093 177.157451 
L 736.418017 174.674742 
L 737.709299 175.901863 
L 739.000581 171.390397 
L 740.937504 169.15691 
L 741.583145 171.738908 
L 742.228786 173.239833 
L 742.874427 175.409311 
L 743.520068 172.727634 
L 745.456992 171.404631 
L 746.748274 168.011656 
L 747.393915 167.464047 
L 748.039556 167.471076 
L 749.976479 165.763979 
L 750.62212 167.535128 
L 751.267761 164.69701 
L 751.913402 166.084065 
L 752.559043 178.987196 
L 754.495967 171.859895 
L 755.141608 172.436059 
L 755.787249 170.344779 
L 756.43289 173.566993 
L 757.078531 170.899593 
L 759.015454 165.984472 
L 759.661095 165.991632 
L 760.306736 168.474036 
L 760.952377 165.657269 
L 761.598018 161.752181 
L 763.534942 156.068827 
L 764.180583 154.774248 
L 764.826224 154.539521 
L 765.471865 159.917023 
L 766.117506 158.330782 
L 768.054429 157.420298 
L 768.70007 163.181894 
L 769.345711 161.517454 
L 769.991352 166.688653 
L 770.636993 166.219242 
L 772.573917 158.771768 
L 773.219558 157.662185 
L 773.865199 157.391874 
L 774.51084 165.458126 
L 775.156481 165.536325 
L 777.093404 169.989152 
L 777.739045 173.965321 
L 778.384686 172.15147 
L 779.030327 179.335706 
L 779.675968 174.712204 
L 781.612892 167.812557 
L 782.258533 163.338422 
L 782.904174 160.023689 
L 784.195456 157.384757 
L 786.132379 159.60401 
L 786.77802 158.70776 
L 787.423661 157.029086 
L 788.069302 156.673459 
L 788.714943 155.748741 
L 791.297508 157.633761 
L 791.943149 154.411461 
L 792.58879 153.27341 
L 793.234431 158.544202 
L 795.171354 159.27685 
L 795.816995 160.599853 
L 796.462636 165.913346 
L 797.108277 162.307038 
L 797.753918 157.945901 
L 799.690842 154.92104 
L 800.336483 152.688077 
L 800.982124 150.961637 
L 802.273406 151.011587 
L 804.85597 153.365799 
L 805.501611 156.997082 
L 806.792893 156.105329 
L 808.729817 152.85932 
L 809.375458 149.941474 
L 810.021099 151.532343 
L 810.66674 151.582293 
L 811.312381 148.329167 
L 813.249304 147.551546 
L 813.894945 148.543154 
L 814.540586 150.975915 
L 815.186227 149.634705 
L 815.831869 150.04849 
L 818.414433 160.093287 
L 819.060074 154.514416 
L 819.705715 151.960406 
L 820.351356 151.78209 
L 822.288279 149.285147 
L 822.93392 147.316121 
L 823.579561 147.36607 
L 824.225202 148.350561 
L 824.870844 149.827342 
L 826.807767 147.373187 
L 827.453408 151.568015 
L 828.099049 153.950826 
L 828.74469 160.064732 
L 829.390331 150.790438 
L 831.327254 148.414744 
L 831.972895 149.720326 
L 832.618536 149.834415 
L 833.264177 157.460772 
L 833.909819 157.118375 
L 836.492383 156.333637 
L 837.138024 153.879483 
L 837.783665 155.170787 
L 838.429306 151.639359 
L 840.366229 156.661757 
L 841.657511 148.985451 
L 842.948794 154.093514 
L 844.885717 153.815256 
L 845.531358 158.131377 
L 846.176999 154.707053 
L 846.82264 157.432261 
L 847.468281 163.80303 
L 849.405204 159.600997 
L 850.696486 160.98504 
L 851.342127 168.311788 
L 851.987769 171.001325 
L 853.924692 166.192914 
L 854.570333 164.937369 
L 855.215974 171.614864 
L 855.861615 172.777714 
L 856.507256 179.525679 
L 858.444179 174.65409 
L 859.08982 176.227887 
L 859.735461 173.623972 
L 861.026744 189.884057 
L 862.963667 191.400657 
L 863.609308 178.259481 
L 863.609308 178.259481 
" clip-path="url(#p2387087b2c)" style="fill: none; stroke-dasharray: 8.14,3.52; stroke-dashoffset: 0; stroke: #ff7f0e; stroke-width: 2.2"/>
   </g>
   <g id="patch_3">
    <path d="M 61.62625 400.397656 
L 61.62625 24.597656 
" style="fill: none; stroke: #000000; stroke-width: 0.8; stroke-linejoin: miter; stroke-linecap: square"/>
   </g>
   <g id="patch_4">
    <path d="M 61.62625 400.397656 
L 901.798977 400.397656 
" style="fill: none; stroke: #000000; stroke-width: 0.8; stroke-linejoin: miter; stroke-linecap: square"/>
   </g>
   <g id="text_20">
    <!-- $23,044 -->
    <g style="fill: #1f77b4" transform="translate(871.609308 44.438849) scale(0.1 -0.1)">
     <defs>
      <path id="DejaVuSans-Bold-24" d="M 2484 -941 
L 1978 -941 
L 1975 0 
Q 1584 16 1218 87 
Q 853 159 506 288 
L 506 1106 
Q 866 922 1233 823 
Q 1600 725 1978 713 
L 1978 1684 
L 1875 1703 
Q 1128 1834 814 2115 
Q 500 2397 500 2925 
Q 500 3484 883 3798 
Q 1266 4113 1975 4141 
L 1978 4863 
L 2484 4863 
L 2484 4153 
Q 2797 4128 3109 4075 
Q 3422 4022 3738 3938 
L 3738 3144 
Q 3425 3275 3112 3348 
Q 2800 3422 2484 3438 
L 2484 2541 
L 2584 2522 
Q 3378 2397 3698 2105 
Q 4019 1813 4019 1241 
Q 4019 666 3637 358 
Q 3256 50 2484 6 
L 2484 -941 
z
M 1978 2613 
L 1978 3428 
Q 1756 3416 1623 3308 
Q 1491 3200 1491 3034 
Q 1491 2850 1612 2745 
Q 1734 2641 1978 2613 
z
M 2484 1594 
L 2484 725 
Q 2756 728 2892 831 
Q 3028 934 3028 1141 
Q 3028 1353 2903 1458 
Q 2778 1563 2484 1594 
z
" transform="scale(0.015625)"/>
      <path id="DejaVuSans-Bold-32" d="M 1844 884 
L 3897 884 
L 3897 0 
L 506 0 
L 506 884 
L 2209 2388 
Q 2438 2594 2547 2791 
Q 2656 2988 2656 3200 
Q 2656 3528 2436 3728 
Q 2216 3928 1850 3928 
Q 1569 3928 1234 3808 
Q 900 3688 519 3450 
L 519 4475 
Q 925 4609 1322 4679 
Q 1719 4750 2100 4750 
Q 2938 4750 3402 4381 
Q 3866 4013 3866 3353 
Q 3866 2972 3669 2642 
Q 3472 2313 2841 1759 
L 1844 884 
z
" transform="scale(0.015625)"/>
      <path id="DejaVuSans-Bold-33" d="M 2981 2516 
Q 3453 2394 3698 2092 
Q 3944 1791 3944 1325 
Q 3944 631 3412 270 
Q 2881 -91 1863 -91 
Q 1503 -91 1142 -33 
Q 781 25 428 141 
L 428 1069 
Q 766 900 1098 814 
Q 1431 728 1753 728 
Q 2231 728 2486 893 
Q 2741 1059 2741 1369 
Q 2741 1688 2480 1852 
Q 2219 2016 1709 2016 
L 1228 2016 
L 1228 2791 
L 1734 2791 
Q 2188 2791 2409 2933 
Q 2631 3075 2631 3366 
Q 2631 3634 2415 3781 
Q 2200 3928 1806 3928 
Q 1516 3928 1219 3862 
Q 922 3797 628 3669 
L 628 4550 
Q 984 4650 1334 4700 
Q 1684 4750 2022 4750 
Q 2931 4750 3382 4451 
Q 3834 4153 3834 3553 
Q 3834 3144 3618 2883 
Q 3403 2622 2981 2516 
z
" transform="scale(0.015625)"/>
      <path id="DejaVuSans-Bold-2c" d="M 653 1209 
L 1778 1209 
L 1778 256 
L 1006 -909 
L 341 -909 
L 653 256 
L 653 1209 
z
" transform="scale(0.015625)"/>
      <path id="DejaVuSans-Bold-30" d="M 2944 2338 
Q 2944 3213 2780 3570 
Q 2616 3928 2228 3928 
Q 1841 3928 1675 3570 
Q 1509 3213 1509 2338 
Q 1509 1453 1675 1090 
Q 1841 728 2228 728 
Q 2613 728 2778 1090 
Q 2944 1453 2944 2338 
z
M 4147 2328 
Q 4147 1169 3647 539 
Q 3147 -91 2228 -91 
Q 1306 -91 806 539 
Q 306 1169 306 2328 
Q 306 3491 806 4120 
Q 1306 4750 2228 4750 
Q 3147 4750 3647 4120 
Q 4147 3491 4147 2328 
z
" transform="scale(0.015625)"/>
      <path id="DejaVuSans-Bold-34" d="M 2356 3675 
L 1038 1722 
L 2356 1722 
L 2356 3675 
z
M 2156 4666 
L 3494 4666 
L 3494 1722 
L 4159 1722 
L 4159 850 
L 3494 850 
L 3494 0 
L 2356 0 
L 2356 850 
L 288 850 
L 288 1881 
L 2156 4666 
z
" transform="scale(0.015625)"/>
     </defs>
     <use xlink:href="#DejaVuSans-Bold-24"/>
     <use xlink:href="#DejaVuSans-Bold-32" transform="translate(69.580078 0)"/>
     <use xlink:href="#DejaVuSans-Bold-33" transform="translate(139.160156 0)"/>
     <use xlink:href="#DejaVuSans-Bold-2c" transform="translate(208.740234 0)"/>
     <use xlink:href="#DejaVuSans-Bold-30" transform="translate(246.728516 0)"/>
     <use xlink:href="#DejaVuSans-Bold-34" transform="translate(316.308594 0)"/>
     <use xlink:href="#DejaVuSans-Bold-34" transform="translate(385.888672 0)"/>
    </g>
   </g>
   <g id="text_21">
    <!-- $17,814 -->
    <g style="fill: #ff7f0e" transform="translate(871.609308 189.018856) scale(0.1 -0.1)">
     <defs>
      <path id="DejaVuSans-Bold-31" d="M 750 831 
L 1813 831 
L 1813 3847 
L 722 3622 
L 722 4441 
L 1806 4666 
L 2950 4666 
L 2950 831 
L 4013 831 
L 4013 0 
L 750 0 
L 750 831 
z
" transform="scale(0.015625)"/>
      <path id="DejaVuSans-Bold-37" d="M 428 4666 
L 3944 4666 
L 3944 3988 
L 2125 0 
L 953 0 
L 2675 3781 
L 428 3781 
L 428 4666 
z
" transform="scale(0.015625)"/>
      <path id="DejaVuSans-Bold-38" d="M 2228 2088 
Q 1891 2088 1709 1903 
Q 1528 1719 1528 1375 
Q 1528 1031 1709 848 
Q 1891 666 2228 666 
Q 2563 666 2741 848 
Q 2919 1031 2919 1375 
Q 2919 1722 2741 1905 
Q 2563 2088 2228 2088 
z
M 1350 2484 
Q 925 2613 709 2878 
Q 494 3144 494 3541 
Q 494 4131 934 4440 
Q 1375 4750 2228 4750 
Q 3075 4750 3515 4442 
Q 3956 4134 3956 3541 
Q 3956 3144 3739 2878 
Q 3522 2613 3097 2484 
Q 3572 2353 3814 2058 
Q 4056 1763 4056 1313 
Q 4056 619 3595 264 
Q 3134 -91 2228 -91 
Q 1319 -91 855 264 
Q 391 619 391 1313 
Q 391 1763 633 2058 
Q 875 2353 1350 2484 
z
M 1631 3419 
Q 1631 3141 1786 2991 
Q 1941 2841 2228 2841 
Q 2509 2841 2662 2991 
Q 2816 3141 2816 3419 
Q 2816 3697 2662 3845 
Q 2509 3994 2228 3994 
Q 1941 3994 1786 3844 
Q 1631 3694 1631 3419 
z
" transform="scale(0.015625)"/>
     </defs>
     <use xlink:href="#DejaVuSans-Bold-24"/>
     <use xlink:href="#DejaVuSans-Bold-31" transform="translate(69.580078 0)"/>
     <use xlink:href="#DejaVuSans-Bold-37" transform="translate(139.160156 0)"/>
     <use xlink:href="#DejaVuSans-Bold-2c" transform="translate(208.740234 0)"/>
     <use xlink:href="#DejaVuSans-Bold-38" transform="translate(246.728516 0)"/>
     <use xlink:href="#DejaVuSans-Bold-31" transform="translate(316.308594 0)"/>
     <use xlink:href="#DejaVuSans-Bold-34" transform="translate(385.888672 0)"/>
    </g>
   </g>
   <g id="text_22">
    <!-- Backtested Cumulative Performance (Normalized to $10,000) -->
    <g transform="translate(250.548551 18.597656) scale(0.15 -0.15)">
     <defs>
      <path id="DejaVuSans-42" d="M 1259 2228 
L 1259 519 
L 2272 519 
Q 2781 519 3026 730 
Q 3272 941 3272 1375 
Q 3272 1813 3026 2020 
Q 2781 2228 2272 2228 
L 1259 2228 
z
M 1259 4147 
L 1259 2741 
L 2194 2741 
Q 2656 2741 2882 2914 
Q 3109 3088 3109 3444 
Q 3109 3797 2882 3972 
Q 2656 4147 2194 4147 
L 1259 4147 
z
M 628 4666 
L 2241 4666 
Q 2963 4666 3353 4366 
Q 3744 4066 3744 3513 
Q 3744 3084 3544 2831 
Q 3344 2578 2956 2516 
Q 3422 2416 3680 2098 
Q 3938 1781 3938 1306 
Q 3938 681 3513 340 
Q 3088 0 2303 0 
L 628 0 
L 628 4666 
z
" transform="scale(0.015625)"/>
      <path id="DejaVuSans-61" d="M 2194 1759 
Q 1497 1759 1228 1600 
Q 959 1441 959 1056 
Q 959 750 1161 570 
Q 1363 391 1709 391 
Q 2188 391 2477 730 
Q 2766 1069 2766 1631 
L 2766 1759 
L 2194 1759 
z
M 3341 1997 
L 3341 0 
L 2766 0 
L 2766 531 
Q 2569 213 2275 61 
Q 1981 -91 1556 -91 
Q 1019 -91 701 211 
Q 384 513 384 1019 
Q 384 1609 779 1909 
Q 1175 2209 1959 2209 
L 2766 2209 
L 2766 2266 
Q 2766 2663 2505 2880 
Q 2244 3097 1772 3097 
Q 1472 3097 1187 3025 
Q 903 2953 641 2809 
L 641 3341 
Q 956 3463 1253 3523 
Q 1550 3584 1831 3584 
Q 2591 3584 2966 3190 
Q 3341 2797 3341 1997 
z
" transform="scale(0.015625)"/>
      <path id="DejaVuSans-63" d="M 3122 3366 
L 3122 2828 
Q 2878 2963 2633 3030 
Q 2388 3097 2138 3097 
Q 1578 3097 1268 2742 
Q 959 2388 959 1747 
Q 959 1106 1268 751 
Q 1578 397 2138 397 
Q 2388 397 2633 464 
Q 2878 531 3122 666 
L 3122 134 
Q 2881 22 2623 -34 
Q 2366 -91 2075 -91 
Q 1284 -91 818 406 
Q 353 903 353 1747 
Q 353 2603 823 3093 
Q 1294 3584 2113 3584 
Q 2378 3584 2631 3529 
Q 2884 3475 3122 3366 
z
" transform="scale(0.015625)"/>
      <path id="DejaVuSans-6b" d="M 581 4863 
L 1159 4863 
L 1159 1991 
L 2875 3500 
L 3609 3500 
L 1753 1863 
L 3688 0 
L 2938 0 
L 1159 1709 
L 1159 0 
L 581 0 
L 581 4863 
z
" transform="scale(0.015625)"/>
      <path id="DejaVuSans-65" d="M 3597 1894 
L 3597 1613 
L 953 1613 
Q 991 1019 1311 708 
Q 1631 397 2203 397 
Q 2534 397 2845 478 
Q 3156 559 3463 722 
L 3463 178 
Q 3153 47 2828 -22 
Q 2503 -91 2169 -91 
Q 1331 -91 842 396 
Q 353 884 353 1716 
Q 353 2575 817 3079 
Q 1281 3584 2069 3584 
Q 2775 3584 3186 3129 
Q 3597 2675 3597 1894 
z
M 3022 2063 
Q 3016 2534 2758 2815 
Q 2500 3097 2075 3097 
Q 1594 3097 1305 2825 
Q 1016 2553 972 2059 
L 3022 2063 
z
" transform="scale(0.015625)"/>
      <path id="DejaVuSans-73" d="M 2834 3397 
L 2834 2853 
Q 2591 2978 2328 3040 
Q 2066 3103 1784 3103 
Q 1356 3103 1142 2972 
Q 928 2841 928 2578 
Q 928 2378 1081 2264 
Q 1234 2150 1697 2047 
L 1894 2003 
Q 2506 1872 2764 1633 
Q 3022 1394 3022 966 
Q 3022 478 2636 193 
Q 2250 -91 1575 -91 
Q 1294 -91 989 -36 
Q 684 19 347 128 
L 347 722 
Q 666 556 975 473 
Q 1284 391 1588 391 
Q 1994 391 2212 530 
Q 2431 669 2431 922 
Q 2431 1156 2273 1281 
Q 2116 1406 1581 1522 
L 1381 1569 
Q 847 1681 609 1914 
Q 372 2147 372 2553 
Q 372 3047 722 3315 
Q 1072 3584 1716 3584 
Q 2034 3584 2315 3537 
Q 2597 3491 2834 3397 
z
" transform="scale(0.015625)"/>
      <path id="DejaVuSans-64" d="M 2906 2969 
L 2906 4863 
L 3481 4863 
L 3481 0 
L 2906 0 
L 2906 525 
Q 2725 213 2448 61 
Q 2172 -91 1784 -91 
Q 1150 -91 751 415 
Q 353 922 353 1747 
Q 353 2572 751 3078 
Q 1150 3584 1784 3584 
Q 2172 3584 2448 3432 
Q 2725 3281 2906 2969 
z
M 947 1747 
Q 947 1113 1208 752 
Q 1469 391 1925 391 
Q 2381 391 2643 752 
Q 2906 1113 2906 1747 
Q 2906 2381 2643 2742 
Q 2381 3103 1925 3103 
Q 1469 3103 1208 2742 
Q 947 2381 947 1747 
z
" transform="scale(0.015625)"/>
      <path id="DejaVuSans-43" d="M 4122 4306 
L 4122 3641 
Q 3803 3938 3442 4084 
Q 3081 4231 2675 4231 
Q 1875 4231 1450 3742 
Q 1025 3253 1025 2328 
Q 1025 1406 1450 917 
Q 1875 428 2675 428 
Q 3081 428 3442 575 
Q 3803 722 4122 1019 
L 4122 359 
Q 3791 134 3420 21 
Q 3050 -91 2638 -91 
Q 1578 -91 968 557 
Q 359 1206 359 2328 
Q 359 3453 968 4101 
Q 1578 4750 2638 4750 
Q 3056 4750 3426 4639 
Q 3797 4528 4122 4306 
z
" transform="scale(0.015625)"/>
      <path id="DejaVuSans-75" d="M 544 1381 
L 544 3500 
L 1119 3500 
L 1119 1403 
Q 1119 906 1312 657 
Q 1506 409 1894 409 
Q 2359 409 2629 706 
Q 2900 1003 2900 1516 
L 2900 3500 
L 3475 3500 
L 3475 0 
L 2900 0 
L 2900 538 
Q 2691 219 2414 64 
Q 2138 -91 1772 -91 
Q 1169 -91 856 284 
Q 544 659 544 1381 
z
M 1991 3584 
L 1991 3584 
z
" transform="scale(0.015625)"/>
      <path id="DejaVuSans-6d" d="M 3328 2828 
Q 3544 3216 3844 3400 
Q 4144 3584 4550 3584 
Q 5097 3584 5394 3201 
Q 5691 2819 5691 2113 
L 5691 0 
L 5113 0 
L 5113 2094 
Q 5113 2597 4934 2840 
Q 4756 3084 4391 3084 
Q 3944 3084 3684 2787 
Q 3425 2491 3425 1978 
L 3425 0 
L 2847 0 
L 2847 2094 
Q 2847 2600 2669 2842 
Q 2491 3084 2119 3084 
Q 1678 3084 1418 2786 
Q 1159 2488 1159 1978 
L 1159 0 
L 581 0 
L 581 3500 
L 1159 3500 
L 1159 2956 
Q 1356 3278 1631 3431 
Q 1906 3584 2284 3584 
Q 2666 3584 2933 3390 
Q 3200 3197 3328 2828 
z
" transform="scale(0.015625)"/>
      <path id="DejaVuSans-6c" d="M 603 4863 
L 1178 4863 
L 1178 0 
L 603 0 
L 603 4863 
z
" transform="scale(0.015625)"/>
      <path id="DejaVuSans-69" d="M 603 3500 
L 1178 3500 
L 1178 0 
L 603 0 
L 603 3500 
z
M 603 4863 
L 1178 4863 
L 1178 4134 
L 603 4134 
L 603 4863 
z
" transform="scale(0.015625)"/>
      <path id="DejaVuSans-76" d="M 191 3500 
L 800 3500 
L 1894 563 
L 2988 3500 
L 3597 3500 
L 2284 0 
L 1503 0 
L 191 3500 
z
" transform="scale(0.015625)"/>
      <path id="DejaVuSans-50" d="M 1259 4147 
L 1259 2394 
L 2053 2394 
Q 2494 2394 2734 2622 
Q 2975 2850 2975 3272 
Q 2975 3691 2734 3919 
Q 2494 4147 2053 4147 
L 1259 4147 
z
M 628 4666 
L 2053 4666 
Q 2838 4666 3239 4311 
Q 3641 3956 3641 3272 
Q 3641 2581 3239 2228 
Q 2838 1875 2053 1875 
L 1259 1875 
L 1259 0 
L 628 0 
L 628 4666 
z
" transform="scale(0.015625)"/>
      <path id="DejaVuSans-6e" d="M 3513 2113 
L 3513 0 
L 2938 0 
L 2938 2094 
Q 2938 2591 2744 2837 
Q 2550 3084 2163 3084 
Q 1697 3084 1428 2787 
Q 1159 2491 1159 1978 
L 1159 0 
L 581 0 
L 581 3500 
L 1159 3500 
L 1159 2956 
Q 1366 3272 1645 3428 
Q 1925 3584 2291 3584 
Q 2894 3584 3203 3211 
Q 3513 2838 3513 2113 
z
" transform="scale(0.015625)"/>
      <path id="DejaVuSans-28" d="M 1984 4856 
Q 1566 4138 1362 3434 
Q 1159 2731 1159 2009 
Q 1159 1288 1364 580 
Q 1569 -128 1984 -844 
L 1484 -844 
Q 1016 -109 783 600 
Q 550 1309 550 2009 
Q 550 2706 781 3412 
Q 1013 4119 1484 4856 
L 1984 4856 
z
" transform="scale(0.015625)"/>
      <path id="DejaVuSans-4e" d="M 628 4666 
L 1478 4666 
L 3547 763 
L 3547 4666 
L 4159 4666 
L 4159 0 
L 3309 0 
L 1241 3903 
L 1241 0 
L 628 0 
L 628 4666 
z
" transform="scale(0.015625)"/>
      <path id="DejaVuSans-7a" d="M 353 3500 
L 3084 3500 
L 3084 2975 
L 922 459 
L 3084 459 
L 3084 0 
L 275 0 
L 275 525 
L 2438 3041 
L 353 3041 
L 353 3500 
z
" transform="scale(0.015625)"/>
      <path id="DejaVuSans-29" d="M 513 4856 
L 1013 4856 
Q 1481 4119 1714 3412 
Q 1947 2706 1947 2009 
Q 1947 1309 1714 600 
Q 1481 -109 1013 -844 
L 513 -844 
Q 928 -128 1133 580 
Q 1338 1288 1338 2009 
Q 1338 2731 1133 3434 
Q 928 4138 513 4856 
z
" transform="scale(0.015625)"/>
     </defs>
     <use xlink:href="#DejaVuSans-42"/>
     <use xlink:href="#DejaVuSans-61" transform="translate(68.603516 0)"/>
     <use xlink:href="#DejaVuSans-63" transform="translate(129.882812 0)"/>
     <use xlink:href="#DejaVuSans-6b" transform="translate(184.863281 0)"/>
     <use xlink:href="#DejaVuSans-74" transform="translate(242.773438 0)"/>
     <use xlink:href="#DejaVuSans-65" transform="translate(281.982422 0)"/>
     <use xlink:href="#DejaVuSans-73" transform="translate(343.505859 0)"/>
     <use xlink:href="#DejaVuSans-74" transform="translate(395.605469 0)"/>
     <use xlink:href="#DejaVuSans-65" transform="translate(434.814453 0)"/>
     <use xlink:href="#DejaVuSans-64" transform="translate(496.337891 0)"/>
     <use xlink:href="#DejaVuSans-20" transform="translate(559.814453 0)"/>
     <use xlink:href="#DejaVuSans-43" transform="translate(591.601562 0)"/>
     <use xlink:href="#DejaVuSans-75" transform="translate(661.425781 0)"/>
     <use xlink:href="#DejaVuSans-6d" transform="translate(724.804688 0)"/>
     <use xlink:href="#DejaVuSans-75" transform="translate(822.216797 0)"/>
     <use xlink:href="#DejaVuSans-6c" transform="translate(885.595703 0)"/>
     <use xlink:href="#DejaVuSans-61" transform="translate(913.378906 0)"/>
     <use xlink:href="#DejaVuSans-74" transform="translate(974.658203 0)"/>
     <use xlink:href="#DejaVuSans-69" transform="translate(1013.867188 0)"/>
     <use xlink:href="#DejaVuSans-76" transform="translate(1041.650391 0)"/>
     <use xlink:href="#DejaVuSans-65" transform="translate(1100.830078 0)"/>
     <use xlink:href="#DejaVuSans-20" transform="translate(1162.353516 0)"/>
     <use xlink:href="#DejaVuSans-50" transform="translate(1194.140625 0)"/>
     <use xlink:href="#DejaVuSans-65" transform="translate(1250.818359 0)"/>
     <use xlink:href="#DejaVuSans-72" transform="translate(1312.341797 0)"/>
     <use xlink:href="#DejaVuSans-66" transform="translate(1353.455078 0)"/>
     <use xlink:href="#DejaVuSans-6f" transform="translate(1388.660156 0)"/>
     <use xlink:href="#DejaVuSans-72" transform="translate(1449.841797 0)"/>
     <use xlink:href="#DejaVuSans-6d" transform="translate(1489.205078 0)"/>
     <use xlink:href="#DejaVuSans-61" transform="translate(1586.617188 0)"/>
     <use xlink:href="#DejaVuSans-6e" transform="translate(1647.896484 0)"/>
     <use xlink:href="#DejaVuSans-63" transform="translate(1711.275391 0)"/>
     <use xlink:href="#DejaVuSans-65" transform="translate(1766.255859 0)"/>
     <use xlink:href="#DejaVuSans-20" transform="translate(1827.779297 0)"/>
     <use xlink:href="#DejaVuSans-28" transform="translate(1859.566406 0)"/>
     <use xlink:href="#DejaVuSans-4e" transform="translate(1898.580078 0)"/>
     <use xlink:href="#DejaVuSans-6f" transform="translate(1973.384766 0)"/>
     <use xlink:href="#DejaVuSans-72" transform="translate(2034.566406 0)"/>
     <use xlink:href="#DejaVuSans-6d" transform="translate(2073.929688 0)"/>
     <use xlink:href="#DejaVuSans-61" transform="translate(2171.341797 0)"/>
     <use xlink:href="#DejaVuSans-6c" transform="translate(2232.621094 0)"/>
     <use xlink:href="#DejaVuSans-69" transform="translate(2260.404297 0)"/>
     <use xlink:href="#DejaVuSans-7a" transform="translate(2288.1875 0)"/>
     <use xlink:href="#DejaVuSans-65" transform="translate(2340.677734 0)"/>
     <use xlink:href="#DejaVuSans-64" transform="translate(2402.201172 0)"/>
     <use xlink:href="#DejaVuSans-20" transform="translate(2465.677734 0)"/>
     <use xlink:href="#DejaVuSans-74" transform="translate(2497.464844 0)"/>
     <use xlink:href="#DejaVuSans-6f" transform="translate(2536.673828 0)"/>
     <use xlink:href="#DejaVuSans-20" transform="translate(2597.855469 0)"/>
     <use xlink:href="#DejaVuSans-24" transform="translate(2629.642578 0)"/>
     <use xlink:href="#DejaVuSans-31" transform="translate(2693.265625 0)"/>
     <use xlink:href="#DejaVuSans-30" transform="translate(2756.888672 0)"/>
     <use xlink:href="#DejaVuSans-2c" transform="translate(2820.511719 0)"/>
     <use xlink:href="#DejaVuSans-30" transform="translate(2852.298828 0)"/>
     <use xlink:href="#DejaVuSans-30" transform="translate(2915.921875 0)"/>
     <use xlink:href="#DejaVuSans-30" transform="translate(2979.544922 0)"/>
     <use xlink:href="#DejaVuSans-29" transform="translate(3043.167969 0)"/>
    </g>
   </g>
   <g id="legend_1">
    <g id="line2d_21">
     <path d="M 69.72625 36.38625 
L 78.72625 36.38625 
L 87.72625 36.38625 
" style="fill: none; stroke: #1f77b4; stroke-width: 2.8; stroke-linecap: square"/>
    </g>
    <g id="text_23">
     <!-- Diamond Creek ETF Arb Fund (Net) -->
     <g transform="translate(94.92625 39.53625) scale(0.09 -0.09)">
      <defs>
       <path id="DejaVuSans-44" d="M 1259 4147 
L 1259 519 
L 2022 519 
Q 2988 519 3436 956 
Q 3884 1394 3884 2338 
Q 3884 3275 3436 3711 
Q 2988 4147 2022 4147 
L 1259 4147 
z
M 628 4666 
L 1925 4666 
Q 3281 4666 3915 4102 
Q 4550 3538 4550 2338 
Q 4550 1131 3912 565 
Q 3275 0 1925 0 
L 628 0 
L 628 4666 
z
" transform="scale(0.015625)"/>
       <path id="DejaVuSans-45" d="M 628 4666 
L 3578 4666 
L 3578 4134 
L 1259 4134 
L 1259 2753 
L 3481 2753 
L 3481 2222 
L 1259 2222 
L 1259 531 
L 3634 531 
L 3634 0 
L 628 0 
L 628 4666 
z
" transform="scale(0.015625)"/>
       <path id="DejaVuSans-54" d="M -19 4666 
L 3928 4666 
L 3928 4134 
L 2272 4134 
L 2272 0 
L 1638 0 
L 1638 4134 
L -19 4134 
L -19 4666 
z
" transform="scale(0.015625)"/>
       <path id="DejaVuSans-46" d="M 628 4666 
L 3309 4666 
L 3309 4134 
L 1259 4134 
L 1259 2759 
L 3109 2759 
L 3109 2228 
L 1259 2228 
L 1259 0 
L 628 0 
L 628 4666 
z
" transform="scale(0.015625)"/>
       <path id="DejaVuSans-41" d="M 2188 4044 
L 1331 1722 
L 3047 1722 
L 2188 4044 
z
M 1831 4666 
L 2547 4666 
L 4325 0 
L 3669 0 
L 3244 1197 
L 1141 1197 
L 716 0 
L 50 0 
L 1831 4666 
z
" transform="scale(0.015625)"/>
       <path id="DejaVuSans-62" d="M 3116 1747 
Q 3116 2381 2855 2742 
Q 2594 3103 2138 3103 
Q 1681 3103 1420 2742 
Q 1159 2381 1159 1747 
Q 1159 1113 1420 752 
Q 1681 391 2138 391 
Q 2594 391 2855 752 
Q 3116 1113 3116 1747 
z
M 1159 2969 
Q 1341 3281 1617 3432 
Q 1894 3584 2278 3584 
Q 2916 3584 3314 3078 
Q 3713 2572 3713 1747 
Q 3713 922 3314 415 
Q 2916 -91 2278 -91 
Q 1894 -91 1617 61 
Q 1341 213 1159 525 
L 1159 0 
L 581 0 
L 581 4863 
L 1159 4863 
L 1159 2969 
z
" transform="scale(0.015625)"/>
      </defs>
      <use xlink:href="#DejaVuSans-44"/>
      <use xlink:href="#DejaVuSans-69" transform="translate(77.001953 0)"/>
      <use xlink:href="#DejaVuSans-61" transform="translate(104.785156 0)"/>
      <use xlink:href="#DejaVuSans-6d" transform="translate(166.064453 0)"/>
      <use xlink:href="#DejaVuSans-6f" transform="translate(263.476562 0)"/>
      <use xlink:href="#DejaVuSans-6e" transform="translate(324.658203 0)"/>
      <use xlink:href="#DejaVuSans-64" transform="translate(388.037109 0)"/>
      <use xlink:href="#DejaVuSans-20" transform="translate(451.513672 0)"/>
      <use xlink:href="#DejaVuSans-43" transform="translate(483.300781 0)"/>
      <use xlink:href="#DejaVuSans-72" transform="translate(553.125 0)"/>
      <use xlink:href="#DejaVuSans-65" transform="translate(591.988281 0)"/>
      <use xlink:href="#DejaVuSans-65" transform="translate(653.511719 0)"/>
      <use xlink:href="#DejaVuSans-6b" transform="translate(715.035156 0)"/>
      <use xlink:href="#DejaVuSans-20" transform="translate(772.945312 0)"/>
      <use xlink:href="#DejaVuSans-45" transform="translate(804.732422 0)"/>
      <use xlink:href="#DejaVuSans-54" transform="translate(867.916016 0)"/>
      <use xlink:href="#DejaVuSans-46" transform="translate(929 0)"/>
      <use xlink:href="#DejaVuSans-20" transform="translate(986.519531 0)"/>
      <use xlink:href="#DejaVuSans-41" transform="translate(1018.306641 0)"/>
      <use xlink:href="#DejaVuSans-72" transform="translate(1086.714844 0)"/>
      <use xlink:href="#DejaVuSans-62" transform="translate(1127.828125 0)"/>
      <use xlink:href="#DejaVuSans-20" transform="translate(1191.304688 0)"/>
      <use xlink:href="#DejaVuSans-46" transform="translate(1223.091797 0)"/>
      <use xlink:href="#DejaVuSans-75" transform="translate(1275.111328 0)"/>
      <use xlink:href="#DejaVuSans-6e" transform="translate(1338.490234 0)"/>
      <use xlink:href="#DejaVuSans-64" transform="translate(1401.869141 0)"/>
      <use xlink:href="#DejaVuSans-20" transform="translate(1465.345703 0)"/>
      <use xlink:href="#DejaVuSans-28" transform="translate(1497.132812 0)"/>
      <use xlink:href="#DejaVuSans-4e" transform="translate(1536.146484 0)"/>
      <use xlink:href="#DejaVuSans-65" transform="translate(1610.951172 0)"/>
      <use xlink:href="#DejaVuSans-74" transform="translate(1672.474609 0)"/>
      <use xlink:href="#DejaVuSans-29" transform="translate(1711.683594 0)"/>
     </g>
    </g>
    <g id="line2d_22">
     <path d="M 69.72625 49.596562 
L 78.72625 49.596562 
L 87.72625 49.596562 
" style="fill: none; stroke-dasharray: 8.14,3.52; stroke-dashoffset: 0; stroke: #ff7f0e; stroke-width: 2.2"/>
    </g>
    <g id="text_24">
     <!-- SPY (Total Return) -->
     <g transform="translate(94.92625 52.746562) scale(0.09 -0.09)">
      <defs>
       <path id="DejaVuSans-53" d="M 3425 4513 
L 3425 3897 
Q 3066 4069 2747 4153 
Q 2428 4238 2131 4238 
Q 1616 4238 1336 4038 
Q 1056 3838 1056 3469 
Q 1056 3159 1242 3001 
Q 1428 2844 1947 2747 
L 2328 2669 
Q 3034 2534 3370 2195 
Q 3706 1856 3706 1288 
Q 3706 609 3251 259 
Q 2797 -91 1919 -91 
Q 1588 -91 1214 -16 
Q 841 59 441 206 
L 441 856 
Q 825 641 1194 531 
Q 1563 422 1919 422 
Q 2459 422 2753 634 
Q 3047 847 3047 1241 
Q 3047 1584 2836 1778 
Q 2625 1972 2144 2069 
L 1759 2144 
Q 1053 2284 737 2584 
Q 422 2884 422 3419 
Q 422 4038 858 4394 
Q 1294 4750 2059 4750 
Q 2388 4750 2728 4690 
Q 3069 4631 3425 4513 
z
" transform="scale(0.015625)"/>
       <path id="DejaVuSans-59" d="M -13 4666 
L 666 4666 
L 1959 2747 
L 3244 4666 
L 3922 4666 
L 2272 2222 
L 2272 0 
L 1638 0 
L 1638 2222 
L -13 4666 
z
" transform="scale(0.015625)"/>
       <path id="DejaVuSans-52" d="M 2841 2188 
Q 3044 2119 3236 1894 
Q 3428 1669 3622 1275 
L 4263 0 
L 3584 0 
L 2988 1197 
Q 2756 1666 2539 1819 
Q 2322 1972 1947 1972 
L 1259 1972 
L 1259 0 
L 628 0 
L 628 4666 
L 2053 4666 
Q 2853 4666 3247 4331 
Q 3641 3997 3641 3322 
Q 3641 2881 3436 2590 
Q 3231 2300 2841 2188 
z
M 1259 4147 
L 1259 2491 
L 2053 2491 
Q 2509 2491 2742 2702 
Q 2975 2913 2975 3322 
Q 2975 3731 2742 3939 
Q 2509 4147 2053 4147 
L 1259 4147 
z
" transform="scale(0.015625)"/>
      </defs>
      <use xlink:href="#DejaVuSans-53"/>
      <use xlink:href="#DejaVuSans-50" transform="translate(63.476562 0)"/>
      <use xlink:href="#DejaVuSans-59" transform="translate(121.529297 0)"/>
      <use xlink:href="#DejaVuSans-20" transform="translate(182.613281 0)"/>
      <use xlink:href="#DejaVuSans-28" transform="translate(214.400391 0)"/>
      <use xlink:href="#DejaVuSans-54" transform="translate(253.414062 0)"/>
      <use xlink:href="#DejaVuSans-6f" transform="translate(297.498047 0)"/>
      <use xlink:href="#DejaVuSans-74" transform="translate(358.679688 0)"/>
      <use xlink:href="#DejaVuSans-61" transform="translate(397.888672 0)"/>
      <use xlink:href="#DejaVuSans-6c" transform="translate(459.167969 0)"/>
      <use xlink:href="#DejaVuSans-20" transform="translate(486.951172 0)"/>
      <use xlink:href="#DejaVuSans-52" transform="translate(518.738281 0)"/>
      <use xlink:href="#DejaVuSans-65" transform="translate(583.720703 0)"/>
      <use xlink:href="#DejaVuSans-74" transform="translate(645.244141 0)"/>
      <use xlink:href="#DejaVuSans-75" transform="translate(684.453125 0)"/>
      <use xlink:href="#DejaVuSans-72" transform="translate(747.832031 0)"/>
      <use xlink:href="#DejaVuSans-6e" transform="translate(787.195312 0)"/>
      <use xlink:href="#DejaVuSans-29" transform="translate(850.574219 0)"/>
     </g>
    </g>
   </g>
  </g>
 </g>
 <defs>
  <clipPath id="p2387087b2c">
   <rect x="61.62625" y="24.597656" width="840.172727" height="375.8"/>
  </clipPath>
 </defs>
</svg>
