<?xml version="1.0" encoding="utf-8" standalone="no"?>
<!DOCTYPE svg PUBLIC "-//W3C//DTD SVG 1.1//EN"
  "http://www.w3.org/Graphics/SVG/1.1/DTD/svg11.dtd">
<svg xmlns:xlink="http://www.w3.org/1999/xlink" width="568.967187pt" height="308.76375pt" viewBox="0 0 568.967187 308.76375" xmlns="http://www.w3.org/2000/svg" version="1.1">
 <metadata>
  <rdf:RDF xmlns:dc="http://purl.org/dc/elements/1.1/" xmlns:cc="http://creativecommons.org/ns#" xmlns:rdf="http://www.w3.org/1999/02/22-rdf-syntax-ns#">
   <cc:Work>
    <dc:type rdf:resource="http://purl.org/dc/dcmitype/StillImage"/>
    <dc:date>2026-04-30T16:57:48.490376</dc:date>
    <dc:format>image/svg+xml</dc:format>
    <dc:creator>
     <cc:Agent>
      <dc:title>Matplotlib v3.10.8, https://matplotlib.org/</dc:title>
     </cc:Agent>
    </dc:creator>
   </cc:Work>
  </rdf:RDF>
 </metadata>
 <defs>
  <style type="text/css">*{stroke-linejoin: round; stroke-linecap: butt}</style>
 </defs>
 <g id="figure_1">
  <g id="patch_1">
   <path d="M 0 308.76375 
L 568.967187 308.76375 
L 568.967187 0 
L 0 0 
z
" style="fill: #ffffff"/>
  </g>
  <g id="axes_1">
   <g id="patch_2">
    <path d="M 48.427188 269.741562 
L 561.767187 269.741562 
L 561.767187 25.689062 
L 48.427188 25.689062 
z
" style="fill: #ffffff"/>
   </g>
   <g id="patch_3">
    <path d="M 49.182099 269.741562 
L 62.770511 269.741562 
L 62.770511 269.741562 
L 49.182099 269.741562 
z
" clip-path="url(#p175297c5f2)" style="fill: #ff7f0e; opacity: 0.9; stroke: #000000; stroke-width: 0.4; stroke-linejoin: miter"/>
   </g>
   <g id="patch_4">
    <path d="M 64.280335 269.741562 
L 77.868746 269.741562 
L 77.868746 269.741562 
L 64.280335 269.741562 
z
" clip-path="url(#p175297c5f2)" style="fill: #ff7f0e; opacity: 0.9; stroke: #000000; stroke-width: 0.4; stroke-linejoin: miter"/>
   </g>
   <g id="patch_5">
    <path d="M 79.37857 269.741562 
L 92.966982 269.741562 
L 92.966982 269.741562 
L 79.37857 269.741562 
z
" clip-path="url(#p175297c5f2)" style="fill: #ff7f0e; opacity: 0.9; stroke: #000000; stroke-width: 0.4; stroke-linejoin: miter"/>
   </g>
   <g id="patch_6">
    <path d="M 94.476805 269.741562 
L 108.065217 269.741562 
L 108.065217 269.741562 
L 94.476805 269.741562 
z
" clip-path="url(#p175297c5f2)" style="fill: #ff7f0e; opacity: 0.9; stroke: #000000; stroke-width: 0.4; stroke-linejoin: miter"/>
   </g>
   <g id="patch_7">
    <path d="M 109.57504 269.741562 
L 123.163452 269.741562 
L 123.163452 269.741562 
L 109.57504 269.741562 
z
" clip-path="url(#p175297c5f2)" style="fill: #ff7f0e; opacity: 0.9; stroke: #000000; stroke-width: 0.4; stroke-linejoin: miter"/>
   </g>
   <g id="patch_8">
    <path d="M 124.673276 269.741562 
L 138.261688 269.741562 
L 138.261688 269.741562 
L 124.673276 269.741562 
z
" clip-path="url(#p175297c5f2)" style="fill: #ff7f0e; opacity: 0.9; stroke: #000000; stroke-width: 0.4; stroke-linejoin: miter"/>
   </g>
   <g id="patch_9">
    <path d="M 139.771511 269.741562 
L 153.359923 269.741562 
L 153.359923 269.741562 
L 139.771511 269.741562 
z
" clip-path="url(#p175297c5f2)" style="fill: #ff7f0e; opacity: 0.9; stroke: #000000; stroke-width: 0.4; stroke-linejoin: miter"/>
   </g>
   <g id="patch_10">
    <path d="M 154.869746 269.741562 
L 168.458158 269.741562 
L 168.458158 269.741562 
L 154.869746 269.741562 
z
" clip-path="url(#p175297c5f2)" style="fill: #ff7f0e; opacity: 0.9; stroke: #000000; stroke-width: 0.4; stroke-linejoin: miter"/>
   </g>
   <g id="patch_11">
    <path d="M 169.967982 269.741562 
L 183.556393 269.741562 
L 183.556393 269.741562 
L 169.967982 269.741562 
z
" clip-path="url(#p175297c5f2)" style="fill: #ff7f0e; opacity: 0.9; stroke: #000000; stroke-width: 0.4; stroke-linejoin: miter"/>
   </g>
   <g id="patch_12">
    <path d="M 185.066217 269.741562 
L 198.654629 269.741562 
L 198.654629 269.741562 
L 185.066217 269.741562 
z
" clip-path="url(#p175297c5f2)" style="fill: #ff7f0e; opacity: 0.9; stroke: #000000; stroke-width: 0.4; stroke-linejoin: miter"/>
   </g>
   <g id="patch_13">
    <path d="M 200.164452 269.741562 
L 213.752864 269.741562 
L 213.752864 269.741562 
L 200.164452 269.741562 
z
" clip-path="url(#p175297c5f2)" style="fill: #ff7f0e; opacity: 0.9; stroke: #000000; stroke-width: 0.4; stroke-linejoin: miter"/>
   </g>
   <g id="patch_14">
    <path d="M 215.262688 269.741562 
L 228.851099 269.741562 
L 228.851099 269.741562 
L 215.262688 269.741562 
z
" clip-path="url(#p175297c5f2)" style="fill: #ff7f0e; opacity: 0.9; stroke: #000000; stroke-width: 0.4; stroke-linejoin: miter"/>
   </g>
   <g id="patch_15">
    <path d="M 230.360923 269.741562 
L 243.949335 269.741562 
L 243.949335 269.741562 
L 230.360923 269.741562 
z
" clip-path="url(#p175297c5f2)" style="fill: #ff7f0e; opacity: 0.9; stroke: #000000; stroke-width: 0.4; stroke-linejoin: miter"/>
   </g>
   <g id="patch_16">
    <path d="M 245.459158 269.741562 
L 259.04757 269.741562 
L 259.04757 269.741562 
L 245.459158 269.741562 
z
" clip-path="url(#p175297c5f2)" style="fill: #ff7f0e; opacity: 0.9; stroke: #000000; stroke-width: 0.4; stroke-linejoin: miter"/>
   </g>
   <g id="patch_17">
    <path d="M 260.557393 269.741562 
L 274.145805 269.741562 
L 274.145805 236.537141 
L 260.557393 236.537141 
z
" clip-path="url(#p175297c5f2)" style="fill: #ff7f0e; opacity: 0.9; stroke: #000000; stroke-width: 0.4; stroke-linejoin: miter"/>
   </g>
   <g id="patch_18">
    <path d="M 275.655629 269.741562 
L 289.24404 269.741562 
L 289.24404 170.128297 
L 275.655629 170.128297 
z
" clip-path="url(#p175297c5f2)" style="fill: #ff7f0e; opacity: 0.9; stroke: #000000; stroke-width: 0.4; stroke-linejoin: miter"/>
   </g>
   <g id="patch_19">
    <path d="M 290.753864 269.741562 
L 304.342276 269.741562 
L 304.342276 37.31061 
L 290.753864 37.31061 
z
" clip-path="url(#p175297c5f2)" style="fill: #ff7f0e; opacity: 0.9; stroke: #000000; stroke-width: 0.4; stroke-linejoin: miter"/>
   </g>
   <g id="patch_20">
    <path d="M 305.852099 269.741562 
L 319.440511 269.741562 
L 319.440511 70.515032 
L 305.852099 70.515032 
z
" clip-path="url(#p175297c5f2)" style="fill: #1f77b4; opacity: 0.9; stroke: #000000; stroke-width: 0.4; stroke-linejoin: miter"/>
   </g>
   <g id="patch_21">
    <path d="M 320.950335 269.741562 
L 334.538746 269.741562 
L 334.538746 37.31061 
L 320.950335 37.31061 
z
" clip-path="url(#p175297c5f2)" style="fill: #1f77b4; opacity: 0.9; stroke: #000000; stroke-width: 0.4; stroke-linejoin: miter"/>
   </g>
   <g id="patch_22">
    <path d="M 336.04857 269.741562 
L 349.636982 269.741562 
L 349.636982 103.719454 
L 336.04857 103.719454 
z
" clip-path="url(#p175297c5f2)" style="fill: #1f77b4; opacity: 0.9; stroke: #000000; stroke-width: 0.4; stroke-linejoin: miter"/>
   </g>
   <g id="patch_23">
    <path d="M 351.146805 269.741562 
L 364.735217 269.741562 
L 364.735217 170.128297 
L 351.146805 170.128297 
z
" clip-path="url(#p175297c5f2)" style="fill: #1f77b4; opacity: 0.9; stroke: #000000; stroke-width: 0.4; stroke-linejoin: miter"/>
   </g>
   <g id="patch_24">
    <path d="M 366.24504 269.741562 
L 379.833452 269.741562 
L 379.833452 203.332719 
L 366.24504 203.332719 
z
" clip-path="url(#p175297c5f2)" style="fill: #1f77b4; opacity: 0.9; stroke: #000000; stroke-width: 0.4; stroke-linejoin: miter"/>
   </g>
   <g id="patch_25">
    <path d="M 381.343276 269.741562 
L 394.931688 269.741562 
L 394.931688 236.537141 
L 381.343276 236.537141 
z
" clip-path="url(#p175297c5f2)" style="fill: #1f77b4; opacity: 0.9; stroke: #000000; stroke-width: 0.4; stroke-linejoin: miter"/>
   </g>
   <g id="patch_26">
    <path d="M 396.441511 269.741562 
L 410.029923 269.741562 
L 410.029923 170.128297 
L 396.441511 170.128297 
z
" clip-path="url(#p175297c5f2)" style="fill: #1f77b4; opacity: 0.9; stroke: #000000; stroke-width: 0.4; stroke-linejoin: miter"/>
   </g>
   <g id="patch_27">
    <path d="M 411.539746 269.741562 
L 425.128158 269.741562 
L 425.128158 269.741562 
L 411.539746 269.741562 
z
" clip-path="url(#p175297c5f2)" style="fill: #1f77b4; opacity: 0.9; stroke: #000000; stroke-width: 0.4; stroke-linejoin: miter"/>
   </g>
   <g id="patch_28">
    <path d="M 426.637982 269.741562 
L 440.226393 269.741562 
L 440.226393 269.741562 
L 426.637982 269.741562 
z
" clip-path="url(#p175297c5f2)" style="fill: #1f77b4; opacity: 0.9; stroke: #000000; stroke-width: 0.4; stroke-linejoin: miter"/>
   </g>
   <g id="patch_29">
    <path d="M 441.736217 269.741562 
L 455.324629 269.741562 
L 455.324629 269.741562 
L 441.736217 269.741562 
z
" clip-path="url(#p175297c5f2)" style="fill: #1f77b4; opacity: 0.9; stroke: #000000; stroke-width: 0.4; stroke-linejoin: miter"/>
   </g>
   <g id="patch_30">
    <path d="M 456.834452 269.741562 
L 470.422864 269.741562 
L 470.422864 269.741562 
L 456.834452 269.741562 
z
" clip-path="url(#p175297c5f2)" style="fill: #1f77b4; opacity: 0.9; stroke: #000000; stroke-width: 0.4; stroke-linejoin: miter"/>
   </g>
   <g id="patch_31">
    <path d="M 471.932688 269.741562 
L 485.521099 269.741562 
L 485.521099 236.537141 
L 471.932688 236.537141 
z
" clip-path="url(#p175297c5f2)" style="fill: #1f77b4; opacity: 0.9; stroke: #000000; stroke-width: 0.4; stroke-linejoin: miter"/>
   </g>
   <g id="patch_32">
    <path d="M 487.030923 269.741562 
L 500.619335 269.741562 
L 500.619335 269.741562 
L 487.030923 269.741562 
z
" clip-path="url(#p175297c5f2)" style="fill: #1f77b4; opacity: 0.9; stroke: #000000; stroke-width: 0.4; stroke-linejoin: miter"/>
   </g>
   <g id="patch_33">
    <path d="M 502.129158 269.741562 
L 515.71757 269.741562 
L 515.71757 269.741562 
L 502.129158 269.741562 
z
" clip-path="url(#p175297c5f2)" style="fill: #1f77b4; opacity: 0.9; stroke: #000000; stroke-width: 0.4; stroke-linejoin: miter"/>
   </g>
   <g id="patch_34">
    <path d="M 517.227393 269.741562 
L 530.815805 269.741562 
L 530.815805 269.741562 
L 517.227393 269.741562 
z
" clip-path="url(#p175297c5f2)" style="fill: #1f77b4; opacity: 0.9; stroke: #000000; stroke-width: 0.4; stroke-linejoin: miter"/>
   </g>
   <g id="patch_35">
    <path d="M 532.325629 269.741562 
L 545.91404 269.741562 
L 545.91404 269.741562 
L 532.325629 269.741562 
z
" clip-path="url(#p175297c5f2)" style="fill: #1f77b4; opacity: 0.9; stroke: #000000; stroke-width: 0.4; stroke-linejoin: miter"/>
   </g>
   <g id="patch_36">
    <path d="M 547.423864 269.741562 
L 561.012276 269.741562 
L 561.012276 269.741562 
L 547.423864 269.741562 
z
" clip-path="url(#p175297c5f2)" style="fill: #1f77b4; opacity: 0.9; stroke: #000000; stroke-width: 0.4; stroke-linejoin: miter"/>
   </g>
   <g id="matplotlib.axis_1">
    <g id="xtick_1">
     <g id="line2d_1">
      <defs>
       <path id="m1796d85030" d="M 0 0 
L 0 3.5 
" style="stroke: #000000; stroke-width: 0.8"/>
      </defs>
      <g>
       <use xlink:href="#m1796d85030" x="78.623658" y="269.741562" style="stroke: #000000; stroke-width: 0.8"/>
      </g>
     </g>
     <g id="text_1">
      <!-- -15% -->
      <g transform="translate(67.223189 283.879531) scale(0.11 -0.11)">
       <defs>
        <path id="Garamond-2d" d="M 256 1381 
L 300 1381 
L 544 1378 
L 963 1394 
L 1269 1384 
L 1428 1391 
Q 1650 1391 1756 1363 
L 1763 1116 
Q 1569 1100 1450 1100 
Q 1341 1100 1228 1109 
Q 1078 1119 1047 1119 
L 916 1116 
Q 859 1113 781 1113 
Q 391 1113 244 1147 
L 238 1238 
Q 238 1291 256 1381 
z
" transform="scale(0.015625)"/>
        <path id="Garamond-31" d="M 2269 6 
L 838 6 
Q 834 34 834 53 
Q 834 106 856 126 
Q 878 147 994 169 
Q 1175 206 1288 259 
Q 1319 328 1319 388 
L 1319 581 
Q 1319 616 1328 897 
Q 1331 1003 1334 1816 
L 1341 2550 
L 1334 2978 
Q 1334 3072 1341 3569 
Q 631 3063 563 3063 
Q 538 3063 509 3089 
Q 481 3116 481 3141 
Q 481 3172 503 3191 
Q 547 3231 713 3325 
Q 738 3338 928 3494 
Q 1231 3747 1372 3890 
Q 1513 4034 1544 4053 
Q 1606 4056 1641 4056 
Q 1722 4056 1742 4029 
Q 1763 4003 1763 3838 
L 1741 1053 
L 1741 778 
Q 1741 678 1737 576 
Q 1734 475 1734 428 
Q 1734 316 1763 281 
Q 1781 259 1878 225 
L 2091 181 
Q 2228 147 2241 134 
Q 2272 106 2272 47 
L 2269 6 
z
" transform="scale(0.015625)"/>
        <path id="Garamond-35" d="M 2369 3606 
Q 2019 3578 1803 3578 
Q 1644 3578 1466 3588 
Q 1369 3594 1350 3594 
Q 969 3594 941 3578 
Q 928 3572 925 3550 
Q 916 3500 844 2434 
Q 984 2506 1115 2536 
Q 1247 2566 1463 2566 
Q 1616 2566 1675 2547 
Q 1972 2450 2103 2372 
Q 2284 2259 2398 2115 
Q 2513 1972 2609 1694 
Q 2678 1494 2678 1275 
Q 2678 1038 2611 833 
Q 2544 628 2444 490 
Q 2344 353 2147 204 
Q 1950 56 1683 -22 
Q 1416 -100 1325 -103 
L 872 -63 
Q 684 -31 543 39 
Q 403 109 356 175 
Q 328 216 328 281 
Q 328 331 398 390 
Q 469 450 572 450 
Q 619 450 675 422 
L 922 263 
Q 1006 188 1131 122 
Q 1150 113 1225 100 
Q 1406 75 1422 75 
Q 1491 75 1656 131 
Q 1822 188 1962 323 
Q 2103 459 2204 667 
Q 2306 875 2306 1128 
Q 2306 1581 2022 1875 
Q 1738 2169 1338 2169 
Q 1159 2169 1007 2109 
Q 856 2050 803 1978 
L 756 1959 
Q 719 1944 703 1944 
L 663 1953 
Q 653 2009 653 2038 
Q 653 2063 663 2125 
Q 684 2278 686 2442 
Q 688 2606 719 2738 
L 709 2888 
Q 731 3003 734 3109 
Q 744 3828 794 3934 
Q 816 3984 869 3984 
Q 891 3984 941 3978 
L 959 3975 
L 1356 3978 
Q 1625 3963 1753 3963 
Q 2047 3963 2225 4003 
Q 2313 4084 2359 4084 
Q 2378 4084 2428 4078 
L 2438 4041 
L 2413 3909 
L 2397 3700 
Q 2394 3678 2369 3606 
z
" transform="scale(0.015625)"/>
        <path id="Garamond-25" d="M 1147 -209 
Q 1175 -150 1212 -94 
Q 1250 -38 1309 63 
Q 1331 97 1542 414 
Q 1753 731 1831 859 
Q 3228 3228 3853 4075 
L 3884 4078 
Q 4031 4069 4050 4069 
L 2684 1928 
L 2063 900 
L 1344 -203 
L 1322 -203 
Q 1306 -203 1172 -209 
L 1147 -209 
z
M 1825 2981 
Q 1825 2488 1576 2195 
Q 1328 1903 1022 1903 
Q 709 1903 470 2183 
Q 231 2463 231 2950 
Q 231 3288 353 3581 
Q 447 3800 634 3937 
Q 822 4075 1038 4075 
Q 1256 4075 1448 3931 
Q 1641 3788 1753 3503 
Q 1825 3313 1825 2981 
z
M 1475 2922 
Q 1475 3384 1450 3525 
Q 1406 3763 1300 3863 
Q 1194 3963 1038 3963 
Q 828 3963 709 3783 
Q 591 3603 591 2909 
Q 591 2363 712 2188 
Q 834 2013 1019 2013 
Q 1231 2013 1338 2163 
Q 1475 2359 1475 2922 
z
M 5053 1028 
Q 5053 534 4803 243 
Q 4553 -47 4247 -47 
Q 3938 -47 3697 233 
Q 3456 513 3456 997 
Q 3456 1338 3581 1631 
Q 3672 1847 3859 1986 
Q 4047 2125 4263 2125 
Q 4481 2125 4675 1981 
Q 4869 1838 4978 1550 
Q 5053 1363 5053 1028 
z
M 4703 972 
Q 4703 1431 4675 1572 
Q 4631 1813 4525 1911 
Q 4419 2009 4263 2009 
Q 4056 2009 3936 1831 
Q 3816 1653 3816 959 
Q 3816 409 3937 234 
Q 4059 59 4247 59 
Q 4456 59 4563 209 
Q 4703 406 4703 972 
z
" transform="scale(0.015625)"/>
       </defs>
       <use xlink:href="#Garamond-2d"/>
       <use xlink:href="#Garamond-31" transform="translate(31.25 0)"/>
       <use xlink:href="#Garamond-35" transform="translate(78.125 0)"/>
       <use xlink:href="#Garamond-25" transform="translate(125 0)"/>
      </g>
     </g>
    </g>
    <g id="xtick_2">
     <g id="line2d_2">
      <g>
       <use xlink:href="#m1796d85030" x="154.114835" y="269.741562" style="stroke: #000000; stroke-width: 0.8"/>
      </g>
     </g>
     <g id="text_2">
      <!-- -10% -->
      <g transform="translate(142.714366 283.879531) scale(0.11 -0.11)">
       <defs>
        <path id="Garamond-30" d="M 2800 1972 
Q 2800 1650 2753 1400 
Q 2669 969 2519 678 
Q 2369 388 2163 188 
Q 2013 41 1844 -26 
Q 1675 -94 1500 -94 
Q 1191 -94 914 112 
Q 638 319 431 794 
Q 225 1269 225 1913 
Q 225 2416 350 2878 
Q 475 3341 679 3595 
Q 884 3850 1086 3962 
Q 1288 4075 1525 4075 
Q 1859 4075 2173 3812 
Q 2488 3550 2675 2997 
Q 2800 2625 2800 1972 
z
M 2331 2075 
Q 2328 2844 2275 3119 
Q 2188 3572 1989 3753 
Q 1791 3934 1525 3934 
Q 1303 3934 1104 3790 
Q 906 3647 831 3341 
Q 703 2844 703 1834 
Q 703 834 901 436 
Q 1100 38 1497 38 
Q 1769 38 1967 206 
Q 2166 375 2252 833 
Q 2338 1291 2334 1859 
L 2331 2075 
z
" transform="scale(0.015625)"/>
       </defs>
       <use xlink:href="#Garamond-2d"/>
       <use xlink:href="#Garamond-31" transform="translate(31.25 0)"/>
       <use xlink:href="#Garamond-30" transform="translate(78.125 0)"/>
       <use xlink:href="#Garamond-25" transform="translate(125 0)"/>
      </g>
     </g>
    </g>
    <g id="xtick_3">
     <g id="line2d_3">
      <g>
       <use xlink:href="#m1796d85030" x="229.606011" y="269.741562" style="stroke: #000000; stroke-width: 0.8"/>
      </g>
     </g>
     <g id="text_3">
      <!-- -5% -->
      <g transform="translate(220.783667 283.879531) scale(0.11 -0.11)">
       <use xlink:href="#Garamond-2d"/>
       <use xlink:href="#Garamond-35" transform="translate(31.25 0)"/>
       <use xlink:href="#Garamond-25" transform="translate(78.125 0)"/>
      </g>
     </g>
    </g>
    <g id="xtick_4">
     <g id="line2d_4">
      <g>
       <use xlink:href="#m1796d85030" x="305.097187" y="269.741562" style="stroke: #000000; stroke-width: 0.8"/>
      </g>
     </g>
     <g id="text_4">
      <!-- 0% -->
      <g transform="translate(297.993594 283.879531) scale(0.11 -0.11)">
       <use xlink:href="#Garamond-30"/>
       <use xlink:href="#Garamond-25" transform="translate(46.875 0)"/>
      </g>
     </g>
    </g>
    <g id="xtick_5">
     <g id="line2d_5">
      <g>
       <use xlink:href="#m1796d85030" x="380.588364" y="269.741562" style="stroke: #000000; stroke-width: 0.8"/>
      </g>
     </g>
     <g id="text_5">
      <!-- 5% -->
      <g transform="translate(373.48477 283.879531) scale(0.11 -0.11)">
       <use xlink:href="#Garamond-35"/>
       <use xlink:href="#Garamond-25" transform="translate(46.875 0)"/>
      </g>
     </g>
    </g>
    <g id="xtick_6">
     <g id="line2d_6">
      <g>
       <use xlink:href="#m1796d85030" x="456.07954" y="269.741562" style="stroke: #000000; stroke-width: 0.8"/>
      </g>
     </g>
     <g id="text_6">
      <!-- 10% -->
      <g transform="translate(446.397822 283.879531) scale(0.11 -0.11)">
       <use xlink:href="#Garamond-31"/>
       <use xlink:href="#Garamond-30" transform="translate(46.875 0)"/>
       <use xlink:href="#Garamond-25" transform="translate(93.75 0)"/>
      </g>
     </g>
    </g>
    <g id="xtick_7">
     <g id="line2d_7">
      <g>
       <use xlink:href="#m1796d85030" x="531.570717" y="269.741562" style="stroke: #000000; stroke-width: 0.8"/>
      </g>
     </g>
     <g id="text_7">
      <!-- 15% -->
      <g transform="translate(521.888998 283.879531) scale(0.11 -0.11)">
       <use xlink:href="#Garamond-31"/>
       <use xlink:href="#Garamond-35" transform="translate(46.875 0)"/>
       <use xlink:href="#Garamond-25" transform="translate(93.75 0)"/>
      </g>
     </g>
    </g>
    <g id="text_8">
     <!-- Monthly return -->
     <g transform="translate(269.417812 298.486875) scale(0.12 -0.12)">
      <defs>
       <path id="Garamond-4d" d="M 44 72 
Q 141 138 394 166 
Q 591 175 628 200 
Q 653 219 666 247 
Q 713 363 734 875 
Q 763 1541 825 2647 
Q 875 3491 875 3700 
L 875 3781 
Q 650 3828 163 3881 
Q 131 3928 131 3953 
Q 131 3969 153 4009 
Q 206 4028 234 4028 
Q 259 4028 344 4016 
Q 497 3994 766 3994 
Q 853 3994 1066 4006 
Q 1216 4016 1234 4016 
Q 1284 4016 1350 4000 
Q 1381 3969 1397 3941 
L 1528 3647 
L 2413 1691 
L 2778 869 
Q 3213 1728 3453 2397 
Q 3469 2447 3491 2488 
Q 3519 2541 3544 2606 
Q 3569 2672 3747 3106 
Q 3819 3281 3863 3406 
Q 4041 3906 4072 3978 
Q 4131 4000 4175 4000 
Q 4225 4000 4303 3994 
Q 4478 3984 4872 3984 
Q 5116 3984 5272 3991 
Q 5278 3956 5278 3941 
Q 5278 3919 5269 3881 
Q 5169 3828 5028 3822 
Q 4750 3806 4675 3778 
Q 4600 3750 4579 3706 
Q 4559 3663 4544 3419 
L 4547 3275 
L 4544 3125 
Q 4544 2656 4569 1550 
L 4566 938 
L 4569 544 
Q 4569 313 4591 270 
Q 4613 228 4716 191 
Q 4884 134 5266 75 
Q 5288 59 5288 34 
Q 5288 6 5284 -28 
L 5141 -28 
Q 4956 -28 4740 -17 
Q 4525 -6 4509 -6 
Q 3869 -6 3659 -19 
Q 3531 -28 3497 -28 
Q 3475 -28 3450 -16 
L 3450 25 
Q 3450 53 3459 84 
Q 3563 128 3741 144 
Q 3938 197 4028 256 
Q 4056 375 4056 741 
L 4047 1372 
Q 4047 1475 4058 1756 
Q 4069 2038 4069 2672 
Q 4069 3175 4044 3434 
Q 3991 3325 3834 2959 
L 3788 2841 
L 3781 2822 
L 3319 1728 
L 3153 1306 
L 2938 794 
Q 2797 441 2697 169 
Q 2653 44 2625 -28 
L 2553 -25 
Q 2200 1006 1711 2090 
Q 1222 3175 1025 3522 
Q 1000 3388 969 2741 
Q 928 1953 928 1006 
Q 928 709 972 338 
Q 984 231 1062 179 
Q 1141 128 1466 122 
Q 1591 122 1703 103 
Q 1725 56 1725 34 
Q 1725 19 1709 -19 
L 738 16 
Q 631 16 406 0 
Q 281 -9 47 -13 
L 44 72 
z
" transform="scale(0.015625)"/>
       <path id="Garamond-6f" d="M 228 1256 
Q 228 1469 317 1711 
Q 406 1953 587 2145 
Q 769 2338 972 2431 
Q 1256 2563 1666 2563 
Q 2250 2563 2642 2163 
Q 3034 1763 3034 1200 
Q 3034 700 2623 308 
Q 2213 -84 1584 -84 
Q 1197 -84 853 119 
Q 597 272 412 572 
Q 228 872 228 1256 
z
M 1609 38 
Q 1847 38 2067 166 
Q 2288 294 2419 576 
Q 2550 859 2550 1231 
Q 2550 1475 2448 1797 
Q 2347 2119 2136 2280 
Q 1925 2441 1641 2441 
Q 1434 2441 1220 2344 
Q 1006 2247 857 1972 
Q 709 1697 709 1191 
Q 709 622 967 330 
Q 1225 38 1609 38 
z
" transform="scale(0.015625)"/>
       <path id="Garamond-6e" d="M 119 100 
Q 197 122 300 138 
Q 497 166 536 203 
Q 575 241 575 375 
L 581 488 
Q 584 550 584 647 
L 578 1606 
Q 578 1800 528 1856 
Q 444 1944 216 1978 
L 216 2091 
Q 444 2153 566 2253 
Q 744 2394 866 2634 
L 972 2631 
Q 981 2484 981 2422 
L 981 2216 
L 984 2159 
Q 1022 2184 1072 2222 
Q 1259 2363 1456 2452 
Q 1653 2541 1806 2575 
Q 1903 2600 2025 2600 
Q 2281 2600 2465 2462 
Q 2650 2325 2704 2139 
Q 2759 1953 2759 1400 
L 2759 928 
Q 2759 909 2754 803 
Q 2750 697 2750 559 
Q 2750 341 2769 281 
Q 2784 241 2850 200 
Q 3150 159 3200 103 
L 3200 78 
Q 3200 47 3181 0 
L 3122 0 
L 2709 3 
L 2303 -3 
Q 2078 -9 1888 0 
L 1869 66 
Q 1869 84 1891 116 
Q 1975 153 2128 166 
Q 2219 172 2253 184 
Q 2288 197 2338 234 
Q 2375 309 2375 359 
Q 2375 381 2369 447 
Q 2359 591 2356 1163 
L 2356 1325 
L 2363 1575 
Q 2363 1978 2200 2131 
Q 2038 2284 1766 2284 
Q 1556 2284 1356 2192 
Q 1156 2100 969 1916 
Q 963 1766 963 1659 
L 972 969 
Q 972 428 988 306 
Q 994 256 1009 238 
Q 1034 213 1109 197 
Q 1184 181 1282 153 
Q 1381 125 1413 119 
Q 1475 103 1497 56 
L 1494 -6 
L 1166 -6 
L 491 3 
Q 256 -3 194 -3 
L 116 -3 
L 109 38 
Q 109 59 119 100 
z
" transform="scale(0.015625)"/>
       <path id="Garamond-74" d="M 894 3088 
L 991 3084 
L 1003 2788 
L 997 2403 
Q 1056 2400 1072 2400 
Q 1153 2400 1381 2413 
Q 1528 2422 1663 2422 
Q 1725 2422 1850 2419 
Q 1856 2356 1856 2319 
Q 1856 2278 1838 2191 
L 1784 2191 
L 1300 2175 
L 1059 2169 
L 1003 2163 
Q 978 2084 978 1981 
L 988 1513 
L 981 688 
Q 981 363 1066 256 
Q 1147 147 1309 147 
Q 1391 147 1616 197 
Q 1684 213 1800 300 
L 1828 300 
Q 1856 300 1873 283 
Q 1891 266 1891 238 
L 1888 216 
Q 1753 69 1579 1 
Q 1406 -66 1119 -66 
Q 916 -66 783 28 
Q 650 122 612 250 
Q 575 378 575 809 
L 588 1513 
L 584 1850 
L 584 1975 
Q 584 2063 578 2150 
L 525 2153 
L 269 2144 
L 244 2141 
Q 209 2141 192 2156 
Q 175 2172 175 2194 
Q 175 2231 198 2254 
Q 222 2278 341 2328 
Q 422 2363 530 2458 
Q 638 2553 713 2669 
Q 750 2731 819 2906 
Q 869 3034 894 3088 
z
" transform="scale(0.015625)"/>
       <path id="Garamond-68" d="M 119 75 
Q 484 141 541 175 
Q 575 197 575 275 
L 572 481 
L 575 847 
L 569 1778 
L 572 2125 
L 572 2372 
L 581 2675 
Q 581 3388 567 3527 
Q 553 3666 513 3700 
Q 438 3772 100 3850 
L 100 3866 
Q 100 3888 106 3928 
Q 150 3934 190 3943 
Q 231 3953 269 3956 
Q 641 4063 809 4163 
L 963 4163 
Q 969 4075 969 3609 
L 966 3213 
L 969 2700 
L 956 2069 
Q 956 2013 963 1944 
Q 1159 2172 1250 2247 
Q 1413 2378 1597 2454 
Q 1781 2531 1984 2531 
Q 2369 2531 2613 2206 
Q 2753 2016 2753 1666 
L 2744 1347 
L 2747 1169 
L 2734 859 
Q 2722 475 2722 403 
Q 2722 322 2728 184 
L 2906 144 
Q 3084 106 3181 75 
L 3178 -22 
L 2513 -3 
Q 2456 -3 2206 -16 
Q 2053 -22 2028 -22 
L 1959 -22 
Q 1944 6 1944 25 
L 1944 53 
Q 1988 109 2106 128 
L 2294 172 
Q 2331 203 2338 238 
Q 2350 319 2366 1044 
L 2372 1275 
Q 2384 1641 2316 1881 
Q 2272 2047 2117 2145 
Q 1963 2244 1759 2244 
Q 1591 2244 1441 2172 
Q 1338 2119 1194 1987 
Q 1050 1856 994 1763 
Q 956 1700 956 1556 
L 959 1338 
L 953 1109 
Q 953 1081 963 719 
L 959 519 
L 966 300 
Q 969 253 975 231 
L 1416 125 
Q 1450 116 1519 88 
L 1528 53 
Q 1528 38 1513 3 
Q 1422 0 1375 0 
L 1131 3 
L 594 -3 
L 191 -16 
Q 159 -13 97 -9 
L 94 13 
Q 94 38 119 75 
z
" transform="scale(0.015625)"/>
       <path id="Garamond-6c" d="M 163 3872 
L 163 3941 
Q 250 3969 356 4000 
Q 513 4050 819 4153 
L 966 4153 
Q 969 4003 969 3981 
Q 969 1416 953 922 
Q 944 631 944 613 
Q 944 263 972 222 
Q 1009 166 1201 144 
Q 1394 122 1428 100 
Q 1453 88 1453 56 
Q 1453 22 1439 8 
Q 1425 -6 1388 -6 
Q 1366 -6 1059 3 
L 650 16 
L 125 -6 
Q 75 -9 50 13 
Q 31 28 31 56 
Q 31 88 51 102 
Q 72 116 276 150 
Q 481 184 511 207 
Q 541 231 550 313 
Q 563 425 563 947 
L 559 1666 
L 569 2409 
L 566 3153 
L 575 3519 
Q 575 3628 540 3676 
Q 506 3725 394 3772 
Q 225 3841 163 3872 
z
" transform="scale(0.015625)"/>
       <path id="Garamond-79" d="M 38 2463 
Q 106 2469 153 2469 
L 303 2469 
L 506 2475 
L 772 2466 
L 988 2472 
Q 1159 2472 1297 2450 
Q 1309 2419 1309 2400 
L 1306 2375 
Q 1241 2344 1103 2331 
Q 909 2316 825 2263 
L 819 2228 
Q 819 2197 844 2134 
Q 859 2097 884 2022 
Q 953 1791 1181 1128 
Q 1347 650 1488 306 
Q 1575 494 1688 781 
L 1953 1522 
Q 2041 1766 2088 2009 
Q 2106 2106 2106 2163 
Q 2106 2209 2065 2250 
Q 2025 2291 1903 2319 
Q 1681 2375 1662 2389 
Q 1644 2403 1641 2450 
Q 1659 2466 1684 2475 
L 1878 2475 
L 2088 2472 
L 2400 2475 
L 2600 2472 
L 2650 2475 
Q 2672 2475 2722 2469 
Q 2753 2453 2753 2419 
Q 2753 2388 2725 2363 
L 2663 2353 
Q 2481 2328 2384 2259 
Q 2331 2222 2294 2103 
Q 2281 2059 2253 1991 
Q 2238 1953 2208 1865 
Q 2178 1778 2131 1659 
L 2094 1572 
L 2091 1556 
L 1559 156 
L 1172 -897 
Q 1134 -975 1084 -1091 
Q 966 -1313 944 -1334 
Q 850 -1450 781 -1497 
L 622 -1566 
Q 575 -1578 522 -1578 
Q 381 -1578 315 -1517 
Q 250 -1456 250 -1350 
Q 250 -1250 347 -1169 
Q 378 -1159 409 -1144 
L 450 -1134 
Q 728 -1184 797 -1184 
Q 863 -1150 894 -1103 
Q 1047 -875 1156 -594 
Q 1266 -313 1266 -216 
Q 1266 -109 1184 94 
L 838 1013 
Q 766 1191 409 2175 
Q 388 2238 353 2269 
L 141 2347 
L 75 2359 
Q 22 2381 22 2422 
L 38 2463 
z
" transform="scale(0.015625)"/>
       <path id="Garamond-20" transform="scale(0.015625)"/>
       <path id="Garamond-72" d="M 128 -9 
L 116 31 
Q 116 53 144 97 
L 328 134 
L 588 181 
Q 619 197 631 225 
Q 650 266 650 466 
Q 650 1528 637 1692 
Q 625 1856 581 1900 
Q 538 1944 356 1969 
Q 250 1984 188 2009 
L 200 2103 
Q 528 2238 641 2334 
Q 797 2475 906 2703 
L 1013 2700 
Q 1031 2544 1031 2006 
L 1028 1953 
Q 1028 1934 1034 1894 
Q 1153 2109 1331 2291 
L 1403 2363 
Q 1447 2413 1488 2441 
Q 1706 2572 1813 2572 
Q 1950 2572 2037 2480 
Q 2125 2388 2125 2253 
Q 2125 2147 2063 2088 
Q 1978 2009 1869 2009 
Q 1819 2009 1672 2062 
Q 1525 2116 1478 2116 
Q 1391 2116 1356 2088 
Q 1269 2019 1144 1806 
Q 1047 1647 1047 1513 
L 1063 997 
L 1069 378 
Q 1078 272 1094 241 
Q 1106 219 1156 188 
Q 1494 159 1556 147 
Q 1600 144 1622 141 
Q 1756 138 1809 103 
Q 1838 88 1838 56 
Q 1838 38 1813 6 
L 1466 9 
L 1334 13 
L 1144 9 
L 825 9 
L 653 0 
L 128 -9 
z
" transform="scale(0.015625)"/>
       <path id="Garamond-65" d="M 2475 1650 
L 1222 1641 
L 984 1641 
Q 841 1641 691 1628 
Q 663 1534 663 1500 
L 666 1469 
L 666 1438 
L 663 1284 
Q 663 1094 783 817 
Q 903 541 1126 395 
Q 1350 250 1684 241 
Q 1863 250 1969 284 
Q 2075 319 2269 444 
L 2494 628 
L 2513 503 
Q 2513 481 2509 456 
Q 2369 278 2153 143 
Q 1938 9 1716 -53 
Q 1609 -81 1366 -81 
Q 1144 -81 928 9 
Q 609 147 426 451 
Q 244 756 244 1191 
Q 244 1328 295 1543 
Q 347 1759 481 2003 
Q 572 2169 703 2275 
Q 891 2425 1031 2484 
Q 1234 2569 1503 2569 
Q 1794 2569 1978 2463 
Q 2228 2322 2351 2100 
Q 2475 1878 2475 1694 
L 2475 1650 
z
M 731 1763 
L 878 1763 
Q 1038 1763 1828 1813 
Q 1953 1819 1981 1838 
Q 2038 1897 2038 1944 
Q 2038 2041 1975 2164 
Q 1913 2288 1783 2355 
Q 1653 2422 1481 2422 
Q 1119 2422 900 2150 
Q 731 1944 731 1763 
z
" transform="scale(0.015625)"/>
       <path id="Garamond-75" d="M 103 2453 
L 338 2453 
L 441 2447 
L 522 2453 
Q 844 2453 922 2447 
L 925 2388 
Q 925 1947 913 1534 
Q 903 1291 903 1256 
Q 903 706 939 568 
Q 975 431 1108 348 
Q 1241 266 1428 266 
Q 1656 266 1864 361 
Q 2072 456 2219 594 
Q 2234 713 2234 856 
Q 2234 1322 2244 1484 
Q 2247 1581 2247 1653 
Q 2247 2159 2197 2225 
Q 2147 2291 1816 2325 
Q 1706 2338 1656 2347 
Q 1631 2388 1631 2409 
L 1641 2444 
Q 1722 2453 1800 2453 
L 2297 2447 
Q 2563 2453 2578 2453 
Q 2613 2453 2644 2450 
L 2650 2222 
Q 2628 1747 2625 1047 
L 2619 794 
L 2631 369 
Q 2659 319 2681 309 
Q 2719 294 2834 294 
L 2863 294 
Q 2903 294 3094 275 
Q 3097 234 3097 216 
L 3097 181 
Q 2678 91 2419 0 
Q 2316 -34 2244 -50 
Q 2228 59 2228 84 
L 2228 338 
Q 2228 353 2225 422 
Q 2184 394 2131 353 
Q 1884 163 1609 31 
Q 1425 -59 1253 -59 
Q 925 -59 719 184 
Q 509 428 509 1016 
Q 509 1047 513 1128 
Q 525 1278 525 1338 
Q 525 1359 522 1475 
Q 519 1525 519 1563 
Q 519 1591 522 1689 
Q 525 1788 525 1828 
Q 525 1881 522 1922 
L 516 2088 
L 519 2175 
Q 519 2225 469 2266 
Q 272 2319 211 2326 
Q 150 2334 103 2353 
L 103 2453 
z
" transform="scale(0.015625)"/>
      </defs>
      <use xlink:href="#Garamond-4d"/>
      <use xlink:href="#Garamond-6f" transform="translate(83.349609 0)"/>
      <use xlink:href="#Garamond-6e" transform="translate(134.375 0)"/>
      <use xlink:href="#Garamond-74" transform="translate(185.400391 0)"/>
      <use xlink:href="#Garamond-68" transform="translate(214.550781 0)"/>
      <use xlink:href="#Garamond-6c" transform="translate(265.576172 0)"/>
      <use xlink:href="#Garamond-79" transform="translate(288.476562 0)"/>
      <use xlink:href="#Garamond-20" transform="translate(330.126953 0)"/>
      <use xlink:href="#Garamond-72" transform="translate(355.126953 0)"/>
      <use xlink:href="#Garamond-65" transform="translate(388.476562 0)"/>
      <use xlink:href="#Garamond-74" transform="translate(430.126953 0)"/>
      <use xlink:href="#Garamond-75" transform="translate(459.277344 0)"/>
      <use xlink:href="#Garamond-72" transform="translate(508.251953 0)"/>
      <use xlink:href="#Garamond-6e" transform="translate(543.601562 0)"/>
     </g>
    </g>
   </g>
   <g id="matplotlib.axis_2">
    <g id="ytick_1">
     <g id="line2d_8">
      <defs>
       <path id="medd938be94" d="M 0 0 
L -3.5 0 
" style="stroke: #000000; stroke-width: 0.8"/>
      </defs>
      <g>
       <use xlink:href="#medd938be94" x="48.427188" y="269.741562" style="stroke: #000000; stroke-width: 0.8"/>
      </g>
     </g>
     <g id="text_9">
      <!-- 0% -->
      <g transform="translate(27.22 273.310547) scale(0.11 -0.11)">
       <use xlink:href="#Garamond-30"/>
       <use xlink:href="#Garamond-25" transform="translate(46.875 0)"/>
      </g>
     </g>
    </g>
    <g id="ytick_2">
     <g id="line2d_9">
      <g>
       <use xlink:href="#medd938be94" x="48.427188" y="217.942665" style="stroke: #000000; stroke-width: 0.8"/>
      </g>
     </g>
     <g id="text_10">
      <!-- 4% -->
      <g transform="translate(27.22 221.511649) scale(0.11 -0.11)">
       <defs>
        <path id="Garamond-34" d="M 2097 4075 
L 2241 4075 
Q 2238 3978 2238 3959 
L 2247 3500 
L 2228 3088 
L 2241 2628 
L 2241 2266 
L 2247 1772 
Q 2247 1656 2241 1422 
L 2306 1419 
L 2528 1419 
L 2741 1416 
L 2916 1422 
Q 2922 1325 2922 1278 
Q 2922 1231 2916 1134 
Q 2722 1125 2706 1125 
L 2550 1128 
L 2425 1128 
Q 2375 1128 2241 1134 
Q 2234 691 2241 -44 
Q 2222 -63 2200 -69 
L 2006 -75 
Q 1944 -75 1816 -69 
Q 1825 300 1825 459 
Q 1825 600 1819 716 
Q 1809 928 1809 959 
Q 1809 1016 1816 1134 
Q 1684 1119 1613 1119 
Q 1575 1119 1528 1122 
Q 1213 1138 1172 1138 
Q 1131 1138 972 1116 
L 650 1134 
L 475 1125 
L 356 1144 
L 206 1113 
L 178 1134 
Q 172 1203 172 1238 
Q 172 1272 178 1341 
Q 266 1456 500 1809 
L 1109 2694 
Q 1334 3028 1487 3225 
Q 1641 3422 1791 3648 
Q 1941 3875 2097 4075 
z
M 1816 1422 
L 1819 1934 
L 1816 2341 
L 1816 3388 
Q 1559 3050 1103 2366 
Q 581 1584 484 1422 
Q 622 1428 691 1428 
L 1547 1416 
Q 1641 1416 1816 1422 
z
" transform="scale(0.015625)"/>
       </defs>
       <use xlink:href="#Garamond-34"/>
       <use xlink:href="#Garamond-25" transform="translate(46.875 0)"/>
      </g>
     </g>
    </g>
    <g id="ytick_3">
     <g id="line2d_10">
      <g>
       <use xlink:href="#medd938be94" x="48.427188" y="166.143767" style="stroke: #000000; stroke-width: 0.8"/>
      </g>
     </g>
     <g id="text_11">
      <!-- 8% -->
      <g transform="translate(27.22 169.712751) scale(0.11 -0.11)">
       <defs>
        <path id="Garamond-38" d="M 1206 1997 
Q 903 2159 794 2256 
Q 638 2391 533 2603 
Q 428 2816 428 3038 
Q 428 3425 736 3739 
Q 1044 4053 1491 4053 
Q 1994 4053 2287 3787 
Q 2581 3522 2581 3141 
Q 2581 2928 2493 2753 
Q 2406 2578 2234 2438 
Q 2119 2341 1838 2197 
Q 2266 1969 2347 1903 
Q 2516 1772 2631 1556 
Q 2747 1341 2747 1078 
Q 2747 588 2408 250 
Q 2069 -88 1544 -88 
Q 1003 -88 683 207 
Q 363 503 363 938 
Q 363 1184 447 1386 
Q 531 1588 709 1731 
Q 847 1841 1206 1997 
z
M 1697 2269 
Q 1959 2413 2063 2566 
Q 2231 2819 2231 3141 
Q 2231 3391 2131 3570 
Q 2031 3750 1864 3828 
Q 1697 3906 1503 3906 
Q 1194 3906 994 3693 
Q 794 3481 794 3172 
Q 794 2991 847 2870 
Q 900 2750 1016 2647 
Q 1091 2578 1366 2400 
Q 1406 2375 1563 2322 
Q 1609 2306 1697 2269 
z
M 1359 1928 
Q 1134 1809 1044 1719 
Q 906 1588 828 1406 
Q 750 1225 750 906 
Q 750 572 897 381 
Q 1141 66 1534 66 
Q 1894 66 2123 294 
Q 2353 522 2353 881 
Q 2353 1272 2120 1500 
Q 1888 1728 1359 1928 
z
" transform="scale(0.015625)"/>
       </defs>
       <use xlink:href="#Garamond-38"/>
       <use xlink:href="#Garamond-25" transform="translate(46.875 0)"/>
      </g>
     </g>
    </g>
    <g id="ytick_4">
     <g id="line2d_11">
      <g>
       <use xlink:href="#medd938be94" x="48.427188" y="114.344869" style="stroke: #000000; stroke-width: 0.8"/>
      </g>
     </g>
     <g id="text_12">
      <!-- 12% -->
      <g transform="translate(22.06375 117.913853) scale(0.11 -0.11)">
       <defs>
        <path id="Garamond-32" d="M 2728 6 
Q 2259 25 1472 25 
L 794 6 
L 491 16 
L 250 6 
Q 213 9 141 22 
Q 197 153 284 263 
Q 544 581 1044 1084 
Q 1744 1788 1966 2189 
Q 2188 2591 2188 2944 
Q 2188 3275 1963 3500 
Q 1738 3725 1409 3725 
Q 1213 3725 1028 3633 
Q 844 3541 731 3400 
Q 659 3309 541 3038 
Q 475 2888 463 2875 
Q 444 2853 419 2853 
Q 394 2853 370 2879 
Q 347 2906 347 2947 
Q 347 3088 489 3397 
Q 631 3706 907 3881 
Q 1184 4056 1550 4056 
Q 2028 4056 2348 3745 
Q 2669 3434 2669 3003 
Q 2669 2663 2450 2311 
Q 2231 1959 1444 1234 
Q 1184 997 1075 884 
Q 966 772 634 397 
Q 1113 378 1503 378 
Q 1588 378 1688 384 
Q 1872 391 1903 391 
L 2338 381 
Q 2409 381 2484 450 
Q 2559 519 2688 838 
L 2763 841 
Q 2778 841 2809 838 
Q 2825 806 2825 791 
L 2819 766 
Q 2794 675 2775 434 
Q 2763 294 2728 6 
z
" transform="scale(0.015625)"/>
       </defs>
       <use xlink:href="#Garamond-31"/>
       <use xlink:href="#Garamond-32" transform="translate(46.875 0)"/>
       <use xlink:href="#Garamond-25" transform="translate(93.75 0)"/>
      </g>
     </g>
    </g>
    <g id="ytick_5">
     <g id="line2d_12">
      <g>
       <use xlink:href="#medd938be94" x="48.427188" y="62.545971" style="stroke: #000000; stroke-width: 0.8"/>
      </g>
     </g>
     <g id="text_13">
      <!-- 16% -->
      <g transform="translate(22.06375 66.114955) scale(0.11 -0.11)">
       <defs>
        <path id="Garamond-36" d="M 2459 4094 
Q 2488 4047 2500 3991 
Q 2481 3956 2441 3944 
Q 2309 3909 2053 3763 
Q 1994 3731 1691 3472 
Q 1556 3378 1366 3122 
Q 1106 2778 993 2508 
Q 881 2238 794 1800 
Q 769 1675 759 1359 
L 750 1244 
Q 750 844 986 445 
Q 1222 47 1575 47 
Q 1759 47 1920 159 
Q 2081 272 2175 540 
Q 2269 809 2269 1191 
Q 2269 1709 2070 1957 
Q 1872 2206 1594 2206 
Q 1509 2206 1444 2181 
L 1419 2175 
Q 1378 2175 1334 2266 
Q 1416 2319 1531 2353 
Q 1647 2388 1681 2388 
Q 1703 2388 1966 2341 
L 2056 2297 
Q 2206 2250 2284 2188 
Q 2428 2072 2541 1897 
Q 2597 1806 2691 1528 
Q 2697 1509 2734 1253 
L 2719 941 
Q 2653 659 2594 547 
Q 2506 375 2300 172 
Q 2194 69 2025 3 
Q 1788 -88 1522 -88 
Q 1016 -88 664 317 
Q 313 722 313 1491 
Q 313 1919 444 2301 
Q 575 2684 816 3003 
Q 978 3219 1258 3466 
Q 1538 3713 1788 3850 
Q 2128 4031 2459 4094 
z
" transform="scale(0.015625)"/>
       </defs>
       <use xlink:href="#Garamond-31"/>
       <use xlink:href="#Garamond-36" transform="translate(46.875 0)"/>
       <use xlink:href="#Garamond-25" transform="translate(93.75 0)"/>
      </g>
     </g>
    </g>
    <g id="text_14">
     <!-- % of months -->
     <g transform="translate(14.986875 179.187187) rotate(-90) scale(0.12 -0.12)">
      <defs>
       <path id="Garamond-66" d="M 1150 2434 
Q 1928 2416 1978 2416 
Q 1984 2347 1984 2313 
Q 1984 2272 1975 2191 
Q 1897 2178 1816 2178 
L 1697 2178 
Q 1309 2178 1159 2150 
Q 1153 2078 1153 2041 
Q 1153 2025 1156 1994 
Q 1172 1503 1172 1400 
L 1166 597 
Q 1166 419 1225 300 
Q 1259 231 1353 191 
Q 1413 163 1641 134 
Q 1813 109 1872 100 
Q 1872 34 1863 0 
L 1819 -3 
Q 1669 6 1428 13 
L 1197 22 
L 409 -3 
L 306 -3 
L 303 94 
Q 350 103 372 109 
Q 641 159 719 222 
Q 750 247 763 313 
Q 769 350 769 663 
Q 769 1553 753 2084 
Q 672 2109 503 2116 
Q 441 2116 306 2128 
L 300 2163 
Q 300 2200 331 2225 
Q 344 2238 594 2356 
Q 691 2400 731 2466 
Q 753 2500 756 2609 
Q 759 2659 775 2781 
Q 813 3103 834 3178 
Q 891 3388 1023 3595 
Q 1156 3803 1344 3959 
Q 1481 4072 1654 4128 
Q 1828 4184 2050 4184 
Q 2347 4184 2484 4088 
Q 2578 4022 2578 3919 
Q 2578 3831 2512 3768 
Q 2447 3706 2350 3706 
Q 2231 3706 2094 3766 
Q 1834 3869 1800 3878 
Q 1741 3894 1678 3894 
Q 1506 3894 1364 3784 
Q 1222 3675 1184 3515 
Q 1147 3356 1147 2800 
Q 1147 2600 1150 2434 
z
" transform="scale(0.015625)"/>
       <path id="Garamond-6d" d="M 125 109 
Q 175 144 263 156 
Q 388 172 456 206 
Q 513 253 531 341 
Q 553 453 553 1131 
Q 553 1797 513 1991 
Q 444 2034 334 2059 
Q 300 2066 191 2094 
L 191 2197 
Q 375 2250 489 2334 
Q 603 2419 806 2672 
L 825 2672 
Q 844 2672 884 2675 
Q 909 2672 925 2659 
L 922 2303 
Q 922 2194 928 2069 
Q 1263 2372 1528 2494 
Q 1709 2575 1938 2575 
Q 2209 2575 2368 2472 
Q 2528 2369 2672 2100 
Q 2950 2375 3176 2484 
Q 3403 2594 3634 2594 
Q 3984 2594 4209 2366 
Q 4431 2134 4438 1688 
L 4438 1428 
L 4441 1144 
L 4438 413 
Q 4434 284 4494 219 
Q 4519 209 4684 163 
Q 4788 134 4806 118 
Q 4825 103 4825 75 
Q 4825 41 4806 -6 
L 4784 -6 
L 4469 13 
Q 4413 16 4291 16 
Q 4141 16 3872 3 
L 3713 3 
Q 3678 3 3578 0 
Q 3575 28 3575 50 
Q 3575 75 3597 113 
Q 3681 150 3828 173 
Q 3975 197 4011 258 
Q 4047 319 4047 744 
Q 4047 1666 4025 1813 
Q 3988 2047 3827 2180 
Q 3666 2313 3422 2313 
Q 3234 2313 3056 2214 
Q 2878 2116 2706 1919 
L 2703 1844 
L 2703 1366 
L 2691 994 
Q 2691 425 2702 347 
Q 2713 269 2755 233 
Q 2797 197 3000 169 
Q 3091 156 3141 144 
Q 3178 113 3178 63 
Q 3178 22 3150 6 
L 3097 6 
L 2941 9 
L 2031 9 
L 1781 6 
Q 1775 53 1775 75 
L 1778 113 
Q 1847 150 2034 184 
Q 2131 200 2234 238 
Q 2253 253 2263 278 
Q 2278 322 2284 528 
L 2300 891 
L 2294 1300 
L 2297 1528 
Q 2297 1913 2140 2089 
Q 1984 2266 1747 2266 
Q 1525 2266 1301 2156 
Q 1078 2047 931 1863 
Q 928 1775 928 1703 
L 941 653 
Q 944 309 980 261 
Q 1016 213 1141 194 
Q 1341 166 1400 125 
Q 1428 106 1428 69 
Q 1428 44 1425 9 
Q 1069 34 947 34 
Q 822 34 722 31 
L 566 22 
L 469 22 
L 119 9 
Q 113 31 113 47 
Q 113 63 125 109 
z
" transform="scale(0.015625)"/>
       <path id="Garamond-73" d="M 453 794 
Q 569 497 628 409 
Q 747 231 912 132 
Q 1078 34 1272 34 
Q 1450 34 1625 188 
Q 1750 303 1750 456 
Q 1750 659 1603 831 
Q 1456 1000 1045 1154 
Q 634 1309 494 1484 
Q 353 1659 353 1884 
Q 353 2097 468 2259 
Q 584 2422 787 2505 
Q 991 2588 1163 2588 
Q 1384 2588 1561 2553 
Q 1738 2519 1866 2447 
Q 1891 2288 1906 1978 
L 1913 1878 
Q 1872 1875 1844 1875 
L 1800 1875 
Q 1706 2134 1514 2286 
Q 1322 2438 1134 2438 
Q 947 2438 831 2323 
Q 716 2209 716 2025 
Q 716 1884 809 1775 
Q 903 1666 1248 1525 
Q 1594 1384 1751 1264 
Q 1909 1144 1984 972 
Q 2059 800 2059 644 
Q 2059 428 1917 240 
Q 1775 53 1561 -23 
Q 1347 -100 1178 -100 
Q 781 -100 447 47 
Q 416 72 413 141 
Q 413 169 406 231 
Q 356 653 356 731 
Q 356 769 372 781 
Q 388 794 453 794 
z
" transform="scale(0.015625)"/>
      </defs>
      <use xlink:href="#Garamond-25"/>
      <use xlink:href="#Garamond-20" transform="translate(82.275391 0)"/>
      <use xlink:href="#Garamond-6f" transform="translate(107.275391 0)"/>
      <use xlink:href="#Garamond-66" transform="translate(158.300781 0)"/>
      <use xlink:href="#Garamond-20" transform="translate(203.701172 0)"/>
      <use xlink:href="#Garamond-6d" transform="translate(228.701172 0)"/>
      <use xlink:href="#Garamond-6f" transform="translate(305.800781 0)"/>
      <use xlink:href="#Garamond-6e" transform="translate(356.826172 0)"/>
      <use xlink:href="#Garamond-74" transform="translate(407.851562 0)"/>
      <use xlink:href="#Garamond-68" transform="translate(437.001953 0)"/>
      <use xlink:href="#Garamond-73" transform="translate(488.027344 0)"/>
     </g>
    </g>
   </g>
   <g id="line2d_13">
    <path d="M 305.097187 269.741562 
L 305.097187 25.689062 
" clip-path="url(#p175297c5f2)" style="fill: none; stroke: #1f77b4; stroke-width: 1.1; stroke-linecap: square"/>
   </g>
   <g id="patch_37">
    <path d="M 48.427188 269.741562 
L 48.427188 25.689062 
" style="fill: none; stroke: #000000; stroke-width: 0.8; stroke-linejoin: miter; stroke-linecap: square"/>
   </g>
   <g id="patch_38">
    <path d="M 48.427188 269.741562 
L 561.767187 269.741562 
" style="fill: none; stroke: #000000; stroke-width: 0.8; stroke-linejoin: miter; stroke-linecap: square"/>
   </g>
   <g id="text_15">
    <!-- Diamond Creek ETF Arb Fund: Monthly Return Distribution -->
    <g transform="translate(184.71125 13.689062) scale(0.1 -0.1)">
     <defs>
      <path id="Garamond-44" d="M 75 63 
Q 191 113 344 128 
Q 566 153 675 234 
Q 759 406 759 1109 
L 759 1603 
L 766 1900 
L 759 2119 
L 766 2522 
L 756 3538 
Q 756 3709 706 3763 
Q 634 3841 325 3906 
Q 197 3934 169 3957 
Q 141 3981 134 4047 
Q 206 4063 234 4063 
L 456 4063 
L 572 4066 
Q 688 4066 828 4041 
Q 1116 4022 1419 4022 
Q 1506 4022 1669 4031 
Q 2100 4056 2288 4056 
Q 2666 4056 3002 3981 
Q 3338 3906 3694 3703 
Q 3916 3575 4148 3298 
Q 4381 3022 4501 2695 
Q 4622 2369 4622 1959 
Q 4622 1594 4489 1234 
Q 4356 875 4118 611 
Q 3881 347 3637 214 
Q 3394 81 2894 -16 
Q 2688 -53 2153 -53 
Q 1800 -53 1578 -31 
Q 1491 -19 1391 -19 
Q 1375 -19 1356 -22 
L 81 -44 
L 75 -19 
Q 69 -3 69 16 
L 75 63 
z
M 1666 184 
Q 1903 103 2147 103 
Q 2463 103 2766 201 
Q 3069 300 3301 479 
Q 3534 659 3684 886 
Q 3834 1113 3897 1294 
Q 3984 1559 3984 1984 
Q 3984 2391 3813 2809 
Q 3694 3100 3395 3365 
Q 3097 3631 2690 3754 
Q 2284 3878 1813 3878 
Q 1488 3878 1331 3806 
Q 1313 3788 1294 3763 
Q 1275 3684 1275 3619 
Q 1275 3578 1278 3522 
Q 1288 3159 1288 2941 
L 1284 2231 
Q 1284 669 1342 492 
Q 1400 316 1666 184 
z
" transform="scale(0.015625)"/>
      <path id="Garamond-69" d="M 444 3841 
Q 444 3944 523 4019 
Q 603 4094 716 4094 
Q 831 4094 918 4009 
Q 1006 3925 1006 3828 
Q 1006 3731 918 3645 
Q 831 3559 716 3559 
Q 600 3559 522 3637 
Q 444 3716 444 3841 
z
M 181 2222 
L 184 2313 
Q 388 2372 403 2381 
Q 516 2431 639 2534 
Q 763 2638 847 2766 
Q 884 2772 906 2772 
L 944 2769 
Q 956 2619 956 2550 
Q 956 2534 950 2409 
L 950 2244 
L 953 1344 
L 944 391 
Q 941 275 981 229 
Q 1022 184 1222 128 
Q 1347 94 1409 69 
Q 1419 47 1419 31 
Q 1419 13 1403 -16 
Q 1281 -13 1091 0 
Q 831 22 747 22 
Q 706 22 247 6 
Q 153 3 66 -9 
Q 50 -9 16 0 
Q 0 22 0 38 
Q 0 81 59 106 
Q 72 113 378 178 
Q 478 197 509 241 
Q 563 306 563 450 
Q 569 691 569 1769 
Q 569 1984 550 2038 
Q 534 2075 467 2123 
Q 400 2172 181 2222 
z
" transform="scale(0.015625)"/>
      <path id="Garamond-61" d="M 2541 425 
Q 2559 384 2559 366 
Q 2559 319 2484 200 
Q 2388 44 2269 -28 
Q 2194 -75 2063 -75 
Q 1838 -75 1725 63 
Q 1656 144 1628 353 
L 1278 109 
Q 1094 3 997 -25 
Q 841 -66 622 -66 
Q 463 -66 370 29 
Q 278 125 278 275 
Q 278 491 542 791 
Q 806 1091 1259 1281 
Q 1578 1416 1650 1453 
Q 1656 1556 1656 1678 
Q 1656 2075 1545 2215 
Q 1434 2356 1228 2356 
Q 1013 2356 825 2188 
Q 709 2081 650 1788 
Q 631 1706 578 1613 
Q 444 1525 363 1525 
Q 294 1525 238 1566 
Q 206 1588 206 1616 
Q 206 1697 379 1983 
Q 553 2269 817 2411 
Q 1081 2553 1278 2553 
Q 1547 2553 1678 2504 
Q 1809 2456 1909 2334 
Q 2009 2213 2031 2069 
Q 2044 2000 2044 1578 
L 2034 1081 
L 2038 719 
Q 2038 647 2034 597 
Q 2031 506 2031 463 
Q 2031 359 2091 297 
Q 2150 234 2231 234 
Q 2350 234 2434 353 
L 2472 403 
Q 2488 413 2541 425 
z
M 1622 516 
Q 1644 913 1644 1075 
Q 1644 1159 1634 1303 
Q 1425 1228 1190 1075 
Q 956 922 819 722 
Q 719 578 719 450 
Q 719 328 801 247 
Q 884 166 1009 166 
Q 1106 166 1244 234 
Q 1425 325 1622 516 
z
" transform="scale(0.015625)"/>
      <path id="Garamond-64" d="M 2281 2269 
L 2284 2359 
L 2281 2725 
L 2284 3416 
Q 2284 3703 2221 3781 
Q 2159 3859 1856 3941 
Q 1834 3947 1788 3959 
L 1788 3994 
Q 1788 4025 1794 4063 
Q 2219 4106 2525 4209 
L 2684 4213 
Q 2697 4000 2697 3738 
L 2684 2534 
L 2706 1178 
L 2697 456 
Q 2697 234 2728 206 
Q 2791 144 3003 141 
Q 3047 141 3122 134 
L 3122 78 
Q 3122 56 3119 31 
Q 3022 9 2919 -9 
L 2466 -97 
Q 2366 -116 2306 -116 
L 2306 184 
Q 2253 169 2141 122 
Q 1653 -84 1244 -84 
Q 997 -84 740 77 
Q 484 238 346 525 
Q 209 813 209 1113 
Q 209 1381 300 1626 
Q 391 1872 538 2034 
Q 631 2141 803 2245 
Q 975 2350 1088 2378 
Q 1366 2450 1459 2450 
Q 1881 2450 2153 2325 
Q 2238 2284 2281 2269 
z
M 2284 338 
Q 2297 547 2297 1200 
Q 2297 1753 2245 1898 
Q 2194 2044 1987 2173 
Q 1781 2303 1525 2303 
Q 1166 2303 916 2025 
Q 666 1747 666 1203 
Q 666 725 936 440 
Q 1206 156 1609 156 
Q 1841 156 2031 218 
Q 2222 281 2284 338 
z
" transform="scale(0.015625)"/>
      <path id="Garamond-43" d="M 3703 3825 
Q 3741 3584 3741 3331 
Q 3741 3281 3738 3197 
Q 3694 3188 3672 3188 
Q 3653 3188 3619 3194 
Q 3488 3559 3191 3756 
Q 2894 3953 2456 3953 
Q 2225 3953 2066 3900 
Q 1784 3803 1571 3633 
Q 1359 3463 1212 3227 
Q 1066 2991 980 2655 
Q 894 2319 894 1969 
Q 894 1300 1097 864 
Q 1300 428 1653 242 
Q 2006 56 2366 56 
L 2513 59 
Q 2763 91 2853 119 
Q 3081 184 3229 273 
Q 3378 363 3520 525 
Q 3663 688 3763 903 
L 3800 916 
Q 3816 916 3847 897 
Q 3844 822 3841 800 
Q 3709 272 3650 78 
Q 3600 66 3525 41 
Q 3159 -84 2547 -84 
Q 2053 -84 1808 -17 
Q 1563 50 1273 192 
Q 984 334 765 568 
Q 547 803 412 1161 
Q 278 1519 278 1941 
Q 278 2341 384 2639 
Q 491 2938 712 3244 
Q 934 3550 1236 3753 
Q 1538 3956 1906 4041 
Q 2166 4097 2641 4097 
Q 2988 4097 3294 4005 
Q 3600 3913 3703 3825 
z
" transform="scale(0.015625)"/>
      <path id="Garamond-6b" d="M 169 0 
L 163 91 
Q 188 109 209 114 
Q 231 119 367 128 
Q 503 138 537 189 
Q 572 241 572 616 
L 578 1850 
L 572 2069 
Q 572 2097 578 2278 
Q 584 2363 584 2481 
L 572 3025 
L 575 3500 
Q 575 3672 526 3720 
Q 478 3769 184 3809 
L 184 3847 
Q 184 3866 188 3900 
Q 366 3938 503 3994 
Q 575 4025 869 4188 
L 966 4188 
Q 963 4116 963 4100 
L 963 3828 
L 959 3694 
L 969 3447 
L 966 3075 
L 969 2456 
L 959 1688 
L 959 1450 
Q 959 1406 963 1328 
L 997 1325 
Q 1103 1325 1213 1403 
Q 1703 1753 1828 1879 
Q 1953 2006 1953 2063 
Q 1953 2097 1913 2150 
Q 1819 2200 1703 2219 
Q 1669 2225 1628 2234 
Q 1572 2250 1534 2256 
L 1528 2288 
Q 1528 2309 1544 2350 
Q 2038 2369 2403 2369 
Q 2609 2369 2844 2359 
L 2844 2319 
Q 2844 2297 2828 2263 
Q 2781 2253 2681 2234 
Q 2488 2203 2388 2147 
Q 2147 2019 1891 1788 
Q 1738 1650 1625 1556 
L 1513 1459 
Q 1525 1438 1553 1406 
Q 1566 1394 1603 1350 
Q 1641 1306 1738 1203 
Q 2075 847 2238 653 
Q 2291 591 2356 516 
Q 2600 244 2641 213 
Q 2728 156 2900 125 
Q 2981 109 3041 97 
Q 3053 59 3053 38 
L 3050 6 
Q 2828 25 2731 25 
L 2675 25 
L 1806 0 
Q 1756 -6 1738 -6 
Q 1706 -6 1672 6 
Q 1663 31 1663 50 
L 1663 72 
Q 1681 100 1697 106 
Q 2006 131 2056 147 
Q 2084 153 2109 181 
Q 2109 234 2018 353 
Q 1928 472 1566 875 
Q 1334 1131 1267 1173 
Q 1200 1216 1081 1216 
L 963 1216 
Q 950 1103 950 700 
Q 950 325 1013 219 
Q 1047 159 1175 143 
Q 1303 128 1341 97 
Q 1366 78 1372 9 
Q 1184 13 1056 13 
Q 850 13 606 3 
Q 459 -3 375 -3 
Q 313 -3 169 0 
z
" transform="scale(0.015625)"/>
      <path id="Garamond-45" d="M 156 50 
Q 188 78 209 84 
Q 263 100 391 109 
Q 694 128 766 166 
Q 809 228 809 341 
L 806 559 
L 809 1353 
L 803 1728 
L 806 2513 
L 791 3403 
Q 788 3722 750 3763 
Q 694 3822 416 3831 
Q 297 3834 206 3850 
Q 166 3872 166 3906 
Q 166 3931 181 3966 
Q 209 3981 231 3981 
Q 275 3981 338 3978 
Q 522 3963 719 3963 
L 950 3969 
L 1500 3956 
Q 1913 3956 2144 3965 
Q 2375 3975 2456 3975 
Q 2528 3975 2813 3963 
L 3256 3966 
L 3309 3956 
L 3569 3966 
L 3600 3950 
Q 3616 3925 3622 3897 
Q 3622 3853 3608 3762 
Q 3594 3672 3594 3650 
Q 3594 3325 3616 3100 
Q 3613 3081 3597 3075 
Q 3563 3075 3534 3084 
Q 3500 3144 3442 3294 
Q 3384 3444 3269 3641 
Q 3191 3772 3147 3797 
Q 3103 3822 2966 3822 
Q 2938 3822 2681 3828 
Q 2613 3831 2547 3831 
L 1656 3813 
L 1578 3813 
Q 1406 3813 1372 3769 
Q 1319 3694 1319 3328 
Q 1319 3291 1334 2578 
L 1334 2144 
Q 1369 2134 1409 2134 
L 1463 2134 
Q 1516 2134 1619 2131 
Q 1781 2125 1838 2125 
Q 1875 2125 1903 2128 
Q 2241 2141 2772 2141 
Q 2938 2169 2966 2206 
Q 3013 2263 3036 2500 
Q 3059 2738 3141 2769 
Q 3181 2769 3216 2753 
Q 3222 2728 3222 2706 
Q 3222 2684 3216 2634 
Q 3200 2519 3200 1909 
Q 3200 1747 3217 1547 
Q 3234 1347 3234 1331 
Q 3234 1303 3225 1256 
Q 3200 1244 3184 1244 
L 3163 1244 
Q 3113 1331 3066 1516 
Q 2984 1831 2895 1911 
Q 2806 1991 2606 1991 
Q 2563 1991 2447 1986 
Q 2331 1981 2103 1981 
L 1900 1981 
Q 1466 1981 1331 1963 
L 1328 1859 
L 1331 1284 
L 1328 922 
L 1331 569 
Q 1334 250 1372 200 
Q 1425 131 1603 131 
L 1794 134 
Q 1819 134 1989 129 
Q 2159 125 2409 125 
Q 3013 125 3213 176 
Q 3413 228 3542 359 
Q 3672 491 3869 925 
Q 3928 1053 3988 1053 
Q 4016 1053 4050 1028 
Q 3959 719 3947 622 
Q 3913 403 3906 175 
Q 3906 72 3856 3 
L 3788 3 
L 2909 -6 
L 2516 -3 
L 1578 -16 
L 1197 -16 
Q 1125 -16 1063 -19 
Q 500 -44 234 -44 
Q 188 -44 170 -28 
Q 153 -13 153 19 
L 156 50 
z
" transform="scale(0.015625)"/>
      <path id="Garamond-54" d="M 113 3531 
L 241 4003 
Q 253 4097 275 4123 
Q 297 4150 325 4150 
Q 381 4150 453 4016 
Q 506 3919 540 3892 
Q 575 3866 641 3856 
L 672 3859 
L 806 3847 
L 1544 3838 
L 2416 3841 
L 2672 3841 
L 3156 3850 
Q 3188 3850 3234 3844 
Q 3447 3825 3497 3825 
Q 3544 3825 3572 3856 
Q 3581 3869 3675 4069 
Q 3716 4159 3775 4159 
Q 3800 4159 3838 4147 
Q 3853 4084 3853 4034 
L 3850 3909 
L 3853 3644 
Q 3853 3547 3838 3019 
Q 3838 2984 3825 2956 
Q 3791 2934 3766 2934 
Q 3741 2934 3722 2957 
Q 3703 2981 3675 3103 
Q 3613 3384 3519 3506 
Q 3456 3584 3339 3618 
Q 3222 3653 2778 3653 
Q 2422 3653 2250 3641 
Q 2244 3516 2244 3413 
L 2269 1472 
Q 2269 1356 2256 1034 
L 2259 619 
L 2256 388 
Q 2256 278 2293 231 
Q 2331 184 2497 141 
Q 2784 69 2881 53 
Q 2941 47 2978 28 
L 2978 -66 
L 2534 -53 
Q 2169 -50 1984 -38 
L 1528 -59 
L 1194 -78 
Q 1053 -78 1022 -72 
L 978 -53 
Q 984 19 1006 39 
Q 1028 59 1122 72 
Q 1253 91 1431 139 
Q 1609 188 1666 238 
Q 1697 266 1709 331 
Q 1738 469 1738 872 
L 1738 1403 
L 1725 2563 
L 1713 2813 
L 1709 3647 
Q 1513 3669 1206 3669 
Q 756 3669 659 3613 
Q 506 3525 203 3100 
Q 103 2941 28 2941 
L 0 2947 
Q -13 2966 -13 2981 
Q -13 3019 38 3206 
Q 100 3447 113 3531 
z
" transform="scale(0.015625)"/>
      <path id="Garamond-46" d="M 184 -47 
L 188 31 
Q 256 66 417 92 
Q 578 119 639 145 
Q 700 172 741 216 
Q 769 353 769 713 
L 725 3144 
L 734 3547 
Q 734 3672 689 3719 
Q 644 3766 453 3805 
Q 263 3844 228 3869 
Q 194 3894 194 3922 
Q 194 3938 203 3963 
Q 244 3988 288 3988 
Q 334 3988 478 3981 
L 566 3981 
Q 609 3981 813 3988 
L 1247 3988 
L 2144 4003 
L 3094 4041 
L 3178 4041 
L 3313 4044 
Q 3369 4044 3413 4013 
Q 3431 3963 3434 3941 
L 3431 3816 
L 3459 3256 
Q 3459 3222 3453 3169 
Q 3403 3147 3363 3147 
Q 3334 3147 3319 3166 
Q 3294 3200 3288 3297 
Q 3275 3431 3191 3644 
Q 3150 3744 3056 3781 
Q 2869 3853 2425 3853 
Q 2216 3853 2034 3842 
Q 1853 3831 1813 3831 
L 1569 3834 
Q 1419 3834 1322 3791 
Q 1256 3763 1256 3656 
L 1256 3609 
Q 1266 3450 1266 3256 
L 1256 2406 
Q 1256 2281 1275 2169 
L 1366 2163 
L 1541 2172 
L 2138 2172 
Q 2497 2172 2638 2222 
Q 2731 2256 2778 2325 
Q 2794 2347 2856 2572 
L 2897 2831 
Q 2934 2850 2953 2850 
Q 2969 2850 3003 2834 
Q 3016 2763 3019 2616 
L 3056 1466 
Q 3003 1444 2975 1444 
L 2941 1450 
Q 2891 1763 2784 1941 
Q 2747 2003 2700 2013 
Q 2619 2031 1956 2031 
Q 1750 2031 1672 2028 
Q 1484 2019 1447 2019 
L 1416 2019 
Q 1322 2019 1281 1994 
Q 1269 1956 1269 1941 
L 1269 1725 
Q 1269 1688 1272 1413 
L 1266 378 
Q 1266 334 1291 269 
Q 1356 216 1529 198 
Q 1703 181 1856 116 
Q 1944 75 1944 25 
Q 1944 3 1931 -15 
Q 1919 -34 1888 -44 
Q 1631 9 1178 9 
Q 938 9 669 -34 
Q 484 -63 247 -63 
L 184 -47 
z
" transform="scale(0.015625)"/>
      <path id="Garamond-41" d="M -34 100 
Q 9 125 44 125 
L 116 125 
Q 138 125 191 128 
Q 431 150 475 172 
Q 584 231 663 378 
Q 825 697 1028 1281 
Q 1125 1559 1150 1619 
Q 1228 1806 1300 2013 
L 1594 2834 
Q 1663 3028 1925 3722 
Q 1991 3897 2084 4191 
L 2175 4197 
L 2284 4194 
Q 2419 3928 2522 3622 
Q 2578 3459 2706 3138 
L 3181 1853 
L 3434 1156 
Q 3634 563 3696 427 
Q 3759 291 3813 247 
Q 3828 234 3929 209 
Q 4031 184 4072 172 
Q 4216 131 4272 103 
Q 4284 69 4284 50 
Q 4284 34 4275 3 
Q 4175 0 4134 0 
Q 3975 0 3572 9 
L 3259 19 
L 2881 13 
Q 2844 13 2805 17 
Q 2766 22 2738 22 
L 2669 22 
Q 2634 25 2606 41 
Q 2606 84 2622 125 
Q 2659 144 2691 147 
L 3019 169 
Q 3147 175 3213 203 
Q 3231 259 3231 288 
Q 3231 344 3150 578 
Q 3094 734 3051 875 
Q 3009 1016 2719 1800 
Q 2591 1822 2494 1822 
L 1825 1816 
L 1628 1819 
Q 1522 1819 1394 1803 
Q 1353 1709 1341 1669 
L 1066 809 
Q 891 319 891 269 
Q 891 241 919 175 
Q 984 156 1094 141 
L 1519 103 
Q 1553 75 1553 53 
Q 1553 38 1544 6 
Q 1403 3 1328 3 
Q 1078 3 747 19 
Q 594 25 528 25 
Q 463 25 300 19 
Q 194 13 147 13 
Q 72 13 -47 22 
L -47 41 
Q -47 63 -34 100 
z
M 1456 1975 
Q 1791 1956 2219 1956 
Q 2463 1956 2647 1972 
Q 2616 2094 2575 2200 
Q 2372 2744 2350 2800 
L 2066 3522 
L 2034 3578 
Q 2016 3541 1897 3256 
Q 1697 2769 1609 2497 
Q 1569 2375 1525 2254 
Q 1481 2134 1470 2086 
Q 1459 2038 1438 1988 
L 1456 1975 
z
" transform="scale(0.015625)"/>
      <path id="Garamond-62" d="M 106 3928 
L 106 3944 
Q 106 3975 131 4031 
Q 472 4091 856 4213 
Q 878 4216 925 4216 
Q 941 4166 941 4150 
L 941 3219 
L 938 2922 
L 941 2591 
L 934 2322 
Q 934 2306 941 2216 
L 1197 2313 
Q 1238 2325 1466 2394 
Q 1756 2441 1803 2441 
Q 2116 2441 2366 2341 
Q 2519 2278 2669 2133 
Q 2819 1988 2891 1825 
Q 3016 1528 3016 1313 
Q 3016 972 2972 841 
Q 2866 528 2712 347 
Q 2559 166 2284 37 
Q 2009 -91 1700 -91 
Q 1416 -91 1162 15 
Q 909 122 878 122 
Q 781 122 631 -134 
L 541 -131 
Q 528 78 528 384 
L 534 850 
L 531 1088 
L 538 1769 
L 531 1900 
L 544 2222 
L 544 2497 
L 547 2609 
Q 547 2644 544 2881 
L 544 3069 
Q 553 3613 497 3697 
Q 406 3831 106 3928 
z
M 1591 81 
Q 2066 81 2314 348 
Q 2563 616 2563 1144 
Q 2563 1628 2281 1928 
Q 2000 2228 1588 2228 
Q 1288 2228 1084 2131 
Q 963 2072 948 2022 
Q 934 1972 934 1353 
Q 934 619 966 494 
Q 1019 300 1159 216 
Q 1381 81 1591 81 
z
" transform="scale(0.015625)"/>
      <path id="Garamond-3a" d="M 366 2163 
Q 366 2281 464 2381 
Q 563 2481 691 2481 
Q 828 2481 931 2378 
Q 1034 2275 1034 2141 
Q 1034 1988 916 1863 
Q 838 1775 684 1775 
Q 547 1775 456 1875 
Q 366 1975 366 2163 
z
M 381 259 
Q 381 397 482 500 
Q 584 603 719 603 
Q 847 603 939 506 
Q 1031 409 1031 263 
Q 1031 116 936 16 
Q 841 -84 706 -84 
Q 550 -84 465 33 
Q 381 150 381 259 
z
" transform="scale(0.015625)"/>
      <path id="Garamond-52" d="M 175 94 
Q 631 147 691 169 
Q 731 184 766 263 
L 766 297 
Q 766 375 791 863 
Q 797 1000 797 1131 
L 788 1503 
L 794 1925 
L 791 2709 
L 794 3272 
Q 797 3628 739 3706 
Q 681 3784 440 3817 
Q 200 3850 175 3865 
Q 150 3881 150 3916 
Q 150 3938 159 3972 
Q 191 4000 303 4003 
Q 319 4003 389 4011 
Q 459 4019 522 4019 
L 778 4019 
L 1600 4028 
Q 2297 4028 2576 3925 
Q 2856 3822 3022 3576 
Q 3188 3331 3188 3028 
Q 3188 2453 2584 2150 
Q 2481 2097 2422 2056 
Q 2528 1831 2719 1516 
L 3116 834 
Q 3353 459 3443 364 
Q 3534 269 3664 206 
Q 3794 144 4100 88 
Q 4103 56 4103 38 
Q 4103 19 4100 -9 
Q 3672 -16 3097 -16 
Q 3056 -16 2984 -9 
Q 2763 416 2463 925 
L 2000 1769 
Q 1906 1900 1845 1933 
Q 1784 1966 1684 1966 
L 1419 1963 
L 1331 1966 
Q 1322 1866 1322 1556 
L 1322 488 
Q 1319 428 1347 322 
Q 1372 263 1433 227 
Q 1494 191 1784 119 
L 1913 88 
Q 1938 56 1938 3 
Q 1853 -13 1819 -13 
Q 1538 -13 1422 -6 
Q 1363 -3 1325 -3 
L 900 -9 
L 484 -6 
Q 456 -6 200 -16 
L 138 -3 
L 131 28 
Q 131 56 175 94 
z
M 1338 2138 
Q 1422 2134 1463 2134 
Q 1688 2134 1981 2188 
Q 2188 2228 2316 2320 
Q 2444 2413 2530 2594 
Q 2616 2775 2616 2969 
Q 2616 3181 2481 3419 
Q 2378 3600 2133 3722 
Q 1888 3844 1544 3844 
Q 1459 3844 1325 3834 
Q 1313 3672 1313 3584 
L 1328 3000 
L 1325 2759 
Q 1325 2516 1338 2138 
z
" transform="scale(0.015625)"/>
     </defs>
     <use xlink:href="#Garamond-44"/>
     <use xlink:href="#Garamond-69" transform="translate(77.099609 0)"/>
     <use xlink:href="#Garamond-61" transform="translate(100 0)"/>
     <use xlink:href="#Garamond-6d" transform="translate(140.625 0)"/>
     <use xlink:href="#Garamond-6f" transform="translate(217.724609 0)"/>
     <use xlink:href="#Garamond-6e" transform="translate(268.75 0)"/>
     <use xlink:href="#Garamond-64" transform="translate(319.775391 0)"/>
     <use xlink:href="#Garamond-20" transform="translate(369.775391 0)"/>
     <use xlink:href="#Garamond-43" transform="translate(394.775391 0)"/>
     <use xlink:href="#Garamond-72" transform="translate(458.300781 0)"/>
     <use xlink:href="#Garamond-65" transform="translate(491.650391 0)"/>
     <use xlink:href="#Garamond-65" transform="translate(533.300781 0)"/>
     <use xlink:href="#Garamond-6b" transform="translate(574.951172 0)"/>
     <use xlink:href="#Garamond-20" transform="translate(621.826172 0)"/>
     <use xlink:href="#Garamond-45" transform="translate(646.826172 0)"/>
     <use xlink:href="#Garamond-54" transform="translate(712.451172 0)"/>
     <use xlink:href="#Garamond-46" transform="translate(773.925781 0)"/>
     <use xlink:href="#Garamond-20" transform="translate(830.175781 0)"/>
     <use xlink:href="#Garamond-41" transform="translate(855.175781 0)"/>
     <use xlink:href="#Garamond-72" transform="translate(922.900391 0)"/>
     <use xlink:href="#Garamond-62" transform="translate(956.25 0)"/>
     <use xlink:href="#Garamond-20" transform="translate(1007.275391 0)"/>
     <use xlink:href="#Garamond-46" transform="translate(1032.275391 0)"/>
     <use xlink:href="#Garamond-75" transform="translate(1088.525391 0)"/>
     <use xlink:href="#Garamond-6e" transform="translate(1137.5 0)"/>
     <use xlink:href="#Garamond-64" transform="translate(1188.525391 0)"/>
     <use xlink:href="#Garamond-3a" transform="translate(1238.525391 0)"/>
     <use xlink:href="#Garamond-20" transform="translate(1260.400391 0)"/>
     <use xlink:href="#Garamond-4d" transform="translate(1285.400391 0)"/>
     <use xlink:href="#Garamond-6f" transform="translate(1368.75 0)"/>
     <use xlink:href="#Garamond-6e" transform="translate(1419.775391 0)"/>
     <use xlink:href="#Garamond-74" transform="translate(1470.800781 0)"/>
     <use xlink:href="#Garamond-68" transform="translate(1499.951172 0)"/>
     <use xlink:href="#Garamond-6c" transform="translate(1550.976562 0)"/>
     <use xlink:href="#Garamond-79" transform="translate(1573.876953 0)"/>
     <use xlink:href="#Garamond-20" transform="translate(1615.527344 0)"/>
     <use xlink:href="#Garamond-52" transform="translate(1640.527344 0)"/>
     <use xlink:href="#Garamond-65" transform="translate(1700.527344 0)"/>
     <use xlink:href="#Garamond-74" transform="translate(1742.177734 0)"/>
     <use xlink:href="#Garamond-75" transform="translate(1771.328125 0)"/>
     <use xlink:href="#Garamond-72" transform="translate(1820.302734 0)"/>
     <use xlink:href="#Garamond-6e" transform="translate(1855.652344 0)"/>
     <use xlink:href="#Garamond-20" transform="translate(1906.677734 0)"/>
     <use xlink:href="#Garamond-44" transform="translate(1931.677734 0)"/>
     <use xlink:href="#Garamond-69" transform="translate(2008.777344 0)"/>
     <use xlink:href="#Garamond-73" transform="translate(2031.677734 0)"/>
     <use xlink:href="#Garamond-74" transform="translate(2068.152344 0)"/>
     <use xlink:href="#Garamond-72" transform="translate(2097.302734 0)"/>
     <use xlink:href="#Garamond-69" transform="translate(2130.652344 0)"/>
     <use xlink:href="#Garamond-62" transform="translate(2153.552734 0)"/>
     <use xlink:href="#Garamond-75" transform="translate(2204.578125 0)"/>
     <use xlink:href="#Garamond-74" transform="translate(2253.552734 0)"/>
     <use xlink:href="#Garamond-69" transform="translate(2282.703125 0)"/>
     <use xlink:href="#Garamond-6f" transform="translate(2305.603516 0)"/>
     <use xlink:href="#Garamond-6e" transform="translate(2356.628906 0)"/>
    </g>
   </g>
  </g>
 </g>
 <defs>
  <clipPath id="p175297c5f2">
   <rect x="48.427188" y="25.689062" width="513.34" height="244.0525"/>
  </clipPath>
 </defs>
</svg>
