<?xml version="1.0" encoding="utf-8" standalone="no"?>
<!DOCTYPE svg PUBLIC "-//W3C//DTD SVG 1.1//EN"
  "http://www.w3.org/Graphics/SVG/1.1/DTD/svg11.dtd">
<svg xmlns:xlink="http://www.w3.org/1999/xlink" width="511.02pt" height="191.808pt" viewBox="0 0 511.02 191.808" xmlns="http://www.w3.org/2000/svg" version="1.1">
 <metadata>
  <rdf:RDF xmlns:dc="http://purl.org/dc/elements/1.1/" xmlns:cc="http://creativecommons.org/ns#" xmlns:rdf="http://www.w3.org/1999/02/22-rdf-syntax-ns#">
   <cc:Work>
    <dc:type rdf:resource="http://purl.org/dc/dcmitype/StillImage"/>
    <dc:date>2026-04-04T15:50:56.741098</dc:date>
    <dc:format>image/svg+xml</dc:format>
    <dc:creator>
     <cc:Agent>
      <dc:title>Matplotlib v3.8.3, https://matplotlib.org/</dc:title>
     </cc:Agent>
    </dc:creator>
   </cc:Work>
  </rdf:RDF>
 </metadata>
 <defs>
  <style type="text/css">*{stroke-linejoin: round; stroke-linecap: butt}</style>
 </defs>
 <g id="figure_1">
  <g id="patch_1">
   <path d="M 0 191.808 
L 511.02 191.808 
L 511.02 0 
L 0 0 
z
" style="fill: #ffffff"/>
  </g>
  <g id="axes_1">
   <g id="table_1">
    <g id="patch_2">
     <path d="M 12.1662 53.32608 
L 174.3954 53.32608 
M 174.3954 10.74816 
M 12.1662 10.74816 
M 12.1662 53.32608 
" style="fill: #ffffff; stroke: #000000; stroke-width: 0.9; stroke-linejoin: miter"/>
    </g>
    <g id="patch_3">
     <path d="M 174.3954 53.32608 
L 336.6246 53.32608 
M 336.6246 10.74816 
M 174.3954 10.74816 
M 174.3954 53.32608 
" style="fill: #ffffff; stroke: #000000; stroke-width: 0.9; stroke-linejoin: miter"/>
    </g>
    <g id="text_1">
     <!-- Diamond Creek -->
     <g transform="translate(208.187812 27.685307) scale(0.14 -0.14)">
      <defs>
       <path id="Garamond-Bold-44" d="M 159 275 
Q 206 288 353 313 
Q 644 363 734 447 
Q 791 500 806 650 
Q 809 688 828 1603 
L 825 1947 
L 828 2363 
L 816 3428 
L 819 3553 
Q 819 3634 775 3678 
Q 753 3700 653 3700 
Q 572 3700 466 3681 
Q 328 3675 219 3656 
Q 200 3653 159 3647 
L 156 3922 
Q 341 3981 684 4038 
Q 1253 4131 2084 4131 
Q 2778 4131 3100 4053 
Q 3588 3931 3894 3691 
Q 4303 3369 4508 2945 
Q 4713 2522 4713 2022 
Q 4713 1391 4438 939 
Q 4163 488 3647 216 
Q 3284 22 2663 22 
L 2022 50 
L 1834 59 
L 1581 53 
L 1506 59 
L 1244 53 
L 897 56 
Q 878 56 578 34 
Q 478 28 316 25 
Q 216 25 166 22 
Q 159 91 159 275 
z
M 1675 3756 
Q 1666 3659 1666 3619 
L 1675 3088 
L 1669 2625 
Q 1678 2400 1678 2231 
L 1675 1934 
L 1681 1438 
L 1675 1131 
Q 1675 703 1834 550 
Q 2066 331 2472 331 
Q 2781 331 2928 391 
Q 3234 509 3414 706 
Q 3594 903 3687 1264 
Q 3781 1625 3781 2009 
Q 3781 2641 3579 3041 
Q 3378 3441 3028 3642 
Q 2678 3844 2225 3844 
Q 1906 3844 1675 3756 
z
" transform="scale(0.015625)"/>
       <path id="Garamond-Bold-69" d="M 538 3747 
Q 538 3916 647 4023 
Q 756 4131 928 4131 
Q 1113 4131 1234 4017 
Q 1356 3903 1356 3759 
Q 1356 3653 1307 3547 
Q 1259 3441 1154 3377 
Q 1050 3313 941 3313 
Q 791 3313 664 3441 
Q 538 3569 538 3747 
z
M 100 19 
L 94 222 
L 447 269 
Q 525 291 554 333 
Q 584 375 584 522 
L 584 556 
Q 584 594 589 692 
Q 594 791 594 866 
Q 594 925 584 1094 
L 588 1250 
L 584 1397 
L 591 1906 
Q 591 2003 572 2106 
Q 538 2153 447 2187 
Q 356 2222 131 2238 
L 131 2413 
Q 453 2431 697 2547 
Q 863 2622 1056 2813 
L 1266 2813 
Q 1278 2425 1278 1806 
L 1256 531 
Q 1256 400 1269 294 
Q 1366 259 1584 225 
Q 1669 213 1719 194 
L 1716 22 
Q 1631 19 1591 19 
Q 1544 19 1447 25 
Q 1128 41 594 41 
Q 441 41 297 30 
Q 153 19 100 19 
z
" transform="scale(0.015625)"/>
       <path id="Garamond-Bold-61" d="M 2891 606 
L 2963 559 
Q 2991 538 2997 506 
L 3000 491 
Q 2925 213 2803 108 
Q 2681 3 2500 3 
Q 2316 3 2183 104 
Q 2050 206 1941 463 
Q 1806 225 1562 104 
Q 1319 -16 966 -16 
Q 641 -16 487 120 
Q 334 256 334 478 
Q 334 581 379 687 
Q 425 794 526 898 
Q 628 1003 853 1128 
Q 888 1147 1091 1234 
L 1869 1547 
Q 1878 1666 1878 1788 
Q 1878 2209 1775 2363 
Q 1713 2456 1556 2456 
Q 1400 2456 1269 2397 
Q 1138 2338 1078 2244 
Q 1034 2175 1003 1984 
Q 981 1847 963 1825 
Q 916 1766 792 1717 
Q 669 1669 625 1647 
Q 456 1566 356 1566 
Q 313 1603 313 1672 
Q 313 1850 388 1978 
Q 500 2159 726 2329 
Q 953 2500 1150 2569 
Q 1419 2656 1806 2656 
Q 2056 2656 2236 2564 
Q 2416 2472 2486 2290 
Q 2556 2109 2556 1638 
L 2547 1122 
L 2553 744 
L 2553 647 
Q 2553 516 2589 467 
Q 2625 419 2681 419 
Q 2716 419 2741 438 
L 2834 584 
L 2891 606 
z
M 1866 1331 
Q 1688 1272 1464 1133 
Q 1241 994 1153 853 
Q 1091 750 1091 600 
Q 1091 466 1172 378 
Q 1253 291 1359 291 
Q 1534 291 1656 391 
Q 1822 525 1850 604 
Q 1878 684 1878 1056 
Q 1878 1194 1866 1331 
z
" transform="scale(0.015625)"/>
       <path id="Garamond-Bold-6d" d="M 147 225 
Q 172 238 216 241 
Q 400 253 509 306 
Q 531 316 536 347 
Q 541 378 553 916 
L 553 1097 
L 556 1419 
L 553 1753 
L 553 1828 
Q 553 1975 486 2045 
Q 419 2116 134 2197 
L 134 2325 
Q 194 2341 275 2359 
Q 563 2419 750 2528 
Q 894 2613 1034 2781 
L 1206 2781 
L 1206 2731 
L 1216 2481 
L 1213 2366 
L 1219 2309 
Q 1516 2544 1714 2619 
Q 1913 2694 2169 2694 
Q 2416 2694 2645 2587 
Q 2875 2481 3028 2231 
Q 3250 2447 3400 2534 
Q 3503 2594 3683 2639 
Q 3863 2684 4022 2684 
Q 4456 2684 4709 2422 
Q 4963 2156 4963 1703 
L 4963 1206 
Q 4963 1053 4953 678 
L 4953 438 
Q 4953 375 4991 316 
Q 5113 263 5200 247 
Q 5263 238 5319 203 
Q 5325 147 5334 109 
L 5331 47 
Q 5244 31 5206 31 
Q 5181 31 5054 45 
Q 4928 59 4734 59 
Q 4263 59 3984 28 
Q 3963 106 3963 153 
L 3966 197 
Q 4006 219 4234 306 
Q 4275 347 4281 378 
Q 4297 456 4297 713 
L 4281 1594 
Q 4278 1816 4247 1961 
Q 4216 2106 4155 2189 
Q 4094 2272 3991 2325 
Q 3888 2378 3775 2378 
Q 3600 2378 3419 2279 
Q 3238 2181 3097 1981 
L 3094 1891 
L 3100 1491 
L 3094 1163 
L 3094 850 
L 3091 572 
Q 3091 366 3131 328 
Q 3194 269 3438 244 
L 3534 209 
Q 3559 138 3559 97 
Q 3559 75 3547 22 
L 3456 25 
L 3331 25 
L 3266 28 
Q 3044 50 2806 53 
L 2472 59 
Q 2350 59 2050 31 
L 1994 41 
L 1991 225 
Q 2084 253 2328 272 
Q 2344 275 2369 284 
Q 2403 325 2409 353 
Q 2425 416 2425 606 
L 2422 1241 
L 2428 1409 
Q 2428 1897 2394 2013 
Q 2350 2163 2211 2258 
Q 2072 2353 1878 2353 
Q 1625 2353 1437 2233 
Q 1250 2113 1222 2019 
Q 1219 1981 1219 1963 
L 1222 1931 
L 1222 1900 
Q 1222 1872 1206 1813 
L 1216 916 
L 1219 447 
Q 1219 422 1225 366 
L 1241 319 
Q 1328 291 1391 278 
Q 1506 253 1566 222 
Q 1575 169 1575 147 
Q 1575 106 1550 31 
Q 1500 28 1478 28 
Q 1444 28 1166 56 
L 825 59 
Q 581 59 234 25 
L 144 28 
Q 138 78 131 144 
Q 131 172 147 225 
z
" transform="scale(0.015625)"/>
       <path id="Garamond-Bold-6f" d="M 2706 2297 
Q 2906 2103 3004 1851 
Q 3103 1600 3103 1378 
Q 3103 959 2975 703 
Q 2781 316 2453 131 
Q 2125 -53 1691 -53 
Q 1203 -53 864 165 
Q 525 384 379 662 
Q 234 941 234 1353 
Q 234 1563 303 1773 
Q 372 1984 492 2140 
Q 613 2297 756 2403 
Q 966 2553 1177 2617 
Q 1388 2681 1688 2681 
Q 2341 2681 2706 2297 
z
M 997 1216 
Q 1025 828 1038 769 
Q 1078 559 1166 409 
Q 1225 313 1362 238 
Q 1500 163 1691 163 
Q 1919 163 2075 308 
Q 2231 453 2300 763 
Q 2344 966 2344 1428 
Q 2344 1997 2156 2233 
Q 1969 2469 1663 2469 
Q 1422 2469 1264 2334 
Q 1106 2200 1044 1938 
Q 1003 1769 997 1216 
z
" transform="scale(0.015625)"/>
       <path id="Garamond-Bold-6e" d="M 128 178 
Q 209 216 278 228 
Q 450 256 478 275 
Q 525 303 541 344 
Q 559 406 559 619 
L 559 891 
L 563 1113 
L 553 1441 
L 553 1638 
Q 553 1834 522 1959 
Q 509 2006 444 2053 
Q 356 2116 147 2175 
L 144 2325 
Q 184 2338 217 2342 
Q 250 2347 469 2403 
Q 641 2466 691 2491 
Q 706 2500 741 2519 
Q 778 2550 825 2581 
Q 919 2647 1050 2809 
L 1216 2822 
L 1209 2469 
Q 1206 2416 1206 2384 
Q 1206 2359 1209 2241 
Q 1469 2466 1681 2553 
Q 1959 2669 2209 2669 
Q 2503 2669 2725 2523 
Q 2947 2378 3015 2187 
Q 3084 1997 3084 1419 
L 3072 400 
Q 3072 328 3097 281 
Q 3128 256 3269 234 
L 3422 206 
Q 3450 166 3450 106 
Q 3450 69 3447 3 
L 2834 47 
L 2653 41 
L 2509 41 
L 2097 9 
L 1991 9 
Q 1988 50 1988 72 
Q 1988 128 1994 194 
Q 2038 203 2213 225 
Q 2259 231 2316 247 
Q 2378 272 2388 297 
Q 2413 350 2413 500 
Q 2413 763 2406 903 
L 2409 1266 
Q 2413 1925 2328 2088 
Q 2209 2322 1972 2322 
Q 1797 2322 1609 2233 
Q 1422 2144 1222 1963 
L 1216 1909 
L 1222 1713 
L 1219 1503 
L 1231 1003 
L 1225 925 
Q 1225 416 1265 350 
Q 1306 284 1575 206 
Q 1584 153 1584 128 
Q 1584 91 1563 13 
Q 1466 9 1400 9 
Q 1334 9 1194 28 
L 859 34 
Q 609 34 138 13 
Q 125 44 125 78 
Q 125 103 128 178 
z
" transform="scale(0.015625)"/>
       <path id="Garamond-Bold-64" d="M 825 2416 
Q 978 2522 1120 2569 
Q 1263 2616 1522 2641 
L 1697 2641 
Q 2038 2641 2350 2406 
L 2356 2481 
L 2353 2691 
L 2366 3025 
Q 2366 3553 2284 3694 
Q 2238 3778 2120 3784 
Q 2003 3791 1931 3825 
L 1931 3975 
Q 1991 3994 2084 3995 
Q 2178 3997 2450 4059 
L 2556 4081 
L 2866 4153 
Q 2959 4175 2981 4175 
Q 2997 4175 3031 4169 
Q 3050 4103 3050 4072 
L 3047 4025 
L 3047 3969 
Q 3047 3881 3056 3503 
L 3056 3334 
L 3059 3244 
L 3056 3088 
L 3066 2763 
L 3059 2572 
Q 3053 2447 3053 2178 
Q 3053 2134 3056 2100 
L 3056 1984 
Q 3053 1934 3053 1909 
Q 3053 1863 3063 1775 
L 3063 1603 
L 3059 1538 
Q 3053 1447 3053 1288 
Q 3053 1125 3059 994 
Q 3063 941 3063 897 
L 3063 663 
Q 3063 550 3069 394 
Q 3125 359 3344 344 
Q 3413 341 3466 328 
Q 3481 281 3481 259 
Q 3481 231 3459 175 
Q 3331 144 3191 128 
Q 2763 75 2581 -22 
Q 2494 -72 2459 -72 
Q 2425 -72 2381 -66 
Q 2384 -9 2384 6 
Q 2384 219 2375 278 
Q 2328 253 2259 213 
Q 2050 88 1878 39 
Q 1706 -9 1484 -9 
Q 1091 -9 856 141 
Q 509 359 376 665 
Q 244 972 244 1338 
Q 244 1969 825 2416 
z
M 1788 347 
Q 1853 341 1900 341 
Q 2003 341 2120 384 
Q 2238 428 2369 513 
Q 2372 616 2372 641 
Q 2372 1631 2344 1834 
Q 2306 2106 2137 2253 
Q 1969 2400 1728 2400 
Q 1591 2400 1467 2350 
Q 1344 2300 1266 2206 
Q 1150 2069 1091 1894 
Q 1009 1650 1009 1438 
Q 1009 928 1225 658 
Q 1441 388 1788 347 
z
" transform="scale(0.015625)"/>
       <path id="Garamond-Bold-20" transform="scale(0.015625)"/>
       <path id="Garamond-Bold-43" d="M 3841 4000 
Q 3881 3906 4006 3466 
Q 4063 3266 4066 3041 
L 3781 3041 
Q 3481 3466 3162 3652 
Q 2844 3838 2450 3838 
Q 1966 3838 1669 3459 
Q 1266 2947 1266 2031 
Q 1266 1500 1334 1275 
Q 1447 909 1619 678 
Q 1750 503 1963 400 
Q 2238 259 2550 259 
Q 2894 259 3214 473 
Q 3534 688 3828 1113 
Q 3944 1134 4131 1138 
Q 4119 1019 4091 891 
Q 4081 841 4019 494 
L 3991 400 
L 3947 253 
Q 3756 106 3411 32 
Q 3066 -41 2563 -41 
Q 2178 -41 1836 31 
Q 1494 103 1250 259 
Q 894 484 691 746 
Q 488 1009 389 1318 
Q 291 1628 291 2013 
Q 291 2944 905 3550 
Q 1519 4156 2472 4156 
Q 2859 4156 3201 4117 
Q 3544 4078 3841 4000 
z
" transform="scale(0.015625)"/>
       <path id="Garamond-Bold-72" d="M 122 172 
Q 163 206 228 222 
Q 388 256 531 347 
Q 559 422 559 853 
Q 559 1644 525 1922 
Q 519 1972 475 2009 
Q 397 2050 263 2081 
Q 200 2097 188 2150 
L 178 2266 
Q 409 2297 596 2423 
Q 784 2550 878 2681 
Q 928 2753 966 2791 
L 1184 2800 
Q 1200 2728 1200 2681 
Q 1200 2647 1197 2597 
Q 1194 2488 1194 2416 
Q 1194 2381 1197 2156 
Q 1325 2375 1384 2450 
Q 1413 2484 1550 2603 
Q 1656 2681 1791 2681 
Q 1956 2681 2078 2568 
Q 2200 2456 2200 2309 
Q 2200 2163 2108 2045 
Q 2016 1928 1863 1928 
Q 1728 1928 1581 2041 
Q 1494 2109 1441 2109 
L 1419 2106 
Q 1353 2084 1300 1988 
Q 1213 1831 1213 1663 
L 1219 1578 
Q 1231 1347 1238 494 
Q 1247 416 1297 338 
Q 1353 294 1411 275 
Q 1469 256 1612 243 
Q 1756 231 1787 204 
Q 1819 178 1819 119 
Q 1819 84 1800 28 
L 1506 28 
L 909 59 
Q 684 59 500 41 
L 447 41 
Q 425 41 122 25 
Q 113 75 113 100 
Q 113 125 122 172 
z
" transform="scale(0.015625)"/>
       <path id="Garamond-Bold-65" d="M 269 1675 
Q 350 1941 413 2028 
Q 588 2284 786 2428 
Q 984 2572 1144 2619 
Q 1350 2678 1478 2678 
Q 1772 2678 1953 2633 
Q 2134 2588 2256 2503 
Q 2431 2381 2537 2256 
Q 2644 2131 2711 1962 
Q 2778 1794 2784 1553 
L 2438 1559 
Q 2294 1559 1806 1588 
Q 1625 1600 1556 1600 
Q 1534 1600 1219 1597 
L 950 1597 
Q 944 1553 944 1522 
Q 944 1356 984 1173 
Q 1025 991 1106 852 
Q 1188 713 1308 613 
Q 1428 513 1556 469 
L 1738 409 
Q 1978 409 2059 425 
Q 2209 456 2323 504 
Q 2438 553 2600 669 
Q 2713 588 2788 522 
Q 2513 219 2217 83 
Q 1922 -53 1556 -53 
Q 1309 -53 1153 -9 
Q 944 47 775 162 
Q 606 278 484 450 
Q 363 622 303 803 
Q 225 1041 225 1184 
Q 225 1456 269 1675 
z
M 2084 1809 
Q 2081 1984 2015 2143 
Q 1950 2303 1812 2392 
Q 1675 2481 1534 2481 
Q 1325 2481 1156 2297 
Q 988 2113 966 1797 
L 1678 1794 
Q 1747 1794 1872 1803 
Q 1963 1813 2000 1813 
Q 2028 1813 2084 1809 
z
" transform="scale(0.015625)"/>
       <path id="Garamond-Bold-6b" d="M 100 197 
Q 156 225 212 234 
Q 269 244 294 250 
Q 475 269 503 281 
Q 525 347 531 488 
L 550 1809 
L 550 1988 
L 553 2122 
L 553 3019 
Q 553 3338 531 3478 
Q 528 3513 509 3581 
Q 447 3634 387 3654 
Q 328 3675 138 3697 
Q 134 3738 134 3759 
Q 134 3794 141 3859 
Q 263 3900 828 4050 
Q 984 4094 1106 4147 
L 1231 4141 
L 1238 2753 
Q 1238 2738 1228 2553 
Q 1225 2488 1225 2294 
L 1219 1825 
L 1219 1378 
Q 1375 1472 1866 1797 
Q 2034 1909 2244 2078 
Q 2331 2147 2372 2191 
Q 2322 2213 2275 2225 
Q 2156 2253 1991 2319 
Q 1988 2363 1988 2384 
Q 1988 2416 1997 2481 
L 2228 2484 
Q 2256 2484 2389 2476 
Q 2522 2469 2656 2469 
Q 2766 2469 2964 2481 
Q 3163 2494 3209 2494 
Q 3259 2494 3359 2488 
Q 3363 2453 3363 2438 
Q 3363 2406 3350 2350 
L 3103 2272 
Q 2900 2213 2794 2153 
Q 2534 2006 1919 1588 
Q 1994 1509 2075 1431 
L 2156 1356 
L 2388 1125 
L 2897 613 
L 3191 319 
Q 3256 272 3450 184 
Q 3453 97 3453 81 
Q 3453 56 3450 6 
Q 3416 6 3247 22 
Q 3150 34 3078 34 
Q 2428 34 1969 19 
Q 1969 66 1963 91 
L 1959 138 
Q 1959 159 1975 206 
Q 2053 234 2184 247 
Q 2238 250 2300 259 
Q 2253 344 2184 416 
L 1375 1278 
L 1206 1188 
L 1206 534 
Q 1206 506 1209 431 
L 1213 316 
Q 1275 272 1309 259 
Q 1363 241 1509 225 
Q 1550 222 1584 213 
L 1584 134 
L 1588 78 
Q 1588 63 1581 28 
L 1559 19 
Q 1272 28 1103 41 
Q 1013 47 959 47 
Q 931 47 822 44 
L 644 44 
L 375 19 
L 294 22 
L 109 13 
Q 97 66 97 109 
Q 97 144 100 197 
z
" transform="scale(0.015625)"/>
      </defs>
      <use xlink:href="#Garamond-Bold-44"/>
      <use xlink:href="#Garamond-Bold-69" x="78.125"/>
      <use xlink:href="#Garamond-Bold-61" x="106.25"/>
      <use xlink:href="#Garamond-Bold-6d" x="154.150391"/>
      <use xlink:href="#Garamond-Bold-6f" x="238.525391"/>
      <use xlink:href="#Garamond-Bold-6e" x="290.625"/>
      <use xlink:href="#Garamond-Bold-64" x="345.849609"/>
      <use xlink:href="#Garamond-Bold-20" x="401.074219"/>
      <use xlink:href="#Garamond-Bold-43" x="426.074219"/>
      <use xlink:href="#Garamond-Bold-72" x="493.798828"/>
      <use xlink:href="#Garamond-Bold-65" x="529.173828"/>
      <use xlink:href="#Garamond-Bold-65" x="576.048828"/>
      <use xlink:href="#Garamond-Bold-6b" x="622.923828"/>
     </g>
     <!-- ETF Arb Fund -->
     <g transform="translate(211.171562 42.00862) scale(0.14 -0.14)">
      <defs>
       <path id="Garamond-Bold-45" d="M 128 4066 
Q 306 4056 438 4038 
Q 684 4003 1009 4003 
Q 1122 4003 1588 4022 
Q 2284 4050 2847 4050 
L 3413 4056 
Q 3603 4056 3975 4009 
Q 4031 3947 4031 3841 
L 4031 3197 
L 4038 3069 
Q 4038 3050 4034 3013 
L 3906 3006 
Q 3881 3006 3800 3013 
Q 3772 3075 3725 3197 
L 3600 3419 
Q 3528 3559 3400 3706 
Q 3322 3728 3200 3731 
Q 3169 3734 3009 3747 
Q 2719 3772 2384 3772 
Q 2003 3772 1703 3759 
Q 1694 3681 1694 3144 
L 1700 2619 
L 1700 2225 
Q 1778 2216 1834 2216 
Q 2394 2216 2631 2237 
Q 2869 2259 2925 2298 
Q 2981 2338 3025 2434 
Q 3053 2503 3134 2894 
L 3175 2897 
L 3356 2894 
Q 3369 2616 3369 2472 
Q 3369 2144 3364 2050 
Q 3359 1956 3359 1903 
Q 3359 1819 3368 1633 
Q 3378 1447 3378 1356 
L 3378 1288 
L 3156 1288 
Q 3144 1338 3109 1494 
Q 3047 1784 2997 1856 
Q 2959 1913 2872 1941 
Q 2809 1963 2409 1963 
Q 1938 1963 1700 1938 
Q 1697 1856 1697 1831 
Q 1697 1459 1709 1213 
L 1703 538 
Q 1703 419 1788 375 
Q 1916 309 2572 309 
Q 3006 309 3309 375 
Q 3519 422 3678 584 
Q 3891 794 4031 1172 
Q 4128 1181 4191 1181 
Q 4225 1181 4294 1178 
Q 4284 1100 4278 1047 
L 4259 953 
L 4144 363 
L 4088 6 
Q 3884 -3 3766 -3 
Q 3591 -3 2831 28 
Q 2297 50 1544 50 
Q 1169 50 622 19 
L 491 19 
L 113 6 
L 113 222 
Q 172 238 350 256 
Q 675 294 800 356 
Q 834 447 834 584 
Q 834 638 831 766 
L 834 863 
L 825 2041 
L 828 2394 
L 813 2894 
L 816 3247 
L 788 3634 
Q 788 3650 781 3697 
Q 750 3731 688 3741 
Q 653 3747 594 3759 
Q 416 3797 250 3803 
Q 191 3806 113 3816 
L 128 4066 
z
" transform="scale(0.015625)"/>
       <path id="Garamond-Bold-54" d="M 334 4241 
L 528 4241 
Q 550 4206 559 4191 
Q 647 4041 694 3994 
Q 734 3981 1122 3981 
Q 1363 3981 1550 3984 
L 1613 3994 
L 1991 3997 
L 2697 3991 
L 3663 3991 
L 3847 4019 
Q 3888 4047 3934 4169 
Q 3947 4197 3969 4247 
L 4106 4250 
Q 4138 4250 4200 4247 
Q 4203 4031 4203 3597 
L 4206 3319 
L 4203 3159 
Q 4203 3078 4191 3019 
Q 4063 2978 3966 2969 
Q 3884 3091 3789 3322 
Q 3694 3553 3669 3578 
Q 3631 3619 3581 3631 
Q 3506 3647 2919 3647 
Q 2831 3647 2700 3634 
Q 2681 3513 2681 3434 
L 2684 3016 
L 2684 2097 
L 2697 1106 
L 2694 700 
Q 2694 484 2731 375 
Q 2781 353 2916 334 
Q 2941 331 3147 284 
Q 3241 263 3313 234 
Q 3328 122 3328 97 
Q 3328 69 3319 16 
Q 3250 13 3206 13 
Q 2884 13 2659 36 
Q 2434 59 1844 59 
Q 1750 59 1294 22 
Q 1116 9 1063 9 
Q 1059 56 1056 81 
L 1053 153 
L 1053 178 
Q 1122 269 1313 313 
Q 1638 391 1763 453 
Q 1794 513 1800 609 
Q 1822 984 1822 1803 
L 1806 2984 
Q 1806 3472 1788 3575 
Q 1781 3603 1765 3617 
Q 1750 3631 1722 3634 
Q 1625 3647 1091 3647 
Q 797 3647 697 3591 
Q 563 3513 294 3166 
Q 216 3066 178 3066 
Q 34 3141 -6 3188 
Q 91 3391 263 4000 
Q 313 4178 334 4241 
z
" transform="scale(0.015625)"/>
       <path id="Garamond-Bold-46" d="M 188 0 
L 194 225 
Q 263 241 422 272 
Q 581 303 741 344 
L 800 381 
Q 831 506 831 638 
L 831 656 
L 819 1378 
L 822 1681 
L 809 2128 
L 816 2659 
L 778 3706 
Q 731 3750 475 3794 
Q 413 3806 294 3844 
L 219 3863 
L 219 4081 
L 631 4066 
Q 1006 4028 1734 4028 
Q 2100 4028 2497 4047 
L 2556 4050 
L 2709 4047 
L 2772 4050 
L 2903 4050 
L 3463 4069 
Q 3500 4069 3561 4075 
Q 3622 4081 3675 4084 
Q 3694 3991 3700 3897 
L 3747 3309 
Q 3747 3216 3728 3166 
Q 3616 3150 3563 3150 
Q 3500 3150 3463 3178 
Q 3444 3197 3391 3319 
Q 3259 3634 3167 3692 
Q 3075 3750 2653 3750 
L 2222 3738 
Q 1947 3734 1788 3706 
Q 1753 3700 1688 3675 
Q 1647 3603 1647 3491 
L 1656 3119 
L 1647 2694 
Q 1647 2369 1669 2294 
Q 1697 2275 1716 2272 
L 1938 2269 
L 2313 2269 
Q 2438 2266 2697 2297 
Q 2875 2319 2916 2347 
Q 2991 2397 3023 2473 
Q 3056 2550 3072 2847 
Q 3088 2847 3156 2850 
Q 3200 2853 3216 2853 
Q 3250 2853 3353 2844 
L 3334 2344 
Q 3331 2184 3322 2069 
L 3328 2000 
Q 3331 1969 3331 1538 
Q 3331 1509 3328 1444 
Q 3269 1431 3234 1431 
Q 3209 1431 3113 1450 
Q 3084 1509 3050 1622 
Q 2978 1869 2894 1909 
Q 2744 1984 1950 1984 
Q 1834 1984 1681 1963 
Q 1659 1831 1659 1659 
L 1675 722 
Q 1678 463 1731 403 
Q 1766 366 1966 328 
L 2028 322 
Q 2169 313 2275 281 
L 2359 263 
Q 2372 181 2372 138 
Q 2372 91 2363 19 
L 2303 22 
L 2206 19 
L 1763 41 
Q 1688 44 1063 44 
Q 891 44 734 25 
Q 488 -3 466 -3 
Q 263 -3 188 0 
z
" transform="scale(0.015625)"/>
       <path id="Garamond-Bold-41" d="M -81 22 
L -75 234 
Q -16 253 134 281 
Q 375 328 426 365 
Q 478 403 553 547 
L 1184 2200 
L 1925 4144 
Q 2028 4141 2122 4141 
L 2263 4141 
L 2291 4084 
L 2834 2797 
Q 3019 2388 3166 2002 
Q 3313 1616 3419 1372 
Q 3481 1225 3591 931 
Q 3647 772 3763 531 
Q 3825 400 3856 378 
Q 3913 331 4039 315 
Q 4166 300 4313 244 
Q 4328 141 4328 91 
Q 4328 69 4325 22 
Q 4094 22 3816 44 
Q 3538 66 3316 66 
Q 3069 66 2959 59 
L 2428 31 
L 2275 25 
Q 2275 134 2284 234 
L 2631 309 
Q 2788 350 2813 372 
Q 2844 403 2844 444 
Q 2844 484 2828 528 
L 2703 834 
L 2456 1447 
L 1263 1450 
Q 1197 1300 991 716 
Q 931 550 931 491 
Q 931 409 975 375 
Q 1047 316 1250 291 
Q 1278 284 1472 256 
Q 1475 144 1475 100 
Q 1475 66 1469 28 
Q 1275 28 544 81 
L 416 59 
Q 184 22 -25 22 
L -81 22 
z
M 1388 1778 
Q 2119 1769 2250 1769 
L 2328 1772 
Q 2234 2050 2084 2420 
Q 1934 2791 1841 2984 
L 1388 1778 
z
" transform="scale(0.015625)"/>
       <path id="Garamond-Bold-62" d="M 131 3781 
L 397 3881 
Q 497 3919 919 4141 
L 1056 4141 
Q 1109 4141 1150 4134 
Q 1153 4044 1153 4009 
L 1150 3881 
L 1166 2706 
L 1163 2256 
Q 1253 2356 1403 2466 
Q 1434 2488 1575 2555 
Q 1716 2622 1800 2641 
Q 1950 2675 2066 2675 
Q 2375 2675 2570 2597 
Q 2766 2519 2939 2351 
Q 3113 2184 3231 1884 
Q 3306 1694 3306 1419 
Q 3306 1241 3245 1017 
Q 3184 794 3047 581 
Q 2947 428 2764 281 
Q 2581 134 2344 47 
Q 2188 -13 1809 -13 
Q 1463 -13 1031 244 
Q 919 313 869 338 
Q 806 247 729 119 
Q 653 -9 625 -50 
L 469 -53 
Q 469 22 476 100 
Q 484 178 484 247 
L 481 478 
L 491 559 
Q 497 609 497 734 
L 497 3019 
Q 497 3363 475 3466 
Q 469 3497 451 3511 
Q 434 3525 131 3638 
L 131 3781 
z
M 1172 2072 
L 1169 1584 
Q 1169 775 1208 615 
Q 1247 456 1415 339 
Q 1584 222 1772 222 
Q 1909 222 2046 278 
Q 2184 334 2256 403 
Q 2366 506 2419 622 
Q 2503 803 2525 953 
Q 2553 1159 2553 1281 
Q 2553 1538 2448 1789 
Q 2344 2041 2155 2164 
Q 1966 2288 1744 2288 
Q 1606 2288 1418 2209 
Q 1231 2131 1172 2072 
z
" transform="scale(0.015625)"/>
       <path id="Garamond-Bold-75" d="M 147 2550 
Q 181 2563 203 2569 
L 1134 2569 
L 1203 2563 
L 1206 2353 
L 1200 2047 
L 1203 1888 
L 1200 1416 
L 1200 1094 
Q 1200 778 1234 597 
Q 1281 459 1386 389 
Q 1491 319 1641 319 
Q 1781 319 1868 347 
Q 1956 375 2070 453 
Q 2184 531 2216 566 
Q 2306 666 2341 750 
L 2363 1528 
Q 2369 1650 2369 1728 
Q 2369 1809 2364 1932 
Q 2359 2056 2359 2072 
L 2363 2188 
L 2356 2256 
Q 2281 2303 2147 2316 
L 1938 2331 
Q 1919 2341 1903 2353 
Q 1891 2416 1891 2447 
Q 1891 2484 1900 2553 
Q 2003 2569 2078 2569 
L 2559 2563 
Q 2753 2563 3034 2569 
L 3041 2334 
L 3031 2034 
L 3038 1659 
L 3034 1122 
L 3028 881 
L 3031 719 
Q 3019 556 3019 534 
Q 3019 456 3047 418 
Q 3075 381 3100 381 
L 3388 391 
L 3425 384 
Q 3434 275 3434 259 
Q 3434 238 3425 191 
Q 3259 184 3188 169 
Q 2853 94 2456 -53 
L 2331 -47 
L 2328 463 
Q 2291 431 2219 366 
Q 1944 122 1747 36 
Q 1550 -50 1334 -50 
Q 1078 -50 890 56 
Q 703 163 616 319 
Q 550 441 528 669 
Q 522 728 522 1281 
L 525 1381 
Q 541 1688 541 1834 
Q 541 2084 531 2169 
Q 528 2209 500 2263 
Q 456 2281 397 2291 
Q 197 2325 147 2356 
Q 131 2366 131 2397 
Q 131 2416 136 2447 
Q 141 2478 147 2550 
z
" transform="scale(0.015625)"/>
      </defs>
      <use xlink:href="#Garamond-Bold-45"/>
      <use xlink:href="#Garamond-Bold-54" x="70.849609"/>
      <use xlink:href="#Garamond-Bold-46" x="139.599609"/>
      <use xlink:href="#Garamond-Bold-20" x="201.074219"/>
      <use xlink:href="#Garamond-Bold-41" x="226.074219"/>
      <use xlink:href="#Garamond-Bold-72" x="291.699219"/>
      <use xlink:href="#Garamond-Bold-62" x="326.074219"/>
      <use xlink:href="#Garamond-Bold-20" x="381.298828"/>
      <use xlink:href="#Garamond-Bold-46" x="406.298828"/>
      <use xlink:href="#Garamond-Bold-75" x="467.773438"/>
      <use xlink:href="#Garamond-Bold-6e" x="522.998047"/>
      <use xlink:href="#Garamond-Bold-64" x="578.222656"/>
     </g>
    </g>
    <g id="patch_4">
     <path d="M 336.6246 53.32608 
L 498.8538 53.32608 
M 498.8538 10.74816 
M 336.6246 10.74816 
M 336.6246 53.32608 
" style="fill: #ffffff; stroke: #000000; stroke-width: 0.9; stroke-linejoin: miter"/>
    </g>
    <g id="text_2">
     <!-- SPY -->
     <g transform="translate(405.27045 34.846964) scale(0.14 -0.14)">
      <defs>
       <path id="Garamond-Bold-53" d="M 2641 3975 
Q 2672 3869 2697 3653 
Q 2734 3331 2734 3153 
Q 2734 3097 2722 3031 
L 2691 3022 
L 2466 3038 
L 2428 3044 
Q 2291 3456 2153 3603 
Q 1916 3853 1594 3853 
Q 1288 3853 1108 3692 
Q 928 3531 928 3294 
Q 928 3094 1106 2909 
Q 1281 2725 1850 2556 
Q 2041 2500 2311 2375 
Q 2581 2250 2722 2103 
Q 2909 1909 2979 1729 
Q 3050 1550 3050 1281 
Q 3050 988 2941 703 
Q 2881 553 2750 419 
Q 2656 325 2459 198 
Q 2263 72 2052 15 
Q 1841 -41 1509 -41 
Q 1291 -41 988 22 
L 613 131 
Q 456 175 416 209 
Q 400 222 388 269 
L 388 303 
Q 388 338 372 731 
Q 366 934 366 1019 
L 366 1138 
L 653 1144 
Q 803 797 847 725 
Q 944 566 1061 467 
Q 1178 369 1340 311 
Q 1503 253 1694 253 
Q 1863 253 2066 325 
Q 2269 397 2392 561 
Q 2516 725 2516 913 
Q 2516 1144 2300 1341 
Q 2169 1463 1594 1666 
Q 1019 1869 797 2028 
Q 575 2188 447 2455 
Q 319 2722 319 2969 
Q 319 3466 675 3812 
Q 1031 4159 1725 4159 
Q 1875 4159 2169 4106 
Q 2347 4075 2641 3975 
z
" transform="scale(0.015625)"/>
       <path id="Garamond-Bold-50" d="M 153 3856 
L 150 4094 
L 897 4047 
L 1231 4050 
L 1353 4050 
Q 1544 4050 1950 4072 
Q 2181 4088 2241 4088 
Q 2634 4088 2834 4044 
Q 3141 3981 3320 3843 
Q 3500 3706 3629 3451 
Q 3759 3197 3759 2978 
Q 3759 2434 3417 2095 
Q 3075 1756 2553 1756 
Q 2372 1756 2208 1800 
Q 2044 1844 1900 1931 
Q 1884 2022 1884 2181 
Q 1959 2175 2020 2172 
Q 2081 2169 2128 2169 
Q 2394 2169 2575 2316 
Q 2816 2506 2816 2934 
Q 2816 3241 2711 3436 
Q 2606 3631 2463 3700 
Q 2263 3794 2013 3794 
Q 1778 3794 1678 3725 
Q 1653 3684 1641 3647 
L 1663 2175 
L 1656 2050 
L 1666 1919 
Q 1669 1875 1669 1791 
L 1669 1534 
L 1672 1125 
L 1666 638 
Q 1666 534 1684 359 
L 2306 281 
Q 2319 206 2319 163 
Q 2319 116 2303 31 
Q 2225 19 2184 19 
Q 2088 19 1819 42 
Q 1550 66 1206 66 
Q 819 66 469 16 
Q 409 6 281 0 
Q 269 91 269 134 
Q 269 163 275 222 
L 466 284 
Q 663 344 806 428 
Q 834 519 834 594 
Q 834 625 831 666 
Q 828 763 828 938 
L 819 1816 
L 784 2806 
Q 763 3513 750 3569 
Q 728 3659 675 3711 
Q 622 3763 497 3784 
Q 238 3828 153 3856 
z
" transform="scale(0.015625)"/>
       <path id="Garamond-Bold-59" d="M -109 4044 
Q -25 4069 281 4069 
L 313 4063 
Q 391 4050 422 4050 
L 453 4053 
Q 500 4047 709 4031 
Q 1097 4003 1325 4003 
Q 1575 4003 1816 4038 
Q 1850 4044 1866 4044 
L 1891 4041 
Q 1906 4000 1906 3978 
L 1903 3816 
Q 1831 3788 1731 3772 
L 1591 3747 
Q 1513 3731 1381 3713 
L 1363 3700 
L 1356 3659 
Q 1459 3438 1794 2969 
Q 1881 2819 1969 2688 
Q 1994 2653 2147 2397 
Q 2163 2369 2181 2341 
Q 2209 2297 2238 2256 
Q 2291 2178 2306 2153 
Q 2369 2053 2413 2000 
L 2738 2456 
Q 2897 2663 3153 3056 
L 3166 3072 
L 3431 3544 
Q 3494 3634 3494 3678 
Q 3494 3694 3484 3731 
Q 3438 3763 3406 3769 
Q 3394 3775 3275 3781 
Q 3209 3794 3150 3803 
Q 3091 3813 3053 3822 
Q 3047 3863 3034 4053 
L 3675 4019 
Q 3703 4016 3753 4006 
L 3903 4006 
L 3956 4009 
Q 4056 4025 4216 4034 
Q 4263 4038 4306 4044 
L 4303 3809 
L 4263 3797 
Q 4000 3753 3903 3681 
Q 3763 3575 3525 3169 
L 3119 2559 
Q 2753 2063 2647 1881 
Q 2619 1838 2600 1772 
L 2600 1675 
L 2597 1403 
L 2597 1328 
Q 2588 1247 2588 1159 
L 2600 359 
Q 2613 334 2634 325 
Q 2678 313 2834 294 
Q 3134 263 3169 241 
Q 3194 225 3194 178 
Q 3194 150 3188 103 
Q 3188 75 3184 16 
L 2825 22 
L 2491 50 
L 2259 66 
L 1913 53 
L 1653 53 
Q 1609 56 1513 41 
Q 1356 16 1278 16 
L 1063 19 
Q 1059 84 1059 119 
Q 1059 153 1063 222 
L 1638 341 
Q 1675 353 1709 372 
Q 1713 516 1713 550 
Q 1713 1028 1706 1201 
Q 1700 1375 1700 1403 
L 1700 1475 
Q 1700 1672 1494 1928 
Q 1406 2038 1384 2072 
L 772 3003 
L 484 3466 
Q 469 3491 291 3722 
Q 234 3772 181 3791 
Q 150 3803 -103 3856 
Q -119 3884 -119 3906 
Q -119 3925 -116 3954 
Q -113 3984 -109 4044 
z
" transform="scale(0.015625)"/>
      </defs>
      <use xlink:href="#Garamond-Bold-53"/>
      <use xlink:href="#Garamond-Bold-50" x="51.025391"/>
      <use xlink:href="#Garamond-Bold-59" x="112.5"/>
     </g>
    </g>
    <g id="patch_5">
     <path d="M 12.1662 95.904 
L 174.3954 95.904 
M 174.3954 53.32608 
M 12.1662 53.32608 
M 12.1662 95.904 
" style="fill: #ffffff; stroke: #000000; stroke-width: 0.8; stroke-linejoin: miter"/>
    </g>
    <g id="text_3">
     <!-- CAGR -->
     <g transform="translate(28.38912 77.36254) scale(0.14 -0.14)">
      <defs>
       <path id="Garamond-43" d="M 3703 3825 
Q 3741 3584 3741 3331 
Q 3741 3281 3738 3197 
Q 3694 3188 3672 3188 
Q 3653 3188 3619 3194 
Q 3488 3559 3191 3756 
Q 2894 3953 2456 3953 
Q 2225 3953 2066 3900 
Q 1784 3803 1571 3633 
Q 1359 3463 1212 3227 
Q 1066 2991 980 2655 
Q 894 2319 894 1969 
Q 894 1300 1097 864 
Q 1300 428 1653 242 
Q 2006 56 2366 56 
L 2513 59 
Q 2763 91 2853 119 
Q 3081 184 3229 273 
Q 3378 363 3520 525 
Q 3663 688 3763 903 
L 3800 916 
Q 3816 916 3847 897 
Q 3844 822 3841 800 
Q 3709 272 3650 78 
Q 3600 66 3525 41 
Q 3159 -84 2547 -84 
Q 2053 -84 1808 -17 
Q 1563 50 1273 192 
Q 984 334 765 568 
Q 547 803 412 1161 
Q 278 1519 278 1941 
Q 278 2341 384 2639 
Q 491 2938 712 3244 
Q 934 3550 1236 3753 
Q 1538 3956 1906 4041 
Q 2166 4097 2641 4097 
Q 2988 4097 3294 4005 
Q 3600 3913 3703 3825 
z
" transform="scale(0.015625)"/>
       <path id="Garamond-41" d="M -34 100 
Q 9 125 44 125 
L 116 125 
Q 138 125 191 128 
Q 431 150 475 172 
Q 584 231 663 378 
Q 825 697 1028 1281 
Q 1125 1559 1150 1619 
Q 1228 1806 1300 2013 
L 1594 2834 
Q 1663 3028 1925 3722 
Q 1991 3897 2084 4191 
L 2175 4197 
L 2284 4194 
Q 2419 3928 2522 3622 
Q 2578 3459 2706 3138 
L 3181 1853 
L 3434 1156 
Q 3634 563 3696 427 
Q 3759 291 3813 247 
Q 3828 234 3929 209 
Q 4031 184 4072 172 
Q 4216 131 4272 103 
Q 4284 69 4284 50 
Q 4284 34 4275 3 
Q 4175 0 4134 0 
Q 3975 0 3572 9 
L 3259 19 
L 2881 13 
Q 2844 13 2805 17 
Q 2766 22 2738 22 
L 2669 22 
Q 2634 25 2606 41 
Q 2606 84 2622 125 
Q 2659 144 2691 147 
L 3019 169 
Q 3147 175 3213 203 
Q 3231 259 3231 288 
Q 3231 344 3150 578 
Q 3094 734 3051 875 
Q 3009 1016 2719 1800 
Q 2591 1822 2494 1822 
L 1825 1816 
L 1628 1819 
Q 1522 1819 1394 1803 
Q 1353 1709 1341 1669 
L 1066 809 
Q 891 319 891 269 
Q 891 241 919 175 
Q 984 156 1094 141 
L 1519 103 
Q 1553 75 1553 53 
Q 1553 38 1544 6 
Q 1403 3 1328 3 
Q 1078 3 747 19 
Q 594 25 528 25 
Q 463 25 300 19 
Q 194 13 147 13 
Q 72 13 -47 22 
L -47 41 
Q -47 63 -34 100 
z
M 1456 1975 
Q 1791 1956 2219 1956 
Q 2463 1956 2647 1972 
Q 2616 2094 2575 2200 
Q 2372 2744 2350 2800 
L 2066 3522 
L 2034 3578 
Q 2016 3541 1897 3256 
Q 1697 2769 1609 2497 
Q 1569 2375 1525 2254 
Q 1481 2134 1470 2086 
Q 1459 2038 1438 1988 
L 1456 1975 
z
" transform="scale(0.015625)"/>
       <path id="Garamond-47" d="M 4172 3794 
L 4206 3319 
Q 4225 3103 4225 3025 
L 4138 3009 
Q 3928 3484 3617 3721 
Q 3306 3959 2856 3959 
Q 2306 3959 2000 3825 
Q 1556 3634 1240 3162 
Q 925 2691 925 2025 
Q 925 1641 1040 1334 
Q 1156 1028 1367 764 
Q 1578 500 1866 306 
Q 2053 178 2313 113 
Q 2459 78 2750 78 
Q 2938 78 3166 131 
Q 3394 184 3509 273 
Q 3625 363 3667 475 
Q 3709 588 3709 913 
Q 3709 1453 3637 1542 
Q 3566 1631 3184 1659 
L 3059 1669 
L 2975 1666 
Q 2956 1669 2925 1675 
L 2878 1753 
Q 2878 1769 2900 1794 
Q 3063 1819 3606 1819 
Q 3728 1819 4003 1813 
L 4325 1800 
L 4616 1803 
Q 4700 1803 4819 1797 
Q 4841 1794 4847 1786 
Q 4853 1778 4853 1759 
Q 4853 1725 4838 1672 
Q 4706 1644 4634 1644 
L 4431 1647 
Q 4328 1647 4266 1575 
Q 4234 1541 4234 1341 
L 4238 931 
Q 4238 509 4203 394 
Q 4184 325 4125 270 
Q 4066 216 3875 141 
Q 3603 31 3381 -6 
Q 2969 -78 2584 -78 
Q 1966 -78 1570 80 
Q 1175 238 889 519 
Q 603 800 481 1088 
Q 297 1509 297 1947 
Q 297 2494 586 3017 
Q 875 3541 1519 3869 
Q 1972 4100 2750 4100 
Q 3288 4100 3630 4006 
Q 3972 3913 4172 3794 
z
" transform="scale(0.015625)"/>
       <path id="Garamond-52" d="M 175 94 
Q 631 147 691 169 
Q 731 184 766 263 
L 766 297 
Q 766 375 791 863 
Q 797 1000 797 1131 
L 788 1503 
L 794 1925 
L 791 2709 
L 794 3272 
Q 797 3628 739 3706 
Q 681 3784 440 3817 
Q 200 3850 175 3865 
Q 150 3881 150 3916 
Q 150 3938 159 3972 
Q 191 4000 303 4003 
Q 319 4003 389 4011 
Q 459 4019 522 4019 
L 778 4019 
L 1600 4028 
Q 2297 4028 2576 3925 
Q 2856 3822 3022 3576 
Q 3188 3331 3188 3028 
Q 3188 2453 2584 2150 
Q 2481 2097 2422 2056 
Q 2528 1831 2719 1516 
L 3116 834 
Q 3353 459 3443 364 
Q 3534 269 3664 206 
Q 3794 144 4100 88 
Q 4103 56 4103 38 
Q 4103 19 4100 -9 
Q 3672 -16 3097 -16 
Q 3056 -16 2984 -9 
Q 2763 416 2463 925 
L 2000 1769 
Q 1906 1900 1845 1933 
Q 1784 1966 1684 1966 
L 1419 1963 
L 1331 1966 
Q 1322 1866 1322 1556 
L 1322 488 
Q 1319 428 1347 322 
Q 1372 263 1433 227 
Q 1494 191 1784 119 
L 1913 88 
Q 1938 56 1938 3 
Q 1853 -13 1819 -13 
Q 1538 -13 1422 -6 
Q 1363 -3 1325 -3 
L 900 -9 
L 484 -6 
Q 456 -6 200 -16 
L 138 -3 
L 131 28 
Q 131 56 175 94 
z
M 1338 2138 
Q 1422 2134 1463 2134 
Q 1688 2134 1981 2188 
Q 2188 2228 2316 2320 
Q 2444 2413 2530 2594 
Q 2616 2775 2616 2969 
Q 2616 3181 2481 3419 
Q 2378 3600 2133 3722 
Q 1888 3844 1544 3844 
Q 1459 3844 1325 3834 
Q 1313 3672 1313 3584 
L 1328 3000 
L 1325 2759 
Q 1325 2516 1338 2138 
z
" transform="scale(0.015625)"/>
      </defs>
      <use xlink:href="#Garamond-43"/>
      <use xlink:href="#Garamond-41" x="63.525391"/>
      <use xlink:href="#Garamond-47" x="127.5"/>
      <use xlink:href="#Garamond-52" x="204.599609"/>
     </g>
    </g>
    <g id="patch_6">
     <path d="M 174.3954 95.904 
L 336.6246 95.904 
M 336.6246 53.32608 
M 174.3954 53.32608 
M 174.3954 95.904 
" style="fill: #ffffff; stroke: #000000; stroke-width: 0.8; stroke-linejoin: miter"/>
    </g>
    <g id="text_4">
     <!-- 26.5% -->
     <g transform="translate(238.375312 77.36254) scale(0.14 -0.14)">
      <defs>
       <path id="Garamond-32" d="M 2728 6 
Q 2259 25 1472 25 
L 794 6 
L 491 16 
L 250 6 
Q 213 9 141 22 
Q 197 153 284 263 
Q 544 581 1044 1084 
Q 1744 1788 1966 2189 
Q 2188 2591 2188 2944 
Q 2188 3275 1963 3500 
Q 1738 3725 1409 3725 
Q 1213 3725 1028 3633 
Q 844 3541 731 3400 
Q 659 3309 541 3038 
Q 475 2888 463 2875 
Q 444 2853 419 2853 
Q 394 2853 370 2879 
Q 347 2906 347 2947 
Q 347 3088 489 3397 
Q 631 3706 907 3881 
Q 1184 4056 1550 4056 
Q 2028 4056 2348 3745 
Q 2669 3434 2669 3003 
Q 2669 2663 2450 2311 
Q 2231 1959 1444 1234 
Q 1184 997 1075 884 
Q 966 772 634 397 
Q 1113 378 1503 378 
Q 1588 378 1688 384 
Q 1872 391 1903 391 
L 2338 381 
Q 2409 381 2484 450 
Q 2559 519 2688 838 
L 2763 841 
Q 2778 841 2809 838 
Q 2825 806 2825 791 
L 2819 766 
Q 2794 675 2775 434 
Q 2763 294 2728 6 
z
" transform="scale(0.015625)"/>
       <path id="Garamond-36" d="M 2459 4094 
Q 2488 4047 2500 3991 
Q 2481 3956 2441 3944 
Q 2309 3909 2053 3763 
Q 1994 3731 1691 3472 
Q 1556 3378 1366 3122 
Q 1106 2778 993 2508 
Q 881 2238 794 1800 
Q 769 1675 759 1359 
L 750 1244 
Q 750 844 986 445 
Q 1222 47 1575 47 
Q 1759 47 1920 159 
Q 2081 272 2175 540 
Q 2269 809 2269 1191 
Q 2269 1709 2070 1957 
Q 1872 2206 1594 2206 
Q 1509 2206 1444 2181 
L 1419 2175 
Q 1378 2175 1334 2266 
Q 1416 2319 1531 2353 
Q 1647 2388 1681 2388 
Q 1703 2388 1966 2341 
L 2056 2297 
Q 2206 2250 2284 2188 
Q 2428 2072 2541 1897 
Q 2597 1806 2691 1528 
Q 2697 1509 2734 1253 
L 2719 941 
Q 2653 659 2594 547 
Q 2506 375 2300 172 
Q 2194 69 2025 3 
Q 1788 -88 1522 -88 
Q 1016 -88 664 317 
Q 313 722 313 1491 
Q 313 1919 444 2301 
Q 575 2684 816 3003 
Q 978 3219 1258 3466 
Q 1538 3713 1788 3850 
Q 2128 4031 2459 4094 
z
" transform="scale(0.015625)"/>
       <path id="Garamond-2e" d="M 375 253 
Q 375 391 476 494 
Q 578 597 713 597 
Q 844 597 934 500 
Q 1025 403 1025 256 
Q 1025 109 929 9 
Q 834 -91 700 -91 
Q 569 -91 472 11 
Q 375 113 375 253 
z
" transform="scale(0.015625)"/>
       <path id="Garamond-35" d="M 2369 3606 
Q 2019 3578 1803 3578 
Q 1644 3578 1466 3588 
Q 1369 3594 1350 3594 
Q 969 3594 941 3578 
Q 928 3572 925 3550 
Q 916 3500 844 2434 
Q 984 2506 1115 2536 
Q 1247 2566 1463 2566 
Q 1616 2566 1675 2547 
Q 1972 2450 2103 2372 
Q 2284 2259 2398 2115 
Q 2513 1972 2609 1694 
Q 2678 1494 2678 1275 
Q 2678 1038 2611 833 
Q 2544 628 2444 490 
Q 2344 353 2147 204 
Q 1950 56 1683 -22 
Q 1416 -100 1325 -103 
L 872 -63 
Q 684 -31 543 39 
Q 403 109 356 175 
Q 328 216 328 281 
Q 328 331 398 390 
Q 469 450 572 450 
Q 619 450 675 422 
L 922 263 
Q 1006 188 1131 122 
Q 1150 113 1225 100 
Q 1406 75 1422 75 
Q 1491 75 1656 131 
Q 1822 188 1962 323 
Q 2103 459 2204 667 
Q 2306 875 2306 1128 
Q 2306 1581 2022 1875 
Q 1738 2169 1338 2169 
Q 1159 2169 1007 2109 
Q 856 2050 803 1978 
L 756 1959 
Q 719 1944 703 1944 
L 663 1953 
Q 653 2009 653 2038 
Q 653 2063 663 2125 
Q 684 2278 686 2442 
Q 688 2606 719 2738 
L 709 2888 
Q 731 3003 734 3109 
Q 744 3828 794 3934 
Q 816 3984 869 3984 
Q 891 3984 941 3978 
L 959 3975 
L 1356 3978 
Q 1625 3963 1753 3963 
Q 2047 3963 2225 4003 
Q 2313 4084 2359 4084 
Q 2378 4084 2428 4078 
L 2438 4041 
L 2413 3909 
L 2397 3700 
Q 2394 3678 2369 3606 
z
" transform="scale(0.015625)"/>
       <path id="Garamond-25" d="M 1147 -209 
Q 1175 -150 1212 -94 
Q 1250 -38 1309 63 
Q 1331 97 1542 414 
Q 1753 731 1831 859 
Q 3228 3228 3853 4075 
L 3884 4078 
Q 4031 4069 4050 4069 
L 2684 1928 
L 2063 900 
L 1344 -203 
L 1322 -203 
Q 1306 -203 1172 -209 
L 1147 -209 
z
M 1825 2981 
Q 1825 2488 1576 2195 
Q 1328 1903 1022 1903 
Q 709 1903 470 2183 
Q 231 2463 231 2950 
Q 231 3288 353 3581 
Q 447 3800 634 3937 
Q 822 4075 1038 4075 
Q 1256 4075 1448 3931 
Q 1641 3788 1753 3503 
Q 1825 3313 1825 2981 
z
M 1475 2922 
Q 1475 3384 1450 3525 
Q 1406 3763 1300 3863 
Q 1194 3963 1038 3963 
Q 828 3963 709 3783 
Q 591 3603 591 2909 
Q 591 2363 712 2188 
Q 834 2013 1019 2013 
Q 1231 2013 1338 2163 
Q 1475 2359 1475 2922 
z
M 5053 1028 
Q 5053 534 4803 243 
Q 4553 -47 4247 -47 
Q 3938 -47 3697 233 
Q 3456 513 3456 997 
Q 3456 1338 3581 1631 
Q 3672 1847 3859 1986 
Q 4047 2125 4263 2125 
Q 4481 2125 4675 1981 
Q 4869 1838 4978 1550 
Q 5053 1363 5053 1028 
z
M 4703 972 
Q 4703 1431 4675 1572 
Q 4631 1813 4525 1911 
Q 4419 2009 4263 2009 
Q 4056 2009 3936 1831 
Q 3816 1653 3816 959 
Q 3816 409 3937 234 
Q 4059 59 4247 59 
Q 4456 59 4563 209 
Q 4703 406 4703 972 
z
" transform="scale(0.015625)"/>
      </defs>
      <use xlink:href="#Garamond-32"/>
      <use xlink:href="#Garamond-36" x="46.875"/>
      <use xlink:href="#Garamond-2e" x="93.75"/>
      <use xlink:href="#Garamond-35" x="115.625"/>
      <use xlink:href="#Garamond-25" x="162.5"/>
     </g>
    </g>
    <g id="patch_7">
     <path d="M 336.6246 95.904 
L 498.8538 95.904 
M 498.8538 53.32608 
M 336.6246 53.32608 
M 336.6246 95.904 
" style="fill: #ffffff; stroke: #000000; stroke-width: 0.8; stroke-linejoin: miter"/>
    </g>
    <g id="text_5">
     <!-- 19.4% -->
     <g transform="translate(400.604512 77.36254) scale(0.14 -0.14)">
      <defs>
       <path id="Garamond-31" d="M 2269 6 
L 838 6 
Q 834 34 834 53 
Q 834 106 856 126 
Q 878 147 994 169 
Q 1175 206 1288 259 
Q 1319 328 1319 388 
L 1319 581 
Q 1319 616 1328 897 
Q 1331 1003 1334 1816 
L 1341 2550 
L 1334 2978 
Q 1334 3072 1341 3569 
Q 631 3063 563 3063 
Q 538 3063 509 3089 
Q 481 3116 481 3141 
Q 481 3172 503 3191 
Q 547 3231 713 3325 
Q 738 3338 928 3494 
Q 1231 3747 1372 3890 
Q 1513 4034 1544 4053 
Q 1606 4056 1641 4056 
Q 1722 4056 1742 4029 
Q 1763 4003 1763 3838 
L 1741 1053 
L 1741 778 
Q 1741 678 1737 576 
Q 1734 475 1734 428 
Q 1734 316 1763 281 
Q 1781 259 1878 225 
L 2091 181 
Q 2228 147 2241 134 
Q 2272 106 2272 47 
L 2269 6 
z
" transform="scale(0.015625)"/>
       <path id="Garamond-39" d="M 2234 3784 
Q 2466 3534 2566 3291 
Q 2700 2947 2700 2494 
Q 2700 1981 2550 1581 
Q 2400 1181 2186 889 
Q 1972 597 1737 408 
Q 1503 219 1159 62 
Q 816 -94 584 -94 
L 559 -94 
Q 522 -66 522 -25 
Q 522 22 537 37 
Q 553 53 619 56 
Q 734 66 1009 200 
Q 1384 388 1581 613 
Q 1916 994 2080 1475 
Q 2244 1956 2244 2553 
Q 2244 3050 2131 3359 
Q 2019 3669 1812 3806 
Q 1606 3944 1416 3944 
Q 1166 3944 991 3706 
Q 750 3375 750 2750 
Q 750 2256 975 1972 
Q 1134 1772 1413 1772 
Q 1513 1772 1556 1791 
L 1581 1800 
Q 1613 1800 1638 1769 
Q 1675 1722 1675 1672 
L 1641 1644 
Q 1572 1613 1483 1597 
Q 1394 1581 1284 1581 
Q 900 1581 590 1931 
Q 281 2281 281 2813 
Q 281 3356 629 3720 
Q 978 4084 1463 4084 
Q 1672 4084 1831 4025 
Q 1991 3966 2234 3784 
z
" transform="scale(0.015625)"/>
       <path id="Garamond-34" d="M 2097 4075 
L 2241 4075 
Q 2238 3978 2238 3959 
L 2247 3500 
L 2228 3088 
L 2241 2628 
L 2241 2266 
L 2247 1772 
Q 2247 1656 2241 1422 
L 2306 1419 
L 2528 1419 
L 2741 1416 
L 2916 1422 
Q 2922 1325 2922 1278 
Q 2922 1231 2916 1134 
Q 2722 1125 2706 1125 
L 2550 1128 
L 2425 1128 
Q 2375 1128 2241 1134 
Q 2234 691 2241 -44 
Q 2222 -63 2200 -69 
L 2006 -75 
Q 1944 -75 1816 -69 
Q 1825 300 1825 459 
Q 1825 600 1819 716 
Q 1809 928 1809 959 
Q 1809 1016 1816 1134 
Q 1684 1119 1613 1119 
Q 1575 1119 1528 1122 
Q 1213 1138 1172 1138 
Q 1131 1138 972 1116 
L 650 1134 
L 475 1125 
L 356 1144 
L 206 1113 
L 178 1134 
Q 172 1203 172 1238 
Q 172 1272 178 1341 
Q 266 1456 500 1809 
L 1109 2694 
Q 1334 3028 1487 3225 
Q 1641 3422 1791 3648 
Q 1941 3875 2097 4075 
z
M 1816 1422 
L 1819 1934 
L 1816 2341 
L 1816 3388 
Q 1559 3050 1103 2366 
Q 581 1584 484 1422 
Q 622 1428 691 1428 
L 1547 1416 
Q 1641 1416 1816 1422 
z
" transform="scale(0.015625)"/>
      </defs>
      <use xlink:href="#Garamond-31"/>
      <use xlink:href="#Garamond-39" x="46.875"/>
      <use xlink:href="#Garamond-2e" x="93.75"/>
      <use xlink:href="#Garamond-34" x="115.625"/>
      <use xlink:href="#Garamond-25" x="162.5"/>
     </g>
    </g>
    <g id="patch_8">
     <path d="M 12.1662 138.48192 
L 174.3954 138.48192 
M 174.3954 95.904 
M 12.1662 95.904 
M 12.1662 138.48192 
" style="fill: #ffffff; stroke: #000000; stroke-width: 0.8; stroke-linejoin: miter"/>
    </g>
    <g id="text_6">
     <!-- Annual Volatility -->
     <g transform="translate(28.38912 119.94046) scale(0.14 -0.14)">
      <defs>
       <path id="Garamond-6e" d="M 119 100 
Q 197 122 300 138 
Q 497 166 536 203 
Q 575 241 575 375 
L 581 488 
Q 584 550 584 647 
L 578 1606 
Q 578 1800 528 1856 
Q 444 1944 216 1978 
L 216 2091 
Q 444 2153 566 2253 
Q 744 2394 866 2634 
L 972 2631 
Q 981 2484 981 2422 
L 981 2216 
L 984 2159 
Q 1022 2184 1072 2222 
Q 1259 2363 1456 2452 
Q 1653 2541 1806 2575 
Q 1903 2600 2025 2600 
Q 2281 2600 2465 2462 
Q 2650 2325 2704 2139 
Q 2759 1953 2759 1400 
L 2759 928 
Q 2759 909 2754 803 
Q 2750 697 2750 559 
Q 2750 341 2769 281 
Q 2784 241 2850 200 
Q 3150 159 3200 103 
L 3200 78 
Q 3200 47 3181 0 
L 3122 0 
L 2709 3 
L 2303 -3 
Q 2078 -9 1888 0 
L 1869 66 
Q 1869 84 1891 116 
Q 1975 153 2128 166 
Q 2219 172 2253 184 
Q 2288 197 2338 234 
Q 2375 309 2375 359 
Q 2375 381 2369 447 
Q 2359 591 2356 1163 
L 2356 1325 
L 2363 1575 
Q 2363 1978 2200 2131 
Q 2038 2284 1766 2284 
Q 1556 2284 1356 2192 
Q 1156 2100 969 1916 
Q 963 1766 963 1659 
L 972 969 
Q 972 428 988 306 
Q 994 256 1009 238 
Q 1034 213 1109 197 
Q 1184 181 1282 153 
Q 1381 125 1413 119 
Q 1475 103 1497 56 
L 1494 -6 
L 1166 -6 
L 491 3 
Q 256 -3 194 -3 
L 116 -3 
L 109 38 
Q 109 59 119 100 
z
" transform="scale(0.015625)"/>
       <path id="Garamond-75" d="M 103 2453 
L 338 2453 
L 441 2447 
L 522 2453 
Q 844 2453 922 2447 
L 925 2388 
Q 925 1947 913 1534 
Q 903 1291 903 1256 
Q 903 706 939 568 
Q 975 431 1108 348 
Q 1241 266 1428 266 
Q 1656 266 1864 361 
Q 2072 456 2219 594 
Q 2234 713 2234 856 
Q 2234 1322 2244 1484 
Q 2247 1581 2247 1653 
Q 2247 2159 2197 2225 
Q 2147 2291 1816 2325 
Q 1706 2338 1656 2347 
Q 1631 2388 1631 2409 
L 1641 2444 
Q 1722 2453 1800 2453 
L 2297 2447 
Q 2563 2453 2578 2453 
Q 2613 2453 2644 2450 
L 2650 2222 
Q 2628 1747 2625 1047 
L 2619 794 
L 2631 369 
Q 2659 319 2681 309 
Q 2719 294 2834 294 
L 2863 294 
Q 2903 294 3094 275 
Q 3097 234 3097 216 
L 3097 181 
Q 2678 91 2419 0 
Q 2316 -34 2244 -50 
Q 2228 59 2228 84 
L 2228 338 
Q 2228 353 2225 422 
Q 2184 394 2131 353 
Q 1884 163 1609 31 
Q 1425 -59 1253 -59 
Q 925 -59 719 184 
Q 509 428 509 1016 
Q 509 1047 513 1128 
Q 525 1278 525 1338 
Q 525 1359 522 1475 
Q 519 1525 519 1563 
Q 519 1591 522 1689 
Q 525 1788 525 1828 
Q 525 1881 522 1922 
L 516 2088 
L 519 2175 
Q 519 2225 469 2266 
Q 272 2319 211 2326 
Q 150 2334 103 2353 
L 103 2453 
z
" transform="scale(0.015625)"/>
       <path id="Garamond-61" d="M 2541 425 
Q 2559 384 2559 366 
Q 2559 319 2484 200 
Q 2388 44 2269 -28 
Q 2194 -75 2063 -75 
Q 1838 -75 1725 63 
Q 1656 144 1628 353 
L 1278 109 
Q 1094 3 997 -25 
Q 841 -66 622 -66 
Q 463 -66 370 29 
Q 278 125 278 275 
Q 278 491 542 791 
Q 806 1091 1259 1281 
Q 1578 1416 1650 1453 
Q 1656 1556 1656 1678 
Q 1656 2075 1545 2215 
Q 1434 2356 1228 2356 
Q 1013 2356 825 2188 
Q 709 2081 650 1788 
Q 631 1706 578 1613 
Q 444 1525 363 1525 
Q 294 1525 238 1566 
Q 206 1588 206 1616 
Q 206 1697 379 1983 
Q 553 2269 817 2411 
Q 1081 2553 1278 2553 
Q 1547 2553 1678 2504 
Q 1809 2456 1909 2334 
Q 2009 2213 2031 2069 
Q 2044 2000 2044 1578 
L 2034 1081 
L 2038 719 
Q 2038 647 2034 597 
Q 2031 506 2031 463 
Q 2031 359 2091 297 
Q 2150 234 2231 234 
Q 2350 234 2434 353 
L 2472 403 
Q 2488 413 2541 425 
z
M 1622 516 
Q 1644 913 1644 1075 
Q 1644 1159 1634 1303 
Q 1425 1228 1190 1075 
Q 956 922 819 722 
Q 719 578 719 450 
Q 719 328 801 247 
Q 884 166 1009 166 
Q 1106 166 1244 234 
Q 1425 325 1622 516 
z
" transform="scale(0.015625)"/>
       <path id="Garamond-6c" d="M 163 3872 
L 163 3941 
Q 250 3969 356 4000 
Q 513 4050 819 4153 
L 966 4153 
Q 969 4003 969 3981 
Q 969 1416 953 922 
Q 944 631 944 613 
Q 944 263 972 222 
Q 1009 166 1201 144 
Q 1394 122 1428 100 
Q 1453 88 1453 56 
Q 1453 22 1439 8 
Q 1425 -6 1388 -6 
Q 1366 -6 1059 3 
L 650 16 
L 125 -6 
Q 75 -9 50 13 
Q 31 28 31 56 
Q 31 88 51 102 
Q 72 116 276 150 
Q 481 184 511 207 
Q 541 231 550 313 
Q 563 425 563 947 
L 559 1666 
L 569 2409 
L 566 3153 
L 575 3519 
Q 575 3628 540 3676 
Q 506 3725 394 3772 
Q 225 3841 163 3872 
z
" transform="scale(0.015625)"/>
       <path id="Garamond-20" transform="scale(0.015625)"/>
       <path id="Garamond-56" d="M -53 3963 
L -31 4016 
Q 222 4016 475 4009 
L 578 4009 
Q 625 4009 681 4013 
Q 884 4022 1416 4022 
Q 1522 4022 1622 4020 
Q 1722 4019 1816 4016 
Q 1834 4006 1844 3988 
L 1838 3938 
Q 1819 3906 1744 3906 
L 1719 3906 
Q 1631 3909 1431 3892 
Q 1231 3875 1169 3828 
Q 1128 3794 1128 3738 
Q 1128 3616 1231 3372 
L 1706 2269 
L 1872 1903 
Q 2113 1322 2347 716 
Q 2372 650 2394 597 
L 2603 1109 
Q 2766 1497 2931 1934 
L 3147 2522 
Q 3153 2541 3181 2647 
Q 3484 3475 3484 3694 
Q 3484 3741 3442 3789 
Q 3400 3838 3306 3869 
Q 3269 3881 3063 3906 
L 2831 3934 
Q 2803 3966 2803 3988 
L 2813 4013 
L 3825 4022 
L 4159 4022 
Q 4328 4022 4391 4000 
L 4394 3975 
Q 4394 3950 4375 3909 
Q 4300 3884 4238 3878 
Q 3975 3847 3912 3805 
Q 3850 3763 3781 3625 
L 2959 1594 
Q 2575 678 2413 175 
L 2322 -97 
Q 2281 -122 2253 -122 
Q 2219 -122 2178 -116 
Q 1806 847 1572 1372 
L 616 3541 
Q 513 3734 461 3773 
Q 409 3813 100 3884 
Q -9 3909 -22 3916 
Q -44 3931 -53 3963 
z
" transform="scale(0.015625)"/>
       <path id="Garamond-6f" d="M 228 1256 
Q 228 1469 317 1711 
Q 406 1953 587 2145 
Q 769 2338 972 2431 
Q 1256 2563 1666 2563 
Q 2250 2563 2642 2163 
Q 3034 1763 3034 1200 
Q 3034 700 2623 308 
Q 2213 -84 1584 -84 
Q 1197 -84 853 119 
Q 597 272 412 572 
Q 228 872 228 1256 
z
M 1609 38 
Q 1847 38 2067 166 
Q 2288 294 2419 576 
Q 2550 859 2550 1231 
Q 2550 1475 2448 1797 
Q 2347 2119 2136 2280 
Q 1925 2441 1641 2441 
Q 1434 2441 1220 2344 
Q 1006 2247 857 1972 
Q 709 1697 709 1191 
Q 709 622 967 330 
Q 1225 38 1609 38 
z
" transform="scale(0.015625)"/>
       <path id="Garamond-74" d="M 894 3088 
L 991 3084 
L 1003 2788 
L 997 2403 
Q 1056 2400 1072 2400 
Q 1153 2400 1381 2413 
Q 1528 2422 1663 2422 
Q 1725 2422 1850 2419 
Q 1856 2356 1856 2319 
Q 1856 2278 1838 2191 
L 1784 2191 
L 1300 2175 
L 1059 2169 
L 1003 2163 
Q 978 2084 978 1981 
L 988 1513 
L 981 688 
Q 981 363 1066 256 
Q 1147 147 1309 147 
Q 1391 147 1616 197 
Q 1684 213 1800 300 
L 1828 300 
Q 1856 300 1873 283 
Q 1891 266 1891 238 
L 1888 216 
Q 1753 69 1579 1 
Q 1406 -66 1119 -66 
Q 916 -66 783 28 
Q 650 122 612 250 
Q 575 378 575 809 
L 588 1513 
L 584 1850 
L 584 1975 
Q 584 2063 578 2150 
L 525 2153 
L 269 2144 
L 244 2141 
Q 209 2141 192 2156 
Q 175 2172 175 2194 
Q 175 2231 198 2254 
Q 222 2278 341 2328 
Q 422 2363 530 2458 
Q 638 2553 713 2669 
Q 750 2731 819 2906 
Q 869 3034 894 3088 
z
" transform="scale(0.015625)"/>
       <path id="Garamond-69" d="M 444 3841 
Q 444 3944 523 4019 
Q 603 4094 716 4094 
Q 831 4094 918 4009 
Q 1006 3925 1006 3828 
Q 1006 3731 918 3645 
Q 831 3559 716 3559 
Q 600 3559 522 3637 
Q 444 3716 444 3841 
z
M 181 2222 
L 184 2313 
Q 388 2372 403 2381 
Q 516 2431 639 2534 
Q 763 2638 847 2766 
Q 884 2772 906 2772 
L 944 2769 
Q 956 2619 956 2550 
Q 956 2534 950 2409 
L 950 2244 
L 953 1344 
L 944 391 
Q 941 275 981 229 
Q 1022 184 1222 128 
Q 1347 94 1409 69 
Q 1419 47 1419 31 
Q 1419 13 1403 -16 
Q 1281 -13 1091 0 
Q 831 22 747 22 
Q 706 22 247 6 
Q 153 3 66 -9 
Q 50 -9 16 0 
Q 0 22 0 38 
Q 0 81 59 106 
Q 72 113 378 178 
Q 478 197 509 241 
Q 563 306 563 450 
Q 569 691 569 1769 
Q 569 1984 550 2038 
Q 534 2075 467 2123 
Q 400 2172 181 2222 
z
" transform="scale(0.015625)"/>
       <path id="Garamond-79" d="M 38 2463 
Q 106 2469 153 2469 
L 303 2469 
L 506 2475 
L 772 2466 
L 988 2472 
Q 1159 2472 1297 2450 
Q 1309 2419 1309 2400 
L 1306 2375 
Q 1241 2344 1103 2331 
Q 909 2316 825 2263 
L 819 2228 
Q 819 2197 844 2134 
Q 859 2097 884 2022 
Q 953 1791 1181 1128 
Q 1347 650 1488 306 
Q 1575 494 1688 781 
L 1953 1522 
Q 2041 1766 2088 2009 
Q 2106 2106 2106 2163 
Q 2106 2209 2065 2250 
Q 2025 2291 1903 2319 
Q 1681 2375 1662 2389 
Q 1644 2403 1641 2450 
Q 1659 2466 1684 2475 
L 1878 2475 
L 2088 2472 
L 2400 2475 
L 2600 2472 
L 2650 2475 
Q 2672 2475 2722 2469 
Q 2753 2453 2753 2419 
Q 2753 2388 2725 2363 
L 2663 2353 
Q 2481 2328 2384 2259 
Q 2331 2222 2294 2103 
Q 2281 2059 2253 1991 
Q 2238 1953 2208 1865 
Q 2178 1778 2131 1659 
L 2094 1572 
L 2091 1556 
L 1559 156 
L 1172 -897 
Q 1134 -975 1084 -1091 
Q 966 -1313 944 -1334 
Q 850 -1450 781 -1497 
L 622 -1566 
Q 575 -1578 522 -1578 
Q 381 -1578 315 -1517 
Q 250 -1456 250 -1350 
Q 250 -1250 347 -1169 
Q 378 -1159 409 -1144 
L 450 -1134 
Q 728 -1184 797 -1184 
Q 863 -1150 894 -1103 
Q 1047 -875 1156 -594 
Q 1266 -313 1266 -216 
Q 1266 -109 1184 94 
L 838 1013 
Q 766 1191 409 2175 
Q 388 2238 353 2269 
L 141 2347 
L 75 2359 
Q 22 2381 22 2422 
L 38 2463 
z
" transform="scale(0.015625)"/>
      </defs>
      <use xlink:href="#Garamond-41"/>
      <use xlink:href="#Garamond-6e" x="67.724609"/>
      <use xlink:href="#Garamond-6e" x="118.75"/>
      <use xlink:href="#Garamond-75" x="168.400391"/>
      <use xlink:href="#Garamond-61" x="217.375"/>
      <use xlink:href="#Garamond-6c" x="258"/>
      <use xlink:href="#Garamond-20" x="280.900391"/>
      <use xlink:href="#Garamond-56" x="305.900391"/>
      <use xlink:href="#Garamond-6f" x="366.75"/>
      <use xlink:href="#Garamond-6c" x="417.775391"/>
      <use xlink:href="#Garamond-61" x="440.675781"/>
      <use xlink:href="#Garamond-74" x="481.300781"/>
      <use xlink:href="#Garamond-69" x="510.451172"/>
      <use xlink:href="#Garamond-6c" x="533.351562"/>
      <use xlink:href="#Garamond-69" x="556.251953"/>
      <use xlink:href="#Garamond-74" x="579.152344"/>
      <use xlink:href="#Garamond-79" x="608.302734"/>
     </g>
    </g>
    <g id="patch_9">
     <path d="M 174.3954 138.48192 
L 336.6246 138.48192 
M 336.6246 95.904 
M 174.3954 95.904 
M 174.3954 138.48192 
" style="fill: #ffffff; stroke: #000000; stroke-width: 0.8; stroke-linejoin: miter"/>
    </g>
    <g id="text_7">
     <!-- 10.7% -->
     <g transform="translate(238.375312 119.94046) scale(0.14 -0.14)">
      <defs>
       <path id="Garamond-30" d="M 2800 1972 
Q 2800 1650 2753 1400 
Q 2669 969 2519 678 
Q 2369 388 2163 188 
Q 2013 41 1844 -26 
Q 1675 -94 1500 -94 
Q 1191 -94 914 112 
Q 638 319 431 794 
Q 225 1269 225 1913 
Q 225 2416 350 2878 
Q 475 3341 679 3595 
Q 884 3850 1086 3962 
Q 1288 4075 1525 4075 
Q 1859 4075 2173 3812 
Q 2488 3550 2675 2997 
Q 2800 2625 2800 1972 
z
M 2331 2075 
Q 2328 2844 2275 3119 
Q 2188 3572 1989 3753 
Q 1791 3934 1525 3934 
Q 1303 3934 1104 3790 
Q 906 3647 831 3341 
Q 703 2844 703 1834 
Q 703 834 901 436 
Q 1100 38 1497 38 
Q 1769 38 1967 206 
Q 2166 375 2252 833 
Q 2338 1291 2334 1859 
L 2331 2075 
z
" transform="scale(0.015625)"/>
       <path id="Garamond-37" d="M 341 3950 
Q 725 3966 1378 3966 
Q 1675 3966 2056 3956 
Q 2288 3947 2359 3947 
L 2663 3950 
L 2734 3950 
Q 2759 3925 2759 3903 
Q 2759 3866 2688 3722 
Q 2653 3659 2384 3038 
Q 2253 2731 2063 2234 
L 1669 1125 
Q 1528 744 1488 594 
L 1416 303 
Q 1372 175 1372 116 
Q 1372 69 1425 -31 
Q 1388 -81 1256 -81 
Q 1197 -81 1144 -31 
Q 1163 153 1263 456 
Q 1300 566 1390 887 
Q 1481 1209 1569 1456 
L 1925 2425 
Q 2078 2838 2222 3184 
Q 2272 3300 2297 3347 
Q 2363 3463 2363 3538 
L 2322 3534 
L 2288 3534 
L 1875 3547 
Q 1856 3547 1743 3540 
Q 1631 3534 1575 3534 
L 1091 3538 
L 944 3538 
L 738 3544 
Q 556 3547 511 3501 
Q 466 3456 459 3269 
Q 456 3222 434 3178 
Q 400 3169 384 3169 
Q 350 3169 294 3194 
Q 297 3272 297 3309 
L 303 3403 
L 294 3575 
Q 294 3800 306 3878 
Q 313 3909 341 3950 
z
" transform="scale(0.015625)"/>
      </defs>
      <use xlink:href="#Garamond-31"/>
      <use xlink:href="#Garamond-30" x="46.875"/>
      <use xlink:href="#Garamond-2e" x="93.75"/>
      <use xlink:href="#Garamond-37" x="115.625"/>
      <use xlink:href="#Garamond-25" x="162.5"/>
     </g>
    </g>
    <g id="patch_10">
     <path d="M 336.6246 138.48192 
L 498.8538 138.48192 
M 498.8538 95.904 
M 336.6246 95.904 
M 336.6246 138.48192 
" style="fill: #ffffff; stroke: #000000; stroke-width: 0.8; stroke-linejoin: miter"/>
    </g>
    <g id="text_8">
     <!-- 15.3% -->
     <g transform="translate(400.604512 119.94046) scale(0.14 -0.14)">
      <defs>
       <path id="Garamond-33" d="M 534 3150 
L 431 3206 
Q 628 3684 900 3879 
Q 1172 4075 1534 4075 
Q 1872 4075 2075 3925 
Q 2378 3700 2378 3419 
Q 2378 3191 2223 2959 
Q 2069 2728 1681 2441 
L 1756 2444 
Q 2000 2444 2226 2320 
Q 2453 2197 2584 1936 
Q 2716 1675 2716 1375 
Q 2716 772 2273 342 
Q 1831 -88 1147 -88 
Q 628 -88 381 63 
Q 247 141 247 259 
Q 247 325 301 378 
Q 356 431 438 431 
Q 541 431 688 319 
Q 1034 53 1291 53 
Q 1678 53 1978 379 
Q 2278 706 2278 1203 
Q 2278 1616 2076 1880 
Q 1875 2144 1566 2144 
Q 1334 2144 1084 1925 
L 1009 2050 
Q 1166 2184 1291 2278 
Q 1672 2556 1859 2825 
Q 1994 3019 1994 3166 
Q 1994 3413 1819 3583 
Q 1644 3753 1359 3753 
Q 891 3753 534 3150 
z
" transform="scale(0.015625)"/>
      </defs>
      <use xlink:href="#Garamond-31"/>
      <use xlink:href="#Garamond-35" x="46.875"/>
      <use xlink:href="#Garamond-2e" x="93.75"/>
      <use xlink:href="#Garamond-33" x="115.625"/>
      <use xlink:href="#Garamond-25" x="162.5"/>
     </g>
    </g>
    <g id="patch_11">
     <path d="M 12.1662 181.05984 
L 174.3954 181.05984 
M 174.3954 138.48192 
M 12.1662 138.48192 
M 12.1662 181.05984 
" style="fill: #ffffff; stroke: #000000; stroke-width: 0.8; stroke-linejoin: miter"/>
    </g>
    <g id="text_9">
     <!-- Maximum Drawdown -->
     <g transform="translate(28.38912 162.51838) scale(0.14 -0.14)">
      <defs>
       <path id="Garamond-4d" d="M 44 72 
Q 141 138 394 166 
Q 591 175 628 200 
Q 653 219 666 247 
Q 713 363 734 875 
Q 763 1541 825 2647 
Q 875 3491 875 3700 
L 875 3781 
Q 650 3828 163 3881 
Q 131 3928 131 3953 
Q 131 3969 153 4009 
Q 206 4028 234 4028 
Q 259 4028 344 4016 
Q 497 3994 766 3994 
Q 853 3994 1066 4006 
Q 1216 4016 1234 4016 
Q 1284 4016 1350 4000 
Q 1381 3969 1397 3941 
L 1528 3647 
L 2413 1691 
L 2778 869 
Q 3213 1728 3453 2397 
Q 3469 2447 3491 2488 
Q 3519 2541 3544 2606 
Q 3569 2672 3747 3106 
Q 3819 3281 3863 3406 
Q 4041 3906 4072 3978 
Q 4131 4000 4175 4000 
Q 4225 4000 4303 3994 
Q 4478 3984 4872 3984 
Q 5116 3984 5272 3991 
Q 5278 3956 5278 3941 
Q 5278 3919 5269 3881 
Q 5169 3828 5028 3822 
Q 4750 3806 4675 3778 
Q 4600 3750 4579 3706 
Q 4559 3663 4544 3419 
L 4547 3275 
L 4544 3125 
Q 4544 2656 4569 1550 
L 4566 938 
L 4569 544 
Q 4569 313 4591 270 
Q 4613 228 4716 191 
Q 4884 134 5266 75 
Q 5288 59 5288 34 
Q 5288 6 5284 -28 
L 5141 -28 
Q 4956 -28 4740 -17 
Q 4525 -6 4509 -6 
Q 3869 -6 3659 -19 
Q 3531 -28 3497 -28 
Q 3475 -28 3450 -16 
L 3450 25 
Q 3450 53 3459 84 
Q 3563 128 3741 144 
Q 3938 197 4028 256 
Q 4056 375 4056 741 
L 4047 1372 
Q 4047 1475 4058 1756 
Q 4069 2038 4069 2672 
Q 4069 3175 4044 3434 
Q 3991 3325 3834 2959 
L 3788 2841 
L 3781 2822 
L 3319 1728 
L 3153 1306 
L 2938 794 
Q 2797 441 2697 169 
Q 2653 44 2625 -28 
L 2553 -25 
Q 2200 1006 1711 2090 
Q 1222 3175 1025 3522 
Q 1000 3388 969 2741 
Q 928 1953 928 1006 
Q 928 709 972 338 
Q 984 231 1062 179 
Q 1141 128 1466 122 
Q 1591 122 1703 103 
Q 1725 56 1725 34 
Q 1725 19 1709 -19 
L 738 16 
Q 631 16 406 0 
Q 281 -9 47 -13 
L 44 72 
z
" transform="scale(0.015625)"/>
       <path id="Garamond-78" d="M 94 2341 
Q 88 2381 88 2409 
L 88 2450 
Q 138 2463 197 2463 
L 313 2463 
Q 581 2453 650 2453 
Q 866 2453 1088 2459 
Q 1225 2463 1256 2463 
L 1331 2463 
Q 1353 2419 1353 2397 
Q 1353 2381 1341 2353 
L 1294 2347 
Q 1066 2325 1006 2291 
Q 981 2275 981 2250 
Q 981 2200 1056 2103 
Q 1422 1628 1553 1491 
Q 1847 1884 1905 1995 
Q 1963 2106 1963 2169 
Q 1963 2241 1906 2289 
Q 1850 2338 1631 2369 
Q 1606 2406 1606 2431 
L 1616 2463 
L 1697 2466 
Q 1728 2466 1806 2463 
Q 1941 2453 2075 2453 
Q 2144 2453 2312 2458 
Q 2481 2463 2569 2463 
L 2713 2463 
Q 2753 2444 2753 2413 
Q 2753 2397 2747 2372 
Q 2697 2359 2625 2347 
Q 2456 2322 2297 2225 
Q 2178 2153 2063 1997 
L 1619 1397 
L 2072 828 
Q 2384 406 2454 331 
Q 2525 256 2606 209 
Q 2688 163 2844 122 
Q 2847 84 2847 56 
Q 2847 34 2834 -3 
Q 2778 -3 2266 13 
Q 2234 13 1966 6 
Q 1881 3 1803 3 
Q 1731 3 1625 9 
L 1634 103 
Q 1681 113 1738 125 
Q 1897 156 1966 209 
Q 2006 244 2006 284 
Q 2006 353 1581 859 
L 1397 1081 
Q 1266 950 1106 709 
Q 1016 569 959 500 
Q 853 375 853 291 
Q 853 263 890 233 
Q 928 203 1109 163 
Q 1231 138 1281 122 
Q 1291 81 1291 59 
Q 1291 41 1284 0 
Q 1044 13 816 13 
Q 528 13 398 5 
Q 269 -3 238 -3 
Q 200 -3 119 3 
Q 106 47 106 69 
L 113 109 
Q 156 131 222 138 
Q 431 159 593 293 
Q 756 428 1316 1191 
L 900 1691 
L 456 2222 
Q 438 2241 409 2259 
Q 359 2288 275 2303 
Q 147 2328 94 2341 
z
" transform="scale(0.015625)"/>
       <path id="Garamond-6d" d="M 125 109 
Q 175 144 263 156 
Q 388 172 456 206 
Q 513 253 531 341 
Q 553 453 553 1131 
Q 553 1797 513 1991 
Q 444 2034 334 2059 
Q 300 2066 191 2094 
L 191 2197 
Q 375 2250 489 2334 
Q 603 2419 806 2672 
L 825 2672 
Q 844 2672 884 2675 
Q 909 2672 925 2659 
L 922 2303 
Q 922 2194 928 2069 
Q 1263 2372 1528 2494 
Q 1709 2575 1938 2575 
Q 2209 2575 2368 2472 
Q 2528 2369 2672 2100 
Q 2950 2375 3176 2484 
Q 3403 2594 3634 2594 
Q 3984 2594 4209 2366 
Q 4431 2134 4438 1688 
L 4438 1428 
L 4441 1144 
L 4438 413 
Q 4434 284 4494 219 
Q 4519 209 4684 163 
Q 4788 134 4806 118 
Q 4825 103 4825 75 
Q 4825 41 4806 -6 
L 4784 -6 
L 4469 13 
Q 4413 16 4291 16 
Q 4141 16 3872 3 
L 3713 3 
Q 3678 3 3578 0 
Q 3575 28 3575 50 
Q 3575 75 3597 113 
Q 3681 150 3828 173 
Q 3975 197 4011 258 
Q 4047 319 4047 744 
Q 4047 1666 4025 1813 
Q 3988 2047 3827 2180 
Q 3666 2313 3422 2313 
Q 3234 2313 3056 2214 
Q 2878 2116 2706 1919 
L 2703 1844 
L 2703 1366 
L 2691 994 
Q 2691 425 2702 347 
Q 2713 269 2755 233 
Q 2797 197 3000 169 
Q 3091 156 3141 144 
Q 3178 113 3178 63 
Q 3178 22 3150 6 
L 3097 6 
L 2941 9 
L 2031 9 
L 1781 6 
Q 1775 53 1775 75 
L 1778 113 
Q 1847 150 2034 184 
Q 2131 200 2234 238 
Q 2253 253 2263 278 
Q 2278 322 2284 528 
L 2300 891 
L 2294 1300 
L 2297 1528 
Q 2297 1913 2140 2089 
Q 1984 2266 1747 2266 
Q 1525 2266 1301 2156 
Q 1078 2047 931 1863 
Q 928 1775 928 1703 
L 941 653 
Q 944 309 980 261 
Q 1016 213 1141 194 
Q 1341 166 1400 125 
Q 1428 106 1428 69 
Q 1428 44 1425 9 
Q 1069 34 947 34 
Q 822 34 722 31 
L 566 22 
L 469 22 
L 119 9 
Q 113 31 113 47 
Q 113 63 125 109 
z
" transform="scale(0.015625)"/>
       <path id="Garamond-44" d="M 75 63 
Q 191 113 344 128 
Q 566 153 675 234 
Q 759 406 759 1109 
L 759 1603 
L 766 1900 
L 759 2119 
L 766 2522 
L 756 3538 
Q 756 3709 706 3763 
Q 634 3841 325 3906 
Q 197 3934 169 3957 
Q 141 3981 134 4047 
Q 206 4063 234 4063 
L 456 4063 
L 572 4066 
Q 688 4066 828 4041 
Q 1116 4022 1419 4022 
Q 1506 4022 1669 4031 
Q 2100 4056 2288 4056 
Q 2666 4056 3002 3981 
Q 3338 3906 3694 3703 
Q 3916 3575 4148 3298 
Q 4381 3022 4501 2695 
Q 4622 2369 4622 1959 
Q 4622 1594 4489 1234 
Q 4356 875 4118 611 
Q 3881 347 3637 214 
Q 3394 81 2894 -16 
Q 2688 -53 2153 -53 
Q 1800 -53 1578 -31 
Q 1491 -19 1391 -19 
Q 1375 -19 1356 -22 
L 81 -44 
L 75 -19 
Q 69 -3 69 16 
L 75 63 
z
M 1666 184 
Q 1903 103 2147 103 
Q 2463 103 2766 201 
Q 3069 300 3301 479 
Q 3534 659 3684 886 
Q 3834 1113 3897 1294 
Q 3984 1559 3984 1984 
Q 3984 2391 3813 2809 
Q 3694 3100 3395 3365 
Q 3097 3631 2690 3754 
Q 2284 3878 1813 3878 
Q 1488 3878 1331 3806 
Q 1313 3788 1294 3763 
Q 1275 3684 1275 3619 
Q 1275 3578 1278 3522 
Q 1288 3159 1288 2941 
L 1284 2231 
Q 1284 669 1342 492 
Q 1400 316 1666 184 
z
" transform="scale(0.015625)"/>
       <path id="Garamond-72" d="M 128 -9 
L 116 31 
Q 116 53 144 97 
L 328 134 
L 588 181 
Q 619 197 631 225 
Q 650 266 650 466 
Q 650 1528 637 1692 
Q 625 1856 581 1900 
Q 538 1944 356 1969 
Q 250 1984 188 2009 
L 200 2103 
Q 528 2238 641 2334 
Q 797 2475 906 2703 
L 1013 2700 
Q 1031 2544 1031 2006 
L 1028 1953 
Q 1028 1934 1034 1894 
Q 1153 2109 1331 2291 
L 1403 2363 
Q 1447 2413 1488 2441 
Q 1706 2572 1813 2572 
Q 1950 2572 2037 2480 
Q 2125 2388 2125 2253 
Q 2125 2147 2063 2088 
Q 1978 2009 1869 2009 
Q 1819 2009 1672 2062 
Q 1525 2116 1478 2116 
Q 1391 2116 1356 2088 
Q 1269 2019 1144 1806 
Q 1047 1647 1047 1513 
L 1063 997 
L 1069 378 
Q 1078 272 1094 241 
Q 1106 219 1156 188 
Q 1494 159 1556 147 
Q 1600 144 1622 141 
Q 1756 138 1809 103 
Q 1838 88 1838 56 
Q 1838 38 1813 6 
L 1466 9 
L 1334 13 
L 1144 9 
L 825 9 
L 653 0 
L 128 -9 
z
" transform="scale(0.015625)"/>
       <path id="Garamond-77" d="M -66 2463 
L 1134 2459 
Q 1169 2459 1181 2446 
Q 1194 2434 1194 2409 
Q 1194 2350 1147 2322 
Q 928 2306 875 2268 
Q 822 2231 822 2166 
Q 822 2134 828 2106 
Q 838 2069 919 1884 
Q 1025 1638 1297 1084 
L 1669 328 
Q 1988 884 2184 1363 
L 1994 1863 
Q 1963 1931 1914 2068 
Q 1866 2206 1839 2229 
Q 1813 2253 1647 2300 
Q 1481 2347 1450 2372 
L 1447 2394 
Q 1447 2413 1466 2447 
Q 1541 2466 1584 2466 
L 1763 2463 
L 2153 2463 
L 2272 2466 
L 2656 2459 
Q 2703 2459 2734 2463 
L 2788 2463 
Q 2806 2463 2841 2459 
L 2834 2359 
Q 2788 2331 2678 2319 
Q 2472 2297 2363 2241 
Q 2328 2203 2328 2175 
Q 2328 2106 2366 2003 
Q 2378 1972 2431 1809 
L 2766 928 
Q 2913 534 2991 378 
Q 3122 619 3359 1244 
Q 3444 1463 3584 1766 
Q 3675 1956 3675 2094 
Q 3675 2166 3622 2216 
Q 3569 2266 3375 2309 
Q 3259 2334 3203 2356 
Q 3188 2381 3188 2397 
Q 3188 2425 3222 2459 
L 3269 2459 
L 3522 2463 
Q 3538 2463 3666 2458 
Q 3794 2453 3916 2453 
Q 4009 2453 4131 2459 
L 4288 2459 
Q 4306 2453 4314 2443 
Q 4322 2434 4322 2413 
Q 4322 2378 4313 2338 
Q 4159 2319 4071 2267 
Q 3984 2216 3834 1984 
L 3275 641 
Q 3197 453 3003 66 
Q 2963 -16 2942 -66 
Q 2922 -116 2903 -131 
Q 2884 -147 2853 -147 
Q 2831 -147 2794 -134 
Q 2706 38 2406 813 
Q 2325 1022 2256 1169 
Q 1744 103 1584 -141 
Q 1541 -147 1519 -147 
Q 1497 -147 1456 -141 
L 866 1094 
L 325 2150 
Q 269 2247 238 2269 
Q 184 2303 50 2325 
Q -25 2338 -66 2344 
Q -69 2391 -69 2416 
Q -69 2431 -66 2463 
z
" transform="scale(0.015625)"/>
       <path id="Garamond-64" d="M 2281 2269 
L 2284 2359 
L 2281 2725 
L 2284 3416 
Q 2284 3703 2221 3781 
Q 2159 3859 1856 3941 
Q 1834 3947 1788 3959 
L 1788 3994 
Q 1788 4025 1794 4063 
Q 2219 4106 2525 4209 
L 2684 4213 
Q 2697 4000 2697 3738 
L 2684 2534 
L 2706 1178 
L 2697 456 
Q 2697 234 2728 206 
Q 2791 144 3003 141 
Q 3047 141 3122 134 
L 3122 78 
Q 3122 56 3119 31 
Q 3022 9 2919 -9 
L 2466 -97 
Q 2366 -116 2306 -116 
L 2306 184 
Q 2253 169 2141 122 
Q 1653 -84 1244 -84 
Q 997 -84 740 77 
Q 484 238 346 525 
Q 209 813 209 1113 
Q 209 1381 300 1626 
Q 391 1872 538 2034 
Q 631 2141 803 2245 
Q 975 2350 1088 2378 
Q 1366 2450 1459 2450 
Q 1881 2450 2153 2325 
Q 2238 2284 2281 2269 
z
M 2284 338 
Q 2297 547 2297 1200 
Q 2297 1753 2245 1898 
Q 2194 2044 1987 2173 
Q 1781 2303 1525 2303 
Q 1166 2303 916 2025 
Q 666 1747 666 1203 
Q 666 725 936 440 
Q 1206 156 1609 156 
Q 1841 156 2031 218 
Q 2222 281 2284 338 
z
" transform="scale(0.015625)"/>
      </defs>
      <use xlink:href="#Garamond-4d"/>
      <use xlink:href="#Garamond-61" x="83.349609"/>
      <use xlink:href="#Garamond-78" x="123.974609"/>
      <use xlink:href="#Garamond-69" x="169.824219"/>
      <use xlink:href="#Garamond-6d" x="192.724609"/>
      <use xlink:href="#Garamond-75" x="268.449219"/>
      <use xlink:href="#Garamond-6d" x="317.423828"/>
      <use xlink:href="#Garamond-20" x="394.523438"/>
      <use xlink:href="#Garamond-44" x="419.523438"/>
      <use xlink:href="#Garamond-72" x="496.623047"/>
      <use xlink:href="#Garamond-61" x="529.972656"/>
      <use xlink:href="#Garamond-77" x="569.222656"/>
      <use xlink:href="#Garamond-64" x="634.498047"/>
      <use xlink:href="#Garamond-6f" x="684.498047"/>
      <use xlink:href="#Garamond-77" x="734.148438"/>
      <use xlink:href="#Garamond-6e" x="800.798828"/>
     </g>
    </g>
    <g id="patch_12">
     <path d="M 174.3954 181.05984 
L 336.6246 181.05984 
M 336.6246 138.48192 
M 174.3954 138.48192 
M 174.3954 181.05984 
" style="fill: #ffffff; stroke: #000000; stroke-width: 0.8; stroke-linejoin: miter"/>
    </g>
    <g id="text_10">
     <!-- (8.2%) -->
     <g transform="translate(237.574687 162.51838) scale(0.14 -0.14)">
      <defs>
       <path id="Garamond-28" d="M 1900 4091 
Q 1934 4006 1981 3925 
Q 1947 3891 1809 3766 
Q 1603 3572 1494 3413 
Q 1209 3003 1075 2717 
Q 941 2431 862 2057 
Q 784 1684 784 1178 
Q 784 831 848 506 
Q 913 181 1077 -184 
Q 1241 -550 1509 -934 
Q 1631 -1113 1809 -1269 
Q 1841 -1297 1919 -1375 
L 1963 -1419 
L 1897 -1569 
Q 1625 -1409 1419 -1163 
Q 1063 -741 864 -341 
Q 666 59 597 441 
Q 491 1025 491 1281 
Q 491 1706 600 2162 
Q 709 2619 966 3078 
Q 1138 3388 1466 3747 
Q 1672 3972 1900 4091 
z
" transform="scale(0.015625)"/>
       <path id="Garamond-38" d="M 1206 1997 
Q 903 2159 794 2256 
Q 638 2391 533 2603 
Q 428 2816 428 3038 
Q 428 3425 736 3739 
Q 1044 4053 1491 4053 
Q 1994 4053 2287 3787 
Q 2581 3522 2581 3141 
Q 2581 2928 2493 2753 
Q 2406 2578 2234 2438 
Q 2119 2341 1838 2197 
Q 2266 1969 2347 1903 
Q 2516 1772 2631 1556 
Q 2747 1341 2747 1078 
Q 2747 588 2408 250 
Q 2069 -88 1544 -88 
Q 1003 -88 683 207 
Q 363 503 363 938 
Q 363 1184 447 1386 
Q 531 1588 709 1731 
Q 847 1841 1206 1997 
z
M 1697 2269 
Q 1959 2413 2063 2566 
Q 2231 2819 2231 3141 
Q 2231 3391 2131 3570 
Q 2031 3750 1864 3828 
Q 1697 3906 1503 3906 
Q 1194 3906 994 3693 
Q 794 3481 794 3172 
Q 794 2991 847 2870 
Q 900 2750 1016 2647 
Q 1091 2578 1366 2400 
Q 1406 2375 1563 2322 
Q 1609 2306 1697 2269 
z
M 1359 1928 
Q 1134 1809 1044 1719 
Q 906 1588 828 1406 
Q 750 1225 750 906 
Q 750 572 897 381 
Q 1141 66 1534 66 
Q 1894 66 2123 294 
Q 2353 522 2353 881 
Q 2353 1272 2120 1500 
Q 1888 1728 1359 1928 
z
" transform="scale(0.015625)"/>
       <path id="Garamond-29" d="M -138 -1400 
Q -41 -1306 25 -1247 
Q 238 -1063 378 -853 
Q 672 -422 778 -194 
Q 925 122 1001 494 
Q 1078 866 1078 1278 
Q 1078 1759 993 2117 
Q 909 2475 717 2864 
Q 525 3253 319 3525 
Q 281 3578 -84 3944 
L -22 4097 
Q 231 3947 447 3700 
Q 775 3322 987 2897 
Q 1200 2472 1266 2091 
Q 1369 1503 1369 1216 
Q 1369 853 1266 398 
Q 1163 -56 897 -538 
Q 694 -906 325 -1281 
Q 166 -1444 -56 -1563 
Q -88 -1484 -138 -1400 
z
" transform="scale(0.015625)"/>
      </defs>
      <use xlink:href="#Garamond-28"/>
      <use xlink:href="#Garamond-38" x="29.150391"/>
      <use xlink:href="#Garamond-2e" x="76.025391"/>
      <use xlink:href="#Garamond-32" x="97.900391"/>
      <use xlink:href="#Garamond-25" x="144.775391"/>
      <use xlink:href="#Garamond-29" x="227.050781"/>
     </g>
    </g>
    <g id="patch_13">
     <path d="M 336.6246 181.05984 
L 498.8538 181.05984 
M 498.8538 138.48192 
M 336.6246 138.48192 
M 336.6246 181.05984 
" style="fill: #ffffff; stroke: #000000; stroke-width: 0.8; stroke-linejoin: miter"/>
    </g>
    <g id="text_11">
     <!-- (18.8%) -->
     <g transform="translate(396.522637 162.51838) scale(0.14 -0.14)">
      <use xlink:href="#Garamond-28"/>
      <use xlink:href="#Garamond-31" x="29.150391"/>
      <use xlink:href="#Garamond-38" x="76.025391"/>
      <use xlink:href="#Garamond-2e" x="122.900391"/>
      <use xlink:href="#Garamond-38" x="144.775391"/>
      <use xlink:href="#Garamond-25" x="191.650391"/>
      <use xlink:href="#Garamond-29" x="273.925781"/>
     </g>
    </g>
   </g>
  </g>
 </g>
</svg>
