<?xml version="1.0" encoding="utf-8" standalone="no"?>
<!DOCTYPE svg PUBLIC "-//W3C//DTD SVG 1.1//EN"
  "http://www.w3.org/Graphics/SVG/1.1/DTD/svg11.dtd">
<svg xmlns:xlink="http://www.w3.org/1999/xlink" width="494.28pt" height="213.984pt" viewBox="0 0 494.28 213.984" xmlns="http://www.w3.org/2000/svg" version="1.1">
 <metadata>
  <rdf:RDF xmlns:dc="http://purl.org/dc/elements/1.1/" xmlns:cc="http://creativecommons.org/ns#" xmlns:rdf="http://www.w3.org/1999/02/22-rdf-syntax-ns#">
   <cc:Work>
    <dc:type rdf:resource="http://purl.org/dc/dcmitype/StillImage"/>
    <dc:date>2026-04-04T15:50:56.572944</dc:date>
    <dc:format>image/svg+xml</dc:format>
    <dc:creator>
     <cc:Agent>
      <dc:title>Matplotlib v3.8.3, https://matplotlib.org/</dc:title>
     </cc:Agent>
    </dc:creator>
   </cc:Work>
  </rdf:RDF>
 </metadata>
 <defs>
  <style type="text/css">*{stroke-linejoin: round; stroke-linecap: butt}</style>
 </defs>
 <g id="figure_1">
  <g id="patch_1">
   <path d="M 0 213.984 
L 494.28 213.984 
L 494.28 0 
L 0 0 
z
" style="fill: #ffffff"/>
  </g>
  <g id="axes_1">
   <g id="table_1">
    <g id="patch_2">
     <path d="M 11.9988 49.511808 
L 90.3792 49.511808 
M 90.3792 11.19168 
M 11.9988 11.19168 
M 11.9988 49.511808 
" style="fill: #ffffff; stroke: #000000; stroke-width: 0.9; stroke-linejoin: miter"/>
    </g>
    <g id="text_1">
     <!-- Year -->
     <g transform="translate(38.131813 33.161588) scale(0.14 -0.14)">
      <defs>
       <path id="Garamond-Bold-59" d="M -109 4044 
Q -25 4069 281 4069 
L 313 4063 
Q 391 4050 422 4050 
L 453 4053 
Q 500 4047 709 4031 
Q 1097 4003 1325 4003 
Q 1575 4003 1816 4038 
Q 1850 4044 1866 4044 
L 1891 4041 
Q 1906 4000 1906 3978 
L 1903 3816 
Q 1831 3788 1731 3772 
L 1591 3747 
Q 1513 3731 1381 3713 
L 1363 3700 
L 1356 3659 
Q 1459 3438 1794 2969 
Q 1881 2819 1969 2688 
Q 1994 2653 2147 2397 
Q 2163 2369 2181 2341 
Q 2209 2297 2238 2256 
Q 2291 2178 2306 2153 
Q 2369 2053 2413 2000 
L 2738 2456 
Q 2897 2663 3153 3056 
L 3166 3072 
L 3431 3544 
Q 3494 3634 3494 3678 
Q 3494 3694 3484 3731 
Q 3438 3763 3406 3769 
Q 3394 3775 3275 3781 
Q 3209 3794 3150 3803 
Q 3091 3813 3053 3822 
Q 3047 3863 3034 4053 
L 3675 4019 
Q 3703 4016 3753 4006 
L 3903 4006 
L 3956 4009 
Q 4056 4025 4216 4034 
Q 4263 4038 4306 4044 
L 4303 3809 
L 4263 3797 
Q 4000 3753 3903 3681 
Q 3763 3575 3525 3169 
L 3119 2559 
Q 2753 2063 2647 1881 
Q 2619 1838 2600 1772 
L 2600 1675 
L 2597 1403 
L 2597 1328 
Q 2588 1247 2588 1159 
L 2600 359 
Q 2613 334 2634 325 
Q 2678 313 2834 294 
Q 3134 263 3169 241 
Q 3194 225 3194 178 
Q 3194 150 3188 103 
Q 3188 75 3184 16 
L 2825 22 
L 2491 50 
L 2259 66 
L 1913 53 
L 1653 53 
Q 1609 56 1513 41 
Q 1356 16 1278 16 
L 1063 19 
Q 1059 84 1059 119 
Q 1059 153 1063 222 
L 1638 341 
Q 1675 353 1709 372 
Q 1713 516 1713 550 
Q 1713 1028 1706 1201 
Q 1700 1375 1700 1403 
L 1700 1475 
Q 1700 1672 1494 1928 
Q 1406 2038 1384 2072 
L 772 3003 
L 484 3466 
Q 469 3491 291 3722 
Q 234 3772 181 3791 
Q 150 3803 -103 3856 
Q -119 3884 -119 3906 
Q -119 3925 -116 3954 
Q -113 3984 -109 4044 
z
" transform="scale(0.015625)"/>
       <path id="Garamond-Bold-65" d="M 269 1675 
Q 350 1941 413 2028 
Q 588 2284 786 2428 
Q 984 2572 1144 2619 
Q 1350 2678 1478 2678 
Q 1772 2678 1953 2633 
Q 2134 2588 2256 2503 
Q 2431 2381 2537 2256 
Q 2644 2131 2711 1962 
Q 2778 1794 2784 1553 
L 2438 1559 
Q 2294 1559 1806 1588 
Q 1625 1600 1556 1600 
Q 1534 1600 1219 1597 
L 950 1597 
Q 944 1553 944 1522 
Q 944 1356 984 1173 
Q 1025 991 1106 852 
Q 1188 713 1308 613 
Q 1428 513 1556 469 
L 1738 409 
Q 1978 409 2059 425 
Q 2209 456 2323 504 
Q 2438 553 2600 669 
Q 2713 588 2788 522 
Q 2513 219 2217 83 
Q 1922 -53 1556 -53 
Q 1309 -53 1153 -9 
Q 944 47 775 162 
Q 606 278 484 450 
Q 363 622 303 803 
Q 225 1041 225 1184 
Q 225 1456 269 1675 
z
M 2084 1809 
Q 2081 1984 2015 2143 
Q 1950 2303 1812 2392 
Q 1675 2481 1534 2481 
Q 1325 2481 1156 2297 
Q 988 2113 966 1797 
L 1678 1794 
Q 1747 1794 1872 1803 
Q 1963 1813 2000 1813 
Q 2028 1813 2084 1809 
z
" transform="scale(0.015625)"/>
       <path id="Garamond-Bold-61" d="M 2891 606 
L 2963 559 
Q 2991 538 2997 506 
L 3000 491 
Q 2925 213 2803 108 
Q 2681 3 2500 3 
Q 2316 3 2183 104 
Q 2050 206 1941 463 
Q 1806 225 1562 104 
Q 1319 -16 966 -16 
Q 641 -16 487 120 
Q 334 256 334 478 
Q 334 581 379 687 
Q 425 794 526 898 
Q 628 1003 853 1128 
Q 888 1147 1091 1234 
L 1869 1547 
Q 1878 1666 1878 1788 
Q 1878 2209 1775 2363 
Q 1713 2456 1556 2456 
Q 1400 2456 1269 2397 
Q 1138 2338 1078 2244 
Q 1034 2175 1003 1984 
Q 981 1847 963 1825 
Q 916 1766 792 1717 
Q 669 1669 625 1647 
Q 456 1566 356 1566 
Q 313 1603 313 1672 
Q 313 1850 388 1978 
Q 500 2159 726 2329 
Q 953 2500 1150 2569 
Q 1419 2656 1806 2656 
Q 2056 2656 2236 2564 
Q 2416 2472 2486 2290 
Q 2556 2109 2556 1638 
L 2547 1122 
L 2553 744 
L 2553 647 
Q 2553 516 2589 467 
Q 2625 419 2681 419 
Q 2716 419 2741 438 
L 2834 584 
L 2891 606 
z
M 1866 1331 
Q 1688 1272 1464 1133 
Q 1241 994 1153 853 
Q 1091 750 1091 600 
Q 1091 466 1172 378 
Q 1253 291 1359 291 
Q 1534 291 1656 391 
Q 1822 525 1850 604 
Q 1878 684 1878 1056 
Q 1878 1194 1866 1331 
z
" transform="scale(0.015625)"/>
       <path id="Garamond-Bold-72" d="M 122 172 
Q 163 206 228 222 
Q 388 256 531 347 
Q 559 422 559 853 
Q 559 1644 525 1922 
Q 519 1972 475 2009 
Q 397 2050 263 2081 
Q 200 2097 188 2150 
L 178 2266 
Q 409 2297 596 2423 
Q 784 2550 878 2681 
Q 928 2753 966 2791 
L 1184 2800 
Q 1200 2728 1200 2681 
Q 1200 2647 1197 2597 
Q 1194 2488 1194 2416 
Q 1194 2381 1197 2156 
Q 1325 2375 1384 2450 
Q 1413 2484 1550 2603 
Q 1656 2681 1791 2681 
Q 1956 2681 2078 2568 
Q 2200 2456 2200 2309 
Q 2200 2163 2108 2045 
Q 2016 1928 1863 1928 
Q 1728 1928 1581 2041 
Q 1494 2109 1441 2109 
L 1419 2106 
Q 1353 2084 1300 1988 
Q 1213 1831 1213 1663 
L 1219 1578 
Q 1231 1347 1238 494 
Q 1247 416 1297 338 
Q 1353 294 1411 275 
Q 1469 256 1612 243 
Q 1756 231 1787 204 
Q 1819 178 1819 119 
Q 1819 84 1800 28 
L 1506 28 
L 909 59 
Q 684 59 500 41 
L 447 41 
Q 425 41 122 25 
Q 113 75 113 100 
Q 113 125 122 172 
z
" transform="scale(0.015625)"/>
      </defs>
      <use xlink:href="#Garamond-Bold-59"/>
      <use xlink:href="#Garamond-Bold-65" x="57.375"/>
      <use xlink:href="#Garamond-Bold-61" x="104.25"/>
      <use xlink:href="#Garamond-Bold-72" x="152.150391"/>
     </g>
    </g>
    <g id="patch_3">
     <path d="M 90.3792 49.511808 
L 168.7596 49.511808 
M 168.7596 11.19168 
M 90.3792 11.19168 
M 90.3792 49.511808 
" style="fill: #ffffff; stroke: #000000; stroke-width: 0.9; stroke-linejoin: miter"/>
    </g>
    <g id="text_2">
     <!-- Q1 -->
     <g transform="translate(121.2569 33.161588) scale(0.14 -0.14)">
      <defs>
       <path id="Garamond-Bold-51" d="M 3334 66 
Q 3481 -28 3553 -88 
Q 4003 -450 4356 -628 
Q 4503 -703 4797 -756 
Q 4803 -881 4803 -953 
Q 4803 -1016 4797 -1081 
Q 4719 -1094 4628 -1094 
Q 4188 -1094 3878 -1028 
Q 3659 -981 3286 -815 
Q 2913 -650 2297 -266 
Q 2003 -81 1778 16 
Q 1294 222 975 497 
Q 656 772 468 1161 
Q 281 1550 281 2013 
Q 281 2594 559 3105 
Q 838 3616 1456 3934 
Q 1875 4150 2519 4150 
Q 3028 4150 3372 4026 
Q 3716 3903 3969 3697 
Q 4222 3491 4394 3239 
Q 4566 2988 4664 2688 
Q 4763 2388 4763 2053 
Q 4763 1669 4634 1328 
Q 4506 988 4304 739 
Q 4103 491 3828 300 
Q 3663 191 3334 66 
z
M 2550 228 
Q 2778 228 3070 373 
Q 3363 519 3564 917 
Q 3766 1316 3766 2019 
Q 3766 2550 3655 2887 
Q 3544 3225 3406 3406 
Q 3269 3588 3056 3706 
Q 2778 3859 2484 3859 
Q 2216 3859 2047 3775 
Q 1775 3634 1628 3434 
Q 1422 3150 1358 2779 
Q 1294 2409 1294 2078 
Q 1294 1709 1367 1328 
Q 1441 947 1586 719 
Q 1731 491 1976 359 
Q 2222 228 2550 228 
z
" transform="scale(0.015625)"/>
       <path id="Garamond-Bold-31" d="M 1284 4119 
Q 1300 4119 1497 4125 
L 1597 4122 
L 1794 4119 
Q 1806 4019 1806 3972 
Q 1806 3956 1803 3875 
Q 1800 3831 1797 3541 
L 1791 3069 
L 1794 2772 
L 1772 663 
L 1772 484 
Q 1772 391 1815 350 
Q 1859 309 2050 281 
Q 2125 272 2350 231 
Q 2356 200 2356 172 
Q 2356 138 2350 22 
L 2216 22 
Q 2078 22 1816 34 
Q 1656 44 1597 44 
Q 1522 44 1044 28 
Q 991 25 956 25 
L 900 25 
L 809 31 
L 725 25 
L 569 31 
Q 538 31 441 22 
Q 434 91 434 128 
Q 434 163 441 231 
Q 566 266 731 300 
Q 959 347 1011 392 
Q 1063 438 1063 513 
L 1059 725 
L 1072 956 
L 1069 1431 
L 1066 1553 
Q 1066 1578 1072 1741 
Q 1078 1825 1078 1891 
Q 1078 1931 1069 2144 
L 1081 2322 
Q 1069 2525 1069 2563 
Q 1069 2609 1072 2656 
L 1078 2734 
L 1069 2947 
L 1078 3044 
Q 1081 3109 1081 3219 
Q 1081 3325 1078 3478 
Q 856 3313 572 3147 
Q 541 3128 291 3019 
Q 191 3169 163 3244 
Q 494 3416 613 3497 
Q 809 3634 1038 3841 
Q 1134 3931 1284 4119 
z
" transform="scale(0.015625)"/>
      </defs>
      <use xlink:href="#Garamond-Bold-51"/>
      <use xlink:href="#Garamond-Bold-31" x="79.150391"/>
     </g>
    </g>
    <g id="patch_4">
     <path d="M 168.7596 49.511808 
L 247.14 49.511808 
M 247.14 11.19168 
M 168.7596 11.19168 
M 168.7596 49.511808 
" style="fill: #ffffff; stroke: #000000; stroke-width: 0.9; stroke-linejoin: miter"/>
    </g>
    <g id="text_3">
     <!-- Q2 -->
     <g transform="translate(199.127613 33.161588) scale(0.14 -0.14)">
      <defs>
       <path id="Garamond-Bold-32" d="M 2725 13 
L 2400 13 
Q 2284 13 2219 16 
Q 2116 19 2094 19 
L 1881 9 
L 1825 16 
Q 1750 25 1641 25 
Q 1538 25 1288 16 
Q 1169 13 1144 13 
L 828 19 
L 322 13 
L 122 13 
L 122 225 
Q 566 788 789 1011 
Q 1013 1234 1425 1753 
Q 1713 2109 1820 2390 
Q 1928 2672 1928 2878 
Q 1928 3109 1861 3293 
Q 1794 3478 1623 3584 
Q 1453 3691 1253 3691 
Q 1050 3691 887 3591 
Q 725 3491 650 3338 
Q 534 3116 509 2875 
L 281 2875 
Q 272 3009 272 3100 
Q 272 3403 506 3681 
Q 869 4113 1528 4113 
Q 2078 4113 2393 3802 
Q 2709 3491 2709 3019 
Q 2709 2831 2650 2666 
Q 2566 2441 2445 2275 
Q 2325 2109 1784 1569 
Q 1394 1178 806 644 
L 1153 638 
L 1722 650 
L 2053 644 
Q 2316 644 2402 700 
Q 2488 756 2559 966 
Q 2575 1016 2616 1116 
L 2822 1128 
L 2863 1116 
Q 2878 1091 2878 1069 
Q 2878 1019 2862 944 
Q 2847 869 2826 697 
Q 2806 525 2725 13 
z
" transform="scale(0.015625)"/>
      </defs>
      <use xlink:href="#Garamond-Bold-51"/>
      <use xlink:href="#Garamond-Bold-32" x="79.150391"/>
     </g>
    </g>
    <g id="patch_5">
     <path d="M 247.14 49.511808 
L 325.5204 49.511808 
M 325.5204 11.19168 
M 247.14 11.19168 
M 247.14 49.511808 
" style="fill: #ffffff; stroke: #000000; stroke-width: 0.9; stroke-linejoin: miter"/>
    </g>
    <g id="text_4">
     <!-- Q3 -->
     <g transform="translate(277.508013 33.161588) scale(0.14 -0.14)">
      <defs>
       <path id="Garamond-Bold-33" d="M 1047 1900 
Q 953 2019 894 2088 
Q 1463 2500 1653 2759 
Q 1778 2925 1778 3119 
Q 1778 3319 1634 3466 
Q 1491 3613 1306 3613 
Q 925 3613 613 3147 
L 416 3253 
Q 566 3581 711 3745 
Q 856 3909 1125 4025 
Q 1328 4113 1631 4113 
Q 2041 4113 2262 3908 
Q 2484 3703 2484 3394 
Q 2484 3150 2331 2926 
Q 2178 2703 1788 2438 
L 1853 2438 
Q 2272 2438 2536 2116 
Q 2800 1794 2800 1413 
Q 2800 1091 2651 741 
Q 2503 391 2106 151 
Q 1709 -88 1131 -88 
Q 572 -88 278 109 
Q 91 234 91 403 
Q 91 522 181 609 
Q 272 697 413 697 
Q 531 697 631 634 
Q 731 572 903 353 
Q 991 241 1072 209 
Q 1216 150 1281 150 
Q 1447 150 1626 262 
Q 1806 375 1912 636 
Q 2019 897 2019 1244 
Q 2019 1616 1833 1830 
Q 1647 2044 1425 2044 
Q 1263 2044 1047 1900 
z
" transform="scale(0.015625)"/>
      </defs>
      <use xlink:href="#Garamond-Bold-51"/>
      <use xlink:href="#Garamond-Bold-33" x="79.150391"/>
     </g>
    </g>
    <g id="patch_6">
     <path d="M 325.5204 49.511808 
L 403.9008 49.511808 
M 403.9008 11.19168 
M 325.5204 11.19168 
M 325.5204 49.511808 
" style="fill: #ffffff; stroke: #000000; stroke-width: 0.9; stroke-linejoin: miter"/>
    </g>
    <g id="text_5">
     <!-- Q4 -->
     <g transform="translate(355.888413 33.161588) scale(0.14 -0.14)">
      <defs>
       <path id="Garamond-Bold-34" d="M 2853 1513 
L 2853 988 
Q 2684 978 2588 978 
Q 2497 978 2356 988 
Q 2347 913 2347 897 
L 2353 709 
L 2350 509 
L 2356 372 
Q 2356 334 2347 184 
Q 2341 100 2338 -69 
L 2069 -66 
L 1903 -66 
Q 1838 -66 1803 -63 
L 1750 -56 
Q 1728 -56 1681 -69 
L 1688 538 
L 1675 928 
Q 1675 944 1681 988 
Q 1531 984 1234 981 
L 1028 981 
Q 763 981 438 991 
Q 334 994 303 994 
Q 256 994 159 988 
L 153 1028 
L 163 1244 
L 156 1313 
L 166 1441 
L 159 1466 
Q 306 1744 347 1803 
L 1063 2903 
Q 1303 3259 1445 3445 
Q 1588 3631 1644 3722 
Q 1731 3863 1797 3944 
Q 1894 4066 1922 4116 
Q 2106 4125 2153 4125 
Q 2213 4125 2375 4116 
L 2381 4078 
L 2369 3847 
L 2375 3766 
L 2366 3638 
L 2372 3509 
L 2366 3200 
L 2363 3066 
L 2366 2891 
L 2363 2728 
L 2366 2506 
L 2363 2294 
L 2366 2047 
L 2356 1513 
Q 2466 1513 2628 1506 
L 2703 1506 
Q 2753 1506 2853 1513 
z
M 1681 1519 
Q 1700 1675 1700 1753 
Q 1700 1784 1695 1870 
Q 1691 1956 1691 1981 
L 1700 2225 
L 1694 2434 
L 1703 2975 
L 1700 3222 
Q 1700 3253 1706 3369 
Q 1681 3331 1619 3256 
Q 1575 3184 1547 3150 
Q 1425 3000 1275 2778 
L 994 2328 
Q 953 2266 903 2181 
Q 819 2044 701 1866 
Q 584 1688 506 1519 
Q 600 1528 634 1528 
L 784 1525 
L 1084 1525 
L 1503 1519 
L 1681 1519 
z
" transform="scale(0.015625)"/>
      </defs>
      <use xlink:href="#Garamond-Bold-51"/>
      <use xlink:href="#Garamond-Bold-34" x="79.150391"/>
     </g>
    </g>
    <g id="patch_7">
     <path d="M 403.9008 49.511808 
L 482.2812 49.511808 
M 482.2812 11.19168 
M 403.9008 11.19168 
M 403.9008 49.511808 
" style="fill: #ffffff; stroke: #000000; stroke-width: 0.9; stroke-linejoin: miter"/>
    </g>
    <g id="text_6">
     <!-- FY / YTD -->
     <g transform="translate(411.954125 33.161588) scale(0.14 -0.14)">
      <defs>
       <path id="Garamond-Bold-46" d="M 188 0 
L 194 225 
Q 263 241 422 272 
Q 581 303 741 344 
L 800 381 
Q 831 506 831 638 
L 831 656 
L 819 1378 
L 822 1681 
L 809 2128 
L 816 2659 
L 778 3706 
Q 731 3750 475 3794 
Q 413 3806 294 3844 
L 219 3863 
L 219 4081 
L 631 4066 
Q 1006 4028 1734 4028 
Q 2100 4028 2497 4047 
L 2556 4050 
L 2709 4047 
L 2772 4050 
L 2903 4050 
L 3463 4069 
Q 3500 4069 3561 4075 
Q 3622 4081 3675 4084 
Q 3694 3991 3700 3897 
L 3747 3309 
Q 3747 3216 3728 3166 
Q 3616 3150 3563 3150 
Q 3500 3150 3463 3178 
Q 3444 3197 3391 3319 
Q 3259 3634 3167 3692 
Q 3075 3750 2653 3750 
L 2222 3738 
Q 1947 3734 1788 3706 
Q 1753 3700 1688 3675 
Q 1647 3603 1647 3491 
L 1656 3119 
L 1647 2694 
Q 1647 2369 1669 2294 
Q 1697 2275 1716 2272 
L 1938 2269 
L 2313 2269 
Q 2438 2266 2697 2297 
Q 2875 2319 2916 2347 
Q 2991 2397 3023 2473 
Q 3056 2550 3072 2847 
Q 3088 2847 3156 2850 
Q 3200 2853 3216 2853 
Q 3250 2853 3353 2844 
L 3334 2344 
Q 3331 2184 3322 2069 
L 3328 2000 
Q 3331 1969 3331 1538 
Q 3331 1509 3328 1444 
Q 3269 1431 3234 1431 
Q 3209 1431 3113 1450 
Q 3084 1509 3050 1622 
Q 2978 1869 2894 1909 
Q 2744 1984 1950 1984 
Q 1834 1984 1681 1963 
Q 1659 1831 1659 1659 
L 1675 722 
Q 1678 463 1731 403 
Q 1766 366 1966 328 
L 2028 322 
Q 2169 313 2275 281 
L 2359 263 
Q 2372 181 2372 138 
Q 2372 91 2363 19 
L 2303 22 
L 2206 19 
L 1763 41 
Q 1688 44 1063 44 
Q 891 44 734 25 
Q 488 -3 466 -3 
Q 263 -3 188 0 
z
" transform="scale(0.015625)"/>
       <path id="Garamond-Bold-20" transform="scale(0.015625)"/>
       <path id="Garamond-Bold-2f" d="M 2650 4456 
L 3169 4456 
L 884 -866 
L 366 -866 
L 2650 4456 
z
" transform="scale(0.015625)"/>
       <path id="Garamond-Bold-54" d="M 334 4241 
L 528 4241 
Q 550 4206 559 4191 
Q 647 4041 694 3994 
Q 734 3981 1122 3981 
Q 1363 3981 1550 3984 
L 1613 3994 
L 1991 3997 
L 2697 3991 
L 3663 3991 
L 3847 4019 
Q 3888 4047 3934 4169 
Q 3947 4197 3969 4247 
L 4106 4250 
Q 4138 4250 4200 4247 
Q 4203 4031 4203 3597 
L 4206 3319 
L 4203 3159 
Q 4203 3078 4191 3019 
Q 4063 2978 3966 2969 
Q 3884 3091 3789 3322 
Q 3694 3553 3669 3578 
Q 3631 3619 3581 3631 
Q 3506 3647 2919 3647 
Q 2831 3647 2700 3634 
Q 2681 3513 2681 3434 
L 2684 3016 
L 2684 2097 
L 2697 1106 
L 2694 700 
Q 2694 484 2731 375 
Q 2781 353 2916 334 
Q 2941 331 3147 284 
Q 3241 263 3313 234 
Q 3328 122 3328 97 
Q 3328 69 3319 16 
Q 3250 13 3206 13 
Q 2884 13 2659 36 
Q 2434 59 1844 59 
Q 1750 59 1294 22 
Q 1116 9 1063 9 
Q 1059 56 1056 81 
L 1053 153 
L 1053 178 
Q 1122 269 1313 313 
Q 1638 391 1763 453 
Q 1794 513 1800 609 
Q 1822 984 1822 1803 
L 1806 2984 
Q 1806 3472 1788 3575 
Q 1781 3603 1765 3617 
Q 1750 3631 1722 3634 
Q 1625 3647 1091 3647 
Q 797 3647 697 3591 
Q 563 3513 294 3166 
Q 216 3066 178 3066 
Q 34 3141 -6 3188 
Q 91 3391 263 4000 
Q 313 4178 334 4241 
z
" transform="scale(0.015625)"/>
       <path id="Garamond-Bold-44" d="M 159 275 
Q 206 288 353 313 
Q 644 363 734 447 
Q 791 500 806 650 
Q 809 688 828 1603 
L 825 1947 
L 828 2363 
L 816 3428 
L 819 3553 
Q 819 3634 775 3678 
Q 753 3700 653 3700 
Q 572 3700 466 3681 
Q 328 3675 219 3656 
Q 200 3653 159 3647 
L 156 3922 
Q 341 3981 684 4038 
Q 1253 4131 2084 4131 
Q 2778 4131 3100 4053 
Q 3588 3931 3894 3691 
Q 4303 3369 4508 2945 
Q 4713 2522 4713 2022 
Q 4713 1391 4438 939 
Q 4163 488 3647 216 
Q 3284 22 2663 22 
L 2022 50 
L 1834 59 
L 1581 53 
L 1506 59 
L 1244 53 
L 897 56 
Q 878 56 578 34 
Q 478 28 316 25 
Q 216 25 166 22 
Q 159 91 159 275 
z
M 1675 3756 
Q 1666 3659 1666 3619 
L 1675 3088 
L 1669 2625 
Q 1678 2400 1678 2231 
L 1675 1934 
L 1681 1438 
L 1675 1131 
Q 1675 703 1834 550 
Q 2066 331 2472 331 
Q 2781 331 2928 391 
Q 3234 509 3414 706 
Q 3594 903 3687 1264 
Q 3781 1625 3781 2009 
Q 3781 2641 3579 3041 
Q 3378 3441 3028 3642 
Q 2678 3844 2225 3844 
Q 1906 3844 1675 3756 
z
" transform="scale(0.015625)"/>
      </defs>
      <use xlink:href="#Garamond-Bold-46"/>
      <use xlink:href="#Garamond-Bold-59" x="61.474609"/>
      <use xlink:href="#Garamond-Bold-20" x="127.099609"/>
      <use xlink:href="#Garamond-Bold-2f" x="152.099609"/>
      <use xlink:href="#Garamond-Bold-20" x="207.324219"/>
      <use xlink:href="#Garamond-Bold-59" x="232.324219"/>
      <use xlink:href="#Garamond-Bold-54" x="297.949219"/>
      <use xlink:href="#Garamond-Bold-44" x="366.699219"/>
     </g>
    </g>
    <g id="patch_8">
     <path d="M 11.9988 87.831936 
L 90.3792 87.831936 
M 90.3792 49.511808 
M 11.9988 49.511808 
M 11.9988 87.831936 
" style="fill: #ffffff; stroke: #000000; stroke-width: 0.8; stroke-linejoin: miter"/>
    </g>
    <g id="text_7">
     <!-- 2023 -->
     <g transform="translate(38.064 71.419372) scale(0.14 -0.14)">
      <defs>
       <path id="Garamond-32" d="M 2728 6 
Q 2259 25 1472 25 
L 794 6 
L 491 16 
L 250 6 
Q 213 9 141 22 
Q 197 153 284 263 
Q 544 581 1044 1084 
Q 1744 1788 1966 2189 
Q 2188 2591 2188 2944 
Q 2188 3275 1963 3500 
Q 1738 3725 1409 3725 
Q 1213 3725 1028 3633 
Q 844 3541 731 3400 
Q 659 3309 541 3038 
Q 475 2888 463 2875 
Q 444 2853 419 2853 
Q 394 2853 370 2879 
Q 347 2906 347 2947 
Q 347 3088 489 3397 
Q 631 3706 907 3881 
Q 1184 4056 1550 4056 
Q 2028 4056 2348 3745 
Q 2669 3434 2669 3003 
Q 2669 2663 2450 2311 
Q 2231 1959 1444 1234 
Q 1184 997 1075 884 
Q 966 772 634 397 
Q 1113 378 1503 378 
Q 1588 378 1688 384 
Q 1872 391 1903 391 
L 2338 381 
Q 2409 381 2484 450 
Q 2559 519 2688 838 
L 2763 841 
Q 2778 841 2809 838 
Q 2825 806 2825 791 
L 2819 766 
Q 2794 675 2775 434 
Q 2763 294 2728 6 
z
" transform="scale(0.015625)"/>
       <path id="Garamond-30" d="M 2800 1972 
Q 2800 1650 2753 1400 
Q 2669 969 2519 678 
Q 2369 388 2163 188 
Q 2013 41 1844 -26 
Q 1675 -94 1500 -94 
Q 1191 -94 914 112 
Q 638 319 431 794 
Q 225 1269 225 1913 
Q 225 2416 350 2878 
Q 475 3341 679 3595 
Q 884 3850 1086 3962 
Q 1288 4075 1525 4075 
Q 1859 4075 2173 3812 
Q 2488 3550 2675 2997 
Q 2800 2625 2800 1972 
z
M 2331 2075 
Q 2328 2844 2275 3119 
Q 2188 3572 1989 3753 
Q 1791 3934 1525 3934 
Q 1303 3934 1104 3790 
Q 906 3647 831 3341 
Q 703 2844 703 1834 
Q 703 834 901 436 
Q 1100 38 1497 38 
Q 1769 38 1967 206 
Q 2166 375 2252 833 
Q 2338 1291 2334 1859 
L 2331 2075 
z
" transform="scale(0.015625)"/>
       <path id="Garamond-33" d="M 534 3150 
L 431 3206 
Q 628 3684 900 3879 
Q 1172 4075 1534 4075 
Q 1872 4075 2075 3925 
Q 2378 3700 2378 3419 
Q 2378 3191 2223 2959 
Q 2069 2728 1681 2441 
L 1756 2444 
Q 2000 2444 2226 2320 
Q 2453 2197 2584 1936 
Q 2716 1675 2716 1375 
Q 2716 772 2273 342 
Q 1831 -88 1147 -88 
Q 628 -88 381 63 
Q 247 141 247 259 
Q 247 325 301 378 
Q 356 431 438 431 
Q 541 431 688 319 
Q 1034 53 1291 53 
Q 1678 53 1978 379 
Q 2278 706 2278 1203 
Q 2278 1616 2076 1880 
Q 1875 2144 1566 2144 
Q 1334 2144 1084 1925 
L 1009 2050 
Q 1166 2184 1291 2278 
Q 1672 2556 1859 2825 
Q 1994 3019 1994 3166 
Q 1994 3413 1819 3583 
Q 1644 3753 1359 3753 
Q 891 3753 534 3150 
z
" transform="scale(0.015625)"/>
      </defs>
      <use xlink:href="#Garamond-32"/>
      <use xlink:href="#Garamond-30" x="46.875"/>
      <use xlink:href="#Garamond-32" x="93.75"/>
      <use xlink:href="#Garamond-33" x="140.625"/>
     </g>
    </g>
    <g id="patch_9">
     <path d="M 90.3792 87.831936 
L 168.7596 87.831936 
M 168.7596 49.511808 
M 90.3792 49.511808 
M 90.3792 87.831936 
" style="fill: #ffffff; stroke: #000000; stroke-width: 0.8; stroke-linejoin: miter"/>
    </g>
    <g id="text_8">
     <!-- 20.7% -->
     <g transform="translate(112.434713 71.419372) scale(0.14 -0.14)">
      <defs>
       <path id="Garamond-2e" d="M 375 253 
Q 375 391 476 494 
Q 578 597 713 597 
Q 844 597 934 500 
Q 1025 403 1025 256 
Q 1025 109 929 9 
Q 834 -91 700 -91 
Q 569 -91 472 11 
Q 375 113 375 253 
z
" transform="scale(0.015625)"/>
       <path id="Garamond-37" d="M 341 3950 
Q 725 3966 1378 3966 
Q 1675 3966 2056 3956 
Q 2288 3947 2359 3947 
L 2663 3950 
L 2734 3950 
Q 2759 3925 2759 3903 
Q 2759 3866 2688 3722 
Q 2653 3659 2384 3038 
Q 2253 2731 2063 2234 
L 1669 1125 
Q 1528 744 1488 594 
L 1416 303 
Q 1372 175 1372 116 
Q 1372 69 1425 -31 
Q 1388 -81 1256 -81 
Q 1197 -81 1144 -31 
Q 1163 153 1263 456 
Q 1300 566 1390 887 
Q 1481 1209 1569 1456 
L 1925 2425 
Q 2078 2838 2222 3184 
Q 2272 3300 2297 3347 
Q 2363 3463 2363 3538 
L 2322 3534 
L 2288 3534 
L 1875 3547 
Q 1856 3547 1743 3540 
Q 1631 3534 1575 3534 
L 1091 3538 
L 944 3538 
L 738 3544 
Q 556 3547 511 3501 
Q 466 3456 459 3269 
Q 456 3222 434 3178 
Q 400 3169 384 3169 
Q 350 3169 294 3194 
Q 297 3272 297 3309 
L 303 3403 
L 294 3575 
Q 294 3800 306 3878 
Q 313 3909 341 3950 
z
" transform="scale(0.015625)"/>
       <path id="Garamond-25" d="M 1147 -209 
Q 1175 -150 1212 -94 
Q 1250 -38 1309 63 
Q 1331 97 1542 414 
Q 1753 731 1831 859 
Q 3228 3228 3853 4075 
L 3884 4078 
Q 4031 4069 4050 4069 
L 2684 1928 
L 2063 900 
L 1344 -203 
L 1322 -203 
Q 1306 -203 1172 -209 
L 1147 -209 
z
M 1825 2981 
Q 1825 2488 1576 2195 
Q 1328 1903 1022 1903 
Q 709 1903 470 2183 
Q 231 2463 231 2950 
Q 231 3288 353 3581 
Q 447 3800 634 3937 
Q 822 4075 1038 4075 
Q 1256 4075 1448 3931 
Q 1641 3788 1753 3503 
Q 1825 3313 1825 2981 
z
M 1475 2922 
Q 1475 3384 1450 3525 
Q 1406 3763 1300 3863 
Q 1194 3963 1038 3963 
Q 828 3963 709 3783 
Q 591 3603 591 2909 
Q 591 2363 712 2188 
Q 834 2013 1019 2013 
Q 1231 2013 1338 2163 
Q 1475 2359 1475 2922 
z
M 5053 1028 
Q 5053 534 4803 243 
Q 4553 -47 4247 -47 
Q 3938 -47 3697 233 
Q 3456 513 3456 997 
Q 3456 1338 3581 1631 
Q 3672 1847 3859 1986 
Q 4047 2125 4263 2125 
Q 4481 2125 4675 1981 
Q 4869 1838 4978 1550 
Q 5053 1363 5053 1028 
z
M 4703 972 
Q 4703 1431 4675 1572 
Q 4631 1813 4525 1911 
Q 4419 2009 4263 2009 
Q 4056 2009 3936 1831 
Q 3816 1653 3816 959 
Q 3816 409 3937 234 
Q 4059 59 4247 59 
Q 4456 59 4563 209 
Q 4703 406 4703 972 
z
" transform="scale(0.015625)"/>
      </defs>
      <use xlink:href="#Garamond-32"/>
      <use xlink:href="#Garamond-30" x="46.875"/>
      <use xlink:href="#Garamond-2e" x="93.75"/>
      <use xlink:href="#Garamond-37" x="115.625"/>
      <use xlink:href="#Garamond-25" x="162.5"/>
     </g>
    </g>
    <g id="patch_10">
     <path d="M 168.7596 87.831936 
L 247.14 87.831936 
M 247.14 49.511808 
M 168.7596 49.511808 
M 168.7596 87.831936 
" style="fill: #ffffff; stroke: #000000; stroke-width: 0.8; stroke-linejoin: miter"/>
    </g>
    <g id="text_9">
     <!-- 13.6% -->
     <g transform="translate(190.815113 71.419372) scale(0.14 -0.14)">
      <defs>
       <path id="Garamond-31" d="M 2269 6 
L 838 6 
Q 834 34 834 53 
Q 834 106 856 126 
Q 878 147 994 169 
Q 1175 206 1288 259 
Q 1319 328 1319 388 
L 1319 581 
Q 1319 616 1328 897 
Q 1331 1003 1334 1816 
L 1341 2550 
L 1334 2978 
Q 1334 3072 1341 3569 
Q 631 3063 563 3063 
Q 538 3063 509 3089 
Q 481 3116 481 3141 
Q 481 3172 503 3191 
Q 547 3231 713 3325 
Q 738 3338 928 3494 
Q 1231 3747 1372 3890 
Q 1513 4034 1544 4053 
Q 1606 4056 1641 4056 
Q 1722 4056 1742 4029 
Q 1763 4003 1763 3838 
L 1741 1053 
L 1741 778 
Q 1741 678 1737 576 
Q 1734 475 1734 428 
Q 1734 316 1763 281 
Q 1781 259 1878 225 
L 2091 181 
Q 2228 147 2241 134 
Q 2272 106 2272 47 
L 2269 6 
z
" transform="scale(0.015625)"/>
       <path id="Garamond-36" d="M 2459 4094 
Q 2488 4047 2500 3991 
Q 2481 3956 2441 3944 
Q 2309 3909 2053 3763 
Q 1994 3731 1691 3472 
Q 1556 3378 1366 3122 
Q 1106 2778 993 2508 
Q 881 2238 794 1800 
Q 769 1675 759 1359 
L 750 1244 
Q 750 844 986 445 
Q 1222 47 1575 47 
Q 1759 47 1920 159 
Q 2081 272 2175 540 
Q 2269 809 2269 1191 
Q 2269 1709 2070 1957 
Q 1872 2206 1594 2206 
Q 1509 2206 1444 2181 
L 1419 2175 
Q 1378 2175 1334 2266 
Q 1416 2319 1531 2353 
Q 1647 2388 1681 2388 
Q 1703 2388 1966 2341 
L 2056 2297 
Q 2206 2250 2284 2188 
Q 2428 2072 2541 1897 
Q 2597 1806 2691 1528 
Q 2697 1509 2734 1253 
L 2719 941 
Q 2653 659 2594 547 
Q 2506 375 2300 172 
Q 2194 69 2025 3 
Q 1788 -88 1522 -88 
Q 1016 -88 664 317 
Q 313 722 313 1491 
Q 313 1919 444 2301 
Q 575 2684 816 3003 
Q 978 3219 1258 3466 
Q 1538 3713 1788 3850 
Q 2128 4031 2459 4094 
z
" transform="scale(0.015625)"/>
      </defs>
      <use xlink:href="#Garamond-31"/>
      <use xlink:href="#Garamond-33" x="46.875"/>
      <use xlink:href="#Garamond-2e" x="93.75"/>
      <use xlink:href="#Garamond-36" x="115.625"/>
      <use xlink:href="#Garamond-25" x="162.5"/>
     </g>
    </g>
    <g id="patch_11">
     <path d="M 247.14 87.831936 
L 325.5204 87.831936 
M 325.5204 49.511808 
M 247.14 49.511808 
M 247.14 87.831936 
" style="fill: #ffffff; stroke: #000000; stroke-width: 0.8; stroke-linejoin: miter"/>
    </g>
    <g id="text_10">
     <!-- 1.0% -->
     <g transform="translate(272.476763 71.419372) scale(0.14 -0.14)">
      <use xlink:href="#Garamond-31"/>
      <use xlink:href="#Garamond-2e" x="46.875"/>
      <use xlink:href="#Garamond-30" x="68.75"/>
      <use xlink:href="#Garamond-25" x="115.625"/>
     </g>
    </g>
    <g id="patch_12">
     <path d="M 325.5204 87.831936 
L 403.9008 87.831936 
M 403.9008 49.511808 
M 325.5204 49.511808 
M 325.5204 87.831936 
" style="fill: #ffffff; stroke: #000000; stroke-width: 0.8; stroke-linejoin: miter"/>
    </g>
    <g id="text_11">
     <!-- 10.1% -->
     <g transform="translate(347.575913 71.419372) scale(0.14 -0.14)">
      <use xlink:href="#Garamond-31"/>
      <use xlink:href="#Garamond-30" x="46.875"/>
      <use xlink:href="#Garamond-2e" x="93.75"/>
      <use xlink:href="#Garamond-31" x="115.625"/>
      <use xlink:href="#Garamond-25" x="162.5"/>
     </g>
    </g>
    <g id="patch_13">
     <path d="M 403.9008 87.831936 
L 482.2812 87.831936 
M 482.2812 49.511808 
M 403.9008 49.511808 
M 403.9008 87.831936 
" style="fill: #ffffff; stroke: #000000; stroke-width: 0.8; stroke-linejoin: miter"/>
    </g>
    <g id="text_12">
     <!-- 52.5% -->
     <g transform="translate(425.956313 71.419372) scale(0.14 -0.14)">
      <defs>
       <path id="Garamond-35" d="M 2369 3606 
Q 2019 3578 1803 3578 
Q 1644 3578 1466 3588 
Q 1369 3594 1350 3594 
Q 969 3594 941 3578 
Q 928 3572 925 3550 
Q 916 3500 844 2434 
Q 984 2506 1115 2536 
Q 1247 2566 1463 2566 
Q 1616 2566 1675 2547 
Q 1972 2450 2103 2372 
Q 2284 2259 2398 2115 
Q 2513 1972 2609 1694 
Q 2678 1494 2678 1275 
Q 2678 1038 2611 833 
Q 2544 628 2444 490 
Q 2344 353 2147 204 
Q 1950 56 1683 -22 
Q 1416 -100 1325 -103 
L 872 -63 
Q 684 -31 543 39 
Q 403 109 356 175 
Q 328 216 328 281 
Q 328 331 398 390 
Q 469 450 572 450 
Q 619 450 675 422 
L 922 263 
Q 1006 188 1131 122 
Q 1150 113 1225 100 
Q 1406 75 1422 75 
Q 1491 75 1656 131 
Q 1822 188 1962 323 
Q 2103 459 2204 667 
Q 2306 875 2306 1128 
Q 2306 1581 2022 1875 
Q 1738 2169 1338 2169 
Q 1159 2169 1007 2109 
Q 856 2050 803 1978 
L 756 1959 
Q 719 1944 703 1944 
L 663 1953 
Q 653 2009 653 2038 
Q 653 2063 663 2125 
Q 684 2278 686 2442 
Q 688 2606 719 2738 
L 709 2888 
Q 731 3003 734 3109 
Q 744 3828 794 3934 
Q 816 3984 869 3984 
Q 891 3984 941 3978 
L 959 3975 
L 1356 3978 
Q 1625 3963 1753 3963 
Q 2047 3963 2225 4003 
Q 2313 4084 2359 4084 
Q 2378 4084 2428 4078 
L 2438 4041 
L 2413 3909 
L 2397 3700 
Q 2394 3678 2369 3606 
z
" transform="scale(0.015625)"/>
      </defs>
      <use xlink:href="#Garamond-35"/>
      <use xlink:href="#Garamond-32" x="46.875"/>
      <use xlink:href="#Garamond-2e" x="93.75"/>
      <use xlink:href="#Garamond-35" x="115.625"/>
      <use xlink:href="#Garamond-25" x="162.5"/>
     </g>
    </g>
    <g id="patch_14">
     <path d="M 11.9988 126.152064 
L 90.3792 126.152064 
M 90.3792 87.831936 
M 11.9988 87.831936 
M 11.9988 126.152064 
" style="fill: #ffffff; stroke: #000000; stroke-width: 0.8; stroke-linejoin: miter"/>
    </g>
    <g id="text_13">
     <!-- 2024 -->
     <g transform="translate(38.064 109.7395) scale(0.14 -0.14)">
      <defs>
       <path id="Garamond-34" d="M 2097 4075 
L 2241 4075 
Q 2238 3978 2238 3959 
L 2247 3500 
L 2228 3088 
L 2241 2628 
L 2241 2266 
L 2247 1772 
Q 2247 1656 2241 1422 
L 2306 1419 
L 2528 1419 
L 2741 1416 
L 2916 1422 
Q 2922 1325 2922 1278 
Q 2922 1231 2916 1134 
Q 2722 1125 2706 1125 
L 2550 1128 
L 2425 1128 
Q 2375 1128 2241 1134 
Q 2234 691 2241 -44 
Q 2222 -63 2200 -69 
L 2006 -75 
Q 1944 -75 1816 -69 
Q 1825 300 1825 459 
Q 1825 600 1819 716 
Q 1809 928 1809 959 
Q 1809 1016 1816 1134 
Q 1684 1119 1613 1119 
Q 1575 1119 1528 1122 
Q 1213 1138 1172 1138 
Q 1131 1138 972 1116 
L 650 1134 
L 475 1125 
L 356 1144 
L 206 1113 
L 178 1134 
Q 172 1203 172 1238 
Q 172 1272 178 1341 
Q 266 1456 500 1809 
L 1109 2694 
Q 1334 3028 1487 3225 
Q 1641 3422 1791 3648 
Q 1941 3875 2097 4075 
z
M 1816 1422 
L 1819 1934 
L 1816 2341 
L 1816 3388 
Q 1559 3050 1103 2366 
Q 581 1584 484 1422 
Q 622 1428 691 1428 
L 1547 1416 
Q 1641 1416 1816 1422 
z
" transform="scale(0.015625)"/>
      </defs>
      <use xlink:href="#Garamond-32"/>
      <use xlink:href="#Garamond-30" x="46.875"/>
      <use xlink:href="#Garamond-32" x="93.75"/>
      <use xlink:href="#Garamond-34" x="140.625"/>
     </g>
    </g>
    <g id="patch_15">
     <path d="M 90.3792 126.152064 
L 168.7596 126.152064 
M 168.7596 87.831936 
M 90.3792 87.831936 
M 90.3792 126.152064 
" style="fill: #ffffff; stroke: #000000; stroke-width: 0.8; stroke-linejoin: miter"/>
    </g>
    <g id="text_14">
     <!-- 4.4% -->
     <g transform="translate(115.715963 109.7395) scale(0.14 -0.14)">
      <use xlink:href="#Garamond-34"/>
      <use xlink:href="#Garamond-2e" x="46.875"/>
      <use xlink:href="#Garamond-34" x="68.75"/>
      <use xlink:href="#Garamond-25" x="115.625"/>
     </g>
    </g>
    <g id="patch_16">
     <path d="M 168.7596 126.152064 
L 247.14 126.152064 
M 247.14 87.831936 
M 168.7596 87.831936 
M 168.7596 126.152064 
" style="fill: #ffffff; stroke: #000000; stroke-width: 0.8; stroke-linejoin: miter"/>
    </g>
    <g id="text_15">
     <!-- 3.4% -->
     <g transform="translate(194.096363 109.7395) scale(0.14 -0.14)">
      <use xlink:href="#Garamond-33"/>
      <use xlink:href="#Garamond-2e" x="46.875"/>
      <use xlink:href="#Garamond-34" x="68.75"/>
      <use xlink:href="#Garamond-25" x="115.625"/>
     </g>
    </g>
    <g id="patch_17">
     <path d="M 247.14 126.152064 
L 325.5204 126.152064 
M 325.5204 87.831936 
M 247.14 87.831936 
M 247.14 126.152064 
" style="fill: #ffffff; stroke: #000000; stroke-width: 0.8; stroke-linejoin: miter"/>
    </g>
    <g id="text_16">
     <!-- 2.4% -->
     <g transform="translate(272.476763 109.7395) scale(0.14 -0.14)">
      <use xlink:href="#Garamond-32"/>
      <use xlink:href="#Garamond-2e" x="46.875"/>
      <use xlink:href="#Garamond-34" x="68.75"/>
      <use xlink:href="#Garamond-25" x="115.625"/>
     </g>
    </g>
    <g id="patch_18">
     <path d="M 325.5204 126.152064 
L 403.9008 126.152064 
M 403.9008 87.831936 
M 325.5204 87.831936 
M 325.5204 126.152064 
" style="fill: #ffffff; stroke: #000000; stroke-width: 0.8; stroke-linejoin: miter"/>
    </g>
    <g id="text_17">
     <!-- 2.6% -->
     <g transform="translate(350.857163 109.7395) scale(0.14 -0.14)">
      <use xlink:href="#Garamond-32"/>
      <use xlink:href="#Garamond-2e" x="46.875"/>
      <use xlink:href="#Garamond-36" x="68.75"/>
      <use xlink:href="#Garamond-25" x="115.625"/>
     </g>
    </g>
    <g id="patch_19">
     <path d="M 403.9008 126.152064 
L 482.2812 126.152064 
M 482.2812 87.831936 
M 403.9008 87.831936 
M 403.9008 126.152064 
" style="fill: #ffffff; stroke: #000000; stroke-width: 0.8; stroke-linejoin: miter"/>
    </g>
    <g id="text_18">
     <!-- 13.4% -->
     <g transform="translate(425.956313 109.7395) scale(0.14 -0.14)">
      <use xlink:href="#Garamond-31"/>
      <use xlink:href="#Garamond-33" x="46.875"/>
      <use xlink:href="#Garamond-2e" x="93.75"/>
      <use xlink:href="#Garamond-34" x="115.625"/>
      <use xlink:href="#Garamond-25" x="162.5"/>
     </g>
    </g>
    <g id="patch_20">
     <path d="M 11.9988 164.472192 
L 90.3792 164.472192 
M 90.3792 126.152064 
M 11.9988 126.152064 
M 11.9988 164.472192 
" style="fill: #ffffff; stroke: #000000; stroke-width: 0.8; stroke-linejoin: miter"/>
    </g>
    <g id="text_19">
     <!-- 2025 -->
     <g transform="translate(38.064 148.059628) scale(0.14 -0.14)">
      <use xlink:href="#Garamond-32"/>
      <use xlink:href="#Garamond-30" x="46.875"/>
      <use xlink:href="#Garamond-32" x="93.75"/>
      <use xlink:href="#Garamond-35" x="140.625"/>
     </g>
    </g>
    <g id="patch_21">
     <path d="M 90.3792 164.472192 
L 168.7596 164.472192 
M 168.7596 126.152064 
M 90.3792 126.152064 
M 90.3792 164.472192 
" style="fill: #ffffff; stroke: #000000; stroke-width: 0.8; stroke-linejoin: miter"/>
    </g>
    <g id="text_20">
     <!-- 5.9% -->
     <g transform="translate(115.715963 148.059628) scale(0.14 -0.14)">
      <defs>
       <path id="Garamond-39" d="M 2234 3784 
Q 2466 3534 2566 3291 
Q 2700 2947 2700 2494 
Q 2700 1981 2550 1581 
Q 2400 1181 2186 889 
Q 1972 597 1737 408 
Q 1503 219 1159 62 
Q 816 -94 584 -94 
L 559 -94 
Q 522 -66 522 -25 
Q 522 22 537 37 
Q 553 53 619 56 
Q 734 66 1009 200 
Q 1384 388 1581 613 
Q 1916 994 2080 1475 
Q 2244 1956 2244 2553 
Q 2244 3050 2131 3359 
Q 2019 3669 1812 3806 
Q 1606 3944 1416 3944 
Q 1166 3944 991 3706 
Q 750 3375 750 2750 
Q 750 2256 975 1972 
Q 1134 1772 1413 1772 
Q 1513 1772 1556 1791 
L 1581 1800 
Q 1613 1800 1638 1769 
Q 1675 1722 1675 1672 
L 1641 1644 
Q 1572 1613 1483 1597 
Q 1394 1581 1284 1581 
Q 900 1581 590 1931 
Q 281 2281 281 2813 
Q 281 3356 629 3720 
Q 978 4084 1463 4084 
Q 1672 4084 1831 4025 
Q 1991 3966 2234 3784 
z
" transform="scale(0.015625)"/>
      </defs>
      <use xlink:href="#Garamond-35"/>
      <use xlink:href="#Garamond-2e" x="46.875"/>
      <use xlink:href="#Garamond-39" x="68.75"/>
      <use xlink:href="#Garamond-25" x="115.625"/>
     </g>
    </g>
    <g id="patch_22">
     <path d="M 168.7596 164.472192 
L 247.14 164.472192 
M 247.14 126.152064 
M 168.7596 126.152064 
M 168.7596 164.472192 
" style="fill: #ffffff; stroke: #000000; stroke-width: 0.8; stroke-linejoin: miter"/>
    </g>
    <g id="text_21">
     <!-- 3.3% -->
     <g transform="translate(194.096363 148.059628) scale(0.14 -0.14)">
      <use xlink:href="#Garamond-33"/>
      <use xlink:href="#Garamond-2e" x="46.875"/>
      <use xlink:href="#Garamond-33" x="68.75"/>
      <use xlink:href="#Garamond-25" x="115.625"/>
     </g>
    </g>
    <g id="patch_23">
     <path d="M 247.14 164.472192 
L 325.5204 164.472192 
M 325.5204 126.152064 
M 247.14 126.152064 
M 247.14 164.472192 
" style="fill: #ffffff; stroke: #000000; stroke-width: 0.8; stroke-linejoin: miter"/>
    </g>
    <g id="text_22">
     <!-- 2.5% -->
     <g transform="translate(272.476763 148.059628) scale(0.14 -0.14)">
      <use xlink:href="#Garamond-32"/>
      <use xlink:href="#Garamond-2e" x="46.875"/>
      <use xlink:href="#Garamond-35" x="68.75"/>
      <use xlink:href="#Garamond-25" x="115.625"/>
     </g>
    </g>
    <g id="patch_24">
     <path d="M 325.5204 164.472192 
L 403.9008 164.472192 
M 403.9008 126.152064 
M 325.5204 126.152064 
M 325.5204 164.472192 
" style="fill: #ffffff; stroke: #000000; stroke-width: 0.8; stroke-linejoin: miter"/>
    </g>
    <g id="text_23">
     <!-- 3.7% -->
     <g transform="translate(350.857163 148.059628) scale(0.14 -0.14)">
      <use xlink:href="#Garamond-33"/>
      <use xlink:href="#Garamond-2e" x="46.875"/>
      <use xlink:href="#Garamond-37" x="68.75"/>
      <use xlink:href="#Garamond-25" x="115.625"/>
     </g>
    </g>
    <g id="patch_25">
     <path d="M 403.9008 164.472192 
L 482.2812 164.472192 
M 482.2812 126.152064 
M 403.9008 126.152064 
M 403.9008 164.472192 
" style="fill: #ffffff; stroke: #000000; stroke-width: 0.8; stroke-linejoin: miter"/>
    </g>
    <g id="text_24">
     <!-- 16.2% -->
     <g transform="translate(425.956313 148.059628) scale(0.14 -0.14)">
      <use xlink:href="#Garamond-31"/>
      <use xlink:href="#Garamond-36" x="46.875"/>
      <use xlink:href="#Garamond-2e" x="93.75"/>
      <use xlink:href="#Garamond-32" x="115.625"/>
      <use xlink:href="#Garamond-25" x="162.5"/>
     </g>
    </g>
    <g id="patch_26">
     <path d="M 11.9988 202.79232 
L 90.3792 202.79232 
M 90.3792 164.472192 
M 11.9988 164.472192 
M 11.9988 202.79232 
" style="fill: #ffffff; stroke: #000000; stroke-width: 0.8; stroke-linejoin: miter"/>
    </g>
    <g id="text_25">
     <!-- 2026 -->
     <g transform="translate(38.064 186.379756) scale(0.14 -0.14)">
      <use xlink:href="#Garamond-32"/>
      <use xlink:href="#Garamond-30" x="46.875"/>
      <use xlink:href="#Garamond-32" x="93.75"/>
      <use xlink:href="#Garamond-36" x="140.625"/>
     </g>
    </g>
    <g id="patch_27">
     <path d="M 90.3792 202.79232 
L 168.7596 202.79232 
M 168.7596 164.472192 
M 90.3792 164.472192 
M 90.3792 202.79232 
" style="fill: #ffffff; stroke: #000000; stroke-width: 0.8; stroke-linejoin: miter"/>
    </g>
    <g id="text_26">
     <!-- 6.2% -->
     <g transform="translate(115.715963 186.379756) scale(0.14 -0.14)">
      <use xlink:href="#Garamond-36"/>
      <use xlink:href="#Garamond-2e" x="46.875"/>
      <use xlink:href="#Garamond-32" x="68.75"/>
      <use xlink:href="#Garamond-25" x="115.625"/>
     </g>
    </g>
    <g id="patch_28">
     <path d="M 168.7596 202.79232 
L 247.14 202.79232 
M 247.14 164.472192 
M 168.7596 164.472192 
M 168.7596 202.79232 
" style="fill: #ffffff; stroke: #000000; stroke-width: 0.8; stroke-linejoin: miter"/>
    </g>
    <g id="patch_29">
     <path d="M 247.14 202.79232 
L 325.5204 202.79232 
M 325.5204 164.472192 
M 247.14 164.472192 
M 247.14 202.79232 
" style="fill: #ffffff; stroke: #000000; stroke-width: 0.8; stroke-linejoin: miter"/>
    </g>
    <g id="patch_30">
     <path d="M 325.5204 202.79232 
L 403.9008 202.79232 
M 403.9008 164.472192 
M 325.5204 164.472192 
M 325.5204 202.79232 
" style="fill: #ffffff; stroke: #000000; stroke-width: 0.8; stroke-linejoin: miter"/>
    </g>
    <g id="patch_31">
     <path d="M 403.9008 202.79232 
L 482.2812 202.79232 
M 482.2812 164.472192 
M 403.9008 164.472192 
M 403.9008 202.79232 
" style="fill: #ffffff; stroke: #000000; stroke-width: 0.8; stroke-linejoin: miter"/>
    </g>
    <g id="text_27">
     <!-- 6.2% -->
     <g transform="translate(429.237563 186.379756) scale(0.14 -0.14)">
      <use xlink:href="#Garamond-36"/>
      <use xlink:href="#Garamond-2e" x="46.875"/>
      <use xlink:href="#Garamond-32" x="68.75"/>
      <use xlink:href="#Garamond-25" x="115.625"/>
     </g>
    </g>
   </g>
  </g>
 </g>
</svg>
